<svg width="140" height="120" viewBox="0 0 140 120" fill="none" xmlns="http://www.w3.org/2000/svg">
<path fill-rule="evenodd" clip-rule="evenodd" d="M122.493 43.3849L110.232 60.6519C107.802 63.2745 106.028 64.414 104.407 64.414C102.731 64.414 100.835 63.814 98.7731 62.6315C95.0056 60.47 90.8453 56.5436 86.0546 50.6237C84.5995 48.8285 83.0835 46.84 81.4183 44.5458C80.7958 43.6906 80.1811 42.8315 79.4678 41.8234L78.2371 40.1103L91.3459 22.1371C94.898 17.1976 100.749 14.1277 106.619 14.1277C110.629 14.1277 114.171 15.151 117.177 17.1786C117.199 17.195 117.225 17.2077 117.248 17.2241L118.002 17.6549C123.261 21.2793 125.992 27.1095 125.813 32.965C125.812 36.6008 124.743 40.2531 122.493 43.3849ZM69.9734 106.104C65.1361 106.104 59.225 102.057 54.5446 95.5435V95.5448L17.5072 43.3849C15.2571 40.2531 14.1898 36.6009 14.1872 32.9651C14.0095 27.1096 16.7408 21.2794 21.9996 17.6549L22.7531 17.2241C22.7764 17.2077 22.801 17.1951 22.8231 17.1786L22.884 17.1256C26.0575 14.9956 29.6835 13.87 33.3796 13.87C39.5073 13.87 45.2214 16.7327 48.6658 21.5295L62.8381 41.2272L64.62 43.7664C64.904 44.1795 65.2425 44.6735 65.3955 44.8895L67.3641 47.6865C68.2162 48.8955 68.9398 49.9099 69.6726 50.9181C69.7841 51.0734 69.8892 51.2124 70.0007 51.364C71.8604 53.9096 73.5308 56.0749 75.2141 58.1139C83.6684 68.3455 91.5949 74.225 99.3411 75.9886L85.4555 95.5448V95.5435C80.7764 102.057 74.864 106.104 70.0266 106.104H69.9734ZM139.942 30.5672C139.388 22.5932 136.036 15.3695 130.568 9.95115C130.134 9.52289 129.706 9.12747 129.27 8.74089C128.662 8.20777 128.268 7.88689 127.87 7.57106C127.763 7.48768 127.661 7.40304 127.555 7.32093C127.072 6.94825 126.578 6.58694 126.071 6.24079C126.063 6.23574 125.336 5.74304 125.336 5.74304C123.88 4.74881 122.354 3.88723 120.776 3.14566C117.248 1.48819 113.448 0.471217 109.519 0.135175C108.559 0.0530593 107.593 0 106.62 0C100.768 0 95.1198 1.5223 90.1981 4.27886C86.1052 6.57178 82.5116 9.71617 79.7363 13.5769L70.0019 27.1234L60.2637 13.5769C57.4884 9.71617 53.8948 6.57178 49.8019 4.27886C44.8802 1.5223 39.2324 0 33.3809 0C32.4069 0 31.4421 0.0530593 30.4811 0.135175C26.5516 0.471217 22.753 1.48819 19.2242 3.14566C17.6459 3.88723 16.1195 4.74881 14.6644 5.74304L13.9862 6.20163C13.422 6.58694 12.9292 6.94825 12.4455 7.32093C12.3391 7.40304 12.2367 7.48768 12.1316 7.57106C11.7322 7.88689 11.3392 8.20777 10.9567 8.54003C10.294 9.12747 9.866 9.52289 9.4536 9.93094C3.96394 15.3695 0.612822 22.5932 0.073323 30.3019C0.0292293 31.0486 0.0149637 31.5324 0.00718251 32.0163C0.00329189 32.2677 -0.0018956 32.5165 0.000698148 32.7679C0.00718251 33.416 0.0409012 34.0616 0.0849948 34.7046C0.108339 35.023 0.138167 35.34 0.171885 35.6584C0.201713 35.9439 0.239323 36.2282 0.275635 36.5124C0.931852 41.4444 2.77471 46.2968 5.89887 50.6439L42.9336 104.287C43.7079 105.366 44.5288 106.392 45.3782 107.376C45.4846 107.498 45.5857 107.628 45.6921 107.75C45.8308 107.908 45.9774 108.053 46.1175 108.208C52.8132 115.572 61.4711 120 69.5947 120H70.4053C78.5302 120 87.1868 115.572 93.8825 108.208C94.0226 108.053 94.1692 107.908 94.3079 107.75C94.4156 107.628 94.5167 107.498 94.6218 107.376C95.4725 106.392 96.2921 105.366 97.0677 104.287L134.101 50.6439C137.225 46.2968 139.068 41.4444 139.724 36.5124C139.761 36.2282 139.8 35.9439 139.828 35.6584C139.862 35.34 139.892 35.023 139.915 34.7046C139.96 34.0616 139.994 33.416 139.999 32.7679C140.002 32.5165 139.997 32.2677 139.994 32.0163C139.986 31.5324 139.971 31.0486 139.942 30.5672Z" fill="url(#paint0_linear_1655_6073)"/>
<defs>
<linearGradient id="paint0_linear_1655_6073" x1="62.7055" y1="129.69" x2="144.957" y2="52.0089" gradientUnits="userSpaceOnUse">
<stop stop-color="#FECB40"/>
<stop offset="0.30904" stop-color="#F7507C"/>
<stop offset="0.63914" stop-color="#4852E8"/>
<stop offset="1" stop-color="#47CDAE"/>
</linearGradient>
</defs>
</svg>
