<svg preserveAspectRatio="none" width="100%" height="100%" overflow="visible" style="display: block;" viewBox="0 0 26.4533 6.82667" fill="none" xmlns="http://www.w3.org/2000/svg">
<g id="Group">
<path id="Vector" d="M0 3.44203C0 2.32476 0.794294 1.63799 2.06438 1.63799H3.37935V0H5.02511V5.14563H2.05825C0.794274 5.14563 0 4.48551 0 3.44203ZM1.73632 3.38668C1.73632 3.81514 1.99479 4.0386 2.49131 4.0386H3.3705V2.72657H2.49948C2.0029 2.72657 1.73632 2.95207 1.73632 3.38668V3.38668ZM15.6677 3.38463C15.6677 4.50191 14.8734 5.18868 13.6033 5.18868H12.2884V6.82667H10.6426V1.68104H13.6095C14.8735 1.68104 15.6677 2.34116 15.6677 3.38463V3.38463ZM13.9314 3.43998C13.9314 3.01152 13.6726 2.78807 13.1755 2.78807H12.2972V4.1001H13.1693C13.6665 4.1001 13.9314 3.87459 13.9314 3.43998ZM26.4533 3.38463C26.4533 4.50191 25.659 5.18868 24.3889 5.18868H23.074V6.82667H21.4282V1.68104H24.3951C25.659 1.68104 26.4533 2.34116 26.4533 3.38463V3.38463ZM24.717 3.43998C24.717 3.01152 24.4582 2.78807 23.9611 2.78807H23.0828V4.1001H23.9549C24.4521 4.1001 24.717 3.87459 24.717 3.43998ZM16.158 3.41538C16.158 2.16494 17.1548 1.49654 18.5275 1.49654C19.9003 1.49654 20.8971 2.16494 20.8971 3.41538C20.8971 4.66577 19.9003 5.35063 18.5275 5.35063C17.1548 5.34858 16.158 4.66577 16.158 3.41538V3.41538ZM19.2834 3.39591C19.2834 2.78637 18.979 2.48056 18.5173 2.48056C18.0557 2.48056 17.7513 2.78637 17.7513 3.39591C17.7513 3.99723 18.0557 4.32561 18.5173 4.32561C18.981 4.32356 19.2834 3.99723 19.2834 3.39591V3.39591ZM10.0911 3.48328C10.0911 2.23287 9.28972 1.47604 7.84199 1.47604C6.45134 1.47604 5.55622 2.23287 5.55622 3.41747C5.55622 4.61651 6.44321 5.33013 7.9215 5.33013C8.85135 5.33013 9.6017 4.98051 9.99728 4.41288L8.8187 3.98099C8.6148 4.20517 8.3069 4.32856 7.9827 4.32856C7.49536 4.32856 7.15688 4.13114 7.06919 3.79589C7.06306 3.7733 7.05897 3.75272 7.05493 3.72804H10.0911V3.4833V3.48328ZM7.06784 2.95207C7.10669 2.54588 7.38691 2.29606 7.8737 2.29606C8.36052 2.29606 8.64074 2.5601 8.64074 2.95207H7.06784Z" fill="var(--fill-0, #FF2300)"/>
</g>
</svg>
