<svg preserveAspectRatio="none" width="100%" height="100%" overflow="visible" style="display: block;" viewBox="0 0 46.2933 11.9467" fill="none" xmlns="http://www.w3.org/2000/svg">
<g id="Group">
<path id="Vector" d="M0 6.02356C0 4.06832 1.39002 2.86648 3.61267 2.86648H5.91386V0H8.79395V9.00485H3.60194C1.38998 9.00485 0 7.84964 0 6.02356ZM3.03856 5.9267C3.03856 6.6765 3.49087 7.06755 4.3598 7.06755H5.89838V4.77149H4.37409C3.50507 4.77149 3.03856 5.16613 3.03856 5.9267V5.9267ZM27.4185 5.92311C27.4185 7.87834 26.0285 9.08019 23.8059 9.08019H21.5047V11.9467H18.6246V2.94182H23.8166C26.0285 2.94182 27.4185 4.09703 27.4185 5.92311V5.92311ZM24.38 6.01997C24.38 5.27017 23.9271 4.87912 23.057 4.87912H21.5201V7.17518H23.0463C23.9164 7.17518 24.38 6.78054 24.38 6.01997ZM46.2933 5.92311C46.2933 7.87834 44.9033 9.08019 42.6807 9.08019H40.3795V11.9467H37.4994V2.94182H42.6914C44.9033 2.94182 46.2933 4.09703 46.2933 5.92311V5.92311ZM43.2548 6.01997C43.2548 5.27017 42.8019 4.87912 41.9319 4.87912H40.395V7.17518H41.9211C42.7912 7.17518 43.2548 6.78054 43.2548 6.01997ZM28.2765 5.97692C28.2765 3.78864 30.021 2.61894 32.4232 2.61894C34.8255 2.61894 36.5699 3.78864 36.5699 5.97692C36.5699 8.1651 34.8255 9.3636 32.4232 9.3636C30.021 9.36002 28.2765 8.1651 28.2765 5.97692V5.97692ZM33.7459 5.94284C33.7459 4.87614 33.2132 4.34098 32.4053 4.34098C31.5974 4.34098 31.0648 4.87614 31.0648 5.94284C31.0648 6.99515 31.5974 7.56981 32.4053 7.56981C33.2168 7.56622 33.7459 6.99515 33.7459 5.94284V5.94284ZM17.6594 6.09574C17.6594 3.90753 16.257 2.58306 13.7235 2.58306C11.2899 2.58306 9.72339 3.90753 9.72339 5.98058C9.72339 8.07889 11.2756 9.32773 13.8626 9.32773C15.4899 9.32773 16.803 8.7159 17.4952 7.72253L15.4327 6.96674C15.0759 7.35904 14.5371 7.57498 13.9697 7.57498C13.1169 7.57498 12.5245 7.22949 12.3711 6.64281C12.3604 6.60328 12.3532 6.56726 12.3461 6.52406H17.6594V6.09578V6.09574ZM12.3687 5.16613C12.4367 4.45528 12.9271 4.0181 13.779 4.0181C14.6309 4.0181 15.1213 4.48018 15.1213 5.16613H12.3687Z" fill="var(--fill-0, #FF2300)"/>
</g>
</svg>
