<svg preserveAspectRatio="none" width="100%" height="100%" overflow="visible" style="display: block;" viewBox="0 0 37.2232 14.9172" fill="none" xmlns="http://www.w3.org/2000/svg">
<g id="Vector">
<path d="M23.5652 7.91117C21.8738 7.96661 20.8229 8.27182 20.8229 9.38591C20.8229 10.1071 21.3979 10.889 22.8576 10.889C24.8147 10.889 25.8594 9.82226 25.8594 8.07261L25.8595 7.88017C25.1734 7.88017 24.3272 7.88616 23.5652 7.91117ZM27.7249 10.2228C27.7249 10.7657 27.7406 11.3015 27.788 11.784H26.0528C26.0066 11.3867 25.9897 10.9919 25.9897 10.609C25.0516 11.7621 23.9358 12.0936 22.3879 12.0936C20.0921 12.0936 18.8628 10.8802 18.8628 9.4766C18.8628 7.44376 20.5347 6.72702 23.4372 6.66052C24.2309 6.6424 25.1224 6.63971 25.8595 6.63971L25.8594 6.44109C25.8594 5.08017 24.9868 4.52062 23.4746 4.52062C22.352 4.52062 21.5246 4.98519 21.4394 5.78795H19.4795C19.6869 3.7864 21.7898 3.28018 23.6388 3.28018C25.8539 3.28018 27.7249 4.0683 27.7249 6.4112V10.2228Z" fill="#FFBD14"/>
<path d="M7.4311 6.91853C7.35873 5.1736 6.09928 4.52062 4.75321 4.52062C3.30173 4.52062 2.14288 5.25513 1.93988 6.91853H7.4311ZM1.89966 8.15899C2.00033 9.85203 3.16785 10.8534 4.7732 10.8534C5.88544 10.8534 6.87482 10.4002 7.20609 9.4143H9.12994C8.75577 11.4147 6.63026 12.0936 4.80077 12.0936C1.47428 12.0936 0 10.2617 0 7.79106C0 5.07136 1.52487 3.28018 4.83113 3.28018C7.46276 3.28018 9.39097 4.65741 9.39097 7.66343V8.15899H1.89966Z" fill="#F02D2D"/>
<path d="M14.1758 10.8179C15.9094 10.8179 17.0956 9.57015 17.0956 7.68715C17.0956 5.80432 15.9094 4.55636 14.1758 4.55636C12.452 4.55636 11.2559 5.80432 11.2559 7.68715C11.2559 9.57015 12.452 10.8179 14.1758 10.8179ZM9.39088 0H11.2559L11.2557 4.68555C12.1698 3.59641 13.4291 3.28018 14.6687 3.28018C16.747 3.28018 19.0555 4.68265 19.0555 7.71081C19.0555 10.2465 17.2196 12.0936 14.6341 12.0936C13.2807 12.0936 12.0068 11.6082 11.2212 10.6463C11.2212 11.0305 11.1997 11.4177 11.1577 11.784H9.3274C9.35923 11.1918 9.39088 10.4544 9.39088 9.85781V0Z" fill="#0968F6"/>
<path d="M37.2232 3.59046L31.4556 14.9172H29.3672L31.0254 11.7721L26.6849 3.59046H28.8672L32.0611 9.98282L35.2461 3.59046H37.2232Z" fill="var(--fill-0, #92C821)"/>
</g>
</svg>
