<svg preserveAspectRatio="none" width="100%" height="100%" overflow="visible" style="display: block;" viewBox="0 0 21.2704 8.52413" fill="none" xmlns="http://www.w3.org/2000/svg">
<g id="Vector">
<path d="M13.4658 4.52067C12.4993 4.55235 11.8988 4.72676 11.8988 5.36338C11.8988 5.77551 12.2274 6.22231 13.0615 6.22231C14.1798 6.22231 14.7768 5.61272 14.7768 4.61292L14.7769 4.50296C14.3848 4.50296 13.9013 4.50638 13.4658 4.52067ZM15.8428 5.84161C15.8428 6.1518 15.8518 6.45799 15.8788 6.73371H14.8873C14.8609 6.50668 14.8512 6.28109 14.8512 6.06228C14.3152 6.72122 13.6776 6.91066 12.7931 6.91066C11.4812 6.91066 10.7788 6.21725 10.7788 5.4152C10.7788 4.25358 11.7341 3.84401 13.3927 3.80601C13.8462 3.79566 14.3557 3.79412 14.7769 3.79412L14.7768 3.68062C14.7768 2.90296 14.2781 2.58321 13.4141 2.58321C12.7726 2.58321 12.2998 2.84868 12.2511 3.3074H11.1311C11.2497 2.16366 12.4513 1.87439 13.5079 1.87439C14.7737 1.87439 15.8428 2.32474 15.8428 3.66354V5.84161Z" fill="#FFBD14"/>
<path d="M4.24634 3.95344C4.20499 2.95634 3.4853 2.58321 2.71612 2.58321C1.8867 2.58321 1.2245 3.00293 1.1085 3.95344H4.24634ZM1.08552 4.66228C1.14304 5.62973 1.8102 6.20192 2.72754 6.20192C3.36311 6.20192 3.92847 5.94296 4.11777 5.3796H5.21711C5.0033 6.52267 3.78872 6.91066 2.7433 6.91066C0.842444 6.91066 0 5.8638 0 4.45203C0 2.89792 0.871355 1.87439 2.76064 1.87439C4.26443 1.87439 5.36627 2.66138 5.36627 4.3791V4.66228H1.08552Z" fill="#F02D2D"/>
<path d="M8.10045 6.18168C9.09106 6.18168 9.76892 5.46866 9.76892 4.39266C9.76892 3.31676 9.09106 2.60363 8.10045 2.60363C7.11541 2.60363 6.43192 3.31676 6.43192 4.39266C6.43192 5.46866 7.11541 6.18168 8.10045 6.18168ZM5.36622 0H6.43192L6.43182 2.67746C6.95415 2.05509 7.67377 1.87439 8.3821 1.87439C9.56973 1.87439 10.8888 2.6758 10.8888 4.40618C10.8888 5.85517 9.83975 6.91065 8.36232 6.91065C7.58899 6.91065 6.86104 6.63323 6.41211 6.0836C6.41211 6.30313 6.39985 6.5244 6.37584 6.73371H5.32994C5.34813 6.39531 5.36622 5.97397 5.36622 5.63303V0Z" fill="#0968F6"/>
<path d="M21.2704 2.05169L17.9747 8.52413H16.7813L17.7288 6.72689L15.2485 2.05169H16.4955L18.3206 5.70447L20.1406 2.05169H21.2704Z" fill="var(--fill-0, #92C821)"/>
</g>
</svg>
