<svg preserveAspectRatio="none" width="100%" height="100%" overflow="visible" style="display: block;" viewBox="0 0 39.2 18.7091" fill="none" xmlns="http://www.w3.org/2000/svg">
<g id="Group">
<path id="Shape" fill-rule="evenodd" clip-rule="evenodd" d="M4.20395 6.73775V1.46877C4.20395 1.27282 4.22338 1.1553 4.5544 1.1553H9.01098C9.78957 1.1553 10.2177 1.82133 10.5292 3.07472L10.7822 4.07376H11.5411C11.6772 1.23396 11.7938 0 11.7938 0C11.7938 0 9.88669 0.215376 8.75789 0.215376H3.05596L0 0.117404V0.940045L1.03168 1.13587C1.75176 1.27306 1.92658 1.42956 1.98543 2.0957C1.98543 2.0957 2.04393 4.05421 2.04393 7.28602C2.04393 10.5174 1.98543 12.4566 1.98543 12.4566C1.98543 13.044 1.75176 13.2594 1.03168 13.3969L0 13.5929V14.4151L3.05596 14.3173H8.15493C9.30315 14.3173 11.9694 14.4151 11.9694 14.4151C12.0275 13.7098 12.417 10.5174 12.4754 10.1653H11.7553L10.9963 11.9084C10.3929 13.2791 9.51728 13.3772 8.54399 13.3772H5.644C4.67083 13.3772 4.20372 12.9854 4.20372 12.1433V7.67767C4.20372 7.67767 6.32501 7.67767 7.0644 7.73655C7.60943 7.77588 7.9401 7.93249 8.1155 8.69626L8.34917 9.71473H9.18557L9.12741 7.14872L9.24407 4.56362H8.40744L8.13516 5.69949C7.95976 6.44371 7.84321 6.58113 7.08405 6.6592C6.23437 6.75666 4.23419 6.73803 4.20395 6.73775ZM14.246 4.79843C15.1997 4.17161 15.4722 3.23157 15.7447 2.01727L16.5819 2.0367V5.01392L19.6179 4.89628L19.4624 6.22845L16.5818 6.01284V11.3204C16.5818 12.8086 17.0489 13.3964 17.9051 13.3964C18.6837 13.3964 19.306 12.9069 19.5007 12.5737L19.9096 13.1026C19.5007 14.1213 18.3138 14.6109 17.1654 14.6109C15.6865 14.6109 14.5771 13.7881 14.5771 12.1035V6.0908H12.8451V5.34658C13.0783 5.32692 13.6623 5.18997 14.246 4.79843ZM21.8948 11.2658L21.1553 11.2853C21.1941 11.7161 21.2138 12.2647 21.2138 12.7739C21.2138 13.3027 21.1943 13.7923 21.1553 14.0273C21.1553 14.0273 22.6344 14.5752 24.1329 14.5752C26.157 14.5752 27.7724 13.5959 27.7724 11.6765C27.7724 9.86907 26.2922 9.20241 24.9582 8.60157C23.864 8.10873 22.8681 7.66019 22.8681 6.66269C22.8681 5.74231 23.6854 5.38964 24.5806 5.38964C25.2813 5.38964 25.8651 5.64422 25.9818 6.01668L26.4685 7.48557L27.1887 7.44647C27.2024 7.26256 27.2151 7.07218 27.2279 6.87912L27.2279 6.87908L27.2279 6.87904C27.2697 6.24964 27.3134 5.59188 27.4028 5.03742C26.7798 4.76317 25.4758 4.60621 24.659 4.60621C22.7513 4.60621 21.2141 5.44851 21.2141 7.32884C21.2141 9.08887 22.6005 9.70895 23.8811 10.2817C24.9802 10.7734 26.0015 11.2302 26.0015 12.343C26.0015 13.2044 25.4758 13.8116 24.2889 13.8116C23.1993 13.8116 22.6542 13.2438 22.4405 12.6755L21.8948 11.2658ZM33.0719 14.8629C32.9659 14.5885 32.8625 14.3203 32.7605 14.0558C31.9048 11.8369 31.1482 9.87482 29.739 6.62732C29.4477 5.94315 29.331 5.80619 28.8454 5.64981L28.4956 5.53264V4.84835L30.613 4.94609L33.2747 4.84835V5.53264L32.6336 5.66913C32.1673 5.76675 31.9536 6.02099 31.9536 6.33364C31.9536 6.43184 31.973 6.52958 32.0119 6.64699C32.1928 7.21043 33.3319 10.3307 34.1781 12.4784C34.874 10.9274 36.2131 7.64893 36.4604 7.01793C36.5577 6.74449 36.6162 6.56845 36.6162 6.39263C36.6162 6.04065 36.3827 5.84529 35.8778 5.68856L35.373 5.53252V4.84823L37.3543 4.94597L39.2 4.84823V5.53252L38.792 5.68856C38.0537 5.98201 37.9569 6.04065 37.7042 6.64687L34.5763 14.0757C32.7117 18.5328 30.6722 18.7091 29.3315 18.7091C28.6901 18.7091 27.8746 18.5131 27.3889 18.1422C27.5684 17.4518 27.7069 16.6366 27.8388 15.8598C27.8637 15.7129 27.8884 15.5675 27.9131 15.4245L28.7292 15.3854L29.0205 16.9107C29.0986 17.2815 29.3509 17.5163 29.8757 17.5163C30.9219 17.5163 32.0646 16.9351 33.0719 14.8629Z" fill="var(--fill-0, #F27224)"/>
</g>
</svg>
