<svg preserveAspectRatio="none" width="100%" height="100%" overflow="visible" style="display: block;" viewBox="0 0 22.4 10.6909" fill="none" xmlns="http://www.w3.org/2000/svg">
<g id="Group">
<path id="Shape" fill-rule="evenodd" clip-rule="evenodd" d="M2.40226 3.85014V0.839297C2.40226 0.727328 2.41336 0.660174 2.60251 0.660174H5.14913C5.59404 0.660174 5.83869 1.04076 6.01668 1.75698L6.16124 2.32786H6.59491C6.67268 0.705121 6.73934 0 6.73934 0C6.73934 0 5.64954 0.123072 5.00451 0.123072H1.74626L0 0.0670879V0.537168L0.589531 0.64907C1.00101 0.727461 1.1009 0.81689 1.13453 1.19754C1.13453 1.19754 1.16796 2.31669 1.16796 4.16344C1.16796 6.00992 1.13453 7.11803 1.13453 7.11803C1.13453 7.45374 1.00101 7.57681 0.589531 7.6554L0 7.76737V8.23718L1.74626 8.18133H4.65996C5.31609 8.18133 6.83963 8.23718 6.83963 8.23718C6.87286 7.83419 7.09545 6.00992 7.12881 5.80872H6.71734L6.2836 6.8048C5.93878 7.58804 5.43845 7.64409 4.88228 7.64409H3.22514C2.66904 7.64409 2.40213 7.42023 2.40213 6.93904V4.38724C2.40213 4.38724 3.61429 4.38724 4.0368 4.42088C4.34825 4.44336 4.5372 4.53285 4.63743 4.96929L4.77095 5.55127H5.24889L5.21566 4.08498L5.28233 2.60778H4.80425L4.64866 3.25685C4.54843 3.68212 4.48184 3.76064 4.04803 3.80526C3.56249 3.86095 2.41954 3.85031 2.40226 3.85014ZM8.14059 2.74196C8.68552 2.38378 8.84125 1.84661 8.99697 1.15273L9.47538 1.16383V2.8651L11.2102 2.79788L11.1213 3.55911L9.47531 3.43591V6.46883C9.47531 7.31923 9.74223 7.65507 10.2315 7.65507C10.6764 7.65507 11.032 7.37534 11.1433 7.18499L11.3769 7.48718C11.1433 8.06929 10.465 8.34908 9.80882 8.34908C8.96374 8.34908 8.32975 7.87894 8.32975 6.9163V3.48046H7.34004V3.05519C7.4733 3.04395 7.80701 2.9657 8.14059 2.74196ZM12.5113 6.43758L12.0887 6.44875C12.1109 6.69489 12.1222 7.00839 12.1222 7.29935C12.1222 7.60154 12.1111 7.88133 12.0887 8.01557C12.0887 8.01557 12.9339 8.32867 13.7903 8.32867C14.9469 8.32867 15.87 7.7691 15.87 6.67229C15.87 5.63947 15.0241 5.25852 14.2618 4.91518C13.6366 4.63356 13.0675 4.37725 13.0675 3.80725C13.0675 3.28132 13.5345 3.07979 14.0461 3.07979C14.4465 3.07979 14.78 3.22527 14.8468 3.4381L15.1248 4.27747L15.5364 4.25513C15.5442 4.15002 15.5515 4.04122 15.5588 3.9309C15.5827 3.57124 15.6076 3.19537 15.6587 2.87853C15.3028 2.72181 14.5576 2.63212 14.0909 2.63212C13.0007 2.63212 12.1224 3.11344 12.1224 4.18791C12.1224 5.19364 12.9145 5.54797 13.6463 5.87528C14.2744 6.15621 14.858 6.41723 14.858 7.05314C14.858 7.54536 14.5576 7.89237 13.8794 7.89237C13.2568 7.89237 12.9452 7.5679 12.8231 7.24316L12.5113 6.43758ZM18.8983 8.49306C18.8376 8.33624 18.7785 8.18298 18.7202 8.03182C18.2313 6.76392 17.7989 5.64272 16.9937 3.78704C16.8272 3.39608 16.7606 3.31783 16.4831 3.22846L16.2832 3.16151V2.77048L17.4931 2.82634L19.0141 2.77048V3.16151L18.6478 3.2395C18.3813 3.29529 18.2592 3.44056 18.2592 3.61922C18.2592 3.67534 18.2703 3.73119 18.2925 3.79828C18.3959 4.12025 19.0468 5.90324 19.5303 7.1305C19.928 6.24423 20.6932 4.37082 20.8345 4.01025C20.8901 3.854 20.9236 3.7534 20.9236 3.65293C20.9236 3.4518 20.7901 3.34017 20.5016 3.2506L20.2131 3.16144V2.77042L21.3453 2.82627L22.4 2.77042V3.16144L22.1668 3.2506C21.745 3.41829 21.6897 3.4518 21.5453 3.79821L19.7579 8.04323C18.6924 10.5902 17.527 10.6909 16.7608 10.6909C16.3943 10.6909 15.9284 10.5789 15.6508 10.367C15.7534 9.97246 15.8325 9.50661 15.9079 9.06272C15.9221 8.97881 15.9362 8.89569 15.9504 8.81398L16.4167 8.79164L16.5832 9.66325C16.6278 9.87515 16.7719 10.0093 17.0718 10.0093C17.6697 10.0093 18.3226 9.67721 18.8983 8.49306Z" fill="var(--fill-0, #F27224)"/>
</g>
</svg>
