<svg preserveAspectRatio="none" width="100%" height="100%" overflow="visible" style="display: block;" viewBox="0 0 40.32 40.32" fill="none" xmlns="http://www.w3.org/2000/svg">
<g id="f Logo 2">
<path id="Vector" d="M40.32 20.16C40.32 9.0263 31.2937 0 20.16 0C9.0263 0 0 9.0263 0 20.16C0 30.2221 7.37229 38.5621 17.0097 40.0745V25.9876H11.8917V20.16H17.0097V15.7176C17.0097 10.6642 20.0202 7.87405 24.6239 7.87405C26.8298 7.87405 29.1361 8.26829 29.1361 8.26829V13.2303H26.5933C24.0881 13.2303 23.3085 14.784 23.3085 16.3789V20.16H28.8996L28.0054 25.9876H23.3085V40.0745C32.9477 38.5621 40.32 30.2221 40.32 20.16Z" fill="var(--fill-0, #1877F2)"/>
<path id="Vector_2" d="M28.0072 25.9876L28.9014 20.16H23.3103V16.3789C23.3103 14.784 24.0917 13.2303 26.5951 13.2303H29.1379V8.26828C29.1379 8.26828 26.8316 7.87404 24.6257 7.87404C20.0202 7.87404 17.0115 10.6642 17.0115 15.7176V20.16H11.8917V25.9876H17.0097V40.0745C18.0365 40.2358 19.0884 40.32 20.16 40.32C21.2316 40.32 22.2835 40.2358 23.3103 40.0745V25.9876H28.0072V25.9876Z" fill="var(--fill-0, white)"/>
</g>
</svg>
