<svg preserveAspectRatio="none" width="100%" height="100%" overflow="visible" style="display: block;" viewBox="0 0 23.04 23.04" fill="none" xmlns="http://www.w3.org/2000/svg">
<g id="f Logo 2">
<path id="Vector" d="M23.04 11.52C23.04 5.15789 17.8821 0 11.52 0C5.15789 0 0 5.15789 0 11.52C0 17.2698 4.21274 22.0355 9.71981 22.8997V14.85H6.79526V11.52H9.71981V8.9815C9.71981 6.09382 11.4401 4.49946 14.0708 4.49946C15.3313 4.49946 16.6492 4.72474 16.6492 4.72474V7.56019H15.1962C13.7646 7.56019 13.3192 8.448 13.3192 9.35936V11.52H16.514L16.0031 14.85H13.3192V22.8997C18.8273 22.0355 23.04 17.2698 23.04 11.52Z" fill="var(--fill-0, #1877F2)"/>
<path id="Vector_2" d="M16.0041 14.85L16.5151 11.52H13.3202V9.35936C13.3202 8.448 13.7667 7.56019 15.1972 7.56019H16.6502V4.72473C16.6502 4.72473 15.3324 4.49945 14.0718 4.49945C11.4401 4.49945 9.72083 6.09382 9.72083 8.9815V11.52H6.79527V14.85H9.71981V22.8997C10.3066 22.9919 10.9077 23.04 11.52 23.04C12.1324 23.04 12.7334 22.9919 13.3202 22.8997V14.85H16.0041V14.85Z" fill="var(--fill-0, white)"/>
</g>
</svg>
