<svg preserveAspectRatio="none" width="100%" height="100%" overflow="visible" style="display: block;" viewBox="0 0 44.4267 6.32427" fill="none" xmlns="http://www.w3.org/2000/svg">
<g id="Group">
<path id="GRAILED" fill-rule="evenodd" clip-rule="evenodd" d="M4.91157 3.35104V5.89717C4.6816 6.03406 4.40372 6.13947 4.07792 6.21339C3.75212 6.28731 3.41949 6.32427 3.08 6.32427C2.6091 6.32427 2.18338 6.25035 1.80283 6.10251C1.42227 5.95466 1.09785 5.75207 0.829547 5.49472C0.561243 5.23737 0.355912 4.93074 0.213547 4.57483C0.0711815 4.21891 0 3.83015 0 3.40853C0 2.93216 0.0848702 2.49822 0.254613 2.10672C0.424356 1.71522 0.652959 1.37847 0.940427 1.09648C1.22789 0.814488 1.5619 0.595468 1.94245 0.439414C2.32301 0.28336 2.72409 0.205334 3.14571 0.205334C3.28807 0.205334 3.43728 0.214917 3.59333 0.234081C3.74939 0.253246 3.90407 0.281992 4.05739 0.320321C4.2107 0.35865 4.35854 0.403823 4.50091 0.455841C4.64327 0.507859 4.77195 0.569458 4.88693 0.640641L4.39413 1.46197C4.31748 1.41269 4.22576 1.37026 4.11899 1.33467C4.01221 1.29908 3.90133 1.26759 3.78635 1.24021C3.67136 1.21284 3.55774 1.1923 3.44549 1.17861C3.33324 1.16493 3.22784 1.15808 3.12928 1.15808C2.85003 1.15808 2.58309 1.2142 2.32848 1.32645C2.07387 1.4387 1.848 1.59065 1.65088 1.78229C1.45376 1.97394 1.29634 2.20254 1.17861 2.46811C1.06089 2.73367 1.00203 3.01703 1.00203 3.31819C1.00203 3.59197 1.05404 3.85205 1.15808 4.09845C1.26212 4.34485 1.40722 4.56251 1.59339 4.75141C1.77956 4.94032 2.00131 5.0909 2.25867 5.20315C2.51602 5.3154 2.79801 5.37152 3.10464 5.37152C3.21415 5.37152 3.35104 5.36194 3.51531 5.34277C3.67957 5.32361 3.83563 5.28939 3.98347 5.24011V4.22165H2.86645V3.35104H4.91157ZM7.8288 6.25856V0.271041H9.52075C9.84929 0.271041 10.1491 0.314845 10.4201 0.402454C10.6912 0.490063 10.9211 0.616 11.11 0.780267C11.2989 0.944535 11.4454 1.14713 11.5494 1.38805C11.6535 1.62898 11.7055 1.90002 11.7055 2.20117C11.7055 2.36544 11.6891 2.52971 11.6562 2.69397C11.6234 2.85824 11.5713 3.01703 11.5002 3.17035C11.429 3.32366 11.3359 3.46466 11.2209 3.59333C11.1059 3.72201 10.969 3.83289 10.8102 3.92597C10.9307 4.11762 11.0484 4.30516 11.1634 4.48859C11.2784 4.67202 11.3948 4.85682 11.5125 5.04299C11.6302 5.22916 11.752 5.4208 11.878 5.61792C12.0039 5.81504 12.1408 6.02859 12.2886 6.25856H11.0813C10.8349 5.87527 10.6022 5.51252 10.3832 5.17029C10.1641 4.82807 9.95332 4.50365 9.75072 4.19701H8.83083V6.25856H7.8288ZM8.83083 3.25248H9.63573C9.84381 3.25248 10.0163 3.21689 10.1532 3.14571C10.2901 3.07453 10.3996 2.98829 10.4817 2.88699C10.5638 2.78569 10.6213 2.67618 10.6542 2.55845C10.687 2.44073 10.7035 2.33259 10.7035 2.23403C10.7035 2.14094 10.6884 2.03554 10.6583 1.91781C10.6282 1.80009 10.5734 1.68921 10.494 1.58517C10.4146 1.48114 10.3065 1.39353 10.1696 1.32235C10.0327 1.25116 9.8575 1.21557 9.64395 1.21557H8.83083V3.25248ZM18.5241 6.25856C18.5076 6.22023 18.4789 6.15179 18.4378 6.05323C18.3967 5.95467 18.3461 5.83421 18.2859 5.69184C18.2256 5.54948 18.1599 5.39206 18.0887 5.21957C18.0176 5.04709 17.9436 4.86777 17.867 4.6816H15.8054L15.1484 6.25856H14.1546C14.1765 6.20928 14.2285 6.08745 14.3106 5.89307C14.3927 5.69868 14.4954 5.45776 14.6186 5.17029C14.7418 4.88283 14.8787 4.56251 15.0293 4.20933C15.1799 3.85616 15.3345 3.49614 15.4933 3.12928C15.6521 2.76242 15.8068 2.4024 15.9574 2.04923C16.108 1.69605 16.2449 1.37574 16.3681 1.08827C16.4913 0.800799 16.5939 0.559877 16.6761 0.365493C16.7582 0.17111 16.8102 0.0492803 16.8321 0C16.854 0.0492803 16.9074 0.17111 16.9923 0.365493C17.0771 0.559877 17.1812 0.800799 17.3044 1.08827C17.4276 1.37574 17.5645 1.69605 17.715 2.04923C17.8656 2.4024 18.0203 2.76242 18.1791 3.12928C18.3379 3.49614 18.4926 3.85616 18.6431 4.20933C18.7937 4.56251 18.9306 4.88283 19.0538 5.17029C19.177 5.45776 19.2797 5.69868 19.3618 5.89307C19.4439 6.08745 19.496 6.20928 19.5179 6.25856H18.5241ZM16.1504 3.83563H17.5138L16.9225 2.40651C16.917 2.40103 16.9033 2.36407 16.8814 2.29563C16.8595 2.22718 16.8431 2.16558 16.8321 2.11083C16.8212 2.16558 16.8047 2.22718 16.7828 2.29563C16.7609 2.36407 16.75 2.40103 16.75 2.40651L16.1504 3.83563ZM21.9998 0.271041H23.01V6.25856H21.9998V0.271041ZM26.1819 6.25856V0.271041H27.1839V5.30581H30.0914V6.25856H26.1819ZM32.6965 6.25856V0.271041H36.6718V1.18272H33.6986V2.79253H36.3433V3.72885H33.6986V5.32224H36.7868V6.25856H32.6965ZM39.5726 0.271041H41.1249C41.7272 0.271041 42.2378 0.362755 42.6567 0.546187C43.0756 0.729619 43.4164 0.966435 43.6793 1.25664C43.9421 1.54685 44.1324 1.87675 44.2501 2.24635C44.3678 2.61595 44.4267 2.98418 44.4267 3.35104C44.4267 3.80004 44.3459 4.20386 44.1844 4.56251C44.0229 4.92116 43.8052 5.22642 43.5314 5.47829C43.2576 5.73017 42.9387 5.92318 42.5746 6.05733C42.2104 6.19149 41.8258 6.25856 41.4206 6.25856H39.5726V0.271041ZM41.2645 5.30581C41.5766 5.30581 41.8641 5.26201 42.1269 5.1744C42.3898 5.08679 42.617 4.95675 42.8086 4.78427C43.0003 4.61179 43.1495 4.40098 43.2563 4.15184C43.363 3.9027 43.4164 3.61387 43.4164 3.28533C43.4164 2.91299 43.3521 2.59678 43.2234 2.33669C43.0947 2.0766 42.9318 1.8658 42.7347 1.70427C42.5376 1.54274 42.3186 1.42501 42.0777 1.35109C41.8367 1.27717 41.6068 1.24021 41.3877 1.24021H40.5828V5.30581H41.2645Z" fill="var(--fill-0, black)"/>
</g>
</svg>
