<svg preserveAspectRatio="none" width="100%" height="100%" overflow="visible" style="display: block;" viewBox="0 0 25.3867 3.61387" fill="none" xmlns="http://www.w3.org/2000/svg">
<g id="Group">
<path id="GRAILED" fill-rule="evenodd" clip-rule="evenodd" d="M2.80661 1.91488V3.36981C2.6752 3.44804 2.51641 3.50827 2.33024 3.55051C2.14407 3.59275 1.95399 3.61387 1.76 3.61387C1.49091 3.61387 1.24765 3.57163 1.03019 3.48715C0.812728 3.40267 0.627343 3.2869 0.474027 3.13984C0.32071 2.99278 0.203378 2.81757 0.122027 2.61419C0.0406752 2.41081 0 2.18866 0 1.94773C0 1.67552 0.0484973 1.42756 0.145493 1.20384C0.242489 0.980124 0.373119 0.787699 0.537387 0.62656C0.701654 0.465422 0.892514 0.340268 1.10997 0.251094C1.32743 0.16192 1.55662 0.117334 1.79755 0.117334C1.8789 0.117334 1.96416 0.122809 2.05333 0.133761C2.14251 0.144712 2.2309 0.161138 2.31851 0.183041C2.40612 0.204943 2.49059 0.230756 2.57195 0.260481C2.6533 0.290205 2.72683 0.325405 2.79253 0.366081L2.51093 0.835414C2.46713 0.807254 2.41472 0.783005 2.35371 0.762667C2.29269 0.742329 2.22933 0.724338 2.16363 0.708694C2.09792 0.693049 2.033 0.681316 1.96885 0.673494C1.90471 0.665672 1.84448 0.66176 1.78816 0.66176C1.62859 0.66176 1.47605 0.693831 1.33056 0.757974C1.18507 0.822116 1.056 0.908942 0.94336 1.01845C0.830719 1.12797 0.740765 1.2586 0.673493 1.41035C0.606222 1.5621 0.572587 1.72402 0.572587 1.89611C0.572587 2.05255 0.602311 2.20117 0.66176 2.34197C0.721209 2.48277 0.804124 2.60715 0.910507 2.71509C1.01689 2.82304 1.14361 2.90908 1.29067 2.97323C1.43773 3.03737 1.59886 3.06944 1.77408 3.06944C1.83666 3.06944 1.91488 3.06396 2.00875 3.05301C2.10261 3.04206 2.19179 3.02251 2.27627 2.99435V2.41237H1.63797V1.91488H2.80661ZM4.4736 3.57632V0.15488H5.44043C5.62816 0.15488 5.79947 0.179911 5.95435 0.229974C6.10923 0.280036 6.24064 0.352 6.34859 0.445867C6.45654 0.539734 6.54023 0.655502 6.59968 0.793174C6.65913 0.930846 6.68886 1.08572 6.68886 1.25781C6.68886 1.35168 6.67947 1.44555 6.6607 1.53941C6.64192 1.63328 6.6122 1.72402 6.57152 1.81163C6.53085 1.89924 6.47766 1.9798 6.41195 2.05333C6.34624 2.12686 6.26802 2.19022 6.17728 2.24341C6.24612 2.35293 6.31339 2.46009 6.3791 2.56491C6.4448 2.66973 6.51129 2.77532 6.57856 2.88171C6.64583 2.98809 6.71545 3.0976 6.78742 3.21024C6.85938 3.32288 6.9376 3.44491 7.02208 3.57632H6.33216C6.19136 3.3573 6.05839 3.15001 5.93323 2.95445C5.80807 2.7589 5.68761 2.57351 5.57184 2.39829H5.04619V3.57632H4.4736ZM5.04619 1.85856H5.50613C5.62503 1.85856 5.72359 1.83822 5.80181 1.79755C5.88004 1.75687 5.94261 1.70759 5.98955 1.64971C6.03648 1.59182 6.06933 1.52925 6.08811 1.46197C6.10688 1.3947 6.11627 1.33291 6.11627 1.27659C6.11627 1.2234 6.10766 1.16316 6.09045 1.09589C6.07324 1.02862 6.04196 0.965262 5.99659 0.905813C5.95122 0.846364 5.88942 0.796302 5.8112 0.755626C5.73298 0.714951 5.63285 0.694613 5.51083 0.694613H5.04619V1.85856ZM10.5852 3.57632C10.5758 3.55442 10.5594 3.51531 10.5359 3.45899C10.5124 3.40267 10.4835 3.33383 10.4491 3.25248C10.4146 3.17113 10.3771 3.08117 10.3364 2.98261C10.2958 2.88405 10.2535 2.78158 10.2097 2.6752H9.03168L8.65621 3.57632H8.08832C8.10084 3.54816 8.13056 3.47854 8.17749 3.36747C8.22443 3.25639 8.28309 3.11872 8.35349 2.95445C8.42389 2.79019 8.50211 2.60715 8.58816 2.40533C8.6742 2.20352 8.76259 1.9978 8.85333 1.78816C8.94407 1.57852 9.03246 1.3728 9.11851 1.17099C9.20455 0.969172 9.28277 0.786134 9.35317 0.621867C9.42357 0.457599 9.48224 0.319929 9.52917 0.208853C9.57611 0.0977772 9.60583 0.0281601 9.61835 0C9.63086 0.0281601 9.66137 0.0977772 9.70987 0.208853C9.75836 0.319929 9.81781 0.457599 9.88821 0.621867C9.95861 0.786134 10.0368 0.969172 10.1229 1.17099C10.2089 1.3728 10.2973 1.57852 10.3881 1.78816C10.4788 1.9978 10.5672 2.20352 10.6532 2.40533C10.7393 2.60715 10.8175 2.79019 10.8879 2.95445C10.9583 3.11872 11.017 3.25639 11.0639 3.36747C11.1108 3.47854 11.1406 3.54816 11.1531 3.57632H10.5852ZM9.2288 2.19179H10.0079L9.66997 1.37515C9.66684 1.37202 9.65902 1.3509 9.64651 1.31179C9.63399 1.27268 9.6246 1.23748 9.61835 1.20619C9.61209 1.23748 9.6027 1.27268 9.59019 1.31179C9.57767 1.3509 9.57141 1.37202 9.57141 1.37515L9.2288 2.19179ZM12.5713 0.15488H13.1486V3.57632H12.5713V0.15488ZM14.9611 3.57632V0.15488H15.5337V3.03189H17.1951V3.57632H14.9611ZM18.6837 3.57632V0.15488H20.9553V0.67584H19.2563V1.59573H20.7676V2.13077H19.2563V3.04128H21.021V3.57632H18.6837ZM22.6129 0.15488H23.4999C23.8441 0.15488 24.1359 0.207289 24.3753 0.312107C24.6146 0.416925 24.8094 0.552248 24.9596 0.71808C25.1098 0.883912 25.2185 1.07243 25.2858 1.28363C25.353 1.49483 25.3867 1.70524 25.3867 1.91488C25.3867 2.17145 25.3405 2.4022 25.2482 2.60715C25.1559 2.81209 25.0315 2.98652 24.8751 3.13045C24.7187 3.27438 24.5364 3.38468 24.3283 3.46133C24.1203 3.53799 23.9004 3.57632 23.6689 3.57632H22.6129V0.15488ZM23.5797 3.03189C23.7581 3.03189 23.9223 3.00686 24.0725 2.9568C24.2227 2.90674 24.3526 2.83243 24.4621 2.73387C24.5716 2.63531 24.6569 2.51485 24.7179 2.37248C24.7789 2.23011 24.8094 2.06507 24.8094 1.87733C24.8094 1.66457 24.7726 1.48388 24.6991 1.33525C24.6256 1.18663 24.5325 1.06617 24.4198 0.973867C24.3072 0.881564 24.182 0.814294 24.0444 0.772054C23.9067 0.729814 23.7753 0.708694 23.6501 0.708694H23.1902V3.03189H23.5797Z" fill="var(--fill-0, black)"/>
</g>
</svg>
