<svg preserveAspectRatio="none" width="100%" height="100%" overflow="visible" style="display: block;" viewBox="0 0 14.2154 16.4267" fill="none" xmlns="http://www.w3.org/2000/svg">
<g id="Group">
<path id="_Path_" d="M9.65788 0C7.11495 0.00414912 5.05538 2.09278 5.05436 4.66847V12.0041H6.75724V4.66847C6.75897 3.0698 8.02311 1.76634 9.60117 1.73609C11.1792 1.70583 12.4912 2.95991 12.5526 4.55736C12.6141 6.15482 11.4025 7.5085 9.82687 7.60272V9.3313C12.3165 9.21047 14.2603 7.10677 14.2146 4.58256C14.1689 2.05835 12.1503 0.0282692 9.65788 0Z" fill="var(--fill-0, #822533)"/>
<path id="_Path_2" d="M4.57564 16.4248C7.10741 16.4196 9.15797 14.3332 9.16102 11.7593V4.42256H7.46417V11.7593C7.46055 13.3583 6.19929 14.6604 4.62675 14.6887C3.05422 14.717 1.74843 13.4611 1.68916 11.8632C1.6299 10.2654 2.83894 8.91306 4.4091 8.82087V7.09202C1.91336 7.19359 -0.0450122 9.30423 0.00078716 11.8431C0.0465865 14.382 2.07976 16.4182 4.57749 16.4267L4.57564 16.4248Z" fill="var(--fill-0, #822533)"/>
</g>
</svg>
