<svg preserveAspectRatio="none" width="100%" height="100%" overflow="visible" style="display: block;" viewBox="0 0 24.8769 28.7467" fill="none" xmlns="http://www.w3.org/2000/svg">
<g id="Group">
<path id="_Path_" d="M16.9013 0C12.4512 0.00726096 8.84691 3.66236 8.84513 8.16982V21.0072H11.8252V8.16982C11.8282 5.37215 14.0404 3.09109 16.802 3.03815C19.5636 2.98521 21.8595 5.17984 21.9671 7.97539C22.0746 10.7709 19.9543 13.1399 17.197 13.3048V16.3298C21.5539 16.1183 24.9555 12.4368 24.8755 8.01948C24.7955 3.60211 21.2629 0.0494712 16.9013 0Z" fill="var(--fill-0, #822533)"/>
<path id="_Path_2" d="M8.00737 28.7434C12.438 28.7343 16.0264 25.0832 16.0318 20.5789V7.73949H13.0623V20.5789C13.056 23.377 10.8488 25.6557 8.09682 25.7052C5.34488 25.7548 3.05976 23.5568 2.95604 20.7607C2.85232 17.9645 4.96814 15.5979 7.71592 15.4365V12.411C3.34837 12.5888 -0.0787714 16.2824 0.00137753 20.7254C0.0815264 25.1685 3.63958 28.7318 8.01061 28.7467L8.00737 28.7434Z" fill="var(--fill-0, #822533)"/>
</g>
</svg>
