<svg preserveAspectRatio="none" width="100%" height="100%" overflow="visible" style="display: block;" viewBox="0 0 28 31.36" fill="none" xmlns="http://www.w3.org/2000/svg">
<g id="Frame">
<path id="Vector" fill-rule="evenodd" clip-rule="evenodd" d="M19.9763 30.3061L19.9069 3.72177C19.7277 3.54257 19.3783 3.59633 19.2416 3.63665L18.3311 3.91889C18.2184 3.54907 18.0722 3.19031 17.8943 2.84705C17.2491 1.61505 16.3039 0.963213 15.1615 0.962093H15.1581C15.0819 0.962093 15.0058 0.968813 14.9296 0.975533H14.9207C14.8876 0.935269 14.8532 0.89605 14.8176 0.857933C14.3203 0.324813 13.6819 0.0660927 12.917 0.0884927C11.4408 0.131053 9.97139 1.19729 8.78083 3.08897C7.94083 4.42177 7.30467 6.09393 7.12323 7.38977L4.21907 8.28801C3.36339 8.55681 3.33651 8.58257 3.22451 9.38785C3.13939 9.99937 0.902746 27.3023 0.902746 27.3023L19.6549 30.5447L19.9763 30.3061V30.3061ZM13.832 1.30257C13.5677 1.13475 13.2577 1.05333 12.945 1.06961C10.668 1.13681 8.68114 4.69281 8.17378 7.06385L10.3567 6.38737L10.7453 6.26753C11.0309 4.76225 11.7488 3.20097 12.6863 2.19521C13.0145 1.83456 13.402 1.53266 13.832 1.30257V1.30257ZM11.8239 5.93377L14.9554 4.96385C14.9655 4.14849 14.877 2.94225 14.4682 2.09105C14.0336 2.27025 13.6674 2.58385 13.4042 2.86497C12.7008 3.62097 12.1274 4.77457 11.825 5.93377H11.8239ZM15.9376 4.65921L17.3925 4.20785C17.1595 3.45297 16.6085 2.18625 15.4885 1.97457C15.8368 2.87281 15.9264 3.91217 15.9365 4.65921H15.9376Z" fill="var(--fill-0, #95BF47)"/>
<path id="Vector_2" d="M24.1775 5.69857C24.0666 5.68961 21.8983 5.65714 21.8983 5.65714C21.8983 5.65714 20.085 3.89538 19.9069 3.71618C19.8372 3.65199 19.749 3.61159 19.6549 3.60082V30.5402L27.7816 28.5197C27.7816 28.5197 24.4653 6.10066 24.444 5.94722C24.4339 5.88187 24.4022 5.82181 24.3538 5.77671C24.3055 5.73161 24.2433 5.70409 24.1775 5.69857V5.69857Z" fill="var(--fill-0, #5E8E3E)"/>
<path id="Vector_3" d="M15.1514 9.8829L14.2072 13.4143C14.2072 13.4143 13.1544 12.9338 11.9067 13.0133C10.0755 13.1287 10.0565 14.2834 10.0744 14.5723C10.1752 16.1515 14.3293 16.4965 14.5634 20.1959C14.7459 23.1067 13.0189 25.097 10.5303 25.2538C7.54322 25.4431 5.89906 23.6802 5.89906 23.6802L6.53186 20.9877C6.53186 20.9877 8.18722 22.2365 9.51106 22.1525C10.3768 22.0987 10.6871 21.3943 10.6546 20.897C10.5247 18.8362 7.14114 18.9583 6.92722 15.5725C6.74802 12.7232 8.61842 9.8381 12.7467 9.57714C14.3371 9.47634 15.1514 9.8829 15.1514 9.8829" fill="var(--fill-0, white)"/>
</g>
</svg>
