<svg preserveAspectRatio="none" width="100%" height="100%" overflow="visible" style="display: block;" viewBox="0 0 16 17.92" fill="none" xmlns="http://www.w3.org/2000/svg">
<g id="Frame" clip-path="url(#clip0_0_254)">
<path id="Vector" fill-rule="evenodd" clip-rule="evenodd" d="M11.4151 17.3178L11.3754 2.12673C11.273 2.02433 11.0733 2.05505 10.9952 2.07809L10.4749 2.23937C10.4105 2.02804 10.3269 1.82303 10.2253 1.62689C9.85665 0.922887 9.31649 0.550407 8.66369 0.549767H8.66177C8.61825 0.549767 8.57473 0.553607 8.53121 0.557447H8.52609C8.50717 0.534439 8.48753 0.512028 8.46721 0.490247C8.18305 0.185607 7.81825 0.0377672 7.38113 0.0505672C6.53761 0.0748872 5.69793 0.684167 5.01761 1.76513C4.53761 2.52673 4.17409 3.48225 4.07041 4.22273L2.41089 4.73601C1.92193 4.88961 1.90657 4.90433 1.84257 5.36449C1.79393 5.71393 0.515855 15.6013 0.515855 15.6013L11.2314 17.4541L11.4151 17.3178V17.3178ZM7.90401 0.744327C7.75296 0.648428 7.57581 0.601905 7.39713 0.611207C6.09601 0.649607 4.96065 2.68161 4.67073 4.03649L5.91809 3.64993L6.14017 3.58145C6.30337 2.72129 6.71361 1.82913 7.24929 1.25441C7.43688 1.04832 7.6583 0.875807 7.90401 0.744327V0.744327ZM6.75649 3.39073L8.54593 2.83649C8.55169 2.37057 8.50113 1.68129 8.26753 1.19489C8.01921 1.29729 7.80993 1.47649 7.65953 1.63713C7.25761 2.06913 6.92993 2.72833 6.75713 3.39073H6.75649ZM9.10721 2.66241L9.93857 2.40449C9.80545 1.97313 9.49057 1.24929 8.85057 1.12833C9.04961 1.64161 9.10081 2.23553 9.10657 2.66241H9.10721Z" fill="var(--fill-0, #95BF47)"/>
<path id="Vector_2" d="M13.8157 3.25633C13.7523 3.25121 12.5133 3.23265 12.5133 3.23265C12.5133 3.23265 11.4771 2.22593 11.3754 2.12353C11.3356 2.08685 11.2851 2.06377 11.2314 2.05761V17.4515L15.8752 16.297C15.8752 16.297 13.9802 3.48609 13.968 3.39841C13.9622 3.36107 13.9441 3.32675 13.9165 3.30098C13.8888 3.27521 13.8533 3.25948 13.8157 3.25633V3.25633Z" fill="var(--fill-0, #5E8E3E)"/>
<path id="Vector_3" d="M8.65793 5.64737L8.11841 7.66529C8.11841 7.66529 7.51681 7.39073 6.80385 7.43617C5.75745 7.50209 5.74657 8.16193 5.75681 8.32705C5.81441 9.22945 8.18817 9.42657 8.32193 11.5405C8.42625 13.2039 7.43937 14.3411 6.01729 14.4307C4.31041 14.5389 3.37089 13.5315 3.37089 13.5315L3.73249 11.993C3.73249 11.993 4.67841 12.7066 5.43489 12.6586C5.92961 12.6279 6.10689 12.2253 6.08833 11.9411C6.01409 10.7635 4.08065 10.8333 3.95841 8.89857C3.85601 7.27041 4.92481 5.62177 7.28385 5.47265C8.19265 5.41505 8.65793 5.64737 8.65793 5.64737" fill="var(--fill-0, white)"/>
</g>
<defs>
<clipPath id="clip0_0_254">
<rect width="16" height="17.92" fill="white"/>
</clipPath>
</defs>
</svg>
