<svg preserveAspectRatio="none" width="100%" height="100%" overflow="visible" style="display: block;" viewBox="0 0 16 14.7368" fill="none" xmlns="http://www.w3.org/2000/svg">
<g id="vestiaire collective icon">
<path id="Vector" d="M15.2502 0.439575L16 0.125593V0H10.3749V0.125593L11.2502 0.502372C12.1246 0.879151 12.3131 1.00474 12.3131 1.38152C12.3131 2.00949 11.6878 4.08177 11.5624 4.52135L9.68736 10.3614L6.68715 2.13508C6.50031 1.56991 6.43803 1.19313 6.43803 1.00474C6.43803 0.753558 6.56259 0.502372 7.31243 0.376779L8.06228 0.251186V0H0V0.188389L0.249948 0.251186C1.49969 0.502372 1.68736 0.753558 3.00021 4.01898L5.15632 9.32528L7.31243 14.6316H8.43762L12.7498 4.01898C13.875 1.44432 14.1258 1.00474 15.2502 0.439575Z" fill="var(--fill-0, #141A21)"/>
<ellipse id="Ellipse 19" cx="13.7895" cy="12.8421" rx="1.89474" ry="1.89474" fill="var(--fill-0, #141A21)"/>
</g>
</svg>
