<svg preserveAspectRatio="none" width="100%" height="100%" overflow="visible" style="display: block;" viewBox="0 0 28 25.7895" fill="none" xmlns="http://www.w3.org/2000/svg">
<g id="vestiaire collective icon">
<path id="Vector" d="M26.6878 0.769257L28 0.219788V0H18.1561V0.219788L19.6878 0.879151C21.218 1.53851 21.5479 1.7583 21.5479 2.41767C21.5479 3.5166 20.4536 7.1431 20.2342 7.91236L16.9529 18.1325L11.7025 3.73639C11.3755 2.74735 11.2666 2.08798 11.2666 1.7583C11.2666 1.31873 11.4845 0.879151 12.7968 0.659363L14.109 0.439576V0H0V0.329682L0.437409 0.439576C2.62446 0.879151 2.95288 1.31873 5.25036 7.03321L9.02356 16.3192L12.7968 25.6053H14.7658L22.3122 7.03321C24.2813 2.52756 24.7202 1.7583 26.6878 0.769257Z" fill="var(--fill-0, #141A21)"/>
<ellipse id="Ellipse 19" cx="24.1316" cy="22.4737" rx="3.31579" ry="3.31579" fill="var(--fill-0, #141A21)"/>
</g>
</svg>
