<svg preserveAspectRatio="none" width="100%" height="100%" overflow="visible" style="display: block;" viewBox="0 0 22.3767 11.189" fill="none" xmlns="http://www.w3.org/2000/svg">
<path id="WhatNot Icon" d="M18.6475 0.0800781C20.6631 0.0802847 22.2968 1.71381 22.2969 3.72949C22.2969 4.67945 21.9348 5.54418 21.3398 6.19336L21.2178 6.32031L17.5059 10.0322C16.8446 10.6971 15.9291 11.1094 14.917 11.1094C13.9684 11.1093 13.105 10.7471 12.4561 10.1543L12.3291 10.0322L9.72656 7.42969L9.59473 7.51367L10.3721 9.65039V9.65137C10.3814 9.67598 10.3754 9.70466 10.3564 9.72363L10.0391 10.041C9.379 10.7009 8.471 11.1094 7.45898 11.1094C6.51042 11.1093 5.64705 10.7471 4.99805 10.1543L4.87109 10.0322L1.15918 6.32031C0.493159 5.65902 0.0800781 4.74276 0.0800781 3.72949C0.0801692 1.71374 1.71374 0.0801691 3.72949 0.0800781C4.72912 0.0800781 5.63367 0.482333 6.29297 1.13281L7.2959 2.13574C7.38514 2.22669 7.53051 2.22535 7.62012 2.13574L8.59961 1.15723C9.26085 0.492392 10.1755 0.0801481 11.1875 0.0800781C12.1996 0.0800781 13.1151 0.492336 13.7764 1.15723L14.7549 2.13477V2.13574C14.8441 2.22686 14.9894 2.2254 15.0791 2.13574L16.0586 1.15723C16.7199 0.492336 17.6353 0.0800781 18.6475 0.0800781Z" fill="var(--fill-0, #F9DC00)" stroke="var(--stroke-0, #141A21)" stroke-width="0.16"/>
</svg>
