<svg preserveAspectRatio="none" width="100%" height="100%" overflow="visible" style="display: block;" viewBox="0 0 39.1593 19.5807" fill="none" xmlns="http://www.w3.org/2000/svg">
<path id="WhatNot Icon" d="M32.6328 0.139648C36.1604 0.139877 39.0195 2.99969 39.0195 6.52734C39.0194 8.30051 38.2983 9.9035 37.1309 11.0605L30.6348 17.5566C29.4775 18.7199 27.8765 19.4404 26.1055 19.4404C24.3345 19.4404 22.7334 18.72 21.5762 17.5566L17.0215 13.002L16.791 13.1484L18.1514 16.8887V16.8906C18.1676 16.9337 18.1572 16.9834 18.124 17.0166L17.582 17.5586L17.5771 17.5625L17.5684 17.5713C16.4132 18.7262 14.8249 19.4404 13.0537 19.4404C11.2827 19.4404 9.68163 18.72 8.52441 17.5566L2.02832 11.0605C0.862952 9.9034 0.139767 8.30033 0.139648 6.52734C0.139648 2.99955 2.99955 0.139648 6.52734 0.139648C8.2708 0.139765 9.84828 0.839994 11.001 1.97168L11.0547 2.02441L12.7686 3.73828C12.9248 3.8967 13.1784 3.89485 13.335 3.73828L15.0488 2.02441C16.206 0.86097 17.8071 0.139771 19.5781 0.139648C21.2385 0.139648 22.7498 0.773726 23.8857 1.81152L24.1084 2.02441L25.8223 3.73828C25.9785 3.89675 26.2321 3.89486 26.3887 3.73828L28.1025 2.02441C29.2598 0.860855 30.8616 0.139648 32.6328 0.139648Z" fill="var(--fill-0, #F9DC00)" stroke="var(--stroke-0, #141A21)" stroke-width="0.28"/>
</svg>
