<svg width="24" height="24" viewBox="0 0 24 24" fill="none" xmlns="http://www.w3.org/2000/svg">
<path d="M5.50195 11.4424C7.52873 11.4424 9.2041 13.1103 9.2041 15.1445C9.20393 17.165 7.50766 18.8467 5.50195 18.8467C3.46826 18.8465 1.79998 17.1782 1.7998 15.1445C1.7998 13.1107 3.46815 11.4425 5.50195 11.4424ZM5.50195 13.1514C5.41608 13.1514 5.36324 13.1797 5.33203 13.2109C5.30066 13.2424 5.27449 13.2935 5.27441 13.3721V14.7168C5.27439 14.8271 5.18546 14.9168 5.0752 14.917H3.73047C3.64678 14.917 3.59324 14.9433 3.56152 14.9746C3.53022 15.0056 3.50293 15.0587 3.50293 15.1445C3.503 15.2252 3.52929 15.2759 3.56055 15.3066C3.59252 15.3379 3.64671 15.3643 3.73047 15.3643H5.0752C5.18538 15.3645 5.27426 15.4543 5.27441 15.5645V16.916C5.27442 16.9948 5.30059 17.0467 5.33203 17.0781C5.36327 17.1092 5.41631 17.1367 5.50195 17.1367C5.58302 17.1367 5.63503 17.1104 5.66602 17.0791C5.69734 17.0474 5.72265 16.9949 5.72266 16.916V15.5645C5.72281 15.4541 5.81249 15.3643 5.92285 15.3643H7.26758C7.35081 15.3642 7.40187 15.3384 7.43164 15.3086C7.4614 15.2788 7.48724 15.2278 7.4873 15.1445C7.4873 15.0562 7.46045 15.0028 7.43066 14.9727C7.40111 14.9428 7.35059 14.9171 7.26758 14.917H5.92285C5.81241 14.917 5.72268 14.8272 5.72266 14.7168V13.3721C5.72258 13.2935 5.69721 13.2416 5.66602 13.21C5.63504 13.1786 5.58312 13.1514 5.50195 13.1514ZM14.8369 5.1543C15.7165 5.1543 16.4439 5.41142 16.9521 5.91113C17.4608 6.4113 17.7256 7.1309 17.7256 8.00879V8.52637L20.0029 6.60156L20.0039 6.59961C20.2927 6.36136 20.6414 6.16806 20.9932 6.16797C21.3485 6.16797 21.6556 6.30052 21.8721 6.53711C22.0869 6.772 22.2002 7.09524 22.2002 7.45703V14.5859C22.2002 14.9477 22.0869 15.271 21.8721 15.5059C21.6556 15.7424 21.3485 15.875 20.9932 15.875C20.6414 15.8749 20.2927 15.6816 20.0039 15.4434L20.002 15.4414L17.7256 13.5107V14.0273C17.7256 14.9085 17.4608 15.6297 16.9521 16.1309C16.4439 16.6316 15.7165 16.8887 14.8369 16.8887H9.65234C9.58604 16.8887 9.52355 16.8557 9.48633 16.8008C9.44914 16.7459 9.44131 16.6758 9.46582 16.6143C9.59011 16.3019 9.6739 15.9704 9.71191 15.626L9.7334 15.5547C9.76703 15.4906 9.83388 15.4473 9.91016 15.4473H14.6436C15.1725 15.4473 15.5583 15.3099 15.8115 15.0625C16.0639 14.8159 16.2158 14.4301 16.2158 13.8691V8.17383C16.2158 7.6093 16.0638 7.22197 15.8115 6.97461C15.5583 6.72648 15.1725 6.58887 14.6436 6.58887H7.8252C7.29265 6.58893 6.9083 6.72688 6.65625 6.97461C6.40484 7.22172 6.25397 7.60854 6.25391 8.17383V10.7363C6.25387 10.7944 6.22854 10.8497 6.18457 10.8877C6.14051 10.9257 6.08194 10.9421 6.02441 10.9336C5.85555 10.9084 5.68061 10.8975 5.50195 10.8975C5.32105 10.8975 5.14443 10.9088 4.97363 10.9346C4.91608 10.9432 4.85762 10.9266 4.81348 10.8887C4.7694 10.8507 4.74423 10.7954 4.74414 10.7373V8.00879C4.74414 7.12677 5.02972 6.40742 5.54688 5.90918C6.06295 5.41198 6.78919 5.1543 7.63281 5.1543H14.8369ZM17.7256 10.3633V11.6787L20.7314 14.1602V7.88184L17.7256 10.3633Z" fill="#1D1A24"/>
</svg>
