<svg width="24" height="24" viewBox="0 0 24 24" fill="none" xmlns="http://www.w3.org/2000/svg">
<path d="M8.69907 6.18362C9.16109 6.18362 9.53558 6.55812 9.53558 7.02013C9.53549 7.48206 9.16103 7.85664 8.69907 7.85664H8.69043C8.22872 7.85634 7.85401 7.48188 7.85392 7.02013C7.85392 6.5583 8.22866 6.18391 8.69043 6.18362H8.69907Z" fill="#1D1A24"/>
<path d="M8.69907 6.18362C9.16109 6.18362 9.53558 6.55812 9.53558 7.02013C9.53549 7.48206 9.16103 7.85664 8.69907 7.85664H8.69043C8.22872 7.85634 7.85401 7.48188 7.85392 7.02013C7.85392 6.5583 8.22866 6.18391 8.69043 6.18362H8.69907Z" fill="black" fill-opacity="0.2"/>
<path d="M8.69907 6.18362C9.16109 6.18362 9.53558 6.55812 9.53558 7.02013C9.53549 7.48206 9.16103 7.85664 8.69907 7.85664H8.69043C8.22872 7.85634 7.85401 7.48188 7.85392 7.02013C7.85392 6.5583 8.22866 6.18391 8.69043 6.18362H8.69907Z" fill="black" fill-opacity="0.2"/>
<path d="M8.69907 6.18362C9.16109 6.18362 9.53558 6.55812 9.53558 7.02013C9.53549 7.48206 9.16103 7.85664 8.69907 7.85664H8.69043C8.22872 7.85634 7.85401 7.48188 7.85392 7.02013C7.85392 6.5583 8.22866 6.18391 8.69043 6.18362H8.69907Z" fill="black" fill-opacity="0.2"/>
<path d="M8.69907 6.18362C9.16109 6.18362 9.53558 6.55812 9.53558 7.02013C9.53549 7.48206 9.16103 7.85664 8.69907 7.85664H8.69043C8.22872 7.85634 7.85401 7.48188 7.85392 7.02013C7.85392 6.5583 8.22866 6.18391 8.69043 6.18362H8.69907Z" fill="black" fill-opacity="0.2"/>
<path d="M8.69907 6.18362C9.16109 6.18362 9.53558 6.55812 9.53558 7.02013C9.53549 7.48206 9.16103 7.85664 8.69907 7.85664H8.69043C8.22872 7.85634 7.85401 7.48188 7.85392 7.02013C7.85392 6.5583 8.22866 6.18391 8.69043 6.18362H8.69907Z" fill="black" fill-opacity="0.2"/>
<path fill-rule="evenodd" clip-rule="evenodd" d="M12.9562 2.00432C13.1475 2.02336 13.328 2.10829 13.4652 2.24533L20.6534 9.43238C21.1207 9.90252 21.3839 10.5398 21.3839 11.2027C21.3839 11.8653 21.1204 12.5018 20.6534 12.9719L20.06 12.3818L20.6512 12.974L14.653 18.9712C14.4202 19.2042 14.1445 19.3896 13.8402 19.5159C13.5357 19.6421 13.208 19.7071 12.8784 19.7072C12.5488 19.7071 12.2221 19.642 11.9176 19.5159C11.6131 19.3896 11.3357 19.2043 11.1027 18.9712L10.7763 18.6448C10.7882 18.5124 10.7968 18.3782 10.7968 18.2427C10.7966 15.7983 8.8145 13.8162 6.37004 13.8159C6.23247 13.8159 6.09588 13.8231 5.96151 13.8354L3.91779 11.7938C3.76098 11.637 3.67145 11.4244 3.67138 11.2027V2.83651C3.67179 2.37484 4.04721 2 4.50897 2H12.874L12.9562 2.00432ZM5.34548 10.8557L12.2872 17.7888C12.3648 17.8664 12.4571 17.9284 12.5585 17.9704C12.6598 18.0123 12.7687 18.0341 12.8784 18.0341C12.988 18.0341 13.097 18.0123 13.1983 17.9704C13.2996 17.9283 13.3931 17.8664 13.4706 17.7888L19.4688 11.7906C19.6233 11.6341 19.7098 11.4226 19.7099 11.2027C19.7098 10.9828 19.6233 10.7712 19.4688 10.6147L12.5282 3.67302H5.34548V10.8557Z" fill="#1D1A24"/>
<path fill-rule="evenodd" clip-rule="evenodd" d="M12.9562 2.00432C13.1475 2.02336 13.328 2.10829 13.4652 2.24533L20.6534 9.43238C21.1207 9.90252 21.3839 10.5398 21.3839 11.2027C21.3839 11.8653 21.1204 12.5018 20.6534 12.9719L20.06 12.3818L20.6512 12.974L14.653 18.9712C14.4202 19.2042 14.1445 19.3896 13.8402 19.5159C13.5357 19.6421 13.208 19.7071 12.8784 19.7072C12.5488 19.7071 12.2221 19.642 11.9176 19.5159C11.6131 19.3896 11.3357 19.2043 11.1027 18.9712L10.7763 18.6448C10.7882 18.5124 10.7968 18.3782 10.7968 18.2427C10.7966 15.7983 8.8145 13.8162 6.37004 13.8159C6.23247 13.8159 6.09588 13.8231 5.96151 13.8354L3.91779 11.7938C3.76098 11.637 3.67145 11.4244 3.67138 11.2027V2.83651C3.67179 2.37484 4.04721 2 4.50897 2H12.874L12.9562 2.00432ZM5.34548 10.8557L12.2872 17.7888C12.3648 17.8664 12.4571 17.9284 12.5585 17.9704C12.6598 18.0123 12.7687 18.0341 12.8784 18.0341C12.988 18.0341 13.097 18.0123 13.1983 17.9704C13.2996 17.9283 13.3931 17.8664 13.4706 17.7888L19.4688 11.7906C19.6233 11.6341 19.7098 11.4226 19.7099 11.2027C19.7098 10.9828 19.6233 10.7712 19.4688 10.6147L12.5282 3.67302H5.34548V10.8557Z" fill="black" fill-opacity="0.2"/>
<path fill-rule="evenodd" clip-rule="evenodd" d="M12.9562 2.00432C13.1475 2.02336 13.328 2.10829 13.4652 2.24533L20.6534 9.43238C21.1207 9.90252 21.3839 10.5398 21.3839 11.2027C21.3839 11.8653 21.1204 12.5018 20.6534 12.9719L20.06 12.3818L20.6512 12.974L14.653 18.9712C14.4202 19.2042 14.1445 19.3896 13.8402 19.5159C13.5357 19.6421 13.208 19.7071 12.8784 19.7072C12.5488 19.7071 12.2221 19.642 11.9176 19.5159C11.6131 19.3896 11.3357 19.2043 11.1027 18.9712L10.7763 18.6448C10.7882 18.5124 10.7968 18.3782 10.7968 18.2427C10.7966 15.7983 8.8145 13.8162 6.37004 13.8159C6.23247 13.8159 6.09588 13.8231 5.96151 13.8354L3.91779 11.7938C3.76098 11.637 3.67145 11.4244 3.67138 11.2027V2.83651C3.67179 2.37484 4.04721 2 4.50897 2H12.874L12.9562 2.00432ZM5.34548 10.8557L12.2872 17.7888C12.3648 17.8664 12.4571 17.9284 12.5585 17.9704C12.6598 18.0123 12.7687 18.0341 12.8784 18.0341C12.988 18.0341 13.097 18.0123 13.1983 17.9704C13.2996 17.9283 13.3931 17.8664 13.4706 17.7888L19.4688 11.7906C19.6233 11.6341 19.7098 11.4226 19.7099 11.2027C19.7098 10.9828 19.6233 10.7712 19.4688 10.6147L12.5282 3.67302H5.34548V10.8557Z" fill="black" fill-opacity="0.2"/>
<path fill-rule="evenodd" clip-rule="evenodd" d="M12.9562 2.00432C13.1475 2.02336 13.328 2.10829 13.4652 2.24533L20.6534 9.43238C21.1207 9.90252 21.3839 10.5398 21.3839 11.2027C21.3839 11.8653 21.1204 12.5018 20.6534 12.9719L20.06 12.3818L20.6512 12.974L14.653 18.9712C14.4202 19.2042 14.1445 19.3896 13.8402 19.5159C13.5357 19.6421 13.208 19.7071 12.8784 19.7072C12.5488 19.7071 12.2221 19.642 11.9176 19.5159C11.6131 19.3896 11.3357 19.2043 11.1027 18.9712L10.7763 18.6448C10.7882 18.5124 10.7968 18.3782 10.7968 18.2427C10.7966 15.7983 8.8145 13.8162 6.37004 13.8159C6.23247 13.8159 6.09588 13.8231 5.96151 13.8354L3.91779 11.7938C3.76098 11.637 3.67145 11.4244 3.67138 11.2027V2.83651C3.67179 2.37484 4.04721 2 4.50897 2H12.874L12.9562 2.00432ZM5.34548 10.8557L12.2872 17.7888C12.3648 17.8664 12.4571 17.9284 12.5585 17.9704C12.6598 18.0123 12.7687 18.0341 12.8784 18.0341C12.988 18.0341 13.097 18.0123 13.1983 17.9704C13.2996 17.9283 13.3931 17.8664 13.4706 17.7888L19.4688 11.7906C19.6233 11.6341 19.7098 11.4226 19.7099 11.2027C19.7098 10.9828 19.6233 10.7712 19.4688 10.6147L12.5282 3.67302H5.34548V10.8557Z" fill="black" fill-opacity="0.2"/>
<path fill-rule="evenodd" clip-rule="evenodd" d="M12.9562 2.00432C13.1475 2.02336 13.328 2.10829 13.4652 2.24533L20.6534 9.43238C21.1207 9.90252 21.3839 10.5398 21.3839 11.2027C21.3839 11.8653 21.1204 12.5018 20.6534 12.9719L20.06 12.3818L20.6512 12.974L14.653 18.9712C14.4202 19.2042 14.1445 19.3896 13.8402 19.5159C13.5357 19.6421 13.208 19.7071 12.8784 19.7072C12.5488 19.7071 12.2221 19.642 11.9176 19.5159C11.6131 19.3896 11.3357 19.2043 11.1027 18.9712L10.7763 18.6448C10.7882 18.5124 10.7968 18.3782 10.7968 18.2427C10.7966 15.7983 8.8145 13.8162 6.37004 13.8159C6.23247 13.8159 6.09588 13.8231 5.96151 13.8354L3.91779 11.7938C3.76098 11.637 3.67145 11.4244 3.67138 11.2027V2.83651C3.67179 2.37484 4.04721 2 4.50897 2H12.874L12.9562 2.00432ZM5.34548 10.8557L12.2872 17.7888C12.3648 17.8664 12.4571 17.9284 12.5585 17.9704C12.6598 18.0123 12.7687 18.0341 12.8784 18.0341C12.988 18.0341 13.097 18.0123 13.1983 17.9704C13.2996 17.9283 13.3931 17.8664 13.4706 17.7888L19.4688 11.7906C19.6233 11.6341 19.7098 11.4226 19.7099 11.2027C19.7098 10.9828 19.6233 10.7712 19.4688 10.6147L12.5282 3.67302H5.34548V10.8557Z" fill="black" fill-opacity="0.2"/>
<path fill-rule="evenodd" clip-rule="evenodd" d="M12.9562 2.00432C13.1475 2.02336 13.328 2.10829 13.4652 2.24533L20.6534 9.43238C21.1207 9.90252 21.3839 10.5398 21.3839 11.2027C21.3839 11.8653 21.1204 12.5018 20.6534 12.9719L20.06 12.3818L20.6512 12.974L14.653 18.9712C14.4202 19.2042 14.1445 19.3896 13.8402 19.5159C13.5357 19.6421 13.208 19.7071 12.8784 19.7072C12.5488 19.7071 12.2221 19.642 11.9176 19.5159C11.6131 19.3896 11.3357 19.2043 11.1027 18.9712L10.7763 18.6448C10.7882 18.5124 10.7968 18.3782 10.7968 18.2427C10.7966 15.7983 8.8145 13.8162 6.37004 13.8159C6.23247 13.8159 6.09588 13.8231 5.96151 13.8354L3.91779 11.7938C3.76098 11.637 3.67145 11.4244 3.67138 11.2027V2.83651C3.67179 2.37484 4.04721 2 4.50897 2H12.874L12.9562 2.00432ZM5.34548 10.8557L12.2872 17.7888C12.3648 17.8664 12.4571 17.9284 12.5585 17.9704C12.6598 18.0123 12.7687 18.0341 12.8784 18.0341C12.988 18.0341 13.097 18.0123 13.1983 17.9704C13.2996 17.9283 13.3931 17.8664 13.4706 17.7888L19.4688 11.7906C19.6233 11.6341 19.7098 11.4226 19.7099 11.2027C19.7098 10.9828 19.6233 10.7712 19.4688 10.6147L12.5282 3.67302H5.34548V10.8557Z" fill="black" fill-opacity="0.2"/>
<path fill-rule="evenodd" clip-rule="evenodd" d="M6.55185 14.1277C8.72571 14.1277 10.488 15.89 10.488 18.0639C10.488 20.2377 8.72571 22 6.55185 22C4.37799 22 2.61572 20.2377 2.61572 18.0639C2.61572 15.89 4.37799 14.1277 6.55185 14.1277ZM3.33138 18.0639C3.33138 16.2853 4.77323 14.8434 6.55185 14.8434C8.33046 14.8434 9.77232 16.2853 9.77232 18.0639C9.77232 19.8425 8.33046 21.2843 6.55185 21.2843C4.77323 21.2843 3.33138 19.8425 3.33138 18.0639Z" fill="#1D1A24"/>
<path fill-rule="evenodd" clip-rule="evenodd" d="M6.55185 14.8434C4.77323 14.8434 3.33138 16.2853 3.33138 18.0639C3.33138 19.8425 4.77323 21.2843 6.55185 21.2843C8.33046 21.2843 9.77232 19.8425 9.77232 18.0639C9.77232 16.2853 8.33046 14.8434 6.55185 14.8434ZM6.90968 16.6326C6.90968 16.4349 6.74947 16.2747 6.55185 16.2747C6.35422 16.2747 6.19402 16.4349 6.19402 16.6326V17.706H5.12053C4.92291 17.706 4.7627 17.8663 4.7627 18.0639C4.7627 18.2615 4.92291 18.4217 5.12053 18.4217H6.19402V19.4952C6.19402 19.6928 6.35422 19.853 6.55185 19.853C6.74947 19.853 6.90968 19.6928 6.90968 19.4952V18.4217H7.98317C8.18079 18.4217 8.341 18.2615 8.341 18.0639C8.341 17.8663 8.18079 17.706 7.98317 17.706H6.90968V16.6326Z" fill="#1D1A24"/>
</svg>
