<svg width="24" height="24" viewBox="0 0 24 24" fill="none" xmlns="http://www.w3.org/2000/svg">
<path d="M12.0096 15.1082C12.5783 15.1085 13.0398 15.5696 13.0398 16.1385C13.0397 16.7072 12.5782 17.1685 12.0096 17.1687H12.0005C11.4316 17.1687 10.9704 16.7073 10.9703 16.1385C10.9703 15.5695 11.4315 15.1082 12.0005 15.1082H12.0096Z" fill="#1D1A24"/>
<path d="M12.0096 15.1082C12.5783 15.1085 13.0398 15.5696 13.0398 16.1385C13.0397 16.7072 12.5782 17.1685 12.0096 17.1687H12.0005C11.4316 17.1687 10.9704 16.7073 10.9703 16.1385C10.9703 15.5695 11.4315 15.1082 12.0005 15.1082H12.0096Z" fill="black" fill-opacity="0.2"/>
<path d="M12.0096 15.1082C12.5783 15.1085 13.0398 15.5696 13.0398 16.1385C13.0397 16.7072 12.5782 17.1685 12.0096 17.1687H12.0005C11.4316 17.1687 10.9704 16.7073 10.9703 16.1385C10.9703 15.5695 11.4315 15.1082 12.0005 15.1082H12.0096Z" fill="black" fill-opacity="0.2"/>
<path d="M12.0096 15.1082C12.5783 15.1085 13.0398 15.5696 13.0398 16.1385C13.0397 16.7072 12.5782 17.1685 12.0096 17.1687H12.0005C11.4316 17.1687 10.9704 16.7073 10.9703 16.1385C10.9703 15.5695 11.4315 15.1082 12.0005 15.1082H12.0096Z" fill="black" fill-opacity="0.2"/>
<path d="M12.0096 15.1082C12.5783 15.1085 13.0398 15.5696 13.0398 16.1385C13.0397 16.7072 12.5782 17.1685 12.0096 17.1687H12.0005C11.4316 17.1687 10.9704 16.7073 10.9703 16.1385C10.9703 15.5695 11.4315 15.1082 12.0005 15.1082H12.0096Z" fill="black" fill-opacity="0.2"/>
<path d="M12.0096 15.1082C12.5783 15.1085 13.0398 15.5696 13.0398 16.1385C13.0397 16.7072 12.5782 17.1685 12.0096 17.1687H12.0005C11.4316 17.1687 10.9704 16.7073 10.9703 16.1385C10.9703 15.5695 11.4315 15.1082 12.0005 15.1082H12.0096Z" fill="black" fill-opacity="0.2"/>
<path d="M12.0005 8.23969C12.5695 8.23969 13.0307 8.70095 13.0307 9.26993V12.7037C13.0307 13.2727 12.5695 13.7339 12.0005 13.7339C11.4315 13.7339 10.9703 13.2727 10.9703 12.7037V9.26993C10.9703 8.70095 11.4315 8.2397 12.0005 8.23969Z" fill="#1D1A24"/>
<path d="M12.0005 8.23969C12.5695 8.23969 13.0307 8.70095 13.0307 9.26993V12.7037C13.0307 13.2727 12.5695 13.7339 12.0005 13.7339C11.4315 13.7339 10.9703 13.2727 10.9703 12.7037V9.26993C10.9703 8.70095 11.4315 8.2397 12.0005 8.23969Z" fill="black" fill-opacity="0.2"/>
<path d="M12.0005 8.23969C12.5695 8.23969 13.0307 8.70095 13.0307 9.26993V12.7037C13.0307 13.2727 12.5695 13.7339 12.0005 13.7339C11.4315 13.7339 10.9703 13.2727 10.9703 12.7037V9.26993C10.9703 8.70095 11.4315 8.2397 12.0005 8.23969Z" fill="black" fill-opacity="0.2"/>
<path d="M12.0005 8.23969C12.5695 8.23969 13.0307 8.70095 13.0307 9.26993V12.7037C13.0307 13.2727 12.5695 13.7339 12.0005 13.7339C11.4315 13.7339 10.9703 13.2727 10.9703 12.7037V9.26993C10.9703 8.70095 11.4315 8.2397 12.0005 8.23969Z" fill="black" fill-opacity="0.2"/>
<path d="M12.0005 8.23969C12.5695 8.23969 13.0307 8.70095 13.0307 9.26993V12.7037C13.0307 13.2727 12.5695 13.7339 12.0005 13.7339C11.4315 13.7339 10.9703 13.2727 10.9703 12.7037V9.26993C10.9703 8.70095 11.4315 8.2397 12.0005 8.23969Z" fill="black" fill-opacity="0.2"/>
<path d="M12.0005 8.23969C12.5695 8.23969 13.0307 8.70095 13.0307 9.26993V12.7037C13.0307 13.2727 12.5695 13.7339 12.0005 13.7339C11.4315 13.7339 10.9703 13.2727 10.9703 12.7037V9.26993C10.9703 8.70095 11.4315 8.2397 12.0005 8.23969Z" fill="black" fill-opacity="0.2"/>
<path fill-rule="evenodd" clip-rule="evenodd" d="M12.0005 3C12.4723 3.00006 12.9365 3.12178 13.3477 3.35314C13.7588 3.58463 14.1039 3.91865 14.3487 4.322L21.6237 16.4665C21.6265 16.4711 21.6291 16.4769 21.6318 16.4815C21.8715 16.8967 21.9985 17.3674 22 17.8468C22.0013 18.3264 21.8772 18.7984 21.6398 19.2151C21.4023 19.6318 21.0592 19.9799 20.6458 20.2232C20.2326 20.4662 19.7629 20.5971 19.2836 20.6025H4.71745C4.23798 20.5972 3.76749 20.4663 3.3542 20.2232C2.9409 19.9799 2.59768 19.6317 2.36019 19.2151C2.1229 18.7985 1.99867 18.3262 2.00001 17.8468C2.00148 17.3675 2.12857 16.8967 2.36824 16.4815L2.37629 16.4665L9.64827 4.32703L10.5316 4.85723L9.65129 4.322C9.89614 3.91852 10.2411 3.58469 10.6523 3.35314C11.0637 3.12157 11.5285 3.00005 12.0005 3ZM12.0005 5.06046C11.8826 5.06051 11.7662 5.09118 11.6635 5.149C11.5607 5.2069 11.4741 5.2906 11.4129 5.39147L4.15203 17.5118L4.11279 17.5923C4.07872 17.6746 4.06078 17.7632 4.06047 17.8528C4.06014 17.9727 4.09175 18.0908 4.15102 18.1949C4.21024 18.2988 4.29556 18.3857 4.39852 18.4464C4.50176 18.5072 4.61981 18.5406 4.73958 18.542H19.2604C19.3803 18.5407 19.4981 18.5072 19.6015 18.4464C19.7047 18.3856 19.7907 18.299 19.85 18.1949C19.9092 18.0908 19.9399 17.9726 19.9395 17.8528C19.9391 17.7332 19.9078 17.6154 19.848 17.5118L12.5871 5.39147L12.5367 5.31903C12.482 5.25049 12.4144 5.19236 12.3375 5.149C12.2349 5.09126 12.1183 5.06053 12.0005 5.06046Z" fill="#1D1A24"/>
<path fill-rule="evenodd" clip-rule="evenodd" d="M12.0005 3C12.4723 3.00006 12.9365 3.12178 13.3477 3.35314C13.7588 3.58463 14.1039 3.91865 14.3487 4.322L21.6237 16.4665C21.6265 16.4711 21.6291 16.4769 21.6318 16.4815C21.8715 16.8967 21.9985 17.3674 22 17.8468C22.0013 18.3264 21.8772 18.7984 21.6398 19.2151C21.4023 19.6318 21.0592 19.9799 20.6458 20.2232C20.2326 20.4662 19.7629 20.5971 19.2836 20.6025H4.71745C4.23798 20.5972 3.76749 20.4663 3.3542 20.2232C2.9409 19.9799 2.59768 19.6317 2.36019 19.2151C2.1229 18.7985 1.99867 18.3262 2.00001 17.8468C2.00148 17.3675 2.12857 16.8967 2.36824 16.4815L2.37629 16.4665L9.64827 4.32703L10.5316 4.85723L9.65129 4.322C9.89614 3.91852 10.2411 3.58469 10.6523 3.35314C11.0637 3.12157 11.5285 3.00005 12.0005 3ZM12.0005 5.06046C11.8826 5.06051 11.7662 5.09118 11.6635 5.149C11.5607 5.2069 11.4741 5.2906 11.4129 5.39147L4.15203 17.5118L4.11279 17.5923C4.07872 17.6746 4.06078 17.7632 4.06047 17.8528C4.06014 17.9727 4.09175 18.0908 4.15102 18.1949C4.21024 18.2988 4.29556 18.3857 4.39852 18.4464C4.50176 18.5072 4.61981 18.5406 4.73958 18.542H19.2604C19.3803 18.5407 19.4981 18.5072 19.6015 18.4464C19.7047 18.3856 19.7907 18.299 19.85 18.1949C19.9092 18.0908 19.9399 17.9726 19.9395 17.8528C19.9391 17.7332 19.9078 17.6154 19.848 17.5118L12.5871 5.39147L12.5367 5.31903C12.482 5.25049 12.4144 5.19236 12.3375 5.149C12.2349 5.09126 12.1183 5.06053 12.0005 5.06046Z" fill="black" fill-opacity="0.2"/>
<path fill-rule="evenodd" clip-rule="evenodd" d="M12.0005 3C12.4723 3.00006 12.9365 3.12178 13.3477 3.35314C13.7588 3.58463 14.1039 3.91865 14.3487 4.322L21.6237 16.4665C21.6265 16.4711 21.6291 16.4769 21.6318 16.4815C21.8715 16.8967 21.9985 17.3674 22 17.8468C22.0013 18.3264 21.8772 18.7984 21.6398 19.2151C21.4023 19.6318 21.0592 19.9799 20.6458 20.2232C20.2326 20.4662 19.7629 20.5971 19.2836 20.6025H4.71745C4.23798 20.5972 3.76749 20.4663 3.3542 20.2232C2.9409 19.9799 2.59768 19.6317 2.36019 19.2151C2.1229 18.7985 1.99867 18.3262 2.00001 17.8468C2.00148 17.3675 2.12857 16.8967 2.36824 16.4815L2.37629 16.4665L9.64827 4.32703L10.5316 4.85723L9.65129 4.322C9.89614 3.91852 10.2411 3.58469 10.6523 3.35314C11.0637 3.12157 11.5285 3.00005 12.0005 3ZM12.0005 5.06046C11.8826 5.06051 11.7662 5.09118 11.6635 5.149C11.5607 5.2069 11.4741 5.2906 11.4129 5.39147L4.15203 17.5118L4.11279 17.5923C4.07872 17.6746 4.06078 17.7632 4.06047 17.8528C4.06014 17.9727 4.09175 18.0908 4.15102 18.1949C4.21024 18.2988 4.29556 18.3857 4.39852 18.4464C4.50176 18.5072 4.61981 18.5406 4.73958 18.542H19.2604C19.3803 18.5407 19.4981 18.5072 19.6015 18.4464C19.7047 18.3856 19.7907 18.299 19.85 18.1949C19.9092 18.0908 19.9399 17.9726 19.9395 17.8528C19.9391 17.7332 19.9078 17.6154 19.848 17.5118L12.5871 5.39147L12.5367 5.31903C12.482 5.25049 12.4144 5.19236 12.3375 5.149C12.2349 5.09126 12.1183 5.06053 12.0005 5.06046Z" fill="black" fill-opacity="0.2"/>
<path fill-rule="evenodd" clip-rule="evenodd" d="M12.0005 3C12.4723 3.00006 12.9365 3.12178 13.3477 3.35314C13.7588 3.58463 14.1039 3.91865 14.3487 4.322L21.6237 16.4665C21.6265 16.4711 21.6291 16.4769 21.6318 16.4815C21.8715 16.8967 21.9985 17.3674 22 17.8468C22.0013 18.3264 21.8772 18.7984 21.6398 19.2151C21.4023 19.6318 21.0592 19.9799 20.6458 20.2232C20.2326 20.4662 19.7629 20.5971 19.2836 20.6025H4.71745C4.23798 20.5972 3.76749 20.4663 3.3542 20.2232C2.9409 19.9799 2.59768 19.6317 2.36019 19.2151C2.1229 18.7985 1.99867 18.3262 2.00001 17.8468C2.00148 17.3675 2.12857 16.8967 2.36824 16.4815L2.37629 16.4665L9.64827 4.32703L10.5316 4.85723L9.65129 4.322C9.89614 3.91852 10.2411 3.58469 10.6523 3.35314C11.0637 3.12157 11.5285 3.00005 12.0005 3ZM12.0005 5.06046C11.8826 5.06051 11.7662 5.09118 11.6635 5.149C11.5607 5.2069 11.4741 5.2906 11.4129 5.39147L4.15203 17.5118L4.11279 17.5923C4.07872 17.6746 4.06078 17.7632 4.06047 17.8528C4.06014 17.9727 4.09175 18.0908 4.15102 18.1949C4.21024 18.2988 4.29556 18.3857 4.39852 18.4464C4.50176 18.5072 4.61981 18.5406 4.73958 18.542H19.2604C19.3803 18.5407 19.4981 18.5072 19.6015 18.4464C19.7047 18.3856 19.7907 18.299 19.85 18.1949C19.9092 18.0908 19.9399 17.9726 19.9395 17.8528C19.9391 17.7332 19.9078 17.6154 19.848 17.5118L12.5871 5.39147L12.5367 5.31903C12.482 5.25049 12.4144 5.19236 12.3375 5.149C12.2349 5.09126 12.1183 5.06053 12.0005 5.06046Z" fill="black" fill-opacity="0.2"/>
<path fill-rule="evenodd" clip-rule="evenodd" d="M12.0005 3C12.4723 3.00006 12.9365 3.12178 13.3477 3.35314C13.7588 3.58463 14.1039 3.91865 14.3487 4.322L21.6237 16.4665C21.6265 16.4711 21.6291 16.4769 21.6318 16.4815C21.8715 16.8967 21.9985 17.3674 22 17.8468C22.0013 18.3264 21.8772 18.7984 21.6398 19.2151C21.4023 19.6318 21.0592 19.9799 20.6458 20.2232C20.2326 20.4662 19.7629 20.5971 19.2836 20.6025H4.71745C4.23798 20.5972 3.76749 20.4663 3.3542 20.2232C2.9409 19.9799 2.59768 19.6317 2.36019 19.2151C2.1229 18.7985 1.99867 18.3262 2.00001 17.8468C2.00148 17.3675 2.12857 16.8967 2.36824 16.4815L2.37629 16.4665L9.64827 4.32703L10.5316 4.85723L9.65129 4.322C9.89614 3.91852 10.2411 3.58469 10.6523 3.35314C11.0637 3.12157 11.5285 3.00005 12.0005 3ZM12.0005 5.06046C11.8826 5.06051 11.7662 5.09118 11.6635 5.149C11.5607 5.2069 11.4741 5.2906 11.4129 5.39147L4.15203 17.5118L4.11279 17.5923C4.07872 17.6746 4.06078 17.7632 4.06047 17.8528C4.06014 17.9727 4.09175 18.0908 4.15102 18.1949C4.21024 18.2988 4.29556 18.3857 4.39852 18.4464C4.50176 18.5072 4.61981 18.5406 4.73958 18.542H19.2604C19.3803 18.5407 19.4981 18.5072 19.6015 18.4464C19.7047 18.3856 19.7907 18.299 19.85 18.1949C19.9092 18.0908 19.9399 17.9726 19.9395 17.8528C19.9391 17.7332 19.9078 17.6154 19.848 17.5118L12.5871 5.39147L12.5367 5.31903C12.482 5.25049 12.4144 5.19236 12.3375 5.149C12.2349 5.09126 12.1183 5.06053 12.0005 5.06046Z" fill="black" fill-opacity="0.2"/>
<path fill-rule="evenodd" clip-rule="evenodd" d="M12.0005 3C12.4723 3.00006 12.9365 3.12178 13.3477 3.35314C13.7588 3.58463 14.1039 3.91865 14.3487 4.322L21.6237 16.4665C21.6265 16.4711 21.6291 16.4769 21.6318 16.4815C21.8715 16.8967 21.9985 17.3674 22 17.8468C22.0013 18.3264 21.8772 18.7984 21.6398 19.2151C21.4023 19.6318 21.0592 19.9799 20.6458 20.2232C20.2326 20.4662 19.7629 20.5971 19.2836 20.6025H4.71745C4.23798 20.5972 3.76749 20.4663 3.3542 20.2232C2.9409 19.9799 2.59768 19.6317 2.36019 19.2151C2.1229 18.7985 1.99867 18.3262 2.00001 17.8468C2.00148 17.3675 2.12857 16.8967 2.36824 16.4815L2.37629 16.4665L9.64827 4.32703L10.5316 4.85723L9.65129 4.322C9.89614 3.91852 10.2411 3.58469 10.6523 3.35314C11.0637 3.12157 11.5285 3.00005 12.0005 3ZM12.0005 5.06046C11.8826 5.06051 11.7662 5.09118 11.6635 5.149C11.5607 5.2069 11.4741 5.2906 11.4129 5.39147L4.15203 17.5118L4.11279 17.5923C4.07872 17.6746 4.06078 17.7632 4.06047 17.8528C4.06014 17.9727 4.09175 18.0908 4.15102 18.1949C4.21024 18.2988 4.29556 18.3857 4.39852 18.4464C4.50176 18.5072 4.61981 18.5406 4.73958 18.542H19.2604C19.3803 18.5407 19.4981 18.5072 19.6015 18.4464C19.7047 18.3856 19.7907 18.299 19.85 18.1949C19.9092 18.0908 19.9399 17.9726 19.9395 17.8528C19.9391 17.7332 19.9078 17.6154 19.848 17.5118L12.5871 5.39147L12.5367 5.31903C12.482 5.25049 12.4144 5.19236 12.3375 5.149C12.2349 5.09126 12.1183 5.06053 12.0005 5.06046Z" fill="black" fill-opacity="0.2"/>
</svg>
