<svg width="24" height="24" viewBox="0 0 24 24" fill="none" xmlns="http://www.w3.org/2000/svg">
<path d="M12.011 14.9998C12.5631 15.0001 13.0112 15.4479 13.0112 16.0001C13.0111 16.552 12.563 17 12.011 17.0003H12.0007C11.4485 17.0003 11.0007 16.5522 11.0005 16.0001C11.0005 15.4478 11.4485 14.9998 12.0007 14.9998H12.011Z" fill="#1D1A24"/>
<path d="M12.011 14.9998C12.5631 15.0001 13.0112 15.4479 13.0112 16.0001C13.0111 16.552 12.563 17 12.011 17.0003H12.0007C11.4485 17.0003 11.0007 16.5522 11.0005 16.0001C11.0005 15.4478 11.4485 14.9998 12.0007 14.9998H12.011Z" fill="black" fill-opacity="0.2"/>
<path d="M12.011 14.9998C12.5631 15.0001 13.0112 15.4479 13.0112 16.0001C13.0111 16.552 12.563 17 12.011 17.0003H12.0007C11.4485 17.0003 11.0007 16.5522 11.0005 16.0001C11.0005 15.4478 11.4485 14.9998 12.0007 14.9998H12.011Z" fill="black" fill-opacity="0.2"/>
<path d="M12.011 14.9998C12.5631 15.0001 13.0112 15.4479 13.0112 16.0001C13.0111 16.552 12.563 17 12.011 17.0003H12.0007C11.4485 17.0003 11.0007 16.5522 11.0005 16.0001C11.0005 15.4478 11.4485 14.9998 12.0007 14.9998H12.011Z" fill="black" fill-opacity="0.2"/>
<path d="M12.011 14.9998C12.5631 15.0001 13.0112 15.4479 13.0112 16.0001C13.0111 16.552 12.563 17 12.011 17.0003H12.0007C11.4485 17.0003 11.0007 16.5522 11.0005 16.0001C11.0005 15.4478 11.4485 14.9998 12.0007 14.9998H12.011Z" fill="black" fill-opacity="0.2"/>
<path d="M12.011 14.9998C12.5631 15.0001 13.0112 15.4479 13.0112 16.0001C13.0111 16.552 12.563 17 12.011 17.0003H12.0007C11.4485 17.0003 11.0007 16.5522 11.0005 16.0001C11.0005 15.4478 11.4485 14.9998 12.0007 14.9998H12.011Z" fill="black" fill-opacity="0.2"/>
<path d="M12.0007 6.99923C12.5527 6.99951 13.0008 7.44744 13.001 7.99943V11.9992C13.001 12.5513 12.5528 12.9992 12.0007 12.9994C11.4485 12.9994 11.0005 12.5515 11.0005 11.9992V7.99943C11.0007 7.44727 11.4485 6.99923 12.0007 6.99923Z" fill="#1D1A24"/>
<path d="M12.0007 6.99923C12.5527 6.99951 13.0008 7.44744 13.001 7.99943V11.9992C13.001 12.5513 12.5528 12.9992 12.0007 12.9994C11.4485 12.9994 11.0005 12.5515 11.0005 11.9992V7.99943C11.0007 7.44727 11.4485 6.99923 12.0007 6.99923Z" fill="black" fill-opacity="0.2"/>
<path d="M12.0007 6.99923C12.5527 6.99951 13.0008 7.44744 13.001 7.99943V11.9992C13.001 12.5513 12.5528 12.9992 12.0007 12.9994C11.4485 12.9994 11.0005 12.5515 11.0005 11.9992V7.99943C11.0007 7.44727 11.4485 6.99923 12.0007 6.99923Z" fill="black" fill-opacity="0.2"/>
<path d="M12.0007 6.99923C12.5527 6.99951 13.0008 7.44744 13.001 7.99943V11.9992C13.001 12.5513 12.5528 12.9992 12.0007 12.9994C11.4485 12.9994 11.0005 12.5515 11.0005 11.9992V7.99943C11.0007 7.44727 11.4485 6.99923 12.0007 6.99923Z" fill="black" fill-opacity="0.2"/>
<path d="M12.0007 6.99923C12.5527 6.99951 13.0008 7.44744 13.001 7.99943V11.9992C13.001 12.5513 12.5528 12.9992 12.0007 12.9994C11.4485 12.9994 11.0005 12.5515 11.0005 11.9992V7.99943C11.0007 7.44727 11.4485 6.99923 12.0007 6.99923Z" fill="black" fill-opacity="0.2"/>
<path d="M12.0007 6.99923C12.5527 6.99951 13.0008 7.44744 13.001 7.99943V11.9992C13.001 12.5513 12.5528 12.9992 12.0007 12.9994C11.4485 12.9994 11.0005 12.5515 11.0005 11.9992V7.99943C11.0007 7.44727 11.4485 6.99923 12.0007 6.99923Z" fill="black" fill-opacity="0.2"/>
<path fill-rule="evenodd" clip-rule="evenodd" d="M12.0007 0.999023C18.0756 0.999302 23.001 5.9253 23.001 12.0003C23.0007 18.075 18.0755 23.0002 12.0007 23.0005C5.92579 23.0005 0.99979 18.0752 0.999512 12.0003C0.999512 5.92513 5.92561 0.999023 12.0007 0.999023ZM12.0007 3.00046C7.03018 3.00046 3.00095 7.02969 3.00095 12.0003C3.00123 16.9706 7.03035 21.0001 12.0007 21.0001C16.9709 20.9998 21.0003 16.9704 21.0005 12.0003C21.0005 7.02987 16.9711 3.00074 12.0007 3.00046Z" fill="#1D1A24"/>
<path fill-rule="evenodd" clip-rule="evenodd" d="M12.0007 0.999023C18.0756 0.999302 23.001 5.9253 23.001 12.0003C23.0007 18.075 18.0755 23.0002 12.0007 23.0005C5.92579 23.0005 0.99979 18.0752 0.999512 12.0003C0.999512 5.92513 5.92561 0.999023 12.0007 0.999023ZM12.0007 3.00046C7.03018 3.00046 3.00095 7.02969 3.00095 12.0003C3.00123 16.9706 7.03035 21.0001 12.0007 21.0001C16.9709 20.9998 21.0003 16.9704 21.0005 12.0003C21.0005 7.02987 16.9711 3.00074 12.0007 3.00046Z" fill="black" fill-opacity="0.2"/>
<path fill-rule="evenodd" clip-rule="evenodd" d="M12.0007 0.999023C18.0756 0.999302 23.001 5.9253 23.001 12.0003C23.0007 18.075 18.0755 23.0002 12.0007 23.0005C5.92579 23.0005 0.99979 18.0752 0.999512 12.0003C0.999512 5.92513 5.92561 0.999023 12.0007 0.999023ZM12.0007 3.00046C7.03018 3.00046 3.00095 7.02969 3.00095 12.0003C3.00123 16.9706 7.03035 21.0001 12.0007 21.0001C16.9709 20.9998 21.0003 16.9704 21.0005 12.0003C21.0005 7.02987 16.9711 3.00074 12.0007 3.00046Z" fill="black" fill-opacity="0.2"/>
<path fill-rule="evenodd" clip-rule="evenodd" d="M12.0007 0.999023C18.0756 0.999302 23.001 5.9253 23.001 12.0003C23.0007 18.075 18.0755 23.0002 12.0007 23.0005C5.92579 23.0005 0.99979 18.0752 0.999512 12.0003C0.999512 5.92513 5.92561 0.999023 12.0007 0.999023ZM12.0007 3.00046C7.03018 3.00046 3.00095 7.02969 3.00095 12.0003C3.00123 16.9706 7.03035 21.0001 12.0007 21.0001C16.9709 20.9998 21.0003 16.9704 21.0005 12.0003C21.0005 7.02987 16.9711 3.00074 12.0007 3.00046Z" fill="black" fill-opacity="0.2"/>
<path fill-rule="evenodd" clip-rule="evenodd" d="M12.0007 0.999023C18.0756 0.999302 23.001 5.9253 23.001 12.0003C23.0007 18.075 18.0755 23.0002 12.0007 23.0005C5.92579 23.0005 0.99979 18.0752 0.999512 12.0003C0.999512 5.92513 5.92561 0.999023 12.0007 0.999023ZM12.0007 3.00046C7.03018 3.00046 3.00095 7.02969 3.00095 12.0003C3.00123 16.9706 7.03035 21.0001 12.0007 21.0001C16.9709 20.9998 21.0003 16.9704 21.0005 12.0003C21.0005 7.02987 16.9711 3.00074 12.0007 3.00046Z" fill="black" fill-opacity="0.2"/>
<path fill-rule="evenodd" clip-rule="evenodd" d="M12.0007 0.999023C18.0756 0.999302 23.001 5.9253 23.001 12.0003C23.0007 18.075 18.0755 23.0002 12.0007 23.0005C5.92579 23.0005 0.99979 18.0752 0.999512 12.0003C0.999512 5.92513 5.92561 0.999023 12.0007 0.999023ZM12.0007 3.00046C7.03018 3.00046 3.00095 7.02969 3.00095 12.0003C3.00123 16.9706 7.03035 21.0001 12.0007 21.0001C16.9709 20.9998 21.0003 16.9704 21.0005 12.0003C21.0005 7.02987 16.9711 3.00074 12.0007 3.00046Z" fill="black" fill-opacity="0.2"/>
</svg>
