<svg width="24" height="24" viewBox="0 0 24 24" fill="none" xmlns="http://www.w3.org/2000/svg">
<path d="M12 2.7998C12.2948 2.7998 12.5589 2.90284 12.75 3.09082C12.9415 3.27923 13.0479 3.54214 13.0479 3.83887V16.3945L12.998 17.876L15.4834 15.1572L15.4902 15.1494L17.6631 13.0146C17.86 12.8187 18.1334 12.7296 18.4033 12.7295C18.9947 12.7295 19.4227 13.1851 19.4229 13.7578C19.4229 14.0396 19.3254 14.2892 19.1104 14.5156L12.7803 20.8555L12.7793 20.8545C12.5636 21.0798 12.2952 21.2002 12 21.2002C11.7046 21.2001 11.4354 21.0802 11.2197 20.8545L4.90234 14.5186L4.89941 14.5156C4.68846 14.2935 4.57715 14.0451 4.57715 13.7578C4.5773 13.1852 5.0054 12.7296 5.59668 12.7295C5.86044 12.7295 6.14572 12.8153 6.33691 13.0146L8.50977 15.1494L8.51758 15.1572L11.002 17.8906L10.9521 16.3945V3.83887C10.9521 3.54214 11.0585 3.27923 11.25 3.09082C11.4411 2.90275 11.7052 2.79986 12 2.7998Z" fill="#1D1A24"/>
</svg>
