<svg width="24" height="24" viewBox="0 0 24 24" fill="none" xmlns="http://www.w3.org/2000/svg">
<path d="M18.939 3.81836C19.3033 3.8184 19.6197 3.93984 19.8452 4.16699C20.0705 4.39398 20.1889 4.71009 20.189 5.06836L20.1997 15.9473C20.1997 16.6517 19.6456 17.1758 19.0142 17.1758C18.3721 17.1756 17.8296 16.6187 17.8296 15.9902V11.9883L18.0142 7.53223L16.8013 8.8418L5.8091 19.8232C5.56934 20.0629 5.2783 20.1849 4.98 20.1816C4.68279 20.1783 4.39667 20.051 4.16457 19.8252L4.16261 19.8232C3.92992 19.5905 3.80103 19.3034 3.79933 19.0049C3.79764 18.7059 3.92386 18.4156 4.16261 18.1768L15.1382 7.18945L15.1441 7.18457L16.4185 6.00098L11.7798 6.15625H8.00636C7.39161 6.15625 6.8318 5.62729 6.83156 4.99316C6.83156 4.36314 7.3327 3.81836 8.04933 3.81836H18.939Z" fill="#1D1A24"/>
</svg>
