<svg width="24" height="24" viewBox="0 0 24 24" fill="none" xmlns="http://www.w3.org/2000/svg">
<path d="M8.2841 16.4428H15.5748C16.3744 16.4428 16.8589 15.8878 16.8589 15.1681C16.8589 14.9471 16.793 14.7166 16.6754 14.5096L13.0254 8.15026C12.7808 7.72223 12.3622 7.50586 11.9294 7.50586C11.4967 7.50586 11.0734 7.72223 10.8335 8.15026L7.18344 14.5096C7.05644 14.7213 7 14.9471 7 15.1681C7 15.8878 7.48448 16.4428 8.2841 16.4428Z" fill="#1D1A24"/>
<path d="M8.2841 16.4428H15.5748C16.3744 16.4428 16.8589 15.8878 16.8589 15.1681C16.8589 14.9471 16.793 14.7166 16.6754 14.5096L13.0254 8.15026C12.7808 7.72223 12.3622 7.50586 11.9294 7.50586C11.4967 7.50586 11.0734 7.72223 10.8335 8.15026L7.18344 14.5096C7.05644 14.7213 7 14.9471 7 15.1681C7 15.8878 7.48448 16.4428 8.2841 16.4428Z" fill="black" fill-opacity="0.2"/>
<path d="M8.2841 16.4428H15.5748C16.3744 16.4428 16.8589 15.8878 16.8589 15.1681C16.8589 14.9471 16.793 14.7166 16.6754 14.5096L13.0254 8.15026C12.7808 7.72223 12.3622 7.50586 11.9294 7.50586C11.4967 7.50586 11.0734 7.72223 10.8335 8.15026L7.18344 14.5096C7.05644 14.7213 7 14.9471 7 15.1681C7 15.8878 7.48448 16.4428 8.2841 16.4428Z" fill="black" fill-opacity="0.2"/>
<path d="M8.2841 16.4428H15.5748C16.3744 16.4428 16.8589 15.8878 16.8589 15.1681C16.8589 14.9471 16.793 14.7166 16.6754 14.5096L13.0254 8.15026C12.7808 7.72223 12.3622 7.50586 11.9294 7.50586C11.4967 7.50586 11.0734 7.72223 10.8335 8.15026L7.18344 14.5096C7.05644 14.7213 7 14.9471 7 15.1681C7 15.8878 7.48448 16.4428 8.2841 16.4428Z" fill="black" fill-opacity="0.2"/>
<path d="M8.2841 16.4428H15.5748C16.3744 16.4428 16.8589 15.8878 16.8589 15.1681C16.8589 14.9471 16.793 14.7166 16.6754 14.5096L13.0254 8.15026C12.7808 7.72223 12.3622 7.50586 11.9294 7.50586C11.4967 7.50586 11.0734 7.72223 10.8335 8.15026L7.18344 14.5096C7.05644 14.7213 7 14.9471 7 15.1681C7 15.8878 7.48448 16.4428 8.2841 16.4428Z" fill="black" fill-opacity="0.2"/>
<path d="M8.2841 16.4428H15.5748C16.3744 16.4428 16.8589 15.8878 16.8589 15.1681C16.8589 14.9471 16.793 14.7166 16.6754 14.5096L13.0254 8.15026C12.7808 7.72223 12.3622 7.50586 11.9294 7.50586C11.4967 7.50586 11.0734 7.72223 10.8335 8.15026L7.18344 14.5096C7.05644 14.7213 7 14.9471 7 15.1681C7 15.8878 7.48448 16.4428 8.2841 16.4428Z" fill="black" fill-opacity="0.2"/>
</svg>
