<svg width="24" height="24" viewBox="0 0 24 24" fill="none" xmlns="http://www.w3.org/2000/svg">
<path d="M11.1602 5.20508C11.6994 5.20508 12.1259 5.60192 12.126 6.15332C12.126 6.40541 12.0324 6.66685 11.8594 6.84082L9.91113 8.8252L9.90332 8.83301L7.44727 11.0703L8.76074 11.0254H20.2344C20.7901 11.0254 21.2002 11.4387 21.2002 12C21.2001 12.5612 20.79 12.9736 20.2344 12.9736H8.76074L7.44629 12.9277L9.90332 15.167L9.91113 15.1738L11.8584 17.1562C12.0323 17.3301 12.1259 17.5931 12.126 17.8457C12.126 18.3972 11.6994 18.7939 11.1602 18.7939C10.9059 18.7939 10.6747 18.7023 10.4658 18.5039L10.4619 18.501L4.75684 12.8037V17.8457C4.75684 18.1179 4.65735 18.359 4.47656 18.5312C4.29659 18.7027 4.0494 18.7939 3.77441 18.7939C3.50291 18.7939 3.25758 18.7025 3.0791 18.5312C2.8999 18.3592 2.7998 18.1179 2.7998 17.8457V6.1709C2.7998 5.89572 2.89875 5.65115 3.07715 5.47559C3.25523 5.30039 3.50115 5.20508 3.77441 5.20508C4.05104 5.20511 4.29893 5.30025 4.47852 5.47559C4.65838 5.65131 4.75684 5.89576 4.75684 6.1709V11.1953L10.4629 5.50684L10.4658 5.50391C10.6703 5.30968 10.9005 5.20516 11.1602 5.20508Z" fill="#1D1A24"/>
</svg>
