<svg width="24" height="24" viewBox="0 0 24 24" fill="none" xmlns="http://www.w3.org/2000/svg">
<path d="M12 2.7998C12.2949 2.7998 12.5637 2.91955 12.7793 3.14453L19.1104 9.48438C19.3255 9.71076 19.4229 9.96036 19.4229 10.2422C19.4227 10.8148 18.9947 11.2705 18.4033 11.2705C18.1332 11.2704 17.86 11.1807 17.6631 10.9844L15.4902 8.85059L15.4824 8.84277L12.998 6.12305L13.0479 7.60547L13.0488 7.6123L13.0479 20.1611C13.0479 20.4578 12.9415 20.7208 12.75 20.9092C12.5589 21.0972 12.2948 21.2002 12 21.2002C11.7052 21.2001 11.4411 21.0972 11.25 20.9092C11.0585 20.7208 10.9521 20.4578 10.9521 20.1611V7.60547L11.002 6.1084L8.51758 8.84277L8.50977 8.85059L6.33691 10.9854C6.1457 11.1848 5.86042 11.2705 5.59668 11.2705C5.00539 11.2704 4.57728 10.8148 4.57715 10.2422C4.57715 9.95489 4.68845 9.70644 4.89941 9.48438L4.90234 9.48145L11.2197 3.14453C11.4354 2.91914 11.7049 2.79986 12 2.7998Z" fill="#1D1A24"/>
</svg>
