<svg width="24" height="24" viewBox="0 0 24 24" fill="none" xmlns="http://www.w3.org/2000/svg">
<path d="M10.3672 4.45215C10.9448 4.45238 11.4199 4.88389 11.4199 5.48633C11.4198 5.76708 11.3149 6.04253 11.1191 6.23828L11.1182 6.2373L8.94922 8.44727L8.94141 8.4541L6.10352 11.0469L7.87305 10.9375L7.88574 10.9365H20.1475C20.4483 10.9366 20.7144 11.0453 20.9053 11.2393C21.0958 11.433 21.2002 11.701 21.2002 12C21.2001 12.299 21.0959 12.5671 20.9053 12.7607C20.7144 12.9546 20.4482 13.0624 20.1475 13.0625H7.87305L6.10352 12.9512L8.94141 15.5449L8.94922 15.5527L11.1143 17.7568L11.1855 17.833C11.3409 18.0196 11.4199 18.2715 11.4199 18.5137C11.4198 19.116 10.9447 19.5466 10.3672 19.5469C10.076 19.5469 9.82402 19.4349 9.59863 19.2207L9.5957 19.2168L3.15918 12.791C2.93478 12.5762 2.7999 12.304 2.7998 12C2.7998 11.6942 2.93626 11.4206 3.16309 11.2051L9.57617 4.80176C9.82379 4.5542 10.0773 4.45215 10.3672 4.45215Z" fill="#1D1A24"/>
</svg>
