<svg width="24" height="24" viewBox="0 0 24 24" fill="none" xmlns="http://www.w3.org/2000/svg">
<path d="M14.1084 4.33496C14.398 4.33507 14.651 4.43715 14.8984 4.68457L21.3213 11.0879C21.5521 11.3072 21.6748 11.582 21.6748 11.8828C21.6747 12.182 21.5528 12.4541 21.3242 12.6729L14.8789 19.0996L14.876 19.1035C14.6507 19.3175 14.3994 19.4296 14.1084 19.4297C13.5276 19.4297 13.0646 18.9961 13.0645 18.3965C13.0645 18.126 13.1538 17.8333 13.3604 17.6396L15.5254 15.4355L15.5332 15.4277L18.3701 12.834L16.6016 12.9443L16.5889 12.9453H4.32715C4.02639 12.9452 3.76019 12.8374 3.56934 12.6436C3.37874 12.4499 3.27449 12.1818 3.27441 11.8828C3.27441 11.5838 3.37881 11.3158 3.56934 11.1221C3.7602 10.9281 4.02634 10.8194 4.32715 10.8193H16.6016L18.3701 10.9297L15.5332 8.33691L15.5254 8.33008L13.3555 6.12012C13.1562 5.92055 13.0645 5.64348 13.0645 5.36914C13.0645 4.76947 13.5275 4.33496 14.1084 4.33496Z" fill="#1D1A24"/>
</svg>
