<svg width="24" height="24" viewBox="0 0 24 24" fill="none" xmlns="http://www.w3.org/2000/svg">
<path d="M12.0005 2.7998C12.5632 2.79993 12.9741 3.21165 12.9741 3.77441V15.2393L12.9282 16.5518L15.1675 14.0967L15.1753 14.0879L17.1587 12.1484C17.3339 11.9659 17.5961 11.8741 17.8462 11.874C18.3977 11.874 18.7944 12.3005 18.7944 12.8398C18.7944 13.0945 18.703 13.3238 18.5083 13.5391L18.5015 13.5469L12.8042 19.2432H17.8462C18.12 19.2432 18.3613 19.346 18.5327 19.5273C18.703 19.7077 18.7944 19.9543 18.7944 20.2256C18.7944 20.4971 18.703 20.7424 18.5317 20.9209C18.3597 21.1001 18.1183 21.2002 17.8462 21.2002H6.17139C5.89621 21.2002 5.65164 21.1013 5.47607 20.9229C5.30087 20.7448 5.20557 20.4989 5.20557 20.2256C5.20562 19.6688 5.60264 19.2432 6.17139 19.2432H11.1958L5.5083 13.5459L5.50049 13.5391C5.31027 13.3285 5.20565 13.0995 5.20557 12.8398C5.20557 12.3005 5.6024 11.8741 6.15381 11.874C6.40416 11.874 6.66705 11.9656 6.84229 12.1484L8.82568 14.0889L8.8335 14.0967L11.0708 16.5518L11.0259 15.2393V3.77441C11.0259 3.21157 11.4376 2.7998 12.0005 2.7998Z" fill="#1D1A24"/>
</svg>
