<svg width="24" height="24" viewBox="0 0 24 24" fill="none" xmlns="http://www.w3.org/2000/svg">
<path d="M18.0947 2.96387C18.3685 2.96387 18.6099 3.06676 18.7812 3.24805C18.9518 3.42842 19.043 3.67583 19.043 3.94727C19.0429 4.21877 18.9516 4.46413 18.7803 4.64258C18.6082 4.82177 18.3669 4.9209 18.0947 4.9209H13.0537L18.75 10.626L18.7529 10.6299C18.9522 10.8396 19.0429 11.0711 19.043 11.333C19.043 11.8651 18.6448 12.29 18.0947 12.29C17.851 12.29 17.5859 12.2105 17.4072 12.0244L15.4229 10.0752L15.415 10.0674L13.1768 7.61035L13.2227 8.9248L13.2236 8.93164L13.2227 20.3984C13.2227 20.6736 13.1246 20.9182 12.9463 21.0938C12.7682 21.269 12.5222 21.3642 12.249 21.3643C11.9758 21.3643 11.7298 21.2689 11.5518 21.0938C11.3734 20.9182 11.2744 20.6736 11.2744 20.3984V8.9248L11.3193 7.61133L9.08203 10.0674L9.07422 10.0752L7.09082 12.0244C6.91206 12.2107 6.64629 12.29 6.40234 12.29C5.85242 12.29 5.4541 11.8651 5.4541 11.333C5.45416 11.0657 5.55774 10.8353 5.75293 10.6299L5.75586 10.627L11.4443 4.9209H6.41992C6.14478 4.9209 5.90017 4.82289 5.72461 4.64453C5.54939 4.46648 5.45415 4.2205 5.4541 3.94727C5.4541 3.39045 5.85114 2.96387 6.41992 2.96387H18.0947Z" fill="#1D1A24"/>
</svg>
