<svg width="24" height="24" viewBox="0 0 24 24" fill="none" xmlns="http://www.w3.org/2000/svg">
<path d="M15.5748 7.50586H8.28409C7.48446 7.50586 7 8.06089 7 8.78056C7 9.0016 7.06587 9.23211 7.18343 9.43906L10.8335 15.7984C11.0781 16.2264 11.4967 16.4428 11.9295 16.4428C12.3622 16.4428 12.7855 16.2264 13.0254 15.7984L16.6754 9.43906C16.8024 9.22737 16.8589 9.0016 16.8589 8.78056C16.8589 8.06089 16.3744 7.50586 15.5748 7.50586Z" fill="#1D1A24"/>
<path d="M15.5748 7.50586H8.28409C7.48446 7.50586 7 8.06089 7 8.78056C7 9.0016 7.06587 9.23211 7.18343 9.43906L10.8335 15.7984C11.0781 16.2264 11.4967 16.4428 11.9295 16.4428C12.3622 16.4428 12.7855 16.2264 13.0254 15.7984L16.6754 9.43906C16.8024 9.22737 16.8589 9.0016 16.8589 8.78056C16.8589 8.06089 16.3744 7.50586 15.5748 7.50586Z" fill="black" fill-opacity="0.2"/>
<path d="M15.5748 7.50586H8.28409C7.48446 7.50586 7 8.06089 7 8.78056C7 9.0016 7.06587 9.23211 7.18343 9.43906L10.8335 15.7984C11.0781 16.2264 11.4967 16.4428 11.9295 16.4428C12.3622 16.4428 12.7855 16.2264 13.0254 15.7984L16.6754 9.43906C16.8024 9.22737 16.8589 9.0016 16.8589 8.78056C16.8589 8.06089 16.3744 7.50586 15.5748 7.50586Z" fill="black" fill-opacity="0.2"/>
<path d="M15.5748 7.50586H8.28409C7.48446 7.50586 7 8.06089 7 8.78056C7 9.0016 7.06587 9.23211 7.18343 9.43906L10.8335 15.7984C11.0781 16.2264 11.4967 16.4428 11.9295 16.4428C12.3622 16.4428 12.7855 16.2264 13.0254 15.7984L16.6754 9.43906C16.8024 9.22737 16.8589 9.0016 16.8589 8.78056C16.8589 8.06089 16.3744 7.50586 15.5748 7.50586Z" fill="black" fill-opacity="0.2"/>
<path d="M15.5748 7.50586H8.28409C7.48446 7.50586 7 8.06089 7 8.78056C7 9.0016 7.06587 9.23211 7.18343 9.43906L10.8335 15.7984C11.0781 16.2264 11.4967 16.4428 11.9295 16.4428C12.3622 16.4428 12.7855 16.2264 13.0254 15.7984L16.6754 9.43906C16.8024 9.22737 16.8589 9.0016 16.8589 8.78056C16.8589 8.06089 16.3744 7.50586 15.5748 7.50586Z" fill="black" fill-opacity="0.2"/>
<path d="M15.5748 7.50586H8.28409C7.48446 7.50586 7 8.06089 7 8.78056C7 9.0016 7.06587 9.23211 7.18343 9.43906L10.8335 15.7984C11.0781 16.2264 11.4967 16.4428 11.9295 16.4428C12.3622 16.4428 12.7855 16.2264 13.0254 15.7984L16.6754 9.43906C16.8024 9.22737 16.8589 9.0016 16.8589 8.78056C16.8589 8.06089 16.3744 7.50586 15.5748 7.50586Z" fill="black" fill-opacity="0.2"/>
</svg>
