<svg width="24" height="24" viewBox="0 0 24 24" fill="none" xmlns="http://www.w3.org/2000/svg">
<path d="M19.0225 3.8155C19.3209 3.81889 19.6066 3.94701 19.8389 4.17292L19.8408 4.17487C20.0687 4.40277 20.1967 4.68951 20.2002 4.9864C20.2036 5.28464 20.0809 5.57789 19.8389 5.81354L19.8379 5.81257L8.8623 16.8116L8.85645 16.8175L8.85547 16.8165L7.59277 17.9874L12.2217 17.835L12.2285 17.8341H15.9971C16.6119 17.8343 17.1709 18.3639 17.1709 18.9981C17.1709 19.6254 16.6728 20.1837 15.9531 20.1837H5.06152C4.69082 20.1837 4.3736 20.0584 4.14941 19.8292C3.92612 19.6008 3.81065 19.2856 3.81055 18.9337L3.7998 8.04108C3.7998 7.35019 4.34018 6.81257 4.98535 6.81257C5.63193 6.81261 6.16016 7.38451 6.16016 7.99811V12.0118L5.98145 16.4649L7.19922 15.1592L7.2041 15.1534L18.1846 4.17292C18.4293 3.93441 18.723 3.81213 19.0225 3.8155Z" fill="#1D1A24"/>
</svg>
