<svg width="24" height="24" viewBox="0 0 24 24" fill="none" xmlns="http://www.w3.org/2000/svg">
<path d="M20.2168 5.20508C20.7736 5.20508 21.2002 5.60211 21.2002 6.1709V17.8457C21.2002 18.1195 21.0973 18.3608 20.916 18.5322C20.7356 18.7027 20.4882 18.7939 20.2168 18.7939C19.9453 18.7939 19.6999 18.7025 19.5215 18.5312C19.3423 18.3592 19.2432 18.1179 19.2432 17.8457V12.8037L13.5381 18.501L13.5342 18.5039C13.3244 18.7032 13.0929 18.7939 12.8311 18.7939C12.2989 18.7939 11.874 18.3958 11.874 17.8457C11.8741 17.5931 11.9677 17.3301 12.1416 17.1562L14.0889 15.1738L14.0967 15.166L16.5527 12.9277L15.2393 12.9736L15.2324 12.9746L3.76562 12.9736C3.49049 12.9736 3.24587 12.8756 3.07031 12.6973C2.8951 12.5192 2.79986 12.2732 2.7998 12C2.7998 11.7268 2.89515 11.4808 3.07031 11.3027C3.24588 11.1243 3.49045 11.0254 3.76562 11.0254H15.2393L16.5518 11.0703L14.0967 8.83301L14.0889 8.8252L12.1396 6.8418C11.9669 6.66783 11.874 6.40518 11.874 6.15332C11.8741 5.6034 12.299 5.20508 12.8311 5.20508C13.0649 5.20513 13.2707 5.28409 13.4561 5.43457L13.5342 5.50391L13.5371 5.50684L19.2432 11.1953V6.1709C19.2432 5.89575 19.3412 5.65115 19.5195 5.47559C19.6976 5.30036 19.9436 5.20513 20.2168 5.20508Z" fill="#1D1A24"/>
</svg>
