<svg width="24" height="24" viewBox="0 0 24 24" fill="none" xmlns="http://www.w3.org/2000/svg">
<path d="M11.9609 21.9219C17.459 21.9219 21.9219 17.459 21.9219 11.9609C21.9219 6.46289 17.459 2 11.9609 2C6.46289 2 2 6.46289 2 11.9609C2 17.459 6.46289 21.9219 11.9609 21.9219ZM11.9609 20.2617C7.37109 20.2617 3.66016 16.5508 3.66016 11.9609C3.66016 7.37109 7.37109 3.66016 11.9609 3.66016C16.5508 3.66016 20.2617 7.37109 20.2617 11.9609C20.2617 16.5508 16.5508 20.2617 11.9609 20.2617Z" fill="#1D1A24"/>
<path d="M11.9707 16.9902C12.4785 16.9902 12.7617 16.6875 12.752 16.1602L12.6641 13.2305L15.3105 14.9492C15.457 15.0371 15.623 15.0957 15.8184 15.0957C16.2188 15.0957 16.5898 14.7832 16.5898 14.2852C16.5898 13.9629 16.4434 13.748 16.1211 13.5723L13.3477 12.0195L16.1211 10.4766C16.4434 10.3008 16.5898 10.0762 16.5898 9.76367C16.5898 9.25586 16.2188 8.94336 15.8184 8.94336C15.623 8.94336 15.457 9.00195 15.3105 9.09961L12.6641 10.7891L12.752 7.77148C12.7617 7.23438 12.4785 6.93164 11.9707 6.93164C11.4531 6.93164 11.1406 7.25391 11.1504 7.77148L11.2383 10.7891L8.5918 9.10938C8.44531 9.01172 8.2793 8.96289 8.08398 8.96289C7.68359 8.96289 7.3125 9.26562 7.3125 9.77344C7.3125 10.0957 7.45898 10.3105 7.78125 10.4961L10.5352 12.0195L7.78125 13.5625C7.45898 13.7383 7.3125 13.9629 7.3125 14.2754C7.3125 14.7734 7.68359 15.0859 8.08398 15.0859C8.2793 15.0859 8.44531 15.0273 8.5918 14.9395L11.2383 13.2305L11.1504 16.1602C11.1406 16.668 11.4531 16.9902 11.9707 16.9902Z" fill="#1D1A24"/>
</svg>
