<svg width="24" height="24" viewBox="0 0 24 24" fill="none" xmlns="http://www.w3.org/2000/svg">
<path fill-rule="evenodd" clip-rule="evenodd" d="M14.5357 4.48665C15.0491 4.48665 15.4652 4.90308 15.4654 5.41637C15.4654 5.92984 15.0492 6.3461 14.5357 6.3461H7.18781C6.84576 6.34625 6.56791 6.62417 6.56769 6.96621V17.8124C6.56769 18.044 6.69632 18.2443 6.88456 18.3508L15.0532 10.183L15.1213 10.1213C15.2867 9.98579 15.4949 9.91064 15.7106 9.91064C15.957 9.91072 16.1936 10.0087 16.3679 10.183L18.6541 12.4692V10.5417C18.6545 10.0286 19.0707 9.61208 19.5838 9.61193C20.097 9.61193 20.5131 10.0285 20.5135 10.5417V17.8124C20.5135 19.1816 19.4032 20.2919 18.034 20.2919H16.2263L5.92942 23.0511C4.60704 23.4055 3.24705 22.621 2.89238 21.2988L0.0850555 10.8213C-0.268891 9.50035 0.514136 8.14254 1.83373 7.78608L4.58568 7.03249C4.62636 7.02138 4.66756 7.01436 4.70825 7.00889V6.96621C4.70846 5.59723 5.81882 4.4868 7.18781 4.48665H14.5357ZM2.32402 9.57924L2.31948 9.58015C1.98903 9.66889 1.79238 10.0096 1.88095 10.3401L4.68918 20.8167C4.77794 21.1472 5.11769 21.3429 5.44821 21.2543L9.0409 20.2919H7.18781C7.15505 20.2919 7.12237 20.2899 7.08976 20.2865C5.76614 20.2348 4.70825 19.1486 4.70825 17.8124V8.92644L2.32402 9.57924ZM9.43313 18.4325H15.9966C16.1115 18.4111 16.2257 18.412 16.3352 18.4325H18.034C18.3763 18.4325 18.6541 18.1547 18.6541 17.8124V15.0995L15.7097 12.155L9.43313 18.4325Z" fill="#1D1A24"/>
<path fill-rule="evenodd" clip-rule="evenodd" d="M14.5357 4.48665C15.0491 4.48665 15.4652 4.90308 15.4654 5.41637C15.4654 5.92984 15.0492 6.3461 14.5357 6.3461H7.18781C6.84576 6.34625 6.56791 6.62417 6.56769 6.96621V17.8124C6.56769 18.044 6.69632 18.2443 6.88456 18.3508L15.0532 10.183L15.1213 10.1213C15.2867 9.98579 15.4949 9.91064 15.7106 9.91064C15.957 9.91072 16.1936 10.0087 16.3679 10.183L18.6541 12.4692V10.5417C18.6545 10.0286 19.0707 9.61208 19.5838 9.61193C20.097 9.61193 20.5131 10.0285 20.5135 10.5417V17.8124C20.5135 19.1816 19.4032 20.2919 18.034 20.2919H16.2263L5.92942 23.0511C4.60704 23.4055 3.24705 22.621 2.89238 21.2988L0.0850555 10.8213C-0.268891 9.50035 0.514136 8.14254 1.83373 7.78608L4.58568 7.03249C4.62636 7.02138 4.66756 7.01436 4.70825 7.00889V6.96621C4.70846 5.59723 5.81882 4.4868 7.18781 4.48665H14.5357ZM2.32402 9.57924L2.31948 9.58015C1.98903 9.66889 1.79238 10.0096 1.88095 10.3401L4.68918 20.8167C4.77794 21.1472 5.11769 21.3429 5.44821 21.2543L9.0409 20.2919H7.18781C7.15505 20.2919 7.12237 20.2899 7.08976 20.2865C5.76614 20.2348 4.70825 19.1486 4.70825 17.8124V8.92644L2.32402 9.57924ZM9.43313 18.4325H15.9966C16.1115 18.4111 16.2257 18.412 16.3352 18.4325H18.034C18.3763 18.4325 18.6541 18.1547 18.6541 17.8124V15.0995L15.7097 12.155L9.43313 18.4325Z" fill="black" fill-opacity="0.2"/>
<path fill-rule="evenodd" clip-rule="evenodd" d="M14.5357 4.48665C15.0491 4.48665 15.4652 4.90308 15.4654 5.41637C15.4654 5.92984 15.0492 6.3461 14.5357 6.3461H7.18781C6.84576 6.34625 6.56791 6.62417 6.56769 6.96621V17.8124C6.56769 18.044 6.69632 18.2443 6.88456 18.3508L15.0532 10.183L15.1213 10.1213C15.2867 9.98579 15.4949 9.91064 15.7106 9.91064C15.957 9.91072 16.1936 10.0087 16.3679 10.183L18.6541 12.4692V10.5417C18.6545 10.0286 19.0707 9.61208 19.5838 9.61193C20.097 9.61193 20.5131 10.0285 20.5135 10.5417V17.8124C20.5135 19.1816 19.4032 20.2919 18.034 20.2919H16.2263L5.92942 23.0511C4.60704 23.4055 3.24705 22.621 2.89238 21.2988L0.0850555 10.8213C-0.268891 9.50035 0.514136 8.14254 1.83373 7.78608L4.58568 7.03249C4.62636 7.02138 4.66756 7.01436 4.70825 7.00889V6.96621C4.70846 5.59723 5.81882 4.4868 7.18781 4.48665H14.5357ZM2.32402 9.57924L2.31948 9.58015C1.98903 9.66889 1.79238 10.0096 1.88095 10.3401L4.68918 20.8167C4.77794 21.1472 5.11769 21.3429 5.44821 21.2543L9.0409 20.2919H7.18781C7.15505 20.2919 7.12237 20.2899 7.08976 20.2865C5.76614 20.2348 4.70825 19.1486 4.70825 17.8124V8.92644L2.32402 9.57924ZM9.43313 18.4325H15.9966C16.1115 18.4111 16.2257 18.412 16.3352 18.4325H18.034C18.3763 18.4325 18.6541 18.1547 18.6541 17.8124V15.0995L15.7097 12.155L9.43313 18.4325Z" fill="black" fill-opacity="0.2"/>
<path fill-rule="evenodd" clip-rule="evenodd" d="M14.5357 4.48665C15.0491 4.48665 15.4652 4.90308 15.4654 5.41637C15.4654 5.92984 15.0492 6.3461 14.5357 6.3461H7.18781C6.84576 6.34625 6.56791 6.62417 6.56769 6.96621V17.8124C6.56769 18.044 6.69632 18.2443 6.88456 18.3508L15.0532 10.183L15.1213 10.1213C15.2867 9.98579 15.4949 9.91064 15.7106 9.91064C15.957 9.91072 16.1936 10.0087 16.3679 10.183L18.6541 12.4692V10.5417C18.6545 10.0286 19.0707 9.61208 19.5838 9.61193C20.097 9.61193 20.5131 10.0285 20.5135 10.5417V17.8124C20.5135 19.1816 19.4032 20.2919 18.034 20.2919H16.2263L5.92942 23.0511C4.60704 23.4055 3.24705 22.621 2.89238 21.2988L0.0850555 10.8213C-0.268891 9.50035 0.514136 8.14254 1.83373 7.78608L4.58568 7.03249C4.62636 7.02138 4.66756 7.01436 4.70825 7.00889V6.96621C4.70846 5.59723 5.81882 4.4868 7.18781 4.48665H14.5357ZM2.32402 9.57924L2.31948 9.58015C1.98903 9.66889 1.79238 10.0096 1.88095 10.3401L4.68918 20.8167C4.77794 21.1472 5.11769 21.3429 5.44821 21.2543L9.0409 20.2919H7.18781C7.15505 20.2919 7.12237 20.2899 7.08976 20.2865C5.76614 20.2348 4.70825 19.1486 4.70825 17.8124V8.92644L2.32402 9.57924ZM9.43313 18.4325H15.9966C16.1115 18.4111 16.2257 18.412 16.3352 18.4325H18.034C18.3763 18.4325 18.6541 18.1547 18.6541 17.8124V15.0995L15.7097 12.155L9.43313 18.4325Z" fill="black" fill-opacity="0.2"/>
<path fill-rule="evenodd" clip-rule="evenodd" d="M14.5357 4.48665C15.0491 4.48665 15.4652 4.90308 15.4654 5.41637C15.4654 5.92984 15.0492 6.3461 14.5357 6.3461H7.18781C6.84576 6.34625 6.56791 6.62417 6.56769 6.96621V17.8124C6.56769 18.044 6.69632 18.2443 6.88456 18.3508L15.0532 10.183L15.1213 10.1213C15.2867 9.98579 15.4949 9.91064 15.7106 9.91064C15.957 9.91072 16.1936 10.0087 16.3679 10.183L18.6541 12.4692V10.5417C18.6545 10.0286 19.0707 9.61208 19.5838 9.61193C20.097 9.61193 20.5131 10.0285 20.5135 10.5417V17.8124C20.5135 19.1816 19.4032 20.2919 18.034 20.2919H16.2263L5.92942 23.0511C4.60704 23.4055 3.24705 22.621 2.89238 21.2988L0.0850555 10.8213C-0.268891 9.50035 0.514136 8.14254 1.83373 7.78608L4.58568 7.03249C4.62636 7.02138 4.66756 7.01436 4.70825 7.00889V6.96621C4.70846 5.59723 5.81882 4.4868 7.18781 4.48665H14.5357ZM2.32402 9.57924L2.31948 9.58015C1.98903 9.66889 1.79238 10.0096 1.88095 10.3401L4.68918 20.8167C4.77794 21.1472 5.11769 21.3429 5.44821 21.2543L9.0409 20.2919H7.18781C7.15505 20.2919 7.12237 20.2899 7.08976 20.2865C5.76614 20.2348 4.70825 19.1486 4.70825 17.8124V8.92644L2.32402 9.57924ZM9.43313 18.4325H15.9966C16.1115 18.4111 16.2257 18.412 16.3352 18.4325H18.034C18.3763 18.4325 18.6541 18.1547 18.6541 17.8124V15.0995L15.7097 12.155L9.43313 18.4325Z" fill="black" fill-opacity="0.2"/>
<path fill-rule="evenodd" clip-rule="evenodd" d="M14.5357 4.48665C15.0491 4.48665 15.4652 4.90308 15.4654 5.41637C15.4654 5.92984 15.0492 6.3461 14.5357 6.3461H7.18781C6.84576 6.34625 6.56791 6.62417 6.56769 6.96621V17.8124C6.56769 18.044 6.69632 18.2443 6.88456 18.3508L15.0532 10.183L15.1213 10.1213C15.2867 9.98579 15.4949 9.91064 15.7106 9.91064C15.957 9.91072 16.1936 10.0087 16.3679 10.183L18.6541 12.4692V10.5417C18.6545 10.0286 19.0707 9.61208 19.5838 9.61193C20.097 9.61193 20.5131 10.0285 20.5135 10.5417V17.8124C20.5135 19.1816 19.4032 20.2919 18.034 20.2919H16.2263L5.92942 23.0511C4.60704 23.4055 3.24705 22.621 2.89238 21.2988L0.0850555 10.8213C-0.268891 9.50035 0.514136 8.14254 1.83373 7.78608L4.58568 7.03249C4.62636 7.02138 4.66756 7.01436 4.70825 7.00889V6.96621C4.70846 5.59723 5.81882 4.4868 7.18781 4.48665H14.5357ZM2.32402 9.57924L2.31948 9.58015C1.98903 9.66889 1.79238 10.0096 1.88095 10.3401L4.68918 20.8167C4.77794 21.1472 5.11769 21.3429 5.44821 21.2543L9.0409 20.2919H7.18781C7.15505 20.2919 7.12237 20.2899 7.08976 20.2865C5.76614 20.2348 4.70825 19.1486 4.70825 17.8124V8.92644L2.32402 9.57924ZM9.43313 18.4325H15.9966C16.1115 18.4111 16.2257 18.412 16.3352 18.4325H18.034C18.3763 18.4325 18.6541 18.1547 18.6541 17.8124V15.0995L15.7097 12.155L9.43313 18.4325Z" fill="black" fill-opacity="0.2"/>
<path fill-rule="evenodd" clip-rule="evenodd" d="M9.89981 8.05119C10.7982 8.05137 11.5268 8.77974 11.5268 9.67821C11.5267 10.5765 10.7981 11.305 9.89981 11.3052C9.00133 11.3052 8.27294 10.5767 8.27279 9.67821C8.27279 8.77963 9.00123 8.05119 9.89981 8.05119ZM9.89981 8.98092C9.5147 8.98092 9.20252 9.2931 9.20252 9.67821C9.20267 10.0632 9.5148 10.3755 9.89981 10.3755C10.2847 10.3753 10.5969 10.0631 10.5971 9.67821C10.5971 9.29321 10.2848 8.98109 9.89981 8.98092Z" fill="#1D1A24"/>
<path fill-rule="evenodd" clip-rule="evenodd" d="M9.89981 8.05119C10.7982 8.05137 11.5268 8.77974 11.5268 9.67821C11.5267 10.5765 10.7981 11.305 9.89981 11.3052C9.00133 11.3052 8.27294 10.5767 8.27279 9.67821C8.27279 8.77963 9.00123 8.05119 9.89981 8.05119ZM9.89981 8.98092C9.5147 8.98092 9.20252 9.2931 9.20252 9.67821C9.20267 10.0632 9.5148 10.3755 9.89981 10.3755C10.2847 10.3753 10.5969 10.0631 10.5971 9.67821C10.5971 9.29321 10.2848 8.98109 9.89981 8.98092Z" fill="black" fill-opacity="0.2"/>
<path fill-rule="evenodd" clip-rule="evenodd" d="M9.89981 8.05119C10.7982 8.05137 11.5268 8.77974 11.5268 9.67821C11.5267 10.5765 10.7981 11.305 9.89981 11.3052C9.00133 11.3052 8.27294 10.5767 8.27279 9.67821C8.27279 8.77963 9.00123 8.05119 9.89981 8.05119ZM9.89981 8.98092C9.5147 8.98092 9.20252 9.2931 9.20252 9.67821C9.20267 10.0632 9.5148 10.3755 9.89981 10.3755C10.2847 10.3753 10.5969 10.0631 10.5971 9.67821C10.5971 9.29321 10.2848 8.98109 9.89981 8.98092Z" fill="black" fill-opacity="0.2"/>
<path fill-rule="evenodd" clip-rule="evenodd" d="M9.89981 8.05119C10.7982 8.05137 11.5268 8.77974 11.5268 9.67821C11.5267 10.5765 10.7981 11.305 9.89981 11.3052C9.00133 11.3052 8.27294 10.5767 8.27279 9.67821C8.27279 8.77963 9.00123 8.05119 9.89981 8.05119ZM9.89981 8.98092C9.5147 8.98092 9.20252 9.2931 9.20252 9.67821C9.20267 10.0632 9.5148 10.3755 9.89981 10.3755C10.2847 10.3753 10.5969 10.0631 10.5971 9.67821C10.5971 9.29321 10.2848 8.98109 9.89981 8.98092Z" fill="black" fill-opacity="0.2"/>
<path fill-rule="evenodd" clip-rule="evenodd" d="M9.89981 8.05119C10.7982 8.05137 11.5268 8.77974 11.5268 9.67821C11.5267 10.5765 10.7981 11.305 9.89981 11.3052C9.00133 11.3052 8.27294 10.5767 8.27279 9.67821C8.27279 8.77963 9.00123 8.05119 9.89981 8.05119ZM9.89981 8.98092C9.5147 8.98092 9.20252 9.2931 9.20252 9.67821C9.20267 10.0632 9.5148 10.3755 9.89981 10.3755C10.2847 10.3753 10.5969 10.0631 10.5971 9.67821C10.5971 9.29321 10.2848 8.98109 9.89981 8.98092Z" fill="black" fill-opacity="0.2"/>
<path fill-rule="evenodd" clip-rule="evenodd" d="M9.89981 8.05119C10.7982 8.05137 11.5268 8.77974 11.5268 9.67821C11.5267 10.5765 10.7981 11.305 9.89981 11.3052C9.00133 11.3052 8.27294 10.5767 8.27279 9.67821C8.27279 8.77963 9.00123 8.05119 9.89981 8.05119ZM9.89981 8.98092C9.5147 8.98092 9.20252 9.2931 9.20252 9.67821C9.20267 10.0632 9.5148 10.3755 9.89981 10.3755C10.2847 10.3753 10.5969 10.0631 10.5971 9.67821C10.5971 9.29321 10.2848 8.98109 9.89981 8.98092Z" fill="black" fill-opacity="0.2"/>
<path fill-rule="evenodd" clip-rule="evenodd" d="M21.0728 4.02451C21.1458 4.02749 21.2171 4.05286 21.2762 4.09624C21.3204 4.1288 21.3568 4.17134 21.3824 4.21972L21.4051 4.27056L21.7601 5.27927C21.8376 5.49914 21.9651 5.6998 22.1324 5.86489C22.2998 6.02992 22.5038 6.15574 22.728 6.2326L23.7521 6.58307C23.8055 6.6013 23.8541 6.63219 23.8938 6.67204L23.931 6.71472C23.9646 6.76113 23.9865 6.81553 23.9955 6.87179L24 6.92899L23.9955 6.98528C23.9865 7.04167 23.9646 7.09583 23.931 7.14235C23.8864 7.20395 23.8235 7.24962 23.7521 7.274L22.728 7.62446C22.5038 7.70131 22.2998 7.82713 22.1324 7.99218C21.965 8.15725 21.8376 8.35791 21.7601 8.57779L21.4042 9.58742C21.3789 9.65965 21.3319 9.72172 21.2698 9.76537C21.2076 9.80915 21.1331 9.83256 21.0574 9.83256C20.982 9.83241 20.9079 9.80902 20.8458 9.76537C20.7838 9.72162 20.7358 9.65884 20.7106 9.58651L20.7115 9.5856L20.3556 8.5787C20.2781 8.35885 20.1506 8.15726 19.9833 7.99218C19.8159 7.82716 19.6118 7.70134 19.3877 7.62446L18.3636 7.274C18.2923 7.24959 18.2293 7.20384 18.1847 7.14235C18.1401 7.0806 18.1158 7.00554 18.1157 6.92899C18.1157 6.87151 18.129 6.81432 18.1547 6.76374L18.1847 6.71472L18.2219 6.67204C18.2618 6.63189 18.3107 6.60131 18.3645 6.58307L19.3877 6.2326C19.612 6.15567 19.8159 6.03009 19.9833 5.86489C20.1507 5.6997 20.2781 5.49929 20.3556 5.27927L20.7115 4.27056C20.731 4.21453 20.7634 4.16436 20.8059 4.12438L20.8513 4.08716L20.903 4.05901C20.9381 4.04277 20.9755 4.03187 21.0138 4.02724L21.0728 4.02451ZM20.9766 5.49627C20.8659 5.81042 20.6844 6.09588 20.4464 6.33066C20.2083 6.56541 19.9194 6.74391 19.602 6.85272L19.3795 6.92899L19.602 7.00525C19.9193 7.11405 20.2084 7.29271 20.4464 7.52732C20.6841 7.76193 20.8659 8.04694 20.9766 8.3608L21.0583 8.59051L21.1391 8.3608C21.2498 8.04685 21.4314 7.76198 21.6693 7.52732C21.9074 7.29255 22.1963 7.11408 22.5137 7.00525L22.7362 6.92808L22.5137 6.85272C22.1965 6.74392 21.9073 6.56526 21.6693 6.33066C21.4315 6.09595 21.2497 5.81026 21.1391 5.49627L21.0583 5.26566L20.9766 5.49627Z" fill="#1D1A24"/>
<path fill-rule="evenodd" clip-rule="evenodd" d="M21.0728 4.02451C21.1458 4.02749 21.2171 4.05286 21.2762 4.09624C21.3204 4.1288 21.3568 4.17134 21.3824 4.21972L21.4051 4.27056L21.7601 5.27927C21.8376 5.49914 21.9651 5.6998 22.1324 5.86489C22.2998 6.02992 22.5038 6.15574 22.728 6.2326L23.7521 6.58307C23.8055 6.6013 23.8541 6.63219 23.8938 6.67204L23.931 6.71472C23.9646 6.76113 23.9865 6.81553 23.9955 6.87179L24 6.92899L23.9955 6.98528C23.9865 7.04167 23.9646 7.09583 23.931 7.14235C23.8864 7.20395 23.8235 7.24962 23.7521 7.274L22.728 7.62446C22.5038 7.70131 22.2998 7.82713 22.1324 7.99218C21.965 8.15725 21.8376 8.35791 21.7601 8.57779L21.4042 9.58742C21.3789 9.65965 21.3319 9.72172 21.2698 9.76537C21.2076 9.80915 21.1331 9.83256 21.0574 9.83256C20.982 9.83241 20.9079 9.80902 20.8458 9.76537C20.7838 9.72162 20.7358 9.65884 20.7106 9.58651L20.7115 9.5856L20.3556 8.5787C20.2781 8.35885 20.1506 8.15726 19.9833 7.99218C19.8159 7.82716 19.6118 7.70134 19.3877 7.62446L18.3636 7.274C18.2923 7.24959 18.2293 7.20384 18.1847 7.14235C18.1401 7.0806 18.1158 7.00554 18.1157 6.92899C18.1157 6.87151 18.129 6.81432 18.1547 6.76374L18.1847 6.71472L18.2219 6.67204C18.2618 6.63189 18.3107 6.60131 18.3645 6.58307L19.3877 6.2326C19.612 6.15567 19.8159 6.03009 19.9833 5.86489C20.1507 5.6997 20.2781 5.49929 20.3556 5.27927L20.7115 4.27056C20.731 4.21453 20.7634 4.16436 20.8059 4.12438L20.8513 4.08716L20.903 4.05901C20.9381 4.04277 20.9755 4.03187 21.0138 4.02724L21.0728 4.02451ZM20.9766 5.49627C20.8659 5.81042 20.6844 6.09588 20.4464 6.33066C20.2083 6.56541 19.9194 6.74391 19.602 6.85272L19.3795 6.92899L19.602 7.00525C19.9193 7.11405 20.2084 7.29271 20.4464 7.52732C20.6841 7.76193 20.8659 8.04694 20.9766 8.3608L21.0583 8.59051L21.1391 8.3608C21.2498 8.04685 21.4314 7.76198 21.6693 7.52732C21.9074 7.29255 22.1963 7.11408 22.5137 7.00525L22.7362 6.92808L22.5137 6.85272C22.1965 6.74392 21.9073 6.56526 21.6693 6.33066C21.4315 6.09595 21.2497 5.81026 21.1391 5.49627L21.0583 5.26566L20.9766 5.49627Z" fill="black" fill-opacity="0.2"/>
<path fill-rule="evenodd" clip-rule="evenodd" d="M21.0728 4.02451C21.1458 4.02749 21.2171 4.05286 21.2762 4.09624C21.3204 4.1288 21.3568 4.17134 21.3824 4.21972L21.4051 4.27056L21.7601 5.27927C21.8376 5.49914 21.9651 5.6998 22.1324 5.86489C22.2998 6.02992 22.5038 6.15574 22.728 6.2326L23.7521 6.58307C23.8055 6.6013 23.8541 6.63219 23.8938 6.67204L23.931 6.71472C23.9646 6.76113 23.9865 6.81553 23.9955 6.87179L24 6.92899L23.9955 6.98528C23.9865 7.04167 23.9646 7.09583 23.931 7.14235C23.8864 7.20395 23.8235 7.24962 23.7521 7.274L22.728 7.62446C22.5038 7.70131 22.2998 7.82713 22.1324 7.99218C21.965 8.15725 21.8376 8.35791 21.7601 8.57779L21.4042 9.58742C21.3789 9.65965 21.3319 9.72172 21.2698 9.76537C21.2076 9.80915 21.1331 9.83256 21.0574 9.83256C20.982 9.83241 20.9079 9.80902 20.8458 9.76537C20.7838 9.72162 20.7358 9.65884 20.7106 9.58651L20.7115 9.5856L20.3556 8.5787C20.2781 8.35885 20.1506 8.15726 19.9833 7.99218C19.8159 7.82716 19.6118 7.70134 19.3877 7.62446L18.3636 7.274C18.2923 7.24959 18.2293 7.20384 18.1847 7.14235C18.1401 7.0806 18.1158 7.00554 18.1157 6.92899C18.1157 6.87151 18.129 6.81432 18.1547 6.76374L18.1847 6.71472L18.2219 6.67204C18.2618 6.63189 18.3107 6.60131 18.3645 6.58307L19.3877 6.2326C19.612 6.15567 19.8159 6.03009 19.9833 5.86489C20.1507 5.6997 20.2781 5.49929 20.3556 5.27927L20.7115 4.27056C20.731 4.21453 20.7634 4.16436 20.8059 4.12438L20.8513 4.08716L20.903 4.05901C20.9381 4.04277 20.9755 4.03187 21.0138 4.02724L21.0728 4.02451ZM20.9766 5.49627C20.8659 5.81042 20.6844 6.09588 20.4464 6.33066C20.2083 6.56541 19.9194 6.74391 19.602 6.85272L19.3795 6.92899L19.602 7.00525C19.9193 7.11405 20.2084 7.29271 20.4464 7.52732C20.6841 7.76193 20.8659 8.04694 20.9766 8.3608L21.0583 8.59051L21.1391 8.3608C21.2498 8.04685 21.4314 7.76198 21.6693 7.52732C21.9074 7.29255 22.1963 7.11408 22.5137 7.00525L22.7362 6.92808L22.5137 6.85272C22.1965 6.74392 21.9073 6.56526 21.6693 6.33066C21.4315 6.09595 21.2497 5.81026 21.1391 5.49627L21.0583 5.26566L20.9766 5.49627Z" fill="black" fill-opacity="0.2"/>
<path fill-rule="evenodd" clip-rule="evenodd" d="M21.0728 4.02451C21.1458 4.02749 21.2171 4.05286 21.2762 4.09624C21.3204 4.1288 21.3568 4.17134 21.3824 4.21972L21.4051 4.27056L21.7601 5.27927C21.8376 5.49914 21.9651 5.6998 22.1324 5.86489C22.2998 6.02992 22.5038 6.15574 22.728 6.2326L23.7521 6.58307C23.8055 6.6013 23.8541 6.63219 23.8938 6.67204L23.931 6.71472C23.9646 6.76113 23.9865 6.81553 23.9955 6.87179L24 6.92899L23.9955 6.98528C23.9865 7.04167 23.9646 7.09583 23.931 7.14235C23.8864 7.20395 23.8235 7.24962 23.7521 7.274L22.728 7.62446C22.5038 7.70131 22.2998 7.82713 22.1324 7.99218C21.965 8.15725 21.8376 8.35791 21.7601 8.57779L21.4042 9.58742C21.3789 9.65965 21.3319 9.72172 21.2698 9.76537C21.2076 9.80915 21.1331 9.83256 21.0574 9.83256C20.982 9.83241 20.9079 9.80902 20.8458 9.76537C20.7838 9.72162 20.7358 9.65884 20.7106 9.58651L20.7115 9.5856L20.3556 8.5787C20.2781 8.35885 20.1506 8.15726 19.9833 7.99218C19.8159 7.82716 19.6118 7.70134 19.3877 7.62446L18.3636 7.274C18.2923 7.24959 18.2293 7.20384 18.1847 7.14235C18.1401 7.0806 18.1158 7.00554 18.1157 6.92899C18.1157 6.87151 18.129 6.81432 18.1547 6.76374L18.1847 6.71472L18.2219 6.67204C18.2618 6.63189 18.3107 6.60131 18.3645 6.58307L19.3877 6.2326C19.612 6.15567 19.8159 6.03009 19.9833 5.86489C20.1507 5.6997 20.2781 5.49929 20.3556 5.27927L20.7115 4.27056C20.731 4.21453 20.7634 4.16436 20.8059 4.12438L20.8513 4.08716L20.903 4.05901C20.9381 4.04277 20.9755 4.03187 21.0138 4.02724L21.0728 4.02451ZM20.9766 5.49627C20.8659 5.81042 20.6844 6.09588 20.4464 6.33066C20.2083 6.56541 19.9194 6.74391 19.602 6.85272L19.3795 6.92899L19.602 7.00525C19.9193 7.11405 20.2084 7.29271 20.4464 7.52732C20.6841 7.76193 20.8659 8.04694 20.9766 8.3608L21.0583 8.59051L21.1391 8.3608C21.2498 8.04685 21.4314 7.76198 21.6693 7.52732C21.9074 7.29255 22.1963 7.11408 22.5137 7.00525L22.7362 6.92808L22.5137 6.85272C22.1965 6.74392 21.9073 6.56526 21.6693 6.33066C21.4315 6.09595 21.2497 5.81026 21.1391 5.49627L21.0583 5.26566L20.9766 5.49627Z" fill="black" fill-opacity="0.2"/>
<path fill-rule="evenodd" clip-rule="evenodd" d="M21.0728 4.02451C21.1458 4.02749 21.2171 4.05286 21.2762 4.09624C21.3204 4.1288 21.3568 4.17134 21.3824 4.21972L21.4051 4.27056L21.7601 5.27927C21.8376 5.49914 21.9651 5.6998 22.1324 5.86489C22.2998 6.02992 22.5038 6.15574 22.728 6.2326L23.7521 6.58307C23.8055 6.6013 23.8541 6.63219 23.8938 6.67204L23.931 6.71472C23.9646 6.76113 23.9865 6.81553 23.9955 6.87179L24 6.92899L23.9955 6.98528C23.9865 7.04167 23.9646 7.09583 23.931 7.14235C23.8864 7.20395 23.8235 7.24962 23.7521 7.274L22.728 7.62446C22.5038 7.70131 22.2998 7.82713 22.1324 7.99218C21.965 8.15725 21.8376 8.35791 21.7601 8.57779L21.4042 9.58742C21.3789 9.65965 21.3319 9.72172 21.2698 9.76537C21.2076 9.80915 21.1331 9.83256 21.0574 9.83256C20.982 9.83241 20.9079 9.80902 20.8458 9.76537C20.7838 9.72162 20.7358 9.65884 20.7106 9.58651L20.7115 9.5856L20.3556 8.5787C20.2781 8.35885 20.1506 8.15726 19.9833 7.99218C19.8159 7.82716 19.6118 7.70134 19.3877 7.62446L18.3636 7.274C18.2923 7.24959 18.2293 7.20384 18.1847 7.14235C18.1401 7.0806 18.1158 7.00554 18.1157 6.92899C18.1157 6.87151 18.129 6.81432 18.1547 6.76374L18.1847 6.71472L18.2219 6.67204C18.2618 6.63189 18.3107 6.60131 18.3645 6.58307L19.3877 6.2326C19.612 6.15567 19.8159 6.03009 19.9833 5.86489C20.1507 5.6997 20.2781 5.49929 20.3556 5.27927L20.7115 4.27056C20.731 4.21453 20.7634 4.16436 20.8059 4.12438L20.8513 4.08716L20.903 4.05901C20.9381 4.04277 20.9755 4.03187 21.0138 4.02724L21.0728 4.02451ZM20.9766 5.49627C20.8659 5.81042 20.6844 6.09588 20.4464 6.33066C20.2083 6.56541 19.9194 6.74391 19.602 6.85272L19.3795 6.92899L19.602 7.00525C19.9193 7.11405 20.2084 7.29271 20.4464 7.52732C20.6841 7.76193 20.8659 8.04694 20.9766 8.3608L21.0583 8.59051L21.1391 8.3608C21.2498 8.04685 21.4314 7.76198 21.6693 7.52732C21.9074 7.29255 22.1963 7.11408 22.5137 7.00525L22.7362 6.92808L22.5137 6.85272C22.1965 6.74392 21.9073 6.56526 21.6693 6.33066C21.4315 6.09595 21.2497 5.81026 21.1391 5.49627L21.0583 5.26566L20.9766 5.49627Z" fill="black" fill-opacity="0.2"/>
<path fill-rule="evenodd" clip-rule="evenodd" d="M21.0728 4.02451C21.1458 4.02749 21.2171 4.05286 21.2762 4.09624C21.3204 4.1288 21.3568 4.17134 21.3824 4.21972L21.4051 4.27056L21.7601 5.27927C21.8376 5.49914 21.9651 5.6998 22.1324 5.86489C22.2998 6.02992 22.5038 6.15574 22.728 6.2326L23.7521 6.58307C23.8055 6.6013 23.8541 6.63219 23.8938 6.67204L23.931 6.71472C23.9646 6.76113 23.9865 6.81553 23.9955 6.87179L24 6.92899L23.9955 6.98528C23.9865 7.04167 23.9646 7.09583 23.931 7.14235C23.8864 7.20395 23.8235 7.24962 23.7521 7.274L22.728 7.62446C22.5038 7.70131 22.2998 7.82713 22.1324 7.99218C21.965 8.15725 21.8376 8.35791 21.7601 8.57779L21.4042 9.58742C21.3789 9.65965 21.3319 9.72172 21.2698 9.76537C21.2076 9.80915 21.1331 9.83256 21.0574 9.83256C20.982 9.83241 20.9079 9.80902 20.8458 9.76537C20.7838 9.72162 20.7358 9.65884 20.7106 9.58651L20.7115 9.5856L20.3556 8.5787C20.2781 8.35885 20.1506 8.15726 19.9833 7.99218C19.8159 7.82716 19.6118 7.70134 19.3877 7.62446L18.3636 7.274C18.2923 7.24959 18.2293 7.20384 18.1847 7.14235C18.1401 7.0806 18.1158 7.00554 18.1157 6.92899C18.1157 6.87151 18.129 6.81432 18.1547 6.76374L18.1847 6.71472L18.2219 6.67204C18.2618 6.63189 18.3107 6.60131 18.3645 6.58307L19.3877 6.2326C19.612 6.15567 19.8159 6.03009 19.9833 5.86489C20.1507 5.6997 20.2781 5.49929 20.3556 5.27927L20.7115 4.27056C20.731 4.21453 20.7634 4.16436 20.8059 4.12438L20.8513 4.08716L20.903 4.05901C20.9381 4.04277 20.9755 4.03187 21.0138 4.02724L21.0728 4.02451ZM20.9766 5.49627C20.8659 5.81042 20.6844 6.09588 20.4464 6.33066C20.2083 6.56541 19.9194 6.74391 19.602 6.85272L19.3795 6.92899L19.602 7.00525C19.9193 7.11405 20.2084 7.29271 20.4464 7.52732C20.6841 7.76193 20.8659 8.04694 20.9766 8.3608L21.0583 8.59051L21.1391 8.3608C21.2498 8.04685 21.4314 7.76198 21.6693 7.52732C21.9074 7.29255 22.1963 7.11408 22.5137 7.00525L22.7362 6.92808L22.5137 6.85272C22.1965 6.74392 21.9073 6.56526 21.6693 6.33066C21.4315 6.09595 21.2497 5.81026 21.1391 5.49627L21.0583 5.26566L20.9766 5.49627Z" fill="black" fill-opacity="0.2"/>
<path fill-rule="evenodd" clip-rule="evenodd" d="M17.3903 1.00019C17.4432 1.00208 17.4959 1.01593 17.5428 1.04014L17.5882 1.06828C17.6458 1.11025 17.6904 1.16946 17.7144 1.23716L17.9704 1.96441C18.0215 2.10949 18.106 2.24211 18.2165 2.35119C18.3271 2.46025 18.4622 2.54363 18.6105 2.59452L19.3478 2.84692C19.3995 2.86484 19.4474 2.89522 19.4858 2.93409L19.5212 2.97585C19.5534 3.02073 19.5743 3.07319 19.5829 3.12747L19.5874 3.18286L19.5829 3.23733C19.5743 3.2918 19.5535 3.34393 19.5212 3.38896C19.4781 3.44892 19.4169 3.49395 19.3478 3.51789L18.6105 3.77029C18.4621 3.82115 18.3271 3.90453 18.2165 4.01362C18.1058 4.12273 18.0216 4.25524 17.9704 4.4004L17.7144 5.12765C17.6895 5.19746 17.6429 5.25809 17.5827 5.30016C17.5227 5.34209 17.4513 5.36453 17.3784 5.36462C17.3056 5.36454 17.2334 5.34215 17.1733 5.30016C17.1133 5.2581 17.0664 5.1982 17.0416 5.12856L16.7856 4.4004C16.7343 4.25528 16.6502 4.12267 16.5395 4.01362C16.4288 3.90464 16.2939 3.82105 16.1455 3.77029L15.4073 3.51789L15.3565 3.4961C15.3085 3.47062 15.2661 3.43376 15.2339 3.38896C15.1911 3.32916 15.1677 3.25682 15.1676 3.18286C15.1677 3.12719 15.181 3.07208 15.2058 3.02306L15.2339 2.97585L15.2693 2.93409C15.3077 2.8951 15.3555 2.8658 15.4073 2.84783L16.1455 2.59452C16.294 2.5437 16.4287 2.46034 16.5395 2.35119C16.6503 2.24204 16.7344 2.10966 16.7856 1.96441L17.0416 1.23716L17.0652 1.18541C17.0834 1.15225 17.1067 1.12215 17.1342 1.09643L17.1778 1.06102L17.2268 1.03378C17.2777 1.01006 17.3339 0.998343 17.3903 1.00019ZM17.3784 2.2495C17.2929 2.46173 17.1664 2.65546 17.0026 2.81696C16.8413 2.97594 16.6483 3.09801 16.4378 3.18195C16.6482 3.26582 16.8413 3.38897 17.0026 3.54785C17.166 3.70899 17.2929 3.9027 17.3784 4.1144C17.4639 3.90288 17.5902 3.70983 17.7534 3.54876C17.915 3.38937 18.1081 3.26595 18.3191 3.18195C18.1084 3.09799 17.9148 2.97609 17.7534 2.81696C17.59 2.65563 17.4638 2.46139 17.3784 2.2495Z" fill="#1D1A24"/>
<path fill-rule="evenodd" clip-rule="evenodd" d="M17.3903 1.00019C17.4432 1.00208 17.4959 1.01593 17.5428 1.04014L17.5882 1.06828C17.6458 1.11025 17.6904 1.16946 17.7144 1.23716L17.9704 1.96441C18.0215 2.10949 18.106 2.24211 18.2165 2.35119C18.3271 2.46025 18.4622 2.54363 18.6105 2.59452L19.3478 2.84692C19.3995 2.86484 19.4474 2.89522 19.4858 2.93409L19.5212 2.97585C19.5534 3.02073 19.5743 3.07319 19.5829 3.12747L19.5874 3.18286L19.5829 3.23733C19.5743 3.2918 19.5535 3.34393 19.5212 3.38896C19.4781 3.44892 19.4169 3.49395 19.3478 3.51789L18.6105 3.77029C18.4621 3.82115 18.3271 3.90453 18.2165 4.01362C18.1058 4.12273 18.0216 4.25524 17.9704 4.4004L17.7144 5.12765C17.6895 5.19746 17.6429 5.25809 17.5827 5.30016C17.5227 5.34209 17.4513 5.36453 17.3784 5.36462C17.3056 5.36454 17.2334 5.34215 17.1733 5.30016C17.1133 5.2581 17.0664 5.1982 17.0416 5.12856L16.7856 4.4004C16.7343 4.25528 16.6502 4.12267 16.5395 4.01362C16.4288 3.90464 16.2939 3.82105 16.1455 3.77029L15.4073 3.51789L15.3565 3.4961C15.3085 3.47062 15.2661 3.43376 15.2339 3.38896C15.1911 3.32916 15.1677 3.25682 15.1676 3.18286C15.1677 3.12719 15.181 3.07208 15.2058 3.02306L15.2339 2.97585L15.2693 2.93409C15.3077 2.8951 15.3555 2.8658 15.4073 2.84783L16.1455 2.59452C16.294 2.5437 16.4287 2.46034 16.5395 2.35119C16.6503 2.24204 16.7344 2.10966 16.7856 1.96441L17.0416 1.23716L17.0652 1.18541C17.0834 1.15225 17.1067 1.12215 17.1342 1.09643L17.1778 1.06102L17.2268 1.03378C17.2777 1.01006 17.3339 0.998343 17.3903 1.00019ZM17.3784 2.2495C17.2929 2.46173 17.1664 2.65546 17.0026 2.81696C16.8413 2.97594 16.6483 3.09801 16.4378 3.18195C16.6482 3.26582 16.8413 3.38897 17.0026 3.54785C17.166 3.70899 17.2929 3.9027 17.3784 4.1144C17.4639 3.90288 17.5902 3.70983 17.7534 3.54876C17.915 3.38937 18.1081 3.26595 18.3191 3.18195C18.1084 3.09799 17.9148 2.97609 17.7534 2.81696C17.59 2.65563 17.4638 2.46139 17.3784 2.2495Z" fill="black" fill-opacity="0.2"/>
<path fill-rule="evenodd" clip-rule="evenodd" d="M17.3903 1.00019C17.4432 1.00208 17.4959 1.01593 17.5428 1.04014L17.5882 1.06828C17.6458 1.11025 17.6904 1.16946 17.7144 1.23716L17.9704 1.96441C18.0215 2.10949 18.106 2.24211 18.2165 2.35119C18.3271 2.46025 18.4622 2.54363 18.6105 2.59452L19.3478 2.84692C19.3995 2.86484 19.4474 2.89522 19.4858 2.93409L19.5212 2.97585C19.5534 3.02073 19.5743 3.07319 19.5829 3.12747L19.5874 3.18286L19.5829 3.23733C19.5743 3.2918 19.5535 3.34393 19.5212 3.38896C19.4781 3.44892 19.4169 3.49395 19.3478 3.51789L18.6105 3.77029C18.4621 3.82115 18.3271 3.90453 18.2165 4.01362C18.1058 4.12273 18.0216 4.25524 17.9704 4.4004L17.7144 5.12765C17.6895 5.19746 17.6429 5.25809 17.5827 5.30016C17.5227 5.34209 17.4513 5.36453 17.3784 5.36462C17.3056 5.36454 17.2334 5.34215 17.1733 5.30016C17.1133 5.2581 17.0664 5.1982 17.0416 5.12856L16.7856 4.4004C16.7343 4.25528 16.6502 4.12267 16.5395 4.01362C16.4288 3.90464 16.2939 3.82105 16.1455 3.77029L15.4073 3.51789L15.3565 3.4961C15.3085 3.47062 15.2661 3.43376 15.2339 3.38896C15.1911 3.32916 15.1677 3.25682 15.1676 3.18286C15.1677 3.12719 15.181 3.07208 15.2058 3.02306L15.2339 2.97585L15.2693 2.93409C15.3077 2.8951 15.3555 2.8658 15.4073 2.84783L16.1455 2.59452C16.294 2.5437 16.4287 2.46034 16.5395 2.35119C16.6503 2.24204 16.7344 2.10966 16.7856 1.96441L17.0416 1.23716L17.0652 1.18541C17.0834 1.15225 17.1067 1.12215 17.1342 1.09643L17.1778 1.06102L17.2268 1.03378C17.2777 1.01006 17.3339 0.998343 17.3903 1.00019ZM17.3784 2.2495C17.2929 2.46173 17.1664 2.65546 17.0026 2.81696C16.8413 2.97594 16.6483 3.09801 16.4378 3.18195C16.6482 3.26582 16.8413 3.38897 17.0026 3.54785C17.166 3.70899 17.2929 3.9027 17.3784 4.1144C17.4639 3.90288 17.5902 3.70983 17.7534 3.54876C17.915 3.38937 18.1081 3.26595 18.3191 3.18195C18.1084 3.09799 17.9148 2.97609 17.7534 2.81696C17.59 2.65563 17.4638 2.46139 17.3784 2.2495Z" fill="black" fill-opacity="0.2"/>
<path fill-rule="evenodd" clip-rule="evenodd" d="M17.3903 1.00019C17.4432 1.00208 17.4959 1.01593 17.5428 1.04014L17.5882 1.06828C17.6458 1.11025 17.6904 1.16946 17.7144 1.23716L17.9704 1.96441C18.0215 2.10949 18.106 2.24211 18.2165 2.35119C18.3271 2.46025 18.4622 2.54363 18.6105 2.59452L19.3478 2.84692C19.3995 2.86484 19.4474 2.89522 19.4858 2.93409L19.5212 2.97585C19.5534 3.02073 19.5743 3.07319 19.5829 3.12747L19.5874 3.18286L19.5829 3.23733C19.5743 3.2918 19.5535 3.34393 19.5212 3.38896C19.4781 3.44892 19.4169 3.49395 19.3478 3.51789L18.6105 3.77029C18.4621 3.82115 18.3271 3.90453 18.2165 4.01362C18.1058 4.12273 18.0216 4.25524 17.9704 4.4004L17.7144 5.12765C17.6895 5.19746 17.6429 5.25809 17.5827 5.30016C17.5227 5.34209 17.4513 5.36453 17.3784 5.36462C17.3056 5.36454 17.2334 5.34215 17.1733 5.30016C17.1133 5.2581 17.0664 5.1982 17.0416 5.12856L16.7856 4.4004C16.7343 4.25528 16.6502 4.12267 16.5395 4.01362C16.4288 3.90464 16.2939 3.82105 16.1455 3.77029L15.4073 3.51789L15.3565 3.4961C15.3085 3.47062 15.2661 3.43376 15.2339 3.38896C15.1911 3.32916 15.1677 3.25682 15.1676 3.18286C15.1677 3.12719 15.181 3.07208 15.2058 3.02306L15.2339 2.97585L15.2693 2.93409C15.3077 2.8951 15.3555 2.8658 15.4073 2.84783L16.1455 2.59452C16.294 2.5437 16.4287 2.46034 16.5395 2.35119C16.6503 2.24204 16.7344 2.10966 16.7856 1.96441L17.0416 1.23716L17.0652 1.18541C17.0834 1.15225 17.1067 1.12215 17.1342 1.09643L17.1778 1.06102L17.2268 1.03378C17.2777 1.01006 17.3339 0.998343 17.3903 1.00019ZM17.3784 2.2495C17.2929 2.46173 17.1664 2.65546 17.0026 2.81696C16.8413 2.97594 16.6483 3.09801 16.4378 3.18195C16.6482 3.26582 16.8413 3.38897 17.0026 3.54785C17.166 3.70899 17.2929 3.9027 17.3784 4.1144C17.4639 3.90288 17.5902 3.70983 17.7534 3.54876C17.915 3.38937 18.1081 3.26595 18.3191 3.18195C18.1084 3.09799 17.9148 2.97609 17.7534 2.81696C17.59 2.65563 17.4638 2.46139 17.3784 2.2495Z" fill="black" fill-opacity="0.2"/>
<path fill-rule="evenodd" clip-rule="evenodd" d="M17.3903 1.00019C17.4432 1.00208 17.4959 1.01593 17.5428 1.04014L17.5882 1.06828C17.6458 1.11025 17.6904 1.16946 17.7144 1.23716L17.9704 1.96441C18.0215 2.10949 18.106 2.24211 18.2165 2.35119C18.3271 2.46025 18.4622 2.54363 18.6105 2.59452L19.3478 2.84692C19.3995 2.86484 19.4474 2.89522 19.4858 2.93409L19.5212 2.97585C19.5534 3.02073 19.5743 3.07319 19.5829 3.12747L19.5874 3.18286L19.5829 3.23733C19.5743 3.2918 19.5535 3.34393 19.5212 3.38896C19.4781 3.44892 19.4169 3.49395 19.3478 3.51789L18.6105 3.77029C18.4621 3.82115 18.3271 3.90453 18.2165 4.01362C18.1058 4.12273 18.0216 4.25524 17.9704 4.4004L17.7144 5.12765C17.6895 5.19746 17.6429 5.25809 17.5827 5.30016C17.5227 5.34209 17.4513 5.36453 17.3784 5.36462C17.3056 5.36454 17.2334 5.34215 17.1733 5.30016C17.1133 5.2581 17.0664 5.1982 17.0416 5.12856L16.7856 4.4004C16.7343 4.25528 16.6502 4.12267 16.5395 4.01362C16.4288 3.90464 16.2939 3.82105 16.1455 3.77029L15.4073 3.51789L15.3565 3.4961C15.3085 3.47062 15.2661 3.43376 15.2339 3.38896C15.1911 3.32916 15.1677 3.25682 15.1676 3.18286C15.1677 3.12719 15.181 3.07208 15.2058 3.02306L15.2339 2.97585L15.2693 2.93409C15.3077 2.8951 15.3555 2.8658 15.4073 2.84783L16.1455 2.59452C16.294 2.5437 16.4287 2.46034 16.5395 2.35119C16.6503 2.24204 16.7344 2.10966 16.7856 1.96441L17.0416 1.23716L17.0652 1.18541C17.0834 1.15225 17.1067 1.12215 17.1342 1.09643L17.1778 1.06102L17.2268 1.03378C17.2777 1.01006 17.3339 0.998343 17.3903 1.00019ZM17.3784 2.2495C17.2929 2.46173 17.1664 2.65546 17.0026 2.81696C16.8413 2.97594 16.6483 3.09801 16.4378 3.18195C16.6482 3.26582 16.8413 3.38897 17.0026 3.54785C17.166 3.70899 17.2929 3.9027 17.3784 4.1144C17.4639 3.90288 17.5902 3.70983 17.7534 3.54876C17.915 3.38937 18.1081 3.26595 18.3191 3.18195C18.1084 3.09799 17.9148 2.97609 17.7534 2.81696C17.59 2.65563 17.4638 2.46139 17.3784 2.2495Z" fill="black" fill-opacity="0.2"/>
<path fill-rule="evenodd" clip-rule="evenodd" d="M17.3903 1.00019C17.4432 1.00208 17.4959 1.01593 17.5428 1.04014L17.5882 1.06828C17.6458 1.11025 17.6904 1.16946 17.7144 1.23716L17.9704 1.96441C18.0215 2.10949 18.106 2.24211 18.2165 2.35119C18.3271 2.46025 18.4622 2.54363 18.6105 2.59452L19.3478 2.84692C19.3995 2.86484 19.4474 2.89522 19.4858 2.93409L19.5212 2.97585C19.5534 3.02073 19.5743 3.07319 19.5829 3.12747L19.5874 3.18286L19.5829 3.23733C19.5743 3.2918 19.5535 3.34393 19.5212 3.38896C19.4781 3.44892 19.4169 3.49395 19.3478 3.51789L18.6105 3.77029C18.4621 3.82115 18.3271 3.90453 18.2165 4.01362C18.1058 4.12273 18.0216 4.25524 17.9704 4.4004L17.7144 5.12765C17.6895 5.19746 17.6429 5.25809 17.5827 5.30016C17.5227 5.34209 17.4513 5.36453 17.3784 5.36462C17.3056 5.36454 17.2334 5.34215 17.1733 5.30016C17.1133 5.2581 17.0664 5.1982 17.0416 5.12856L16.7856 4.4004C16.7343 4.25528 16.6502 4.12267 16.5395 4.01362C16.4288 3.90464 16.2939 3.82105 16.1455 3.77029L15.4073 3.51789L15.3565 3.4961C15.3085 3.47062 15.2661 3.43376 15.2339 3.38896C15.1911 3.32916 15.1677 3.25682 15.1676 3.18286C15.1677 3.12719 15.181 3.07208 15.2058 3.02306L15.2339 2.97585L15.2693 2.93409C15.3077 2.8951 15.3555 2.8658 15.4073 2.84783L16.1455 2.59452C16.294 2.5437 16.4287 2.46034 16.5395 2.35119C16.6503 2.24204 16.7344 2.10966 16.7856 1.96441L17.0416 1.23716L17.0652 1.18541C17.0834 1.15225 17.1067 1.12215 17.1342 1.09643L17.1778 1.06102L17.2268 1.03378C17.2777 1.01006 17.3339 0.998343 17.3903 1.00019ZM17.3784 2.2495C17.2929 2.46173 17.1664 2.65546 17.0026 2.81696C16.8413 2.97594 16.6483 3.09801 16.4378 3.18195C16.6482 3.26582 16.8413 3.38897 17.0026 3.54785C17.166 3.70899 17.2929 3.9027 17.3784 4.1144C17.4639 3.90288 17.5902 3.70983 17.7534 3.54876C17.915 3.38937 18.1081 3.26595 18.3191 3.18195C18.1084 3.09799 17.9148 2.97609 17.7534 2.81696C17.59 2.65563 17.4638 2.46139 17.3784 2.2495Z" fill="black" fill-opacity="0.2"/>
<path d="M20.9766 5.49627C20.8659 5.81042 20.6844 6.09588 20.4464 6.33066C20.2083 6.56541 19.9194 6.74391 19.602 6.85272L19.3795 6.92899L19.602 7.00525C19.9193 7.11405 20.2084 7.29271 20.4464 7.52732C20.6841 7.76193 20.8659 8.04694 20.9766 8.3608L21.0583 8.59051L21.1391 8.3608C21.2498 8.04685 21.4314 7.76198 21.6693 7.52732C21.9074 7.29255 22.1963 7.11408 22.5137 7.00525L22.7362 6.92808L22.5137 6.85272C22.1965 6.74392 21.9073 6.56526 21.6693 6.33066C21.4315 6.09595 21.2497 5.81026 21.1391 5.49627L21.0583 5.26566L20.9766 5.49627Z" fill="#1D1A24"/>
<path d="M20.9766 5.49627C20.8659 5.81042 20.6844 6.09588 20.4464 6.33066C20.2083 6.56541 19.9194 6.74391 19.602 6.85272L19.3795 6.92899L19.602 7.00525C19.9193 7.11405 20.2084 7.29271 20.4464 7.52732C20.6841 7.76193 20.8659 8.04694 20.9766 8.3608L21.0583 8.59051L21.1391 8.3608C21.2498 8.04685 21.4314 7.76198 21.6693 7.52732C21.9074 7.29255 22.1963 7.11408 22.5137 7.00525L22.7362 6.92808L22.5137 6.85272C22.1965 6.74392 21.9073 6.56526 21.6693 6.33066C21.4315 6.09595 21.2497 5.81026 21.1391 5.49627L21.0583 5.26566L20.9766 5.49627Z" fill="black" fill-opacity="0.2"/>
<path d="M20.9766 5.49627C20.8659 5.81042 20.6844 6.09588 20.4464 6.33066C20.2083 6.56541 19.9194 6.74391 19.602 6.85272L19.3795 6.92899L19.602 7.00525C19.9193 7.11405 20.2084 7.29271 20.4464 7.52732C20.6841 7.76193 20.8659 8.04694 20.9766 8.3608L21.0583 8.59051L21.1391 8.3608C21.2498 8.04685 21.4314 7.76198 21.6693 7.52732C21.9074 7.29255 22.1963 7.11408 22.5137 7.00525L22.7362 6.92808L22.5137 6.85272C22.1965 6.74392 21.9073 6.56526 21.6693 6.33066C21.4315 6.09595 21.2497 5.81026 21.1391 5.49627L21.0583 5.26566L20.9766 5.49627Z" fill="black" fill-opacity="0.2"/>
<path d="M20.9766 5.49627C20.8659 5.81042 20.6844 6.09588 20.4464 6.33066C20.2083 6.56541 19.9194 6.74391 19.602 6.85272L19.3795 6.92899L19.602 7.00525C19.9193 7.11405 20.2084 7.29271 20.4464 7.52732C20.6841 7.76193 20.8659 8.04694 20.9766 8.3608L21.0583 8.59051L21.1391 8.3608C21.2498 8.04685 21.4314 7.76198 21.6693 7.52732C21.9074 7.29255 22.1963 7.11408 22.5137 7.00525L22.7362 6.92808L22.5137 6.85272C22.1965 6.74392 21.9073 6.56526 21.6693 6.33066C21.4315 6.09595 21.2497 5.81026 21.1391 5.49627L21.0583 5.26566L20.9766 5.49627Z" fill="black" fill-opacity="0.2"/>
<path d="M20.9766 5.49627C20.8659 5.81042 20.6844 6.09588 20.4464 6.33066C20.2083 6.56541 19.9194 6.74391 19.602 6.85272L19.3795 6.92899L19.602 7.00525C19.9193 7.11405 20.2084 7.29271 20.4464 7.52732C20.6841 7.76193 20.8659 8.04694 20.9766 8.3608L21.0583 8.59051L21.1391 8.3608C21.2498 8.04685 21.4314 7.76198 21.6693 7.52732C21.9074 7.29255 22.1963 7.11408 22.5137 7.00525L22.7362 6.92808L22.5137 6.85272C22.1965 6.74392 21.9073 6.56526 21.6693 6.33066C21.4315 6.09595 21.2497 5.81026 21.1391 5.49627L21.0583 5.26566L20.9766 5.49627Z" fill="black" fill-opacity="0.2"/>
<path d="M20.9766 5.49627C20.8659 5.81042 20.6844 6.09588 20.4464 6.33066C20.2083 6.56541 19.9194 6.74391 19.602 6.85272L19.3795 6.92899L19.602 7.00525C19.9193 7.11405 20.2084 7.29271 20.4464 7.52732C20.6841 7.76193 20.8659 8.04694 20.9766 8.3608L21.0583 8.59051L21.1391 8.3608C21.2498 8.04685 21.4314 7.76198 21.6693 7.52732C21.9074 7.29255 22.1963 7.11408 22.5137 7.00525L22.7362 6.92808L22.5137 6.85272C22.1965 6.74392 21.9073 6.56526 21.6693 6.33066C21.4315 6.09595 21.2497 5.81026 21.1391 5.49627L21.0583 5.26566L20.9766 5.49627Z" fill="black" fill-opacity="0.2"/>
<path d="M17.3784 2.2495C17.2929 2.46173 17.1664 2.65546 17.0026 2.81696C16.8413 2.97594 16.6483 3.09801 16.4378 3.18195C16.6482 3.26582 16.8413 3.38897 17.0026 3.54785C17.166 3.70899 17.2929 3.9027 17.3784 4.1144C17.4639 3.90288 17.5902 3.70983 17.7534 3.54876C17.915 3.38937 18.1081 3.26595 18.3191 3.18195C18.1084 3.09799 17.9148 2.97609 17.7534 2.81696C17.59 2.65563 17.4638 2.46139 17.3784 2.2495Z" fill="#1D1A24"/>
<path d="M17.3784 2.2495C17.2929 2.46173 17.1664 2.65546 17.0026 2.81696C16.8413 2.97594 16.6483 3.09801 16.4378 3.18195C16.6482 3.26582 16.8413 3.38897 17.0026 3.54785C17.166 3.70899 17.2929 3.9027 17.3784 4.1144C17.4639 3.90288 17.5902 3.70983 17.7534 3.54876C17.915 3.38937 18.1081 3.26595 18.3191 3.18195C18.1084 3.09799 17.9148 2.97609 17.7534 2.81696C17.59 2.65563 17.4638 2.46139 17.3784 2.2495Z" fill="black" fill-opacity="0.2"/>
<path d="M17.3784 2.2495C17.2929 2.46173 17.1664 2.65546 17.0026 2.81696C16.8413 2.97594 16.6483 3.09801 16.4378 3.18195C16.6482 3.26582 16.8413 3.38897 17.0026 3.54785C17.166 3.70899 17.2929 3.9027 17.3784 4.1144C17.4639 3.90288 17.5902 3.70983 17.7534 3.54876C17.915 3.38937 18.1081 3.26595 18.3191 3.18195C18.1084 3.09799 17.9148 2.97609 17.7534 2.81696C17.59 2.65563 17.4638 2.46139 17.3784 2.2495Z" fill="black" fill-opacity="0.2"/>
<path d="M17.3784 2.2495C17.2929 2.46173 17.1664 2.65546 17.0026 2.81696C16.8413 2.97594 16.6483 3.09801 16.4378 3.18195C16.6482 3.26582 16.8413 3.38897 17.0026 3.54785C17.166 3.70899 17.2929 3.9027 17.3784 4.1144C17.4639 3.90288 17.5902 3.70983 17.7534 3.54876C17.915 3.38937 18.1081 3.26595 18.3191 3.18195C18.1084 3.09799 17.9148 2.97609 17.7534 2.81696C17.59 2.65563 17.4638 2.46139 17.3784 2.2495Z" fill="black" fill-opacity="0.2"/>
<path d="M17.3784 2.2495C17.2929 2.46173 17.1664 2.65546 17.0026 2.81696C16.8413 2.97594 16.6483 3.09801 16.4378 3.18195C16.6482 3.26582 16.8413 3.38897 17.0026 3.54785C17.166 3.70899 17.2929 3.9027 17.3784 4.1144C17.4639 3.90288 17.5902 3.70983 17.7534 3.54876C17.915 3.38937 18.1081 3.26595 18.3191 3.18195C18.1084 3.09799 17.9148 2.97609 17.7534 2.81696C17.59 2.65563 17.4638 2.46139 17.3784 2.2495Z" fill="black" fill-opacity="0.2"/>
<path d="M17.3784 2.2495C17.2929 2.46173 17.1664 2.65546 17.0026 2.81696C16.8413 2.97594 16.6483 3.09801 16.4378 3.18195C16.6482 3.26582 16.8413 3.38897 17.0026 3.54785C17.166 3.70899 17.2929 3.9027 17.3784 4.1144C17.4639 3.90288 17.5902 3.70983 17.7534 3.54876C17.915 3.38937 18.1081 3.26595 18.3191 3.18195C18.1084 3.09799 17.9148 2.97609 17.7534 2.81696C17.59 2.65563 17.4638 2.46139 17.3784 2.2495Z" fill="black" fill-opacity="0.2"/>
</svg>
