<svg width="24" height="24" viewBox="0 0 24 24" fill="none" xmlns="http://www.w3.org/2000/svg">
<path d="M12.7761 19.9828C13.0001 19.5967 13.4947 19.465 13.881 19.6886C14.2673 19.9127 14.3993 20.408 14.1752 20.7944C13.9442 21.1926 13.6124 21.5233 13.2135 21.7531C12.8146 21.9829 12.3617 22.1046 11.9013 22.1046C11.4409 22.1046 10.9881 21.9829 10.5891 21.7531C10.1901 21.5233 9.85747 21.1927 9.62642 20.7944C9.40263 20.4081 9.5346 19.9127 9.92065 19.6886C10.307 19.4646 10.8023 19.5966 11.0265 19.9828C11.1153 20.1358 11.2425 20.2637 11.3958 20.3521C11.5492 20.4404 11.7242 20.4863 11.9013 20.4863C12.0782 20.4863 12.2525 20.4403 12.4058 20.3521C12.5593 20.2637 12.6872 20.136 12.7761 19.9828Z" fill="#1D1A24"/>
<path d="M12.7761 19.9828C13.0001 19.5967 13.4947 19.465 13.881 19.6886C14.2673 19.9127 14.3993 20.408 14.1752 20.7944C13.9442 21.1926 13.6124 21.5233 13.2135 21.7531C12.8146 21.9829 12.3617 22.1046 11.9013 22.1046C11.4409 22.1046 10.9881 21.9829 10.5891 21.7531C10.1901 21.5233 9.85747 21.1927 9.62642 20.7944C9.40263 20.4081 9.5346 19.9127 9.92065 19.6886C10.307 19.4646 10.8023 19.5966 11.0265 19.9828C11.1153 20.1358 11.2425 20.2637 11.3958 20.3521C11.5492 20.4404 11.7242 20.4863 11.9013 20.4863C12.0782 20.4863 12.2525 20.4403 12.4058 20.3521C12.5593 20.2637 12.6872 20.136 12.7761 19.9828Z" fill="black" fill-opacity="0.2"/>
<path d="M12.7761 19.9828C13.0001 19.5967 13.4947 19.465 13.881 19.6886C14.2673 19.9127 14.3993 20.408 14.1752 20.7944C13.9442 21.1926 13.6124 21.5233 13.2135 21.7531C12.8146 21.9829 12.3617 22.1046 11.9013 22.1046C11.4409 22.1046 10.9881 21.9829 10.5891 21.7531C10.1901 21.5233 9.85747 21.1927 9.62642 20.7944C9.40263 20.4081 9.5346 19.9127 9.92065 19.6886C10.307 19.4646 10.8023 19.5966 11.0265 19.9828C11.1153 20.1358 11.2425 20.2637 11.3958 20.3521C11.5492 20.4404 11.7242 20.4863 11.9013 20.4863C12.0782 20.4863 12.2525 20.4403 12.4058 20.3521C12.5593 20.2637 12.6872 20.136 12.7761 19.9828Z" fill="black" fill-opacity="0.2"/>
<path d="M12.7761 19.9828C13.0001 19.5967 13.4947 19.465 13.881 19.6886C14.2673 19.9127 14.3993 20.408 14.1752 20.7944C13.9442 21.1926 13.6124 21.5233 13.2135 21.7531C12.8146 21.9829 12.3617 22.1046 11.9013 22.1046C11.4409 22.1046 10.9881 21.9829 10.5891 21.7531C10.1901 21.5233 9.85747 21.1927 9.62642 20.7944C9.40263 20.4081 9.5346 19.9127 9.92065 19.6886C10.307 19.4646 10.8023 19.5966 11.0265 19.9828C11.1153 20.1358 11.2425 20.2637 11.3958 20.3521C11.5492 20.4404 11.7242 20.4863 11.9013 20.4863C12.0782 20.4863 12.2525 20.4403 12.4058 20.3521C12.5593 20.2637 12.6872 20.136 12.7761 19.9828Z" fill="black" fill-opacity="0.2"/>
<path d="M12.7761 19.9828C13.0001 19.5967 13.4947 19.465 13.881 19.6886C14.2673 19.9127 14.3993 20.408 14.1752 20.7944C13.9442 21.1926 13.6124 21.5233 13.2135 21.7531C12.8146 21.9829 12.3617 22.1046 11.9013 22.1046C11.4409 22.1046 10.9881 21.9829 10.5891 21.7531C10.1901 21.5233 9.85747 21.1927 9.62642 20.7944C9.40263 20.4081 9.5346 19.9127 9.92065 19.6886C10.307 19.4646 10.8023 19.5966 11.0265 19.9828C11.1153 20.1358 11.2425 20.2637 11.3958 20.3521C11.5492 20.4404 11.7242 20.4863 11.9013 20.4863C12.0782 20.4863 12.2525 20.4403 12.4058 20.3521C12.5593 20.2637 12.6872 20.136 12.7761 19.9828Z" fill="black" fill-opacity="0.2"/>
<path d="M12.7761 19.9828C13.0001 19.5967 13.4947 19.465 13.881 19.6886C14.2673 19.9127 14.3993 20.408 14.1752 20.7944C13.9442 21.1926 13.6124 21.5233 13.2135 21.7531C12.8146 21.9829 12.3617 22.1046 11.9013 22.1046C11.4409 22.1046 10.9881 21.9829 10.5891 21.7531C10.1901 21.5233 9.85747 21.1927 9.62642 20.7944C9.40263 20.4081 9.5346 19.9127 9.92065 19.6886C10.307 19.4646 10.8023 19.5966 11.0265 19.9828C11.1153 20.1358 11.2425 20.2637 11.3958 20.3521C11.5492 20.4404 11.7242 20.4863 11.9013 20.4863C12.0782 20.4863 12.2525 20.4403 12.4058 20.3521C12.5593 20.2637 12.6872 20.136 12.7761 19.9828Z" fill="black" fill-opacity="0.2"/>
<path fill-rule="evenodd" clip-rule="evenodd" d="M11.9013 2.89453C13.5641 2.89456 15.1588 3.55626 16.3345 4.73201C17.5101 5.90774 18.171 7.50267 18.171 9.16526C18.1712 12.2309 18.8264 14.1431 19.4368 15.2622C19.743 15.8234 20.0424 16.1938 20.2524 16.4155C20.3572 16.5261 20.441 16.6007 20.4923 16.6435L20.5447 16.685L20.5427 16.684C20.8384 16.8819 20.9697 17.2497 20.8665 17.5904C20.7631 17.9312 20.4486 18.165 20.0924 18.1651H3.71015C3.35395 18.165 3.03949 17.9312 2.93606 17.5904C2.83291 17.2498 2.9652 16.8819 3.2609 16.684L3.25794 16.685C3.2664 16.6787 3.28394 16.6647 3.30928 16.6435C3.36057 16.6008 3.44417 16.5263 3.54921 16.4155C3.75913 16.1939 4.05855 15.8235 4.36477 15.2622C4.97517 14.1431 5.63143 12.231 5.63155 9.16526C5.63155 7.5027 6.29257 5.90773 7.46805 4.73201C8.64378 3.55628 10.2386 2.89457 11.9013 2.89453ZM11.9013 4.51282C10.6676 4.51285 9.48377 5.00302 8.61141 5.87538C7.73931 6.74772 7.24984 7.93173 7.24984 9.16526C7.24971 12.469 6.54014 14.6528 5.78558 16.0363C5.68499 16.2207 5.58335 16.3911 5.48345 16.5468H18.3191C18.2192 16.3911 18.1176 16.2208 18.017 16.0363C17.2624 14.6528 16.5529 12.4691 16.5528 9.16526C16.5528 7.9316 16.0625 6.74775 15.1902 5.87538C14.3179 5.00316 13.1349 4.51284 11.9013 4.51282Z" fill="#1D1A24"/>
<path fill-rule="evenodd" clip-rule="evenodd" d="M11.9013 2.89453C13.5641 2.89456 15.1588 3.55626 16.3345 4.73201C17.5101 5.90774 18.171 7.50267 18.171 9.16526C18.1712 12.2309 18.8264 14.1431 19.4368 15.2622C19.743 15.8234 20.0424 16.1938 20.2524 16.4155C20.3572 16.5261 20.441 16.6007 20.4923 16.6435L20.5447 16.685L20.5427 16.684C20.8384 16.8819 20.9697 17.2497 20.8665 17.5904C20.7631 17.9312 20.4486 18.165 20.0924 18.1651H3.71015C3.35395 18.165 3.03949 17.9312 2.93606 17.5904C2.83291 17.2498 2.9652 16.8819 3.2609 16.684L3.25794 16.685C3.2664 16.6787 3.28394 16.6647 3.30928 16.6435C3.36057 16.6008 3.44417 16.5263 3.54921 16.4155C3.75913 16.1939 4.05855 15.8235 4.36477 15.2622C4.97517 14.1431 5.63143 12.231 5.63155 9.16526C5.63155 7.5027 6.29257 5.90773 7.46805 4.73201C8.64378 3.55628 10.2386 2.89457 11.9013 2.89453ZM11.9013 4.51282C10.6676 4.51285 9.48377 5.00302 8.61141 5.87538C7.73931 6.74772 7.24984 7.93173 7.24984 9.16526C7.24971 12.469 6.54014 14.6528 5.78558 16.0363C5.68499 16.2207 5.58335 16.3911 5.48345 16.5468H18.3191C18.2192 16.3911 18.1176 16.2208 18.017 16.0363C17.2624 14.6528 16.5529 12.4691 16.5528 9.16526C16.5528 7.9316 16.0625 6.74775 15.1902 5.87538C14.3179 5.00316 13.1349 4.51284 11.9013 4.51282Z" fill="black" fill-opacity="0.2"/>
<path fill-rule="evenodd" clip-rule="evenodd" d="M11.9013 2.89453C13.5641 2.89456 15.1588 3.55626 16.3345 4.73201C17.5101 5.90774 18.171 7.50267 18.171 9.16526C18.1712 12.2309 18.8264 14.1431 19.4368 15.2622C19.743 15.8234 20.0424 16.1938 20.2524 16.4155C20.3572 16.5261 20.441 16.6007 20.4923 16.6435L20.5447 16.685L20.5427 16.684C20.8384 16.8819 20.9697 17.2497 20.8665 17.5904C20.7631 17.9312 20.4486 18.165 20.0924 18.1651H3.71015C3.35395 18.165 3.03949 17.9312 2.93606 17.5904C2.83291 17.2498 2.9652 16.8819 3.2609 16.684L3.25794 16.685C3.2664 16.6787 3.28394 16.6647 3.30928 16.6435C3.36057 16.6008 3.44417 16.5263 3.54921 16.4155C3.75913 16.1939 4.05855 15.8235 4.36477 15.2622C4.97517 14.1431 5.63143 12.231 5.63155 9.16526C5.63155 7.5027 6.29257 5.90773 7.46805 4.73201C8.64378 3.55628 10.2386 2.89457 11.9013 2.89453ZM11.9013 4.51282C10.6676 4.51285 9.48377 5.00302 8.61141 5.87538C7.73931 6.74772 7.24984 7.93173 7.24984 9.16526C7.24971 12.469 6.54014 14.6528 5.78558 16.0363C5.68499 16.2207 5.58335 16.3911 5.48345 16.5468H18.3191C18.2192 16.3911 18.1176 16.2208 18.017 16.0363C17.2624 14.6528 16.5529 12.4691 16.5528 9.16526C16.5528 7.9316 16.0625 6.74775 15.1902 5.87538C14.3179 5.00316 13.1349 4.51284 11.9013 4.51282Z" fill="black" fill-opacity="0.2"/>
<path fill-rule="evenodd" clip-rule="evenodd" d="M11.9013 2.89453C13.5641 2.89456 15.1588 3.55626 16.3345 4.73201C17.5101 5.90774 18.171 7.50267 18.171 9.16526C18.1712 12.2309 18.8264 14.1431 19.4368 15.2622C19.743 15.8234 20.0424 16.1938 20.2524 16.4155C20.3572 16.5261 20.441 16.6007 20.4923 16.6435L20.5447 16.685L20.5427 16.684C20.8384 16.8819 20.9697 17.2497 20.8665 17.5904C20.7631 17.9312 20.4486 18.165 20.0924 18.1651H3.71015C3.35395 18.165 3.03949 17.9312 2.93606 17.5904C2.83291 17.2498 2.9652 16.8819 3.2609 16.684L3.25794 16.685C3.2664 16.6787 3.28394 16.6647 3.30928 16.6435C3.36057 16.6008 3.44417 16.5263 3.54921 16.4155C3.75913 16.1939 4.05855 15.8235 4.36477 15.2622C4.97517 14.1431 5.63143 12.231 5.63155 9.16526C5.63155 7.5027 6.29257 5.90773 7.46805 4.73201C8.64378 3.55628 10.2386 2.89457 11.9013 2.89453ZM11.9013 4.51282C10.6676 4.51285 9.48377 5.00302 8.61141 5.87538C7.73931 6.74772 7.24984 7.93173 7.24984 9.16526C7.24971 12.469 6.54014 14.6528 5.78558 16.0363C5.68499 16.2207 5.58335 16.3911 5.48345 16.5468H18.3191C18.2192 16.3911 18.1176 16.2208 18.017 16.0363C17.2624 14.6528 16.5529 12.4691 16.5528 9.16526C16.5528 7.9316 16.0625 6.74775 15.1902 5.87538C14.3179 5.00316 13.1349 4.51284 11.9013 4.51282Z" fill="black" fill-opacity="0.2"/>
<path fill-rule="evenodd" clip-rule="evenodd" d="M11.9013 2.89453C13.5641 2.89456 15.1588 3.55626 16.3345 4.73201C17.5101 5.90774 18.171 7.50267 18.171 9.16526C18.1712 12.2309 18.8264 14.1431 19.4368 15.2622C19.743 15.8234 20.0424 16.1938 20.2524 16.4155C20.3572 16.5261 20.441 16.6007 20.4923 16.6435L20.5447 16.685L20.5427 16.684C20.8384 16.8819 20.9697 17.2497 20.8665 17.5904C20.7631 17.9312 20.4486 18.165 20.0924 18.1651H3.71015C3.35395 18.165 3.03949 17.9312 2.93606 17.5904C2.83291 17.2498 2.9652 16.8819 3.2609 16.684L3.25794 16.685C3.2664 16.6787 3.28394 16.6647 3.30928 16.6435C3.36057 16.6008 3.44417 16.5263 3.54921 16.4155C3.75913 16.1939 4.05855 15.8235 4.36477 15.2622C4.97517 14.1431 5.63143 12.231 5.63155 9.16526C5.63155 7.5027 6.29257 5.90773 7.46805 4.73201C8.64378 3.55628 10.2386 2.89457 11.9013 2.89453ZM11.9013 4.51282C10.6676 4.51285 9.48377 5.00302 8.61141 5.87538C7.73931 6.74772 7.24984 7.93173 7.24984 9.16526C7.24971 12.469 6.54014 14.6528 5.78558 16.0363C5.68499 16.2207 5.58335 16.3911 5.48345 16.5468H18.3191C18.2192 16.3911 18.1176 16.2208 18.017 16.0363C17.2624 14.6528 16.5529 12.4691 16.5528 9.16526C16.5528 7.9316 16.0625 6.74775 15.1902 5.87538C14.3179 5.00316 13.1349 4.51284 11.9013 4.51282Z" fill="black" fill-opacity="0.2"/>
<path fill-rule="evenodd" clip-rule="evenodd" d="M11.9013 2.89453C13.5641 2.89456 15.1588 3.55626 16.3345 4.73201C17.5101 5.90774 18.171 7.50267 18.171 9.16526C18.1712 12.2309 18.8264 14.1431 19.4368 15.2622C19.743 15.8234 20.0424 16.1938 20.2524 16.4155C20.3572 16.5261 20.441 16.6007 20.4923 16.6435L20.5447 16.685L20.5427 16.684C20.8384 16.8819 20.9697 17.2497 20.8665 17.5904C20.7631 17.9312 20.4486 18.165 20.0924 18.1651H3.71015C3.35395 18.165 3.03949 17.9312 2.93606 17.5904C2.83291 17.2498 2.9652 16.8819 3.2609 16.684L3.25794 16.685C3.2664 16.6787 3.28394 16.6647 3.30928 16.6435C3.36057 16.6008 3.44417 16.5263 3.54921 16.4155C3.75913 16.1939 4.05855 15.8235 4.36477 15.2622C4.97517 14.1431 5.63143 12.231 5.63155 9.16526C5.63155 7.5027 6.29257 5.90773 7.46805 4.73201C8.64378 3.55628 10.2386 2.89457 11.9013 2.89453ZM11.9013 4.51282C10.6676 4.51285 9.48377 5.00302 8.61141 5.87538C7.73931 6.74772 7.24984 7.93173 7.24984 9.16526C7.24971 12.469 6.54014 14.6528 5.78558 16.0363C5.68499 16.2207 5.58335 16.3911 5.48345 16.5468H18.3191C18.2192 16.3911 18.1176 16.2208 18.017 16.0363C17.2624 14.6528 16.5529 12.4691 16.5528 9.16526C16.5528 7.9316 16.0625 6.74775 15.1902 5.87538C14.3179 5.00316 13.1349 4.51284 11.9013 4.51282Z" fill="black" fill-opacity="0.2"/>
</svg>
