<svg width="24" height="24" viewBox="0 0 24 24" fill="none" xmlns="http://www.w3.org/2000/svg">
<g opacity="0.9">
<path fill-rule="evenodd" clip-rule="evenodd" d="M14.5357 4.48665C15.0491 4.48665 15.4652 4.90308 15.4654 5.41637C15.4654 5.92984 15.0492 6.3461 14.5357 6.3461H7.18781C6.84576 6.34625 6.56791 6.62417 6.56769 6.96621V17.8124C6.56769 18.044 6.69632 18.2443 6.88456 18.3508L15.0532 10.183L15.1213 10.1213C15.2867 9.98579 15.4949 9.91064 15.7106 9.91064C15.957 9.91072 16.1936 10.0087 16.3679 10.183L18.6541 12.4692V10.5417C18.6545 10.0286 19.0707 9.61208 19.5838 9.61193C20.097 9.61193 20.5131 10.0285 20.5135 10.5417V17.8124C20.5135 19.1816 19.4032 20.2919 18.034 20.2919H16.2263L5.92942 23.0511C4.60704 23.4055 3.24705 22.621 2.89238 21.2988L0.0850555 10.8213C-0.268891 9.50035 0.514136 8.14254 1.83373 7.78608L4.58568 7.03249C4.62636 7.02138 4.66756 7.01436 4.70825 7.00889V6.96621C4.70846 5.59723 5.81882 4.4868 7.18781 4.48665H14.5357ZM2.32402 9.57924L2.31948 9.58015C1.98903 9.66889 1.79238 10.0096 1.88095 10.3401L4.68918 20.8167C4.77794 21.1471 5.11769 21.3429 5.44821 21.2543L9.0409 20.2919H7.18781C7.15505 20.2919 7.12237 20.2899 7.08976 20.2865C5.76614 20.2348 4.70825 19.1487 4.70825 17.8124V8.92644L2.32402 9.57924ZM9.43313 18.4325H15.9966C16.1115 18.4111 16.2257 18.412 16.3352 18.4325H18.034C18.3763 18.4325 18.6541 18.1547 18.6541 17.8124V15.0995L15.7097 12.155L9.43313 18.4325Z" fill="#1D1A24"/>
<path fill-rule="evenodd" clip-rule="evenodd" d="M14.5357 4.48665C15.0491 4.48665 15.4652 4.90308 15.4654 5.41637C15.4654 5.92984 15.0492 6.3461 14.5357 6.3461H7.18781C6.84576 6.34625 6.56791 6.62417 6.56769 6.96621V17.8124C6.56769 18.044 6.69632 18.2443 6.88456 18.3508L15.0532 10.183L15.1213 10.1213C15.2867 9.98579 15.4949 9.91064 15.7106 9.91064C15.957 9.91072 16.1936 10.0087 16.3679 10.183L18.6541 12.4692V10.5417C18.6545 10.0286 19.0707 9.61208 19.5838 9.61193C20.097 9.61193 20.5131 10.0285 20.5135 10.5417V17.8124C20.5135 19.1816 19.4032 20.2919 18.034 20.2919H16.2263L5.92942 23.0511C4.60704 23.4055 3.24705 22.621 2.89238 21.2988L0.0850555 10.8213C-0.268891 9.50035 0.514136 8.14254 1.83373 7.78608L4.58568 7.03249C4.62636 7.02138 4.66756 7.01436 4.70825 7.00889V6.96621C4.70846 5.59723 5.81882 4.4868 7.18781 4.48665H14.5357ZM2.32402 9.57924L2.31948 9.58015C1.98903 9.66889 1.79238 10.0096 1.88095 10.3401L4.68918 20.8167C4.77794 21.1471 5.11769 21.3429 5.44821 21.2543L9.0409 20.2919H7.18781C7.15505 20.2919 7.12237 20.2899 7.08976 20.2865C5.76614 20.2348 4.70825 19.1487 4.70825 17.8124V8.92644L2.32402 9.57924ZM9.43313 18.4325H15.9966C16.1115 18.4111 16.2257 18.412 16.3352 18.4325H18.034C18.3763 18.4325 18.6541 18.1547 18.6541 17.8124V15.0995L15.7097 12.155L9.43313 18.4325Z" fill="black" fill-opacity="0.2"/>
<path fill-rule="evenodd" clip-rule="evenodd" d="M14.5357 4.48665C15.0491 4.48665 15.4652 4.90308 15.4654 5.41637C15.4654 5.92984 15.0492 6.3461 14.5357 6.3461H7.18781C6.84576 6.34625 6.56791 6.62417 6.56769 6.96621V17.8124C6.56769 18.044 6.69632 18.2443 6.88456 18.3508L15.0532 10.183L15.1213 10.1213C15.2867 9.98579 15.4949 9.91064 15.7106 9.91064C15.957 9.91072 16.1936 10.0087 16.3679 10.183L18.6541 12.4692V10.5417C18.6545 10.0286 19.0707 9.61208 19.5838 9.61193C20.097 9.61193 20.5131 10.0285 20.5135 10.5417V17.8124C20.5135 19.1816 19.4032 20.2919 18.034 20.2919H16.2263L5.92942 23.0511C4.60704 23.4055 3.24705 22.621 2.89238 21.2988L0.0850555 10.8213C-0.268891 9.50035 0.514136 8.14254 1.83373 7.78608L4.58568 7.03249C4.62636 7.02138 4.66756 7.01436 4.70825 7.00889V6.96621C4.70846 5.59723 5.81882 4.4868 7.18781 4.48665H14.5357ZM2.32402 9.57924L2.31948 9.58015C1.98903 9.66889 1.79238 10.0096 1.88095 10.3401L4.68918 20.8167C4.77794 21.1471 5.11769 21.3429 5.44821 21.2543L9.0409 20.2919H7.18781C7.15505 20.2919 7.12237 20.2899 7.08976 20.2865C5.76614 20.2348 4.70825 19.1487 4.70825 17.8124V8.92644L2.32402 9.57924ZM9.43313 18.4325H15.9966C16.1115 18.4111 16.2257 18.412 16.3352 18.4325H18.034C18.3763 18.4325 18.6541 18.1547 18.6541 17.8124V15.0995L15.7097 12.155L9.43313 18.4325Z" fill="black" fill-opacity="0.2"/>
<path fill-rule="evenodd" clip-rule="evenodd" d="M14.5357 4.48665C15.0491 4.48665 15.4652 4.90308 15.4654 5.41637C15.4654 5.92984 15.0492 6.3461 14.5357 6.3461H7.18781C6.84576 6.34625 6.56791 6.62417 6.56769 6.96621V17.8124C6.56769 18.044 6.69632 18.2443 6.88456 18.3508L15.0532 10.183L15.1213 10.1213C15.2867 9.98579 15.4949 9.91064 15.7106 9.91064C15.957 9.91072 16.1936 10.0087 16.3679 10.183L18.6541 12.4692V10.5417C18.6545 10.0286 19.0707 9.61208 19.5838 9.61193C20.097 9.61193 20.5131 10.0285 20.5135 10.5417V17.8124C20.5135 19.1816 19.4032 20.2919 18.034 20.2919H16.2263L5.92942 23.0511C4.60704 23.4055 3.24705 22.621 2.89238 21.2988L0.0850555 10.8213C-0.268891 9.50035 0.514136 8.14254 1.83373 7.78608L4.58568 7.03249C4.62636 7.02138 4.66756 7.01436 4.70825 7.00889V6.96621C4.70846 5.59723 5.81882 4.4868 7.18781 4.48665H14.5357ZM2.32402 9.57924L2.31948 9.58015C1.98903 9.66889 1.79238 10.0096 1.88095 10.3401L4.68918 20.8167C4.77794 21.1471 5.11769 21.3429 5.44821 21.2543L9.0409 20.2919H7.18781C7.15505 20.2919 7.12237 20.2899 7.08976 20.2865C5.76614 20.2348 4.70825 19.1487 4.70825 17.8124V8.92644L2.32402 9.57924ZM9.43313 18.4325H15.9966C16.1115 18.4111 16.2257 18.412 16.3352 18.4325H18.034C18.3763 18.4325 18.6541 18.1547 18.6541 17.8124V15.0995L15.7097 12.155L9.43313 18.4325Z" fill="black" fill-opacity="0.2"/>
<path fill-rule="evenodd" clip-rule="evenodd" d="M14.5357 4.48665C15.0491 4.48665 15.4652 4.90308 15.4654 5.41637C15.4654 5.92984 15.0492 6.3461 14.5357 6.3461H7.18781C6.84576 6.34625 6.56791 6.62417 6.56769 6.96621V17.8124C6.56769 18.044 6.69632 18.2443 6.88456 18.3508L15.0532 10.183L15.1213 10.1213C15.2867 9.98579 15.4949 9.91064 15.7106 9.91064C15.957 9.91072 16.1936 10.0087 16.3679 10.183L18.6541 12.4692V10.5417C18.6545 10.0286 19.0707 9.61208 19.5838 9.61193C20.097 9.61193 20.5131 10.0285 20.5135 10.5417V17.8124C20.5135 19.1816 19.4032 20.2919 18.034 20.2919H16.2263L5.92942 23.0511C4.60704 23.4055 3.24705 22.621 2.89238 21.2988L0.0850555 10.8213C-0.268891 9.50035 0.514136 8.14254 1.83373 7.78608L4.58568 7.03249C4.62636 7.02138 4.66756 7.01436 4.70825 7.00889V6.96621C4.70846 5.59723 5.81882 4.4868 7.18781 4.48665H14.5357ZM2.32402 9.57924L2.31948 9.58015C1.98903 9.66889 1.79238 10.0096 1.88095 10.3401L4.68918 20.8167C4.77794 21.1471 5.11769 21.3429 5.44821 21.2543L9.0409 20.2919H7.18781C7.15505 20.2919 7.12237 20.2899 7.08976 20.2865C5.76614 20.2348 4.70825 19.1487 4.70825 17.8124V8.92644L2.32402 9.57924ZM9.43313 18.4325H15.9966C16.1115 18.4111 16.2257 18.412 16.3352 18.4325H18.034C18.3763 18.4325 18.6541 18.1547 18.6541 17.8124V15.0995L15.7097 12.155L9.43313 18.4325Z" fill="black" fill-opacity="0.2"/>
<path fill-rule="evenodd" clip-rule="evenodd" d="M14.5357 4.48665C15.0491 4.48665 15.4652 4.90308 15.4654 5.41637C15.4654 5.92984 15.0492 6.3461 14.5357 6.3461H7.18781C6.84576 6.34625 6.56791 6.62417 6.56769 6.96621V17.8124C6.56769 18.044 6.69632 18.2443 6.88456 18.3508L15.0532 10.183L15.1213 10.1213C15.2867 9.98579 15.4949 9.91064 15.7106 9.91064C15.957 9.91072 16.1936 10.0087 16.3679 10.183L18.6541 12.4692V10.5417C18.6545 10.0286 19.0707 9.61208 19.5838 9.61193C20.097 9.61193 20.5131 10.0285 20.5135 10.5417V17.8124C20.5135 19.1816 19.4032 20.2919 18.034 20.2919H16.2263L5.92942 23.0511C4.60704 23.4055 3.24705 22.621 2.89238 21.2988L0.0850555 10.8213C-0.268891 9.50035 0.514136 8.14254 1.83373 7.78608L4.58568 7.03249C4.62636 7.02138 4.66756 7.01436 4.70825 7.00889V6.96621C4.70846 5.59723 5.81882 4.4868 7.18781 4.48665H14.5357ZM2.32402 9.57924L2.31948 9.58015C1.98903 9.66889 1.79238 10.0096 1.88095 10.3401L4.68918 20.8167C4.77794 21.1471 5.11769 21.3429 5.44821 21.2543L9.0409 20.2919H7.18781C7.15505 20.2919 7.12237 20.2899 7.08976 20.2865C5.76614 20.2348 4.70825 19.1487 4.70825 17.8124V8.92644L2.32402 9.57924ZM9.43313 18.4325H15.9966C16.1115 18.4111 16.2257 18.412 16.3352 18.4325H18.034C18.3763 18.4325 18.6541 18.1547 18.6541 17.8124V15.0995L15.7097 12.155L9.43313 18.4325Z" fill="black" fill-opacity="0.2"/>
<path fill-rule="evenodd" clip-rule="evenodd" d="M9.89981 8.05119C10.7982 8.05137 11.5268 8.77974 11.5268 9.67821C11.5267 10.5765 10.7981 11.305 9.89981 11.3052C9.00133 11.3052 8.27294 10.5767 8.27279 9.67821C8.27279 8.77963 9.00123 8.05119 9.89981 8.05119ZM9.89981 8.98092C9.5147 8.98092 9.20252 9.2931 9.20252 9.67821C9.20267 10.0632 9.5148 10.3755 9.89981 10.3755C10.2847 10.3753 10.5969 10.0631 10.5971 9.67821C10.5971 9.29321 10.2848 8.98109 9.89981 8.98092Z" fill="#1D1A24"/>
<path fill-rule="evenodd" clip-rule="evenodd" d="M9.89981 8.05119C10.7982 8.05137 11.5268 8.77974 11.5268 9.67821C11.5267 10.5765 10.7981 11.305 9.89981 11.3052C9.00133 11.3052 8.27294 10.5767 8.27279 9.67821C8.27279 8.77963 9.00123 8.05119 9.89981 8.05119ZM9.89981 8.98092C9.5147 8.98092 9.20252 9.2931 9.20252 9.67821C9.20267 10.0632 9.5148 10.3755 9.89981 10.3755C10.2847 10.3753 10.5969 10.0631 10.5971 9.67821C10.5971 9.29321 10.2848 8.98109 9.89981 8.98092Z" fill="black" fill-opacity="0.2"/>
<path fill-rule="evenodd" clip-rule="evenodd" d="M9.89981 8.05119C10.7982 8.05137 11.5268 8.77974 11.5268 9.67821C11.5267 10.5765 10.7981 11.305 9.89981 11.3052C9.00133 11.3052 8.27294 10.5767 8.27279 9.67821C8.27279 8.77963 9.00123 8.05119 9.89981 8.05119ZM9.89981 8.98092C9.5147 8.98092 9.20252 9.2931 9.20252 9.67821C9.20267 10.0632 9.5148 10.3755 9.89981 10.3755C10.2847 10.3753 10.5969 10.0631 10.5971 9.67821C10.5971 9.29321 10.2848 8.98109 9.89981 8.98092Z" fill="black" fill-opacity="0.2"/>
<path fill-rule="evenodd" clip-rule="evenodd" d="M9.89981 8.05119C10.7982 8.05137 11.5268 8.77974 11.5268 9.67821C11.5267 10.5765 10.7981 11.305 9.89981 11.3052C9.00133 11.3052 8.27294 10.5767 8.27279 9.67821C8.27279 8.77963 9.00123 8.05119 9.89981 8.05119ZM9.89981 8.98092C9.5147 8.98092 9.20252 9.2931 9.20252 9.67821C9.20267 10.0632 9.5148 10.3755 9.89981 10.3755C10.2847 10.3753 10.5969 10.0631 10.5971 9.67821C10.5971 9.29321 10.2848 8.98109 9.89981 8.98092Z" fill="black" fill-opacity="0.2"/>
<path fill-rule="evenodd" clip-rule="evenodd" d="M9.89981 8.05119C10.7982 8.05137 11.5268 8.77974 11.5268 9.67821C11.5267 10.5765 10.7981 11.305 9.89981 11.3052C9.00133 11.3052 8.27294 10.5767 8.27279 9.67821C8.27279 8.77963 9.00123 8.05119 9.89981 8.05119ZM9.89981 8.98092C9.5147 8.98092 9.20252 9.2931 9.20252 9.67821C9.20267 10.0632 9.5148 10.3755 9.89981 10.3755C10.2847 10.3753 10.5969 10.0631 10.5971 9.67821C10.5971 9.29321 10.2848 8.98109 9.89981 8.98092Z" fill="black" fill-opacity="0.2"/>
<path fill-rule="evenodd" clip-rule="evenodd" d="M9.89981 8.05119C10.7982 8.05137 11.5268 8.77974 11.5268 9.67821C11.5267 10.5765 10.7981 11.305 9.89981 11.3052C9.00133 11.3052 8.27294 10.5767 8.27279 9.67821C8.27279 8.77963 9.00123 8.05119 9.89981 8.05119ZM9.89981 8.98092C9.5147 8.98092 9.20252 9.2931 9.20252 9.67821C9.20267 10.0632 9.5148 10.3755 9.89981 10.3755C10.2847 10.3753 10.5969 10.0631 10.5971 9.67821C10.5971 9.29321 10.2848 8.98109 9.89981 8.98092Z" fill="black" fill-opacity="0.2"/>
<path fill-rule="evenodd" clip-rule="evenodd" d="M20 0.999023C22.209 0.999235 23.9998 2.79105 24 5C23.9998 7.20895 22.209 8.99979 20 9C17.791 8.99979 15.9992 7.20895 15.999 5C15.9992 2.79105 17.791 0.999235 20 0.999023ZM20 2.74609C19.7455 2.74609 19.5392 2.95252 19.5391 3.20703V4.53906H18.207C17.9525 4.53917 17.7461 4.74546 17.7461 5C17.7461 5.25454 17.9525 5.46083 18.207 5.46094H19.5391V6.79297C19.5392 7.04748 19.7455 7.25391 20 7.25391C20.2545 7.25391 20.4608 7.04748 20.4609 6.79297V5.46094H21.793C22.0475 5.46083 22.2539 5.25454 22.2539 5C22.2539 4.74546 22.0475 4.53917 21.793 4.53906H20.4609V3.20703C20.4608 2.95252 20.2545 2.74609 20 2.74609Z" fill="#1D1A24"/>
<path fill-rule="evenodd" clip-rule="evenodd" d="M20 0.999023C22.209 0.999235 23.9998 2.79105 24 5C23.9998 7.20895 22.209 8.99979 20 9C17.791 8.99979 15.9992 7.20895 15.999 5C15.9992 2.79105 17.791 0.999235 20 0.999023ZM20 2.74609C19.7455 2.74609 19.5392 2.95252 19.5391 3.20703V4.53906H18.207C17.9525 4.53917 17.7461 4.74546 17.7461 5C17.7461 5.25454 17.9525 5.46083 18.207 5.46094H19.5391V6.79297C19.5392 7.04748 19.7455 7.25391 20 7.25391C20.2545 7.25391 20.4608 7.04748 20.4609 6.79297V5.46094H21.793C22.0475 5.46083 22.2539 5.25454 22.2539 5C22.2539 4.74546 22.0475 4.53917 21.793 4.53906H20.4609V3.20703C20.4608 2.95252 20.2545 2.74609 20 2.74609Z" fill="black" fill-opacity="0.2"/>
<path fill-rule="evenodd" clip-rule="evenodd" d="M20 0.999023C22.209 0.999235 23.9998 2.79105 24 5C23.9998 7.20895 22.209 8.99979 20 9C17.791 8.99979 15.9992 7.20895 15.999 5C15.9992 2.79105 17.791 0.999235 20 0.999023ZM20 2.74609C19.7455 2.74609 19.5392 2.95252 19.5391 3.20703V4.53906H18.207C17.9525 4.53917 17.7461 4.74546 17.7461 5C17.7461 5.25454 17.9525 5.46083 18.207 5.46094H19.5391V6.79297C19.5392 7.04748 19.7455 7.25391 20 7.25391C20.2545 7.25391 20.4608 7.04748 20.4609 6.79297V5.46094H21.793C22.0475 5.46083 22.2539 5.25454 22.2539 5C22.2539 4.74546 22.0475 4.53917 21.793 4.53906H20.4609V3.20703C20.4608 2.95252 20.2545 2.74609 20 2.74609Z" fill="black" fill-opacity="0.2"/>
<path fill-rule="evenodd" clip-rule="evenodd" d="M20 0.999023C22.209 0.999235 23.9998 2.79105 24 5C23.9998 7.20895 22.209 8.99979 20 9C17.791 8.99979 15.9992 7.20895 15.999 5C15.9992 2.79105 17.791 0.999235 20 0.999023ZM20 2.74609C19.7455 2.74609 19.5392 2.95252 19.5391 3.20703V4.53906H18.207C17.9525 4.53917 17.7461 4.74546 17.7461 5C17.7461 5.25454 17.9525 5.46083 18.207 5.46094H19.5391V6.79297C19.5392 7.04748 19.7455 7.25391 20 7.25391C20.2545 7.25391 20.4608 7.04748 20.4609 6.79297V5.46094H21.793C22.0475 5.46083 22.2539 5.25454 22.2539 5C22.2539 4.74546 22.0475 4.53917 21.793 4.53906H20.4609V3.20703C20.4608 2.95252 20.2545 2.74609 20 2.74609Z" fill="black" fill-opacity="0.2"/>
<path fill-rule="evenodd" clip-rule="evenodd" d="M20 0.999023C22.209 0.999235 23.9998 2.79105 24 5C23.9998 7.20895 22.209 8.99979 20 9C17.791 8.99979 15.9992 7.20895 15.999 5C15.9992 2.79105 17.791 0.999235 20 0.999023ZM20 2.74609C19.7455 2.74609 19.5392 2.95252 19.5391 3.20703V4.53906H18.207C17.9525 4.53917 17.7461 4.74546 17.7461 5C17.7461 5.25454 17.9525 5.46083 18.207 5.46094H19.5391V6.79297C19.5392 7.04748 19.7455 7.25391 20 7.25391C20.2545 7.25391 20.4608 7.04748 20.4609 6.79297V5.46094H21.793C22.0475 5.46083 22.2539 5.25454 22.2539 5C22.2539 4.74546 22.0475 4.53917 21.793 4.53906H20.4609V3.20703C20.4608 2.95252 20.2545 2.74609 20 2.74609Z" fill="black" fill-opacity="0.2"/>
<path fill-rule="evenodd" clip-rule="evenodd" d="M20 0.999023C22.209 0.999235 23.9998 2.79105 24 5C23.9998 7.20895 22.209 8.99979 20 9C17.791 8.99979 15.9992 7.20895 15.999 5C15.9992 2.79105 17.791 0.999235 20 0.999023ZM20 2.74609C19.7455 2.74609 19.5392 2.95252 19.5391 3.20703V4.53906H18.207C17.9525 4.53917 17.7461 4.74546 17.7461 5C17.7461 5.25454 17.9525 5.46083 18.207 5.46094H19.5391V6.79297C19.5392 7.04748 19.7455 7.25391 20 7.25391C20.2545 7.25391 20.4608 7.04748 20.4609 6.79297V5.46094H21.793C22.0475 5.46083 22.2539 5.25454 22.2539 5C22.2539 4.74546 22.0475 4.53917 21.793 4.53906H20.4609V3.20703C20.4608 2.95252 20.2545 2.74609 20 2.74609Z" fill="black" fill-opacity="0.2"/>
</g>
</svg>
