<svg width="24" height="24" viewBox="0 0 24 24" fill="none" xmlns="http://www.w3.org/2000/svg">
<path fill-rule="evenodd" clip-rule="evenodd" d="M12.167 8.88472C14.6385 8.88486 16.643 10.8884 16.6432 13.3599C16.6432 15.8315 14.6386 17.8359 12.167 17.836C9.69542 17.8358 7.69186 15.8315 7.69186 13.3599C7.69204 10.8884 9.69553 8.8849 12.167 8.88472ZM12.167 10.9503C10.8363 10.9505 9.75765 12.0292 9.75747 13.3599C9.75747 14.6907 10.8362 15.7702 12.167 15.7704C13.4978 15.7703 14.5776 14.6907 14.5776 13.3599C14.5774 12.0292 13.4977 10.9505 12.167 10.9503Z" fill="#1D1A24"/>
<path fill-rule="evenodd" clip-rule="evenodd" d="M12.167 8.88472C14.6385 8.88486 16.643 10.8884 16.6432 13.3599C16.6432 15.8315 14.6386 17.8359 12.167 17.836C9.69542 17.8358 7.69186 15.8315 7.69186 13.3599C7.69204 10.8884 9.69553 8.8849 12.167 8.88472ZM12.167 10.9503C10.8363 10.9505 9.75765 12.0292 9.75747 13.3599C9.75747 14.6907 10.8362 15.7702 12.167 15.7704C13.4978 15.7703 14.5776 14.6907 14.5776 13.3599C14.5774 12.0292 13.4977 10.9505 12.167 10.9503Z" fill="black" fill-opacity="0.2"/>
<path fill-rule="evenodd" clip-rule="evenodd" d="M12.167 8.88472C14.6385 8.88486 16.643 10.8884 16.6432 13.3599C16.6432 15.8315 14.6386 17.8359 12.167 17.836C9.69542 17.8358 7.69186 15.8315 7.69186 13.3599C7.69204 10.8884 9.69553 8.8849 12.167 8.88472ZM12.167 10.9503C10.8363 10.9505 9.75765 12.0292 9.75747 13.3599C9.75747 14.6907 10.8362 15.7702 12.167 15.7704C13.4978 15.7703 14.5776 14.6907 14.5776 13.3599C14.5774 12.0292 13.4977 10.9505 12.167 10.9503Z" fill="black" fill-opacity="0.2"/>
<path fill-rule="evenodd" clip-rule="evenodd" d="M12.167 8.88472C14.6385 8.88486 16.643 10.8884 16.6432 13.3599C16.6432 15.8315 14.6386 17.8359 12.167 17.836C9.69542 17.8358 7.69186 15.8315 7.69186 13.3599C7.69204 10.8884 9.69553 8.8849 12.167 8.88472ZM12.167 10.9503C10.8363 10.9505 9.75765 12.0292 9.75747 13.3599C9.75747 14.6907 10.8362 15.7702 12.167 15.7704C13.4978 15.7703 14.5776 14.6907 14.5776 13.3599C14.5774 12.0292 13.4977 10.9505 12.167 10.9503Z" fill="black" fill-opacity="0.2"/>
<path fill-rule="evenodd" clip-rule="evenodd" d="M12.167 8.88472C14.6385 8.88486 16.643 10.8884 16.6432 13.3599C16.6432 15.8315 14.6386 17.8359 12.167 17.836C9.69542 17.8358 7.69186 15.8315 7.69186 13.3599C7.69204 10.8884 9.69553 8.8849 12.167 8.88472ZM12.167 10.9503C10.8363 10.9505 9.75765 12.0292 9.75747 13.3599C9.75747 14.6907 10.8362 15.7702 12.167 15.7704C13.4978 15.7703 14.5776 14.6907 14.5776 13.3599C14.5774 12.0292 13.4977 10.9505 12.167 10.9503Z" fill="black" fill-opacity="0.2"/>
<path fill-rule="evenodd" clip-rule="evenodd" d="M12.167 8.88472C14.6385 8.88486 16.643 10.8884 16.6432 13.3599C16.6432 15.8315 14.6386 17.8359 12.167 17.836C9.69542 17.8358 7.69186 15.8315 7.69186 13.3599C7.69204 10.8884 9.69553 8.8849 12.167 8.88472ZM12.167 10.9503C10.8363 10.9505 9.75765 12.0292 9.75747 13.3599C9.75747 14.6907 10.8362 15.7702 12.167 15.7704C13.4978 15.7703 14.5776 14.6907 14.5776 13.3599C14.5774 12.0292 13.4977 10.9505 12.167 10.9503Z" fill="black" fill-opacity="0.2"/>
<path fill-rule="evenodd" clip-rule="evenodd" d="M14.8771 3.72877C15.1727 3.76578 15.4408 3.92934 15.6083 4.18062L17.0224 6.30271H19.913C20.6433 6.3028 21.3442 6.59325 21.8606 7.10959C22.3769 7.62606 22.6665 8.32691 22.6665 9.05719V18.5239C22.6665 19.2542 22.3769 19.955 21.8606 20.4715C21.3442 20.9878 20.6433 21.2783 19.913 21.2784H4.42098C3.69063 21.2783 2.98982 20.9879 2.47338 20.4715C1.95696 19.955 1.6665 19.2543 1.6665 18.5239V9.05719C1.6665 8.32681 1.95696 7.62608 2.47338 7.10959C2.98982 6.59315 3.69063 6.30278 4.42098 6.30271H7.31061L8.72568 4.18062L8.80334 4.07876C8.99805 3.85324 9.28289 3.72078 9.585 3.7207H14.749L14.8771 3.72877ZM8.72265 7.9084C8.53109 8.19565 8.2086 8.36832 7.86332 8.36832H4.42098C4.23846 8.36839 4.0629 8.44097 3.93383 8.57004C3.80478 8.69915 3.73211 8.87464 3.73211 9.05719V18.5239C3.73211 18.7064 3.80478 18.8819 3.93383 19.011C4.0629 19.1401 4.23846 19.2127 4.42098 19.2128H19.913C20.0954 19.2127 20.2702 19.1399 20.3992 19.011C20.5283 18.8819 20.6009 18.7065 20.6009 18.5239V9.05719C20.6009 8.87458 20.5283 8.69916 20.3992 8.57004C20.2702 8.44118 20.0954 8.36841 19.913 8.36832H16.4697C16.1246 8.36812 15.8018 8.19556 15.6104 7.9084L14.1963 5.78631H10.1377L8.72265 7.9084Z" fill="#1D1A24"/>
<path fill-rule="evenodd" clip-rule="evenodd" d="M14.8771 3.72877C15.1727 3.76578 15.4408 3.92934 15.6083 4.18062L17.0224 6.30271H19.913C20.6433 6.3028 21.3442 6.59325 21.8606 7.10959C22.3769 7.62606 22.6665 8.32691 22.6665 9.05719V18.5239C22.6665 19.2542 22.3769 19.955 21.8606 20.4715C21.3442 20.9878 20.6433 21.2783 19.913 21.2784H4.42098C3.69063 21.2783 2.98982 20.9879 2.47338 20.4715C1.95696 19.955 1.6665 19.2543 1.6665 18.5239V9.05719C1.6665 8.32681 1.95696 7.62608 2.47338 7.10959C2.98982 6.59315 3.69063 6.30278 4.42098 6.30271H7.31061L8.72568 4.18062L8.80334 4.07876C8.99805 3.85324 9.28289 3.72078 9.585 3.7207H14.749L14.8771 3.72877ZM8.72265 7.9084C8.53109 8.19565 8.2086 8.36832 7.86332 8.36832H4.42098C4.23846 8.36839 4.0629 8.44097 3.93383 8.57004C3.80478 8.69915 3.73211 8.87464 3.73211 9.05719V18.5239C3.73211 18.7064 3.80478 18.8819 3.93383 19.011C4.0629 19.1401 4.23846 19.2127 4.42098 19.2128H19.913C20.0954 19.2127 20.2702 19.1399 20.3992 19.011C20.5283 18.8819 20.6009 18.7065 20.6009 18.5239V9.05719C20.6009 8.87458 20.5283 8.69916 20.3992 8.57004C20.2702 8.44118 20.0954 8.36841 19.913 8.36832H16.4697C16.1246 8.36812 15.8018 8.19556 15.6104 7.9084L14.1963 5.78631H10.1377L8.72265 7.9084Z" fill="black" fill-opacity="0.2"/>
<path fill-rule="evenodd" clip-rule="evenodd" d="M14.8771 3.72877C15.1727 3.76578 15.4408 3.92934 15.6083 4.18062L17.0224 6.30271H19.913C20.6433 6.3028 21.3442 6.59325 21.8606 7.10959C22.3769 7.62606 22.6665 8.32691 22.6665 9.05719V18.5239C22.6665 19.2542 22.3769 19.955 21.8606 20.4715C21.3442 20.9878 20.6433 21.2783 19.913 21.2784H4.42098C3.69063 21.2783 2.98982 20.9879 2.47338 20.4715C1.95696 19.955 1.6665 19.2543 1.6665 18.5239V9.05719C1.6665 8.32681 1.95696 7.62608 2.47338 7.10959C2.98982 6.59315 3.69063 6.30278 4.42098 6.30271H7.31061L8.72568 4.18062L8.80334 4.07876C8.99805 3.85324 9.28289 3.72078 9.585 3.7207H14.749L14.8771 3.72877ZM8.72265 7.9084C8.53109 8.19565 8.2086 8.36832 7.86332 8.36832H4.42098C4.23846 8.36839 4.0629 8.44097 3.93383 8.57004C3.80478 8.69915 3.73211 8.87464 3.73211 9.05719V18.5239C3.73211 18.7064 3.80478 18.8819 3.93383 19.011C4.0629 19.1401 4.23846 19.2127 4.42098 19.2128H19.913C20.0954 19.2127 20.2702 19.1399 20.3992 19.011C20.5283 18.8819 20.6009 18.7065 20.6009 18.5239V9.05719C20.6009 8.87458 20.5283 8.69916 20.3992 8.57004C20.2702 8.44118 20.0954 8.36841 19.913 8.36832H16.4697C16.1246 8.36812 15.8018 8.19556 15.6104 7.9084L14.1963 5.78631H10.1377L8.72265 7.9084Z" fill="black" fill-opacity="0.2"/>
<path fill-rule="evenodd" clip-rule="evenodd" d="M14.8771 3.72877C15.1727 3.76578 15.4408 3.92934 15.6083 4.18062L17.0224 6.30271H19.913C20.6433 6.3028 21.3442 6.59325 21.8606 7.10959C22.3769 7.62606 22.6665 8.32691 22.6665 9.05719V18.5239C22.6665 19.2542 22.3769 19.955 21.8606 20.4715C21.3442 20.9878 20.6433 21.2783 19.913 21.2784H4.42098C3.69063 21.2783 2.98982 20.9879 2.47338 20.4715C1.95696 19.955 1.6665 19.2543 1.6665 18.5239V9.05719C1.6665 8.32681 1.95696 7.62608 2.47338 7.10959C2.98982 6.59315 3.69063 6.30278 4.42098 6.30271H7.31061L8.72568 4.18062L8.80334 4.07876C8.99805 3.85324 9.28289 3.72078 9.585 3.7207H14.749L14.8771 3.72877ZM8.72265 7.9084C8.53109 8.19565 8.2086 8.36832 7.86332 8.36832H4.42098C4.23846 8.36839 4.0629 8.44097 3.93383 8.57004C3.80478 8.69915 3.73211 8.87464 3.73211 9.05719V18.5239C3.73211 18.7064 3.80478 18.8819 3.93383 19.011C4.0629 19.1401 4.23846 19.2127 4.42098 19.2128H19.913C20.0954 19.2127 20.2702 19.1399 20.3992 19.011C20.5283 18.8819 20.6009 18.7065 20.6009 18.5239V9.05719C20.6009 8.87458 20.5283 8.69916 20.3992 8.57004C20.2702 8.44118 20.0954 8.36841 19.913 8.36832H16.4697C16.1246 8.36812 15.8018 8.19556 15.6104 7.9084L14.1963 5.78631H10.1377L8.72265 7.9084Z" fill="black" fill-opacity="0.2"/>
<path fill-rule="evenodd" clip-rule="evenodd" d="M14.8771 3.72877C15.1727 3.76578 15.4408 3.92934 15.6083 4.18062L17.0224 6.30271H19.913C20.6433 6.3028 21.3442 6.59325 21.8606 7.10959C22.3769 7.62606 22.6665 8.32691 22.6665 9.05719V18.5239C22.6665 19.2542 22.3769 19.955 21.8606 20.4715C21.3442 20.9878 20.6433 21.2783 19.913 21.2784H4.42098C3.69063 21.2783 2.98982 20.9879 2.47338 20.4715C1.95696 19.955 1.6665 19.2543 1.6665 18.5239V9.05719C1.6665 8.32681 1.95696 7.62608 2.47338 7.10959C2.98982 6.59315 3.69063 6.30278 4.42098 6.30271H7.31061L8.72568 4.18062L8.80334 4.07876C8.99805 3.85324 9.28289 3.72078 9.585 3.7207H14.749L14.8771 3.72877ZM8.72265 7.9084C8.53109 8.19565 8.2086 8.36832 7.86332 8.36832H4.42098C4.23846 8.36839 4.0629 8.44097 3.93383 8.57004C3.80478 8.69915 3.73211 8.87464 3.73211 9.05719V18.5239C3.73211 18.7064 3.80478 18.8819 3.93383 19.011C4.0629 19.1401 4.23846 19.2127 4.42098 19.2128H19.913C20.0954 19.2127 20.2702 19.1399 20.3992 19.011C20.5283 18.8819 20.6009 18.7065 20.6009 18.5239V9.05719C20.6009 8.87458 20.5283 8.69916 20.3992 8.57004C20.2702 8.44118 20.0954 8.36841 19.913 8.36832H16.4697C16.1246 8.36812 15.8018 8.19556 15.6104 7.9084L14.1963 5.78631H10.1377L8.72265 7.9084Z" fill="black" fill-opacity="0.2"/>
<path fill-rule="evenodd" clip-rule="evenodd" d="M14.8771 3.72877C15.1727 3.76578 15.4408 3.92934 15.6083 4.18062L17.0224 6.30271H19.913C20.6433 6.3028 21.3442 6.59325 21.8606 7.10959C22.3769 7.62606 22.6665 8.32691 22.6665 9.05719V18.5239C22.6665 19.2542 22.3769 19.955 21.8606 20.4715C21.3442 20.9878 20.6433 21.2783 19.913 21.2784H4.42098C3.69063 21.2783 2.98982 20.9879 2.47338 20.4715C1.95696 19.955 1.6665 19.2543 1.6665 18.5239V9.05719C1.6665 8.32681 1.95696 7.62608 2.47338 7.10959C2.98982 6.59315 3.69063 6.30278 4.42098 6.30271H7.31061L8.72568 4.18062L8.80334 4.07876C8.99805 3.85324 9.28289 3.72078 9.585 3.7207H14.749L14.8771 3.72877ZM8.72265 7.9084C8.53109 8.19565 8.2086 8.36832 7.86332 8.36832H4.42098C4.23846 8.36839 4.0629 8.44097 3.93383 8.57004C3.80478 8.69915 3.73211 8.87464 3.73211 9.05719V18.5239C3.73211 18.7064 3.80478 18.8819 3.93383 19.011C4.0629 19.1401 4.23846 19.2127 4.42098 19.2128H19.913C20.0954 19.2127 20.2702 19.1399 20.3992 19.011C20.5283 18.8819 20.6009 18.7065 20.6009 18.5239V9.05719C20.6009 8.87458 20.5283 8.69916 20.3992 8.57004C20.2702 8.44118 20.0954 8.36841 19.913 8.36832H16.4697C16.1246 8.36812 15.8018 8.19556 15.6104 7.9084L14.1963 5.78631H10.1377L8.72265 7.9084Z" fill="black" fill-opacity="0.2"/>
</svg>
