<svg width="24" height="24" viewBox="0 0 24 24" fill="none" xmlns="http://www.w3.org/2000/svg">
<path d="M7.81074 6.39724C8.3297 6.31616 8.86193 6.55667 8.93281 7.08279L8.93379 7.08572L8.9377 7.11892C11.3151 6.93055 12.9623 7.50545 14.1809 8.53103C15.383 9.5428 16.1447 10.9765 16.7922 12.4646L21.4172 13.8621C21.6533 13.9338 21.8721 14.0751 21.9533 14.3552C22.0281 14.6134 21.9696 14.9439 21.801 15.3582C21.6091 15.8264 21.1745 16.458 20.5637 16.9734C19.9511 17.4902 19.1443 17.9051 18.2082 17.9051C16.9898 17.905 15.7358 17.5552 14.5178 17.0799C13.5386 16.6977 12.5709 16.2283 11.6564 15.7859C11.4505 15.8423 11.2429 15.9008 11.0324 15.9549C8.32437 16.6505 5.26067 17.1535 2.9377 17.283H2.93477C2.73793 17.2914 2.55344 17.2549 2.40254 17.1433C2.2517 17.0318 2.16174 16.865 2.11152 16.6687L2.11055 16.6668C1.55477 14.4253 1.74314 12.2833 2.68672 10.5926C3.45948 9.20793 4.73033 8.14126 6.47969 7.574L6.47188 7.51736C6.39701 7.01118 6.74991 6.57025 7.28047 6.48318L7.80977 6.39822L7.81074 6.39724ZM16.4523 13.9051C15.9863 14.2106 15.3883 14.5067 14.7033 14.7849C14.4145 14.9022 14.1082 15.0161 13.7883 15.1287C15.4962 15.899 16.8878 16.3543 18.1154 16.3543C18.615 16.3543 19.0929 16.1506 19.4738 15.8513C19.7872 15.6051 20.0205 15.3034 20.1467 15.0203L16.4523 13.9051ZM12.9074 9.4949C11.8293 8.72916 10.3232 8.38089 8.00996 8.75759C6.12042 9.0673 4.81876 9.96968 4.0832 11.2195C3.36835 12.4344 3.17503 14.0017 3.52949 15.7215C5.35695 15.6162 7.84848 15.2069 10.1145 14.6511C11.282 14.3648 12.3858 14.0413 13.3049 13.7039C14.1433 13.3961 14.812 13.0801 15.2375 12.7801C14.6314 11.4027 13.9569 10.2403 12.9074 9.4949Z" fill="#1D1A24"/>
</svg>
