<svg width="24" height="24" viewBox="0 0 24 24" fill="none" xmlns="http://www.w3.org/2000/svg">
<path d="M18.3952 11.057C18.1649 10.9716 17.9214 10.9276 17.677 10.9276C17.4581 10.9276 17.2411 10.9615 17.0344 11.028C16.6891 7.59503 13.7971 4.92196 10.272 4.92196C6.51344 4.92196 3.47469 7.96074 3.47469 11.7193C3.47469 15.4777 6.51344 18.5165 10.272 18.5165C11.0085 18.5165 11.7174 18.3998 12.3794 18.1804C12.2328 18.4726 12.1512 18.7976 12.1512 19.1163C12.1512 19.2955 12.1714 19.469 12.2125 19.6336C11.5929 19.7951 10.9418 19.876 10.272 19.876C5.76977 19.876 2.11523 16.2214 2.11523 11.7193C2.11523 7.21704 5.76977 3.5625 10.272 3.5625C14.5506 3.5625 18.0637 6.86313 18.3952 11.057Z" fill="#1D1A24"/>
<path d="M13.8866 8.88037C13.8866 9.0563 13.7826 9.23223 13.6946 9.39216L10.0401 15.1418C9.88014 15.3898 9.65618 15.5177 9.39234 15.5177C9.12842 15.5177 8.91248 15.4057 8.7126 15.1418L6.76139 12.7429C6.64945 12.5909 6.57747 12.4229 6.57747 12.247C6.57747 11.8952 6.84934 11.6153 7.19318 11.6153C7.41714 11.6153 7.59304 11.6792 7.78498 11.9351L9.36032 13.9744L12.679 8.64846C12.8309 8.41656 13.0308 8.28861 13.2308 8.28861C13.5666 8.28861 13.8866 8.52051 13.8866 8.88037Z" fill="#1D1A24"/>
<path d="M18.5807 12.5509L21.9633 18.5965C22.0592 18.7644 22.1152 18.9403 22.1152 19.1163C22.1152 19.708 21.6994 20.1639 21.0517 20.1639H14.2944C13.6466 20.1639 13.2468 19.708 13.2468 19.1163C13.2468 18.9403 13.2948 18.7644 13.3907 18.5965L16.7654 12.5509C16.9573 12.199 17.3252 12.0151 17.677 12.0151C18.0288 12.0151 18.3807 12.199 18.5807 12.5509ZM17.0133 18.3166C17.0133 18.6844 17.3171 18.9723 17.677 18.9723C18.0368 18.9723 18.3407 18.6844 18.3407 18.3166C18.3407 17.9567 18.0449 17.6529 17.677 17.6529C17.3252 17.6529 17.0133 17.9567 17.0133 18.3166ZM17.1412 14.4301L17.2052 16.6612C17.2131 16.9252 17.4051 17.1091 17.677 17.1091C17.9489 17.1091 18.1408 16.9252 18.1488 16.6612L18.2128 14.4301C18.2208 14.1103 17.9969 13.8863 17.677 13.8863C17.3492 13.8863 17.1332 14.1103 17.1412 14.4301Z" fill="#1D1A24"/>
</svg>
