<svg width="24" height="24" viewBox="0 0 24 24" fill="none" xmlns="http://www.w3.org/2000/svg">
<path d="M19.7743 5.0176C20.2837 4.50859 21.1092 4.50833 21.6184 5.0176C22.1276 5.52688 22.1274 6.35236 21.6184 6.86175L9.66125 18.8189C9.41675 19.0633 9.08487 19.2012 8.73918 19.2013C8.39334 19.2013 8.06167 19.0635 7.8171 18.8189L2.38229 13.3841C1.87289 12.8747 1.87289 12.0484 2.38229 11.539C2.89164 11.0303 3.71724 11.0301 4.22645 11.539L8.73918 16.0517L19.7743 5.0176Z" fill="#1D1A24"/>
<path d="M19.7743 5.0176C20.2837 4.50859 21.1092 4.50833 21.6184 5.0176C22.1276 5.52688 22.1274 6.35236 21.6184 6.86175L9.66125 18.8189C9.41675 19.0633 9.08487 19.2012 8.73918 19.2013C8.39334 19.2013 8.06167 19.0635 7.8171 18.8189L2.38229 13.3841C1.87289 12.8747 1.87289 12.0484 2.38229 11.539C2.89164 11.0303 3.71724 11.0301 4.22645 11.539L8.73918 16.0517L19.7743 5.0176Z" fill="black" fill-opacity="0.2"/>
<path d="M19.7743 5.0176C20.2837 4.50859 21.1092 4.50833 21.6184 5.0176C22.1276 5.52688 22.1274 6.35236 21.6184 6.86175L9.66125 18.8189C9.41675 19.0633 9.08487 19.2012 8.73918 19.2013C8.39334 19.2013 8.06167 19.0635 7.8171 18.8189L2.38229 13.3841C1.87289 12.8747 1.87289 12.0484 2.38229 11.539C2.89164 11.0303 3.71724 11.0301 4.22645 11.539L8.73918 16.0517L19.7743 5.0176Z" fill="black" fill-opacity="0.2"/>
<path d="M19.7743 5.0176C20.2837 4.50859 21.1092 4.50833 21.6184 5.0176C22.1276 5.52688 22.1274 6.35236 21.6184 6.86175L9.66125 18.8189C9.41675 19.0633 9.08487 19.2012 8.73918 19.2013C8.39334 19.2013 8.06167 19.0635 7.8171 18.8189L2.38229 13.3841C1.87289 12.8747 1.87289 12.0484 2.38229 11.539C2.89164 11.0303 3.71724 11.0301 4.22645 11.539L8.73918 16.0517L19.7743 5.0176Z" fill="black" fill-opacity="0.2"/>
<path d="M19.7743 5.0176C20.2837 4.50859 21.1092 4.50833 21.6184 5.0176C22.1276 5.52688 22.1274 6.35236 21.6184 6.86175L9.66125 18.8189C9.41675 19.0633 9.08487 19.2012 8.73918 19.2013C8.39334 19.2013 8.06167 19.0635 7.8171 18.8189L2.38229 13.3841C1.87289 12.8747 1.87289 12.0484 2.38229 11.539C2.89164 11.0303 3.71724 11.0301 4.22645 11.539L8.73918 16.0517L19.7743 5.0176Z" fill="black" fill-opacity="0.2"/>
<path d="M19.7743 5.0176C20.2837 4.50859 21.1092 4.50833 21.6184 5.0176C22.1276 5.52688 22.1274 6.35236 21.6184 6.86175L9.66125 18.8189C9.41675 19.0633 9.08487 19.2012 8.73918 19.2013C8.39334 19.2013 8.06167 19.0635 7.8171 18.8189L2.38229 13.3841C1.87289 12.8747 1.87289 12.0484 2.38229 11.539C2.89164 11.0303 3.71724 11.0301 4.22645 11.539L8.73918 16.0517L19.7743 5.0176Z" fill="black" fill-opacity="0.2"/>
</svg>
