<svg width="24" height="24" viewBox="0 0 24 24" fill="none" xmlns="http://www.w3.org/2000/svg">
<path d="M22 5.36773V18.6431C22 20.881 20.8702 22 18.5888 22H5.41118C3.14068 22 2 20.881 2 18.6431V5.36773C2 3.12982 3.14068 2 5.41118 2H18.5888C20.8702 2 22 3.12982 22 5.36773ZM6.47583 9.72406C6.17164 10.05 6.17164 10.5606 6.51928 10.9191L10.9082 15.5796C11.6143 16.3292 12.4291 16.3292 13.1352 15.5796L17.5242 10.9191C17.8718 10.5606 17.8827 10.0391 17.5676 9.72406C17.2091 9.37642 16.6768 9.36557 16.3618 9.70232L12.0272 14.2977L7.68169 9.70232C7.36665 9.36557 6.82347 9.36557 6.47583 9.72406Z" fill="#1D1A24"/>
<path d="M22 5.36773V18.6431C22 20.881 20.8702 22 18.5888 22H5.41118C3.14068 22 2 20.881 2 18.6431V5.36773C2 3.12982 3.14068 2 5.41118 2H18.5888C20.8702 2 22 3.12982 22 5.36773ZM6.47583 9.72406C6.17164 10.05 6.17164 10.5606 6.51928 10.9191L10.9082 15.5796C11.6143 16.3292 12.4291 16.3292 13.1352 15.5796L17.5242 10.9191C17.8718 10.5606 17.8827 10.0391 17.5676 9.72406C17.2091 9.37642 16.6768 9.36557 16.3618 9.70232L12.0272 14.2977L7.68169 9.70232C7.36665 9.36557 6.82347 9.36557 6.47583 9.72406Z" fill="black" fill-opacity="0.2"/>
<path d="M22 5.36773V18.6431C22 20.881 20.8702 22 18.5888 22H5.41118C3.14068 22 2 20.881 2 18.6431V5.36773C2 3.12982 3.14068 2 5.41118 2H18.5888C20.8702 2 22 3.12982 22 5.36773ZM6.47583 9.72406C6.17164 10.05 6.17164 10.5606 6.51928 10.9191L10.9082 15.5796C11.6143 16.3292 12.4291 16.3292 13.1352 15.5796L17.5242 10.9191C17.8718 10.5606 17.8827 10.0391 17.5676 9.72406C17.2091 9.37642 16.6768 9.36557 16.3618 9.70232L12.0272 14.2977L7.68169 9.70232C7.36665 9.36557 6.82347 9.36557 6.47583 9.72406Z" fill="black" fill-opacity="0.2"/>
<path d="M22 5.36773V18.6431C22 20.881 20.8702 22 18.5888 22H5.41118C3.14068 22 2 20.881 2 18.6431V5.36773C2 3.12982 3.14068 2 5.41118 2H18.5888C20.8702 2 22 3.12982 22 5.36773ZM6.47583 9.72406C6.17164 10.05 6.17164 10.5606 6.51928 10.9191L10.9082 15.5796C11.6143 16.3292 12.4291 16.3292 13.1352 15.5796L17.5242 10.9191C17.8718 10.5606 17.8827 10.0391 17.5676 9.72406C17.2091 9.37642 16.6768 9.36557 16.3618 9.70232L12.0272 14.2977L7.68169 9.70232C7.36665 9.36557 6.82347 9.36557 6.47583 9.72406Z" fill="black" fill-opacity="0.2"/>
<path d="M22 5.36773V18.6431C22 20.881 20.8702 22 18.5888 22H5.41118C3.14068 22 2 20.881 2 18.6431V5.36773C2 3.12982 3.14068 2 5.41118 2H18.5888C20.8702 2 22 3.12982 22 5.36773ZM6.47583 9.72406C6.17164 10.05 6.17164 10.5606 6.51928 10.9191L10.9082 15.5796C11.6143 16.3292 12.4291 16.3292 13.1352 15.5796L17.5242 10.9191C17.8718 10.5606 17.8827 10.0391 17.5676 9.72406C17.2091 9.37642 16.6768 9.36557 16.3618 9.70232L12.0272 14.2977L7.68169 9.70232C7.36665 9.36557 6.82347 9.36557 6.47583 9.72406Z" fill="black" fill-opacity="0.2"/>
<path d="M22 5.36773V18.6431C22 20.881 20.8702 22 18.5888 22H5.41118C3.14068 22 2 20.881 2 18.6431V5.36773C2 3.12982 3.14068 2 5.41118 2H18.5888C20.8702 2 22 3.12982 22 5.36773ZM6.47583 9.72406C6.17164 10.05 6.17164 10.5606 6.51928 10.9191L10.9082 15.5796C11.6143 16.3292 12.4291 16.3292 13.1352 15.5796L17.5242 10.9191C17.8718 10.5606 17.8827 10.0391 17.5676 9.72406C17.2091 9.37642 16.6768 9.36557 16.3618 9.70232L12.0272 14.2977L7.68169 9.70232C7.36665 9.36557 6.82347 9.36557 6.47583 9.72406Z" fill="black" fill-opacity="0.2"/>
</svg>
