<svg width="24" height="24" viewBox="0 0 24 24" fill="none" xmlns="http://www.w3.org/2000/svg">
<path d="M17.278 3.62473C17.8034 3.09912 17.8033 2.24706 17.278 1.72141C16.7523 1.19573 15.8994 1.19572 15.3737 1.72141L6.72036 10.3747C6.19517 10.9004 6.19503 11.7525 6.72036 12.2781L15.3737 20.9323C15.8992 21.4579 16.7523 21.4576 17.278 20.9323C17.8037 20.4067 17.8037 19.5537 17.278 19.028L9.57583 11.3269L17.278 3.62473Z" fill="#1D1A24"/>
<path d="M17.278 3.62473C17.8034 3.09912 17.8033 2.24706 17.278 1.72141C16.7523 1.19573 15.8994 1.19572 15.3737 1.72141L6.72036 10.3747C6.19517 10.9004 6.19503 11.7525 6.72036 12.2781L15.3737 20.9323C15.8992 21.4579 16.7523 21.4576 17.278 20.9323C17.8037 20.4067 17.8037 19.5537 17.278 19.028L9.57583 11.3269L17.278 3.62473Z" fill="black" fill-opacity="0.2"/>
<path d="M17.278 3.62473C17.8034 3.09912 17.8033 2.24706 17.278 1.72141C16.7523 1.19573 15.8994 1.19572 15.3737 1.72141L6.72036 10.3747C6.19517 10.9004 6.19503 11.7525 6.72036 12.2781L15.3737 20.9323C15.8992 21.4579 16.7523 21.4576 17.278 20.9323C17.8037 20.4067 17.8037 19.5537 17.278 19.028L9.57583 11.3269L17.278 3.62473Z" fill="black" fill-opacity="0.2"/>
<path d="M17.278 3.62473C17.8034 3.09912 17.8033 2.24706 17.278 1.72141C16.7523 1.19573 15.8994 1.19572 15.3737 1.72141L6.72036 10.3747C6.19517 10.9004 6.19503 11.7525 6.72036 12.2781L15.3737 20.9323C15.8992 21.4579 16.7523 21.4576 17.278 20.9323C17.8037 20.4067 17.8037 19.5537 17.278 19.028L9.57583 11.3269L17.278 3.62473Z" fill="black" fill-opacity="0.2"/>
<path d="M17.278 3.62473C17.8034 3.09912 17.8033 2.24706 17.278 1.72141C16.7523 1.19573 15.8994 1.19572 15.3737 1.72141L6.72036 10.3747C6.19517 10.9004 6.19503 11.7525 6.72036 12.2781L15.3737 20.9323C15.8992 21.4579 16.7523 21.4576 17.278 20.9323C17.8037 20.4067 17.8037 19.5537 17.278 19.028L9.57583 11.3269L17.278 3.62473Z" fill="black" fill-opacity="0.2"/>
<path d="M17.278 3.62473C17.8034 3.09912 17.8033 2.24706 17.278 1.72141C16.7523 1.19573 15.8994 1.19572 15.3737 1.72141L6.72036 10.3747C6.19517 10.9004 6.19503 11.7525 6.72036 12.2781L15.3737 20.9323C15.8992 21.4579 16.7523 21.4576 17.278 20.9323C17.8037 20.4067 17.8037 19.5537 17.278 19.028L9.57583 11.3269L17.278 3.62473Z" fill="black" fill-opacity="0.2"/>
</svg>
