<svg width="24" height="24" viewBox="0 0 24 24" fill="none" xmlns="http://www.w3.org/2000/svg">
<path d="M19.7012 17.2786C20.2268 17.804 21.0789 17.8039 21.6045 17.2786C22.1302 16.7529 22.1302 15.9 21.6045 15.3743L12.9512 6.72097C12.4255 6.19578 11.5734 6.19563 11.0479 6.72097L2.39356 15.3743C1.86802 15.8998 1.86831 16.7529 2.39356 17.2786C2.91925 17.8043 3.77217 17.8043 4.29786 17.2786L11.999 9.57643L19.7012 17.2786Z" fill="#1D1A24"/>
<path d="M19.7012 17.2786C20.2268 17.804 21.0789 17.8039 21.6045 17.2786C22.1302 16.7529 22.1302 15.9 21.6045 15.3743L12.9512 6.72097C12.4255 6.19578 11.5734 6.19563 11.0479 6.72097L2.39356 15.3743C1.86802 15.8998 1.86831 16.7529 2.39356 17.2786C2.91925 17.8043 3.77217 17.8043 4.29786 17.2786L11.999 9.57643L19.7012 17.2786Z" fill="black" fill-opacity="0.2"/>
<path d="M19.7012 17.2786C20.2268 17.804 21.0789 17.8039 21.6045 17.2786C22.1302 16.7529 22.1302 15.9 21.6045 15.3743L12.9512 6.72097C12.4255 6.19578 11.5734 6.19563 11.0479 6.72097L2.39356 15.3743C1.86802 15.8998 1.86831 16.7529 2.39356 17.2786C2.91925 17.8043 3.77217 17.8043 4.29786 17.2786L11.999 9.57643L19.7012 17.2786Z" fill="black" fill-opacity="0.2"/>
<path d="M19.7012 17.2786C20.2268 17.804 21.0789 17.8039 21.6045 17.2786C22.1302 16.7529 22.1302 15.9 21.6045 15.3743L12.9512 6.72097C12.4255 6.19578 11.5734 6.19563 11.0479 6.72097L2.39356 15.3743C1.86802 15.8998 1.86831 16.7529 2.39356 17.2786C2.91925 17.8043 3.77217 17.8043 4.29786 17.2786L11.999 9.57643L19.7012 17.2786Z" fill="black" fill-opacity="0.2"/>
<path d="M19.7012 17.2786C20.2268 17.804 21.0789 17.8039 21.6045 17.2786C22.1302 16.7529 22.1302 15.9 21.6045 15.3743L12.9512 6.72097C12.4255 6.19578 11.5734 6.19563 11.0479 6.72097L2.39356 15.3743C1.86802 15.8998 1.86831 16.7529 2.39356 17.2786C2.91925 17.8043 3.77217 17.8043 4.29786 17.2786L11.999 9.57643L19.7012 17.2786Z" fill="black" fill-opacity="0.2"/>
<path d="M19.7012 17.2786C20.2268 17.804 21.0789 17.8039 21.6045 17.2786C22.1302 16.7529 22.1302 15.9 21.6045 15.3743L12.9512 6.72097C12.4255 6.19578 11.5734 6.19563 11.0479 6.72097L2.39356 15.3743C1.86802 15.8998 1.86831 16.7529 2.39356 17.2786C2.91925 17.8043 3.77217 17.8043 4.29786 17.2786L11.999 9.57643L19.7012 17.2786Z" fill="black" fill-opacity="0.2"/>
</svg>
