<svg width="24" height="24" viewBox="0 0 24 24" fill="none" xmlns="http://www.w3.org/2000/svg">
<path d="M6.63867 9.82227C6.96448 9.47477 7.49644 9.47424 7.81152 9.7998L12.0156 14.2539L16.2207 9.7998C16.5249 9.47427 17.057 9.48563 17.3828 9.82227C17.6867 10.1264 17.6763 10.6261 17.3506 10.9736L13.0918 15.4922C12.4074 16.2201 11.614 16.2201 10.9404 15.4922L6.6709 10.9736C6.35593 10.6261 6.3564 10.1373 6.63867 9.82227Z" fill="#1D1A24"/>
<path fill-rule="evenodd" clip-rule="evenodd" d="M18.5889 2C20.8702 2.00002 22 3.13028 22 5.36816V18.6436C21.9999 20.8812 20.8701 22 18.5889 22H5.41113C3.14081 22 2.00015 20.8812 2 18.6436V5.36816C2 3.13027 3.14067 2.00002 5.41113 2H18.5889ZM5.43262 3.74902C4.34645 3.74913 3.74902 4.33609 3.74902 5.46582V18.5449C3.74902 19.6747 4.34645 20.2509 5.43262 20.251H18.5674C19.6427 20.2509 20.251 19.6747 20.251 18.5449V5.46582C20.251 4.33609 19.6427 3.74913 18.5674 3.74902H5.43262Z" fill="#1D1A24"/>
</svg>
