<svg width="24" height="24" viewBox="0 0 24 24" fill="none" xmlns="http://www.w3.org/2000/svg">
<path d="M6.39427 19.7017C5.86887 20.2273 5.86893 21.0793 6.39427 21.605C6.91996 22.1307 7.77288 22.1307 8.29857 21.605L16.9519 12.9517C17.4771 12.426 17.4772 11.5739 16.9519 11.0483L8.29857 2.39405C7.77302 1.8685 6.92 1.86879 6.39427 2.39405C5.86858 2.91974 5.86858 3.77266 6.39427 4.29835L14.0964 11.9995L6.39427 19.7017Z" fill="#1D1A24"/>
<path d="M6.39427 19.7017C5.86887 20.2273 5.86893 21.0793 6.39427 21.605C6.91996 22.1307 7.77288 22.1307 8.29857 21.605L16.9519 12.9517C17.4771 12.426 17.4772 11.5739 16.9519 11.0483L8.29857 2.39405C7.77302 1.8685 6.92 1.86879 6.39427 2.39405C5.86858 2.91974 5.86858 3.77266 6.39427 4.29835L14.0964 11.9995L6.39427 19.7017Z" fill="black" fill-opacity="0.2"/>
<path d="M6.39427 19.7017C5.86887 20.2273 5.86893 21.0793 6.39427 21.605C6.91996 22.1307 7.77288 22.1307 8.29857 21.605L16.9519 12.9517C17.4771 12.426 17.4772 11.5739 16.9519 11.0483L8.29857 2.39405C7.77302 1.8685 6.92 1.86879 6.39427 2.39405C5.86858 2.91974 5.86858 3.77266 6.39427 4.29835L14.0964 11.9995L6.39427 19.7017Z" fill="black" fill-opacity="0.2"/>
<path d="M6.39427 19.7017C5.86887 20.2273 5.86893 21.0793 6.39427 21.605C6.91996 22.1307 7.77288 22.1307 8.29857 21.605L16.9519 12.9517C17.4771 12.426 17.4772 11.5739 16.9519 11.0483L8.29857 2.39405C7.77302 1.8685 6.92 1.86879 6.39427 2.39405C5.86858 2.91974 5.86858 3.77266 6.39427 4.29835L14.0964 11.9995L6.39427 19.7017Z" fill="black" fill-opacity="0.2"/>
<path d="M6.39427 19.7017C5.86887 20.2273 5.86893 21.0793 6.39427 21.605C6.91996 22.1307 7.77288 22.1307 8.29857 21.605L16.9519 12.9517C17.4771 12.426 17.4772 11.5739 16.9519 11.0483L8.29857 2.39405C7.77302 1.8685 6.92 1.86879 6.39427 2.39405C5.86858 2.91974 5.86858 3.77266 6.39427 4.29835L14.0964 11.9995L6.39427 19.7017Z" fill="black" fill-opacity="0.2"/>
<path d="M6.39427 19.7017C5.86887 20.2273 5.86893 21.0793 6.39427 21.605C6.91996 22.1307 7.77288 22.1307 8.29857 21.605L16.9519 12.9517C17.4771 12.426 17.4772 11.5739 16.9519 11.0483L8.29857 2.39405C7.77302 1.8685 6.92 1.86879 6.39427 2.39405C5.86858 2.91974 5.86858 3.77266 6.39427 4.29835L14.0964 11.9995L6.39427 19.7017Z" fill="black" fill-opacity="0.2"/>
</svg>
