<svg width="24" height="24" viewBox="0 0 24 24" fill="none" xmlns="http://www.w3.org/2000/svg">
<path d="M19.7014 6.72142C20.227 6.19602 21.0791 6.19608 21.6047 6.72142C22.1304 7.24711 22.1304 8.10003 21.6047 8.62571L12.9514 17.279C12.4258 17.8042 11.5737 17.8044 11.0481 17.279L2.39381 8.62571C1.86826 8.10017 1.86855 7.24714 2.39381 6.72142C2.9195 6.19573 3.77241 6.19573 4.2981 6.72142L11.9993 14.4236L19.7014 6.72142Z" fill="#1D1A24"/>
<path d="M19.7014 6.72142C20.227 6.19602 21.0791 6.19608 21.6047 6.72142C22.1304 7.24711 22.1304 8.10003 21.6047 8.62571L12.9514 17.279C12.4258 17.8042 11.5737 17.8044 11.0481 17.279L2.39381 8.62571C1.86826 8.10017 1.86855 7.24714 2.39381 6.72142C2.9195 6.19573 3.77241 6.19573 4.2981 6.72142L11.9993 14.4236L19.7014 6.72142Z" fill="black" fill-opacity="0.2"/>
<path d="M19.7014 6.72142C20.227 6.19602 21.0791 6.19608 21.6047 6.72142C22.1304 7.24711 22.1304 8.10003 21.6047 8.62571L12.9514 17.279C12.4258 17.8042 11.5737 17.8044 11.0481 17.279L2.39381 8.62571C1.86826 8.10017 1.86855 7.24714 2.39381 6.72142C2.9195 6.19573 3.77241 6.19573 4.2981 6.72142L11.9993 14.4236L19.7014 6.72142Z" fill="black" fill-opacity="0.2"/>
<path d="M19.7014 6.72142C20.227 6.19602 21.0791 6.19608 21.6047 6.72142C22.1304 7.24711 22.1304 8.10003 21.6047 8.62571L12.9514 17.279C12.4258 17.8042 11.5737 17.8044 11.0481 17.279L2.39381 8.62571C1.86826 8.10017 1.86855 7.24714 2.39381 6.72142C2.9195 6.19573 3.77241 6.19573 4.2981 6.72142L11.9993 14.4236L19.7014 6.72142Z" fill="black" fill-opacity="0.2"/>
<path d="M19.7014 6.72142C20.227 6.19602 21.0791 6.19608 21.6047 6.72142C22.1304 7.24711 22.1304 8.10003 21.6047 8.62571L12.9514 17.279C12.4258 17.8042 11.5737 17.8044 11.0481 17.279L2.39381 8.62571C1.86826 8.10017 1.86855 7.24714 2.39381 6.72142C2.9195 6.19573 3.77241 6.19573 4.2981 6.72142L11.9993 14.4236L19.7014 6.72142Z" fill="black" fill-opacity="0.2"/>
<path d="M19.7014 6.72142C20.227 6.19602 21.0791 6.19608 21.6047 6.72142C22.1304 7.24711 22.1304 8.10003 21.6047 8.62571L12.9514 17.279C12.4258 17.8042 11.5737 17.8044 11.0481 17.279L2.39381 8.62571C1.86826 8.10017 1.86855 7.24714 2.39381 6.72142C2.9195 6.19573 3.77241 6.19573 4.2981 6.72142L11.9993 14.4236L19.7014 6.72142Z" fill="black" fill-opacity="0.2"/>
</svg>
