<svg width="24" height="24" viewBox="0 0 24 24" fill="none" xmlns="http://www.w3.org/2000/svg">
<path d="M10.2761 3.22952C12.239 2.78601 14.2933 2.98871 16.1315 3.80764C16.636 4.03242 16.8632 4.62446 16.6384 5.12893C16.4134 5.63287 15.8223 5.85929 15.3181 5.63479C13.8737 4.99128 12.2589 4.83221 10.7165 5.18069C9.17448 5.5293 7.78572 6.36663 6.75849 7.56839C5.73126 8.77039 5.11941 10.2729 5.01533 11.8506C4.91134 13.4285 5.3207 14.9987 6.18135 16.3252C7.04198 17.6515 8.30865 18.6639 9.7917 19.2119C11.2747 19.7598 12.8956 19.8143 14.4118 19.3662C15.9281 18.9179 17.2599 17.9909 18.2067 16.7246C19.0943 15.5374 19.5993 14.1103 19.6599 12.6338L19.6667 12.3379V11.5713C19.6668 11.0192 20.1147 10.5716 20.6667 10.5713C21.2188 10.5715 21.6666 11.0192 21.6667 11.5713V12.3389C21.6655 14.3514 21.0133 16.31 19.8083 17.9219C18.6032 19.5336 16.9091 20.7126 14.9792 21.2832C13.0493 21.8537 10.9861 21.7854 9.09834 21.0879C7.21068 20.3904 5.59894 19.1013 4.50361 17.4131C3.40823 15.7248 2.88785 13.727 3.02021 11.7188C3.15272 9.7109 3.93071 7.79931 5.23799 6.26956C6.54554 4.73973 8.31311 3.67315 10.2761 3.22952Z" fill="#1D1A24"/>
<path d="M10.2761 3.22952C12.239 2.78601 14.2933 2.98871 16.1315 3.80764C16.636 4.03242 16.8632 4.62446 16.6384 5.12893C16.4134 5.63287 15.8223 5.85929 15.3181 5.63479C13.8737 4.99128 12.2589 4.83221 10.7165 5.18069C9.17448 5.5293 7.78572 6.36663 6.75849 7.56839C5.73126 8.77039 5.11941 10.2729 5.01533 11.8506C4.91134 13.4285 5.3207 14.9987 6.18135 16.3252C7.04198 17.6515 8.30865 18.6639 9.7917 19.2119C11.2747 19.7598 12.8956 19.8143 14.4118 19.3662C15.9281 18.9179 17.2599 17.9909 18.2067 16.7246C19.0943 15.5374 19.5993 14.1103 19.6599 12.6338L19.6667 12.3379V11.5713C19.6668 11.0192 20.1147 10.5716 20.6667 10.5713C21.2188 10.5715 21.6666 11.0192 21.6667 11.5713V12.3389C21.6655 14.3514 21.0133 16.31 19.8083 17.9219C18.6032 19.5336 16.9091 20.7126 14.9792 21.2832C13.0493 21.8537 10.9861 21.7854 9.09834 21.0879C7.21068 20.3904 5.59894 19.1013 4.50361 17.4131C3.40823 15.7248 2.88785 13.727 3.02021 11.7188C3.15272 9.7109 3.93071 7.79931 5.23799 6.26956C6.54554 4.73973 8.31311 3.67315 10.2761 3.22952Z" fill="black" fill-opacity="0.2"/>
<path d="M10.2761 3.22952C12.239 2.78601 14.2933 2.98871 16.1315 3.80764C16.636 4.03242 16.8632 4.62446 16.6384 5.12893C16.4134 5.63287 15.8223 5.85929 15.3181 5.63479C13.8737 4.99128 12.2589 4.83221 10.7165 5.18069C9.17448 5.5293 7.78572 6.36663 6.75849 7.56839C5.73126 8.77039 5.11941 10.2729 5.01533 11.8506C4.91134 13.4285 5.3207 14.9987 6.18135 16.3252C7.04198 17.6515 8.30865 18.6639 9.7917 19.2119C11.2747 19.7598 12.8956 19.8143 14.4118 19.3662C15.9281 18.9179 17.2599 17.9909 18.2067 16.7246C19.0943 15.5374 19.5993 14.1103 19.6599 12.6338L19.6667 12.3379V11.5713C19.6668 11.0192 20.1147 10.5716 20.6667 10.5713C21.2188 10.5715 21.6666 11.0192 21.6667 11.5713V12.3389C21.6655 14.3514 21.0133 16.31 19.8083 17.9219C18.6032 19.5336 16.9091 20.7126 14.9792 21.2832C13.0493 21.8537 10.9861 21.7854 9.09834 21.0879C7.21068 20.3904 5.59894 19.1013 4.50361 17.4131C3.40823 15.7248 2.88785 13.727 3.02021 11.7188C3.15272 9.7109 3.93071 7.79931 5.23799 6.26956C6.54554 4.73973 8.31311 3.67315 10.2761 3.22952Z" fill="black" fill-opacity="0.2"/>
<path d="M10.2761 3.22952C12.239 2.78601 14.2933 2.98871 16.1315 3.80764C16.636 4.03242 16.8632 4.62446 16.6384 5.12893C16.4134 5.63287 15.8223 5.85929 15.3181 5.63479C13.8737 4.99128 12.2589 4.83221 10.7165 5.18069C9.17448 5.5293 7.78572 6.36663 6.75849 7.56839C5.73126 8.77039 5.11941 10.2729 5.01533 11.8506C4.91134 13.4285 5.3207 14.9987 6.18135 16.3252C7.04198 17.6515 8.30865 18.6639 9.7917 19.2119C11.2747 19.7598 12.8956 19.8143 14.4118 19.3662C15.9281 18.9179 17.2599 17.9909 18.2067 16.7246C19.0943 15.5374 19.5993 14.1103 19.6599 12.6338L19.6667 12.3379V11.5713C19.6668 11.0192 20.1147 10.5716 20.6667 10.5713C21.2188 10.5715 21.6666 11.0192 21.6667 11.5713V12.3389C21.6655 14.3514 21.0133 16.31 19.8083 17.9219C18.6032 19.5336 16.9091 20.7126 14.9792 21.2832C13.0493 21.8537 10.9861 21.7854 9.09834 21.0879C7.21068 20.3904 5.59894 19.1013 4.50361 17.4131C3.40823 15.7248 2.88785 13.727 3.02021 11.7188C3.15272 9.7109 3.93071 7.79931 5.23799 6.26956C6.54554 4.73973 8.31311 3.67315 10.2761 3.22952Z" fill="black" fill-opacity="0.2"/>
<path d="M10.2761 3.22952C12.239 2.78601 14.2933 2.98871 16.1315 3.80764C16.636 4.03242 16.8632 4.62446 16.6384 5.12893C16.4134 5.63287 15.8223 5.85929 15.3181 5.63479C13.8737 4.99128 12.2589 4.83221 10.7165 5.18069C9.17448 5.5293 7.78572 6.36663 6.75849 7.56839C5.73126 8.77039 5.11941 10.2729 5.01533 11.8506C4.91134 13.4285 5.3207 14.9987 6.18135 16.3252C7.04198 17.6515 8.30865 18.6639 9.7917 19.2119C11.2747 19.7598 12.8956 19.8143 14.4118 19.3662C15.9281 18.9179 17.2599 17.9909 18.2067 16.7246C19.0943 15.5374 19.5993 14.1103 19.6599 12.6338L19.6667 12.3379V11.5713C19.6668 11.0192 20.1147 10.5716 20.6667 10.5713C21.2188 10.5715 21.6666 11.0192 21.6667 11.5713V12.3389C21.6655 14.3514 21.0133 16.31 19.8083 17.9219C18.6032 19.5336 16.9091 20.7126 14.9792 21.2832C13.0493 21.8537 10.9861 21.7854 9.09834 21.0879C7.21068 20.3904 5.59894 19.1013 4.50361 17.4131C3.40823 15.7248 2.88785 13.727 3.02021 11.7188C3.15272 9.7109 3.93071 7.79931 5.23799 6.26956C6.54554 4.73973 8.31311 3.67315 10.2761 3.22952Z" fill="black" fill-opacity="0.2"/>
<path d="M10.2761 3.22952C12.239 2.78601 14.2933 2.98871 16.1315 3.80764C16.636 4.03242 16.8632 4.62446 16.6384 5.12893C16.4134 5.63287 15.8223 5.85929 15.3181 5.63479C13.8737 4.99128 12.2589 4.83221 10.7165 5.18069C9.17448 5.5293 7.78572 6.36663 6.75849 7.56839C5.73126 8.77039 5.11941 10.2729 5.01533 11.8506C4.91134 13.4285 5.3207 14.9987 6.18135 16.3252C7.04198 17.6515 8.30865 18.6639 9.7917 19.2119C11.2747 19.7598 12.8956 19.8143 14.4118 19.3662C15.9281 18.9179 17.2599 17.9909 18.2067 16.7246C19.0943 15.5374 19.5993 14.1103 19.6599 12.6338L19.6667 12.3379V11.5713C19.6668 11.0192 20.1147 10.5716 20.6667 10.5713C21.2188 10.5715 21.6666 11.0192 21.6667 11.5713V12.3389C21.6655 14.3514 21.0133 16.31 19.8083 17.9219C18.6032 19.5336 16.9091 20.7126 14.9792 21.2832C13.0493 21.8537 10.9861 21.7854 9.09834 21.0879C7.21068 20.3904 5.59894 19.1013 4.50361 17.4131C3.40823 15.7248 2.88785 13.727 3.02021 11.7188C3.15272 9.7109 3.93071 7.79931 5.23799 6.26956C6.54554 4.73973 8.31311 3.67315 10.2761 3.22952Z" fill="black" fill-opacity="0.2"/>
<path d="M19.9597 4.96389C20.35 4.57365 20.9832 4.57372 21.3737 4.96389C21.7642 5.35414 21.7647 5.98728 21.3747 6.37796L13.0407 14.7198C12.8533 14.9071 12.5987 15.0126 12.3337 15.0127C12.0685 15.0127 11.8142 14.9072 11.6267 14.7198L9.12666 12.2198C8.73616 11.8293 8.7362 11.1962 9.12666 10.8057C9.51721 10.4155 10.1503 10.4153 10.5407 10.8057L12.3327 12.5977L19.9597 4.96389Z" fill="#1D1A24"/>
<path d="M19.9597 4.96389C20.35 4.57365 20.9832 4.57372 21.3737 4.96389C21.7642 5.35414 21.7647 5.98728 21.3747 6.37796L13.0407 14.7198C12.8533 14.9071 12.5987 15.0126 12.3337 15.0127C12.0685 15.0127 11.8142 14.9072 11.6267 14.7198L9.12666 12.2198C8.73616 11.8293 8.7362 11.1962 9.12666 10.8057C9.51721 10.4155 10.1503 10.4153 10.5407 10.8057L12.3327 12.5977L19.9597 4.96389Z" fill="black" fill-opacity="0.2"/>
<path d="M19.9597 4.96389C20.35 4.57365 20.9832 4.57372 21.3737 4.96389C21.7642 5.35414 21.7647 5.98728 21.3747 6.37796L13.0407 14.7198C12.8533 14.9071 12.5987 15.0126 12.3337 15.0127C12.0685 15.0127 11.8142 14.9072 11.6267 14.7198L9.12666 12.2198C8.73616 11.8293 8.7362 11.1962 9.12666 10.8057C9.51721 10.4155 10.1503 10.4153 10.5407 10.8057L12.3327 12.5977L19.9597 4.96389Z" fill="black" fill-opacity="0.2"/>
<path d="M19.9597 4.96389C20.35 4.57365 20.9832 4.57372 21.3737 4.96389C21.7642 5.35414 21.7647 5.98728 21.3747 6.37796L13.0407 14.7198C12.8533 14.9071 12.5987 15.0126 12.3337 15.0127C12.0685 15.0127 11.8142 14.9072 11.6267 14.7198L9.12666 12.2198C8.73616 11.8293 8.7362 11.1962 9.12666 10.8057C9.51721 10.4155 10.1503 10.4153 10.5407 10.8057L12.3327 12.5977L19.9597 4.96389Z" fill="black" fill-opacity="0.2"/>
<path d="M19.9597 4.96389C20.35 4.57365 20.9832 4.57372 21.3737 4.96389C21.7642 5.35414 21.7647 5.98728 21.3747 6.37796L13.0407 14.7198C12.8533 14.9071 12.5987 15.0126 12.3337 15.0127C12.0685 15.0127 11.8142 14.9072 11.6267 14.7198L9.12666 12.2198C8.73616 11.8293 8.7362 11.1962 9.12666 10.8057C9.51721 10.4155 10.1503 10.4153 10.5407 10.8057L12.3327 12.5977L19.9597 4.96389Z" fill="black" fill-opacity="0.2"/>
<path d="M19.9597 4.96389C20.35 4.57365 20.9832 4.57372 21.3737 4.96389C21.7642 5.35414 21.7647 5.98728 21.3747 6.37796L13.0407 14.7198C12.8533 14.9071 12.5987 15.0126 12.3337 15.0127C12.0685 15.0127 11.8142 14.9072 11.6267 14.7198L9.12666 12.2198C8.73616 11.8293 8.7362 11.1962 9.12666 10.8057C9.51721 10.4155 10.1503 10.4153 10.5407 10.8057L12.3327 12.5977L19.9597 4.96389Z" fill="black" fill-opacity="0.2"/>
</svg>
