<svg width="24" height="24" viewBox="0 0 24 24" fill="none" xmlns="http://www.w3.org/2000/svg">
<path fill-rule="evenodd" clip-rule="evenodd" d="M15.3345 15.6201C16.3474 15.6201 17.2134 16.2712 17.5405 17.1748H20.9282C21.3292 17.1748 21.6821 17.5276 21.6821 17.9678C21.6819 18.4076 21.3291 18.75 20.9282 18.75H17.5435C17.219 19.6586 16.3509 20.3145 15.3345 20.3145C14.318 20.3144 13.4437 19.6586 13.1167 18.75H2.75732C2.31747 18.7499 1.97534 18.4076 1.9751 17.9678C1.9751 17.5277 2.31731 17.1749 2.75732 17.1748H13.1206C13.4504 16.2713 14.3217 15.6201 15.3345 15.6201ZM15.3345 16.8232C14.6891 16.8233 14.1899 17.3125 14.1899 17.9678C14.1902 18.6032 14.6892 19.1113 15.3345 19.1113C15.9798 19.1113 16.4788 18.6032 16.479 17.9678C16.479 17.3125 15.9799 16.8232 15.3345 16.8232Z" fill="#1D1A24"/>
<path fill-rule="evenodd" clip-rule="evenodd" d="M15.3345 15.6201C16.3474 15.6201 17.2134 16.2712 17.5405 17.1748H20.9282C21.3292 17.1748 21.6821 17.5276 21.6821 17.9678C21.6819 18.4076 21.3291 18.75 20.9282 18.75H17.5435C17.219 19.6586 16.3509 20.3145 15.3345 20.3145C14.318 20.3144 13.4437 19.6586 13.1167 18.75H2.75732C2.31747 18.7499 1.97534 18.4076 1.9751 17.9678C1.9751 17.5277 2.31731 17.1749 2.75732 17.1748H13.1206C13.4504 16.2713 14.3217 15.6201 15.3345 15.6201ZM15.3345 16.8232C14.6891 16.8233 14.1899 17.3125 14.1899 17.9678C14.1902 18.6032 14.6892 19.1113 15.3345 19.1113C15.9798 19.1113 16.4788 18.6032 16.479 17.9678C16.479 17.3125 15.9799 16.8232 15.3345 16.8232Z" fill="black" fill-opacity="0.2"/>
<path fill-rule="evenodd" clip-rule="evenodd" d="M15.3345 15.6201C16.3474 15.6201 17.2134 16.2712 17.5405 17.1748H20.9282C21.3292 17.1748 21.6821 17.5276 21.6821 17.9678C21.6819 18.4076 21.3291 18.75 20.9282 18.75H17.5435C17.219 19.6586 16.3509 20.3145 15.3345 20.3145C14.318 20.3144 13.4437 19.6586 13.1167 18.75H2.75732C2.31747 18.7499 1.97534 18.4076 1.9751 17.9678C1.9751 17.5277 2.31731 17.1749 2.75732 17.1748H13.1206C13.4504 16.2713 14.3217 15.6201 15.3345 15.6201ZM15.3345 16.8232C14.6891 16.8233 14.1899 17.3125 14.1899 17.9678C14.1902 18.6032 14.6892 19.1113 15.3345 19.1113C15.9798 19.1113 16.4788 18.6032 16.479 17.9678C16.479 17.3125 15.9799 16.8232 15.3345 16.8232Z" fill="black" fill-opacity="0.2"/>
<path fill-rule="evenodd" clip-rule="evenodd" d="M15.3345 15.6201C16.3474 15.6201 17.2134 16.2712 17.5405 17.1748H20.9282C21.3292 17.1748 21.6821 17.5276 21.6821 17.9678C21.6819 18.4076 21.3291 18.75 20.9282 18.75H17.5435C17.219 19.6586 16.3509 20.3145 15.3345 20.3145C14.318 20.3144 13.4437 19.6586 13.1167 18.75H2.75732C2.31747 18.7499 1.97534 18.4076 1.9751 17.9678C1.9751 17.5277 2.31731 17.1749 2.75732 17.1748H13.1206C13.4504 16.2713 14.3217 15.6201 15.3345 15.6201ZM15.3345 16.8232C14.6891 16.8233 14.1899 17.3125 14.1899 17.9678C14.1902 18.6032 14.6892 19.1113 15.3345 19.1113C15.9798 19.1113 16.4788 18.6032 16.479 17.9678C16.479 17.3125 15.9799 16.8232 15.3345 16.8232Z" fill="black" fill-opacity="0.2"/>
<path fill-rule="evenodd" clip-rule="evenodd" d="M15.3345 15.6201C16.3474 15.6201 17.2134 16.2712 17.5405 17.1748H20.9282C21.3292 17.1748 21.6821 17.5276 21.6821 17.9678C21.6819 18.4076 21.3291 18.75 20.9282 18.75H17.5435C17.219 19.6586 16.3509 20.3145 15.3345 20.3145C14.318 20.3144 13.4437 19.6586 13.1167 18.75H2.75732C2.31747 18.7499 1.97534 18.4076 1.9751 17.9678C1.9751 17.5277 2.31731 17.1749 2.75732 17.1748H13.1206C13.4504 16.2713 14.3217 15.6201 15.3345 15.6201ZM15.3345 16.8232C14.6891 16.8233 14.1899 17.3125 14.1899 17.9678C14.1902 18.6032 14.6892 19.1113 15.3345 19.1113C15.9798 19.1113 16.4788 18.6032 16.479 17.9678C16.479 17.3125 15.9799 16.8232 15.3345 16.8232Z" fill="black" fill-opacity="0.2"/>
<path fill-rule="evenodd" clip-rule="evenodd" d="M15.3345 15.6201C16.3474 15.6201 17.2134 16.2712 17.5405 17.1748H20.9282C21.3292 17.1748 21.6821 17.5276 21.6821 17.9678C21.6819 18.4076 21.3291 18.75 20.9282 18.75H17.5435C17.219 19.6586 16.3509 20.3145 15.3345 20.3145C14.318 20.3144 13.4437 19.6586 13.1167 18.75H2.75732C2.31747 18.7499 1.97534 18.4076 1.9751 17.9678C1.9751 17.5277 2.31731 17.1749 2.75732 17.1748H13.1206C13.4504 16.2713 14.3217 15.6201 15.3345 15.6201ZM15.3345 16.8232C14.6891 16.8233 14.1899 17.3125 14.1899 17.9678C14.1902 18.6032 14.6892 19.1113 15.3345 19.1113C15.9798 19.1113 16.4788 18.6032 16.479 17.9678C16.479 17.3125 15.9799 16.8232 15.3345 16.8232Z" fill="black" fill-opacity="0.2"/>
<path fill-rule="evenodd" clip-rule="evenodd" d="M8.43018 9.64453C9.44296 9.64466 10.3092 10.2956 10.6362 11.1992H20.8892C21.3292 11.1992 21.6821 11.5521 21.6821 11.9922C21.6819 12.4321 21.3291 12.7744 20.8892 12.7744H10.6401C10.3161 13.6863 9.44704 14.3485 8.43018 14.3486C7.41324 14.3486 6.54428 13.6863 6.22021 12.7744H2.71826C2.31748 12.7743 1.97535 12.4321 1.9751 11.9922C1.9751 11.5521 2.31733 11.1993 2.71826 11.1992H6.22412C6.55125 10.2956 7.41732 9.64453 8.43018 9.64453ZM8.43018 10.8477C7.79448 10.8477 7.28564 11.3467 7.28564 11.9922C7.2859 12.6276 7.79464 13.1357 8.43018 13.1357C9.07534 13.1356 9.57348 12.6275 9.57373 11.9922C9.57373 11.3468 9.0755 10.8478 8.43018 10.8477Z" fill="#1D1A24"/>
<path fill-rule="evenodd" clip-rule="evenodd" d="M8.43018 9.64453C9.44296 9.64466 10.3092 10.2956 10.6362 11.1992H20.8892C21.3292 11.1992 21.6821 11.5521 21.6821 11.9922C21.6819 12.4321 21.3291 12.7744 20.8892 12.7744H10.6401C10.3161 13.6863 9.44704 14.3485 8.43018 14.3486C7.41324 14.3486 6.54428 13.6863 6.22021 12.7744H2.71826C2.31748 12.7743 1.97535 12.4321 1.9751 11.9922C1.9751 11.5521 2.31733 11.1993 2.71826 11.1992H6.22412C6.55125 10.2956 7.41732 9.64453 8.43018 9.64453ZM8.43018 10.8477C7.79448 10.8477 7.28564 11.3467 7.28564 11.9922C7.2859 12.6276 7.79464 13.1357 8.43018 13.1357C9.07534 13.1356 9.57348 12.6275 9.57373 11.9922C9.57373 11.3468 9.0755 10.8478 8.43018 10.8477Z" fill="black" fill-opacity="0.2"/>
<path fill-rule="evenodd" clip-rule="evenodd" d="M8.43018 9.64453C9.44296 9.64466 10.3092 10.2956 10.6362 11.1992H20.8892C21.3292 11.1992 21.6821 11.5521 21.6821 11.9922C21.6819 12.4321 21.3291 12.7744 20.8892 12.7744H10.6401C10.3161 13.6863 9.44704 14.3485 8.43018 14.3486C7.41324 14.3486 6.54428 13.6863 6.22021 12.7744H2.71826C2.31748 12.7743 1.97535 12.4321 1.9751 11.9922C1.9751 11.5521 2.31733 11.1993 2.71826 11.1992H6.22412C6.55125 10.2956 7.41732 9.64453 8.43018 9.64453ZM8.43018 10.8477C7.79448 10.8477 7.28564 11.3467 7.28564 11.9922C7.2859 12.6276 7.79464 13.1357 8.43018 13.1357C9.07534 13.1356 9.57348 12.6275 9.57373 11.9922C9.57373 11.3468 9.0755 10.8478 8.43018 10.8477Z" fill="black" fill-opacity="0.2"/>
<path fill-rule="evenodd" clip-rule="evenodd" d="M8.43018 9.64453C9.44296 9.64466 10.3092 10.2956 10.6362 11.1992H20.8892C21.3292 11.1992 21.6821 11.5521 21.6821 11.9922C21.6819 12.4321 21.3291 12.7744 20.8892 12.7744H10.6401C10.3161 13.6863 9.44704 14.3485 8.43018 14.3486C7.41324 14.3486 6.54428 13.6863 6.22021 12.7744H2.71826C2.31748 12.7743 1.97535 12.4321 1.9751 11.9922C1.9751 11.5521 2.31733 11.1993 2.71826 11.1992H6.22412C6.55125 10.2956 7.41732 9.64453 8.43018 9.64453ZM8.43018 10.8477C7.79448 10.8477 7.28564 11.3467 7.28564 11.9922C7.2859 12.6276 7.79464 13.1357 8.43018 13.1357C9.07534 13.1356 9.57348 12.6275 9.57373 11.9922C9.57373 11.3468 9.0755 10.8478 8.43018 10.8477Z" fill="black" fill-opacity="0.2"/>
<path fill-rule="evenodd" clip-rule="evenodd" d="M8.43018 9.64453C9.44296 9.64466 10.3092 10.2956 10.6362 11.1992H20.8892C21.3292 11.1992 21.6821 11.5521 21.6821 11.9922C21.6819 12.4321 21.3291 12.7744 20.8892 12.7744H10.6401C10.3161 13.6863 9.44704 14.3485 8.43018 14.3486C7.41324 14.3486 6.54428 13.6863 6.22021 12.7744H2.71826C2.31748 12.7743 1.97535 12.4321 1.9751 11.9922C1.9751 11.5521 2.31733 11.1993 2.71826 11.1992H6.22412C6.55125 10.2956 7.41732 9.64453 8.43018 9.64453ZM8.43018 10.8477C7.79448 10.8477 7.28564 11.3467 7.28564 11.9922C7.2859 12.6276 7.79464 13.1357 8.43018 13.1357C9.07534 13.1356 9.57348 12.6275 9.57373 11.9922C9.57373 11.3468 9.0755 10.8478 8.43018 10.8477Z" fill="black" fill-opacity="0.2"/>
<path fill-rule="evenodd" clip-rule="evenodd" d="M8.43018 9.64453C9.44296 9.64466 10.3092 10.2956 10.6362 11.1992H20.8892C21.3292 11.1992 21.6821 11.5521 21.6821 11.9922C21.6819 12.4321 21.3291 12.7744 20.8892 12.7744H10.6401C10.3161 13.6863 9.44704 14.3485 8.43018 14.3486C7.41324 14.3486 6.54428 13.6863 6.22021 12.7744H2.71826C2.31748 12.7743 1.97535 12.4321 1.9751 11.9922C1.9751 11.5521 2.31733 11.1993 2.71826 11.1992H6.22412C6.55125 10.2956 7.41732 9.64453 8.43018 9.64453ZM8.43018 10.8477C7.79448 10.8477 7.28564 11.3467 7.28564 11.9922C7.2859 12.6276 7.79464 13.1357 8.43018 13.1357C9.07534 13.1356 9.57348 12.6275 9.57373 11.9922C9.57373 11.3468 9.0755 10.8478 8.43018 10.8477Z" fill="black" fill-opacity="0.2"/>
<path fill-rule="evenodd" clip-rule="evenodd" d="M15.3345 3.65918C16.3514 3.65918 17.2204 4.32153 17.5444 5.2334H20.9282C21.3292 5.2334 21.6821 5.5765 21.6821 6.0166C21.6819 6.45649 21.3291 6.80859 20.9282 6.80859H17.5405C17.2134 7.71225 16.3474 8.36328 15.3345 8.36328C14.3217 8.36326 13.4503 7.71212 13.1206 6.80859H2.75732C2.31746 6.8085 1.97533 6.45643 1.9751 6.0166C1.9751 5.57655 2.31731 5.23349 2.75732 5.2334H13.1167C13.4434 4.32166 14.3176 3.6592 15.3345 3.65918ZM15.3345 4.8623C14.6891 4.86233 14.1899 5.36137 14.1899 6.00684C14.1902 6.65208 14.6892 7.16013 15.3345 7.16016C15.9798 7.16016 16.4788 6.6521 16.479 6.00684C16.479 5.36136 15.9799 4.8623 15.3345 4.8623Z" fill="#1D1A24"/>
<path fill-rule="evenodd" clip-rule="evenodd" d="M15.3345 3.65918C16.3514 3.65918 17.2204 4.32153 17.5444 5.2334H20.9282C21.3292 5.2334 21.6821 5.5765 21.6821 6.0166C21.6819 6.45649 21.3291 6.80859 20.9282 6.80859H17.5405C17.2134 7.71225 16.3474 8.36328 15.3345 8.36328C14.3217 8.36326 13.4503 7.71212 13.1206 6.80859H2.75732C2.31746 6.8085 1.97533 6.45643 1.9751 6.0166C1.9751 5.57655 2.31731 5.23349 2.75732 5.2334H13.1167C13.4434 4.32166 14.3176 3.6592 15.3345 3.65918ZM15.3345 4.8623C14.6891 4.86233 14.1899 5.36137 14.1899 6.00684C14.1902 6.65208 14.6892 7.16013 15.3345 7.16016C15.9798 7.16016 16.4788 6.6521 16.479 6.00684C16.479 5.36136 15.9799 4.8623 15.3345 4.8623Z" fill="black" fill-opacity="0.2"/>
<path fill-rule="evenodd" clip-rule="evenodd" d="M15.3345 3.65918C16.3514 3.65918 17.2204 4.32153 17.5444 5.2334H20.9282C21.3292 5.2334 21.6821 5.5765 21.6821 6.0166C21.6819 6.45649 21.3291 6.80859 20.9282 6.80859H17.5405C17.2134 7.71225 16.3474 8.36328 15.3345 8.36328C14.3217 8.36326 13.4503 7.71212 13.1206 6.80859H2.75732C2.31746 6.8085 1.97533 6.45643 1.9751 6.0166C1.9751 5.57655 2.31731 5.23349 2.75732 5.2334H13.1167C13.4434 4.32166 14.3176 3.6592 15.3345 3.65918ZM15.3345 4.8623C14.6891 4.86233 14.1899 5.36137 14.1899 6.00684C14.1902 6.65208 14.6892 7.16013 15.3345 7.16016C15.9798 7.16016 16.4788 6.6521 16.479 6.00684C16.479 5.36136 15.9799 4.8623 15.3345 4.8623Z" fill="black" fill-opacity="0.2"/>
<path fill-rule="evenodd" clip-rule="evenodd" d="M15.3345 3.65918C16.3514 3.65918 17.2204 4.32153 17.5444 5.2334H20.9282C21.3292 5.2334 21.6821 5.5765 21.6821 6.0166C21.6819 6.45649 21.3291 6.80859 20.9282 6.80859H17.5405C17.2134 7.71225 16.3474 8.36328 15.3345 8.36328C14.3217 8.36326 13.4503 7.71212 13.1206 6.80859H2.75732C2.31746 6.8085 1.97533 6.45643 1.9751 6.0166C1.9751 5.57655 2.31731 5.23349 2.75732 5.2334H13.1167C13.4434 4.32166 14.3176 3.6592 15.3345 3.65918ZM15.3345 4.8623C14.6891 4.86233 14.1899 5.36137 14.1899 6.00684C14.1902 6.65208 14.6892 7.16013 15.3345 7.16016C15.9798 7.16016 16.4788 6.6521 16.479 6.00684C16.479 5.36136 15.9799 4.8623 15.3345 4.8623Z" fill="black" fill-opacity="0.2"/>
<path fill-rule="evenodd" clip-rule="evenodd" d="M15.3345 3.65918C16.3514 3.65918 17.2204 4.32153 17.5444 5.2334H20.9282C21.3292 5.2334 21.6821 5.5765 21.6821 6.0166C21.6819 6.45649 21.3291 6.80859 20.9282 6.80859H17.5405C17.2134 7.71225 16.3474 8.36328 15.3345 8.36328C14.3217 8.36326 13.4503 7.71212 13.1206 6.80859H2.75732C2.31746 6.8085 1.97533 6.45643 1.9751 6.0166C1.9751 5.57655 2.31731 5.23349 2.75732 5.2334H13.1167C13.4434 4.32166 14.3176 3.6592 15.3345 3.65918ZM15.3345 4.8623C14.6891 4.86233 14.1899 5.36137 14.1899 6.00684C14.1902 6.65208 14.6892 7.16013 15.3345 7.16016C15.9798 7.16016 16.4788 6.6521 16.479 6.00684C16.479 5.36136 15.9799 4.8623 15.3345 4.8623Z" fill="black" fill-opacity="0.2"/>
<path fill-rule="evenodd" clip-rule="evenodd" d="M15.3345 3.65918C16.3514 3.65918 17.2204 4.32153 17.5444 5.2334H20.9282C21.3292 5.2334 21.6821 5.5765 21.6821 6.0166C21.6819 6.45649 21.3291 6.80859 20.9282 6.80859H17.5405C17.2134 7.71225 16.3474 8.36328 15.3345 8.36328C14.3217 8.36326 13.4503 7.71212 13.1206 6.80859H2.75732C2.31746 6.8085 1.97533 6.45643 1.9751 6.0166C1.9751 5.57655 2.31731 5.23349 2.75732 5.2334H13.1167C13.4434 4.32166 14.3176 3.6592 15.3345 3.65918ZM15.3345 4.8623C14.6891 4.86233 14.1899 5.36137 14.1899 6.00684C14.1902 6.65208 14.6892 7.16013 15.3345 7.16016C15.9798 7.16016 16.4788 6.6521 16.479 6.00684C16.479 5.36136 15.9799 4.8623 15.3345 4.8623Z" fill="black" fill-opacity="0.2"/>
</svg>
