<svg width="24" height="24" viewBox="0 0 24 24" fill="none" xmlns="http://www.w3.org/2000/svg">
<path fill-rule="evenodd" clip-rule="evenodd" d="M19 8.83301C20.4726 8.83318 21.666 10.0273 21.666 11.5V19C21.6658 20.4725 20.4725 21.6658 19 21.666H11.5C10.0273 21.666 8.83318 20.4726 8.83301 19V11.5C8.83301 10.0272 10.0272 8.83301 11.5 8.83301H19ZM11.5 10.833C11.1318 10.833 10.833 11.1318 10.833 11.5V19C10.8332 19.368 11.1319 19.666 11.5 19.666H19C19.3679 19.6658 19.6658 19.3679 19.666 19V11.5C19.666 11.1319 19.368 10.8332 19 10.833H11.5Z" fill="#1D1A24"/>
<path fill-rule="evenodd" clip-rule="evenodd" d="M19 8.83301C20.4726 8.83318 21.666 10.0273 21.666 11.5V19C21.6658 20.4725 20.4725 21.6658 19 21.666H11.5C10.0273 21.666 8.83318 20.4726 8.83301 19V11.5C8.83301 10.0272 10.0272 8.83301 11.5 8.83301H19ZM11.5 10.833C11.1318 10.833 10.833 11.1318 10.833 11.5V19C10.8332 19.368 11.1319 19.666 11.5 19.666H19C19.3679 19.6658 19.6658 19.3679 19.666 19V11.5C19.666 11.1319 19.368 10.8332 19 10.833H11.5Z" fill="black" fill-opacity="0.2"/>
<path fill-rule="evenodd" clip-rule="evenodd" d="M19 8.83301C20.4726 8.83318 21.666 10.0273 21.666 11.5V19C21.6658 20.4725 20.4725 21.6658 19 21.666H11.5C10.0273 21.666 8.83318 20.4726 8.83301 19V11.5C8.83301 10.0272 10.0272 8.83301 11.5 8.83301H19ZM11.5 10.833C11.1318 10.833 10.833 11.1318 10.833 11.5V19C10.8332 19.368 11.1319 19.666 11.5 19.666H19C19.3679 19.6658 19.6658 19.3679 19.666 19V11.5C19.666 11.1319 19.368 10.8332 19 10.833H11.5Z" fill="black" fill-opacity="0.2"/>
<path fill-rule="evenodd" clip-rule="evenodd" d="M19 8.83301C20.4726 8.83318 21.666 10.0273 21.666 11.5V19C21.6658 20.4725 20.4725 21.6658 19 21.666H11.5C10.0273 21.666 8.83318 20.4726 8.83301 19V11.5C8.83301 10.0272 10.0272 8.83301 11.5 8.83301H19ZM11.5 10.833C11.1318 10.833 10.833 11.1318 10.833 11.5V19C10.8332 19.368 11.1319 19.666 11.5 19.666H19C19.3679 19.6658 19.6658 19.3679 19.666 19V11.5C19.666 11.1319 19.368 10.8332 19 10.833H11.5Z" fill="black" fill-opacity="0.2"/>
<path fill-rule="evenodd" clip-rule="evenodd" d="M19 8.83301C20.4726 8.83318 21.666 10.0273 21.666 11.5V19C21.6658 20.4725 20.4725 21.6658 19 21.666H11.5C10.0273 21.666 8.83318 20.4726 8.83301 19V11.5C8.83301 10.0272 10.0272 8.83301 11.5 8.83301H19ZM11.5 10.833C11.1318 10.833 10.833 11.1318 10.833 11.5V19C10.8332 19.368 11.1319 19.666 11.5 19.666H19C19.3679 19.6658 19.6658 19.3679 19.666 19V11.5C19.666 11.1319 19.368 10.8332 19 10.833H11.5Z" fill="black" fill-opacity="0.2"/>
<path fill-rule="evenodd" clip-rule="evenodd" d="M19 8.83301C20.4726 8.83318 21.666 10.0273 21.666 11.5V19C21.6658 20.4725 20.4725 21.6658 19 21.666H11.5C10.0273 21.666 8.83318 20.4726 8.83301 19V11.5C8.83301 10.0272 10.0272 8.83301 11.5 8.83301H19ZM11.5 10.833C11.1318 10.833 10.833 11.1318 10.833 11.5V19C10.8332 19.368 11.1319 19.666 11.5 19.666H19C19.3679 19.6658 19.6658 19.3679 19.666 19V11.5C19.666 11.1319 19.368 10.8332 19 10.833H11.5Z" fill="black" fill-opacity="0.2"/>
<path d="M13.167 3C13.874 3.00015 14.5528 3.28129 15.0527 3.78125C15.5525 4.28129 15.833 4.96002 15.833 5.66699V6.5C15.8329 7.05209 15.3851 7.49987 14.833 7.5C14.281 7.49982 13.8331 7.05206 13.833 6.5V5.66699C13.833 5.4903 13.7626 5.32031 13.6377 5.19531C13.5128 5.07052 13.3435 5.00015 13.167 5H5.66699C5.49018 5 5.32034 5.07029 5.19531 5.19531C5.07029 5.32034 5 5.49018 5 5.66699V13.167C5.00015 13.3435 5.07052 13.5128 5.19531 13.6377C5.32031 13.7626 5.4903 13.833 5.66699 13.833H6.5C7.05206 13.8331 7.49982 14.281 7.5 14.833C7.49987 15.3851 7.05209 15.8329 6.5 15.833H5.66699C4.96002 15.833 4.28129 15.5525 3.78125 15.0527C3.28129 14.5528 3.00015 13.874 3 13.167V5.66699C3 4.95975 3.28115 4.28135 3.78125 3.78125C4.28135 3.28115 4.95975 3 5.66699 3H13.167Z" fill="#1D1A24"/>
<path d="M13.167 3C13.874 3.00015 14.5528 3.28129 15.0527 3.78125C15.5525 4.28129 15.833 4.96002 15.833 5.66699V6.5C15.8329 7.05209 15.3851 7.49987 14.833 7.5C14.281 7.49982 13.8331 7.05206 13.833 6.5V5.66699C13.833 5.4903 13.7626 5.32031 13.6377 5.19531C13.5128 5.07052 13.3435 5.00015 13.167 5H5.66699C5.49018 5 5.32034 5.07029 5.19531 5.19531C5.07029 5.32034 5 5.49018 5 5.66699V13.167C5.00015 13.3435 5.07052 13.5128 5.19531 13.6377C5.32031 13.7626 5.4903 13.833 5.66699 13.833H6.5C7.05206 13.8331 7.49982 14.281 7.5 14.833C7.49987 15.3851 7.05209 15.8329 6.5 15.833H5.66699C4.96002 15.833 4.28129 15.5525 3.78125 15.0527C3.28129 14.5528 3.00015 13.874 3 13.167V5.66699C3 4.95975 3.28115 4.28135 3.78125 3.78125C4.28135 3.28115 4.95975 3 5.66699 3H13.167Z" fill="black" fill-opacity="0.2"/>
<path d="M13.167 3C13.874 3.00015 14.5528 3.28129 15.0527 3.78125C15.5525 4.28129 15.833 4.96002 15.833 5.66699V6.5C15.8329 7.05209 15.3851 7.49987 14.833 7.5C14.281 7.49982 13.8331 7.05206 13.833 6.5V5.66699C13.833 5.4903 13.7626 5.32031 13.6377 5.19531C13.5128 5.07052 13.3435 5.00015 13.167 5H5.66699C5.49018 5 5.32034 5.07029 5.19531 5.19531C5.07029 5.32034 5 5.49018 5 5.66699V13.167C5.00015 13.3435 5.07052 13.5128 5.19531 13.6377C5.32031 13.7626 5.4903 13.833 5.66699 13.833H6.5C7.05206 13.8331 7.49982 14.281 7.5 14.833C7.49987 15.3851 7.05209 15.8329 6.5 15.833H5.66699C4.96002 15.833 4.28129 15.5525 3.78125 15.0527C3.28129 14.5528 3.00015 13.874 3 13.167V5.66699C3 4.95975 3.28115 4.28135 3.78125 3.78125C4.28135 3.28115 4.95975 3 5.66699 3H13.167Z" fill="black" fill-opacity="0.2"/>
<path d="M13.167 3C13.874 3.00015 14.5528 3.28129 15.0527 3.78125C15.5525 4.28129 15.833 4.96002 15.833 5.66699V6.5C15.8329 7.05209 15.3851 7.49987 14.833 7.5C14.281 7.49982 13.8331 7.05206 13.833 6.5V5.66699C13.833 5.4903 13.7626 5.32031 13.6377 5.19531C13.5128 5.07052 13.3435 5.00015 13.167 5H5.66699C5.49018 5 5.32034 5.07029 5.19531 5.19531C5.07029 5.32034 5 5.49018 5 5.66699V13.167C5.00015 13.3435 5.07052 13.5128 5.19531 13.6377C5.32031 13.7626 5.4903 13.833 5.66699 13.833H6.5C7.05206 13.8331 7.49982 14.281 7.5 14.833C7.49987 15.3851 7.05209 15.8329 6.5 15.833H5.66699C4.96002 15.833 4.28129 15.5525 3.78125 15.0527C3.28129 14.5528 3.00015 13.874 3 13.167V5.66699C3 4.95975 3.28115 4.28135 3.78125 3.78125C4.28135 3.28115 4.95975 3 5.66699 3H13.167Z" fill="black" fill-opacity="0.2"/>
<path d="M13.167 3C13.874 3.00015 14.5528 3.28129 15.0527 3.78125C15.5525 4.28129 15.833 4.96002 15.833 5.66699V6.5C15.8329 7.05209 15.3851 7.49987 14.833 7.5C14.281 7.49982 13.8331 7.05206 13.833 6.5V5.66699C13.833 5.4903 13.7626 5.32031 13.6377 5.19531C13.5128 5.07052 13.3435 5.00015 13.167 5H5.66699C5.49018 5 5.32034 5.07029 5.19531 5.19531C5.07029 5.32034 5 5.49018 5 5.66699V13.167C5.00015 13.3435 5.07052 13.5128 5.19531 13.6377C5.32031 13.7626 5.4903 13.833 5.66699 13.833H6.5C7.05206 13.8331 7.49982 14.281 7.5 14.833C7.49987 15.3851 7.05209 15.8329 6.5 15.833H5.66699C4.96002 15.833 4.28129 15.5525 3.78125 15.0527C3.28129 14.5528 3.00015 13.874 3 13.167V5.66699C3 4.95975 3.28115 4.28135 3.78125 3.78125C4.28135 3.28115 4.95975 3 5.66699 3H13.167Z" fill="black" fill-opacity="0.2"/>
<path d="M13.167 3C13.874 3.00015 14.5528 3.28129 15.0527 3.78125C15.5525 4.28129 15.833 4.96002 15.833 5.66699V6.5C15.8329 7.05209 15.3851 7.49987 14.833 7.5C14.281 7.49982 13.8331 7.05206 13.833 6.5V5.66699C13.833 5.4903 13.7626 5.32031 13.6377 5.19531C13.5128 5.07052 13.3435 5.00015 13.167 5H5.66699C5.49018 5 5.32034 5.07029 5.19531 5.19531C5.07029 5.32034 5 5.49018 5 5.66699V13.167C5.00015 13.3435 5.07052 13.5128 5.19531 13.6377C5.32031 13.7626 5.4903 13.833 5.66699 13.833H6.5C7.05206 13.8331 7.49982 14.281 7.5 14.833C7.49987 15.3851 7.05209 15.8329 6.5 15.833H5.66699C4.96002 15.833 4.28129 15.5525 3.78125 15.0527C3.28129 14.5528 3.00015 13.874 3 13.167V5.66699C3 4.95975 3.28115 4.28135 3.78125 3.78125C4.28135 3.28115 4.95975 3 5.66699 3H13.167Z" fill="black" fill-opacity="0.2"/>
</svg>
