<svg width="24" height="24" viewBox="0 0 24 24" fill="none" xmlns="http://www.w3.org/2000/svg">
<path d="M13.391 8.41992C13.5754 8.11277 13.9741 8.01187 14.2826 8.19629C14.5897 8.38071 14.6893 8.78009 14.5043 9.08789L10.6078 15.5811C10.4864 15.7836 10.2719 15.8964 10.0511 15.8965C9.93764 15.8965 9.82191 15.8669 9.71812 15.8047C9.41031 15.6203 9.31104 15.2209 9.49546 14.9131L13.391 8.41992Z" fill="#1D1A24"/>
<path d="M13.391 8.41992C13.5754 8.11277 13.9741 8.01187 14.2826 8.19629C14.5897 8.38071 14.6893 8.78009 14.5043 9.08789L10.6078 15.5811C10.4864 15.7836 10.2719 15.8964 10.0511 15.8965C9.93764 15.8965 9.82191 15.8669 9.71812 15.8047C9.41031 15.6203 9.31104 15.2209 9.49546 14.9131L13.391 8.41992Z" fill="black" fill-opacity="0.2"/>
<path d="M13.391 8.41992C13.5754 8.11277 13.9741 8.01187 14.2826 8.19629C14.5897 8.38071 14.6893 8.78009 14.5043 9.08789L10.6078 15.5811C10.4864 15.7836 10.2719 15.8964 10.0511 15.8965C9.93764 15.8965 9.82191 15.8669 9.71812 15.8047C9.41031 15.6203 9.31104 15.2209 9.49546 14.9131L13.391 8.41992Z" fill="black" fill-opacity="0.2"/>
<path d="M13.391 8.41992C13.5754 8.11277 13.9741 8.01187 14.2826 8.19629C14.5897 8.38071 14.6893 8.78009 14.5043 9.08789L10.6078 15.5811C10.4864 15.7836 10.2719 15.8964 10.0511 15.8965C9.93764 15.8965 9.82191 15.8669 9.71812 15.8047C9.41031 15.6203 9.31104 15.2209 9.49546 14.9131L13.391 8.41992Z" fill="black" fill-opacity="0.2"/>
<path d="M13.391 8.41992C13.5754 8.11277 13.9741 8.01187 14.2826 8.19629C14.5897 8.38071 14.6893 8.78009 14.5043 9.08789L10.6078 15.5811C10.4864 15.7836 10.2719 15.8964 10.0511 15.8965C9.93764 15.8965 9.82191 15.8669 9.71812 15.8047C9.41031 15.6203 9.31104 15.2209 9.49546 14.9131L13.391 8.41992Z" fill="black" fill-opacity="0.2"/>
<path d="M13.391 8.41992C13.5754 8.11277 13.9741 8.01187 14.2826 8.19629C14.5897 8.38071 14.6893 8.78009 14.5043 9.08789L10.6078 15.5811C10.4864 15.7836 10.2719 15.8964 10.0511 15.8965C9.93764 15.8965 9.82191 15.8669 9.71812 15.8047C9.41031 15.6203 9.31104 15.2209 9.49546 14.9131L13.391 8.41992Z" fill="black" fill-opacity="0.2"/>
<path d="M14.597 13.2988C15.3143 13.2988 15.8958 13.8804 15.8959 14.5977C15.8959 15.3149 15.3143 15.8965 14.597 15.8965C13.8798 15.8964 13.2982 15.3149 13.2982 14.5977C13.2983 13.8805 13.8799 13.299 14.597 13.2988Z" fill="#1D1A24"/>
<path d="M14.597 13.2988C15.3143 13.2988 15.8958 13.8804 15.8959 14.5977C15.8959 15.3149 15.3143 15.8965 14.597 15.8965C13.8798 15.8964 13.2982 15.3149 13.2982 14.5977C13.2983 13.8805 13.8799 13.299 14.597 13.2988Z" fill="black" fill-opacity="0.2"/>
<path d="M14.597 13.2988C15.3143 13.2988 15.8958 13.8804 15.8959 14.5977C15.8959 15.3149 15.3143 15.8965 14.597 15.8965C13.8798 15.8964 13.2982 15.3149 13.2982 14.5977C13.2983 13.8805 13.8799 13.299 14.597 13.2988Z" fill="black" fill-opacity="0.2"/>
<path d="M14.597 13.2988C15.3143 13.2988 15.8958 13.8804 15.8959 14.5977C15.8959 15.3149 15.3143 15.8965 14.597 15.8965C13.8798 15.8964 13.2982 15.3149 13.2982 14.5977C13.2983 13.8805 13.8799 13.299 14.597 13.2988Z" fill="black" fill-opacity="0.2"/>
<path d="M14.597 13.2988C15.3143 13.2988 15.8958 13.8804 15.8959 14.5977C15.8959 15.3149 15.3143 15.8965 14.597 15.8965C13.8798 15.8964 13.2982 15.3149 13.2982 14.5977C13.2983 13.8805 13.8799 13.299 14.597 13.2988Z" fill="black" fill-opacity="0.2"/>
<path d="M14.597 13.2988C15.3143 13.2988 15.8958 13.8804 15.8959 14.5977C15.8959 15.3149 15.3143 15.8965 14.597 15.8965C13.8798 15.8964 13.2982 15.3149 13.2982 14.5977C13.2983 13.8805 13.8799 13.299 14.597 13.2988Z" fill="black" fill-opacity="0.2"/>
<path d="M9.40269 8.10352C10.1196 8.10377 10.7003 8.68539 10.7005 9.40234C10.7005 10.1195 10.1198 10.7009 9.40269 10.7012C8.6854 10.7012 8.10386 10.1196 8.10386 9.40234C8.10407 8.68524 8.68553 8.10352 9.40269 8.10352Z" fill="#1D1A24"/>
<path d="M9.40269 8.10352C10.1196 8.10377 10.7003 8.68539 10.7005 9.40234C10.7005 10.1195 10.1198 10.7009 9.40269 10.7012C8.6854 10.7012 8.10386 10.1196 8.10386 9.40234C8.10407 8.68524 8.68553 8.10352 9.40269 8.10352Z" fill="black" fill-opacity="0.2"/>
<path d="M9.40269 8.10352C10.1196 8.10377 10.7003 8.68539 10.7005 9.40234C10.7005 10.1195 10.1198 10.7009 9.40269 10.7012C8.6854 10.7012 8.10386 10.1196 8.10386 9.40234C8.10407 8.68524 8.68553 8.10352 9.40269 8.10352Z" fill="black" fill-opacity="0.2"/>
<path d="M9.40269 8.10352C10.1196 8.10377 10.7003 8.68539 10.7005 9.40234C10.7005 10.1195 10.1198 10.7009 9.40269 10.7012C8.6854 10.7012 8.10386 10.1196 8.10386 9.40234C8.10407 8.68524 8.68553 8.10352 9.40269 8.10352Z" fill="black" fill-opacity="0.2"/>
<path d="M9.40269 8.10352C10.1196 8.10377 10.7003 8.68539 10.7005 9.40234C10.7005 10.1195 10.1198 10.7009 9.40269 10.7012C8.6854 10.7012 8.10386 10.1196 8.10386 9.40234C8.10407 8.68524 8.68553 8.10352 9.40269 8.10352Z" fill="black" fill-opacity="0.2"/>
<path d="M9.40269 8.10352C10.1196 8.10377 10.7003 8.68539 10.7005 9.40234C10.7005 10.1195 10.1198 10.7009 9.40269 10.7012C8.6854 10.7012 8.10386 10.1196 8.10386 9.40234C8.10407 8.68524 8.68553 8.10352 9.40269 8.10352Z" fill="black" fill-opacity="0.2"/>
<path fill-rule="evenodd" clip-rule="evenodd" d="M11.9994 2C12.8825 2.00003 13.5621 2.53953 14.0873 2.94922C14.2461 3.07303 14.3917 3.1868 14.5287 3.2793C14.6673 3.37295 14.7814 3.43425 14.8734 3.46289C14.9784 3.49559 15.124 3.51146 15.306 3.51465C15.4858 3.51779 15.6821 3.50788 15.8861 3.49805C16.5453 3.46651 17.408 3.41539 18.1019 3.89746L18.1029 3.89844C18.8147 4.39507 19.0363 5.2176 19.2103 5.84082C19.2645 6.03398 19.3143 6.21095 19.3695 6.36523C19.4251 6.52061 19.4803 6.63457 19.5375 6.70996C19.5942 6.78439 19.6944 6.87285 19.8353 6.97363C19.9736 7.07256 20.1343 7.17233 20.3011 7.27539C20.8658 7.62514 21.6181 8.07841 21.8959 8.89844C22.1677 9.70118 21.8435 10.4884 21.6068 11.082C21.534 11.2646 21.4643 11.4397 21.4125 11.6025C21.3599 11.7678 21.3325 11.9009 21.3324 12C21.3324 12.099 21.3597 12.232 21.4125 12.3975C21.4645 12.5605 21.5339 12.7361 21.6068 12.9189C21.8288 13.4758 22.1278 14.2022 21.9408 14.9521L21.8968 15.1025C21.6183 15.9215 20.8667 16.3752 20.3021 16.7256C20.1353 16.8288 19.9748 16.9286 19.8363 17.0273C19.695 17.1282 19.5947 17.2161 19.5384 17.29C19.4811 17.3655 19.4262 17.4799 19.3705 17.6357C19.3429 17.7128 19.3164 17.7954 19.2904 17.8828L19.2113 18.1592C19.0476 18.7432 18.843 19.5034 18.2308 20.0049L18.1029 20.1016C17.4096 20.5853 16.5442 20.5345 15.8871 20.5029L15.8861 20.502C15.6826 20.4918 15.4863 20.4831 15.307 20.4863C15.1251 20.4897 14.9789 20.5054 14.8734 20.5381C14.7811 20.5668 14.6672 20.6281 14.5287 20.7217C14.4603 20.7679 14.39 20.8197 14.3168 20.875L14.0873 21.0518C13.5616 21.4613 12.8824 22.0009 11.9994 22.001C11.3373 22.0008 10.79 21.6974 10.3363 21.373L9.91245 21.0518C9.7536 20.9279 9.608 20.8142 9.47105 20.7217C9.33237 20.628 9.21831 20.5668 9.12632 20.5381C9.02199 20.5057 8.87686 20.4895 8.69468 20.4863C8.51457 20.4832 8.31719 20.4934 8.11265 20.5029C7.4528 20.5338 6.59151 20.5853 5.89781 20.1035L5.89683 20.1025C5.18492 19.606 4.96341 18.7834 4.78941 18.1602L4.71031 17.8838C4.68424 17.7962 4.65788 17.713 4.63023 17.6357C4.57442 17.4799 4.51862 17.3655 4.46128 17.29C4.40449 17.2156 4.30419 17.128 4.16343 17.0273C4.02507 16.9284 3.86451 16.8287 3.69761 16.7256C3.13298 16.3758 2.38175 15.9226 2.10386 15.1025C1.83182 14.2998 2.15618 13.5127 2.39292 12.9189C2.46574 12.7363 2.53539 12.5604 2.58726 12.3975C2.63984 12.2322 2.6673 12.0991 2.66734 12C2.66725 11.9011 2.63993 11.7687 2.58726 11.6035C2.53523 11.4405 2.4658 11.2649 2.39292 11.082C2.15607 10.488 1.83164 9.70022 2.10288 8.89746C2.38146 8.07862 3.13304 7.62572 3.69761 7.27539L3.69859 7.27441C3.86523 7.17162 4.02511 7.07225 4.16343 6.97363C4.30461 6.87296 4.40505 6.7858 4.46128 6.71191C4.51862 6.63649 4.57334 6.52209 4.62925 6.36621C4.6846 6.2118 4.73482 6.03513 4.78941 5.8418C4.95245 5.25777 5.15672 4.49699 5.7689 3.99609L5.89683 3.89941C6.59077 3.41592 7.45617 3.46781 8.11265 3.49805L8.41148 3.51172C8.50858 3.51489 8.60278 3.51626 8.69273 3.51465C8.82924 3.5122 8.94548 3.50185 9.03941 3.4834L9.12632 3.46191C9.2184 3.43321 9.33193 3.37256 9.47007 3.2793C9.60699 3.18683 9.75295 3.07303 9.91148 2.94922C10.437 2.53968 11.1165 2.00018 11.9994 2ZM11.9994 3.81836C11.9054 3.8185 11.776 3.86299 11.599 3.9707C11.4252 4.07646 11.2388 4.22174 11.0316 4.38379L11.0306 4.38477C10.693 4.64665 10.3113 4.9465 9.86265 5.12891L9.66636 5.19922C9.11518 5.3703 8.53213 5.34035 8.02476 5.31543C7.77483 5.30198 7.53664 5.29036 7.33335 5.30176C7.12028 5.31374 6.9955 5.34941 6.93687 5.39062L6.93589 5.3916C6.88077 5.43001 6.81091 5.52657 6.7357 5.71191C6.66366 5.88955 6.60337 6.10417 6.53941 6.33301C6.40669 6.80708 6.25631 7.35495 5.90855 7.8125C5.56782 8.26075 5.07699 8.56109 4.65464 8.82227C4.44394 8.95264 4.24514 9.07548 4.08726 9.19824C3.96204 9.29561 3.88839 9.3737 3.85093 9.43164L3.82554 9.48242C3.81209 9.52241 3.81202 9.62419 3.86558 9.81445C3.91553 9.99175 3.9955 10.1943 4.0814 10.4092C4.25915 10.8539 4.48558 11.414 4.4857 12C4.48564 12.5862 4.25832 13.1476 4.0814 13.5918C3.99576 13.8069 3.9156 14.0092 3.86558 14.1865C3.81187 14.3771 3.81208 14.4788 3.82554 14.5186C3.84566 14.5775 3.92078 14.6732 4.08726 14.8027C4.24507 14.9255 4.44411 15.0484 4.65464 15.1787C5.0252 15.4075 5.44586 15.6663 5.77378 16.0273L5.90855 16.1885L6.02964 16.3643C6.2933 16.7822 6.42331 17.2538 6.53941 17.668C6.60374 17.8969 6.6636 18.1114 6.7357 18.2891C6.81106 18.4747 6.8815 18.5717 6.93687 18.6104C6.99608 18.6515 7.12074 18.6863 7.33433 18.6982C7.53812 18.7096 7.77496 18.699 8.02476 18.6865L8.02671 18.6855C8.21726 18.6773 8.42108 18.667 8.62437 18.667C8.96355 18.667 9.31804 18.6942 9.66538 18.8018C10.2012 18.9682 10.6439 19.3169 11.0296 19.6172C11.2373 19.779 11.4241 19.9245 11.598 20.0303C11.7754 20.1381 11.9053 20.1825 11.9994 20.1826C12.0934 20.1826 12.2235 20.1381 12.4007 20.0303C12.5745 19.9245 12.7609 19.7792 12.9681 19.6172L12.9691 19.6162C13.3549 19.317 13.7981 18.9682 14.3334 18.8018C14.8844 18.6307 15.4667 18.6606 15.974 18.6855C16.2239 18.698 16.4616 18.7095 16.6654 18.6982C16.879 18.6864 17.0039 18.6505 17.0628 18.6094C17.1179 18.571 17.1886 18.4739 17.264 18.2881C17.3361 18.1106 17.3964 17.8964 17.4603 17.668L17.5658 17.3008C17.6803 16.9254 17.8304 16.5316 18.0912 16.1885C18.4319 15.7402 18.9227 15.4399 19.3451 15.1787C19.5557 15.0484 19.7546 14.9255 19.9125 14.8027C20.0786 14.6735 20.1536 14.578 20.1742 14.5186C20.1877 14.4787 20.1877 14.3769 20.1341 14.1865C20.0842 14.0092 20.0042 13.8067 19.9183 13.5918C19.7413 13.1473 19.5141 12.5868 19.514 12C19.5141 11.4133 19.7414 10.8528 19.9183 10.4092C20.004 10.194 20.0851 9.9919 20.1351 9.81445C20.1887 9.6243 20.1885 9.5224 20.1751 9.48242C20.1552 9.42354 20.0801 9.328 19.9134 9.19824C19.8346 9.13686 19.7454 9.07516 19.6498 9.0127L19.346 8.82227C18.9226 8.56078 18.4334 8.26035 18.0921 7.8125C17.7445 7.35508 17.5939 6.80615 17.4613 6.33301C17.397 6.10406 17.3361 5.88963 17.264 5.71191C17.1888 5.52667 17.1191 5.42954 17.0638 5.39062C17.0047 5.34937 16.8797 5.31366 16.6664 5.30176C16.4628 5.29042 16.2259 5.30164 15.9759 5.31445H15.974C15.4662 5.33803 14.8853 5.37008 14.3343 5.19922C13.7984 5.03281 13.3549 4.68413 12.9691 4.38379C12.7615 4.22198 12.5756 4.07648 12.4017 3.9707C12.224 3.86268 12.0935 3.81838 11.9994 3.81836Z" fill="#1D1A24"/>
<path fill-rule="evenodd" clip-rule="evenodd" d="M11.9994 2C12.8825 2.00003 13.5621 2.53953 14.0873 2.94922C14.2461 3.07303 14.3917 3.1868 14.5287 3.2793C14.6673 3.37295 14.7814 3.43425 14.8734 3.46289C14.9784 3.49559 15.124 3.51146 15.306 3.51465C15.4858 3.51779 15.6821 3.50788 15.8861 3.49805C16.5453 3.46651 17.408 3.41539 18.1019 3.89746L18.1029 3.89844C18.8147 4.39507 19.0363 5.2176 19.2103 5.84082C19.2645 6.03398 19.3143 6.21095 19.3695 6.36523C19.4251 6.52061 19.4803 6.63457 19.5375 6.70996C19.5942 6.78439 19.6944 6.87285 19.8353 6.97363C19.9736 7.07256 20.1343 7.17233 20.3011 7.27539C20.8658 7.62514 21.6181 8.07841 21.8959 8.89844C22.1677 9.70118 21.8435 10.4884 21.6068 11.082C21.534 11.2646 21.4643 11.4397 21.4125 11.6025C21.3599 11.7678 21.3325 11.9009 21.3324 12C21.3324 12.099 21.3597 12.232 21.4125 12.3975C21.4645 12.5605 21.5339 12.7361 21.6068 12.9189C21.8288 13.4758 22.1278 14.2022 21.9408 14.9521L21.8968 15.1025C21.6183 15.9215 20.8667 16.3752 20.3021 16.7256C20.1353 16.8288 19.9748 16.9286 19.8363 17.0273C19.695 17.1282 19.5947 17.2161 19.5384 17.29C19.4811 17.3655 19.4262 17.4799 19.3705 17.6357C19.3429 17.7128 19.3164 17.7954 19.2904 17.8828L19.2113 18.1592C19.0476 18.7432 18.843 19.5034 18.2308 20.0049L18.1029 20.1016C17.4096 20.5853 16.5442 20.5345 15.8871 20.5029L15.8861 20.502C15.6826 20.4918 15.4863 20.4831 15.307 20.4863C15.1251 20.4897 14.9789 20.5054 14.8734 20.5381C14.7811 20.5668 14.6672 20.6281 14.5287 20.7217C14.4603 20.7679 14.39 20.8197 14.3168 20.875L14.0873 21.0518C13.5616 21.4613 12.8824 22.0009 11.9994 22.001C11.3373 22.0008 10.79 21.6974 10.3363 21.373L9.91245 21.0518C9.7536 20.9279 9.608 20.8142 9.47105 20.7217C9.33237 20.628 9.21831 20.5668 9.12632 20.5381C9.02199 20.5057 8.87686 20.4895 8.69468 20.4863C8.51457 20.4832 8.31719 20.4934 8.11265 20.5029C7.4528 20.5338 6.59151 20.5853 5.89781 20.1035L5.89683 20.1025C5.18492 19.606 4.96341 18.7834 4.78941 18.1602L4.71031 17.8838C4.68424 17.7962 4.65788 17.713 4.63023 17.6357C4.57442 17.4799 4.51862 17.3655 4.46128 17.29C4.40449 17.2156 4.30419 17.128 4.16343 17.0273C4.02507 16.9284 3.86451 16.8287 3.69761 16.7256C3.13298 16.3758 2.38175 15.9226 2.10386 15.1025C1.83182 14.2998 2.15618 13.5127 2.39292 12.9189C2.46574 12.7363 2.53539 12.5604 2.58726 12.3975C2.63984 12.2322 2.6673 12.0991 2.66734 12C2.66725 11.9011 2.63993 11.7687 2.58726 11.6035C2.53523 11.4405 2.4658 11.2649 2.39292 11.082C2.15607 10.488 1.83164 9.70022 2.10288 8.89746C2.38146 8.07862 3.13304 7.62572 3.69761 7.27539L3.69859 7.27441C3.86523 7.17162 4.02511 7.07225 4.16343 6.97363C4.30461 6.87296 4.40505 6.7858 4.46128 6.71191C4.51862 6.63649 4.57334 6.52209 4.62925 6.36621C4.6846 6.2118 4.73482 6.03513 4.78941 5.8418C4.95245 5.25777 5.15672 4.49699 5.7689 3.99609L5.89683 3.89941C6.59077 3.41592 7.45617 3.46781 8.11265 3.49805L8.41148 3.51172C8.50858 3.51489 8.60278 3.51626 8.69273 3.51465C8.82924 3.5122 8.94548 3.50185 9.03941 3.4834L9.12632 3.46191C9.2184 3.43321 9.33193 3.37256 9.47007 3.2793C9.60699 3.18683 9.75295 3.07303 9.91148 2.94922C10.437 2.53968 11.1165 2.00018 11.9994 2ZM11.9994 3.81836C11.9054 3.8185 11.776 3.86299 11.599 3.9707C11.4252 4.07646 11.2388 4.22174 11.0316 4.38379L11.0306 4.38477C10.693 4.64665 10.3113 4.9465 9.86265 5.12891L9.66636 5.19922C9.11518 5.3703 8.53213 5.34035 8.02476 5.31543C7.77483 5.30198 7.53664 5.29036 7.33335 5.30176C7.12028 5.31374 6.9955 5.34941 6.93687 5.39062L6.93589 5.3916C6.88077 5.43001 6.81091 5.52657 6.7357 5.71191C6.66366 5.88955 6.60337 6.10417 6.53941 6.33301C6.40669 6.80708 6.25631 7.35495 5.90855 7.8125C5.56782 8.26075 5.07699 8.56109 4.65464 8.82227C4.44394 8.95264 4.24514 9.07548 4.08726 9.19824C3.96204 9.29561 3.88839 9.3737 3.85093 9.43164L3.82554 9.48242C3.81209 9.52241 3.81202 9.62419 3.86558 9.81445C3.91553 9.99175 3.9955 10.1943 4.0814 10.4092C4.25915 10.8539 4.48558 11.414 4.4857 12C4.48564 12.5862 4.25832 13.1476 4.0814 13.5918C3.99576 13.8069 3.9156 14.0092 3.86558 14.1865C3.81187 14.3771 3.81208 14.4788 3.82554 14.5186C3.84566 14.5775 3.92078 14.6732 4.08726 14.8027C4.24507 14.9255 4.44411 15.0484 4.65464 15.1787C5.0252 15.4075 5.44586 15.6663 5.77378 16.0273L5.90855 16.1885L6.02964 16.3643C6.2933 16.7822 6.42331 17.2538 6.53941 17.668C6.60374 17.8969 6.6636 18.1114 6.7357 18.2891C6.81106 18.4747 6.8815 18.5717 6.93687 18.6104C6.99608 18.6515 7.12074 18.6863 7.33433 18.6982C7.53812 18.7096 7.77496 18.699 8.02476 18.6865L8.02671 18.6855C8.21726 18.6773 8.42108 18.667 8.62437 18.667C8.96355 18.667 9.31804 18.6942 9.66538 18.8018C10.2012 18.9682 10.6439 19.3169 11.0296 19.6172C11.2373 19.779 11.4241 19.9245 11.598 20.0303C11.7754 20.1381 11.9053 20.1825 11.9994 20.1826C12.0934 20.1826 12.2235 20.1381 12.4007 20.0303C12.5745 19.9245 12.7609 19.7792 12.9681 19.6172L12.9691 19.6162C13.3549 19.317 13.7981 18.9682 14.3334 18.8018C14.8844 18.6307 15.4667 18.6606 15.974 18.6855C16.2239 18.698 16.4616 18.7095 16.6654 18.6982C16.879 18.6864 17.0039 18.6505 17.0628 18.6094C17.1179 18.571 17.1886 18.4739 17.264 18.2881C17.3361 18.1106 17.3964 17.8964 17.4603 17.668L17.5658 17.3008C17.6803 16.9254 17.8304 16.5316 18.0912 16.1885C18.4319 15.7402 18.9227 15.4399 19.3451 15.1787C19.5557 15.0484 19.7546 14.9255 19.9125 14.8027C20.0786 14.6735 20.1536 14.578 20.1742 14.5186C20.1877 14.4787 20.1877 14.3769 20.1341 14.1865C20.0842 14.0092 20.0042 13.8067 19.9183 13.5918C19.7413 13.1473 19.5141 12.5868 19.514 12C19.5141 11.4133 19.7414 10.8528 19.9183 10.4092C20.004 10.194 20.0851 9.9919 20.1351 9.81445C20.1887 9.6243 20.1885 9.5224 20.1751 9.48242C20.1552 9.42354 20.0801 9.328 19.9134 9.19824C19.8346 9.13686 19.7454 9.07516 19.6498 9.0127L19.346 8.82227C18.9226 8.56078 18.4334 8.26035 18.0921 7.8125C17.7445 7.35508 17.5939 6.80615 17.4613 6.33301C17.397 6.10406 17.3361 5.88963 17.264 5.71191C17.1888 5.52667 17.1191 5.42954 17.0638 5.39062C17.0047 5.34937 16.8797 5.31366 16.6664 5.30176C16.4628 5.29042 16.2259 5.30164 15.9759 5.31445H15.974C15.4662 5.33803 14.8853 5.37008 14.3343 5.19922C13.7984 5.03281 13.3549 4.68413 12.9691 4.38379C12.7615 4.22198 12.5756 4.07648 12.4017 3.9707C12.224 3.86268 12.0935 3.81838 11.9994 3.81836Z" fill="black" fill-opacity="0.2"/>
<path fill-rule="evenodd" clip-rule="evenodd" d="M11.9994 2C12.8825 2.00003 13.5621 2.53953 14.0873 2.94922C14.2461 3.07303 14.3917 3.1868 14.5287 3.2793C14.6673 3.37295 14.7814 3.43425 14.8734 3.46289C14.9784 3.49559 15.124 3.51146 15.306 3.51465C15.4858 3.51779 15.6821 3.50788 15.8861 3.49805C16.5453 3.46651 17.408 3.41539 18.1019 3.89746L18.1029 3.89844C18.8147 4.39507 19.0363 5.2176 19.2103 5.84082C19.2645 6.03398 19.3143 6.21095 19.3695 6.36523C19.4251 6.52061 19.4803 6.63457 19.5375 6.70996C19.5942 6.78439 19.6944 6.87285 19.8353 6.97363C19.9736 7.07256 20.1343 7.17233 20.3011 7.27539C20.8658 7.62514 21.6181 8.07841 21.8959 8.89844C22.1677 9.70118 21.8435 10.4884 21.6068 11.082C21.534 11.2646 21.4643 11.4397 21.4125 11.6025C21.3599 11.7678 21.3325 11.9009 21.3324 12C21.3324 12.099 21.3597 12.232 21.4125 12.3975C21.4645 12.5605 21.5339 12.7361 21.6068 12.9189C21.8288 13.4758 22.1278 14.2022 21.9408 14.9521L21.8968 15.1025C21.6183 15.9215 20.8667 16.3752 20.3021 16.7256C20.1353 16.8288 19.9748 16.9286 19.8363 17.0273C19.695 17.1282 19.5947 17.2161 19.5384 17.29C19.4811 17.3655 19.4262 17.4799 19.3705 17.6357C19.3429 17.7128 19.3164 17.7954 19.2904 17.8828L19.2113 18.1592C19.0476 18.7432 18.843 19.5034 18.2308 20.0049L18.1029 20.1016C17.4096 20.5853 16.5442 20.5345 15.8871 20.5029L15.8861 20.502C15.6826 20.4918 15.4863 20.4831 15.307 20.4863C15.1251 20.4897 14.9789 20.5054 14.8734 20.5381C14.7811 20.5668 14.6672 20.6281 14.5287 20.7217C14.4603 20.7679 14.39 20.8197 14.3168 20.875L14.0873 21.0518C13.5616 21.4613 12.8824 22.0009 11.9994 22.001C11.3373 22.0008 10.79 21.6974 10.3363 21.373L9.91245 21.0518C9.7536 20.9279 9.608 20.8142 9.47105 20.7217C9.33237 20.628 9.21831 20.5668 9.12632 20.5381C9.02199 20.5057 8.87686 20.4895 8.69468 20.4863C8.51457 20.4832 8.31719 20.4934 8.11265 20.5029C7.4528 20.5338 6.59151 20.5853 5.89781 20.1035L5.89683 20.1025C5.18492 19.606 4.96341 18.7834 4.78941 18.1602L4.71031 17.8838C4.68424 17.7962 4.65788 17.713 4.63023 17.6357C4.57442 17.4799 4.51862 17.3655 4.46128 17.29C4.40449 17.2156 4.30419 17.128 4.16343 17.0273C4.02507 16.9284 3.86451 16.8287 3.69761 16.7256C3.13298 16.3758 2.38175 15.9226 2.10386 15.1025C1.83182 14.2998 2.15618 13.5127 2.39292 12.9189C2.46574 12.7363 2.53539 12.5604 2.58726 12.3975C2.63984 12.2322 2.6673 12.0991 2.66734 12C2.66725 11.9011 2.63993 11.7687 2.58726 11.6035C2.53523 11.4405 2.4658 11.2649 2.39292 11.082C2.15607 10.488 1.83164 9.70022 2.10288 8.89746C2.38146 8.07862 3.13304 7.62572 3.69761 7.27539L3.69859 7.27441C3.86523 7.17162 4.02511 7.07225 4.16343 6.97363C4.30461 6.87296 4.40505 6.7858 4.46128 6.71191C4.51862 6.63649 4.57334 6.52209 4.62925 6.36621C4.6846 6.2118 4.73482 6.03513 4.78941 5.8418C4.95245 5.25777 5.15672 4.49699 5.7689 3.99609L5.89683 3.89941C6.59077 3.41592 7.45617 3.46781 8.11265 3.49805L8.41148 3.51172C8.50858 3.51489 8.60278 3.51626 8.69273 3.51465C8.82924 3.5122 8.94548 3.50185 9.03941 3.4834L9.12632 3.46191C9.2184 3.43321 9.33193 3.37256 9.47007 3.2793C9.60699 3.18683 9.75295 3.07303 9.91148 2.94922C10.437 2.53968 11.1165 2.00018 11.9994 2ZM11.9994 3.81836C11.9054 3.8185 11.776 3.86299 11.599 3.9707C11.4252 4.07646 11.2388 4.22174 11.0316 4.38379L11.0306 4.38477C10.693 4.64665 10.3113 4.9465 9.86265 5.12891L9.66636 5.19922C9.11518 5.3703 8.53213 5.34035 8.02476 5.31543C7.77483 5.30198 7.53664 5.29036 7.33335 5.30176C7.12028 5.31374 6.9955 5.34941 6.93687 5.39062L6.93589 5.3916C6.88077 5.43001 6.81091 5.52657 6.7357 5.71191C6.66366 5.88955 6.60337 6.10417 6.53941 6.33301C6.40669 6.80708 6.25631 7.35495 5.90855 7.8125C5.56782 8.26075 5.07699 8.56109 4.65464 8.82227C4.44394 8.95264 4.24514 9.07548 4.08726 9.19824C3.96204 9.29561 3.88839 9.3737 3.85093 9.43164L3.82554 9.48242C3.81209 9.52241 3.81202 9.62419 3.86558 9.81445C3.91553 9.99175 3.9955 10.1943 4.0814 10.4092C4.25915 10.8539 4.48558 11.414 4.4857 12C4.48564 12.5862 4.25832 13.1476 4.0814 13.5918C3.99576 13.8069 3.9156 14.0092 3.86558 14.1865C3.81187 14.3771 3.81208 14.4788 3.82554 14.5186C3.84566 14.5775 3.92078 14.6732 4.08726 14.8027C4.24507 14.9255 4.44411 15.0484 4.65464 15.1787C5.0252 15.4075 5.44586 15.6663 5.77378 16.0273L5.90855 16.1885L6.02964 16.3643C6.2933 16.7822 6.42331 17.2538 6.53941 17.668C6.60374 17.8969 6.6636 18.1114 6.7357 18.2891C6.81106 18.4747 6.8815 18.5717 6.93687 18.6104C6.99608 18.6515 7.12074 18.6863 7.33433 18.6982C7.53812 18.7096 7.77496 18.699 8.02476 18.6865L8.02671 18.6855C8.21726 18.6773 8.42108 18.667 8.62437 18.667C8.96355 18.667 9.31804 18.6942 9.66538 18.8018C10.2012 18.9682 10.6439 19.3169 11.0296 19.6172C11.2373 19.779 11.4241 19.9245 11.598 20.0303C11.7754 20.1381 11.9053 20.1825 11.9994 20.1826C12.0934 20.1826 12.2235 20.1381 12.4007 20.0303C12.5745 19.9245 12.7609 19.7792 12.9681 19.6172L12.9691 19.6162C13.3549 19.317 13.7981 18.9682 14.3334 18.8018C14.8844 18.6307 15.4667 18.6606 15.974 18.6855C16.2239 18.698 16.4616 18.7095 16.6654 18.6982C16.879 18.6864 17.0039 18.6505 17.0628 18.6094C17.1179 18.571 17.1886 18.4739 17.264 18.2881C17.3361 18.1106 17.3964 17.8964 17.4603 17.668L17.5658 17.3008C17.6803 16.9254 17.8304 16.5316 18.0912 16.1885C18.4319 15.7402 18.9227 15.4399 19.3451 15.1787C19.5557 15.0484 19.7546 14.9255 19.9125 14.8027C20.0786 14.6735 20.1536 14.578 20.1742 14.5186C20.1877 14.4787 20.1877 14.3769 20.1341 14.1865C20.0842 14.0092 20.0042 13.8067 19.9183 13.5918C19.7413 13.1473 19.5141 12.5868 19.514 12C19.5141 11.4133 19.7414 10.8528 19.9183 10.4092C20.004 10.194 20.0851 9.9919 20.1351 9.81445C20.1887 9.6243 20.1885 9.5224 20.1751 9.48242C20.1552 9.42354 20.0801 9.328 19.9134 9.19824C19.8346 9.13686 19.7454 9.07516 19.6498 9.0127L19.346 8.82227C18.9226 8.56078 18.4334 8.26035 18.0921 7.8125C17.7445 7.35508 17.5939 6.80615 17.4613 6.33301C17.397 6.10406 17.3361 5.88963 17.264 5.71191C17.1888 5.52667 17.1191 5.42954 17.0638 5.39062C17.0047 5.34937 16.8797 5.31366 16.6664 5.30176C16.4628 5.29042 16.2259 5.30164 15.9759 5.31445H15.974C15.4662 5.33803 14.8853 5.37008 14.3343 5.19922C13.7984 5.03281 13.3549 4.68413 12.9691 4.38379C12.7615 4.22198 12.5756 4.07648 12.4017 3.9707C12.224 3.86268 12.0935 3.81838 11.9994 3.81836Z" fill="black" fill-opacity="0.2"/>
<path fill-rule="evenodd" clip-rule="evenodd" d="M11.9994 2C12.8825 2.00003 13.5621 2.53953 14.0873 2.94922C14.2461 3.07303 14.3917 3.1868 14.5287 3.2793C14.6673 3.37295 14.7814 3.43425 14.8734 3.46289C14.9784 3.49559 15.124 3.51146 15.306 3.51465C15.4858 3.51779 15.6821 3.50788 15.8861 3.49805C16.5453 3.46651 17.408 3.41539 18.1019 3.89746L18.1029 3.89844C18.8147 4.39507 19.0363 5.2176 19.2103 5.84082C19.2645 6.03398 19.3143 6.21095 19.3695 6.36523C19.4251 6.52061 19.4803 6.63457 19.5375 6.70996C19.5942 6.78439 19.6944 6.87285 19.8353 6.97363C19.9736 7.07256 20.1343 7.17233 20.3011 7.27539C20.8658 7.62514 21.6181 8.07841 21.8959 8.89844C22.1677 9.70118 21.8435 10.4884 21.6068 11.082C21.534 11.2646 21.4643 11.4397 21.4125 11.6025C21.3599 11.7678 21.3325 11.9009 21.3324 12C21.3324 12.099 21.3597 12.232 21.4125 12.3975C21.4645 12.5605 21.5339 12.7361 21.6068 12.9189C21.8288 13.4758 22.1278 14.2022 21.9408 14.9521L21.8968 15.1025C21.6183 15.9215 20.8667 16.3752 20.3021 16.7256C20.1353 16.8288 19.9748 16.9286 19.8363 17.0273C19.695 17.1282 19.5947 17.2161 19.5384 17.29C19.4811 17.3655 19.4262 17.4799 19.3705 17.6357C19.3429 17.7128 19.3164 17.7954 19.2904 17.8828L19.2113 18.1592C19.0476 18.7432 18.843 19.5034 18.2308 20.0049L18.1029 20.1016C17.4096 20.5853 16.5442 20.5345 15.8871 20.5029L15.8861 20.502C15.6826 20.4918 15.4863 20.4831 15.307 20.4863C15.1251 20.4897 14.9789 20.5054 14.8734 20.5381C14.7811 20.5668 14.6672 20.6281 14.5287 20.7217C14.4603 20.7679 14.39 20.8197 14.3168 20.875L14.0873 21.0518C13.5616 21.4613 12.8824 22.0009 11.9994 22.001C11.3373 22.0008 10.79 21.6974 10.3363 21.373L9.91245 21.0518C9.7536 20.9279 9.608 20.8142 9.47105 20.7217C9.33237 20.628 9.21831 20.5668 9.12632 20.5381C9.02199 20.5057 8.87686 20.4895 8.69468 20.4863C8.51457 20.4832 8.31719 20.4934 8.11265 20.5029C7.4528 20.5338 6.59151 20.5853 5.89781 20.1035L5.89683 20.1025C5.18492 19.606 4.96341 18.7834 4.78941 18.1602L4.71031 17.8838C4.68424 17.7962 4.65788 17.713 4.63023 17.6357C4.57442 17.4799 4.51862 17.3655 4.46128 17.29C4.40449 17.2156 4.30419 17.128 4.16343 17.0273C4.02507 16.9284 3.86451 16.8287 3.69761 16.7256C3.13298 16.3758 2.38175 15.9226 2.10386 15.1025C1.83182 14.2998 2.15618 13.5127 2.39292 12.9189C2.46574 12.7363 2.53539 12.5604 2.58726 12.3975C2.63984 12.2322 2.6673 12.0991 2.66734 12C2.66725 11.9011 2.63993 11.7687 2.58726 11.6035C2.53523 11.4405 2.4658 11.2649 2.39292 11.082C2.15607 10.488 1.83164 9.70022 2.10288 8.89746C2.38146 8.07862 3.13304 7.62572 3.69761 7.27539L3.69859 7.27441C3.86523 7.17162 4.02511 7.07225 4.16343 6.97363C4.30461 6.87296 4.40505 6.7858 4.46128 6.71191C4.51862 6.63649 4.57334 6.52209 4.62925 6.36621C4.6846 6.2118 4.73482 6.03513 4.78941 5.8418C4.95245 5.25777 5.15672 4.49699 5.7689 3.99609L5.89683 3.89941C6.59077 3.41592 7.45617 3.46781 8.11265 3.49805L8.41148 3.51172C8.50858 3.51489 8.60278 3.51626 8.69273 3.51465C8.82924 3.5122 8.94548 3.50185 9.03941 3.4834L9.12632 3.46191C9.2184 3.43321 9.33193 3.37256 9.47007 3.2793C9.60699 3.18683 9.75295 3.07303 9.91148 2.94922C10.437 2.53968 11.1165 2.00018 11.9994 2ZM11.9994 3.81836C11.9054 3.8185 11.776 3.86299 11.599 3.9707C11.4252 4.07646 11.2388 4.22174 11.0316 4.38379L11.0306 4.38477C10.693 4.64665 10.3113 4.9465 9.86265 5.12891L9.66636 5.19922C9.11518 5.3703 8.53213 5.34035 8.02476 5.31543C7.77483 5.30198 7.53664 5.29036 7.33335 5.30176C7.12028 5.31374 6.9955 5.34941 6.93687 5.39062L6.93589 5.3916C6.88077 5.43001 6.81091 5.52657 6.7357 5.71191C6.66366 5.88955 6.60337 6.10417 6.53941 6.33301C6.40669 6.80708 6.25631 7.35495 5.90855 7.8125C5.56782 8.26075 5.07699 8.56109 4.65464 8.82227C4.44394 8.95264 4.24514 9.07548 4.08726 9.19824C3.96204 9.29561 3.88839 9.3737 3.85093 9.43164L3.82554 9.48242C3.81209 9.52241 3.81202 9.62419 3.86558 9.81445C3.91553 9.99175 3.9955 10.1943 4.0814 10.4092C4.25915 10.8539 4.48558 11.414 4.4857 12C4.48564 12.5862 4.25832 13.1476 4.0814 13.5918C3.99576 13.8069 3.9156 14.0092 3.86558 14.1865C3.81187 14.3771 3.81208 14.4788 3.82554 14.5186C3.84566 14.5775 3.92078 14.6732 4.08726 14.8027C4.24507 14.9255 4.44411 15.0484 4.65464 15.1787C5.0252 15.4075 5.44586 15.6663 5.77378 16.0273L5.90855 16.1885L6.02964 16.3643C6.2933 16.7822 6.42331 17.2538 6.53941 17.668C6.60374 17.8969 6.6636 18.1114 6.7357 18.2891C6.81106 18.4747 6.8815 18.5717 6.93687 18.6104C6.99608 18.6515 7.12074 18.6863 7.33433 18.6982C7.53812 18.7096 7.77496 18.699 8.02476 18.6865L8.02671 18.6855C8.21726 18.6773 8.42108 18.667 8.62437 18.667C8.96355 18.667 9.31804 18.6942 9.66538 18.8018C10.2012 18.9682 10.6439 19.3169 11.0296 19.6172C11.2373 19.779 11.4241 19.9245 11.598 20.0303C11.7754 20.1381 11.9053 20.1825 11.9994 20.1826C12.0934 20.1826 12.2235 20.1381 12.4007 20.0303C12.5745 19.9245 12.7609 19.7792 12.9681 19.6172L12.9691 19.6162C13.3549 19.317 13.7981 18.9682 14.3334 18.8018C14.8844 18.6307 15.4667 18.6606 15.974 18.6855C16.2239 18.698 16.4616 18.7095 16.6654 18.6982C16.879 18.6864 17.0039 18.6505 17.0628 18.6094C17.1179 18.571 17.1886 18.4739 17.264 18.2881C17.3361 18.1106 17.3964 17.8964 17.4603 17.668L17.5658 17.3008C17.6803 16.9254 17.8304 16.5316 18.0912 16.1885C18.4319 15.7402 18.9227 15.4399 19.3451 15.1787C19.5557 15.0484 19.7546 14.9255 19.9125 14.8027C20.0786 14.6735 20.1536 14.578 20.1742 14.5186C20.1877 14.4787 20.1877 14.3769 20.1341 14.1865C20.0842 14.0092 20.0042 13.8067 19.9183 13.5918C19.7413 13.1473 19.5141 12.5868 19.514 12C19.5141 11.4133 19.7414 10.8528 19.9183 10.4092C20.004 10.194 20.0851 9.9919 20.1351 9.81445C20.1887 9.6243 20.1885 9.5224 20.1751 9.48242C20.1552 9.42354 20.0801 9.328 19.9134 9.19824C19.8346 9.13686 19.7454 9.07516 19.6498 9.0127L19.346 8.82227C18.9226 8.56078 18.4334 8.26035 18.0921 7.8125C17.7445 7.35508 17.5939 6.80615 17.4613 6.33301C17.397 6.10406 17.3361 5.88963 17.264 5.71191C17.1888 5.52667 17.1191 5.42954 17.0638 5.39062C17.0047 5.34937 16.8797 5.31366 16.6664 5.30176C16.4628 5.29042 16.2259 5.30164 15.9759 5.31445H15.974C15.4662 5.33803 14.8853 5.37008 14.3343 5.19922C13.7984 5.03281 13.3549 4.68413 12.9691 4.38379C12.7615 4.22198 12.5756 4.07648 12.4017 3.9707C12.224 3.86268 12.0935 3.81838 11.9994 3.81836Z" fill="black" fill-opacity="0.2"/>
<path fill-rule="evenodd" clip-rule="evenodd" d="M11.9994 2C12.8825 2.00003 13.5621 2.53953 14.0873 2.94922C14.2461 3.07303 14.3917 3.1868 14.5287 3.2793C14.6673 3.37295 14.7814 3.43425 14.8734 3.46289C14.9784 3.49559 15.124 3.51146 15.306 3.51465C15.4858 3.51779 15.6821 3.50788 15.8861 3.49805C16.5453 3.46651 17.408 3.41539 18.1019 3.89746L18.1029 3.89844C18.8147 4.39507 19.0363 5.2176 19.2103 5.84082C19.2645 6.03398 19.3143 6.21095 19.3695 6.36523C19.4251 6.52061 19.4803 6.63457 19.5375 6.70996C19.5942 6.78439 19.6944 6.87285 19.8353 6.97363C19.9736 7.07256 20.1343 7.17233 20.3011 7.27539C20.8658 7.62514 21.6181 8.07841 21.8959 8.89844C22.1677 9.70118 21.8435 10.4884 21.6068 11.082C21.534 11.2646 21.4643 11.4397 21.4125 11.6025C21.3599 11.7678 21.3325 11.9009 21.3324 12C21.3324 12.099 21.3597 12.232 21.4125 12.3975C21.4645 12.5605 21.5339 12.7361 21.6068 12.9189C21.8288 13.4758 22.1278 14.2022 21.9408 14.9521L21.8968 15.1025C21.6183 15.9215 20.8667 16.3752 20.3021 16.7256C20.1353 16.8288 19.9748 16.9286 19.8363 17.0273C19.695 17.1282 19.5947 17.2161 19.5384 17.29C19.4811 17.3655 19.4262 17.4799 19.3705 17.6357C19.3429 17.7128 19.3164 17.7954 19.2904 17.8828L19.2113 18.1592C19.0476 18.7432 18.843 19.5034 18.2308 20.0049L18.1029 20.1016C17.4096 20.5853 16.5442 20.5345 15.8871 20.5029L15.8861 20.502C15.6826 20.4918 15.4863 20.4831 15.307 20.4863C15.1251 20.4897 14.9789 20.5054 14.8734 20.5381C14.7811 20.5668 14.6672 20.6281 14.5287 20.7217C14.4603 20.7679 14.39 20.8197 14.3168 20.875L14.0873 21.0518C13.5616 21.4613 12.8824 22.0009 11.9994 22.001C11.3373 22.0008 10.79 21.6974 10.3363 21.373L9.91245 21.0518C9.7536 20.9279 9.608 20.8142 9.47105 20.7217C9.33237 20.628 9.21831 20.5668 9.12632 20.5381C9.02199 20.5057 8.87686 20.4895 8.69468 20.4863C8.51457 20.4832 8.31719 20.4934 8.11265 20.5029C7.4528 20.5338 6.59151 20.5853 5.89781 20.1035L5.89683 20.1025C5.18492 19.606 4.96341 18.7834 4.78941 18.1602L4.71031 17.8838C4.68424 17.7962 4.65788 17.713 4.63023 17.6357C4.57442 17.4799 4.51862 17.3655 4.46128 17.29C4.40449 17.2156 4.30419 17.128 4.16343 17.0273C4.02507 16.9284 3.86451 16.8287 3.69761 16.7256C3.13298 16.3758 2.38175 15.9226 2.10386 15.1025C1.83182 14.2998 2.15618 13.5127 2.39292 12.9189C2.46574 12.7363 2.53539 12.5604 2.58726 12.3975C2.63984 12.2322 2.6673 12.0991 2.66734 12C2.66725 11.9011 2.63993 11.7687 2.58726 11.6035C2.53523 11.4405 2.4658 11.2649 2.39292 11.082C2.15607 10.488 1.83164 9.70022 2.10288 8.89746C2.38146 8.07862 3.13304 7.62572 3.69761 7.27539L3.69859 7.27441C3.86523 7.17162 4.02511 7.07225 4.16343 6.97363C4.30461 6.87296 4.40505 6.7858 4.46128 6.71191C4.51862 6.63649 4.57334 6.52209 4.62925 6.36621C4.6846 6.2118 4.73482 6.03513 4.78941 5.8418C4.95245 5.25777 5.15672 4.49699 5.7689 3.99609L5.89683 3.89941C6.59077 3.41592 7.45617 3.46781 8.11265 3.49805L8.41148 3.51172C8.50858 3.51489 8.60278 3.51626 8.69273 3.51465C8.82924 3.5122 8.94548 3.50185 9.03941 3.4834L9.12632 3.46191C9.2184 3.43321 9.33193 3.37256 9.47007 3.2793C9.60699 3.18683 9.75295 3.07303 9.91148 2.94922C10.437 2.53968 11.1165 2.00018 11.9994 2ZM11.9994 3.81836C11.9054 3.8185 11.776 3.86299 11.599 3.9707C11.4252 4.07646 11.2388 4.22174 11.0316 4.38379L11.0306 4.38477C10.693 4.64665 10.3113 4.9465 9.86265 5.12891L9.66636 5.19922C9.11518 5.3703 8.53213 5.34035 8.02476 5.31543C7.77483 5.30198 7.53664 5.29036 7.33335 5.30176C7.12028 5.31374 6.9955 5.34941 6.93687 5.39062L6.93589 5.3916C6.88077 5.43001 6.81091 5.52657 6.7357 5.71191C6.66366 5.88955 6.60337 6.10417 6.53941 6.33301C6.40669 6.80708 6.25631 7.35495 5.90855 7.8125C5.56782 8.26075 5.07699 8.56109 4.65464 8.82227C4.44394 8.95264 4.24514 9.07548 4.08726 9.19824C3.96204 9.29561 3.88839 9.3737 3.85093 9.43164L3.82554 9.48242C3.81209 9.52241 3.81202 9.62419 3.86558 9.81445C3.91553 9.99175 3.9955 10.1943 4.0814 10.4092C4.25915 10.8539 4.48558 11.414 4.4857 12C4.48564 12.5862 4.25832 13.1476 4.0814 13.5918C3.99576 13.8069 3.9156 14.0092 3.86558 14.1865C3.81187 14.3771 3.81208 14.4788 3.82554 14.5186C3.84566 14.5775 3.92078 14.6732 4.08726 14.8027C4.24507 14.9255 4.44411 15.0484 4.65464 15.1787C5.0252 15.4075 5.44586 15.6663 5.77378 16.0273L5.90855 16.1885L6.02964 16.3643C6.2933 16.7822 6.42331 17.2538 6.53941 17.668C6.60374 17.8969 6.6636 18.1114 6.7357 18.2891C6.81106 18.4747 6.8815 18.5717 6.93687 18.6104C6.99608 18.6515 7.12074 18.6863 7.33433 18.6982C7.53812 18.7096 7.77496 18.699 8.02476 18.6865L8.02671 18.6855C8.21726 18.6773 8.42108 18.667 8.62437 18.667C8.96355 18.667 9.31804 18.6942 9.66538 18.8018C10.2012 18.9682 10.6439 19.3169 11.0296 19.6172C11.2373 19.779 11.4241 19.9245 11.598 20.0303C11.7754 20.1381 11.9053 20.1825 11.9994 20.1826C12.0934 20.1826 12.2235 20.1381 12.4007 20.0303C12.5745 19.9245 12.7609 19.7792 12.9681 19.6172L12.9691 19.6162C13.3549 19.317 13.7981 18.9682 14.3334 18.8018C14.8844 18.6307 15.4667 18.6606 15.974 18.6855C16.2239 18.698 16.4616 18.7095 16.6654 18.6982C16.879 18.6864 17.0039 18.6505 17.0628 18.6094C17.1179 18.571 17.1886 18.4739 17.264 18.2881C17.3361 18.1106 17.3964 17.8964 17.4603 17.668L17.5658 17.3008C17.6803 16.9254 17.8304 16.5316 18.0912 16.1885C18.4319 15.7402 18.9227 15.4399 19.3451 15.1787C19.5557 15.0484 19.7546 14.9255 19.9125 14.8027C20.0786 14.6735 20.1536 14.578 20.1742 14.5186C20.1877 14.4787 20.1877 14.3769 20.1341 14.1865C20.0842 14.0092 20.0042 13.8067 19.9183 13.5918C19.7413 13.1473 19.5141 12.5868 19.514 12C19.5141 11.4133 19.7414 10.8528 19.9183 10.4092C20.004 10.194 20.0851 9.9919 20.1351 9.81445C20.1887 9.6243 20.1885 9.5224 20.1751 9.48242C20.1552 9.42354 20.0801 9.328 19.9134 9.19824C19.8346 9.13686 19.7454 9.07516 19.6498 9.0127L19.346 8.82227C18.9226 8.56078 18.4334 8.26035 18.0921 7.8125C17.7445 7.35508 17.5939 6.80615 17.4613 6.33301C17.397 6.10406 17.3361 5.88963 17.264 5.71191C17.1888 5.52667 17.1191 5.42954 17.0638 5.39062C17.0047 5.34937 16.8797 5.31366 16.6664 5.30176C16.4628 5.29042 16.2259 5.30164 15.9759 5.31445H15.974C15.4662 5.33803 14.8853 5.37008 14.3343 5.19922C13.7984 5.03281 13.3549 4.68413 12.9691 4.38379C12.7615 4.22198 12.5756 4.07648 12.4017 3.9707C12.224 3.86268 12.0935 3.81838 11.9994 3.81836Z" fill="black" fill-opacity="0.2"/>
<path fill-rule="evenodd" clip-rule="evenodd" d="M11.9994 2C12.8825 2.00003 13.5621 2.53953 14.0873 2.94922C14.2461 3.07303 14.3917 3.1868 14.5287 3.2793C14.6673 3.37295 14.7814 3.43425 14.8734 3.46289C14.9784 3.49559 15.124 3.51146 15.306 3.51465C15.4858 3.51779 15.6821 3.50788 15.8861 3.49805C16.5453 3.46651 17.408 3.41539 18.1019 3.89746L18.1029 3.89844C18.8147 4.39507 19.0363 5.2176 19.2103 5.84082C19.2645 6.03398 19.3143 6.21095 19.3695 6.36523C19.4251 6.52061 19.4803 6.63457 19.5375 6.70996C19.5942 6.78439 19.6944 6.87285 19.8353 6.97363C19.9736 7.07256 20.1343 7.17233 20.3011 7.27539C20.8658 7.62514 21.6181 8.07841 21.8959 8.89844C22.1677 9.70118 21.8435 10.4884 21.6068 11.082C21.534 11.2646 21.4643 11.4397 21.4125 11.6025C21.3599 11.7678 21.3325 11.9009 21.3324 12C21.3324 12.099 21.3597 12.232 21.4125 12.3975C21.4645 12.5605 21.5339 12.7361 21.6068 12.9189C21.8288 13.4758 22.1278 14.2022 21.9408 14.9521L21.8968 15.1025C21.6183 15.9215 20.8667 16.3752 20.3021 16.7256C20.1353 16.8288 19.9748 16.9286 19.8363 17.0273C19.695 17.1282 19.5947 17.2161 19.5384 17.29C19.4811 17.3655 19.4262 17.4799 19.3705 17.6357C19.3429 17.7128 19.3164 17.7954 19.2904 17.8828L19.2113 18.1592C19.0476 18.7432 18.843 19.5034 18.2308 20.0049L18.1029 20.1016C17.4096 20.5853 16.5442 20.5345 15.8871 20.5029L15.8861 20.502C15.6826 20.4918 15.4863 20.4831 15.307 20.4863C15.1251 20.4897 14.9789 20.5054 14.8734 20.5381C14.7811 20.5668 14.6672 20.6281 14.5287 20.7217C14.4603 20.7679 14.39 20.8197 14.3168 20.875L14.0873 21.0518C13.5616 21.4613 12.8824 22.0009 11.9994 22.001C11.3373 22.0008 10.79 21.6974 10.3363 21.373L9.91245 21.0518C9.7536 20.9279 9.608 20.8142 9.47105 20.7217C9.33237 20.628 9.21831 20.5668 9.12632 20.5381C9.02199 20.5057 8.87686 20.4895 8.69468 20.4863C8.51457 20.4832 8.31719 20.4934 8.11265 20.5029C7.4528 20.5338 6.59151 20.5853 5.89781 20.1035L5.89683 20.1025C5.18492 19.606 4.96341 18.7834 4.78941 18.1602L4.71031 17.8838C4.68424 17.7962 4.65788 17.713 4.63023 17.6357C4.57442 17.4799 4.51862 17.3655 4.46128 17.29C4.40449 17.2156 4.30419 17.128 4.16343 17.0273C4.02507 16.9284 3.86451 16.8287 3.69761 16.7256C3.13298 16.3758 2.38175 15.9226 2.10386 15.1025C1.83182 14.2998 2.15618 13.5127 2.39292 12.9189C2.46574 12.7363 2.53539 12.5604 2.58726 12.3975C2.63984 12.2322 2.6673 12.0991 2.66734 12C2.66725 11.9011 2.63993 11.7687 2.58726 11.6035C2.53523 11.4405 2.4658 11.2649 2.39292 11.082C2.15607 10.488 1.83164 9.70022 2.10288 8.89746C2.38146 8.07862 3.13304 7.62572 3.69761 7.27539L3.69859 7.27441C3.86523 7.17162 4.02511 7.07225 4.16343 6.97363C4.30461 6.87296 4.40505 6.7858 4.46128 6.71191C4.51862 6.63649 4.57334 6.52209 4.62925 6.36621C4.6846 6.2118 4.73482 6.03513 4.78941 5.8418C4.95245 5.25777 5.15672 4.49699 5.7689 3.99609L5.89683 3.89941C6.59077 3.41592 7.45617 3.46781 8.11265 3.49805L8.41148 3.51172C8.50858 3.51489 8.60278 3.51626 8.69273 3.51465C8.82924 3.5122 8.94548 3.50185 9.03941 3.4834L9.12632 3.46191C9.2184 3.43321 9.33193 3.37256 9.47007 3.2793C9.60699 3.18683 9.75295 3.07303 9.91148 2.94922C10.437 2.53968 11.1165 2.00018 11.9994 2ZM11.9994 3.81836C11.9054 3.8185 11.776 3.86299 11.599 3.9707C11.4252 4.07646 11.2388 4.22174 11.0316 4.38379L11.0306 4.38477C10.693 4.64665 10.3113 4.9465 9.86265 5.12891L9.66636 5.19922C9.11518 5.3703 8.53213 5.34035 8.02476 5.31543C7.77483 5.30198 7.53664 5.29036 7.33335 5.30176C7.12028 5.31374 6.9955 5.34941 6.93687 5.39062L6.93589 5.3916C6.88077 5.43001 6.81091 5.52657 6.7357 5.71191C6.66366 5.88955 6.60337 6.10417 6.53941 6.33301C6.40669 6.80708 6.25631 7.35495 5.90855 7.8125C5.56782 8.26075 5.07699 8.56109 4.65464 8.82227C4.44394 8.95264 4.24514 9.07548 4.08726 9.19824C3.96204 9.29561 3.88839 9.3737 3.85093 9.43164L3.82554 9.48242C3.81209 9.52241 3.81202 9.62419 3.86558 9.81445C3.91553 9.99175 3.9955 10.1943 4.0814 10.4092C4.25915 10.8539 4.48558 11.414 4.4857 12C4.48564 12.5862 4.25832 13.1476 4.0814 13.5918C3.99576 13.8069 3.9156 14.0092 3.86558 14.1865C3.81187 14.3771 3.81208 14.4788 3.82554 14.5186C3.84566 14.5775 3.92078 14.6732 4.08726 14.8027C4.24507 14.9255 4.44411 15.0484 4.65464 15.1787C5.0252 15.4075 5.44586 15.6663 5.77378 16.0273L5.90855 16.1885L6.02964 16.3643C6.2933 16.7822 6.42331 17.2538 6.53941 17.668C6.60374 17.8969 6.6636 18.1114 6.7357 18.2891C6.81106 18.4747 6.8815 18.5717 6.93687 18.6104C6.99608 18.6515 7.12074 18.6863 7.33433 18.6982C7.53812 18.7096 7.77496 18.699 8.02476 18.6865L8.02671 18.6855C8.21726 18.6773 8.42108 18.667 8.62437 18.667C8.96355 18.667 9.31804 18.6942 9.66538 18.8018C10.2012 18.9682 10.6439 19.3169 11.0296 19.6172C11.2373 19.779 11.4241 19.9245 11.598 20.0303C11.7754 20.1381 11.9053 20.1825 11.9994 20.1826C12.0934 20.1826 12.2235 20.1381 12.4007 20.0303C12.5745 19.9245 12.7609 19.7792 12.9681 19.6172L12.9691 19.6162C13.3549 19.317 13.7981 18.9682 14.3334 18.8018C14.8844 18.6307 15.4667 18.6606 15.974 18.6855C16.2239 18.698 16.4616 18.7095 16.6654 18.6982C16.879 18.6864 17.0039 18.6505 17.0628 18.6094C17.1179 18.571 17.1886 18.4739 17.264 18.2881C17.3361 18.1106 17.3964 17.8964 17.4603 17.668L17.5658 17.3008C17.6803 16.9254 17.8304 16.5316 18.0912 16.1885C18.4319 15.7402 18.9227 15.4399 19.3451 15.1787C19.5557 15.0484 19.7546 14.9255 19.9125 14.8027C20.0786 14.6735 20.1536 14.578 20.1742 14.5186C20.1877 14.4787 20.1877 14.3769 20.1341 14.1865C20.0842 14.0092 20.0042 13.8067 19.9183 13.5918C19.7413 13.1473 19.5141 12.5868 19.514 12C19.5141 11.4133 19.7414 10.8528 19.9183 10.4092C20.004 10.194 20.0851 9.9919 20.1351 9.81445C20.1887 9.6243 20.1885 9.5224 20.1751 9.48242C20.1552 9.42354 20.0801 9.328 19.9134 9.19824C19.8346 9.13686 19.7454 9.07516 19.6498 9.0127L19.346 8.82227C18.9226 8.56078 18.4334 8.26035 18.0921 7.8125C17.7445 7.35508 17.5939 6.80615 17.4613 6.33301C17.397 6.10406 17.3361 5.88963 17.264 5.71191C17.1888 5.52667 17.1191 5.42954 17.0638 5.39062C17.0047 5.34937 16.8797 5.31366 16.6664 5.30176C16.4628 5.29042 16.2259 5.30164 15.9759 5.31445H15.974C15.4662 5.33803 14.8853 5.37008 14.3343 5.19922C13.7984 5.03281 13.3549 4.68413 12.9691 4.38379C12.7615 4.22198 12.5756 4.07648 12.4017 3.9707C12.224 3.86268 12.0935 3.81838 11.9994 3.81836Z" fill="black" fill-opacity="0.2"/>
</svg>
