<svg width="24" height="24" viewBox="0 0 24 24" fill="none" xmlns="http://www.w3.org/2000/svg">
<path d="M12.1201 3.65039C12.5791 3.65039 12.9599 3.26953 12.9599 2.81055C12.9599 2.35156 12.5791 1.9707 12.1201 1.9707C11.6611 1.9707 11.2803 2.35156 11.2803 2.81055C11.2803 3.26953 11.6611 3.65039 12.1201 3.65039ZM14.9131 4.10937C15.3721 4.10937 15.7529 3.72851 15.7529 3.26953C15.7529 2.81055 15.3721 2.42969 14.9131 2.42969C14.4541 2.42969 14.0732 2.81055 14.0732 3.26953C14.0732 3.72851 14.4541 4.10937 14.9131 4.10937ZM17.4521 5.38867C17.9111 5.38867 18.292 5.00781 18.292 4.54882C18.292 4.08984 17.9111 3.70898 17.4521 3.70898C16.9932 3.70898 16.6123 4.08984 16.6123 4.54882C16.6123 5.00781 16.9932 5.38867 17.4521 5.38867ZM19.4541 7.40039C19.9131 7.40039 20.2939 7.01953 20.2939 6.56054C20.2939 6.10156 19.9131 5.7207 19.4541 5.7207C18.9951 5.7207 18.6142 6.10156 18.6142 6.56054C18.6142 7.01953 18.9951 7.40039 19.4541 7.40039ZM20.7334 9.90039C21.1924 9.90039 21.5732 9.51953 21.5732 9.06054C21.5732 8.60156 21.1924 8.2207 20.7334 8.2207C20.2744 8.2207 19.8935 8.60156 19.8935 9.06054C19.8935 9.51953 20.2744 9.90039 20.7334 9.90039ZM21.2119 12.7031C21.6709 12.7031 22.0517 12.3223 22.0517 11.8633C22.0517 11.4043 21.6709 11.0234 21.2119 11.0234C20.7529 11.0234 20.3721 11.4043 20.3721 11.8633C20.3721 12.3223 20.7529 12.7031 21.2119 12.7031ZM20.7334 15.5059C21.1924 15.5059 21.5732 15.125 21.5732 14.666C21.5732 14.207 21.1924 13.8262 20.7334 13.8262C20.2744 13.8262 19.8935 14.207 19.8935 14.666C19.8935 15.125 20.2744 15.5059 20.7334 15.5059ZM19.4541 18.0156C19.9131 18.0156 20.2939 17.6348 20.2939 17.1758C20.2939 16.7168 19.9131 16.3359 19.4541 16.3359C18.9951 16.3359 18.6142 16.7168 18.6142 17.1758C18.6142 17.6348 18.9951 18.0156 19.4541 18.0156ZM17.4521 20.0176C17.9111 20.0176 18.292 19.6367 18.292 19.1777C18.292 18.7187 17.9111 18.3379 17.4521 18.3379C16.9932 18.3379 16.6123 18.7187 16.6123 19.1777C16.6123 19.6367 16.9932 20.0176 17.4521 20.0176ZM14.9131 21.2969C15.3721 21.2969 15.7529 20.916 15.7529 20.457C15.7529 19.998 15.3721 19.6172 14.9131 19.6172C14.4541 19.6172 14.0732 19.998 14.0732 20.457C14.0732 20.916 14.4541 21.2969 14.9131 21.2969ZM12.1201 21.7559C12.5791 21.7559 12.9599 21.375 12.9599 20.916C12.9599 20.457 12.5791 20.0762 12.1201 20.0762C11.6611 20.0762 11.2803 20.457 11.2803 20.916C11.2803 21.375 11.6611 21.7559 12.1201 21.7559ZM9.32715 21.2969C9.78613 21.2969 10.167 20.916 10.167 20.457C10.167 19.998 9.78613 19.6172 9.32715 19.6172C8.8584 19.6172 8.4873 19.998 8.4873 20.457C8.4873 20.916 8.8584 21.2969 9.32715 21.2969ZM6.78809 20.0176C7.24707 20.0176 7.62793 19.6367 7.62793 19.1777C7.62793 18.7187 7.24707 18.3379 6.78809 18.3379C6.31933 18.3379 5.94824 18.7187 5.94824 19.1777C5.94824 19.6367 6.31933 20.0176 6.78809 20.0176ZM4.77637 18.0156C5.23535 18.0156 5.61621 17.6348 5.61621 17.1758C5.61621 16.7168 5.23535 16.3359 4.77637 16.3359C4.31738 16.3359 3.93652 16.7168 3.93652 17.1758C3.93652 17.6348 4.31738 18.0156 4.77637 18.0156ZM3.49707 15.5059C3.95605 15.5059 4.33691 15.125 4.33691 14.666C4.33691 14.207 3.95605 13.8262 3.49707 13.8262C3.03809 13.8262 2.65723 14.207 2.65723 14.666C2.65723 15.125 3.03809 15.5059 3.49707 15.5059ZM3.01855 12.7031C3.47754 12.7031 3.8584 12.3223 3.8584 11.8633C3.8584 11.4043 3.47754 11.0234 3.01855 11.0234C2.55957 11.0234 2.17871 11.4043 2.17871 11.8633C2.17871 12.3223 2.55957 12.7031 3.01855 12.7031ZM3.49707 9.90039C3.95605 9.90039 4.33691 9.51953 4.33691 9.06054C4.33691 8.60156 3.95605 8.2207 3.49707 8.2207C3.03809 8.2207 2.65723 8.60156 2.65723 9.06054C2.65723 9.51953 3.03809 9.90039 3.49707 9.90039ZM4.77637 7.40039C5.23535 7.40039 5.61621 7.01953 5.61621 6.56054C5.61621 6.10156 5.23535 5.7207 4.77637 5.7207C4.31738 5.7207 3.93652 6.10156 3.93652 6.56054C3.93652 7.01953 4.31738 7.40039 4.77637 7.40039ZM6.78809 5.38867C7.24707 5.38867 7.62793 5.00781 7.62793 4.54882C7.62793 4.08984 7.24707 3.70898 6.78809 3.70898C6.31933 3.70898 5.94824 4.08984 5.94824 4.54882C5.94824 5.00781 6.31933 5.38867 6.78809 5.38867ZM9.32715 4.10937C9.78613 4.10937 10.167 3.72851 10.167 3.26953C10.167 2.81055 9.78613 2.42969 9.32715 2.42969C8.8584 2.42969 8.4873 2.81055 8.4873 3.26953C8.4873 3.72851 8.8584 4.10937 9.32715 4.10937Z" fill="#1D1A24"/>
<path d="M11.0557 16.5019C11.3779 16.5019 11.6514 16.3457 11.8369 16.043L16.3096 9.02148C16.417 8.82617 16.5439 8.61132 16.5439 8.39648C16.5439 7.95703 16.1533 7.67382 15.7432 7.67382C15.4892 7.67382 15.2451 7.83008 15.0693 8.11328L11.0068 14.6172L9.08301 12.1269C8.8584 11.8145 8.63379 11.7363 8.37012 11.7363C7.94043 11.7363 7.61816 12.0781 7.61816 12.5078C7.61816 12.7227 7.69629 12.9277 7.84277 13.1133L10.2158 16.043C10.4697 16.3652 10.7236 16.5019 11.0557 16.5019Z" fill="#1D1A24"/>
</svg>
