<svg width="24" height="24" viewBox="0 0 24 24" fill="none" xmlns="http://www.w3.org/2000/svg">
<path d="M19.9412 13.5882C20.5259 13.5882 21 14.0623 21 14.6471V18.1761C21 18.925 20.7023 19.6433 20.1728 20.1728C19.6433 20.7023 18.925 21 18.1761 21H5.82387C5.07503 21 4.35672 20.7023 3.82721 20.1728C3.29769 19.6433 3 18.925 3 18.1761V14.6471C3 14.0623 3.47405 13.5882 4.05882 13.5882C4.6436 13.5882 5.11765 14.0623 5.11765 14.6471V18.1761C5.11765 18.3633 5.19207 18.5432 5.32445 18.6756C5.45683 18.8079 5.63666 18.8824 5.82387 18.8824H18.1761C18.3633 18.8824 18.5432 18.8079 18.6756 18.6756C18.8079 18.5432 18.8824 18.3633 18.8824 18.1761V14.6471C18.8824 14.0623 19.3564 13.5882 19.9412 13.5882Z" fill="#1D1A24"/>
<path d="M19.9412 13.5882C20.5259 13.5882 21 14.0623 21 14.6471V18.1761C21 18.925 20.7023 19.6433 20.1728 20.1728C19.6433 20.7023 18.925 21 18.1761 21H5.82387C5.07503 21 4.35672 20.7023 3.82721 20.1728C3.29769 19.6433 3 18.925 3 18.1761V14.6471C3 14.0623 3.47405 13.5882 4.05882 13.5882C4.6436 13.5882 5.11765 14.0623 5.11765 14.6471V18.1761C5.11765 18.3633 5.19207 18.5432 5.32445 18.6756C5.45683 18.8079 5.63666 18.8824 5.82387 18.8824H18.1761C18.3633 18.8824 18.5432 18.8079 18.6756 18.6756C18.8079 18.5432 18.8824 18.3633 18.8824 18.1761V14.6471C18.8824 14.0623 19.3564 13.5882 19.9412 13.5882Z" fill="black" fill-opacity="0.2"/>
<path d="M19.9412 13.5882C20.5259 13.5882 21 14.0623 21 14.6471V18.1761C21 18.925 20.7023 19.6433 20.1728 20.1728C19.6433 20.7023 18.925 21 18.1761 21H5.82387C5.07503 21 4.35672 20.7023 3.82721 20.1728C3.29769 19.6433 3 18.925 3 18.1761V14.6471C3 14.0623 3.47405 13.5882 4.05882 13.5882C4.6436 13.5882 5.11765 14.0623 5.11765 14.6471V18.1761C5.11765 18.3633 5.19207 18.5432 5.32445 18.6756C5.45683 18.8079 5.63666 18.8824 5.82387 18.8824H18.1761C18.3633 18.8824 18.5432 18.8079 18.6756 18.6756C18.8079 18.5432 18.8824 18.3633 18.8824 18.1761V14.6471C18.8824 14.0623 19.3564 13.5882 19.9412 13.5882Z" fill="black" fill-opacity="0.2"/>
<path d="M19.9412 13.5882C20.5259 13.5882 21 14.0623 21 14.6471V18.1761C21 18.925 20.7023 19.6433 20.1728 20.1728C19.6433 20.7023 18.925 21 18.1761 21H5.82387C5.07503 21 4.35672 20.7023 3.82721 20.1728C3.29769 19.6433 3 18.925 3 18.1761V14.6471C3 14.0623 3.47405 13.5882 4.05882 13.5882C4.6436 13.5882 5.11765 14.0623 5.11765 14.6471V18.1761C5.11765 18.3633 5.19207 18.5432 5.32445 18.6756C5.45683 18.8079 5.63666 18.8824 5.82387 18.8824H18.1761C18.3633 18.8824 18.5432 18.8079 18.6756 18.6756C18.8079 18.5432 18.8824 18.3633 18.8824 18.1761V14.6471C18.8824 14.0623 19.3564 13.5882 19.9412 13.5882Z" fill="black" fill-opacity="0.2"/>
<path d="M19.9412 13.5882C20.5259 13.5882 21 14.0623 21 14.6471V18.1761C21 18.925 20.7023 19.6433 20.1728 20.1728C19.6433 20.7023 18.925 21 18.1761 21H5.82387C5.07503 21 4.35672 20.7023 3.82721 20.1728C3.29769 19.6433 3 18.925 3 18.1761V14.6471C3 14.0623 3.47405 13.5882 4.05882 13.5882C4.6436 13.5882 5.11765 14.0623 5.11765 14.6471V18.1761C5.11765 18.3633 5.19207 18.5432 5.32445 18.6756C5.45683 18.8079 5.63666 18.8824 5.82387 18.8824H18.1761C18.3633 18.8824 18.5432 18.8079 18.6756 18.6756C18.8079 18.5432 18.8824 18.3633 18.8824 18.1761V14.6471C18.8824 14.0623 19.3564 13.5882 19.9412 13.5882Z" fill="black" fill-opacity="0.2"/>
<path d="M19.9412 13.5882C20.5259 13.5882 21 14.0623 21 14.6471V18.1761C21 18.925 20.7023 19.6433 20.1728 20.1728C19.6433 20.7023 18.925 21 18.1761 21H5.82387C5.07503 21 4.35672 20.7023 3.82721 20.1728C3.29769 19.6433 3 18.925 3 18.1761V14.6471C3 14.0623 3.47405 13.5882 4.05882 13.5882C4.6436 13.5882 5.11765 14.0623 5.11765 14.6471V18.1761C5.11765 18.3633 5.19207 18.5432 5.32445 18.6756C5.45683 18.8079 5.63666 18.8824 5.82387 18.8824H18.1761C18.3633 18.8824 18.5432 18.8079 18.6756 18.6756C18.8079 18.5432 18.8824 18.3633 18.8824 18.1761V14.6471C18.8824 14.0623 19.3564 13.5882 19.9412 13.5882Z" fill="black" fill-opacity="0.2"/>
<path d="M12 3C12.5848 3 13.0588 3.47405 13.0588 4.05882V12.0889L15.6625 9.48633C16.0758 9.07298 16.7462 9.07326 17.1597 9.48633C17.5732 9.89982 17.5732 10.5701 17.1597 10.9836L12.7486 15.3957C12.7072 15.4371 12.6624 15.4732 12.6163 15.5063C12.6066 15.5132 12.5972 15.5204 12.5873 15.527C12.5438 15.5561 12.4983 15.5805 12.4519 15.6025C12.435 15.6105 12.4185 15.6192 12.4012 15.6263C12.391 15.6304 12.3805 15.6338 12.3702 15.6376C12.35 15.6452 12.3299 15.653 12.3092 15.6594C12.2877 15.6659 12.2658 15.6708 12.244 15.6759C12.232 15.6787 12.22 15.6817 12.2078 15.6842C12.1969 15.6864 12.1858 15.6875 12.1747 15.6893C12.1178 15.6988 12.0596 15.7059 12 15.7059C11.9375 15.7059 11.8765 15.6987 11.817 15.6883C11.8094 15.687 11.8017 15.6867 11.7942 15.6852C11.7743 15.6813 11.7548 15.6758 11.7353 15.6707C11.7215 15.6672 11.7076 15.6645 11.6939 15.6604C11.641 15.6444 11.59 15.6241 11.5409 15.6004C11.4988 15.5801 11.4575 15.5573 11.4179 15.5311C11.3917 15.5139 11.3669 15.4948 11.3424 15.4753C11.3383 15.4721 11.334 15.4693 11.33 15.466C11.3027 15.4437 11.2762 15.4205 11.2514 15.3957L6.83927 10.9836C6.42603 10.5701 6.42586 9.89974 6.83927 9.48633C7.25268 9.07292 7.923 9.07309 8.33651 9.48633L10.9412 12.091V4.05882C10.9412 3.47405 11.4152 3 12 3Z" fill="#1D1A24"/>
<path d="M12 3C12.5848 3 13.0588 3.47405 13.0588 4.05882V12.0889L15.6625 9.48633C16.0758 9.07298 16.7462 9.07326 17.1597 9.48633C17.5732 9.89982 17.5732 10.5701 17.1597 10.9836L12.7486 15.3957C12.7072 15.4371 12.6624 15.4732 12.6163 15.5063C12.6066 15.5132 12.5972 15.5204 12.5873 15.527C12.5438 15.5561 12.4983 15.5805 12.4519 15.6025C12.435 15.6105 12.4185 15.6192 12.4012 15.6263C12.391 15.6304 12.3805 15.6338 12.3702 15.6376C12.35 15.6452 12.3299 15.653 12.3092 15.6594C12.2877 15.6659 12.2658 15.6708 12.244 15.6759C12.232 15.6787 12.22 15.6817 12.2078 15.6842C12.1969 15.6864 12.1858 15.6875 12.1747 15.6893C12.1178 15.6988 12.0596 15.7059 12 15.7059C11.9375 15.7059 11.8765 15.6987 11.817 15.6883C11.8094 15.687 11.8017 15.6867 11.7942 15.6852C11.7743 15.6813 11.7548 15.6758 11.7353 15.6707C11.7215 15.6672 11.7076 15.6645 11.6939 15.6604C11.641 15.6444 11.59 15.6241 11.5409 15.6004C11.4988 15.5801 11.4575 15.5573 11.4179 15.5311C11.3917 15.5139 11.3669 15.4948 11.3424 15.4753C11.3383 15.4721 11.334 15.4693 11.33 15.466C11.3027 15.4437 11.2762 15.4205 11.2514 15.3957L6.83927 10.9836C6.42603 10.5701 6.42586 9.89974 6.83927 9.48633C7.25268 9.07292 7.923 9.07309 8.33651 9.48633L10.9412 12.091V4.05882C10.9412 3.47405 11.4152 3 12 3Z" fill="black" fill-opacity="0.2"/>
<path d="M12 3C12.5848 3 13.0588 3.47405 13.0588 4.05882V12.0889L15.6625 9.48633C16.0758 9.07298 16.7462 9.07326 17.1597 9.48633C17.5732 9.89982 17.5732 10.5701 17.1597 10.9836L12.7486 15.3957C12.7072 15.4371 12.6624 15.4732 12.6163 15.5063C12.6066 15.5132 12.5972 15.5204 12.5873 15.527C12.5438 15.5561 12.4983 15.5805 12.4519 15.6025C12.435 15.6105 12.4185 15.6192 12.4012 15.6263C12.391 15.6304 12.3805 15.6338 12.3702 15.6376C12.35 15.6452 12.3299 15.653 12.3092 15.6594C12.2877 15.6659 12.2658 15.6708 12.244 15.6759C12.232 15.6787 12.22 15.6817 12.2078 15.6842C12.1969 15.6864 12.1858 15.6875 12.1747 15.6893C12.1178 15.6988 12.0596 15.7059 12 15.7059C11.9375 15.7059 11.8765 15.6987 11.817 15.6883C11.8094 15.687 11.8017 15.6867 11.7942 15.6852C11.7743 15.6813 11.7548 15.6758 11.7353 15.6707C11.7215 15.6672 11.7076 15.6645 11.6939 15.6604C11.641 15.6444 11.59 15.6241 11.5409 15.6004C11.4988 15.5801 11.4575 15.5573 11.4179 15.5311C11.3917 15.5139 11.3669 15.4948 11.3424 15.4753C11.3383 15.4721 11.334 15.4693 11.33 15.466C11.3027 15.4437 11.2762 15.4205 11.2514 15.3957L6.83927 10.9836C6.42603 10.5701 6.42586 9.89974 6.83927 9.48633C7.25268 9.07292 7.923 9.07309 8.33651 9.48633L10.9412 12.091V4.05882C10.9412 3.47405 11.4152 3 12 3Z" fill="black" fill-opacity="0.2"/>
<path d="M12 3C12.5848 3 13.0588 3.47405 13.0588 4.05882V12.0889L15.6625 9.48633C16.0758 9.07298 16.7462 9.07326 17.1597 9.48633C17.5732 9.89982 17.5732 10.5701 17.1597 10.9836L12.7486 15.3957C12.7072 15.4371 12.6624 15.4732 12.6163 15.5063C12.6066 15.5132 12.5972 15.5204 12.5873 15.527C12.5438 15.5561 12.4983 15.5805 12.4519 15.6025C12.435 15.6105 12.4185 15.6192 12.4012 15.6263C12.391 15.6304 12.3805 15.6338 12.3702 15.6376C12.35 15.6452 12.3299 15.653 12.3092 15.6594C12.2877 15.6659 12.2658 15.6708 12.244 15.6759C12.232 15.6787 12.22 15.6817 12.2078 15.6842C12.1969 15.6864 12.1858 15.6875 12.1747 15.6893C12.1178 15.6988 12.0596 15.7059 12 15.7059C11.9375 15.7059 11.8765 15.6987 11.817 15.6883C11.8094 15.687 11.8017 15.6867 11.7942 15.6852C11.7743 15.6813 11.7548 15.6758 11.7353 15.6707C11.7215 15.6672 11.7076 15.6645 11.6939 15.6604C11.641 15.6444 11.59 15.6241 11.5409 15.6004C11.4988 15.5801 11.4575 15.5573 11.4179 15.5311C11.3917 15.5139 11.3669 15.4948 11.3424 15.4753C11.3383 15.4721 11.334 15.4693 11.33 15.466C11.3027 15.4437 11.2762 15.4205 11.2514 15.3957L6.83927 10.9836C6.42603 10.5701 6.42586 9.89974 6.83927 9.48633C7.25268 9.07292 7.923 9.07309 8.33651 9.48633L10.9412 12.091V4.05882C10.9412 3.47405 11.4152 3 12 3Z" fill="black" fill-opacity="0.2"/>
<path d="M12 3C12.5848 3 13.0588 3.47405 13.0588 4.05882V12.0889L15.6625 9.48633C16.0758 9.07298 16.7462 9.07326 17.1597 9.48633C17.5732 9.89982 17.5732 10.5701 17.1597 10.9836L12.7486 15.3957C12.7072 15.4371 12.6624 15.4732 12.6163 15.5063C12.6066 15.5132 12.5972 15.5204 12.5873 15.527C12.5438 15.5561 12.4983 15.5805 12.4519 15.6025C12.435 15.6105 12.4185 15.6192 12.4012 15.6263C12.391 15.6304 12.3805 15.6338 12.3702 15.6376C12.35 15.6452 12.3299 15.653 12.3092 15.6594C12.2877 15.6659 12.2658 15.6708 12.244 15.6759C12.232 15.6787 12.22 15.6817 12.2078 15.6842C12.1969 15.6864 12.1858 15.6875 12.1747 15.6893C12.1178 15.6988 12.0596 15.7059 12 15.7059C11.9375 15.7059 11.8765 15.6987 11.817 15.6883C11.8094 15.687 11.8017 15.6867 11.7942 15.6852C11.7743 15.6813 11.7548 15.6758 11.7353 15.6707C11.7215 15.6672 11.7076 15.6645 11.6939 15.6604C11.641 15.6444 11.59 15.6241 11.5409 15.6004C11.4988 15.5801 11.4575 15.5573 11.4179 15.5311C11.3917 15.5139 11.3669 15.4948 11.3424 15.4753C11.3383 15.4721 11.334 15.4693 11.33 15.466C11.3027 15.4437 11.2762 15.4205 11.2514 15.3957L6.83927 10.9836C6.42603 10.5701 6.42586 9.89974 6.83927 9.48633C7.25268 9.07292 7.923 9.07309 8.33651 9.48633L10.9412 12.091V4.05882C10.9412 3.47405 11.4152 3 12 3Z" fill="black" fill-opacity="0.2"/>
<path d="M12 3C12.5848 3 13.0588 3.47405 13.0588 4.05882V12.0889L15.6625 9.48633C16.0758 9.07298 16.7462 9.07326 17.1597 9.48633C17.5732 9.89982 17.5732 10.5701 17.1597 10.9836L12.7486 15.3957C12.7072 15.4371 12.6624 15.4732 12.6163 15.5063C12.6066 15.5132 12.5972 15.5204 12.5873 15.527C12.5438 15.5561 12.4983 15.5805 12.4519 15.6025C12.435 15.6105 12.4185 15.6192 12.4012 15.6263C12.391 15.6304 12.3805 15.6338 12.3702 15.6376C12.35 15.6452 12.3299 15.653 12.3092 15.6594C12.2877 15.6659 12.2658 15.6708 12.244 15.6759C12.232 15.6787 12.22 15.6817 12.2078 15.6842C12.1969 15.6864 12.1858 15.6875 12.1747 15.6893C12.1178 15.6988 12.0596 15.7059 12 15.7059C11.9375 15.7059 11.8765 15.6987 11.817 15.6883C11.8094 15.687 11.8017 15.6867 11.7942 15.6852C11.7743 15.6813 11.7548 15.6758 11.7353 15.6707C11.7215 15.6672 11.7076 15.6645 11.6939 15.6604C11.641 15.6444 11.59 15.6241 11.5409 15.6004C11.4988 15.5801 11.4575 15.5573 11.4179 15.5311C11.3917 15.5139 11.3669 15.4948 11.3424 15.4753C11.3383 15.4721 11.334 15.4693 11.33 15.466C11.3027 15.4437 11.2762 15.4205 11.2514 15.3957L6.83927 10.9836C6.42603 10.5701 6.42586 9.89974 6.83927 9.48633C7.25268 9.07292 7.923 9.07309 8.33651 9.48633L10.9412 12.091V4.05882C10.9412 3.47405 11.4152 3 12 3Z" fill="black" fill-opacity="0.2"/>
</svg>
