<svg width="24" height="24" viewBox="0 0 24 24" fill="none" xmlns="http://www.w3.org/2000/svg">
<path fill-rule="evenodd" clip-rule="evenodd" d="M17.0881 3C17.4942 3.00007 17.8972 3.08146 18.2724 3.23685C18.6472 3.39228 18.9885 3.6201 19.2755 3.90702C19.5625 4.19416 19.7903 4.5361 19.9456 4.91118C20.1008 5.28619 20.1814 5.68849 20.1814 6.09435C20.1813 6.5004 20.101 6.90346 19.9456 7.2786C19.7902 7.65362 19.5625 7.99461 19.2755 8.28168L7.63263 19.9245C7.48962 20.0674 7.31029 20.1689 7.11418 20.2181L3.38786 21.1502C3.00737 21.2452 2.60442 21.1326 2.32695 20.8555C2.04952 20.578 1.93833 20.1753 2.03334 19.7946L2.96437 16.0694L3.0113 15.9253C3.06728 15.7853 3.15064 15.6573 3.25798 15.5498L14.9008 3.90702C15.4809 3.32695 16.2677 3 17.0881 3ZM17.0881 5.23644C16.8606 5.23644 16.6422 5.32662 16.4813 5.48748L5.05783 16.9098L4.65289 18.5285L6.27156 18.1236L17.695 6.70121C17.7745 6.62164 17.8374 6.52681 17.8805 6.42288C17.9236 6.31894 17.946 6.20685 17.946 6.09435C17.946 5.98197 17.9235 5.86967 17.8805 5.76581C17.8375 5.66211 17.7743 5.56695 17.695 5.48748C17.6155 5.40806 17.5204 5.34503 17.4167 5.30193C17.3127 5.25888 17.2006 5.23651 17.0881 5.23644Z" fill="#1D1A24"/>
<path fill-rule="evenodd" clip-rule="evenodd" d="M17.0881 3C17.4942 3.00007 17.8972 3.08146 18.2724 3.23685C18.6472 3.39228 18.9885 3.6201 19.2755 3.90702C19.5625 4.19416 19.7903 4.5361 19.9456 4.91118C20.1008 5.28619 20.1814 5.68849 20.1814 6.09435C20.1813 6.5004 20.101 6.90346 19.9456 7.2786C19.7902 7.65362 19.5625 7.99461 19.2755 8.28168L7.63263 19.9245C7.48962 20.0674 7.31029 20.1689 7.11418 20.2181L3.38786 21.1502C3.00737 21.2452 2.60442 21.1326 2.32695 20.8555C2.04952 20.578 1.93833 20.1753 2.03334 19.7946L2.96437 16.0694L3.0113 15.9253C3.06728 15.7853 3.15064 15.6573 3.25798 15.5498L14.9008 3.90702C15.4809 3.32695 16.2677 3 17.0881 3ZM17.0881 5.23644C16.8606 5.23644 16.6422 5.32662 16.4813 5.48748L5.05783 16.9098L4.65289 18.5285L6.27156 18.1236L17.695 6.70121C17.7745 6.62164 17.8374 6.52681 17.8805 6.42288C17.9236 6.31894 17.946 6.20685 17.946 6.09435C17.946 5.98197 17.9235 5.86967 17.8805 5.76581C17.8375 5.66211 17.7743 5.56695 17.695 5.48748C17.6155 5.40806 17.5204 5.34503 17.4167 5.30193C17.3127 5.25888 17.2006 5.23651 17.0881 5.23644Z" fill="black" fill-opacity="0.2"/>
<path fill-rule="evenodd" clip-rule="evenodd" d="M17.0881 3C17.4942 3.00007 17.8972 3.08146 18.2724 3.23685C18.6472 3.39228 18.9885 3.6201 19.2755 3.90702C19.5625 4.19416 19.7903 4.5361 19.9456 4.91118C20.1008 5.28619 20.1814 5.68849 20.1814 6.09435C20.1813 6.5004 20.101 6.90346 19.9456 7.2786C19.7902 7.65362 19.5625 7.99461 19.2755 8.28168L7.63263 19.9245C7.48962 20.0674 7.31029 20.1689 7.11418 20.2181L3.38786 21.1502C3.00737 21.2452 2.60442 21.1326 2.32695 20.8555C2.04952 20.578 1.93833 20.1753 2.03334 19.7946L2.96437 16.0694L3.0113 15.9253C3.06728 15.7853 3.15064 15.6573 3.25798 15.5498L14.9008 3.90702C15.4809 3.32695 16.2677 3 17.0881 3ZM17.0881 5.23644C16.8606 5.23644 16.6422 5.32662 16.4813 5.48748L5.05783 16.9098L4.65289 18.5285L6.27156 18.1236L17.695 6.70121C17.7745 6.62164 17.8374 6.52681 17.8805 6.42288C17.9236 6.31894 17.946 6.20685 17.946 6.09435C17.946 5.98197 17.9235 5.86967 17.8805 5.76581C17.8375 5.66211 17.7743 5.56695 17.695 5.48748C17.6155 5.40806 17.5204 5.34503 17.4167 5.30193C17.3127 5.25888 17.2006 5.23651 17.0881 5.23644Z" fill="black" fill-opacity="0.2"/>
<path fill-rule="evenodd" clip-rule="evenodd" d="M17.0881 3C17.4942 3.00007 17.8972 3.08146 18.2724 3.23685C18.6472 3.39228 18.9885 3.6201 19.2755 3.90702C19.5625 4.19416 19.7903 4.5361 19.9456 4.91118C20.1008 5.28619 20.1814 5.68849 20.1814 6.09435C20.1813 6.5004 20.101 6.90346 19.9456 7.2786C19.7902 7.65362 19.5625 7.99461 19.2755 8.28168L7.63263 19.9245C7.48962 20.0674 7.31029 20.1689 7.11418 20.2181L3.38786 21.1502C3.00737 21.2452 2.60442 21.1326 2.32695 20.8555C2.04952 20.578 1.93833 20.1753 2.03334 19.7946L2.96437 16.0694L3.0113 15.9253C3.06728 15.7853 3.15064 15.6573 3.25798 15.5498L14.9008 3.90702C15.4809 3.32695 16.2677 3 17.0881 3ZM17.0881 5.23644C16.8606 5.23644 16.6422 5.32662 16.4813 5.48748L5.05783 16.9098L4.65289 18.5285L6.27156 18.1236L17.695 6.70121C17.7745 6.62164 17.8374 6.52681 17.8805 6.42288C17.9236 6.31894 17.946 6.20685 17.946 6.09435C17.946 5.98197 17.9235 5.86967 17.8805 5.76581C17.8375 5.66211 17.7743 5.56695 17.695 5.48748C17.6155 5.40806 17.5204 5.34503 17.4167 5.30193C17.3127 5.25888 17.2006 5.23651 17.0881 5.23644Z" fill="black" fill-opacity="0.2"/>
<path fill-rule="evenodd" clip-rule="evenodd" d="M17.0881 3C17.4942 3.00007 17.8972 3.08146 18.2724 3.23685C18.6472 3.39228 18.9885 3.6201 19.2755 3.90702C19.5625 4.19416 19.7903 4.5361 19.9456 4.91118C20.1008 5.28619 20.1814 5.68849 20.1814 6.09435C20.1813 6.5004 20.101 6.90346 19.9456 7.2786C19.7902 7.65362 19.5625 7.99461 19.2755 8.28168L7.63263 19.9245C7.48962 20.0674 7.31029 20.1689 7.11418 20.2181L3.38786 21.1502C3.00737 21.2452 2.60442 21.1326 2.32695 20.8555C2.04952 20.578 1.93833 20.1753 2.03334 19.7946L2.96437 16.0694L3.0113 15.9253C3.06728 15.7853 3.15064 15.6573 3.25798 15.5498L14.9008 3.90702C15.4809 3.32695 16.2677 3 17.0881 3ZM17.0881 5.23644C16.8606 5.23644 16.6422 5.32662 16.4813 5.48748L5.05783 16.9098L4.65289 18.5285L6.27156 18.1236L17.695 6.70121C17.7745 6.62164 17.8374 6.52681 17.8805 6.42288C17.9236 6.31894 17.946 6.20685 17.946 6.09435C17.946 5.98197 17.9235 5.86967 17.8805 5.76581C17.8375 5.66211 17.7743 5.56695 17.695 5.48748C17.6155 5.40806 17.5204 5.34503 17.4167 5.30193C17.3127 5.25888 17.2006 5.23651 17.0881 5.23644Z" fill="black" fill-opacity="0.2"/>
<path fill-rule="evenodd" clip-rule="evenodd" d="M17.0881 3C17.4942 3.00007 17.8972 3.08146 18.2724 3.23685C18.6472 3.39228 18.9885 3.6201 19.2755 3.90702C19.5625 4.19416 19.7903 4.5361 19.9456 4.91118C20.1008 5.28619 20.1814 5.68849 20.1814 6.09435C20.1813 6.5004 20.101 6.90346 19.9456 7.2786C19.7902 7.65362 19.5625 7.99461 19.2755 8.28168L7.63263 19.9245C7.48962 20.0674 7.31029 20.1689 7.11418 20.2181L3.38786 21.1502C3.00737 21.2452 2.60442 21.1326 2.32695 20.8555C2.04952 20.578 1.93833 20.1753 2.03334 19.7946L2.96437 16.0694L3.0113 15.9253C3.06728 15.7853 3.15064 15.6573 3.25798 15.5498L14.9008 3.90702C15.4809 3.32695 16.2677 3 17.0881 3ZM17.0881 5.23644C16.8606 5.23644 16.6422 5.32662 16.4813 5.48748L5.05783 16.9098L4.65289 18.5285L6.27156 18.1236L17.695 6.70121C17.7745 6.62164 17.8374 6.52681 17.8805 6.42288C17.9236 6.31894 17.946 6.20685 17.946 6.09435C17.946 5.98197 17.9235 5.86967 17.8805 5.76581C17.8375 5.66211 17.7743 5.56695 17.695 5.48748C17.6155 5.40806 17.5204 5.34503 17.4167 5.30193C17.3127 5.25888 17.2006 5.23651 17.0881 5.23644Z" fill="black" fill-opacity="0.2"/>
<path d="M19.8823 18.9476C20.4994 18.9479 21 19.4482 21 20.0653C20.9999 20.6823 20.4993 21.1827 19.8823 21.183H11.4998C10.8826 21.183 10.3822 20.6825 10.3821 20.0653C10.3821 19.448 10.8825 18.9476 11.4998 18.9476H19.8823Z" fill="#1D1A24"/>
<path d="M19.8823 18.9476C20.4994 18.9479 21 19.4482 21 20.0653C20.9999 20.6823 20.4993 21.1827 19.8823 21.183H11.4998C10.8826 21.183 10.3822 20.6825 10.3821 20.0653C10.3821 19.448 10.8825 18.9476 11.4998 18.9476H19.8823Z" fill="black" fill-opacity="0.2"/>
<path d="M19.8823 18.9476C20.4994 18.9479 21 19.4482 21 20.0653C20.9999 20.6823 20.4993 21.1827 19.8823 21.183H11.4998C10.8826 21.183 10.3822 20.6825 10.3821 20.0653C10.3821 19.448 10.8825 18.9476 11.4998 18.9476H19.8823Z" fill="black" fill-opacity="0.2"/>
<path d="M19.8823 18.9476C20.4994 18.9479 21 19.4482 21 20.0653C20.9999 20.6823 20.4993 21.1827 19.8823 21.183H11.4998C10.8826 21.183 10.3822 20.6825 10.3821 20.0653C10.3821 19.448 10.8825 18.9476 11.4998 18.9476H19.8823Z" fill="black" fill-opacity="0.2"/>
<path d="M19.8823 18.9476C20.4994 18.9479 21 19.4482 21 20.0653C20.9999 20.6823 20.4993 21.1827 19.8823 21.183H11.4998C10.8826 21.183 10.3822 20.6825 10.3821 20.0653C10.3821 19.448 10.8825 18.9476 11.4998 18.9476H19.8823Z" fill="black" fill-opacity="0.2"/>
<path d="M19.8823 18.9476C20.4994 18.9479 21 19.4482 21 20.0653C20.9999 20.6823 20.4993 21.1827 19.8823 21.183H11.4998C10.8826 21.183 10.3822 20.6825 10.3821 20.0653C10.3821 19.448 10.8825 18.9476 11.4998 18.9476H19.8823Z" fill="black" fill-opacity="0.2"/>
</svg>
