<svg width="24" height="24" viewBox="0 0 24 24" fill="none" xmlns="http://www.w3.org/2000/svg">
<path d="M11.0686 5.29406C11.6859 5.29406 12.1865 5.79462 12.1865 6.41187C12.1865 7.02912 11.6859 7.52968 11.0686 7.52968H5.48052C5.28291 7.52968 5.09363 7.60824 4.9539 7.74797C4.81417 7.8877 4.73562 8.07697 4.73562 8.27458V18.5195L4.73925 18.5932C4.7562 18.7637 4.83165 18.9238 4.9539 19.0461C5.09363 19.1858 5.28291 19.2644 5.48052 19.2644H15.7254C15.923 19.2644 16.1123 19.1858 16.252 19.0461C16.3918 18.9064 16.4703 18.7171 16.4703 18.5195V12.9314C16.4703 12.3141 16.9709 11.8135 17.5881 11.8135C18.2054 11.8135 18.7059 12.3141 18.7059 12.9314V18.5195C18.7059 19.3099 18.3917 20.0679 17.8328 20.6269C17.2739 21.1858 16.5159 21.5 15.7254 21.5H5.48052C4.69008 21.5 3.93207 21.1858 3.37315 20.6269C2.81422 20.0679 2.5 19.3099 2.5 18.5195V8.27458C2.5 7.48415 2.81422 6.72613 3.37315 6.16721C3.93207 5.60829 4.69008 5.29406 5.48052 5.29406H11.0686Z" fill="#1D1A24"/>
<path d="M11.0686 5.29406C11.6859 5.29406 12.1865 5.79462 12.1865 6.41187C12.1865 7.02912 11.6859 7.52968 11.0686 7.52968H5.48052C5.28291 7.52968 5.09363 7.60824 4.9539 7.74797C4.81417 7.8877 4.73562 8.07697 4.73562 8.27458V18.5195L4.73925 18.5932C4.7562 18.7637 4.83165 18.9238 4.9539 19.0461C5.09363 19.1858 5.28291 19.2644 5.48052 19.2644H15.7254C15.923 19.2644 16.1123 19.1858 16.252 19.0461C16.3918 18.9064 16.4703 18.7171 16.4703 18.5195V12.9314C16.4703 12.3141 16.9709 11.8135 17.5881 11.8135C18.2054 11.8135 18.7059 12.3141 18.7059 12.9314V18.5195C18.7059 19.3099 18.3917 20.0679 17.8328 20.6269C17.2739 21.1858 16.5159 21.5 15.7254 21.5H5.48052C4.69008 21.5 3.93207 21.1858 3.37315 20.6269C2.81422 20.0679 2.5 19.3099 2.5 18.5195V8.27458C2.5 7.48415 2.81422 6.72613 3.37315 6.16721C3.93207 5.60829 4.69008 5.29406 5.48052 5.29406H11.0686Z" fill="black" fill-opacity="0.2"/>
<path d="M11.0686 5.29406C11.6859 5.29406 12.1865 5.79462 12.1865 6.41187C12.1865 7.02912 11.6859 7.52968 11.0686 7.52968H5.48052C5.28291 7.52968 5.09363 7.60824 4.9539 7.74797C4.81417 7.8877 4.73562 8.07697 4.73562 8.27458V18.5195L4.73925 18.5932C4.7562 18.7637 4.83165 18.9238 4.9539 19.0461C5.09363 19.1858 5.28291 19.2644 5.48052 19.2644H15.7254C15.923 19.2644 16.1123 19.1858 16.252 19.0461C16.3918 18.9064 16.4703 18.7171 16.4703 18.5195V12.9314C16.4703 12.3141 16.9709 11.8135 17.5881 11.8135C18.2054 11.8135 18.7059 12.3141 18.7059 12.9314V18.5195C18.7059 19.3099 18.3917 20.0679 17.8328 20.6269C17.2739 21.1858 16.5159 21.5 15.7254 21.5H5.48052C4.69008 21.5 3.93207 21.1858 3.37315 20.6269C2.81422 20.0679 2.5 19.3099 2.5 18.5195V8.27458C2.5 7.48415 2.81422 6.72613 3.37315 6.16721C3.93207 5.60829 4.69008 5.29406 5.48052 5.29406H11.0686Z" fill="black" fill-opacity="0.2"/>
<path d="M11.0686 5.29406C11.6859 5.29406 12.1865 5.79462 12.1865 6.41187C12.1865 7.02912 11.6859 7.52968 11.0686 7.52968H5.48052C5.28291 7.52968 5.09363 7.60824 4.9539 7.74797C4.81417 7.8877 4.73562 8.07697 4.73562 8.27458V18.5195L4.73925 18.5932C4.7562 18.7637 4.83165 18.9238 4.9539 19.0461C5.09363 19.1858 5.28291 19.2644 5.48052 19.2644H15.7254C15.923 19.2644 16.1123 19.1858 16.252 19.0461C16.3918 18.9064 16.4703 18.7171 16.4703 18.5195V12.9314C16.4703 12.3141 16.9709 11.8135 17.5881 11.8135C18.2054 11.8135 18.7059 12.3141 18.7059 12.9314V18.5195C18.7059 19.3099 18.3917 20.0679 17.8328 20.6269C17.2739 21.1858 16.5159 21.5 15.7254 21.5H5.48052C4.69008 21.5 3.93207 21.1858 3.37315 20.6269C2.81422 20.0679 2.5 19.3099 2.5 18.5195V8.27458C2.5 7.48415 2.81422 6.72613 3.37315 6.16721C3.93207 5.60829 4.69008 5.29406 5.48052 5.29406H11.0686Z" fill="black" fill-opacity="0.2"/>
<path d="M11.0686 5.29406C11.6859 5.29406 12.1865 5.79462 12.1865 6.41187C12.1865 7.02912 11.6859 7.52968 11.0686 7.52968H5.48052C5.28291 7.52968 5.09363 7.60824 4.9539 7.74797C4.81417 7.8877 4.73562 8.07697 4.73562 8.27458V18.5195L4.73925 18.5932C4.7562 18.7637 4.83165 18.9238 4.9539 19.0461C5.09363 19.1858 5.28291 19.2644 5.48052 19.2644H15.7254C15.923 19.2644 16.1123 19.1858 16.252 19.0461C16.3918 18.9064 16.4703 18.7171 16.4703 18.5195V12.9314C16.4703 12.3141 16.9709 11.8135 17.5881 11.8135C18.2054 11.8135 18.7059 12.3141 18.7059 12.9314V18.5195C18.7059 19.3099 18.3917 20.0679 17.8328 20.6269C17.2739 21.1858 16.5159 21.5 15.7254 21.5H5.48052C4.69008 21.5 3.93207 21.1858 3.37315 20.6269C2.81422 20.0679 2.5 19.3099 2.5 18.5195V8.27458C2.5 7.48415 2.81422 6.72613 3.37315 6.16721C3.93207 5.60829 4.69008 5.29406 5.48052 5.29406H11.0686Z" fill="black" fill-opacity="0.2"/>
<path d="M11.0686 5.29406C11.6859 5.29406 12.1865 5.79462 12.1865 6.41187C12.1865 7.02912 11.6859 7.52968 11.0686 7.52968H5.48052C5.28291 7.52968 5.09363 7.60824 4.9539 7.74797C4.81417 7.8877 4.73562 8.07697 4.73562 8.27458V18.5195L4.73925 18.5932C4.7562 18.7637 4.83165 18.9238 4.9539 19.0461C5.09363 19.1858 5.28291 19.2644 5.48052 19.2644H15.7254C15.923 19.2644 16.1123 19.1858 16.252 19.0461C16.3918 18.9064 16.4703 18.7171 16.4703 18.5195V12.9314C16.4703 12.3141 16.9709 11.8135 17.5881 11.8135C18.2054 11.8135 18.7059 12.3141 18.7059 12.9314V18.5195C18.7059 19.3099 18.3917 20.0679 17.8328 20.6269C17.2739 21.1858 16.5159 21.5 15.7254 21.5H5.48052C4.69008 21.5 3.93207 21.1858 3.37315 20.6269C2.81422 20.0679 2.5 19.3099 2.5 18.5195V8.27458C2.5 7.48415 2.81422 6.72613 3.37315 6.16721C3.93207 5.60829 4.69008 5.29406 5.48052 5.29406H11.0686Z" fill="black" fill-opacity="0.2"/>
<path d="M20.3822 2.5C20.4889 2.5 20.5919 2.51573 20.6896 2.54366C20.6935 2.54476 20.6976 2.54524 20.7014 2.54639C20.7218 2.55245 20.7416 2.56012 20.7615 2.5673C20.7785 2.57344 20.7956 2.57941 20.8124 2.5864C20.8288 2.59327 20.8446 2.60152 20.8606 2.60914C20.8753 2.6161 20.8907 2.62152 20.9052 2.62915C20.9602 2.65834 21.0116 2.69338 21.0607 2.73102C21.0993 2.76064 21.1372 2.79209 21.1726 2.82743C21.2076 2.86246 21.2387 2.90014 21.2681 2.93839C21.3037 2.98481 21.3373 3.03306 21.3654 3.08483L21.3718 3.09756C21.3956 3.14289 21.4146 3.19006 21.4318 3.23763C21.4749 3.35648 21.5 3.4841 21.5 3.61781V9.20594C21.5 9.82318 20.9994 10.3237 20.3822 10.3237C19.7649 10.3237 19.2644 9.82318 19.2644 9.20594V6.31637L10.9277 14.6531C10.4912 15.0895 9.78337 15.0895 9.34691 14.6531C8.91045 14.2166 8.91045 13.5088 9.34691 13.0723L17.6836 4.73562H14.7941C14.1768 4.73562 13.6763 4.23506 13.6763 3.61781C13.6763 3.00056 14.1768 2.5 14.7941 2.5H20.3822Z" fill="#1D1A24"/>
<path d="M20.3822 2.5C20.4889 2.5 20.5919 2.51573 20.6896 2.54366C20.6935 2.54476 20.6976 2.54524 20.7014 2.54639C20.7218 2.55245 20.7416 2.56012 20.7615 2.5673C20.7785 2.57344 20.7956 2.57941 20.8124 2.5864C20.8288 2.59327 20.8446 2.60152 20.8606 2.60914C20.8753 2.6161 20.8907 2.62152 20.9052 2.62915C20.9602 2.65834 21.0116 2.69338 21.0607 2.73102C21.0993 2.76064 21.1372 2.79209 21.1726 2.82743C21.2076 2.86246 21.2387 2.90014 21.2681 2.93839C21.3037 2.98481 21.3373 3.03306 21.3654 3.08483L21.3718 3.09756C21.3956 3.14289 21.4146 3.19006 21.4318 3.23763C21.4749 3.35648 21.5 3.4841 21.5 3.61781V9.20594C21.5 9.82318 20.9994 10.3237 20.3822 10.3237C19.7649 10.3237 19.2644 9.82318 19.2644 9.20594V6.31637L10.9277 14.6531C10.4912 15.0895 9.78337 15.0895 9.34691 14.6531C8.91045 14.2166 8.91045 13.5088 9.34691 13.0723L17.6836 4.73562H14.7941C14.1768 4.73562 13.6763 4.23506 13.6763 3.61781C13.6763 3.00056 14.1768 2.5 14.7941 2.5H20.3822Z" fill="black" fill-opacity="0.2"/>
<path d="M20.3822 2.5C20.4889 2.5 20.5919 2.51573 20.6896 2.54366C20.6935 2.54476 20.6976 2.54524 20.7014 2.54639C20.7218 2.55245 20.7416 2.56012 20.7615 2.5673C20.7785 2.57344 20.7956 2.57941 20.8124 2.5864C20.8288 2.59327 20.8446 2.60152 20.8606 2.60914C20.8753 2.6161 20.8907 2.62152 20.9052 2.62915C20.9602 2.65834 21.0116 2.69338 21.0607 2.73102C21.0993 2.76064 21.1372 2.79209 21.1726 2.82743C21.2076 2.86246 21.2387 2.90014 21.2681 2.93839C21.3037 2.98481 21.3373 3.03306 21.3654 3.08483L21.3718 3.09756C21.3956 3.14289 21.4146 3.19006 21.4318 3.23763C21.4749 3.35648 21.5 3.4841 21.5 3.61781V9.20594C21.5 9.82318 20.9994 10.3237 20.3822 10.3237C19.7649 10.3237 19.2644 9.82318 19.2644 9.20594V6.31637L10.9277 14.6531C10.4912 15.0895 9.78337 15.0895 9.34691 14.6531C8.91045 14.2166 8.91045 13.5088 9.34691 13.0723L17.6836 4.73562H14.7941C14.1768 4.73562 13.6763 4.23506 13.6763 3.61781C13.6763 3.00056 14.1768 2.5 14.7941 2.5H20.3822Z" fill="black" fill-opacity="0.2"/>
<path d="M20.3822 2.5C20.4889 2.5 20.5919 2.51573 20.6896 2.54366C20.6935 2.54476 20.6976 2.54524 20.7014 2.54639C20.7218 2.55245 20.7416 2.56012 20.7615 2.5673C20.7785 2.57344 20.7956 2.57941 20.8124 2.5864C20.8288 2.59327 20.8446 2.60152 20.8606 2.60914C20.8753 2.6161 20.8907 2.62152 20.9052 2.62915C20.9602 2.65834 21.0116 2.69338 21.0607 2.73102C21.0993 2.76064 21.1372 2.79209 21.1726 2.82743C21.2076 2.86246 21.2387 2.90014 21.2681 2.93839C21.3037 2.98481 21.3373 3.03306 21.3654 3.08483L21.3718 3.09756C21.3956 3.14289 21.4146 3.19006 21.4318 3.23763C21.4749 3.35648 21.5 3.4841 21.5 3.61781V9.20594C21.5 9.82318 20.9994 10.3237 20.3822 10.3237C19.7649 10.3237 19.2644 9.82318 19.2644 9.20594V6.31637L10.9277 14.6531C10.4912 15.0895 9.78337 15.0895 9.34691 14.6531C8.91045 14.2166 8.91045 13.5088 9.34691 13.0723L17.6836 4.73562H14.7941C14.1768 4.73562 13.6763 4.23506 13.6763 3.61781C13.6763 3.00056 14.1768 2.5 14.7941 2.5H20.3822Z" fill="black" fill-opacity="0.2"/>
<path d="M20.3822 2.5C20.4889 2.5 20.5919 2.51573 20.6896 2.54366C20.6935 2.54476 20.6976 2.54524 20.7014 2.54639C20.7218 2.55245 20.7416 2.56012 20.7615 2.5673C20.7785 2.57344 20.7956 2.57941 20.8124 2.5864C20.8288 2.59327 20.8446 2.60152 20.8606 2.60914C20.8753 2.6161 20.8907 2.62152 20.9052 2.62915C20.9602 2.65834 21.0116 2.69338 21.0607 2.73102C21.0993 2.76064 21.1372 2.79209 21.1726 2.82743C21.2076 2.86246 21.2387 2.90014 21.2681 2.93839C21.3037 2.98481 21.3373 3.03306 21.3654 3.08483L21.3718 3.09756C21.3956 3.14289 21.4146 3.19006 21.4318 3.23763C21.4749 3.35648 21.5 3.4841 21.5 3.61781V9.20594C21.5 9.82318 20.9994 10.3237 20.3822 10.3237C19.7649 10.3237 19.2644 9.82318 19.2644 9.20594V6.31637L10.9277 14.6531C10.4912 15.0895 9.78337 15.0895 9.34691 14.6531C8.91045 14.2166 8.91045 13.5088 9.34691 13.0723L17.6836 4.73562H14.7941C14.1768 4.73562 13.6763 4.23506 13.6763 3.61781C13.6763 3.00056 14.1768 2.5 14.7941 2.5H20.3822Z" fill="black" fill-opacity="0.2"/>
<path d="M20.3822 2.5C20.4889 2.5 20.5919 2.51573 20.6896 2.54366C20.6935 2.54476 20.6976 2.54524 20.7014 2.54639C20.7218 2.55245 20.7416 2.56012 20.7615 2.5673C20.7785 2.57344 20.7956 2.57941 20.8124 2.5864C20.8288 2.59327 20.8446 2.60152 20.8606 2.60914C20.8753 2.6161 20.8907 2.62152 20.9052 2.62915C20.9602 2.65834 21.0116 2.69338 21.0607 2.73102C21.0993 2.76064 21.1372 2.79209 21.1726 2.82743C21.2076 2.86246 21.2387 2.90014 21.2681 2.93839C21.3037 2.98481 21.3373 3.03306 21.3654 3.08483L21.3718 3.09756C21.3956 3.14289 21.4146 3.19006 21.4318 3.23763C21.4749 3.35648 21.5 3.4841 21.5 3.61781V9.20594C21.5 9.82318 20.9994 10.3237 20.3822 10.3237C19.7649 10.3237 19.2644 9.82318 19.2644 9.20594V6.31637L10.9277 14.6531C10.4912 15.0895 9.78337 15.0895 9.34691 14.6531C8.91045 14.2166 8.91045 13.5088 9.34691 13.0723L17.6836 4.73562H14.7941C14.1768 4.73562 13.6763 4.23506 13.6763 3.61781C13.6763 3.00056 14.1768 2.5 14.7941 2.5H20.3822Z" fill="black" fill-opacity="0.2"/>
</svg>
