<svg width="24" height="24" viewBox="0 0 24 24" fill="none" xmlns="http://www.w3.org/2000/svg">
<path d="M13.1667 16.6667C13.811 16.6667 14.3333 17.189 14.3333 17.8333C14.3333 18.4777 13.811 19 13.1667 19H10.8333C10.189 19 9.66667 18.4777 9.66667 17.8333C9.66667 17.189 10.189 16.6667 10.8333 16.6667H13.1667Z" fill="#1D1A24"/>
<path d="M17.8333 10.8333C18.4777 10.8333 19 11.3557 19 12C19 12.6443 18.4777 13.1667 17.8333 13.1667H6.16667C5.52233 13.1667 5 12.6443 5 12C5 11.3557 5.52233 10.8333 6.16667 10.8333H17.8333Z" fill="#1D1A24"/>
<path d="M21.3333 5C21.9777 5 22.5 5.52233 22.5 6.16667C22.5 6.811 21.9777 7.33333 21.3333 7.33333H2.66667C2.02233 7.33333 1.5 6.811 1.5 6.16667C1.5 5.52233 2.02233 5 2.66667 5H21.3333Z" fill="#1D1A24"/>
<path d="M13.1667 16.6667C13.811 16.6667 14.3333 17.189 14.3333 17.8333C14.3333 18.4777 13.811 19 13.1667 19H10.8333C10.189 19 9.66667 18.4777 9.66667 17.8333C9.66667 17.189 10.189 16.6667 10.8333 16.6667H13.1667Z" stroke="#1D1A24" stroke-width="0.35"/>
<path d="M17.8333 10.8333C18.4777 10.8333 19 11.3557 19 12C19 12.6443 18.4777 13.1667 17.8333 13.1667H6.16667C5.52233 13.1667 5 12.6443 5 12C5 11.3557 5.52233 10.8333 6.16667 10.8333H17.8333Z" stroke="#1D1A24" stroke-width="0.35"/>
<path d="M21.3333 5C21.9777 5 22.5 5.52233 22.5 6.16667C22.5 6.811 21.9777 7.33333 21.3333 7.33333H2.66667C2.02233 7.33333 1.5 6.811 1.5 6.16667C1.5 5.52233 2.02233 5 2.66667 5H21.3333Z" stroke="#1D1A24" stroke-width="0.35"/>
</svg>
