<svg width="24" height="24" viewBox="0 0 24 24" fill="none" xmlns="http://www.w3.org/2000/svg">
<path d="M12.043 3.86328C13.0388 3.86328 13.887 4.18125 14.4873 4.75293C15.0883 5.32535 15.4257 6.13761 15.4258 7.0957C15.4258 8.79303 14.3279 9.5739 13.6982 10.0869L13.6973 10.0879C13.3835 10.3413 13.1665 10.5172 13.0215 10.7119C12.886 10.8939 12.8105 11.0976 12.8105 11.4131V11.8799L20.9717 16.4609C21.7154 16.8763 22.082 17.6149 22.082 18.3135C22.082 18.7828 21.9229 19.2387 21.6094 19.5791C21.2933 19.9222 20.8308 20.1357 20.251 20.1357H3.75684C3.17704 20.1357 2.71244 19.9218 2.39453 19.5791C2.07927 19.239 1.91804 18.7834 1.91797 18.3135C1.91797 17.6149 2.28466 16.8763 3.02832 16.4609L11.1895 11.8838V11.4131C11.1895 9.90442 12.1794 9.34583 12.8545 8.7998C13.1246 8.5813 13.3687 8.37946 13.5488 8.11914C13.7243 7.86551 13.8438 7.54791 13.8438 7.0957C13.8436 6.59561 13.6629 6.19188 13.3574 5.91211C13.0502 5.63094 12.6009 5.46094 12.043 5.46094C11.5094 5.46102 11.0746 5.65957 10.7715 6C10.4665 6.34256 10.2822 6.84424 10.2822 7.4668C10.282 7.88345 9.9251 8.22557 9.49121 8.22559C9.03365 8.22559 8.69242 7.86768 8.69238 7.3877C8.69238 6.34887 9.02203 5.46583 9.61426 4.84082C10.2073 4.215 11.0491 3.86336 12.043 3.86328ZM3.8623 17.8809C3.74844 17.9445 3.68252 18.0074 3.64551 18.0635C3.60987 18.1175 3.59475 18.1754 3.59473 18.2422C3.59473 18.3212 3.6194 18.3767 3.65527 18.4121C3.69064 18.4469 3.75779 18.4834 3.88281 18.4834H20.1172C20.2475 18.4834 20.3167 18.4461 20.3525 18.4111C20.3886 18.3759 20.4141 18.3211 20.4141 18.2422C20.414 18.1754 20.3979 18.1175 20.3623 18.0635C20.3253 18.0074 20.2594 17.9445 20.1455 17.8809L12.0039 13.3271L3.8623 17.8809Z" fill="#1D1A24"/>
</svg>
