<svg width="24" height="24" viewBox="0 0 24 24" fill="none" xmlns="http://www.w3.org/2000/svg">
<path fill-rule="evenodd" clip-rule="evenodd" d="M16.2304 3C16.9879 3.00003 17.7383 3.15209 18.4381 3.44664C19.138 3.74129 19.7747 4.17324 20.3103 4.71763C20.8461 5.2617 21.2703 5.90781 21.5604 6.61876C21.8504 7.32989 22 8.09289 22 8.86265C22 9.63234 21.8504 10.3945 21.5604 11.1056C21.2704 11.8165 20.8459 12.4626 20.3103 13.0067L12.7555 20.6821C12.3383 21.106 11.6617 21.106 11.2445 20.6821L3.68968 13.0067C2.60817 11.9076 2.00008 10.4168 2 8.86265C2.00007 7.30826 2.6079 5.81681 3.68968 4.71763C4.77159 3.61847 6.23956 3.00108 7.76958 3.00097C9.29965 3.00097 10.7675 3.6185 11.8495 4.71763L11.9995 4.87007L12.1505 4.71763L12.356 4.51858C12.846 4.0673 13.4095 3.70444 14.0218 3.44664C14.7218 3.15197 15.4727 3.00002 16.2304 3ZM16.2304 5.17106C15.7534 5.17109 15.2806 5.26617 14.8399 5.45167C14.3993 5.63716 13.9987 5.90908 13.6615 6.25174L12.7555 7.17221C12.3383 7.59604 11.6617 7.59604 11.2445 7.17221L10.3385 6.25271C9.6572 5.56064 8.73303 5.17106 7.76958 5.17106C6.80619 5.17117 5.88189 5.56062 5.20065 6.25271C4.51953 6.94484 4.13702 7.88393 4.13695 8.86265C4.13703 9.84137 4.51952 10.7805 5.20065 11.4726L11.9995 18.379L18.7994 11.4726L18.9226 11.3405C19.2024 11.027 19.4271 10.6662 19.5868 10.2744C19.7693 9.82684 19.864 9.34711 19.864 8.86265C19.864 8.37802 19.7694 7.89762 19.5868 7.4499C19.4042 7.00228 19.1367 6.59527 18.7994 6.25271C18.4621 5.91001 18.0607 5.63717 17.62 5.45167C17.1795 5.26635 16.7072 5.1711 16.2304 5.17106Z" fill="#1D1A24"/>
<path fill-rule="evenodd" clip-rule="evenodd" d="M16.2304 3C16.9879 3.00003 17.7383 3.15209 18.4381 3.44664C19.138 3.74129 19.7747 4.17324 20.3103 4.71763C20.8461 5.2617 21.2703 5.90781 21.5604 6.61876C21.8504 7.32989 22 8.09289 22 8.86265C22 9.63234 21.8504 10.3945 21.5604 11.1056C21.2704 11.8165 20.8459 12.4626 20.3103 13.0067L12.7555 20.6821C12.3383 21.106 11.6617 21.106 11.2445 20.6821L3.68968 13.0067C2.60817 11.9076 2.00008 10.4168 2 8.86265C2.00007 7.30826 2.6079 5.81681 3.68968 4.71763C4.77159 3.61847 6.23956 3.00108 7.76958 3.00097C9.29965 3.00097 10.7675 3.6185 11.8495 4.71763L11.9995 4.87007L12.1505 4.71763L12.356 4.51858C12.846 4.0673 13.4095 3.70444 14.0218 3.44664C14.7218 3.15197 15.4727 3.00002 16.2304 3ZM16.2304 5.17106C15.7534 5.17109 15.2806 5.26617 14.8399 5.45167C14.3993 5.63716 13.9987 5.90908 13.6615 6.25174L12.7555 7.17221C12.3383 7.59604 11.6617 7.59604 11.2445 7.17221L10.3385 6.25271C9.6572 5.56064 8.73303 5.17106 7.76958 5.17106C6.80619 5.17117 5.88189 5.56062 5.20065 6.25271C4.51953 6.94484 4.13702 7.88393 4.13695 8.86265C4.13703 9.84137 4.51952 10.7805 5.20065 11.4726L11.9995 18.379L18.7994 11.4726L18.9226 11.3405C19.2024 11.027 19.4271 10.6662 19.5868 10.2744C19.7693 9.82684 19.864 9.34711 19.864 8.86265C19.864 8.37802 19.7694 7.89762 19.5868 7.4499C19.4042 7.00228 19.1367 6.59527 18.7994 6.25271C18.4621 5.91001 18.0607 5.63717 17.62 5.45167C17.1795 5.26635 16.7072 5.1711 16.2304 5.17106Z" fill="black" fill-opacity="0.2"/>
<path fill-rule="evenodd" clip-rule="evenodd" d="M16.2304 3C16.9879 3.00003 17.7383 3.15209 18.4381 3.44664C19.138 3.74129 19.7747 4.17324 20.3103 4.71763C20.8461 5.2617 21.2703 5.90781 21.5604 6.61876C21.8504 7.32989 22 8.09289 22 8.86265C22 9.63234 21.8504 10.3945 21.5604 11.1056C21.2704 11.8165 20.8459 12.4626 20.3103 13.0067L12.7555 20.6821C12.3383 21.106 11.6617 21.106 11.2445 20.6821L3.68968 13.0067C2.60817 11.9076 2.00008 10.4168 2 8.86265C2.00007 7.30826 2.6079 5.81681 3.68968 4.71763C4.77159 3.61847 6.23956 3.00108 7.76958 3.00097C9.29965 3.00097 10.7675 3.6185 11.8495 4.71763L11.9995 4.87007L12.1505 4.71763L12.356 4.51858C12.846 4.0673 13.4095 3.70444 14.0218 3.44664C14.7218 3.15197 15.4727 3.00002 16.2304 3ZM16.2304 5.17106C15.7534 5.17109 15.2806 5.26617 14.8399 5.45167C14.3993 5.63716 13.9987 5.90908 13.6615 6.25174L12.7555 7.17221C12.3383 7.59604 11.6617 7.59604 11.2445 7.17221L10.3385 6.25271C9.6572 5.56064 8.73303 5.17106 7.76958 5.17106C6.80619 5.17117 5.88189 5.56062 5.20065 6.25271C4.51953 6.94484 4.13702 7.88393 4.13695 8.86265C4.13703 9.84137 4.51952 10.7805 5.20065 11.4726L11.9995 18.379L18.7994 11.4726L18.9226 11.3405C19.2024 11.027 19.4271 10.6662 19.5868 10.2744C19.7693 9.82684 19.864 9.34711 19.864 8.86265C19.864 8.37802 19.7694 7.89762 19.5868 7.4499C19.4042 7.00228 19.1367 6.59527 18.7994 6.25271C18.4621 5.91001 18.0607 5.63717 17.62 5.45167C17.1795 5.26635 16.7072 5.1711 16.2304 5.17106Z" fill="black" fill-opacity="0.2"/>
<path fill-rule="evenodd" clip-rule="evenodd" d="M16.2304 3C16.9879 3.00003 17.7383 3.15209 18.4381 3.44664C19.138 3.74129 19.7747 4.17324 20.3103 4.71763C20.8461 5.2617 21.2703 5.90781 21.5604 6.61876C21.8504 7.32989 22 8.09289 22 8.86265C22 9.63234 21.8504 10.3945 21.5604 11.1056C21.2704 11.8165 20.8459 12.4626 20.3103 13.0067L12.7555 20.6821C12.3383 21.106 11.6617 21.106 11.2445 20.6821L3.68968 13.0067C2.60817 11.9076 2.00008 10.4168 2 8.86265C2.00007 7.30826 2.6079 5.81681 3.68968 4.71763C4.77159 3.61847 6.23956 3.00108 7.76958 3.00097C9.29965 3.00097 10.7675 3.6185 11.8495 4.71763L11.9995 4.87007L12.1505 4.71763L12.356 4.51858C12.846 4.0673 13.4095 3.70444 14.0218 3.44664C14.7218 3.15197 15.4727 3.00002 16.2304 3ZM16.2304 5.17106C15.7534 5.17109 15.2806 5.26617 14.8399 5.45167C14.3993 5.63716 13.9987 5.90908 13.6615 6.25174L12.7555 7.17221C12.3383 7.59604 11.6617 7.59604 11.2445 7.17221L10.3385 6.25271C9.6572 5.56064 8.73303 5.17106 7.76958 5.17106C6.80619 5.17117 5.88189 5.56062 5.20065 6.25271C4.51953 6.94484 4.13702 7.88393 4.13695 8.86265C4.13703 9.84137 4.51952 10.7805 5.20065 11.4726L11.9995 18.379L18.7994 11.4726L18.9226 11.3405C19.2024 11.027 19.4271 10.6662 19.5868 10.2744C19.7693 9.82684 19.864 9.34711 19.864 8.86265C19.864 8.37802 19.7694 7.89762 19.5868 7.4499C19.4042 7.00228 19.1367 6.59527 18.7994 6.25271C18.4621 5.91001 18.0607 5.63717 17.62 5.45167C17.1795 5.26635 16.7072 5.1711 16.2304 5.17106Z" fill="black" fill-opacity="0.2"/>
<path fill-rule="evenodd" clip-rule="evenodd" d="M16.2304 3C16.9879 3.00003 17.7383 3.15209 18.4381 3.44664C19.138 3.74129 19.7747 4.17324 20.3103 4.71763C20.8461 5.2617 21.2703 5.90781 21.5604 6.61876C21.8504 7.32989 22 8.09289 22 8.86265C22 9.63234 21.8504 10.3945 21.5604 11.1056C21.2704 11.8165 20.8459 12.4626 20.3103 13.0067L12.7555 20.6821C12.3383 21.106 11.6617 21.106 11.2445 20.6821L3.68968 13.0067C2.60817 11.9076 2.00008 10.4168 2 8.86265C2.00007 7.30826 2.6079 5.81681 3.68968 4.71763C4.77159 3.61847 6.23956 3.00108 7.76958 3.00097C9.29965 3.00097 10.7675 3.6185 11.8495 4.71763L11.9995 4.87007L12.1505 4.71763L12.356 4.51858C12.846 4.0673 13.4095 3.70444 14.0218 3.44664C14.7218 3.15197 15.4727 3.00002 16.2304 3ZM16.2304 5.17106C15.7534 5.17109 15.2806 5.26617 14.8399 5.45167C14.3993 5.63716 13.9987 5.90908 13.6615 6.25174L12.7555 7.17221C12.3383 7.59604 11.6617 7.59604 11.2445 7.17221L10.3385 6.25271C9.6572 5.56064 8.73303 5.17106 7.76958 5.17106C6.80619 5.17117 5.88189 5.56062 5.20065 6.25271C4.51953 6.94484 4.13702 7.88393 4.13695 8.86265C4.13703 9.84137 4.51952 10.7805 5.20065 11.4726L11.9995 18.379L18.7994 11.4726L18.9226 11.3405C19.2024 11.027 19.4271 10.6662 19.5868 10.2744C19.7693 9.82684 19.864 9.34711 19.864 8.86265C19.864 8.37802 19.7694 7.89762 19.5868 7.4499C19.4042 7.00228 19.1367 6.59527 18.7994 6.25271C18.4621 5.91001 18.0607 5.63717 17.62 5.45167C17.1795 5.26635 16.7072 5.1711 16.2304 5.17106Z" fill="black" fill-opacity="0.2"/>
<path fill-rule="evenodd" clip-rule="evenodd" d="M16.2304 3C16.9879 3.00003 17.7383 3.15209 18.4381 3.44664C19.138 3.74129 19.7747 4.17324 20.3103 4.71763C20.8461 5.2617 21.2703 5.90781 21.5604 6.61876C21.8504 7.32989 22 8.09289 22 8.86265C22 9.63234 21.8504 10.3945 21.5604 11.1056C21.2704 11.8165 20.8459 12.4626 20.3103 13.0067L12.7555 20.6821C12.3383 21.106 11.6617 21.106 11.2445 20.6821L3.68968 13.0067C2.60817 11.9076 2.00008 10.4168 2 8.86265C2.00007 7.30826 2.6079 5.81681 3.68968 4.71763C4.77159 3.61847 6.23956 3.00108 7.76958 3.00097C9.29965 3.00097 10.7675 3.6185 11.8495 4.71763L11.9995 4.87007L12.1505 4.71763L12.356 4.51858C12.846 4.0673 13.4095 3.70444 14.0218 3.44664C14.7218 3.15197 15.4727 3.00002 16.2304 3ZM16.2304 5.17106C15.7534 5.17109 15.2806 5.26617 14.8399 5.45167C14.3993 5.63716 13.9987 5.90908 13.6615 6.25174L12.7555 7.17221C12.3383 7.59604 11.6617 7.59604 11.2445 7.17221L10.3385 6.25271C9.6572 5.56064 8.73303 5.17106 7.76958 5.17106C6.80619 5.17117 5.88189 5.56062 5.20065 6.25271C4.51953 6.94484 4.13702 7.88393 4.13695 8.86265C4.13703 9.84137 4.51952 10.7805 5.20065 11.4726L11.9995 18.379L18.7994 11.4726L18.9226 11.3405C19.2024 11.027 19.4271 10.6662 19.5868 10.2744C19.7693 9.82684 19.864 9.34711 19.864 8.86265C19.864 8.37802 19.7694 7.89762 19.5868 7.4499C19.4042 7.00228 19.1367 6.59527 18.7994 6.25271C18.4621 5.91001 18.0607 5.63717 17.62 5.45167C17.1795 5.26635 16.7072 5.1711 16.2304 5.17106Z" fill="black" fill-opacity="0.2"/>
</svg>
