<svg width="24" height="24" viewBox="0 0 24 24" fill="none" xmlns="http://www.w3.org/2000/svg">
<path fill-rule="evenodd" clip-rule="evenodd" d="M8.5 6.5C9.60457 6.5 10.5 7.39543 10.5 8.5C10.5 9.60457 9.60457 10.5 8.5 10.5C7.39543 10.5 6.5 9.60457 6.5 8.5C6.5 7.39543 7.39543 6.5 8.5 6.5ZM8.5 7.5C7.94772 7.5 7.5 7.94772 7.5 8.5C7.5 9.05228 7.94772 9.5 8.5 9.5C9.05228 9.5 9.5 9.05228 9.5 8.5C9.5 7.94772 9.05228 7.5 8.5 7.5Z" fill="#1D1A24"/>
<path fill-rule="evenodd" clip-rule="evenodd" d="M8.5 6.5C9.60457 6.5 10.5 7.39543 10.5 8.5C10.5 9.60457 9.60457 10.5 8.5 10.5C7.39543 10.5 6.5 9.60457 6.5 8.5C6.5 7.39543 7.39543 6.5 8.5 6.5ZM8.5 7.5C7.94772 7.5 7.5 7.94772 7.5 8.5C7.5 9.05228 7.94772 9.5 8.5 9.5C9.05228 9.5 9.5 9.05228 9.5 8.5C9.5 7.94772 9.05228 7.5 8.5 7.5Z" fill="black" fill-opacity="0.2"/>
<path fill-rule="evenodd" clip-rule="evenodd" d="M8.5 6.5C9.60457 6.5 10.5 7.39543 10.5 8.5C10.5 9.60457 9.60457 10.5 8.5 10.5C7.39543 10.5 6.5 9.60457 6.5 8.5C6.5 7.39543 7.39543 6.5 8.5 6.5ZM8.5 7.5C7.94772 7.5 7.5 7.94772 7.5 8.5C7.5 9.05228 7.94772 9.5 8.5 9.5C9.05228 9.5 9.5 9.05228 9.5 8.5C9.5 7.94772 9.05228 7.5 8.5 7.5Z" fill="black" fill-opacity="0.2"/>
<path fill-rule="evenodd" clip-rule="evenodd" d="M8.5 6.5C9.60457 6.5 10.5 7.39543 10.5 8.5C10.5 9.60457 9.60457 10.5 8.5 10.5C7.39543 10.5 6.5 9.60457 6.5 8.5C6.5 7.39543 7.39543 6.5 8.5 6.5ZM8.5 7.5C7.94772 7.5 7.5 7.94772 7.5 8.5C7.5 9.05228 7.94772 9.5 8.5 9.5C9.05228 9.5 9.5 9.05228 9.5 8.5C9.5 7.94772 9.05228 7.5 8.5 7.5Z" fill="black" fill-opacity="0.2"/>
<path fill-rule="evenodd" clip-rule="evenodd" d="M8.5 6.5C9.60457 6.5 10.5 7.39543 10.5 8.5C10.5 9.60457 9.60457 10.5 8.5 10.5C7.39543 10.5 6.5 9.60457 6.5 8.5C6.5 7.39543 7.39543 6.5 8.5 6.5ZM8.5 7.5C7.94772 7.5 7.5 7.94772 7.5 8.5C7.5 9.05228 7.94772 9.5 8.5 9.5C9.05228 9.5 9.5 9.05228 9.5 8.5C9.5 7.94772 9.05228 7.5 8.5 7.5Z" fill="black" fill-opacity="0.2"/>
<path fill-rule="evenodd" clip-rule="evenodd" d="M8.5 6.5C9.60457 6.5 10.5 7.39543 10.5 8.5C10.5 9.60457 9.60457 10.5 8.5 10.5C7.39543 10.5 6.5 9.60457 6.5 8.5C6.5 7.39543 7.39543 6.5 8.5 6.5ZM8.5 7.5C7.94772 7.5 7.5 7.94772 7.5 8.5C7.5 9.05228 7.94772 9.5 8.5 9.5C9.05228 9.5 9.5 9.05228 9.5 8.5C9.5 7.94772 9.05228 7.5 8.5 7.5Z" fill="black" fill-opacity="0.2"/>
<path fill-rule="evenodd" clip-rule="evenodd" d="M19 2C20.6569 2 22 3.34315 22 5V19C22 20.6569 20.6569 22 19 22H5C3.34315 22 2 20.6569 2 19V5C2 3.34315 3.34315 2 5 2H19ZM7.41406 20H19C19.5523 20 20 19.5523 20 19V15.4141L16 11.4141L7.41406 20ZM5 4C4.44772 4 4 4.44772 4 5V19C4 19.4288 4.27028 19.7934 4.64941 19.9355L15.293 9.29297L15.3691 9.22461C15.7619 8.90426 16.3409 8.92685 16.707 9.29297L20 12.5859V5C20 4.44772 19.5523 4 19 4H5Z" fill="#1D1A24"/>
<path fill-rule="evenodd" clip-rule="evenodd" d="M19 2C20.6569 2 22 3.34315 22 5V19C22 20.6569 20.6569 22 19 22H5C3.34315 22 2 20.6569 2 19V5C2 3.34315 3.34315 2 5 2H19ZM7.41406 20H19C19.5523 20 20 19.5523 20 19V15.4141L16 11.4141L7.41406 20ZM5 4C4.44772 4 4 4.44772 4 5V19C4 19.4288 4.27028 19.7934 4.64941 19.9355L15.293 9.29297L15.3691 9.22461C15.7619 8.90426 16.3409 8.92685 16.707 9.29297L20 12.5859V5C20 4.44772 19.5523 4 19 4H5Z" fill="black" fill-opacity="0.2"/>
<path fill-rule="evenodd" clip-rule="evenodd" d="M19 2C20.6569 2 22 3.34315 22 5V19C22 20.6569 20.6569 22 19 22H5C3.34315 22 2 20.6569 2 19V5C2 3.34315 3.34315 2 5 2H19ZM7.41406 20H19C19.5523 20 20 19.5523 20 19V15.4141L16 11.4141L7.41406 20ZM5 4C4.44772 4 4 4.44772 4 5V19C4 19.4288 4.27028 19.7934 4.64941 19.9355L15.293 9.29297L15.3691 9.22461C15.7619 8.90426 16.3409 8.92685 16.707 9.29297L20 12.5859V5C20 4.44772 19.5523 4 19 4H5Z" fill="black" fill-opacity="0.2"/>
<path fill-rule="evenodd" clip-rule="evenodd" d="M19 2C20.6569 2 22 3.34315 22 5V19C22 20.6569 20.6569 22 19 22H5C3.34315 22 2 20.6569 2 19V5C2 3.34315 3.34315 2 5 2H19ZM7.41406 20H19C19.5523 20 20 19.5523 20 19V15.4141L16 11.4141L7.41406 20ZM5 4C4.44772 4 4 4.44772 4 5V19C4 19.4288 4.27028 19.7934 4.64941 19.9355L15.293 9.29297L15.3691 9.22461C15.7619 8.90426 16.3409 8.92685 16.707 9.29297L20 12.5859V5C20 4.44772 19.5523 4 19 4H5Z" fill="black" fill-opacity="0.2"/>
<path fill-rule="evenodd" clip-rule="evenodd" d="M19 2C20.6569 2 22 3.34315 22 5V19C22 20.6569 20.6569 22 19 22H5C3.34315 22 2 20.6569 2 19V5C2 3.34315 3.34315 2 5 2H19ZM7.41406 20H19C19.5523 20 20 19.5523 20 19V15.4141L16 11.4141L7.41406 20ZM5 4C4.44772 4 4 4.44772 4 5V19C4 19.4288 4.27028 19.7934 4.64941 19.9355L15.293 9.29297L15.3691 9.22461C15.7619 8.90426 16.3409 8.92685 16.707 9.29297L20 12.5859V5C20 4.44772 19.5523 4 19 4H5Z" fill="black" fill-opacity="0.2"/>
<path fill-rule="evenodd" clip-rule="evenodd" d="M19 2C20.6569 2 22 3.34315 22 5V19C22 20.6569 20.6569 22 19 22H5C3.34315 22 2 20.6569 2 19V5C2 3.34315 3.34315 2 5 2H19ZM7.41406 20H19C19.5523 20 20 19.5523 20 19V15.4141L16 11.4141L7.41406 20ZM5 4C4.44772 4 4 4.44772 4 5V19C4 19.4288 4.27028 19.7934 4.64941 19.9355L15.293 9.29297L15.3691 9.22461C15.7619 8.90426 16.3409 8.92685 16.707 9.29297L20 12.5859V5C20 4.44772 19.5523 4 19 4H5Z" fill="black" fill-opacity="0.2"/>
</svg>
