<svg width="24" height="24" viewBox="0 0 24 24" fill="none" xmlns="http://www.w3.org/2000/svg">
<path d="M14.0449 4.13086C14.3413 4.13087 14.5537 4.17312 14.7314 4.25879C14.9049 4.34243 15.0311 4.4619 15.1533 4.57422L16.2695 5.59961L17.9521 6.24023C18.5979 6.48561 18.9948 6.86623 19.2021 7.37402L19.2803 7.59961L22.0205 17.3906C22.1322 17.7891 22.1276 18.1774 21.9726 18.5029C21.8154 18.8331 21.5168 19.0689 21.1006 19.1846L21.1016 19.1855L19.0527 19.7686L19.0518 19.7676C18.6819 19.875 18.3085 19.911 17.9951 19.8027C17.722 19.7083 17.5176 19.5118 17.4043 19.2158C17.0194 19.5534 16.4941 19.7412 15.8945 19.7412H8.10448C7.50734 19.7412 6.98314 19.5537 6.59862 19.2158C6.48349 19.5111 6.28123 19.7082 6.00878 19.8027C5.69573 19.9113 5.3232 19.8752 4.95312 19.7676L2.90429 19.1855C2.489 19.0698 2.18919 18.8333 2.03027 18.5039C1.87326 18.1785 1.86658 17.7898 1.97851 17.3906L4.72558 7.59961C4.89535 6.97666 5.3099 6.52028 6.04687 6.24023L7.74901 5.59375L8.86034 4.57422C8.98254 4.46192 9.10877 4.34237 9.28222 4.25879C9.45986 4.17325 9.67178 4.1309 9.96776 4.13086H14.0449ZM6.60253 7.49316C6.44112 7.54983 6.32893 7.63309 6.24511 7.73926C6.15906 7.84834 6.09471 7.99166 6.04394 8.17871L6.04296 8.17969L3.43944 17.6855L3.44042 17.6865C3.41722 17.7764 3.42764 17.8062 3.4287 17.8086C3.42873 17.8086 3.42966 17.8103 3.43261 17.8125C3.43888 17.8171 3.45426 17.8251 3.48437 17.834L5.29589 18.3125C5.3172 18.3174 5.33178 18.3176 5.34081 18.3174C5.34374 18.3115 5.3504 18.3018 5.35448 18.2842L6.17382 14.748L6.62597 12.1758L6.64745 12.0928C6.67399 12.0117 6.71781 11.9393 6.78026 11.8828C6.86407 11.8072 6.96954 11.7705 7.07714 11.7705C7.21106 11.7706 7.32874 11.83 7.40722 11.9297C7.48293 12.0259 7.51339 12.1485 7.50878 12.2715L7.32421 17.4902C7.31849 17.7305 7.39741 17.9219 7.52538 18.0518C7.65337 18.1815 7.84613 18.2656 8.09765 18.2656H11.3096V9.10059L11.04 9.3916C10.7861 9.66963 10.4634 9.79875 10.1377 9.76953C9.81516 9.74055 9.51508 9.55943 9.29491 9.26855L9.29394 9.2666L7.69628 7.10645L6.60253 7.49316ZM14.7197 9.2666L14.7178 9.26855C14.4976 9.55938 14.1975 9.7406 13.875 9.76953C13.59 9.79504 13.3067 9.69975 13.0703 9.48926L12.9726 9.39258L12.7031 9.10059V18.2656H15.9082C16.156 18.2656 16.3493 18.1818 16.4775 18.0518C16.6054 17.9219 16.6833 17.7318 16.6748 17.4932L16.4892 12.2725C16.4799 12.0197 16.6436 11.7705 16.9297 11.7705C17.1585 11.7707 17.3317 11.9386 17.373 12.1758L17.8467 14.8398L18.6523 18.2832C18.6562 18.3 18.6611 18.3112 18.6641 18.3174C18.6719 18.3174 18.6846 18.3171 18.7031 18.3125L20.5166 17.834C20.5826 17.8154 20.5799 17.7983 20.5752 17.8086C20.5752 17.8085 20.5863 17.7809 20.5605 17.6924L20.5596 17.6895L17.956 8.17969C17.9049 7.9913 17.8414 7.84724 17.7568 7.73828C17.6747 7.63254 17.5653 7.54967 17.4043 7.49316L16.3135 7.10938L14.7197 9.2666ZM9.66601 13.8564C9.91342 13.7422 10.2107 13.7888 10.4131 13.9697L10.5059 14.0713L10.5078 14.0732C10.7307 14.3834 10.6591 14.8005 10.3555 15.0283L10.3525 15.0303L9.01171 16.001C8.69782 16.2363 8.27778 16.1536 8.05859 15.8486C7.83571 15.5384 7.90718 15.1214 8.21093 14.8936L8.21386 14.8916L9.54784 13.9268L9.66601 13.8564ZM13.5059 14.0732C13.7229 13.769 14.1586 13.7039 14.459 13.9268L15.793 14.8916C16.1095 15.1218 16.1672 15.54 15.957 15.8457L15.9521 15.8525L15.9512 15.8516C15.7264 16.1511 15.3093 16.238 14.9941 16.002L13.6601 15.0303C13.3433 14.7999 13.2853 14.3801 13.5059 14.0732ZM9.80761 5.41895C9.79313 5.41877 9.76937 5.42499 9.74413 5.44727L8.73925 6.35645L8.73241 6.36328L8.73144 6.3623C8.72432 6.36817 8.72134 6.37357 8.71972 6.37695C8.71799 6.3806 8.71708 6.38602 8.71679 6.39355C8.71618 6.41003 8.72131 6.43599 8.74023 6.46289L10.1699 8.37695C10.2055 8.425 10.242 8.43846 10.2676 8.43945C10.2811 8.43996 10.2973 8.43717 10.3144 8.42969L10.3682 8.38965L11.3887 7.25977L11.4258 7.20215C11.4329 7.18466 11.4356 7.16889 11.4355 7.15527C11.4353 7.12915 11.4249 7.09192 11.3818 7.04883L11.3789 7.04492L9.85741 5.44922L9.85253 5.44336C9.8345 5.42326 9.81923 5.41915 9.80761 5.41895ZM14.2217 5.41699C14.2112 5.41731 14.1939 5.42082 14.1738 5.44336L14.1689 5.44922L12.6406 7.0459L12.6377 7.04883C12.5947 7.09185 12.5842 7.1292 12.584 7.15527C12.5839 7.16886 12.5867 7.18471 12.5937 7.20215L12.6309 7.25977L13.6475 8.38574C13.689 8.42923 13.7292 8.44045 13.7559 8.43945C13.7809 8.43846 13.819 8.42586 13.8594 8.37402L15.2822 6.45898L15.2842 6.45605C15.3071 6.42657 15.309 6.40675 15.3086 6.39941C15.3082 6.39401 15.3066 6.37909 15.2832 6.3584L15.2803 6.35645L14.2803 5.44531L14.2773 5.44238C14.2539 5.42045 14.2334 5.4167 14.2217 5.41699Z" fill="#1D1A24"/>
</svg>
