<svg width="24" height="24" viewBox="0 0 24 24" fill="none" xmlns="http://www.w3.org/2000/svg">
<path d="M10.6027 20.8419C11.4354 20.8419 12.1365 21.6071 11.5483 22.196C11.1726 22.5717 10.7206 22.7602 10.1931 22.7602C9.66559 22.7602 9.21354 22.5717 8.8379 22.196C8.24964 21.6071 8.95078 20.8419 9.7835 20.8419H10.6027Z" fill="#1D1A24"/>
<path d="M10.6027 20.8419C11.4354 20.8419 12.1365 21.6071 11.5483 22.196C11.1726 22.5717 10.7206 22.7602 10.1931 22.7602C9.66559 22.7602 9.21354 22.5717 8.8379 22.196C8.24964 21.6071 8.95078 20.8419 9.7835 20.8419H10.6027Z" fill="black" fill-opacity="0.2"/>
<path d="M10.6027 20.8419C11.4354 20.8419 12.1365 21.6071 11.5483 22.196C11.1726 22.5717 10.7206 22.7602 10.1931 22.7602C9.66559 22.7602 9.21354 22.5717 8.8379 22.196C8.24964 21.6071 8.95078 20.8419 9.7835 20.8419H10.6027Z" fill="black" fill-opacity="0.2"/>
<path d="M10.6027 20.8419C11.4354 20.8419 12.1365 21.6071 11.5483 22.196C11.1726 22.5717 10.7206 22.7602 10.1931 22.7602C9.66559 22.7602 9.21354 22.5717 8.8379 22.196C8.24964 21.6071 8.95078 20.8419 9.7835 20.8419H10.6027Z" fill="black" fill-opacity="0.2"/>
<path d="M10.6027 20.8419C11.4354 20.8419 12.1365 21.6071 11.5483 22.196C11.1726 22.5717 10.7206 22.7602 10.1931 22.7602C9.66559 22.7602 9.21354 22.5717 8.8379 22.196C8.24964 21.6071 8.95078 20.8419 9.7835 20.8419H10.6027Z" fill="black" fill-opacity="0.2"/>
<path d="M10.6027 20.8419C11.4354 20.8419 12.1365 21.6071 11.5483 22.196C11.1726 22.5717 10.7206 22.7602 10.1931 22.7602C9.66559 22.7602 9.21354 22.5717 8.8379 22.196C8.24964 21.6071 8.95078 20.8419 9.7835 20.8419H10.6027Z" fill="black" fill-opacity="0.2"/>
<path d="M13.0699 17.964C13.5996 17.964 14.0295 18.394 14.0295 18.9237C14.0294 19.4533 13.5995 19.8823 13.0699 19.8823H7.31628C6.78668 19.8823 6.35676 19.4533 6.35663 18.9237C6.35663 18.394 6.7866 17.964 7.31628 17.964H13.0699Z" fill="#1D1A24"/>
<path d="M13.0699 17.964C13.5996 17.964 14.0295 18.394 14.0295 18.9237C14.0294 19.4533 13.5995 19.8823 13.0699 19.8823H7.31628C6.78668 19.8823 6.35676 19.4533 6.35663 18.9237C6.35663 18.394 6.7866 17.964 7.31628 17.964H13.0699Z" fill="black" fill-opacity="0.2"/>
<path d="M13.0699 17.964C13.5996 17.964 14.0295 18.394 14.0295 18.9237C14.0294 19.4533 13.5995 19.8823 13.0699 19.8823H7.31628C6.78668 19.8823 6.35676 19.4533 6.35663 18.9237C6.35663 18.394 6.7866 17.964 7.31628 17.964H13.0699Z" fill="black" fill-opacity="0.2"/>
<path d="M13.0699 17.964C13.5996 17.964 14.0295 18.394 14.0295 18.9237C14.0294 19.4533 13.5995 19.8823 13.0699 19.8823H7.31628C6.78668 19.8823 6.35676 19.4533 6.35663 18.9237C6.35663 18.394 6.7866 17.964 7.31628 17.964H13.0699Z" fill="black" fill-opacity="0.2"/>
<path d="M13.0699 17.964C13.5996 17.964 14.0295 18.394 14.0295 18.9237C14.0294 19.4533 13.5995 19.8823 13.0699 19.8823H7.31628C6.78668 19.8823 6.35676 19.4533 6.35663 18.9237C6.35663 18.394 6.7866 17.964 7.31628 17.964H13.0699Z" fill="black" fill-opacity="0.2"/>
<path d="M13.0699 17.964C13.5996 17.964 14.0295 18.394 14.0295 18.9237C14.0294 19.4533 13.5995 19.8823 13.0699 19.8823H7.31628C6.78668 19.8823 6.35676 19.4533 6.35663 18.9237C6.35663 18.394 6.7866 17.964 7.31628 17.964H13.0699Z" fill="black" fill-opacity="0.2"/>
<path d="M10.1931 3.57787C10.7713 3.57787 11.3239 3.63906 11.8519 3.75619C11.5413 4.32133 11.3541 4.95206 11.3116 5.60417C10.9543 5.53277 10.5816 5.4961 10.1931 5.4961C8.72258 5.4961 7.47579 6.00778 6.45281 7.03068C5.42987 8.05362 4.91831 9.30052 4.91823 10.771C4.91823 11.6341 5.1145 12.4415 5.50612 13.1928C5.79138 13.74 6.16338 14.2242 6.62248 14.6442C6.96151 14.9541 7.41884 15.0872 7.87824 15.0872H12.5079C12.9673 15.0872 13.4247 14.9541 13.7637 14.6442C14.2228 14.2242 14.5948 13.74 14.88 13.1928C15.2717 12.4415 15.4679 11.6341 15.4679 10.771C15.4693 10.6181 15.4651 10.4672 15.455 10.3192C15.4547 10.3153 15.4542 10.3113 15.4539 10.3073C16.0477 10.3447 16.6588 10.2638 17.2532 10.0458C17.2781 10.0367 17.3022 10.0251 17.3267 10.0156C17.3561 10.2626 17.3763 10.5144 17.3862 10.771C17.3862 12.0657 17.062 13.2646 16.4146 14.3675C15.8705 15.2946 15.1658 16.0639 14.2997 16.6748C13.9745 16.9041 13.5791 17.0055 13.1812 17.0055H7.20497C6.80704 17.0055 6.41163 16.9041 6.08646 16.6748C5.22039 16.0639 4.51572 15.2946 3.97154 14.3675C3.32418 13.2646 3 12.0657 3 10.771C3.00008 8.7732 3.69929 7.07508 5.09762 5.67658C6.49628 4.27792 8.195 3.57787 10.1931 3.57787Z" fill="#1D1A24"/>
<path d="M10.1931 3.57787C10.7713 3.57787 11.3239 3.63906 11.8519 3.75619C11.5413 4.32133 11.3541 4.95206 11.3116 5.60417C10.9543 5.53277 10.5816 5.4961 10.1931 5.4961C8.72258 5.4961 7.47579 6.00778 6.45281 7.03068C5.42987 8.05362 4.91831 9.30052 4.91823 10.771C4.91823 11.6341 5.1145 12.4415 5.50612 13.1928C5.79138 13.74 6.16338 14.2242 6.62248 14.6442C6.96151 14.9541 7.41884 15.0872 7.87824 15.0872H12.5079C12.9673 15.0872 13.4247 14.9541 13.7637 14.6442C14.2228 14.2242 14.5948 13.74 14.88 13.1928C15.2717 12.4415 15.4679 11.6341 15.4679 10.771C15.4693 10.6181 15.4651 10.4672 15.455 10.3192C15.4547 10.3153 15.4542 10.3113 15.4539 10.3073C16.0477 10.3447 16.6588 10.2638 17.2532 10.0458C17.2781 10.0367 17.3022 10.0251 17.3267 10.0156C17.3561 10.2626 17.3763 10.5144 17.3862 10.771C17.3862 12.0657 17.062 13.2646 16.4146 14.3675C15.8705 15.2946 15.1658 16.0639 14.2997 16.6748C13.9745 16.9041 13.5791 17.0055 13.1812 17.0055H7.20497C6.80704 17.0055 6.41163 16.9041 6.08646 16.6748C5.22039 16.0639 4.51572 15.2946 3.97154 14.3675C3.32418 13.2646 3 12.0657 3 10.771C3.00008 8.7732 3.69929 7.07508 5.09762 5.67658C6.49628 4.27792 8.195 3.57787 10.1931 3.57787Z" fill="black" fill-opacity="0.2"/>
<path d="M10.1931 3.57787C10.7713 3.57787 11.3239 3.63906 11.8519 3.75619C11.5413 4.32133 11.3541 4.95206 11.3116 5.60417C10.9543 5.53277 10.5816 5.4961 10.1931 5.4961C8.72258 5.4961 7.47579 6.00778 6.45281 7.03068C5.42987 8.05362 4.91831 9.30052 4.91823 10.771C4.91823 11.6341 5.1145 12.4415 5.50612 13.1928C5.79138 13.74 6.16338 14.2242 6.62248 14.6442C6.96151 14.9541 7.41884 15.0872 7.87824 15.0872H12.5079C12.9673 15.0872 13.4247 14.9541 13.7637 14.6442C14.2228 14.2242 14.5948 13.74 14.88 13.1928C15.2717 12.4415 15.4679 11.6341 15.4679 10.771C15.4693 10.6181 15.4651 10.4672 15.455 10.3192C15.4547 10.3153 15.4542 10.3113 15.4539 10.3073C16.0477 10.3447 16.6588 10.2638 17.2532 10.0458C17.2781 10.0367 17.3022 10.0251 17.3267 10.0156C17.3561 10.2626 17.3763 10.5144 17.3862 10.771C17.3862 12.0657 17.062 13.2646 16.4146 14.3675C15.8705 15.2946 15.1658 16.0639 14.2997 16.6748C13.9745 16.9041 13.5791 17.0055 13.1812 17.0055H7.20497C6.80704 17.0055 6.41163 16.9041 6.08646 16.6748C5.22039 16.0639 4.51572 15.2946 3.97154 14.3675C3.32418 13.2646 3 12.0657 3 10.771C3.00008 8.7732 3.69929 7.07508 5.09762 5.67658C6.49628 4.27792 8.195 3.57787 10.1931 3.57787Z" fill="black" fill-opacity="0.2"/>
<path d="M10.1931 3.57787C10.7713 3.57787 11.3239 3.63906 11.8519 3.75619C11.5413 4.32133 11.3541 4.95206 11.3116 5.60417C10.9543 5.53277 10.5816 5.4961 10.1931 5.4961C8.72258 5.4961 7.47579 6.00778 6.45281 7.03068C5.42987 8.05362 4.91831 9.30052 4.91823 10.771C4.91823 11.6341 5.1145 12.4415 5.50612 13.1928C5.79138 13.74 6.16338 14.2242 6.62248 14.6442C6.96151 14.9541 7.41884 15.0872 7.87824 15.0872H12.5079C12.9673 15.0872 13.4247 14.9541 13.7637 14.6442C14.2228 14.2242 14.5948 13.74 14.88 13.1928C15.2717 12.4415 15.4679 11.6341 15.4679 10.771C15.4693 10.6181 15.4651 10.4672 15.455 10.3192C15.4547 10.3153 15.4542 10.3113 15.4539 10.3073C16.0477 10.3447 16.6588 10.2638 17.2532 10.0458C17.2781 10.0367 17.3022 10.0251 17.3267 10.0156C17.3561 10.2626 17.3763 10.5144 17.3862 10.771C17.3862 12.0657 17.062 13.2646 16.4146 14.3675C15.8705 15.2946 15.1658 16.0639 14.2997 16.6748C13.9745 16.9041 13.5791 17.0055 13.1812 17.0055H7.20497C6.80704 17.0055 6.41163 16.9041 6.08646 16.6748C5.22039 16.0639 4.51572 15.2946 3.97154 14.3675C3.32418 13.2646 3 12.0657 3 10.771C3.00008 8.7732 3.69929 7.07508 5.09762 5.67658C6.49628 4.27792 8.195 3.57787 10.1931 3.57787Z" fill="black" fill-opacity="0.2"/>
<path d="M10.1931 3.57787C10.7713 3.57787 11.3239 3.63906 11.8519 3.75619C11.5413 4.32133 11.3541 4.95206 11.3116 5.60417C10.9543 5.53277 10.5816 5.4961 10.1931 5.4961C8.72258 5.4961 7.47579 6.00778 6.45281 7.03068C5.42987 8.05362 4.91831 9.30052 4.91823 10.771C4.91823 11.6341 5.1145 12.4415 5.50612 13.1928C5.79138 13.74 6.16338 14.2242 6.62248 14.6442C6.96151 14.9541 7.41884 15.0872 7.87824 15.0872H12.5079C12.9673 15.0872 13.4247 14.9541 13.7637 14.6442C14.2228 14.2242 14.5948 13.74 14.88 13.1928C15.2717 12.4415 15.4679 11.6341 15.4679 10.771C15.4693 10.6181 15.4651 10.4672 15.455 10.3192C15.4547 10.3153 15.4542 10.3113 15.4539 10.3073C16.0477 10.3447 16.6588 10.2638 17.2532 10.0458C17.2781 10.0367 17.3022 10.0251 17.3267 10.0156C17.3561 10.2626 17.3763 10.5144 17.3862 10.771C17.3862 12.0657 17.062 13.2646 16.4146 14.3675C15.8705 15.2946 15.1658 16.0639 14.2997 16.6748C13.9745 16.9041 13.5791 17.0055 13.1812 17.0055H7.20497C6.80704 17.0055 6.41163 16.9041 6.08646 16.6748C5.22039 16.0639 4.51572 15.2946 3.97154 14.3675C3.32418 13.2646 3 12.0657 3 10.771C3.00008 8.7732 3.69929 7.07508 5.09762 5.67658C6.49628 4.27792 8.195 3.57787 10.1931 3.57787Z" fill="black" fill-opacity="0.2"/>
<path d="M10.1931 3.57787C10.7713 3.57787 11.3239 3.63906 11.8519 3.75619C11.5413 4.32133 11.3541 4.95206 11.3116 5.60417C10.9543 5.53277 10.5816 5.4961 10.1931 5.4961C8.72258 5.4961 7.47579 6.00778 6.45281 7.03068C5.42987 8.05362 4.91831 9.30052 4.91823 10.771C4.91823 11.6341 5.1145 12.4415 5.50612 13.1928C5.79138 13.74 6.16338 14.2242 6.62248 14.6442C6.96151 14.9541 7.41884 15.0872 7.87824 15.0872H12.5079C12.9673 15.0872 13.4247 14.9541 13.7637 14.6442C14.2228 14.2242 14.5948 13.74 14.88 13.1928C15.2717 12.4415 15.4679 11.6341 15.4679 10.771C15.4693 10.6181 15.4651 10.4672 15.455 10.3192C15.4547 10.3153 15.4542 10.3113 15.4539 10.3073C16.0477 10.3447 16.6588 10.2638 17.2532 10.0458C17.2781 10.0367 17.3022 10.0251 17.3267 10.0156C17.3561 10.2626 17.3763 10.5144 17.3862 10.771C17.3862 12.0657 17.062 13.2646 16.4146 14.3675C15.8705 15.2946 15.1658 16.0639 14.2997 16.6748C13.9745 16.9041 13.5791 17.0055 13.1812 17.0055H7.20497C6.80704 17.0055 6.41163 16.9041 6.08646 16.6748C5.22039 16.0639 4.51572 15.2946 3.97154 14.3675C3.32418 13.2646 3 12.0657 3 10.771C3.00008 8.7732 3.69929 7.07508 5.09762 5.67658C6.49628 4.27792 8.195 3.57787 10.1931 3.57787Z" fill="black" fill-opacity="0.2"/>
<path d="M18.1751 4.21116C18.2162 4.21604 18.2562 4.22761 18.2929 4.24682L18.3361 4.27384C18.3904 4.31381 18.4314 4.36962 18.4539 4.43378L18.803 5.42478C18.8802 5.64435 19.0077 5.84466 19.1747 6.00943C19.3209 6.15359 19.4949 6.26791 19.6859 6.34553L19.768 6.37687L20.7741 6.72053C20.8236 6.73731 20.8682 6.76575 20.9049 6.80266L20.9395 6.84264C20.9723 6.88803 20.9929 6.94082 21 6.9961V7.08148C20.9928 7.13672 20.9723 7.18959 20.9395 7.23493C20.8985 7.29155 20.8408 7.33348 20.7752 7.35597L19.768 7.70071C19.5446 7.77733 19.3416 7.90259 19.1747 8.06707C19.0077 8.23184 18.8802 8.43213 18.803 8.65172L18.455 9.64272C18.4317 9.70932 18.3868 9.76673 18.3296 9.80698C18.2835 9.83934 18.2304 9.85876 18.1751 9.86534H18.0962C18.0404 9.85884 17.9859 9.83965 17.9395 9.80698C17.8825 9.76673 17.8395 9.70921 17.8163 9.64272L17.4661 8.65172L17.4359 8.57067C17.3576 8.38315 17.2415 8.21123 17.0955 8.06707C16.9286 7.90252 16.7255 7.77739 16.5022 7.70071L15.496 7.35705C15.43 7.33464 15.3719 7.29182 15.3307 7.23493C15.2978 7.18947 15.2784 7.13581 15.2713 7.0804V6.9961C15.2761 6.95805 15.2863 6.92102 15.3037 6.88695L15.3307 6.84264L15.3653 6.80266C15.4019 6.76581 15.4467 6.73733 15.496 6.72053L16.5022 6.37687C16.7257 6.30015 16.9285 6.17415 17.0955 6.00943C17.2624 5.84466 17.3889 5.6443 17.4661 5.42478L17.8163 4.43378C17.8342 4.38265 17.8639 4.33633 17.9027 4.29978L17.946 4.26627L17.9924 4.23926C18.0252 4.2241 18.0604 4.2153 18.0962 4.21116H18.1751Z" fill="#1D1A24"/>
<path d="M18.1751 4.21116C18.2162 4.21604 18.2562 4.22761 18.2929 4.24682L18.3361 4.27384C18.3904 4.31381 18.4314 4.36962 18.4539 4.43378L18.803 5.42478C18.8802 5.64435 19.0077 5.84466 19.1747 6.00943C19.3209 6.15359 19.4949 6.26791 19.6859 6.34553L19.768 6.37687L20.7741 6.72053C20.8236 6.73731 20.8682 6.76575 20.9049 6.80266L20.9395 6.84264C20.9723 6.88803 20.9929 6.94082 21 6.9961V7.08148C20.9928 7.13672 20.9723 7.18959 20.9395 7.23493C20.8985 7.29155 20.8408 7.33348 20.7752 7.35597L19.768 7.70071C19.5446 7.77733 19.3416 7.90259 19.1747 8.06707C19.0077 8.23184 18.8802 8.43213 18.803 8.65172L18.455 9.64272C18.4317 9.70932 18.3868 9.76673 18.3296 9.80698C18.2835 9.83934 18.2304 9.85876 18.1751 9.86534H18.0962C18.0404 9.85884 17.9859 9.83965 17.9395 9.80698C17.8825 9.76673 17.8395 9.70921 17.8163 9.64272L17.4661 8.65172L17.4359 8.57067C17.3576 8.38315 17.2415 8.21123 17.0955 8.06707C16.9286 7.90252 16.7255 7.77739 16.5022 7.70071L15.496 7.35705C15.43 7.33464 15.3719 7.29182 15.3307 7.23493C15.2978 7.18947 15.2784 7.13581 15.2713 7.0804V6.9961C15.2761 6.95805 15.2863 6.92102 15.3037 6.88695L15.3307 6.84264L15.3653 6.80266C15.4019 6.76581 15.4467 6.73733 15.496 6.72053L16.5022 6.37687C16.7257 6.30015 16.9285 6.17415 17.0955 6.00943C17.2624 5.84466 17.3889 5.6443 17.4661 5.42478L17.8163 4.43378C17.8342 4.38265 17.8639 4.33633 17.9027 4.29978L17.946 4.26627L17.9924 4.23926C18.0252 4.2241 18.0604 4.2153 18.0962 4.21116H18.1751Z" fill="black" fill-opacity="0.2"/>
<path d="M18.1751 4.21116C18.2162 4.21604 18.2562 4.22761 18.2929 4.24682L18.3361 4.27384C18.3904 4.31381 18.4314 4.36962 18.4539 4.43378L18.803 5.42478C18.8802 5.64435 19.0077 5.84466 19.1747 6.00943C19.3209 6.15359 19.4949 6.26791 19.6859 6.34553L19.768 6.37687L20.7741 6.72053C20.8236 6.73731 20.8682 6.76575 20.9049 6.80266L20.9395 6.84264C20.9723 6.88803 20.9929 6.94082 21 6.9961V7.08148C20.9928 7.13672 20.9723 7.18959 20.9395 7.23493C20.8985 7.29155 20.8408 7.33348 20.7752 7.35597L19.768 7.70071C19.5446 7.77733 19.3416 7.90259 19.1747 8.06707C19.0077 8.23184 18.8802 8.43213 18.803 8.65172L18.455 9.64272C18.4317 9.70932 18.3868 9.76673 18.3296 9.80698C18.2835 9.83934 18.2304 9.85876 18.1751 9.86534H18.0962C18.0404 9.85884 17.9859 9.83965 17.9395 9.80698C17.8825 9.76673 17.8395 9.70921 17.8163 9.64272L17.4661 8.65172L17.4359 8.57067C17.3576 8.38315 17.2415 8.21123 17.0955 8.06707C16.9286 7.90252 16.7255 7.77739 16.5022 7.70071L15.496 7.35705C15.43 7.33464 15.3719 7.29182 15.3307 7.23493C15.2978 7.18947 15.2784 7.13581 15.2713 7.0804V6.9961C15.2761 6.95805 15.2863 6.92102 15.3037 6.88695L15.3307 6.84264L15.3653 6.80266C15.4019 6.76581 15.4467 6.73733 15.496 6.72053L16.5022 6.37687C16.7257 6.30015 16.9285 6.17415 17.0955 6.00943C17.2624 5.84466 17.3889 5.6443 17.4661 5.42478L17.8163 4.43378C17.8342 4.38265 17.8639 4.33633 17.9027 4.29978L17.946 4.26627L17.9924 4.23926C18.0252 4.2241 18.0604 4.2153 18.0962 4.21116H18.1751Z" fill="black" fill-opacity="0.2"/>
<path d="M18.1751 4.21116C18.2162 4.21604 18.2562 4.22761 18.2929 4.24682L18.3361 4.27384C18.3904 4.31381 18.4314 4.36962 18.4539 4.43378L18.803 5.42478C18.8802 5.64435 19.0077 5.84466 19.1747 6.00943C19.3209 6.15359 19.4949 6.26791 19.6859 6.34553L19.768 6.37687L20.7741 6.72053C20.8236 6.73731 20.8682 6.76575 20.9049 6.80266L20.9395 6.84264C20.9723 6.88803 20.9929 6.94082 21 6.9961V7.08148C20.9928 7.13672 20.9723 7.18959 20.9395 7.23493C20.8985 7.29155 20.8408 7.33348 20.7752 7.35597L19.768 7.70071C19.5446 7.77733 19.3416 7.90259 19.1747 8.06707C19.0077 8.23184 18.8802 8.43213 18.803 8.65172L18.455 9.64272C18.4317 9.70932 18.3868 9.76673 18.3296 9.80698C18.2835 9.83934 18.2304 9.85876 18.1751 9.86534H18.0962C18.0404 9.85884 17.9859 9.83965 17.9395 9.80698C17.8825 9.76673 17.8395 9.70921 17.8163 9.64272L17.4661 8.65172L17.4359 8.57067C17.3576 8.38315 17.2415 8.21123 17.0955 8.06707C16.9286 7.90252 16.7255 7.77739 16.5022 7.70071L15.496 7.35705C15.43 7.33464 15.3719 7.29182 15.3307 7.23493C15.2978 7.18947 15.2784 7.13581 15.2713 7.0804V6.9961C15.2761 6.95805 15.2863 6.92102 15.3037 6.88695L15.3307 6.84264L15.3653 6.80266C15.4019 6.76581 15.4467 6.73733 15.496 6.72053L16.5022 6.37687C16.7257 6.30015 16.9285 6.17415 17.0955 6.00943C17.2624 5.84466 17.3889 5.6443 17.4661 5.42478L17.8163 4.43378C17.8342 4.38265 17.8639 4.33633 17.9027 4.29978L17.946 4.26627L17.9924 4.23926C18.0252 4.2241 18.0604 4.2153 18.0962 4.21116H18.1751Z" fill="black" fill-opacity="0.2"/>
<path d="M18.1751 4.21116C18.2162 4.21604 18.2562 4.22761 18.2929 4.24682L18.3361 4.27384C18.3904 4.31381 18.4314 4.36962 18.4539 4.43378L18.803 5.42478C18.8802 5.64435 19.0077 5.84466 19.1747 6.00943C19.3209 6.15359 19.4949 6.26791 19.6859 6.34553L19.768 6.37687L20.7741 6.72053C20.8236 6.73731 20.8682 6.76575 20.9049 6.80266L20.9395 6.84264C20.9723 6.88803 20.9929 6.94082 21 6.9961V7.08148C20.9928 7.13672 20.9723 7.18959 20.9395 7.23493C20.8985 7.29155 20.8408 7.33348 20.7752 7.35597L19.768 7.70071C19.5446 7.77733 19.3416 7.90259 19.1747 8.06707C19.0077 8.23184 18.8802 8.43213 18.803 8.65172L18.455 9.64272C18.4317 9.70932 18.3868 9.76673 18.3296 9.80698C18.2835 9.83934 18.2304 9.85876 18.1751 9.86534H18.0962C18.0404 9.85884 17.9859 9.83965 17.9395 9.80698C17.8825 9.76673 17.8395 9.70921 17.8163 9.64272L17.4661 8.65172L17.4359 8.57067C17.3576 8.38315 17.2415 8.21123 17.0955 8.06707C16.9286 7.90252 16.7255 7.77739 16.5022 7.70071L15.496 7.35705C15.43 7.33464 15.3719 7.29182 15.3307 7.23493C15.2978 7.18947 15.2784 7.13581 15.2713 7.0804V6.9961C15.2761 6.95805 15.2863 6.92102 15.3037 6.88695L15.3307 6.84264L15.3653 6.80266C15.4019 6.76581 15.4467 6.73733 15.496 6.72053L16.5022 6.37687C16.7257 6.30015 16.9285 6.17415 17.0955 6.00943C17.2624 5.84466 17.3889 5.6443 17.4661 5.42478L17.8163 4.43378C17.8342 4.38265 17.8639 4.33633 17.9027 4.29978L17.946 4.26627L17.9924 4.23926C18.0252 4.2241 18.0604 4.2153 18.0962 4.21116H18.1751Z" fill="black" fill-opacity="0.2"/>
<path d="M18.1751 4.21116C18.2162 4.21604 18.2562 4.22761 18.2929 4.24682L18.3361 4.27384C18.3904 4.31381 18.4314 4.36962 18.4539 4.43378L18.803 5.42478C18.8802 5.64435 19.0077 5.84466 19.1747 6.00943C19.3209 6.15359 19.4949 6.26791 19.6859 6.34553L19.768 6.37687L20.7741 6.72053C20.8236 6.73731 20.8682 6.76575 20.9049 6.80266L20.9395 6.84264C20.9723 6.88803 20.9929 6.94082 21 6.9961V7.08148C20.9928 7.13672 20.9723 7.18959 20.9395 7.23493C20.8985 7.29155 20.8408 7.33348 20.7752 7.35597L19.768 7.70071C19.5446 7.77733 19.3416 7.90259 19.1747 8.06707C19.0077 8.23184 18.8802 8.43213 18.803 8.65172L18.455 9.64272C18.4317 9.70932 18.3868 9.76673 18.3296 9.80698C18.2835 9.83934 18.2304 9.85876 18.1751 9.86534H18.0962C18.0404 9.85884 17.9859 9.83965 17.9395 9.80698C17.8825 9.76673 17.8395 9.70921 17.8163 9.64272L17.4661 8.65172L17.4359 8.57067C17.3576 8.38315 17.2415 8.21123 17.0955 8.06707C16.9286 7.90252 16.7255 7.77739 16.5022 7.70071L15.496 7.35705C15.43 7.33464 15.3719 7.29182 15.3307 7.23493C15.2978 7.18947 15.2784 7.13581 15.2713 7.0804V6.9961C15.2761 6.95805 15.2863 6.92102 15.3037 6.88695L15.3307 6.84264L15.3653 6.80266C15.4019 6.76581 15.4467 6.73733 15.496 6.72053L16.5022 6.37687C16.7257 6.30015 16.9285 6.17415 17.0955 6.00943C17.2624 5.84466 17.3889 5.6443 17.4661 5.42478L17.8163 4.43378C17.8342 4.38265 17.8639 4.33633 17.9027 4.29978L17.946 4.26627L17.9924 4.23926C18.0252 4.2241 18.0604 4.2153 18.0962 4.21116H18.1751Z" fill="black" fill-opacity="0.2"/>
<path fill-rule="evenodd" clip-rule="evenodd" d="M14.5515 1.23926C14.5933 1.24333 14.6343 1.2545 14.6715 1.27384L14.7125 1.29978C14.7655 1.33835 14.8061 1.3921 14.8282 1.45432L15.08 2.16973C15.1314 2.31554 15.2164 2.44814 15.3274 2.5577C15.4386 2.66729 15.574 2.75086 15.723 2.80194L16.447 3.0505C16.4947 3.06699 16.5393 3.09468 16.5746 3.13047L16.607 3.16937C16.6393 3.21456 16.6581 3.2678 16.6643 3.32283V3.392C16.6583 3.4478 16.6398 3.50189 16.607 3.54762C16.5675 3.60254 16.5115 3.64339 16.4481 3.66541L15.723 3.91397C15.574 3.96502 15.4387 4.04863 15.3274 4.15821C15.2162 4.26787 15.1314 4.40129 15.08 4.54725L14.8282 5.26159C14.8053 5.32567 14.7635 5.38182 14.7082 5.42045C14.6617 5.45292 14.6074 5.47122 14.5515 5.47665H14.4878C14.432 5.47115 14.3774 5.45288 14.3311 5.42045C14.2758 5.3818 14.2339 5.32565 14.2111 5.26159L13.9593 4.54725C13.9078 4.40127 13.8231 4.26785 13.7118 4.15821C13.6006 4.04874 13.4652 3.96496 13.3163 3.91397L12.5911 3.66541C12.5278 3.64344 12.4718 3.60249 12.4323 3.54762C12.3994 3.50186 12.3799 3.44784 12.3739 3.392V3.32283C12.3782 3.2846 12.3881 3.24682 12.4053 3.2126L12.4323 3.16937L12.4647 3.13047C12.5 3.09469 12.5435 3.06699 12.5911 3.0505L13.3163 2.80194C13.4653 2.75091 13.6006 2.66725 13.7118 2.5577C13.823 2.44815 13.9078 2.31558 13.9593 2.16973L14.2111 1.45432C14.2286 1.40509 14.2579 1.36094 14.2954 1.32571L14.3365 1.29329L14.3808 1.26736C14.4144 1.25171 14.4509 1.2429 14.4878 1.23926H14.5515ZM13.5756 3.80482L13.513 3.7724C13.5037 3.76803 13.4942 3.76356 13.4849 3.75943C13.5157 3.77309 13.5461 3.78881 13.5756 3.80482Z" fill="#1D1A24"/>
<path fill-rule="evenodd" clip-rule="evenodd" d="M14.5515 1.23926C14.5933 1.24333 14.6343 1.2545 14.6715 1.27384L14.7125 1.29978C14.7655 1.33835 14.8061 1.3921 14.8282 1.45432L15.08 2.16973C15.1314 2.31554 15.2164 2.44814 15.3274 2.5577C15.4386 2.66729 15.574 2.75086 15.723 2.80194L16.447 3.0505C16.4947 3.06699 16.5393 3.09468 16.5746 3.13047L16.607 3.16937C16.6393 3.21456 16.6581 3.2678 16.6643 3.32283V3.392C16.6583 3.4478 16.6398 3.50189 16.607 3.54762C16.5675 3.60254 16.5115 3.64339 16.4481 3.66541L15.723 3.91397C15.574 3.96502 15.4387 4.04863 15.3274 4.15821C15.2162 4.26787 15.1314 4.40129 15.08 4.54725L14.8282 5.26159C14.8053 5.32567 14.7635 5.38182 14.7082 5.42045C14.6617 5.45292 14.6074 5.47122 14.5515 5.47665H14.4878C14.432 5.47115 14.3774 5.45288 14.3311 5.42045C14.2758 5.3818 14.2339 5.32565 14.2111 5.26159L13.9593 4.54725C13.9078 4.40127 13.8231 4.26785 13.7118 4.15821C13.6006 4.04874 13.4652 3.96496 13.3163 3.91397L12.5911 3.66541C12.5278 3.64344 12.4718 3.60249 12.4323 3.54762C12.3994 3.50186 12.3799 3.44784 12.3739 3.392V3.32283C12.3782 3.2846 12.3881 3.24682 12.4053 3.2126L12.4323 3.16937L12.4647 3.13047C12.5 3.09469 12.5435 3.06699 12.5911 3.0505L13.3163 2.80194C13.4653 2.75091 13.6006 2.66725 13.7118 2.5577C13.823 2.44815 13.9078 2.31558 13.9593 2.16973L14.2111 1.45432C14.2286 1.40509 14.2579 1.36094 14.2954 1.32571L14.3365 1.29329L14.3808 1.26736C14.4144 1.25171 14.4509 1.2429 14.4878 1.23926H14.5515ZM13.5756 3.80482L13.513 3.7724C13.5037 3.76803 13.4942 3.76356 13.4849 3.75943C13.5157 3.77309 13.5461 3.78881 13.5756 3.80482Z" fill="black" fill-opacity="0.2"/>
<path fill-rule="evenodd" clip-rule="evenodd" d="M14.5515 1.23926C14.5933 1.24333 14.6343 1.2545 14.6715 1.27384L14.7125 1.29978C14.7655 1.33835 14.8061 1.3921 14.8282 1.45432L15.08 2.16973C15.1314 2.31554 15.2164 2.44814 15.3274 2.5577C15.4386 2.66729 15.574 2.75086 15.723 2.80194L16.447 3.0505C16.4947 3.06699 16.5393 3.09468 16.5746 3.13047L16.607 3.16937C16.6393 3.21456 16.6581 3.2678 16.6643 3.32283V3.392C16.6583 3.4478 16.6398 3.50189 16.607 3.54762C16.5675 3.60254 16.5115 3.64339 16.4481 3.66541L15.723 3.91397C15.574 3.96502 15.4387 4.04863 15.3274 4.15821C15.2162 4.26787 15.1314 4.40129 15.08 4.54725L14.8282 5.26159C14.8053 5.32567 14.7635 5.38182 14.7082 5.42045C14.6617 5.45292 14.6074 5.47122 14.5515 5.47665H14.4878C14.432 5.47115 14.3774 5.45288 14.3311 5.42045C14.2758 5.3818 14.2339 5.32565 14.2111 5.26159L13.9593 4.54725C13.9078 4.40127 13.8231 4.26785 13.7118 4.15821C13.6006 4.04874 13.4652 3.96496 13.3163 3.91397L12.5911 3.66541C12.5278 3.64344 12.4718 3.60249 12.4323 3.54762C12.3994 3.50186 12.3799 3.44784 12.3739 3.392V3.32283C12.3782 3.2846 12.3881 3.24682 12.4053 3.2126L12.4323 3.16937L12.4647 3.13047C12.5 3.09469 12.5435 3.06699 12.5911 3.0505L13.3163 2.80194C13.4653 2.75091 13.6006 2.66725 13.7118 2.5577C13.823 2.44815 13.9078 2.31558 13.9593 2.16973L14.2111 1.45432C14.2286 1.40509 14.2579 1.36094 14.2954 1.32571L14.3365 1.29329L14.3808 1.26736C14.4144 1.25171 14.4509 1.2429 14.4878 1.23926H14.5515ZM13.5756 3.80482L13.513 3.7724C13.5037 3.76803 13.4942 3.76356 13.4849 3.75943C13.5157 3.77309 13.5461 3.78881 13.5756 3.80482Z" fill="black" fill-opacity="0.2"/>
<path fill-rule="evenodd" clip-rule="evenodd" d="M14.5515 1.23926C14.5933 1.24333 14.6343 1.2545 14.6715 1.27384L14.7125 1.29978C14.7655 1.33835 14.8061 1.3921 14.8282 1.45432L15.08 2.16973C15.1314 2.31554 15.2164 2.44814 15.3274 2.5577C15.4386 2.66729 15.574 2.75086 15.723 2.80194L16.447 3.0505C16.4947 3.06699 16.5393 3.09468 16.5746 3.13047L16.607 3.16937C16.6393 3.21456 16.6581 3.2678 16.6643 3.32283V3.392C16.6583 3.4478 16.6398 3.50189 16.607 3.54762C16.5675 3.60254 16.5115 3.64339 16.4481 3.66541L15.723 3.91397C15.574 3.96502 15.4387 4.04863 15.3274 4.15821C15.2162 4.26787 15.1314 4.40129 15.08 4.54725L14.8282 5.26159C14.8053 5.32567 14.7635 5.38182 14.7082 5.42045C14.6617 5.45292 14.6074 5.47122 14.5515 5.47665H14.4878C14.432 5.47115 14.3774 5.45288 14.3311 5.42045C14.2758 5.3818 14.2339 5.32565 14.2111 5.26159L13.9593 4.54725C13.9078 4.40127 13.8231 4.26785 13.7118 4.15821C13.6006 4.04874 13.4652 3.96496 13.3163 3.91397L12.5911 3.66541C12.5278 3.64344 12.4718 3.60249 12.4323 3.54762C12.3994 3.50186 12.3799 3.44784 12.3739 3.392V3.32283C12.3782 3.2846 12.3881 3.24682 12.4053 3.2126L12.4323 3.16937L12.4647 3.13047C12.5 3.09469 12.5435 3.06699 12.5911 3.0505L13.3163 2.80194C13.4653 2.75091 13.6006 2.66725 13.7118 2.5577C13.823 2.44815 13.9078 2.31558 13.9593 2.16973L14.2111 1.45432C14.2286 1.40509 14.2579 1.36094 14.2954 1.32571L14.3365 1.29329L14.3808 1.26736C14.4144 1.25171 14.4509 1.2429 14.4878 1.23926H14.5515ZM13.5756 3.80482L13.513 3.7724C13.5037 3.76803 13.4942 3.76356 13.4849 3.75943C13.5157 3.77309 13.5461 3.78881 13.5756 3.80482Z" fill="black" fill-opacity="0.2"/>
<path fill-rule="evenodd" clip-rule="evenodd" d="M14.5515 1.23926C14.5933 1.24333 14.6343 1.2545 14.6715 1.27384L14.7125 1.29978C14.7655 1.33835 14.8061 1.3921 14.8282 1.45432L15.08 2.16973C15.1314 2.31554 15.2164 2.44814 15.3274 2.5577C15.4386 2.66729 15.574 2.75086 15.723 2.80194L16.447 3.0505C16.4947 3.06699 16.5393 3.09468 16.5746 3.13047L16.607 3.16937C16.6393 3.21456 16.6581 3.2678 16.6643 3.32283V3.392C16.6583 3.4478 16.6398 3.50189 16.607 3.54762C16.5675 3.60254 16.5115 3.64339 16.4481 3.66541L15.723 3.91397C15.574 3.96502 15.4387 4.04863 15.3274 4.15821C15.2162 4.26787 15.1314 4.40129 15.08 4.54725L14.8282 5.26159C14.8053 5.32567 14.7635 5.38182 14.7082 5.42045C14.6617 5.45292 14.6074 5.47122 14.5515 5.47665H14.4878C14.432 5.47115 14.3774 5.45288 14.3311 5.42045C14.2758 5.3818 14.2339 5.32565 14.2111 5.26159L13.9593 4.54725C13.9078 4.40127 13.8231 4.26785 13.7118 4.15821C13.6006 4.04874 13.4652 3.96496 13.3163 3.91397L12.5911 3.66541C12.5278 3.64344 12.4718 3.60249 12.4323 3.54762C12.3994 3.50186 12.3799 3.44784 12.3739 3.392V3.32283C12.3782 3.2846 12.3881 3.24682 12.4053 3.2126L12.4323 3.16937L12.4647 3.13047C12.5 3.09469 12.5435 3.06699 12.5911 3.0505L13.3163 2.80194C13.4653 2.75091 13.6006 2.66725 13.7118 2.5577C13.823 2.44815 13.9078 2.31558 13.9593 2.16973L14.2111 1.45432C14.2286 1.40509 14.2579 1.36094 14.2954 1.32571L14.3365 1.29329L14.3808 1.26736C14.4144 1.25171 14.4509 1.2429 14.4878 1.23926H14.5515ZM13.5756 3.80482L13.513 3.7724C13.5037 3.76803 13.4942 3.76356 13.4849 3.75943C13.5157 3.77309 13.5461 3.78881 13.5756 3.80482Z" fill="black" fill-opacity="0.2"/>
<path fill-rule="evenodd" clip-rule="evenodd" d="M14.5515 1.23926C14.5933 1.24333 14.6343 1.2545 14.6715 1.27384L14.7125 1.29978C14.7655 1.33835 14.8061 1.3921 14.8282 1.45432L15.08 2.16973C15.1314 2.31554 15.2164 2.44814 15.3274 2.5577C15.4386 2.66729 15.574 2.75086 15.723 2.80194L16.447 3.0505C16.4947 3.06699 16.5393 3.09468 16.5746 3.13047L16.607 3.16937C16.6393 3.21456 16.6581 3.2678 16.6643 3.32283V3.392C16.6583 3.4478 16.6398 3.50189 16.607 3.54762C16.5675 3.60254 16.5115 3.64339 16.4481 3.66541L15.723 3.91397C15.574 3.96502 15.4387 4.04863 15.3274 4.15821C15.2162 4.26787 15.1314 4.40129 15.08 4.54725L14.8282 5.26159C14.8053 5.32567 14.7635 5.38182 14.7082 5.42045C14.6617 5.45292 14.6074 5.47122 14.5515 5.47665H14.4878C14.432 5.47115 14.3774 5.45288 14.3311 5.42045C14.2758 5.3818 14.2339 5.32565 14.2111 5.26159L13.9593 4.54725C13.9078 4.40127 13.8231 4.26785 13.7118 4.15821C13.6006 4.04874 13.4652 3.96496 13.3163 3.91397L12.5911 3.66541C12.5278 3.64344 12.4718 3.60249 12.4323 3.54762C12.3994 3.50186 12.3799 3.44784 12.3739 3.392V3.32283C12.3782 3.2846 12.3881 3.24682 12.4053 3.2126L12.4323 3.16937L12.4647 3.13047C12.5 3.09469 12.5435 3.06699 12.5911 3.0505L13.3163 2.80194C13.4653 2.75091 13.6006 2.66725 13.7118 2.5577C13.823 2.44815 13.9078 2.31558 13.9593 2.16973L14.2111 1.45432C14.2286 1.40509 14.2579 1.36094 14.2954 1.32571L14.3365 1.29329L14.3808 1.26736C14.4144 1.25171 14.4509 1.2429 14.4878 1.23926H14.5515ZM13.5756 3.80482L13.513 3.7724C13.5037 3.76803 13.4942 3.76356 13.4849 3.75943C13.5157 3.77309 13.5461 3.78881 13.5756 3.80482Z" fill="black" fill-opacity="0.2"/>
</svg>
