<svg width="24" height="24" viewBox="0 0 24 24" fill="none" xmlns="http://www.w3.org/2000/svg">
<path d="M9.50586 7.00977C9.96147 7.00977 10.331 7.37936 10.3311 7.83496C10.3311 8.2906 9.9615 8.66016 9.50586 8.66016H7.00391C6.11715 8.66028 5.26596 9.01272 4.63867 9.64062C4.01152 10.2685 3.6593 11.1206 3.65918 12.0088C3.65918 12.8972 4.01139 13.7499 4.63867 14.3779C4.94927 14.6888 5.31891 14.9353 5.72461 15.1035C6.13018 15.2716 6.56499 15.3583 7.00391 15.3584H9.50586C9.96147 15.3584 10.331 15.728 10.3311 16.1836C10.3309 16.6391 9.96142 17.0088 9.50586 17.0088H7.00391C6.34815 17.0087 5.69859 16.879 5.09277 16.6279C4.48678 16.3766 3.93542 16.0081 3.47168 15.5439C2.5351 14.6064 2.00879 13.3343 2.00879 12.0088C2.00891 10.6834 2.53522 9.41208 3.47168 8.47461C4.40828 7.53709 5.67902 7.00988 7.00391 7.00977H9.50586Z" fill="#1D1A24"/>
<path d="M17.0127 7.00977C17.6685 7.0098 18.318 7.13952 18.9238 7.39062C19.5299 7.64189 20.0812 8.01043 20.5449 8.47461C21.0086 8.9388 21.376 9.49032 21.627 10.0967C21.8778 10.703 22.0078 11.3526 22.0078 12.0088C22.0078 12.6652 21.8779 13.3154 21.627 13.9219C21.376 14.5283 21.0087 15.0797 20.5449 15.5439C20.0811 16.0082 19.5299 16.3766 18.9238 16.6279C18.318 16.879 17.6685 17.0088 17.0127 17.0088H14.5107C14.0553 17.0087 13.6857 16.639 13.6855 16.1836C13.6856 15.7281 14.0552 15.3585 14.5107 15.3584H17.0127C17.4516 15.3584 17.8864 15.2716 18.292 15.1035C18.6977 14.9353 19.0673 14.6889 19.3779 14.3779C19.6885 14.067 19.9344 13.6974 20.1025 13.291C20.2707 12.8846 20.3574 12.4487 20.3574 12.0088C20.3574 11.5691 20.2706 11.1338 20.1025 10.7275C19.9344 10.3213 19.6885 9.95151 19.3779 9.64062C19.0673 9.32974 18.6977 9.08326 18.292 8.91504C17.8864 8.74693 17.4516 8.66019 17.0127 8.66016H14.5107C14.0552 8.66002 13.6855 8.29052 13.6855 7.83496C13.6856 7.37944 14.0552 7.0099 14.5107 7.00977H17.0127Z" fill="#1D1A24"/>
<path d="M15.3438 11.1846C15.7992 11.1846 16.1687 11.5534 16.1689 12.0088C16.1689 12.4644 15.7994 12.834 15.3438 12.834H8.67188C8.2164 12.8338 7.84668 12.4643 7.84668 12.0088C7.84692 11.5535 8.21655 11.1848 8.67188 11.1846H15.3438Z" fill="#1D1A24"/>
</svg>
