<svg width="24" height="24" viewBox="0 0 24 24" fill="none" xmlns="http://www.w3.org/2000/svg">
<path d="M16.9497 1.90039C17.9291 1.9005 18.6834 2.14994 19.1919 2.66406C19.7002 3.17804 19.9468 3.9399 19.9468 4.92773V19.0723C19.9468 20.0649 19.7003 20.827 19.1919 21.3398C18.6833 21.8528 17.9288 22.0995 16.9497 22.0996H7.0415C6.06309 22.0996 5.31079 21.853 4.8042 21.3398C4.29789 20.827 4.0542 20.0648 4.0542 19.0723V4.92773C4.0542 3.94001 4.29805 3.1781 4.8042 2.66406C5.31069 2.14975 6.06284 1.90039 7.0415 1.90039H16.9497ZM7.12451 3.60059C6.65603 3.60062 6.31781 3.72574 6.09619 3.94727C5.87465 4.16875 5.75449 4.50175 5.75439 4.9502V19.0488C5.75444 19.4974 5.87456 19.831 6.09619 20.0527C6.31782 20.2744 6.65613 20.3994 7.12451 20.3994H16.8755C17.3387 20.3994 17.6749 20.2744 17.896 20.0527C18.1171 19.8309 18.2377 19.4973 18.2378 19.0488V4.9502C18.2377 4.50181 18.117 4.16883 17.896 3.94727C17.675 3.7257 17.3388 3.60059 16.8755 3.60059H7.12451ZM9.43115 13.0254C9.64339 13.0255 9.82479 13.077 9.97217 13.1904C10.118 13.3027 10.2212 13.4681 10.2925 13.6787L11.6743 17.4766L11.7134 17.6611C11.7236 17.7182 11.7299 17.77 11.73 17.8145C11.73 17.9821 11.6813 18.1285 11.5737 18.2324C11.4665 18.3359 11.3149 18.3838 11.1372 18.3838C10.9974 18.3837 10.8703 18.3433 10.7671 18.251C10.6675 18.162 10.5991 18.033 10.5581 17.8691L10.2427 17.0225H8.63623L8.33057 17.8691C8.29008 18.036 8.22488 18.1662 8.12549 18.2549C8.02193 18.3473 7.89375 18.3838 7.75146 18.3838C7.578 18.3838 7.42688 18.336 7.31885 18.2334C7.21016 18.1302 7.15771 17.9838 7.15771 17.8145C7.15778 17.7257 7.18246 17.5981 7.21436 17.4746L7.21729 17.4658L8.59619 13.6787C8.66726 13.4688 8.76769 13.3037 8.90869 13.1914C9.05177 13.0776 9.22737 13.0254 9.43115 13.0254ZM16.0962 16.7539C16.4805 16.7539 16.7729 17.0424 16.7729 17.416C16.7729 17.7984 16.4837 18.0986 16.0962 18.0986H13.2466C12.852 18.0986 12.562 17.7993 12.562 17.416C12.562 17.0415 12.8552 16.7539 13.2466 16.7539H16.0962ZM8.91846 16.0488H9.97021L9.43896 14.415L8.91846 16.0488ZM16.0962 13.5029C16.4805 13.5029 16.7729 13.7923 16.7729 14.166C16.7728 14.5483 16.4836 14.8477 16.0962 14.8477H13.2466C12.8521 14.8477 12.5621 14.5492 12.562 14.166C12.562 13.7914 12.8552 13.5029 13.2466 13.5029H16.0962ZM15.4995 5.64355C15.9261 5.64366 16.2668 5.75409 16.5005 5.9873C16.7341 6.22051 16.8451 6.56065 16.8452 6.9873V11.4336C16.8452 11.4888 16.7999 11.5332 16.7446 11.5332H16.0894C16.0604 11.5332 16.0331 11.5208 16.0142 11.499L14.1587 9.36035C14.0025 9.19198 13.7989 9.12322 13.5854 9.12305C13.3943 9.12305 13.1985 9.19986 12.9927 9.36816L11.0835 11.0654C11.0453 11.0993 10.9875 11.0988 10.9497 11.0645L10.187 10.3652C10.0202 10.2189 9.84302 10.1593 9.68311 10.1592C9.52578 10.1593 9.36239 10.2161 9.20068 10.3652L7.98486 11.6035C7.96617 11.6225 7.94023 11.6327 7.91357 11.6328H7.25732C7.20228 11.6326 7.15777 11.5883 7.15771 11.5332V6.9873C7.15782 6.55894 7.27613 6.21886 7.51416 5.98633C7.75195 5.7541 8.09466 5.64355 8.51221 5.64355H15.4995ZM10.3247 7.37891C9.82818 7.36143 9.42241 7.78014 9.42236 8.28613C9.42236 8.77963 9.82613 9.19401 10.3276 9.19434C10.8224 9.19434 11.2368 8.77894 11.2368 8.28613C11.2368 7.78752 10.8263 7.39711 10.3247 7.37891Z" fill="#1D1A24"/>
</svg>
