<svg width="24" height="24" viewBox="0 0 24 24" fill="none" xmlns="http://www.w3.org/2000/svg">
<path d="M13.5244 17.4277C13.7766 17.4278 13.9585 17.6127 14.002 17.8428C14.07 18.1896 14.1108 18.4342 14.1602 18.625C14.2087 18.8129 14.2581 18.9149 14.3223 18.9844C14.3852 19.0525 14.4825 19.1107 14.6729 19.167C14.8654 19.2239 15.1291 19.2721 15.5078 19.3359L15.5127 19.3369C15.7425 19.3812 15.9178 19.5698 15.918 19.8145C15.918 20.0461 15.7457 20.2461 15.5127 20.291L15.5049 20.293C15.126 20.3503 14.863 20.3941 14.6709 20.4482C14.4816 20.5016 14.3853 20.5581 14.3232 20.626C14.2592 20.6961 14.21 20.8009 14.1611 20.9951C14.1117 21.1916 14.0699 21.4438 14.002 21.8008V21.8047C13.9561 22.025 13.759 22.2001 13.5244 22.2002C13.3927 22.2002 13.2791 22.1518 13.1943 22.0654C13.1147 21.9842 13.0721 21.8807 13.0488 21.7842L13.0469 21.7773C12.9765 21.4266 12.9339 21.1786 12.8838 20.9854C12.8343 20.7947 12.7849 20.692 12.7217 20.623C12.6605 20.5564 12.5665 20.5001 12.3809 20.4473C12.1922 20.3936 11.9335 20.3493 11.5605 20.292H11.5586C11.4409 20.2726 11.3309 20.2228 11.25 20.1348C11.1679 20.0453 11.1309 19.9316 11.1309 19.8145C11.1311 19.5733 11.2961 19.3812 11.54 19.3369L11.542 19.3359C11.9187 19.2721 12.1808 19.2239 12.3721 19.167C12.5609 19.1108 12.6578 19.0526 12.7207 18.9844C12.785 18.9146 12.8343 18.812 12.8838 18.624C12.9341 18.433 12.9765 18.1886 13.0469 17.8418L13.0479 17.8369C13.0721 17.7306 13.1203 17.6263 13.2051 17.5479C13.293 17.4666 13.4046 17.4277 13.5244 17.4277ZM17.2207 11.4023C17.5142 11.4023 17.7358 11.6279 17.7764 11.8994C17.9836 13.2777 18.1755 14.0367 18.6318 14.5166C19.0847 14.9927 19.8343 15.2292 21.291 15.4248C21.5671 15.4639 21.7998 15.6722 21.7998 15.9756C21.7996 16.28 21.5686 16.4882 21.292 16.5273L21.291 16.5283C19.8331 16.7241 19.1178 16.951 18.6816 17.4229C18.4634 17.6589 18.3031 17.9693 18.1641 18.4023C18.0244 18.8373 17.9104 19.3817 17.7754 20.0791V20.0811C17.7213 20.3434 17.5057 20.542 17.2207 20.542C17.0784 20.5419 16.9473 20.4967 16.8457 20.4062C16.745 20.3163 16.6867 20.1936 16.667 20.0625L16.5879 19.5664C16.4022 18.4761 16.2037 17.8418 15.8047 17.4248C15.3519 16.9517 14.6053 16.7232 13.1514 16.5273C13.0103 16.5082 12.8818 16.4487 12.7881 16.3486C12.6938 16.2478 12.6446 16.1168 12.6445 15.9756C12.6445 15.6771 12.8602 15.4643 13.1514 15.4248L13.6641 15.3496C14.7845 15.1688 15.3818 14.9445 15.7646 14.5332C15.9832 14.2984 16.1434 13.9895 16.2822 13.5576C16.4217 13.1238 16.5356 12.5801 16.6689 11.8828C16.7203 11.621 16.9257 11.4026 17.2207 11.4023ZM13.624 1.7998C14.5011 1.7998 15.1964 2.02348 15.6709 2.50293C16.145 2.9821 16.3652 3.68357 16.3652 4.56738V10.9355C16.3652 10.9872 16.3453 11.037 16.3096 11.0742C16.1361 11.2548 16.0131 11.4877 15.9609 11.7461C15.8197 12.4848 15.7165 13.026 15.5811 13.4189C15.442 13.8223 15.2589 14.0982 14.9434 14.2842C14.8816 14.3205 14.8054 14.3207 14.7432 14.2852C14.681 14.2496 14.6427 14.1839 14.6426 14.1123V4.58789C14.6425 4.21406 14.5423 3.95406 14.376 3.78711C14.2096 3.62022 13.9466 3.5166 13.5596 3.5166H5.00586C4.61431 3.51664 4.35038 3.62045 4.18359 3.78711C4.01682 3.95389 3.91708 4.21371 3.91699 4.58789V16.9551C3.91702 17.3294 4.01677 17.589 4.18359 17.7559C4.35037 17.9226 4.61418 18.0273 5.00586 18.0273H11.8447C11.9291 18.0273 12.0046 18.0798 12.0332 18.1592C12.0617 18.2384 12.0374 18.3271 11.9727 18.3809C11.8281 18.5005 11.656 18.5901 11.4922 18.668C11.3206 18.7495 11.1647 18.8156 11.0107 18.8984C10.7138 19.0583 10.4981 19.2444 10.4326 19.5811C10.4144 19.675 10.3321 19.7432 10.2363 19.7432H4.93359C4.05777 19.7432 3.36342 19.5218 2.89062 19.043C2.41853 18.5646 2.2002 17.8629 2.2002 16.9756V4.56738C2.20021 3.68418 2.41884 2.98319 2.89062 2.50391C3.36321 2.02404 4.05725 1.7998 4.93359 1.7998H13.624ZM12.3516 11.0469C12.7441 11.0469 13.0764 11.1483 13.3096 11.3809C13.5428 11.6135 13.6445 11.9452 13.6445 12.3379V14.457C13.6444 14.5569 13.5707 14.6418 13.4717 14.6553C13.3415 14.673 13.2015 14.6895 13.0527 14.709L13.0537 14.71C12.6495 14.7655 12.3202 14.9861 12.125 15.292C12.0911 15.3452 12.0337 15.3792 11.9707 15.3838C11.9078 15.3884 11.846 15.3631 11.8047 15.3154L11.0938 14.4961C10.9815 14.3753 10.8349 14.3233 10.6729 14.3232C10.5379 14.3232 10.3914 14.3772 10.2246 14.5137L10.2236 14.5127L8.55371 15.999C8.47706 16.067 8.36071 16.0653 8.28516 15.9961L7.61914 15.3857C7.49141 15.2732 7.36166 15.2324 7.25 15.2324C7.14246 15.2325 7.02614 15.2696 6.90332 15.3828L5.84082 16.4648C5.80333 16.503 5.75172 16.5243 5.69824 16.5244H5.12305C5.01273 16.5244 4.92307 16.4355 4.92285 16.3252V12.3379C4.92287 11.9418 5.03272 11.6102 5.26953 11.3789C5.50552 11.1486 5.83777 11.0469 6.22266 11.0469H12.3516ZM7.80957 12.7939C7.4427 12.781 7.13401 13.0911 7.13379 13.4766C7.13379 13.8486 7.43923 14.1621 7.81641 14.1621C8.18814 14.1621 8.50098 13.8471 8.50098 13.4766C8.50074 13.1057 8.19499 12.808 7.80957 12.7939ZM7.06641 5.08398C7.27116 5.08406 7.45602 5.1341 7.60938 5.25195C7.75978 5.36761 7.85954 5.53391 7.92676 5.73145L9.13672 9.05273C9.13929 9.05979 9.1418 9.06692 9.14355 9.07422C9.17035 9.18632 9.19531 9.30381 9.19531 9.39746C9.19528 9.56621 9.14556 9.727 9.02344 9.84473C8.90242 9.96131 8.73844 10.0087 8.56348 10.0088C8.41815 10.0088 8.27766 9.96658 8.16309 9.86426C8.05689 9.76931 7.99018 9.637 7.9502 9.48438L7.7002 8.81445H6.44824L6.20703 9.48242L6.20605 9.48145C6.16714 9.63621 6.10388 9.77101 5.99609 9.86719C5.87952 9.97121 5.73747 10.0088 5.59277 10.0088C5.42056 10.0088 5.25774 9.96066 5.13672 9.8457C5.01429 9.72939 4.95999 9.56927 4.95996 9.39746C4.95996 9.30436 4.98536 9.18094 5.01367 9.07129L5.01953 9.05273L6.22656 5.73535C6.29325 5.53748 6.39178 5.37054 6.53809 5.25391C6.68728 5.13507 6.86774 5.08398 7.06641 5.08398ZM12.9131 8.35449C13.3104 8.35457 13.6182 8.6563 13.6182 9.04785C13.618 9.44337 13.3166 9.75773 12.9131 9.75781H10.4131C10.0044 9.75781 9.70035 9.44523 9.7002 9.04785C9.7002 8.65447 10.0106 8.35449 10.4131 8.35449H12.9131ZM6.76953 7.73633H7.38477L7.07422 6.78125L6.76953 7.73633ZM12.9131 5.50293C13.3103 5.50301 13.6181 5.80484 13.6182 6.19629C13.6182 6.59191 13.3167 6.90715 12.9131 6.90723H10.4131C10.0043 6.90723 9.7002 6.59377 9.7002 6.19629C9.70025 5.80301 10.0107 5.50293 10.4131 5.50293H12.9131Z" fill="#1D1A24"/>
</svg>
