<svg width="24" height="24" viewBox="0 0 24 24" fill="none" xmlns="http://www.w3.org/2000/svg">
<path d="M7.72607 4.10254C7.78265 4.10254 7.83659 4.12697 7.87451 4.16895C7.91237 4.21092 7.93103 4.26702 7.92529 4.32324C7.91912 4.3828 7.91553 4.44558 7.91553 4.50977V5.37598C7.91553 5.45614 7.92084 5.53239 7.93115 5.60352C7.93936 5.66084 7.92218 5.71889 7.88428 5.7627C7.84628 5.80659 7.79096 5.83204 7.73291 5.83203H7.68311C7.28853 5.83203 7.02279 5.93784 6.85498 6.10645C6.68702 6.27524 6.58743 6.53689 6.5874 6.91113V19.3916C6.5874 19.7706 6.68755 20.0318 6.85498 20.1992C7.02239 20.3666 7.28766 20.4707 7.68311 20.4707H16.3169C16.7124 20.4707 16.9776 20.3666 17.145 20.1992C17.3124 20.0318 17.4126 19.7706 17.4126 19.3916V6.91113C17.4126 6.53696 17.3129 6.27524 17.145 6.10645C16.9772 5.93784 16.7114 5.83203 16.3169 5.83203H16.2671C16.2091 5.83204 16.1537 5.80655 16.1157 5.7627C16.0778 5.71888 16.0606 5.66088 16.0688 5.60352C16.0791 5.53231 16.0835 5.45609 16.0835 5.37598V4.50977C16.0835 4.44552 16.0809 4.38271 16.0747 4.32324C16.069 4.26703 16.0876 4.21093 16.1255 4.16895C16.1634 4.12702 16.2174 4.10254 16.2739 4.10254H16.3833C17.2685 4.10261 17.9679 4.32599 18.4448 4.80859C18.9213 5.29083 19.1421 5.99808 19.1421 6.89453V19.4082C19.1421 20.3048 18.9213 21.0128 18.4448 21.4951C17.968 21.9775 17.2682 22.2001 16.3833 22.2002H7.6167C6.73146 22.2002 6.03111 21.9778 5.5542 21.4951C5.0777 21.0128 4.85792 20.3048 4.85791 19.4082V6.89453C4.85795 5.99828 5.07795 5.29083 5.5542 4.80859C6.03111 4.32591 6.73142 4.10258 7.6167 4.10254H7.72607ZM12.52 16.8643C12.9214 16.8643 13.2319 17.1872 13.2319 17.5762C13.2317 17.967 12.9109 18.2871 12.52 18.2871H8.35986C7.97307 18.2871 7.64037 17.9712 7.64014 17.5762C7.64014 17.183 7.96259 16.8643 8.35986 16.8643H12.52ZM15.6401 13.7773C16.0331 13.7774 16.3599 14.0832 16.3599 14.4805C16.3598 14.8798 16.0394 15.2001 15.6401 15.2002H8.35986C7.96053 15.2002 7.64018 14.8798 7.64014 14.4805C7.64014 14.0831 7.96689 13.7773 8.35986 13.7773H15.6401ZM10.2749 7.53711C10.4488 7.53716 10.5912 7.64166 10.6538 7.7959L10.6763 7.86523L10.6792 7.87891C10.7453 8.30019 10.803 8.60892 10.8774 8.84473C10.9325 9.01904 10.9938 9.14628 11.0688 9.24512L11.1489 9.33496L11.1528 9.33887C11.2621 9.45138 11.4123 9.53662 11.647 9.61133C11.8845 9.68695 12.1932 9.7471 12.6108 9.81738C12.8157 9.84969 12.9507 10.0167 12.9507 10.2129C12.9507 10.4092 12.8145 10.575 12.6099 10.6074L12.6108 10.6084C12.1932 10.6787 11.8845 10.7388 11.647 10.8145C11.4123 10.8892 11.2621 10.9744 11.1528 11.0869L11.1489 11.0908C11.0361 11.2004 10.9508 11.3488 10.8774 11.5811C10.803 11.8168 10.7453 12.1256 10.6792 12.5469C10.6785 12.5514 10.6773 12.556 10.6763 12.5605C10.6321 12.7518 10.4738 12.8896 10.2749 12.8896C10.0786 12.8896 9.91166 12.7528 9.87939 12.5479C9.80918 12.1266 9.74882 11.8182 9.67334 11.582C9.59887 11.3491 9.51379 11.2005 9.40088 11.0908L9.39697 11.0869C9.28729 10.974 9.13861 10.8889 8.90576 10.8145C8.78758 10.7767 8.65118 10.7422 8.4917 10.709L7.93896 10.6084C7.75064 10.5769 7.59814 10.4168 7.59814 10.2129C7.59817 10.0092 7.75048 9.84876 7.93896 9.81738C8.36064 9.74711 8.66949 9.68784 8.90576 9.6123C9.13875 9.53782 9.28724 9.45181 9.39697 9.33887L9.40088 9.33496C9.51382 9.22522 9.59887 9.07669 9.67334 8.84375C9.74887 8.60747 9.80911 8.29864 9.87939 7.87695C9.91209 7.67257 10.079 7.53711 10.2749 7.53711ZM11.9995 1.7998C13.0003 1.7998 13.8196 2.54445 13.9692 3.49219H14.5503C14.8332 3.49219 15.0822 3.58352 15.2593 3.77148C15.4349 3.95806 15.5181 4.21708 15.5181 4.50977V5.37598C15.5181 5.66864 15.4348 5.92671 15.2593 6.11328C15.0822 6.30139 14.8333 6.39355 14.5503 6.39355H9.44971C9.16665 6.39355 8.91777 6.30137 8.74072 6.11328C8.56512 5.9267 8.48193 5.66866 8.48193 5.37598V4.50977C8.48193 4.21708 8.56512 3.95807 8.74072 3.77148C8.91775 3.58357 9.16678 3.49219 9.44971 3.49219H10.0308C10.1804 2.54459 10.9989 1.80001 11.9995 1.7998ZM11.9995 3.23145C11.7155 3.23166 11.4821 3.46262 11.4819 3.75781C11.4819 4.03667 11.7154 4.27614 11.9995 4.27637C12.2838 4.27637 12.5181 4.0368 12.5181 3.75781C12.5179 3.46247 12.2837 3.23145 11.9995 3.23145Z" fill="#1D1A24"/>
</svg>
