<svg width="24" height="24" viewBox="0 0 24 24" fill="none" xmlns="http://www.w3.org/2000/svg">
<path d="M19.7725 2.3125C20.4867 2.3125 21.0972 2.55068 21.5293 2.98145C21.9614 3.41228 22.2001 4.02046 22.2002 4.73047V17.8066C22.2002 18.5168 21.9614 19.1247 21.5293 19.5557C21.0972 19.9866 20.4868 20.2246 19.7725 20.2246C19.0666 20.2245 18.459 19.9861 18.0273 19.5557C17.7615 19.2906 17.5684 18.9583 17.459 18.5762C15.3397 17.3586 12.9954 16.5297 10.6709 16.0713L11.249 19.0439L11.2861 19.2773C11.351 19.8142 11.265 20.2855 11.0527 20.668C10.81 21.1054 10.4113 21.4094 9.92773 21.5625L9.92578 21.5635C9.45995 21.7075 8.87631 21.756 8.30469 21.54C7.79989 21.3492 7.32405 20.9592 6.9541 20.2871L6.80176 19.9814L4.88281 15.7285C4.02953 15.6064 3.33434 15.2964 2.81934 14.7969C2.13627 14.1343 1.7998 13.1681 1.7998 11.96V10.6406C1.7998 9.42397 2.13596 8.45744 2.81934 7.79688C3.50177 7.13743 4.50017 6.81156 5.7627 6.81152H8.92676C11.5416 6.52606 14.8389 5.56255 17.4385 4.04395C17.5429 3.62719 17.7426 3.26537 18.0273 2.98145C18.459 2.5511 19.0667 2.31257 19.7725 2.3125ZM8.59375 19.5537C8.75448 19.8876 9.04022 19.9472 9.25293 19.8721C9.35956 19.8354 9.44342 19.7718 9.49414 19.6895C9.54345 19.6092 9.57243 19.4946 9.54492 19.3359L8.8457 15.7881H6.83105L8.59375 19.5537ZM19.7725 4.1582C19.5838 4.15827 19.4474 4.21913 19.3584 4.30957C19.2691 4.40042 19.2091 4.53998 19.209 4.73047V17.8066C19.209 17.9972 19.2691 18.1366 19.3584 18.2275C19.4474 18.318 19.5838 18.3788 19.7725 18.3789C19.9617 18.3789 20.1042 18.3181 20.1982 18.2256C20.2919 18.1334 20.3545 17.994 20.3545 17.8066V4.73047C20.3544 4.54343 20.2918 4.4046 20.1982 4.3125C20.1042 4.21997 19.9617 4.1582 19.7725 4.1582ZM17.3545 6.12793C14.9571 7.44113 12.1969 8.24449 9.32129 8.59375V13.998C12.1733 14.3474 14.908 15.1305 17.3545 16.4658V6.12793ZM5.7627 8.6582C4.95914 8.65823 4.44322 8.81319 4.125 9.1123C3.80988 9.40858 3.64551 9.8873 3.64551 10.6406V11.96C3.64551 12.7085 3.80951 13.1878 4.125 13.4854C4.44343 13.7856 4.95976 13.9424 5.7627 13.9424H7.4668V8.6582H5.7627Z" fill="#1D1A24"/>
</svg>
