<svg width="24" height="24" viewBox="0 0 24 24" fill="none" xmlns="http://www.w3.org/2000/svg">
<path d="M9.3 3C9.79706 3 10.2 3.40294 10.2 3.9C10.2 4.39706 9.79706 4.8 9.3 4.8H5.7C5.4613 4.8 5.23245 4.89489 5.06367 5.06367C4.89489 5.23245 4.8 5.4613 4.8 5.7V18.3C4.8 18.5387 4.89489 18.7675 5.06367 18.9363C5.23245 19.1051 5.46131 19.2 5.7 19.2H9.3C9.79706 19.2 10.2 19.6029 10.2 20.1C10.2 20.5971 9.79706 21 9.3 21H5.7C4.98391 21 4.29736 20.7153 3.79102 20.209C3.28467 19.7026 3 19.0161 3 18.3V5.7C3 4.98392 3.28467 4.29736 3.79102 3.79102C4.29736 3.28467 4.98392 3 5.7 3H9.3Z" fill="#1D1A24"/>
<path d="M9.3 3C9.79706 3 10.2 3.40294 10.2 3.9C10.2 4.39706 9.79706 4.8 9.3 4.8H5.7C5.4613 4.8 5.23245 4.89489 5.06367 5.06367C4.89489 5.23245 4.8 5.4613 4.8 5.7V18.3C4.8 18.5387 4.89489 18.7675 5.06367 18.9363C5.23245 19.1051 5.46131 19.2 5.7 19.2H9.3C9.79706 19.2 10.2 19.6029 10.2 20.1C10.2 20.5971 9.79706 21 9.3 21H5.7C4.98391 21 4.29736 20.7153 3.79102 20.209C3.28467 19.7026 3 19.0161 3 18.3V5.7C3 4.98392 3.28467 4.29736 3.79102 3.79102C4.29736 3.28467 4.98392 3 5.7 3H9.3Z" fill="black" fill-opacity="0.2"/>
<path d="M9.3 3C9.79706 3 10.2 3.40294 10.2 3.9C10.2 4.39706 9.79706 4.8 9.3 4.8H5.7C5.4613 4.8 5.23245 4.89489 5.06367 5.06367C4.89489 5.23245 4.8 5.4613 4.8 5.7V18.3C4.8 18.5387 4.89489 18.7675 5.06367 18.9363C5.23245 19.1051 5.46131 19.2 5.7 19.2H9.3C9.79706 19.2 10.2 19.6029 10.2 20.1C10.2 20.5971 9.79706 21 9.3 21H5.7C4.98391 21 4.29736 20.7153 3.79102 20.209C3.28467 19.7026 3 19.0161 3 18.3V5.7C3 4.98392 3.28467 4.29736 3.79102 3.79102C4.29736 3.28467 4.98392 3 5.7 3H9.3Z" fill="black" fill-opacity="0.2"/>
<path d="M9.3 3C9.79706 3 10.2 3.40294 10.2 3.9C10.2 4.39706 9.79706 4.8 9.3 4.8H5.7C5.4613 4.8 5.23245 4.89489 5.06367 5.06367C4.89489 5.23245 4.8 5.4613 4.8 5.7V18.3C4.8 18.5387 4.89489 18.7675 5.06367 18.9363C5.23245 19.1051 5.46131 19.2 5.7 19.2H9.3C9.79706 19.2 10.2 19.6029 10.2 20.1C10.2 20.5971 9.79706 21 9.3 21H5.7C4.98391 21 4.29736 20.7153 3.79102 20.209C3.28467 19.7026 3 19.0161 3 18.3V5.7C3 4.98392 3.28467 4.29736 3.79102 3.79102C4.29736 3.28467 4.98392 3 5.7 3H9.3Z" fill="black" fill-opacity="0.2"/>
<path d="M9.3 3C9.79706 3 10.2 3.40294 10.2 3.9C10.2 4.39706 9.79706 4.8 9.3 4.8H5.7C5.4613 4.8 5.23245 4.89489 5.06367 5.06367C4.89489 5.23245 4.8 5.4613 4.8 5.7V18.3C4.8 18.5387 4.89489 18.7675 5.06367 18.9363C5.23245 19.1051 5.46131 19.2 5.7 19.2H9.3C9.79706 19.2 10.2 19.6029 10.2 20.1C10.2 20.5971 9.79706 21 9.3 21H5.7C4.98391 21 4.29736 20.7153 3.79102 20.209C3.28467 19.7026 3 19.0161 3 18.3V5.7C3 4.98392 3.28467 4.29736 3.79102 3.79102C4.29736 3.28467 4.98392 3 5.7 3H9.3Z" fill="black" fill-opacity="0.2"/>
<path d="M9.3 3C9.79706 3 10.2 3.40294 10.2 3.9C10.2 4.39706 9.79706 4.8 9.3 4.8H5.7C5.4613 4.8 5.23245 4.89489 5.06367 5.06367C4.89489 5.23245 4.8 5.4613 4.8 5.7V18.3C4.8 18.5387 4.89489 18.7675 5.06367 18.9363C5.23245 19.1051 5.46131 19.2 5.7 19.2H9.3C9.79706 19.2 10.2 19.6029 10.2 20.1C10.2 20.5971 9.79706 21 9.3 21H5.7C4.98391 21 4.29736 20.7153 3.79102 20.209C3.28467 19.7026 3 19.0161 3 18.3V5.7C3 4.98392 3.28467 4.29736 3.79102 3.79102C4.29736 3.28467 4.98392 3 5.7 3H9.3Z" fill="black" fill-opacity="0.2"/>
<path d="M14.9637 6.86367C15.3151 6.5122 15.8849 6.5122 16.2363 6.86367L20.7363 11.3637C20.7794 11.4067 20.8178 11.4542 20.8515 11.5052C20.8737 11.5389 20.8931 11.574 20.9104 11.6098C20.93 11.6504 20.947 11.6925 20.9604 11.7363C20.966 11.7546 20.9701 11.7732 20.9745 11.7917C20.9904 11.8586 21 11.9282 21 12C21 12.0507 20.994 12.1001 20.9859 12.1485C20.9795 12.187 20.9719 12.2253 20.9604 12.2628C20.9471 12.3066 20.9299 12.3487 20.9104 12.3894C20.9042 12.4021 20.8978 12.4146 20.891 12.4271C20.8659 12.4736 20.8366 12.5171 20.804 12.5581C20.7828 12.5848 20.761 12.6116 20.7363 12.6363L16.2363 17.1363C15.8849 17.4878 15.3151 17.4878 14.9637 17.1363C14.6122 16.7849 14.6122 16.2151 14.9637 15.8637L17.9273 12.9H9.3C8.80294 12.9 8.4 12.4971 8.4 12C8.4 11.5029 8.80294 11.1 9.3 11.1H17.9273L14.9637 8.13633C14.6122 7.78486 14.6122 7.21514 14.9637 6.86367Z" fill="#1D1A24"/>
<path d="M14.9637 6.86367C15.3151 6.5122 15.8849 6.5122 16.2363 6.86367L20.7363 11.3637C20.7794 11.4067 20.8178 11.4542 20.8515 11.5052C20.8737 11.5389 20.8931 11.574 20.9104 11.6098C20.93 11.6504 20.947 11.6925 20.9604 11.7363C20.966 11.7546 20.9701 11.7732 20.9745 11.7917C20.9904 11.8586 21 11.9282 21 12C21 12.0507 20.994 12.1001 20.9859 12.1485C20.9795 12.187 20.9719 12.2253 20.9604 12.2628C20.9471 12.3066 20.9299 12.3487 20.9104 12.3894C20.9042 12.4021 20.8978 12.4146 20.891 12.4271C20.8659 12.4736 20.8366 12.5171 20.804 12.5581C20.7828 12.5848 20.761 12.6116 20.7363 12.6363L16.2363 17.1363C15.8849 17.4878 15.3151 17.4878 14.9637 17.1363C14.6122 16.7849 14.6122 16.2151 14.9637 15.8637L17.9273 12.9H9.3C8.80294 12.9 8.4 12.4971 8.4 12C8.4 11.5029 8.80294 11.1 9.3 11.1H17.9273L14.9637 8.13633C14.6122 7.78486 14.6122 7.21514 14.9637 6.86367Z" fill="black" fill-opacity="0.2"/>
<path d="M14.9637 6.86367C15.3151 6.5122 15.8849 6.5122 16.2363 6.86367L20.7363 11.3637C20.7794 11.4067 20.8178 11.4542 20.8515 11.5052C20.8737 11.5389 20.8931 11.574 20.9104 11.6098C20.93 11.6504 20.947 11.6925 20.9604 11.7363C20.966 11.7546 20.9701 11.7732 20.9745 11.7917C20.9904 11.8586 21 11.9282 21 12C21 12.0507 20.994 12.1001 20.9859 12.1485C20.9795 12.187 20.9719 12.2253 20.9604 12.2628C20.9471 12.3066 20.9299 12.3487 20.9104 12.3894C20.9042 12.4021 20.8978 12.4146 20.891 12.4271C20.8659 12.4736 20.8366 12.5171 20.804 12.5581C20.7828 12.5848 20.761 12.6116 20.7363 12.6363L16.2363 17.1363C15.8849 17.4878 15.3151 17.4878 14.9637 17.1363C14.6122 16.7849 14.6122 16.2151 14.9637 15.8637L17.9273 12.9H9.3C8.80294 12.9 8.4 12.4971 8.4 12C8.4 11.5029 8.80294 11.1 9.3 11.1H17.9273L14.9637 8.13633C14.6122 7.78486 14.6122 7.21514 14.9637 6.86367Z" fill="black" fill-opacity="0.2"/>
<path d="M14.9637 6.86367C15.3151 6.5122 15.8849 6.5122 16.2363 6.86367L20.7363 11.3637C20.7794 11.4067 20.8178 11.4542 20.8515 11.5052C20.8737 11.5389 20.8931 11.574 20.9104 11.6098C20.93 11.6504 20.947 11.6925 20.9604 11.7363C20.966 11.7546 20.9701 11.7732 20.9745 11.7917C20.9904 11.8586 21 11.9282 21 12C21 12.0507 20.994 12.1001 20.9859 12.1485C20.9795 12.187 20.9719 12.2253 20.9604 12.2628C20.9471 12.3066 20.9299 12.3487 20.9104 12.3894C20.9042 12.4021 20.8978 12.4146 20.891 12.4271C20.8659 12.4736 20.8366 12.5171 20.804 12.5581C20.7828 12.5848 20.761 12.6116 20.7363 12.6363L16.2363 17.1363C15.8849 17.4878 15.3151 17.4878 14.9637 17.1363C14.6122 16.7849 14.6122 16.2151 14.9637 15.8637L17.9273 12.9H9.3C8.80294 12.9 8.4 12.4971 8.4 12C8.4 11.5029 8.80294 11.1 9.3 11.1H17.9273L14.9637 8.13633C14.6122 7.78486 14.6122 7.21514 14.9637 6.86367Z" fill="black" fill-opacity="0.2"/>
<path d="M14.9637 6.86367C15.3151 6.5122 15.8849 6.5122 16.2363 6.86367L20.7363 11.3637C20.7794 11.4067 20.8178 11.4542 20.8515 11.5052C20.8737 11.5389 20.8931 11.574 20.9104 11.6098C20.93 11.6504 20.947 11.6925 20.9604 11.7363C20.966 11.7546 20.9701 11.7732 20.9745 11.7917C20.9904 11.8586 21 11.9282 21 12C21 12.0507 20.994 12.1001 20.9859 12.1485C20.9795 12.187 20.9719 12.2253 20.9604 12.2628C20.9471 12.3066 20.9299 12.3487 20.9104 12.3894C20.9042 12.4021 20.8978 12.4146 20.891 12.4271C20.8659 12.4736 20.8366 12.5171 20.804 12.5581C20.7828 12.5848 20.761 12.6116 20.7363 12.6363L16.2363 17.1363C15.8849 17.4878 15.3151 17.4878 14.9637 17.1363C14.6122 16.7849 14.6122 16.2151 14.9637 15.8637L17.9273 12.9H9.3C8.80294 12.9 8.4 12.4971 8.4 12C8.4 11.5029 8.80294 11.1 9.3 11.1H17.9273L14.9637 8.13633C14.6122 7.78486 14.6122 7.21514 14.9637 6.86367Z" fill="black" fill-opacity="0.2"/>
<path d="M14.9637 6.86367C15.3151 6.5122 15.8849 6.5122 16.2363 6.86367L20.7363 11.3637C20.7794 11.4067 20.8178 11.4542 20.8515 11.5052C20.8737 11.5389 20.8931 11.574 20.9104 11.6098C20.93 11.6504 20.947 11.6925 20.9604 11.7363C20.966 11.7546 20.9701 11.7732 20.9745 11.7917C20.9904 11.8586 21 11.9282 21 12C21 12.0507 20.994 12.1001 20.9859 12.1485C20.9795 12.187 20.9719 12.2253 20.9604 12.2628C20.9471 12.3066 20.9299 12.3487 20.9104 12.3894C20.9042 12.4021 20.8978 12.4146 20.891 12.4271C20.8659 12.4736 20.8366 12.5171 20.804 12.5581C20.7828 12.5848 20.761 12.6116 20.7363 12.6363L16.2363 17.1363C15.8849 17.4878 15.3151 17.4878 14.9637 17.1363C14.6122 16.7849 14.6122 16.2151 14.9637 15.8637L17.9273 12.9H9.3C8.80294 12.9 8.4 12.4971 8.4 12C8.4 11.5029 8.80294 11.1 9.3 11.1H17.9273L14.9637 8.13633C14.6122 7.78486 14.6122 7.21514 14.9637 6.86367Z" fill="black" fill-opacity="0.2"/>
</svg>
