<svg width="24" height="24" viewBox="0 0 24 24" fill="none" xmlns="http://www.w3.org/2000/svg">
<path d="M18 17C18.5523 17 19 17.4477 19 18C19 18.5523 18.5523 19 18 19H3.5C2.94772 19 2.5 18.5523 2.5 18C2.5 17.4477 2.94772 17 3.5 17H18Z" fill="#1D1A24"/>
<path d="M18 17C18.5523 17 19 17.4477 19 18C19 18.5523 18.5523 19 18 19H3.5C2.94772 19 2.5 18.5523 2.5 18C2.5 17.4477 2.94772 17 3.5 17H18Z" fill="black" fill-opacity="0.2"/>
<path d="M18 17C18.5523 17 19 17.4477 19 18C19 18.5523 18.5523 19 18 19H3.5C2.94772 19 2.5 18.5523 2.5 18C2.5 17.4477 2.94772 17 3.5 17H18Z" fill="black" fill-opacity="0.2"/>
<path d="M18 17C18.5523 17 19 17.4477 19 18C19 18.5523 18.5523 19 18 19H3.5C2.94772 19 2.5 18.5523 2.5 18C2.5 17.4477 2.94772 17 3.5 17H18Z" fill="black" fill-opacity="0.2"/>
<path d="M18 17C18.5523 17 19 17.4477 19 18C19 18.5523 18.5523 19 18 19H3.5C2.94772 19 2.5 18.5523 2.5 18C2.5 17.4477 2.94772 17 3.5 17H18Z" fill="black" fill-opacity="0.2"/>
<path d="M18 17C18.5523 17 19 17.4477 19 18C19 18.5523 18.5523 19 18 19H3.5C2.94772 19 2.5 18.5523 2.5 18C2.5 17.4477 2.94772 17 3.5 17H18Z" fill="black" fill-opacity="0.2"/>
<path d="M20.3818 7.05566C20.7227 6.71494 21.2763 6.71503 21.6172 7.05566C21.9576 7.39654 21.9578 7.94919 21.6172 8.29004L17.9062 11.999L21.6172 15.709C21.9577 16.0498 21.9577 16.6025 21.6172 16.9434C21.2763 17.2839 20.7228 17.2843 20.3818 16.9434L16.0557 12.6162C15.7152 12.2753 15.7152 11.7226 16.0557 11.3818L20.3818 7.05566Z" fill="#1D1A24"/>
<path d="M20.3818 7.05566C20.7227 6.71494 21.2763 6.71503 21.6172 7.05566C21.9576 7.39654 21.9578 7.94919 21.6172 8.29004L17.9062 11.999L21.6172 15.709C21.9577 16.0498 21.9577 16.6025 21.6172 16.9434C21.2763 17.2839 20.7228 17.2843 20.3818 16.9434L16.0557 12.6162C15.7152 12.2753 15.7152 11.7226 16.0557 11.3818L20.3818 7.05566Z" fill="black" fill-opacity="0.2"/>
<path d="M20.3818 7.05566C20.7227 6.71494 21.2763 6.71503 21.6172 7.05566C21.9576 7.39654 21.9578 7.94919 21.6172 8.29004L17.9062 11.999L21.6172 15.709C21.9577 16.0498 21.9577 16.6025 21.6172 16.9434C21.2763 17.2839 20.7228 17.2843 20.3818 16.9434L16.0557 12.6162C15.7152 12.2753 15.7152 11.7226 16.0557 11.3818L20.3818 7.05566Z" fill="black" fill-opacity="0.2"/>
<path d="M20.3818 7.05566C20.7227 6.71494 21.2763 6.71503 21.6172 7.05566C21.9576 7.39654 21.9578 7.94919 21.6172 8.29004L17.9062 11.999L21.6172 15.709C21.9577 16.0498 21.9577 16.6025 21.6172 16.9434C21.2763 17.2839 20.7228 17.2843 20.3818 16.9434L16.0557 12.6162C15.7152 12.2753 15.7152 11.7226 16.0557 11.3818L20.3818 7.05566Z" fill="black" fill-opacity="0.2"/>
<path d="M20.3818 7.05566C20.7227 6.71494 21.2763 6.71503 21.6172 7.05566C21.9576 7.39654 21.9578 7.94919 21.6172 8.29004L17.9062 11.999L21.6172 15.709C21.9577 16.0498 21.9577 16.6025 21.6172 16.9434C21.2763 17.2839 20.7228 17.2843 20.3818 16.9434L16.0557 12.6162C15.7152 12.2753 15.7152 11.7226 16.0557 11.3818L20.3818 7.05566Z" fill="black" fill-opacity="0.2"/>
<path d="M20.3818 7.05566C20.7227 6.71494 21.2763 6.71503 21.6172 7.05566C21.9576 7.39654 21.9578 7.94919 21.6172 8.29004L17.9062 11.999L21.6172 15.709C21.9577 16.0498 21.9577 16.6025 21.6172 16.9434C21.2763 17.2839 20.7228 17.2843 20.3818 16.9434L16.0557 12.6162C15.7152 12.2753 15.7152 11.7226 16.0557 11.3818L20.3818 7.05566Z" fill="black" fill-opacity="0.2"/>
<path d="M13.5 11C14.0523 11 14.5 11.4477 14.5 12C14.5 12.5523 14.0523 13 13.5 13H3.5C2.94772 13 2.5 12.5523 2.5 12C2.5 11.4477 2.94772 11 3.5 11H13.5Z" fill="#1D1A24"/>
<path d="M13.5 11C14.0523 11 14.5 11.4477 14.5 12C14.5 12.5523 14.0523 13 13.5 13H3.5C2.94772 13 2.5 12.5523 2.5 12C2.5 11.4477 2.94772 11 3.5 11H13.5Z" fill="black" fill-opacity="0.2"/>
<path d="M13.5 11C14.0523 11 14.5 11.4477 14.5 12C14.5 12.5523 14.0523 13 13.5 13H3.5C2.94772 13 2.5 12.5523 2.5 12C2.5 11.4477 2.94772 11 3.5 11H13.5Z" fill="black" fill-opacity="0.2"/>
<path d="M13.5 11C14.0523 11 14.5 11.4477 14.5 12C14.5 12.5523 14.0523 13 13.5 13H3.5C2.94772 13 2.5 12.5523 2.5 12C2.5 11.4477 2.94772 11 3.5 11H13.5Z" fill="black" fill-opacity="0.2"/>
<path d="M13.5 11C14.0523 11 14.5 11.4477 14.5 12C14.5 12.5523 14.0523 13 13.5 13H3.5C2.94772 13 2.5 12.5523 2.5 12C2.5 11.4477 2.94772 11 3.5 11H13.5Z" fill="black" fill-opacity="0.2"/>
<path d="M13.5 11C14.0523 11 14.5 11.4477 14.5 12C14.5 12.5523 14.0523 13 13.5 13H3.5C2.94772 13 2.5 12.5523 2.5 12C2.5 11.4477 2.94772 11 3.5 11H13.5Z" fill="black" fill-opacity="0.2"/>
<path d="M18 5C18.5523 5 19 5.44772 19 6C19 6.55228 18.5523 7 18 7H3.5C2.94772 7 2.5 6.55228 2.5 6C2.5 5.44772 2.94772 5 3.5 5H18Z" fill="#1D1A24"/>
<path d="M18 5C18.5523 5 19 5.44772 19 6C19 6.55228 18.5523 7 18 7H3.5C2.94772 7 2.5 6.55228 2.5 6C2.5 5.44772 2.94772 5 3.5 5H18Z" fill="black" fill-opacity="0.2"/>
<path d="M18 5C18.5523 5 19 5.44772 19 6C19 6.55228 18.5523 7 18 7H3.5C2.94772 7 2.5 6.55228 2.5 6C2.5 5.44772 2.94772 5 3.5 5H18Z" fill="black" fill-opacity="0.2"/>
<path d="M18 5C18.5523 5 19 5.44772 19 6C19 6.55228 18.5523 7 18 7H3.5C2.94772 7 2.5 6.55228 2.5 6C2.5 5.44772 2.94772 5 3.5 5H18Z" fill="black" fill-opacity="0.2"/>
<path d="M18 5C18.5523 5 19 5.44772 19 6C19 6.55228 18.5523 7 18 7H3.5C2.94772 7 2.5 6.55228 2.5 6C2.5 5.44772 2.94772 5 3.5 5H18Z" fill="black" fill-opacity="0.2"/>
<path d="M18 5C18.5523 5 19 5.44772 19 6C19 6.55228 18.5523 7 18 7H3.5C2.94772 7 2.5 6.55228 2.5 6C2.5 5.44772 2.94772 5 3.5 5H18Z" fill="black" fill-opacity="0.2"/>
</svg>
