<svg width="24" height="24" viewBox="0 0 24 24" fill="none" xmlns="http://www.w3.org/2000/svg">
<path d="M19.2499 16.4498L17.7499 14.8998C18.4166 14.7165 18.9582 14.3623 19.3749 13.8373C19.7916 13.3123 19.9999 12.6998 19.9999 11.9998C19.9999 11.1665 19.7082 10.4581 19.1249 9.87481C18.5416 9.29147 17.8332 8.99981 16.9999 8.99981H12.9999V6.9998H16.9999C18.3832 6.9998 19.5624 7.48731 20.5374 8.46231C21.5124 9.43731 21.9999 10.6165 21.9999 11.9998C21.9999 12.9498 21.7541 13.8248 21.2624 14.6248C20.7707 15.4248 20.0999 16.0331 19.2499 16.4498ZM15.8499 12.9998L13.8499 10.9998H15.9999V12.9998H15.8499ZM19.7999 22.5998L1.3999 4.1998L2.7999 2.7998L21.1999 21.1998L19.7999 22.5998ZM10.9999 16.9998H6.9999C5.61657 16.9998 4.4374 16.5123 3.4624 15.5373C2.4874 14.5623 1.9999 13.3831 1.9999 11.9998C1.9999 10.8498 2.3499 9.82481 3.0499 8.92481C3.7499 8.02481 4.6499 7.43314 5.7499 7.14981L7.5999 8.99981H6.9999C6.16657 8.99981 5.45824 9.29147 4.8749 9.87481C4.29157 10.4581 3.9999 11.1665 3.9999 11.9998C3.9999 12.8331 4.29157 13.5415 4.8749 14.1248C5.45824 14.7081 6.16657 14.9998 6.9999 14.9998H10.9999V16.9998ZM7.9999 12.9998V10.9998H9.6249L11.5999 12.9998H7.9999Z" fill="#1D1A24"/>
</svg>
