<svg width="24" height="24" viewBox="0 0 24 24" fill="none" xmlns="http://www.w3.org/2000/svg">
<path fill-rule="evenodd" clip-rule="evenodd" d="M11 3C11.3997 3 11.7928 3.10618 12.1396 3.30566L12.1445 3.30762L17.8545 6.56934L17.8574 6.57227C18.1381 6.73435 18.3793 6.95603 18.5684 7.21875C18.5735 7.22581 18.5798 7.23212 18.5859 7.23828C18.6277 7.27985 18.6641 7.32516 18.6924 7.37402C18.7161 7.41509 18.7353 7.45907 18.75 7.50586C18.7526 7.51403 18.755 7.5226 18.7588 7.53027C18.9165 7.8461 18.9996 8.19483 19 8.54883V11.9072C18.6769 11.8416 18.3424 11.8076 18 11.8076C17.8973 11.8076 17.7955 11.8113 17.6943 11.8174V8.98828C17.6943 8.92992 17.6629 8.87584 17.6123 8.84668C17.5618 8.81757 17.4987 8.81747 17.4482 8.84668L11.7344 12.1533C11.6842 12.1825 11.6534 12.2359 11.6533 12.2939V18.8174C11.6534 18.8754 11.6842 18.9288 11.7344 18.958C11.7847 18.9872 11.847 18.9878 11.8975 18.959L13.2012 18.2139C13.3259 18.6403 13.5054 19.0432 13.7324 19.4141L12.1445 20.3223L12.1396 20.3242C11.8993 20.4624 11.6356 20.5554 11.3633 20.5996L11.3115 20.6172C11.2186 20.6678 11.1128 20.6973 11 20.6973C10.8867 20.6973 10.7803 20.6679 10.6875 20.6172L10.6357 20.5996L10.4336 20.5576C10.3002 20.5236 10.1693 20.4774 10.0439 20.4199L9.86035 20.3242L4.14453 17.0596L4.14258 17.0586L4.01562 16.9785C3.72512 16.7844 3.48113 16.5261 3.30566 16.2227C3.13047 15.9193 3.02817 15.5797 3.00488 15.2314L3 15.0811V8.55469L3.00586 8.39355L3.00488 8.39258C3.02583 8.09175 3.1065 7.7977 3.24121 7.52832C3.24488 7.52092 3.24749 7.51275 3.25 7.50488C3.26386 7.46104 3.28385 7.41686 3.30859 7.37402C3.33767 7.32383 3.37383 7.27836 3.41406 7.23828C3.42009 7.23223 3.42566 7.22567 3.43066 7.21875C3.61967 6.95605 3.86163 6.73452 4.14258 6.57227L4.14453 6.56934L4.14551 6.57031L6.79785 5.05371C6.8131 5.04496 6.82718 5.03364 6.83887 5.02051C6.9338 4.91399 7.06061 4.84411 7.19727 4.81641C7.21425 4.81294 7.23105 4.80645 7.24609 4.79785L9.86035 3.30469L9.99219 3.23438C10.3051 3.0807 10.6499 3 11 3ZM4.55176 8.84668C4.50126 8.81747 4.43824 8.81755 4.3877 8.84668C4.33738 8.87585 4.30572 8.92914 4.30566 8.9873V15.0801L4.30664 15.0908L4.31348 15.1973L4.31445 15.208C4.33128 15.3343 4.37315 15.4569 4.4375 15.5684C4.52281 15.7159 4.64526 15.8391 4.79199 15.9248L4.79297 15.9258L10.1025 18.959C10.153 18.9878 10.2153 18.9872 10.2656 18.958C10.3158 18.9288 10.3466 18.8754 10.3467 18.8174V12.2939C10.3467 12.2358 10.3159 12.1816 10.2656 12.1523L4.55176 8.84668ZM7.44727 6.28027C7.39701 6.25131 7.33455 6.25054 7.28418 6.2793L5.23438 7.44922C5.18385 7.47817 5.15263 7.53259 5.15234 7.59082C5.1522 7.64895 5.18327 7.70306 5.2334 7.73242L10.918 11.0215C10.9685 11.0506 11.0316 11.0506 11.082 11.0215L13.1279 9.83691C13.178 9.80766 13.209 9.75427 13.209 9.69629C13.2089 9.63797 13.1775 9.58382 13.127 9.55469L7.44727 6.28027ZM11 4.30664C10.8314 4.30664 10.6655 4.34976 10.5186 4.43262L10.5068 4.43848L8.92676 5.34082C8.8761 5.36985 8.84485 5.425 8.84473 5.4834C8.84489 5.54158 8.87632 5.59494 8.92676 5.62402L14.5967 8.89355C14.6472 8.92268 14.7102 8.92277 14.7607 8.89355L16.7656 7.7334C16.8158 7.7041 16.8468 7.64994 16.8467 7.5918C16.8464 7.53357 16.8152 7.47915 16.7646 7.4502L11.4922 4.43848L11.4814 4.43262C11.3347 4.34998 11.1684 4.30664 11 4.30664Z" fill="#1D1A24"/>
<path d="M22 16.8076C22 19.0168 20.2091 20.8076 18 20.8076C15.7909 20.8076 14 19.0168 14 16.8076C14 14.5985 15.7909 12.8076 18 12.8076C20.2091 12.8076 22 14.5985 22 16.8076Z" fill="#1D1A24"/>
<path d="M19.3856 18.9072C19.5578 18.9091 19.7253 18.8487 19.8563 18.7363C19.9883 18.623 20.0742 18.4645 20.0975 18.292C20.0992 18.2792 20.1004 18.2662 20.1005 18.2539V16.9629C20.1004 16.9507 20.0993 16.9378 20.0975 16.9248C20.0742 16.7523 19.9884 16.5939 19.8563 16.4805C19.7253 16.3681 19.5578 16.3087 19.3856 16.3106L19.1063 16.3096C19.1008 16.2911 19.095 16.2714 19.0887 16.251C19.0404 16.0927 18.9724 15.8804 18.8954 15.667C18.8192 15.456 18.73 15.2339 18.6385 15.0606C18.5936 14.9753 18.5416 14.8884 18.4823 14.8193C18.4363 14.766 18.3244 14.6495 18.1551 14.6494C18.0896 14.6494 18.027 14.6491 17.9755 14.6524C17.9235 14.6556 17.8572 14.6626 17.7899 14.6904C17.649 14.7488 17.5731 14.8737 17.5321 14.9317C17.4644 15.0274 17.4194 15.1075 17.3876 15.1943C17.3601 15.2696 17.3424 15.352 17.326 15.416C17.2791 15.5998 17.2814 15.7978 17.2909 15.9443C17.2916 15.9559 17.293 15.9673 17.2938 15.9785C17.246 15.9776 17.1934 15.9782 17.1385 15.9756C17.0193 15.97 16.8955 15.9613 16.7919 15.9541C16.6968 15.9475 16.6009 15.9405 16.5575 15.9404C16.472 15.9404 16.4006 15.9515 16.3417 15.9717C16.3127 15.9816 16.2861 15.9937 16.2626 16.0078C16.2573 16.011 16.2518 16.0156 16.2518 16.0156L16.2508 16.0166C16.2486 16.0179 16.2458 16.0189 16.243 16.0205C16.2309 16.0277 16.2141 16.0379 16.1962 16.0498C16.1656 16.0702 16.107 16.1115 16.0604 16.1651C15.9906 16.2453 15.9511 16.3237 15.9256 16.4111C15.8992 16.5021 15.8929 16.5988 15.9071 16.6924L16.162 18.3526L16.1903 18.4658C16.2282 18.5762 16.2947 18.6755 16.3846 18.752C16.5039 18.8533 16.6558 18.9083 16.8124 18.9072H19.3856ZM16.8094 18.3389C16.7891 18.3391 16.7684 18.3316 16.7528 18.3184C16.7451 18.3118 16.7391 18.3037 16.7342 18.2949L16.7245 18.2666L16.4696 16.6065C16.4678 16.5948 16.469 16.5824 16.4725 16.5703C16.4754 16.5603 16.4771 16.5561 16.4784 16.5537C16.4795 16.5516 16.4818 16.5475 16.4881 16.5401C16.4941 16.5353 16.5033 16.5289 16.5116 16.5234C16.5183 16.519 16.5247 16.515 16.5301 16.5117C16.536 16.5111 16.5449 16.5098 16.5575 16.5098C16.5751 16.5098 16.6406 16.5137 16.7528 16.5215C16.8561 16.5287 16.9858 16.538 17.1122 16.544C17.2365 16.5498 17.367 16.5529 17.4696 16.5479C17.518 16.5455 17.5776 16.5405 17.6307 16.5274C17.6553 16.5212 17.7006 16.5079 17.746 16.4785C17.7905 16.4497 17.8865 16.3688 17.8866 16.2246C17.8865 16.182 17.8793 16.1207 17.8749 16.0791C17.8693 16.0277 17.8633 15.9695 17.8592 15.9072C17.8509 15.7779 17.8535 15.6529 17.8778 15.5576C17.9025 15.4608 17.9082 15.4292 17.9227 15.3897C17.9331 15.3615 17.9493 15.3257 17.996 15.2598C18.0084 15.2422 18.0182 15.2295 18.0253 15.2197C18.0377 15.2193 18.0523 15.2189 18.0702 15.2188C18.0872 15.2433 18.1103 15.2782 18.1356 15.3262C18.2083 15.4641 18.2867 15.6567 18.3602 15.8604C18.4329 16.0616 18.498 16.2641 18.5448 16.417C18.568 16.4931 18.5866 16.5571 18.5995 16.6016C18.603 16.6137 18.6057 16.6241 18.6083 16.6328V18.3389H16.8094ZM19.1776 16.8779H19.3905C19.425 16.8773 19.4589 16.8896 19.4852 16.9121C19.5092 16.9327 19.525 16.9615 19.5311 16.9932V18.2236C19.525 18.2552 19.5093 18.284 19.4852 18.3047C19.4589 18.3272 19.425 18.3395 19.3905 18.3389H19.1776V16.8779Z" fill="white"/>
</svg>
