<svg width="24" height="24" viewBox="0 0 24 24" fill="none" xmlns="http://www.w3.org/2000/svg">
<path d="M12 1.20215C12.4896 1.20215 12.9706 1.33181 13.3955 1.57617C13.3975 1.57733 13.4003 1.57705 13.4023 1.57812L20.3965 5.57422C20.3978 5.57503 20.399 5.57637 20.4004 5.57715C20.7442 5.7757 21.0398 6.04731 21.2715 6.36914C21.2778 6.3779 21.2853 6.38593 21.293 6.39355C21.3441 6.44448 21.3882 6.49972 21.4229 6.55957C21.452 6.61002 21.4752 6.66419 21.4932 6.72168C21.4963 6.73173 21.5002 6.74154 21.5049 6.75098C21.6981 7.13792 21.7993 7.56531 21.7998 7.99902V16.001L21.7939 16.1846C21.7654 16.6115 21.6396 17.0276 21.4248 17.3994C21.1792 17.8242 20.8255 18.1773 20.4004 18.4229C20.3992 18.4235 20.3977 18.4241 20.3965 18.4248L13.4023 22.4209L13.3955 22.4238C13.1011 22.5931 12.7788 22.7066 12.4453 22.7607L12.3818 22.7822C12.2679 22.8443 12.1382 22.8799 12 22.8799C11.8612 22.8799 11.7309 22.8443 11.6172 22.7822L11.5537 22.7607L11.3057 22.709C11.1423 22.6673 10.9826 22.6115 10.8291 22.541L10.6035 22.4238L3.60254 18.4248L3.59961 18.4229L3.44434 18.3252C3.08843 18.0874 2.79016 17.7712 2.5752 17.3994C2.36036 17.0276 2.23455 16.6115 2.20605 16.1846L2.2002 16.001V8.00586L2.20703 7.80859L2.20605 7.80762C2.23169 7.43903 2.33007 7.07907 2.49512 6.74902C2.49977 6.73972 2.50368 6.72964 2.50684 6.71973C2.52382 6.66601 2.5478 6.61207 2.57812 6.55957C2.61375 6.49809 2.65775 6.44265 2.70703 6.39355C2.71455 6.38603 2.72131 6.37776 2.72754 6.36914C2.95907 6.04733 3.25545 5.77591 3.59961 5.57715C3.60072 5.57651 3.60144 5.57488 3.60254 5.57422L3.60352 5.5752L6.85254 3.71777C6.87127 3.70704 6.88799 3.69288 6.90234 3.67676C7.01866 3.54614 7.17429 3.46071 7.3418 3.42676C7.3626 3.42251 7.38293 3.41483 7.40137 3.4043L10.6035 1.5752L10.7656 1.48828C11.149 1.30003 11.5711 1.20215 12 1.20215ZM4.10059 8.36328C4.03873 8.3275 3.9623 8.3276 3.90039 8.36328C3.83847 8.399 3.7998 8.46465 3.7998 8.53613V15.999L3.80078 16.0127L3.80859 16.1426L3.81055 16.1562C3.83116 16.311 3.88211 16.4611 3.96094 16.5977C4.06546 16.7785 4.21572 16.9292 4.39551 17.0342L4.39648 17.0352L10.9004 20.751C10.9623 20.7863 11.0389 20.7858 11.1006 20.75C11.1621 20.7142 11.2002 20.6484 11.2002 20.5771V12.5859C11.2002 12.5147 11.1621 12.4489 11.1006 12.4131L4.10059 8.36328ZM20.0996 8.36426C20.0377 8.32858 19.9613 8.32847 19.8994 8.36426L12.8994 12.4141C12.8379 12.4499 12.7998 12.5157 12.7998 12.5869V20.5771C12.7998 20.6484 12.8379 20.7142 12.8994 20.75C12.9611 20.7858 13.0377 20.7863 13.0996 20.751L19.6035 17.0352L19.6045 17.0342C19.7843 16.9292 19.9345 16.7785 20.0391 16.5977C20.144 16.4159 20.1997 16.2095 20.2002 16V8.53711C20.2002 8.46562 20.1615 8.39997 20.0996 8.36426ZM7.64746 5.21973C7.5859 5.18425 7.50995 5.18352 7.44824 5.21875L4.9375 6.65234C4.8756 6.68781 4.83726 6.75386 4.83691 6.8252C4.83671 6.89662 4.87481 6.96311 4.93652 6.99902L11.8994 11.0273C11.9614 11.0632 12.0386 11.0632 12.1006 11.0273L14.6064 9.57715C14.668 9.54134 14.7061 9.47551 14.7061 9.4043C14.706 9.33286 14.6674 9.26713 14.6055 9.23145L7.64746 5.21973ZM12 2.80176C11.7934 2.80176 11.5902 2.85543 11.4102 2.95703L11.3965 2.96387L9.45996 4.06934C9.3979 4.1049 9.35953 4.17162 9.35938 4.24316C9.35937 4.31465 9.39801 4.3803 9.45996 4.41602L16.4062 8.4209C16.4682 8.45658 16.5446 8.45668 16.6064 8.4209L19.0625 7C19.1242 6.96409 19.1623 6.89759 19.1621 6.82617C19.1618 6.75484 19.1234 6.68879 19.0615 6.65332L12.6035 2.96387L12.5898 2.95703C12.41 2.8557 12.2064 2.80176 12 2.80176Z" fill="#1D1A24"/>
</svg>
