<svg width="24" height="24" viewBox="0 0 24 24" fill="none" xmlns="http://www.w3.org/2000/svg">
<path d="M6.67276 19.6263H8.58248C8.76037 19.6263 8.88956 19.6732 9.02065 19.8043L10.3799 21.1504C11.4902 22.27 12.5103 22.2607 13.6207 21.1504L14.9799 19.8043C15.111 19.6732 15.2402 19.6263 15.4275 19.6263H17.3279C18.8942 19.6263 19.6267 18.9014 19.6267 17.3182V15.4178C19.6267 15.238 19.6847 15.1088 19.8139 14.9684L21.1526 13.6204C22.2703 12.5082 22.261 11.4806 21.1526 10.3684L19.8139 9.02036C19.6847 8.87994 19.6267 8.75075 19.6267 8.57095V6.67057C19.6267 5.09673 18.9036 4.3624 17.3279 4.3624H15.4275C15.2402 4.3624 15.111 4.3156 14.9799 4.18451L13.6207 2.83837C12.5085 1.71683 11.4902 1.72426 10.378 2.83837L9.02065 4.18451C8.89146 4.3137 8.76037 4.3624 8.58248 4.3624H6.67276C5.09702 4.3624 4.37393 5.0874 4.37393 6.67057V8.57095C4.37393 8.75075 4.32522 8.87994 4.19603 9.02036L2.84799 10.3684C1.73026 11.4806 1.73958 12.5082 2.84799 13.6204L4.19603 14.9684C4.32522 15.1088 4.37393 15.238 4.37393 15.4178V17.3182C4.37393 18.892 5.09702 19.6263 6.67276 19.6263ZM6.67276 18.2206C5.89417 18.2206 5.77033 18.1061 5.77033 17.3182V14.9566C5.77033 14.6854 5.68432 14.4797 5.49918 14.2872L3.83182 12.6366C3.27966 12.0676 3.27966 11.9212 3.83182 11.3522L5.49918 9.70163C5.68432 9.50906 5.77033 9.30336 5.77033 9.03222V6.67057C5.77033 5.87142 5.88295 5.76813 6.67276 5.76813H9.04184C9.31299 5.76813 9.51868 5.69145 9.70386 5.48765L11.3618 3.8203C11.9214 3.27004 12.0792 3.27004 12.6387 3.8203L14.2968 5.48765C14.4912 5.69145 14.6969 5.76813 14.9588 5.76813H17.3279C18.1064 5.76813 18.2322 5.88266 18.2322 6.67057V9.03222C18.2322 9.30336 18.3182 9.50906 18.5108 9.70163L20.1707 11.3522C20.7302 11.9212 20.7302 12.0676 20.1707 12.6366L18.5108 14.2872C18.3182 14.4797 18.2322 14.6854 18.2322 14.9566V17.3182C18.2322 18.1061 18.1064 18.2206 17.3279 18.2206H14.9588C14.6969 18.2206 14.4912 18.2973 14.2968 18.5011L12.6387 20.1685C12.0792 20.7188 11.9214 20.7188 11.3618 20.1685L9.70386 18.5011C9.51868 18.2973 9.31299 18.2206 9.04184 18.2206H6.67276Z" fill="black" fill-opacity="0.85"/>
<path d="M8.12635 14.8721L11.6275 16.7906C11.8666 16.9232 12.1341 16.9235 12.3707 16.7906L15.8719 14.8721C16.3278 14.6235 16.5432 14.3511 16.5432 13.7231V10.0876C16.5432 9.59035 16.3553 9.26738 15.92 9.0275L12.886 7.3533C12.3118 7.03604 11.6894 7.03604 11.1153 7.3533L8.08127 9.0275C7.64292 9.26738 7.45804 9.59035 7.45804 10.0876V13.7231C7.45804 14.3511 7.67312 14.6235 8.12635 14.8721ZM8.72659 14.0387C8.50874 13.9149 8.4277 13.7836 8.4277 13.5661V10.5525L11.4931 12.2553V15.5848L8.72659 14.0387ZM15.2746 14.0387L12.5078 15.5848V12.2553L15.5736 10.5525V13.5661C15.5736 13.7836 15.4895 13.9149 15.2746 14.0387ZM11.9989 11.3666L8.98462 9.70071L9.99554 9.13214L13.0149 10.7998L11.9989 11.3666ZM14.05 10.2368L11.0299 8.5703L11.5499 8.27869C11.8533 8.10996 12.1457 8.10465 12.4483 8.27869L15.0163 9.70071L14.05 10.2368Z" fill="black" fill-opacity="0.85"/>
</svg>
