<svg width="24" height="24" viewBox="0 0 24 24" fill="none" xmlns="http://www.w3.org/2000/svg">
<path fill-rule="evenodd" clip-rule="evenodd" d="M11 3C11.3997 3 11.7928 3.10618 12.1396 3.30566L12.1445 3.30762L17.8545 6.56934L17.8574 6.57227C18.1381 6.73435 18.3793 6.95603 18.5684 7.21875C18.5735 7.22581 18.5798 7.23212 18.5859 7.23828C18.6277 7.27985 18.6641 7.32516 18.6924 7.37402C18.7161 7.41509 18.7353 7.45907 18.75 7.50586C18.7526 7.51403 18.755 7.5226 18.7588 7.53027C18.9165 7.8461 18.9996 8.19483 19 8.54883V11.9072C18.6769 11.8416 18.3424 11.8076 18 11.8076C17.8973 11.8076 17.7955 11.8113 17.6943 11.8174V8.98828C17.6943 8.92992 17.6629 8.87584 17.6123 8.84668C17.5618 8.81757 17.4987 8.81747 17.4482 8.84668L11.7344 12.1533C11.6842 12.1825 11.6534 12.2359 11.6533 12.2939V18.8174C11.6534 18.8754 11.6842 18.9288 11.7344 18.958C11.7847 18.9872 11.847 18.9878 11.8975 18.959L13.2012 18.2139C13.3259 18.6403 13.5054 19.0432 13.7324 19.4141L12.1445 20.3223L12.1396 20.3242C11.8993 20.4624 11.6356 20.5554 11.3633 20.5996L11.3115 20.6172C11.2186 20.6678 11.1128 20.6973 11 20.6973C10.8867 20.6973 10.7803 20.6679 10.6875 20.6172L10.6357 20.5996L10.4336 20.5576C10.3002 20.5236 10.1693 20.4774 10.0439 20.4199L9.86035 20.3242L4.14453 17.0596L4.14258 17.0586L4.01562 16.9785C3.72512 16.7844 3.48113 16.5261 3.30566 16.2227C3.13047 15.9193 3.02817 15.5797 3.00488 15.2314L3 15.0811V8.55469L3.00586 8.39355L3.00488 8.39258C3.02583 8.09175 3.1065 7.7977 3.24121 7.52832C3.24488 7.52092 3.24749 7.51275 3.25 7.50488C3.26386 7.46104 3.28385 7.41686 3.30859 7.37402C3.33767 7.32383 3.37383 7.27836 3.41406 7.23828C3.42009 7.23223 3.42566 7.22567 3.43066 7.21875C3.61967 6.95605 3.86163 6.73452 4.14258 6.57227L4.14453 6.56934L4.14551 6.57031L6.79785 5.05371C6.8131 5.04496 6.82718 5.03364 6.83887 5.02051C6.9338 4.91399 7.06061 4.84411 7.19727 4.81641C7.21425 4.81294 7.23105 4.80645 7.24609 4.79785L9.86035 3.30469L9.99219 3.23438C10.3051 3.0807 10.6499 3 11 3ZM4.55176 8.84668C4.50126 8.81747 4.43824 8.81755 4.3877 8.84668C4.33738 8.87585 4.30572 8.92914 4.30566 8.9873V15.0801L4.30664 15.0908L4.31348 15.1973L4.31445 15.208C4.33128 15.3343 4.37315 15.4569 4.4375 15.5684C4.52281 15.7159 4.64526 15.8391 4.79199 15.9248L4.79297 15.9258L10.1025 18.959C10.153 18.9878 10.2153 18.9872 10.2656 18.958C10.3158 18.9288 10.3466 18.8754 10.3467 18.8174V12.2939C10.3467 12.2358 10.3159 12.1816 10.2656 12.1523L4.55176 8.84668ZM7.44727 6.28027C7.39701 6.25131 7.33455 6.25054 7.28418 6.2793L5.23438 7.44922C5.18385 7.47817 5.15263 7.53259 5.15234 7.59082C5.1522 7.64895 5.18327 7.70306 5.2334 7.73242L10.918 11.0215C10.9685 11.0506 11.0316 11.0506 11.082 11.0215L13.1279 9.83691C13.178 9.80766 13.209 9.75427 13.209 9.69629C13.2089 9.63797 13.1775 9.58382 13.127 9.55469L7.44727 6.28027ZM11 4.30664C10.8314 4.30664 10.6655 4.34976 10.5186 4.43262L10.5068 4.43848L8.92676 5.34082C8.8761 5.36985 8.84485 5.425 8.84473 5.4834C8.84489 5.54158 8.87632 5.59494 8.92676 5.62402L14.5967 8.89355C14.6472 8.92268 14.7102 8.92277 14.7607 8.89355L16.7656 7.7334C16.8158 7.7041 16.8468 7.64994 16.8467 7.5918C16.8464 7.53357 16.8152 7.47915 16.7646 7.4502L11.4922 4.43848L11.4814 4.43262C11.3347 4.34998 11.1684 4.30664 11 4.30664Z" fill="#1D1A24"/>
<path fill-rule="evenodd" clip-rule="evenodd" d="M18 12.8076C20.2091 12.8076 22 14.5985 22 16.8076C22 19.0168 20.2091 20.8076 18 20.8076C15.7909 20.8076 14 19.0168 14 16.8076C14 14.5985 15.7909 12.8076 18 12.8076Z" fill="#1D1A24"/>
<path d="M17.2998 15.8076C17.4654 15.8076 17.5995 15.9418 17.5996 16.1074C17.5996 16.2731 17.4655 16.4072 17.2998 16.4072C17.1342 16.4071 17 16.273 17 16.1074C17.0001 15.9419 17.1343 15.8077 17.2998 15.8076Z" fill="white"/>
<path fill-rule="evenodd" clip-rule="evenodd" d="M18.2539 14.8086H18.2646L18.3135 14.8184H18.3184C18.3743 14.8339 18.4253 14.8649 18.4668 14.9062L20.0908 16.5293C20.2242 16.6636 20.2988 16.8461 20.2988 17.0352L20.2852 17.1748C20.258 17.3123 20.1911 17.4402 20.0908 17.541C20.0873 17.5445 20.0841 17.5475 20.082 17.5488L18.7354 18.8955C18.6689 18.962 18.5904 19.0148 18.5039 19.0508C18.4605 19.0688 18.4151 19.0827 18.3691 19.0918L18.2285 19.1055C18.1342 19.1055 18.0409 19.0867 17.9541 19.0508C17.8675 19.0148 17.7883 18.9622 17.7217 18.8955L16.0986 17.2744C16.0352 17.2108 16 17.1248 16 17.0352V15.1455C16.0003 14.9587 16.1511 14.8079 16.3379 14.8076H18.2354L18.2539 14.8086ZM16.6768 16.8926L18.2012 18.417C18.206 18.4218 18.2107 18.4245 18.2139 18.4258C18.2185 18.4276 18.2236 18.4287 18.2285 18.4287C18.2333 18.4287 18.2384 18.4277 18.2432 18.4258C18.248 18.4238 18.2533 18.4205 18.2568 18.417L19.6104 17.0625L19.6221 17.0352L19.6104 17.0078L18.0879 15.4844H16.6768V16.8926Z" fill="white"/>
</svg>
