<svg width="24" height="24" viewBox="0 0 24 24" fill="none" xmlns="http://www.w3.org/2000/svg">
<path fill-rule="evenodd" clip-rule="evenodd" d="M12 3.19238C12.3997 3.19238 12.7928 3.29856 13.1396 3.49805L13.1445 3.5L18.8545 6.76172L18.8574 6.76465C19.1381 6.92673 19.3793 7.14842 19.5684 7.41113C19.5735 7.4182 19.5798 7.42451 19.5859 7.43066C19.6277 7.47223 19.6641 7.51755 19.6924 7.56641C19.7161 7.60747 19.7353 7.65146 19.75 7.69824C19.7526 7.70641 19.755 7.71499 19.7588 7.72266C19.9165 8.03848 19.9996 8.38721 20 8.74121V12.0996C19.6769 12.034 19.3424 12 19 12C18.8973 12 18.7955 12.0037 18.6943 12.0098V9.18066C18.6943 9.12231 18.6629 9.06822 18.6123 9.03906C18.5618 9.00995 18.4987 9.00985 18.4482 9.03906L12.7344 12.3457C12.6842 12.3749 12.6534 12.4283 12.6533 12.4863V19.0098C12.6534 19.0678 12.6842 19.1212 12.7344 19.1504C12.7847 19.1796 12.847 19.1801 12.8975 19.1514L14.2012 18.4062C14.3259 18.8326 14.5054 19.2355 14.7324 19.6064L13.1445 20.5146L13.1396 20.5166C12.8993 20.6548 12.6356 20.7478 12.3633 20.792L12.3115 20.8096C12.2186 20.8602 12.1128 20.8896 12 20.8896C11.8867 20.8896 11.7803 20.8603 11.6875 20.8096L11.6357 20.792L11.4336 20.75C11.3002 20.716 11.1693 20.6698 11.0439 20.6123L10.8604 20.5166L5.14453 17.252L5.14258 17.251L5.01562 17.1709C4.72512 16.9767 4.48113 16.7185 4.30566 16.415C4.13047 16.1117 4.02817 15.7721 4.00488 15.4238L4 15.2734V8.74707L4.00586 8.58594L4.00488 8.58496C4.02583 8.28413 4.1065 7.99008 4.24121 7.7207C4.24488 7.71331 4.24749 7.70513 4.25 7.69727C4.26386 7.65343 4.28385 7.60925 4.30859 7.56641C4.33767 7.51622 4.37383 7.47074 4.41406 7.43066C4.42009 7.42461 4.42566 7.41805 4.43066 7.41113C4.61967 7.14843 4.86163 6.9269 5.14258 6.76465L5.14453 6.76172L5.14551 6.7627L7.79785 5.24609C7.8131 5.23734 7.82718 5.22602 7.83887 5.21289C7.9338 5.10637 8.06061 5.0365 8.19727 5.00879C8.21425 5.00533 8.23105 4.99883 8.24609 4.99023L10.8604 3.49707L10.9922 3.42676C11.3051 3.27308 11.6499 3.19238 12 3.19238ZM5.55176 9.03906C5.50126 9.00985 5.43824 9.00994 5.3877 9.03906C5.33738 9.06823 5.30572 9.12152 5.30566 9.17969V15.2725L5.30664 15.2832L5.31348 15.3896L5.31445 15.4004C5.33128 15.5267 5.37315 15.6493 5.4375 15.7607C5.52281 15.9083 5.64526 16.0315 5.79199 16.1172L5.79297 16.1182L11.1025 19.1514C11.153 19.1801 11.2153 19.1796 11.2656 19.1504C11.3158 19.1212 11.3466 19.0678 11.3467 19.0098V12.4863C11.3467 12.4282 11.3159 12.374 11.2656 12.3447L5.55176 9.03906ZM8.44727 6.47266C8.39701 6.4437 8.33455 6.44292 8.28418 6.47168L6.23438 7.6416C6.18385 7.67056 6.15263 7.72497 6.15234 7.7832C6.1522 7.84134 6.18327 7.89545 6.2334 7.9248L11.918 11.2139C11.9685 11.243 12.0316 11.243 12.082 11.2139L14.1279 10.0293C14.178 10 14.209 9.94666 14.209 9.88867C14.2089 9.83035 14.1775 9.7762 14.127 9.74707L8.44727 6.47266ZM12 4.49902C11.8314 4.49902 11.6655 4.54214 11.5186 4.625L11.5068 4.63086L9.92676 5.5332C9.8761 5.56223 9.84485 5.61738 9.84473 5.67578C9.84489 5.73396 9.87632 5.78733 9.92676 5.81641L15.5967 9.08594C15.6472 9.11506 15.7102 9.11515 15.7607 9.08594L17.7656 7.92578C17.8158 7.89649 17.8468 7.84232 17.8467 7.78418C17.8464 7.72595 17.8152 7.67153 17.7646 7.64258L12.4922 4.63086L12.4814 4.625C12.3347 4.54236 12.1684 4.49902 12 4.49902Z" fill="#1D1A24"/>
<path d="M22.9944 16.8896C22.9944 19.0988 21.2035 20.8896 18.9944 20.8896C16.7852 20.8896 14.9944 19.0988 14.9944 16.8896C14.9944 14.6805 16.7852 12.8896 18.9944 12.8896C21.2035 12.8896 22.9944 14.6805 22.9944 16.8896Z" fill="#1D1A24"/>
<path d="M20.7346 15.2156C20.8872 15.115 21.0944 15.1321 21.2288 15.2663C21.3824 15.42 21.3823 15.6693 21.2288 15.823L18.5383 18.5134C18.4647 18.5867 18.365 18.6285 18.261 18.6286C18.1567 18.6286 18.0563 18.5869 17.9827 18.5134L16.76 17.2898C16.6063 17.1361 16.6063 16.8868 16.76 16.7331C16.9135 16.5802 17.1621 16.5801 17.3157 16.7331L18.26 17.6775L20.6731 15.2663L20.7346 15.2156Z" fill="white"/>
</svg>
