<svg width="24" height="24" viewBox="0 0 24 24" fill="none" xmlns="http://www.w3.org/2000/svg">
<path fill-rule="evenodd" clip-rule="evenodd" d="M12 3.19238C12.3997 3.19238 12.7928 3.29856 13.1396 3.49805L13.1445 3.5L18.8545 6.76172L18.8574 6.76465C19.1381 6.92673 19.3793 7.14842 19.5684 7.41113C19.5735 7.4182 19.5798 7.42451 19.5859 7.43066C19.6277 7.47223 19.6641 7.51755 19.6924 7.56641C19.7161 7.60747 19.7353 7.65146 19.75 7.69824C19.7526 7.70641 19.755 7.71499 19.7588 7.72266C19.9165 8.03848 19.9996 8.38721 20 8.74121V12.0996C19.6769 12.034 19.3424 12 19 12C18.8973 12 18.7955 12.0037 18.6943 12.0098V9.18066C18.6943 9.12231 18.6629 9.06822 18.6123 9.03906C18.5618 9.00995 18.4987 9.00985 18.4482 9.03906L12.7344 12.3457C12.6842 12.3749 12.6534 12.4283 12.6533 12.4863V19.0098C12.6534 19.0678 12.6842 19.1212 12.7344 19.1504C12.7847 19.1796 12.847 19.1801 12.8975 19.1514L14.2012 18.4062C14.3259 18.8326 14.5054 19.2355 14.7324 19.6064L13.1445 20.5146L13.1396 20.5166C12.8993 20.6548 12.6356 20.7478 12.3633 20.792L12.3115 20.8096C12.2186 20.8602 12.1128 20.8896 12 20.8896C11.8867 20.8896 11.7803 20.8603 11.6875 20.8096L11.6357 20.792L11.4336 20.75C11.3002 20.716 11.1693 20.6698 11.0439 20.6123L10.8604 20.5166L5.14453 17.252L5.14258 17.251L5.01562 17.1709C4.72512 16.9767 4.48113 16.7185 4.30566 16.415C4.13047 16.1117 4.02817 15.7721 4.00488 15.4238L4 15.2734V8.74707L4.00586 8.58594L4.00488 8.58496C4.02583 8.28413 4.1065 7.99008 4.24121 7.7207C4.24488 7.71331 4.24749 7.70513 4.25 7.69727C4.26386 7.65343 4.28385 7.60925 4.30859 7.56641C4.33767 7.51622 4.37383 7.47074 4.41406 7.43066C4.42009 7.42461 4.42566 7.41805 4.43066 7.41113C4.61967 7.14843 4.86163 6.9269 5.14258 6.76465L5.14453 6.76172L5.14551 6.7627L7.79785 5.24609C7.8131 5.23734 7.82718 5.22602 7.83887 5.21289C7.9338 5.10637 8.06061 5.0365 8.19727 5.00879C8.21425 5.00533 8.23105 4.99883 8.24609 4.99023L10.8604 3.49707L10.9922 3.42676C11.3051 3.27308 11.6499 3.19238 12 3.19238ZM5.55176 9.03906C5.50126 9.00985 5.43824 9.00994 5.3877 9.03906C5.33738 9.06823 5.30572 9.12152 5.30566 9.17969V15.2725L5.30664 15.2832L5.31348 15.3896L5.31445 15.4004C5.33128 15.5267 5.37315 15.6493 5.4375 15.7607C5.52281 15.9083 5.64526 16.0315 5.79199 16.1172L5.79297 16.1182L11.1025 19.1514C11.153 19.1801 11.2153 19.1796 11.2656 19.1504C11.3158 19.1212 11.3466 19.0678 11.3467 19.0098V12.4863C11.3467 12.4282 11.3159 12.374 11.2656 12.3447L5.55176 9.03906ZM8.44727 6.47266C8.39701 6.4437 8.33455 6.44292 8.28418 6.47168L6.23438 7.6416C6.18385 7.67056 6.15263 7.72497 6.15234 7.7832C6.1522 7.84134 6.18327 7.89545 6.2334 7.9248L11.918 11.2139C11.9685 11.243 12.0316 11.243 12.082 11.2139L14.1279 10.0293C14.178 10 14.209 9.94666 14.209 9.88867C14.2089 9.83035 14.1775 9.7762 14.127 9.74707L8.44727 6.47266ZM12 4.49902C11.8314 4.49902 11.6655 4.54214 11.5186 4.625L11.5068 4.63086L9.92676 5.5332C9.8761 5.56223 9.84485 5.61738 9.84473 5.67578C9.84489 5.73396 9.87632 5.78733 9.92676 5.81641L15.5967 9.08594C15.6472 9.11506 15.7102 9.11515 15.7607 9.08594L17.7656 7.92578C17.8158 7.89649 17.8468 7.84232 17.8467 7.78418C17.8464 7.72595 17.8152 7.67153 17.7646 7.64258L12.4922 4.63086L12.4814 4.625C12.3347 4.54236 12.1684 4.49902 12 4.49902Z" fill="#1D1A24"/>
<path d="M22.8569 16.8896C22.8569 19.0988 21.0661 20.8896 18.8569 20.8896C16.6478 20.8896 14.8569 19.0988 14.8569 16.8896C14.8569 14.6805 16.6478 12.8896 18.8569 12.8896C21.0661 12.8896 22.8569 14.6805 22.8569 16.8896Z" fill="#1D1A24"/>
<path d="M19.5122 16.168H19.5591C19.5739 16.1697 19.589 16.1733 19.604 16.1777L19.6479 16.1963L19.6548 16.1992L19.6743 16.2119L19.6812 16.2158C19.7223 16.2462 19.7539 16.2891 19.771 16.3379L19.9331 16.7979C19.9639 16.8851 20.0141 16.9646 20.0806 17.0303C20.1389 17.0878 20.21 17.1339 20.2866 17.165L20.3179 17.1777L20.7847 17.3369L20.8384 17.3623L20.8843 17.3994L20.8892 17.4043L20.9048 17.4229L20.9106 17.4287L20.9097 17.4297C20.9352 17.465 20.9512 17.5055 20.9565 17.5469L20.9575 17.5596L20.9565 17.6113C20.9512 17.6527 20.9351 17.6934 20.9097 17.7285C20.8783 17.7718 20.8344 17.8043 20.7847 17.8213L20.3188 17.9805C20.2292 18.0112 20.1473 18.0612 20.0806 18.127C20.0139 18.1927 19.9639 18.2729 19.9331 18.3604L19.771 18.8193C19.7532 18.8703 19.7197 18.9138 19.6763 18.9443C19.6408 18.9692 19.6005 18.9843 19.5591 18.9893L19.5474 18.9912L19.4985 18.9902C19.4571 18.9854 19.4162 18.9695 19.3804 18.9443C19.3371 18.9138 19.3034 18.8702 19.2856 18.8193C19.285 18.8174 19.2842 18.8154 19.2837 18.8135L19.1245 18.3604L19.1118 18.3281L19.0542 18.2207C19.0315 18.1872 19.0052 18.1557 18.9761 18.127C18.9261 18.0777 18.8679 18.037 18.8042 18.0068L18.7388 17.9805L18.272 17.8213L18.2681 17.8184C18.2203 17.8011 18.1775 17.7706 18.147 17.7285C18.1215 17.6932 18.1064 17.6527 18.1011 17.6113L18.0991 17.5986L18.1001 17.5469C18.1037 17.519 18.1127 17.49 18.1265 17.4629L18.1304 17.4561L18.1431 17.4355L18.1519 17.4229L18.1675 17.4043L18.1724 17.3984L18.1733 17.3994C18.2013 17.3713 18.2353 17.3497 18.2729 17.3369L18.7388 17.1777L18.8042 17.1504C18.8679 17.1202 18.9261 17.0796 18.9761 17.0303C19.0427 16.9645 19.0938 16.8852 19.1245 16.7979L19.2866 16.3379C19.3004 16.2988 19.3235 16.2641 19.353 16.2363L19.3589 16.2305L19.3784 16.2148L19.3921 16.2061L19.4136 16.1943L19.4204 16.1904C19.4458 16.1787 19.4727 16.1711 19.4995 16.168H19.5122ZM17.8765 14.79L17.9224 14.7988C17.9377 14.8031 17.9533 14.8086 17.9683 14.8164L17.9751 14.8203L17.9946 14.833L18.0005 14.8369L18.0542 14.8896C18.0691 14.9097 18.0809 14.9321 18.0894 14.9561L18.2065 15.2881C18.2253 15.341 18.2558 15.3896 18.2964 15.4297C18.3372 15.4699 18.3879 15.5007 18.4429 15.5195L18.7788 15.6348C18.797 15.6411 18.8143 15.6499 18.8306 15.6602L18.8755 15.6963L18.8813 15.7021L18.9009 15.7256C18.9265 15.7614 18.9412 15.8033 18.9458 15.8447L18.9478 15.8555L18.9468 15.8984C18.9423 15.94 18.9271 15.9821 18.9009 16.0186C18.8857 16.0396 18.8676 16.058 18.8472 16.0732L18.7788 16.1094L18.4429 16.2246C18.3878 16.2435 18.3372 16.2742 18.2964 16.3145C18.2556 16.3547 18.2253 16.4038 18.2065 16.457L18.0894 16.7881C18.0806 16.8127 18.0679 16.8359 18.0522 16.8564L17.9966 16.9102C17.9599 16.9358 17.9181 16.95 17.8765 16.9541L17.8667 16.9551L17.8276 16.9541C17.7861 16.95 17.7442 16.9358 17.7075 16.9102C17.6651 16.8805 17.6324 16.8383 17.6147 16.7891L17.4976 16.457C17.4788 16.4038 17.4485 16.3547 17.4077 16.3145C17.3668 16.2742 17.3163 16.2434 17.2612 16.2246L16.9253 16.1094C16.8768 16.0926 16.8329 16.0612 16.8022 16.0186C16.7761 15.9821 16.7618 15.94 16.7573 15.8984L16.7563 15.8877L16.7573 15.8447L16.7661 15.8018C16.7701 15.7877 16.7757 15.7737 16.7827 15.7598L16.7856 15.752L16.7983 15.7324C16.801 15.7281 16.8039 15.7236 16.8071 15.7197L16.8228 15.7021L16.8276 15.6963L16.8726 15.6602C16.8889 15.6499 16.9061 15.6411 16.9243 15.6348L17.2612 15.5195C17.3163 15.5007 17.3668 15.4699 17.4077 15.4297C17.4482 15.3897 17.4788 15.3411 17.4976 15.2881L17.6147 14.9561C17.6281 14.9183 17.6501 14.8838 17.6792 14.8564L17.6851 14.8516L17.7046 14.8369L17.7173 14.8271L17.7388 14.8154L17.7456 14.8115C17.773 14.7988 17.8015 14.7926 17.8276 14.79H17.8765Z" fill="white"/>
</svg>
