<svg width="24" height="24" viewBox="0 0 24 24" fill="none" xmlns="http://www.w3.org/2000/svg">
<path d="M9.12569 9.12569C9.43992 8.80221 9.43068 8.28465 9.12569 7.97966L6.06654 4.92975C5.76155 4.62476 5.24399 4.62476 4.92975 4.92975C4.62476 5.23475 4.62476 5.76155 4.92975 6.06654L7.97966 9.12569C8.28465 9.43068 8.80221 9.43992 9.12569 9.12569Z" fill="#1D1A24"/>
<path d="M7.93345 12C7.93345 11.5564 7.55452 11.196 7.12014 11.196H2.80406C2.36969 11.196 2 11.5564 2 12C2 12.4344 2.36969 12.804 2.80406 12.804H7.12014C7.55452 12.804 7.93345 12.4528 7.93345 12Z" fill="#1D1A24"/>
<path d="M9.12569 14.8743C8.80221 14.5601 8.28465 14.5693 7.97966 14.8743L4.92975 17.9334C4.62476 18.2384 4.62476 18.756 4.92975 19.0702C5.24399 19.3752 5.76155 19.3845 6.06654 19.0702L9.12569 16.0203C9.43068 15.7153 9.43992 15.1978 9.12569 14.8743Z" fill="#1D1A24"/>
<path d="M12 16.0758C11.5656 16.0758 11.196 16.4455 11.196 16.8798V21.1959C11.196 21.6303 11.5564 22 12 22C12.4344 22 12.804 21.6303 12.804 21.1959V16.8798C12.804 16.4455 12.4436 16.0758 12 16.0758Z" fill="#1D1A24"/>
<path d="M14.8743 14.8743C14.5601 15.1978 14.5693 15.7153 14.8743 16.0203L17.9334 19.0702C18.2384 19.3845 18.7652 19.3752 19.0702 19.0702C19.3845 18.756 19.3752 18.2384 19.0702 17.9334L16.0203 14.8743C15.7153 14.5693 15.1978 14.5601 14.8743 14.8743Z" fill="#1D1A24"/>
<path d="M16.0665 12C16.0665 12.4528 16.4455 12.804 16.8891 12.804H21.1959C21.6303 12.804 22 12.4344 22 12C22 11.5564 21.6303 11.196 21.1959 11.196H16.8891C16.4455 11.196 16.0665 11.5564 16.0665 12Z" fill="#1D1A24"/>
<path d="M14.8743 9.12569C15.1978 9.43992 15.7153 9.43068 16.0203 9.12569L19.0702 6.06654C19.3845 5.76155 19.3752 5.23475 19.0702 4.92975C18.756 4.62476 18.2384 4.62476 17.9334 4.92975L14.8743 7.97966C14.5693 8.28465 14.5601 8.80221 14.8743 9.12569Z" fill="#1D1A24"/>
<path d="M12 7.92421C12.4436 7.92421 12.804 7.55452 12.804 7.12014V2.80406C12.804 2.36969 12.4344 2 12 2C11.5564 2 11.196 2.36969 11.196 2.80406V7.12014C11.196 7.55452 11.5656 7.92421 12 7.92421Z" fill="#1D1A24"/>
</svg>
