<svg width="24" height="24" viewBox="0 0 24 24" fill="none" xmlns="http://www.w3.org/2000/svg">
<path d="M7 12.9993C7.55219 12.9993 7.99984 13.4472 8 13.9993C8 14.5516 7.55228 14.9993 7 14.9993H3.52441L6.3252 17.6311L6.34766 17.6526C7.30289 18.6083 8.48424 19.3074 9.78223 19.6829C11.0804 20.0584 12.4535 20.0983 13.7715 19.8001C15.0893 19.5018 16.3104 18.8745 17.3203 17.9769C18.3302 17.0792 19.0961 15.9401 19.5469 14.6663C19.7311 14.1458 20.3027 13.873 20.8232 14.0569C21.3438 14.2412 21.6168 14.8127 21.4326 15.3333C20.8691 16.9257 19.911 18.3498 18.6484 19.472C17.3859 20.594 15.8593 21.3785 14.2119 21.7513C12.5645 22.1239 10.8491 22.0731 9.22656 21.6038C7.61394 21.1373 6.14528 20.2716 4.95508 19.0882L2 16.3108V19.9993C2 20.5516 1.55228 20.9993 1 20.9993C0.447715 20.9993 0 20.5516 0 19.9993V13.9993C3.31772e-06 13.9875 0.000569774 13.9758 0.000976562 13.9642C0.00153596 13.9482 0.00258568 13.9322 0.00390625 13.9163C0.00520437 13.9006 0.00677084 13.8849 0.00878906 13.8694C0.0111321 13.8514 0.0142565 13.8336 0.0175781 13.8157C0.020451 13.8003 0.0237696 13.785 0.0273438 13.7698C0.0306465 13.7558 0.0341664 13.7418 0.0380859 13.7278C0.0437548 13.7077 0.0497674 13.6878 0.0566406 13.6683C0.0600751 13.6585 0.0636325 13.6487 0.0673828 13.639C0.074671 13.6201 0.0824443 13.6016 0.0908203 13.5833C0.0977072 13.5682 0.104628 13.5531 0.112305 13.5384C0.118297 13.5269 0.124437 13.5154 0.130859 13.5042C0.140532 13.4872 0.151359 13.4709 0.162109 13.4544C0.16507 13.4498 0.167866 13.4452 0.170898 13.4407L0.205078 13.3929C0.209146 13.3875 0.213583 13.3825 0.217773 13.3772C0.229008 13.3631 0.240964 13.3497 0.25293 13.3362C0.259195 13.3292 0.264984 13.3217 0.271484 13.3147C0.274293 13.3118 0.277437 13.3089 0.280273 13.306C0.294666 13.291 0.309905 13.277 0.325195 13.263C0.335261 13.2537 0.345117 13.2444 0.355469 13.2356C0.368907 13.2243 0.382453 13.2131 0.396484 13.2024C0.407615 13.194 0.418286 13.185 0.429688 13.177C0.44791 13.1644 0.467251 13.1533 0.486328 13.1419C0.495354 13.1365 0.504512 13.1314 0.513672 13.1263C0.535632 13.114 0.558115 13.1027 0.581055 13.0921C0.586734 13.0895 0.591937 13.0858 0.597656 13.0833C0.650682 13.06 0.706304 13.0415 0.763672 13.0276C0.769507 13.0262 0.775395 13.025 0.78125 13.0237C0.802779 13.0189 0.824652 13.0154 0.84668 13.012C0.858703 13.0101 0.870738 13.0085 0.882812 13.0071C0.900273 13.0051 0.917824 13.0034 0.935547 13.0022C0.950514 13.0013 0.965475 13.0006 0.980469 13.0003C0.986967 13.0002 0.993472 12.9993 1 12.9993H7Z" fill="#1D1A24"/>
<path d="M7 12.9993C7.55219 12.9993 7.99984 13.4472 8 13.9993C8 14.5516 7.55228 14.9993 7 14.9993H3.52441L6.3252 17.6311L6.34766 17.6526C7.30289 18.6083 8.48424 19.3074 9.78223 19.6829C11.0804 20.0584 12.4535 20.0983 13.7715 19.8001C15.0893 19.5018 16.3104 18.8745 17.3203 17.9769C18.3302 17.0792 19.0961 15.9401 19.5469 14.6663C19.7311 14.1458 20.3027 13.873 20.8232 14.0569C21.3438 14.2412 21.6168 14.8127 21.4326 15.3333C20.8691 16.9257 19.911 18.3498 18.6484 19.472C17.3859 20.594 15.8593 21.3785 14.2119 21.7513C12.5645 22.1239 10.8491 22.0731 9.22656 21.6038C7.61394 21.1373 6.14528 20.2716 4.95508 19.0882L2 16.3108V19.9993C2 20.5516 1.55228 20.9993 1 20.9993C0.447715 20.9993 0 20.5516 0 19.9993V13.9993C3.31772e-06 13.9875 0.000569774 13.9758 0.000976562 13.9642C0.00153596 13.9482 0.00258568 13.9322 0.00390625 13.9163C0.00520437 13.9006 0.00677084 13.8849 0.00878906 13.8694C0.0111321 13.8514 0.0142565 13.8336 0.0175781 13.8157C0.020451 13.8003 0.0237696 13.785 0.0273438 13.7698C0.0306465 13.7558 0.0341664 13.7418 0.0380859 13.7278C0.0437548 13.7077 0.0497674 13.6878 0.0566406 13.6683C0.0600751 13.6585 0.0636325 13.6487 0.0673828 13.639C0.074671 13.6201 0.0824443 13.6016 0.0908203 13.5833C0.0977072 13.5682 0.104628 13.5531 0.112305 13.5384C0.118297 13.5269 0.124437 13.5154 0.130859 13.5042C0.140532 13.4872 0.151359 13.4709 0.162109 13.4544C0.16507 13.4498 0.167866 13.4452 0.170898 13.4407L0.205078 13.3929C0.209146 13.3875 0.213583 13.3825 0.217773 13.3772C0.229008 13.3631 0.240964 13.3497 0.25293 13.3362C0.259195 13.3292 0.264984 13.3217 0.271484 13.3147C0.274293 13.3118 0.277437 13.3089 0.280273 13.306C0.294666 13.291 0.309905 13.277 0.325195 13.263C0.335261 13.2537 0.345117 13.2444 0.355469 13.2356C0.368907 13.2243 0.382453 13.2131 0.396484 13.2024C0.407615 13.194 0.418286 13.185 0.429688 13.177C0.44791 13.1644 0.467251 13.1533 0.486328 13.1419C0.495354 13.1365 0.504512 13.1314 0.513672 13.1263C0.535632 13.114 0.558115 13.1027 0.581055 13.0921C0.586734 13.0895 0.591937 13.0858 0.597656 13.0833C0.650682 13.06 0.706304 13.0415 0.763672 13.0276C0.769507 13.0262 0.775395 13.025 0.78125 13.0237C0.802779 13.0189 0.824652 13.0154 0.84668 13.012C0.858703 13.0101 0.870738 13.0085 0.882812 13.0071C0.900273 13.0051 0.917824 13.0034 0.935547 13.0022C0.950514 13.0013 0.965475 13.0006 0.980469 13.0003C0.986967 13.0002 0.993472 12.9993 1 12.9993H7Z" fill="black" fill-opacity="0.2"/>
<path d="M7 12.9993C7.55219 12.9993 7.99984 13.4472 8 13.9993C8 14.5516 7.55228 14.9993 7 14.9993H3.52441L6.3252 17.6311L6.34766 17.6526C7.30289 18.6083 8.48424 19.3074 9.78223 19.6829C11.0804 20.0584 12.4535 20.0983 13.7715 19.8001C15.0893 19.5018 16.3104 18.8745 17.3203 17.9769C18.3302 17.0792 19.0961 15.9401 19.5469 14.6663C19.7311 14.1458 20.3027 13.873 20.8232 14.0569C21.3438 14.2412 21.6168 14.8127 21.4326 15.3333C20.8691 16.9257 19.911 18.3498 18.6484 19.472C17.3859 20.594 15.8593 21.3785 14.2119 21.7513C12.5645 22.1239 10.8491 22.0731 9.22656 21.6038C7.61394 21.1373 6.14528 20.2716 4.95508 19.0882L2 16.3108V19.9993C2 20.5516 1.55228 20.9993 1 20.9993C0.447715 20.9993 0 20.5516 0 19.9993V13.9993C3.31772e-06 13.9875 0.000569774 13.9758 0.000976562 13.9642C0.00153596 13.9482 0.00258568 13.9322 0.00390625 13.9163C0.00520437 13.9006 0.00677084 13.8849 0.00878906 13.8694C0.0111321 13.8514 0.0142565 13.8336 0.0175781 13.8157C0.020451 13.8003 0.0237696 13.785 0.0273438 13.7698C0.0306465 13.7558 0.0341664 13.7418 0.0380859 13.7278C0.0437548 13.7077 0.0497674 13.6878 0.0566406 13.6683C0.0600751 13.6585 0.0636325 13.6487 0.0673828 13.639C0.074671 13.6201 0.0824443 13.6016 0.0908203 13.5833C0.0977072 13.5682 0.104628 13.5531 0.112305 13.5384C0.118297 13.5269 0.124437 13.5154 0.130859 13.5042C0.140532 13.4872 0.151359 13.4709 0.162109 13.4544C0.16507 13.4498 0.167866 13.4452 0.170898 13.4407L0.205078 13.3929C0.209146 13.3875 0.213583 13.3825 0.217773 13.3772C0.229008 13.3631 0.240964 13.3497 0.25293 13.3362C0.259195 13.3292 0.264984 13.3217 0.271484 13.3147C0.274293 13.3118 0.277437 13.3089 0.280273 13.306C0.294666 13.291 0.309905 13.277 0.325195 13.263C0.335261 13.2537 0.345117 13.2444 0.355469 13.2356C0.368907 13.2243 0.382453 13.2131 0.396484 13.2024C0.407615 13.194 0.418286 13.185 0.429688 13.177C0.44791 13.1644 0.467251 13.1533 0.486328 13.1419C0.495354 13.1365 0.504512 13.1314 0.513672 13.1263C0.535632 13.114 0.558115 13.1027 0.581055 13.0921C0.586734 13.0895 0.591937 13.0858 0.597656 13.0833C0.650682 13.06 0.706304 13.0415 0.763672 13.0276C0.769507 13.0262 0.775395 13.025 0.78125 13.0237C0.802779 13.0189 0.824652 13.0154 0.84668 13.012C0.858703 13.0101 0.870738 13.0085 0.882812 13.0071C0.900273 13.0051 0.917824 13.0034 0.935547 13.0022C0.950514 13.0013 0.965475 13.0006 0.980469 13.0003C0.986967 13.0002 0.993472 12.9993 1 12.9993H7Z" fill="black" fill-opacity="0.2"/>
<path d="M7 12.9993C7.55219 12.9993 7.99984 13.4472 8 13.9993C8 14.5516 7.55228 14.9993 7 14.9993H3.52441L6.3252 17.6311L6.34766 17.6526C7.30289 18.6083 8.48424 19.3074 9.78223 19.6829C11.0804 20.0584 12.4535 20.0983 13.7715 19.8001C15.0893 19.5018 16.3104 18.8745 17.3203 17.9769C18.3302 17.0792 19.0961 15.9401 19.5469 14.6663C19.7311 14.1458 20.3027 13.873 20.8232 14.0569C21.3438 14.2412 21.6168 14.8127 21.4326 15.3333C20.8691 16.9257 19.911 18.3498 18.6484 19.472C17.3859 20.594 15.8593 21.3785 14.2119 21.7513C12.5645 22.1239 10.8491 22.0731 9.22656 21.6038C7.61394 21.1373 6.14528 20.2716 4.95508 19.0882L2 16.3108V19.9993C2 20.5516 1.55228 20.9993 1 20.9993C0.447715 20.9993 0 20.5516 0 19.9993V13.9993C3.31772e-06 13.9875 0.000569774 13.9758 0.000976562 13.9642C0.00153596 13.9482 0.00258568 13.9322 0.00390625 13.9163C0.00520437 13.9006 0.00677084 13.8849 0.00878906 13.8694C0.0111321 13.8514 0.0142565 13.8336 0.0175781 13.8157C0.020451 13.8003 0.0237696 13.785 0.0273438 13.7698C0.0306465 13.7558 0.0341664 13.7418 0.0380859 13.7278C0.0437548 13.7077 0.0497674 13.6878 0.0566406 13.6683C0.0600751 13.6585 0.0636325 13.6487 0.0673828 13.639C0.074671 13.6201 0.0824443 13.6016 0.0908203 13.5833C0.0977072 13.5682 0.104628 13.5531 0.112305 13.5384C0.118297 13.5269 0.124437 13.5154 0.130859 13.5042C0.140532 13.4872 0.151359 13.4709 0.162109 13.4544C0.16507 13.4498 0.167866 13.4452 0.170898 13.4407L0.205078 13.3929C0.209146 13.3875 0.213583 13.3825 0.217773 13.3772C0.229008 13.3631 0.240964 13.3497 0.25293 13.3362C0.259195 13.3292 0.264984 13.3217 0.271484 13.3147C0.274293 13.3118 0.277437 13.3089 0.280273 13.306C0.294666 13.291 0.309905 13.277 0.325195 13.263C0.335261 13.2537 0.345117 13.2444 0.355469 13.2356C0.368907 13.2243 0.382453 13.2131 0.396484 13.2024C0.407615 13.194 0.418286 13.185 0.429688 13.177C0.44791 13.1644 0.467251 13.1533 0.486328 13.1419C0.495354 13.1365 0.504512 13.1314 0.513672 13.1263C0.535632 13.114 0.558115 13.1027 0.581055 13.0921C0.586734 13.0895 0.591937 13.0858 0.597656 13.0833C0.650682 13.06 0.706304 13.0415 0.763672 13.0276C0.769507 13.0262 0.775395 13.025 0.78125 13.0237C0.802779 13.0189 0.824652 13.0154 0.84668 13.012C0.858703 13.0101 0.870738 13.0085 0.882812 13.0071C0.900273 13.0051 0.917824 13.0034 0.935547 13.0022C0.950514 13.0013 0.965475 13.0006 0.980469 13.0003C0.986967 13.0002 0.993472 12.9993 1 12.9993H7Z" fill="black" fill-opacity="0.2"/>
<path d="M7 12.9993C7.55219 12.9993 7.99984 13.4472 8 13.9993C8 14.5516 7.55228 14.9993 7 14.9993H3.52441L6.3252 17.6311L6.34766 17.6526C7.30289 18.6083 8.48424 19.3074 9.78223 19.6829C11.0804 20.0584 12.4535 20.0983 13.7715 19.8001C15.0893 19.5018 16.3104 18.8745 17.3203 17.9769C18.3302 17.0792 19.0961 15.9401 19.5469 14.6663C19.7311 14.1458 20.3027 13.873 20.8232 14.0569C21.3438 14.2412 21.6168 14.8127 21.4326 15.3333C20.8691 16.9257 19.911 18.3498 18.6484 19.472C17.3859 20.594 15.8593 21.3785 14.2119 21.7513C12.5645 22.1239 10.8491 22.0731 9.22656 21.6038C7.61394 21.1373 6.14528 20.2716 4.95508 19.0882L2 16.3108V19.9993C2 20.5516 1.55228 20.9993 1 20.9993C0.447715 20.9993 0 20.5516 0 19.9993V13.9993C3.31772e-06 13.9875 0.000569774 13.9758 0.000976562 13.9642C0.00153596 13.9482 0.00258568 13.9322 0.00390625 13.9163C0.00520437 13.9006 0.00677084 13.8849 0.00878906 13.8694C0.0111321 13.8514 0.0142565 13.8336 0.0175781 13.8157C0.020451 13.8003 0.0237696 13.785 0.0273438 13.7698C0.0306465 13.7558 0.0341664 13.7418 0.0380859 13.7278C0.0437548 13.7077 0.0497674 13.6878 0.0566406 13.6683C0.0600751 13.6585 0.0636325 13.6487 0.0673828 13.639C0.074671 13.6201 0.0824443 13.6016 0.0908203 13.5833C0.0977072 13.5682 0.104628 13.5531 0.112305 13.5384C0.118297 13.5269 0.124437 13.5154 0.130859 13.5042C0.140532 13.4872 0.151359 13.4709 0.162109 13.4544C0.16507 13.4498 0.167866 13.4452 0.170898 13.4407L0.205078 13.3929C0.209146 13.3875 0.213583 13.3825 0.217773 13.3772C0.229008 13.3631 0.240964 13.3497 0.25293 13.3362C0.259195 13.3292 0.264984 13.3217 0.271484 13.3147C0.274293 13.3118 0.277437 13.3089 0.280273 13.306C0.294666 13.291 0.309905 13.277 0.325195 13.263C0.335261 13.2537 0.345117 13.2444 0.355469 13.2356C0.368907 13.2243 0.382453 13.2131 0.396484 13.2024C0.407615 13.194 0.418286 13.185 0.429688 13.177C0.44791 13.1644 0.467251 13.1533 0.486328 13.1419C0.495354 13.1365 0.504512 13.1314 0.513672 13.1263C0.535632 13.114 0.558115 13.1027 0.581055 13.0921C0.586734 13.0895 0.591937 13.0858 0.597656 13.0833C0.650682 13.06 0.706304 13.0415 0.763672 13.0276C0.769507 13.0262 0.775395 13.025 0.78125 13.0237C0.802779 13.0189 0.824652 13.0154 0.84668 13.012C0.858703 13.0101 0.870738 13.0085 0.882812 13.0071C0.900273 13.0051 0.917824 13.0034 0.935547 13.0022C0.950514 13.0013 0.965475 13.0006 0.980469 13.0003C0.986967 13.0002 0.993472 12.9993 1 12.9993H7Z" fill="black" fill-opacity="0.2"/>
<path d="M7 12.9993C7.55219 12.9993 7.99984 13.4472 8 13.9993C8 14.5516 7.55228 14.9993 7 14.9993H3.52441L6.3252 17.6311L6.34766 17.6526C7.30289 18.6083 8.48424 19.3074 9.78223 19.6829C11.0804 20.0584 12.4535 20.0983 13.7715 19.8001C15.0893 19.5018 16.3104 18.8745 17.3203 17.9769C18.3302 17.0792 19.0961 15.9401 19.5469 14.6663C19.7311 14.1458 20.3027 13.873 20.8232 14.0569C21.3438 14.2412 21.6168 14.8127 21.4326 15.3333C20.8691 16.9257 19.911 18.3498 18.6484 19.472C17.3859 20.594 15.8593 21.3785 14.2119 21.7513C12.5645 22.1239 10.8491 22.0731 9.22656 21.6038C7.61394 21.1373 6.14528 20.2716 4.95508 19.0882L2 16.3108V19.9993C2 20.5516 1.55228 20.9993 1 20.9993C0.447715 20.9993 0 20.5516 0 19.9993V13.9993C3.31772e-06 13.9875 0.000569774 13.9758 0.000976562 13.9642C0.00153596 13.9482 0.00258568 13.9322 0.00390625 13.9163C0.00520437 13.9006 0.00677084 13.8849 0.00878906 13.8694C0.0111321 13.8514 0.0142565 13.8336 0.0175781 13.8157C0.020451 13.8003 0.0237696 13.785 0.0273438 13.7698C0.0306465 13.7558 0.0341664 13.7418 0.0380859 13.7278C0.0437548 13.7077 0.0497674 13.6878 0.0566406 13.6683C0.0600751 13.6585 0.0636325 13.6487 0.0673828 13.639C0.074671 13.6201 0.0824443 13.6016 0.0908203 13.5833C0.0977072 13.5682 0.104628 13.5531 0.112305 13.5384C0.118297 13.5269 0.124437 13.5154 0.130859 13.5042C0.140532 13.4872 0.151359 13.4709 0.162109 13.4544C0.16507 13.4498 0.167866 13.4452 0.170898 13.4407L0.205078 13.3929C0.209146 13.3875 0.213583 13.3825 0.217773 13.3772C0.229008 13.3631 0.240964 13.3497 0.25293 13.3362C0.259195 13.3292 0.264984 13.3217 0.271484 13.3147C0.274293 13.3118 0.277437 13.3089 0.280273 13.306C0.294666 13.291 0.309905 13.277 0.325195 13.263C0.335261 13.2537 0.345117 13.2444 0.355469 13.2356C0.368907 13.2243 0.382453 13.2131 0.396484 13.2024C0.407615 13.194 0.418286 13.185 0.429688 13.177C0.44791 13.1644 0.467251 13.1533 0.486328 13.1419C0.495354 13.1365 0.504512 13.1314 0.513672 13.1263C0.535632 13.114 0.558115 13.1027 0.581055 13.0921C0.586734 13.0895 0.591937 13.0858 0.597656 13.0833C0.650682 13.06 0.706304 13.0415 0.763672 13.0276C0.769507 13.0262 0.775395 13.025 0.78125 13.0237C0.802779 13.0189 0.824652 13.0154 0.84668 13.012C0.858703 13.0101 0.870738 13.0085 0.882812 13.0071C0.900273 13.0051 0.917824 13.0034 0.935547 13.0022C0.950514 13.0013 0.965475 13.0006 0.980469 13.0003C0.986967 13.0002 0.993472 12.9993 1 12.9993H7Z" fill="black" fill-opacity="0.2"/>
<path d="M9.78809 2.24833C11.4355 1.87569 13.1509 1.92648 14.7734 2.3958C16.3861 2.86231 17.8547 3.72798 19.0449 4.91142L22 7.68779V3.99931C22.0002 3.44716 22.4478 2.99931 23 2.99931C23.5522 2.99931 23.9998 3.44716 24 3.99931V9.99931C24 10.0107 23.9984 10.0222 23.998 10.0335C23.9975 10.0498 23.9965 10.066 23.9951 10.0823C23.9938 10.0981 23.9922 10.1137 23.9902 10.1292C23.9879 10.1468 23.9857 10.1644 23.9824 10.1819C23.9793 10.1991 23.9747 10.2159 23.9707 10.2327C23.968 10.2439 23.965 10.2548 23.9619 10.2659C23.9473 10.3189 23.929 10.3701 23.9062 10.4192C23.9003 10.4322 23.8933 10.4446 23.8867 10.4573C23.8801 10.4702 23.8734 10.4829 23.8662 10.4954C23.8576 10.5104 23.8493 10.5257 23.8398 10.5403C23.8306 10.5547 23.8205 10.5685 23.8105 10.5823C23.8011 10.5955 23.7915 10.6086 23.7812 10.6214C23.7714 10.6337 23.7613 10.6457 23.751 10.6575C23.7433 10.6663 23.7366 10.6763 23.7285 10.6849C23.7243 10.6894 23.7192 10.6931 23.7148 10.6976C23.7039 10.7088 23.6921 10.7191 23.6807 10.7298C23.6681 10.7415 23.6556 10.753 23.6426 10.764C23.6344 10.7708 23.6256 10.7769 23.6172 10.7835C23.5987 10.7981 23.5808 10.8133 23.5615 10.8265C23.5543 10.8314 23.5464 10.8354 23.5391 10.8401C23.521 10.8517 23.503 10.863 23.4844 10.8733C23.4628 10.8853 23.4405 10.8961 23.418 10.9065C23.4123 10.9092 23.4071 10.9128 23.4014 10.9153C23.3852 10.9224 23.3682 10.9276 23.3516 10.9339C23.3346 10.9402 23.318 10.947 23.3008 10.9524C23.2943 10.9545 23.2878 10.9564 23.2812 10.9583C23.2561 10.9657 23.2307 10.9715 23.2051 10.9769C23.1976 10.9784 23.1902 10.9803 23.1826 10.9817C23.1599 10.9859 23.1372 10.9898 23.1143 10.9925C23.101 10.994 23.0876 10.9944 23.0742 10.9954C23.0524 10.997 23.0307 10.9981 23.0088 10.9983C23.0059 10.9984 23.0029 10.9993 23 10.9993H17C16.4477 10.9993 16 10.5516 16 9.99931C16.0002 9.44716 16.4478 8.99931 17 8.99931H20.4746L17.6748 6.36845C17.6673 6.36142 17.6596 6.35422 17.6523 6.34697C16.6972 5.39135 15.5157 4.69319 14.2178 4.31767C12.9196 3.94218 11.5466 3.90128 10.2285 4.19951C8.91064 4.49778 7.68964 5.12509 6.67969 6.02275C5.66977 6.92042 4.90393 8.05951 4.45312 9.3333C4.26887 9.85369 3.69724 10.1266 3.17676 9.94267C2.65617 9.75845 2.38327 9.1869 2.56738 8.6663C3.13089 7.07389 4.08902 5.64982 5.35156 4.52763C6.61408 3.4056 8.14068 2.62109 9.78809 2.24833Z" fill="#1D1A24"/>
<path d="M9.78809 2.24833C11.4355 1.87569 13.1509 1.92648 14.7734 2.3958C16.3861 2.86231 17.8547 3.72798 19.0449 4.91142L22 7.68779V3.99931C22.0002 3.44716 22.4478 2.99931 23 2.99931C23.5522 2.99931 23.9998 3.44716 24 3.99931V9.99931C24 10.0107 23.9984 10.0222 23.998 10.0335C23.9975 10.0498 23.9965 10.066 23.9951 10.0823C23.9938 10.0981 23.9922 10.1137 23.9902 10.1292C23.9879 10.1468 23.9857 10.1644 23.9824 10.1819C23.9793 10.1991 23.9747 10.2159 23.9707 10.2327C23.968 10.2439 23.965 10.2548 23.9619 10.2659C23.9473 10.3189 23.929 10.3701 23.9062 10.4192C23.9003 10.4322 23.8933 10.4446 23.8867 10.4573C23.8801 10.4702 23.8734 10.4829 23.8662 10.4954C23.8576 10.5104 23.8493 10.5257 23.8398 10.5403C23.8306 10.5547 23.8205 10.5685 23.8105 10.5823C23.8011 10.5955 23.7915 10.6086 23.7812 10.6214C23.7714 10.6337 23.7613 10.6457 23.751 10.6575C23.7433 10.6663 23.7366 10.6763 23.7285 10.6849C23.7243 10.6894 23.7192 10.6931 23.7148 10.6976C23.7039 10.7088 23.6921 10.7191 23.6807 10.7298C23.6681 10.7415 23.6556 10.753 23.6426 10.764C23.6344 10.7708 23.6256 10.7769 23.6172 10.7835C23.5987 10.7981 23.5808 10.8133 23.5615 10.8265C23.5543 10.8314 23.5464 10.8354 23.5391 10.8401C23.521 10.8517 23.503 10.863 23.4844 10.8733C23.4628 10.8853 23.4405 10.8961 23.418 10.9065C23.4123 10.9092 23.4071 10.9128 23.4014 10.9153C23.3852 10.9224 23.3682 10.9276 23.3516 10.9339C23.3346 10.9402 23.318 10.947 23.3008 10.9524C23.2943 10.9545 23.2878 10.9564 23.2812 10.9583C23.2561 10.9657 23.2307 10.9715 23.2051 10.9769C23.1976 10.9784 23.1902 10.9803 23.1826 10.9817C23.1599 10.9859 23.1372 10.9898 23.1143 10.9925C23.101 10.994 23.0876 10.9944 23.0742 10.9954C23.0524 10.997 23.0307 10.9981 23.0088 10.9983C23.0059 10.9984 23.0029 10.9993 23 10.9993H17C16.4477 10.9993 16 10.5516 16 9.99931C16.0002 9.44716 16.4478 8.99931 17 8.99931H20.4746L17.6748 6.36845C17.6673 6.36142 17.6596 6.35422 17.6523 6.34697C16.6972 5.39135 15.5157 4.69319 14.2178 4.31767C12.9196 3.94218 11.5466 3.90128 10.2285 4.19951C8.91064 4.49778 7.68964 5.12509 6.67969 6.02275C5.66977 6.92042 4.90393 8.05951 4.45312 9.3333C4.26887 9.85369 3.69724 10.1266 3.17676 9.94267C2.65617 9.75845 2.38327 9.1869 2.56738 8.6663C3.13089 7.07389 4.08902 5.64982 5.35156 4.52763C6.61408 3.4056 8.14068 2.62109 9.78809 2.24833Z" fill="black" fill-opacity="0.2"/>
<path d="M9.78809 2.24833C11.4355 1.87569 13.1509 1.92648 14.7734 2.3958C16.3861 2.86231 17.8547 3.72798 19.0449 4.91142L22 7.68779V3.99931C22.0002 3.44716 22.4478 2.99931 23 2.99931C23.5522 2.99931 23.9998 3.44716 24 3.99931V9.99931C24 10.0107 23.9984 10.0222 23.998 10.0335C23.9975 10.0498 23.9965 10.066 23.9951 10.0823C23.9938 10.0981 23.9922 10.1137 23.9902 10.1292C23.9879 10.1468 23.9857 10.1644 23.9824 10.1819C23.9793 10.1991 23.9747 10.2159 23.9707 10.2327C23.968 10.2439 23.965 10.2548 23.9619 10.2659C23.9473 10.3189 23.929 10.3701 23.9062 10.4192C23.9003 10.4322 23.8933 10.4446 23.8867 10.4573C23.8801 10.4702 23.8734 10.4829 23.8662 10.4954C23.8576 10.5104 23.8493 10.5257 23.8398 10.5403C23.8306 10.5547 23.8205 10.5685 23.8105 10.5823C23.8011 10.5955 23.7915 10.6086 23.7812 10.6214C23.7714 10.6337 23.7613 10.6457 23.751 10.6575C23.7433 10.6663 23.7366 10.6763 23.7285 10.6849C23.7243 10.6894 23.7192 10.6931 23.7148 10.6976C23.7039 10.7088 23.6921 10.7191 23.6807 10.7298C23.6681 10.7415 23.6556 10.753 23.6426 10.764C23.6344 10.7708 23.6256 10.7769 23.6172 10.7835C23.5987 10.7981 23.5808 10.8133 23.5615 10.8265C23.5543 10.8314 23.5464 10.8354 23.5391 10.8401C23.521 10.8517 23.503 10.863 23.4844 10.8733C23.4628 10.8853 23.4405 10.8961 23.418 10.9065C23.4123 10.9092 23.4071 10.9128 23.4014 10.9153C23.3852 10.9224 23.3682 10.9276 23.3516 10.9339C23.3346 10.9402 23.318 10.947 23.3008 10.9524C23.2943 10.9545 23.2878 10.9564 23.2812 10.9583C23.2561 10.9657 23.2307 10.9715 23.2051 10.9769C23.1976 10.9784 23.1902 10.9803 23.1826 10.9817C23.1599 10.9859 23.1372 10.9898 23.1143 10.9925C23.101 10.994 23.0876 10.9944 23.0742 10.9954C23.0524 10.997 23.0307 10.9981 23.0088 10.9983C23.0059 10.9984 23.0029 10.9993 23 10.9993H17C16.4477 10.9993 16 10.5516 16 9.99931C16.0002 9.44716 16.4478 8.99931 17 8.99931H20.4746L17.6748 6.36845C17.6673 6.36142 17.6596 6.35422 17.6523 6.34697C16.6972 5.39135 15.5157 4.69319 14.2178 4.31767C12.9196 3.94218 11.5466 3.90128 10.2285 4.19951C8.91064 4.49778 7.68964 5.12509 6.67969 6.02275C5.66977 6.92042 4.90393 8.05951 4.45312 9.3333C4.26887 9.85369 3.69724 10.1266 3.17676 9.94267C2.65617 9.75845 2.38327 9.1869 2.56738 8.6663C3.13089 7.07389 4.08902 5.64982 5.35156 4.52763C6.61408 3.4056 8.14068 2.62109 9.78809 2.24833Z" fill="black" fill-opacity="0.2"/>
<path d="M9.78809 2.24833C11.4355 1.87569 13.1509 1.92648 14.7734 2.3958C16.3861 2.86231 17.8547 3.72798 19.0449 4.91142L22 7.68779V3.99931C22.0002 3.44716 22.4478 2.99931 23 2.99931C23.5522 2.99931 23.9998 3.44716 24 3.99931V9.99931C24 10.0107 23.9984 10.0222 23.998 10.0335C23.9975 10.0498 23.9965 10.066 23.9951 10.0823C23.9938 10.0981 23.9922 10.1137 23.9902 10.1292C23.9879 10.1468 23.9857 10.1644 23.9824 10.1819C23.9793 10.1991 23.9747 10.2159 23.9707 10.2327C23.968 10.2439 23.965 10.2548 23.9619 10.2659C23.9473 10.3189 23.929 10.3701 23.9062 10.4192C23.9003 10.4322 23.8933 10.4446 23.8867 10.4573C23.8801 10.4702 23.8734 10.4829 23.8662 10.4954C23.8576 10.5104 23.8493 10.5257 23.8398 10.5403C23.8306 10.5547 23.8205 10.5685 23.8105 10.5823C23.8011 10.5955 23.7915 10.6086 23.7812 10.6214C23.7714 10.6337 23.7613 10.6457 23.751 10.6575C23.7433 10.6663 23.7366 10.6763 23.7285 10.6849C23.7243 10.6894 23.7192 10.6931 23.7148 10.6976C23.7039 10.7088 23.6921 10.7191 23.6807 10.7298C23.6681 10.7415 23.6556 10.753 23.6426 10.764C23.6344 10.7708 23.6256 10.7769 23.6172 10.7835C23.5987 10.7981 23.5808 10.8133 23.5615 10.8265C23.5543 10.8314 23.5464 10.8354 23.5391 10.8401C23.521 10.8517 23.503 10.863 23.4844 10.8733C23.4628 10.8853 23.4405 10.8961 23.418 10.9065C23.4123 10.9092 23.4071 10.9128 23.4014 10.9153C23.3852 10.9224 23.3682 10.9276 23.3516 10.9339C23.3346 10.9402 23.318 10.947 23.3008 10.9524C23.2943 10.9545 23.2878 10.9564 23.2812 10.9583C23.2561 10.9657 23.2307 10.9715 23.2051 10.9769C23.1976 10.9784 23.1902 10.9803 23.1826 10.9817C23.1599 10.9859 23.1372 10.9898 23.1143 10.9925C23.101 10.994 23.0876 10.9944 23.0742 10.9954C23.0524 10.997 23.0307 10.9981 23.0088 10.9983C23.0059 10.9984 23.0029 10.9993 23 10.9993H17C16.4477 10.9993 16 10.5516 16 9.99931C16.0002 9.44716 16.4478 8.99931 17 8.99931H20.4746L17.6748 6.36845C17.6673 6.36142 17.6596 6.35422 17.6523 6.34697C16.6972 5.39135 15.5157 4.69319 14.2178 4.31767C12.9196 3.94218 11.5466 3.90128 10.2285 4.19951C8.91064 4.49778 7.68964 5.12509 6.67969 6.02275C5.66977 6.92042 4.90393 8.05951 4.45312 9.3333C4.26887 9.85369 3.69724 10.1266 3.17676 9.94267C2.65617 9.75845 2.38327 9.1869 2.56738 8.6663C3.13089 7.07389 4.08902 5.64982 5.35156 4.52763C6.61408 3.4056 8.14068 2.62109 9.78809 2.24833Z" fill="black" fill-opacity="0.2"/>
<path d="M9.78809 2.24833C11.4355 1.87569 13.1509 1.92648 14.7734 2.3958C16.3861 2.86231 17.8547 3.72798 19.0449 4.91142L22 7.68779V3.99931C22.0002 3.44716 22.4478 2.99931 23 2.99931C23.5522 2.99931 23.9998 3.44716 24 3.99931V9.99931C24 10.0107 23.9984 10.0222 23.998 10.0335C23.9975 10.0498 23.9965 10.066 23.9951 10.0823C23.9938 10.0981 23.9922 10.1137 23.9902 10.1292C23.9879 10.1468 23.9857 10.1644 23.9824 10.1819C23.9793 10.1991 23.9747 10.2159 23.9707 10.2327C23.968 10.2439 23.965 10.2548 23.9619 10.2659C23.9473 10.3189 23.929 10.3701 23.9062 10.4192C23.9003 10.4322 23.8933 10.4446 23.8867 10.4573C23.8801 10.4702 23.8734 10.4829 23.8662 10.4954C23.8576 10.5104 23.8493 10.5257 23.8398 10.5403C23.8306 10.5547 23.8205 10.5685 23.8105 10.5823C23.8011 10.5955 23.7915 10.6086 23.7812 10.6214C23.7714 10.6337 23.7613 10.6457 23.751 10.6575C23.7433 10.6663 23.7366 10.6763 23.7285 10.6849C23.7243 10.6894 23.7192 10.6931 23.7148 10.6976C23.7039 10.7088 23.6921 10.7191 23.6807 10.7298C23.6681 10.7415 23.6556 10.753 23.6426 10.764C23.6344 10.7708 23.6256 10.7769 23.6172 10.7835C23.5987 10.7981 23.5808 10.8133 23.5615 10.8265C23.5543 10.8314 23.5464 10.8354 23.5391 10.8401C23.521 10.8517 23.503 10.863 23.4844 10.8733C23.4628 10.8853 23.4405 10.8961 23.418 10.9065C23.4123 10.9092 23.4071 10.9128 23.4014 10.9153C23.3852 10.9224 23.3682 10.9276 23.3516 10.9339C23.3346 10.9402 23.318 10.947 23.3008 10.9524C23.2943 10.9545 23.2878 10.9564 23.2812 10.9583C23.2561 10.9657 23.2307 10.9715 23.2051 10.9769C23.1976 10.9784 23.1902 10.9803 23.1826 10.9817C23.1599 10.9859 23.1372 10.9898 23.1143 10.9925C23.101 10.994 23.0876 10.9944 23.0742 10.9954C23.0524 10.997 23.0307 10.9981 23.0088 10.9983C23.0059 10.9984 23.0029 10.9993 23 10.9993H17C16.4477 10.9993 16 10.5516 16 9.99931C16.0002 9.44716 16.4478 8.99931 17 8.99931H20.4746L17.6748 6.36845C17.6673 6.36142 17.6596 6.35422 17.6523 6.34697C16.6972 5.39135 15.5157 4.69319 14.2178 4.31767C12.9196 3.94218 11.5466 3.90128 10.2285 4.19951C8.91064 4.49778 7.68964 5.12509 6.67969 6.02275C5.66977 6.92042 4.90393 8.05951 4.45312 9.3333C4.26887 9.85369 3.69724 10.1266 3.17676 9.94267C2.65617 9.75845 2.38327 9.1869 2.56738 8.6663C3.13089 7.07389 4.08902 5.64982 5.35156 4.52763C6.61408 3.4056 8.14068 2.62109 9.78809 2.24833Z" fill="black" fill-opacity="0.2"/>
<path d="M9.78809 2.24833C11.4355 1.87569 13.1509 1.92648 14.7734 2.3958C16.3861 2.86231 17.8547 3.72798 19.0449 4.91142L22 7.68779V3.99931C22.0002 3.44716 22.4478 2.99931 23 2.99931C23.5522 2.99931 23.9998 3.44716 24 3.99931V9.99931C24 10.0107 23.9984 10.0222 23.998 10.0335C23.9975 10.0498 23.9965 10.066 23.9951 10.0823C23.9938 10.0981 23.9922 10.1137 23.9902 10.1292C23.9879 10.1468 23.9857 10.1644 23.9824 10.1819C23.9793 10.1991 23.9747 10.2159 23.9707 10.2327C23.968 10.2439 23.965 10.2548 23.9619 10.2659C23.9473 10.3189 23.929 10.3701 23.9062 10.4192C23.9003 10.4322 23.8933 10.4446 23.8867 10.4573C23.8801 10.4702 23.8734 10.4829 23.8662 10.4954C23.8576 10.5104 23.8493 10.5257 23.8398 10.5403C23.8306 10.5547 23.8205 10.5685 23.8105 10.5823C23.8011 10.5955 23.7915 10.6086 23.7812 10.6214C23.7714 10.6337 23.7613 10.6457 23.751 10.6575C23.7433 10.6663 23.7366 10.6763 23.7285 10.6849C23.7243 10.6894 23.7192 10.6931 23.7148 10.6976C23.7039 10.7088 23.6921 10.7191 23.6807 10.7298C23.6681 10.7415 23.6556 10.753 23.6426 10.764C23.6344 10.7708 23.6256 10.7769 23.6172 10.7835C23.5987 10.7981 23.5808 10.8133 23.5615 10.8265C23.5543 10.8314 23.5464 10.8354 23.5391 10.8401C23.521 10.8517 23.503 10.863 23.4844 10.8733C23.4628 10.8853 23.4405 10.8961 23.418 10.9065C23.4123 10.9092 23.4071 10.9128 23.4014 10.9153C23.3852 10.9224 23.3682 10.9276 23.3516 10.9339C23.3346 10.9402 23.318 10.947 23.3008 10.9524C23.2943 10.9545 23.2878 10.9564 23.2812 10.9583C23.2561 10.9657 23.2307 10.9715 23.2051 10.9769C23.1976 10.9784 23.1902 10.9803 23.1826 10.9817C23.1599 10.9859 23.1372 10.9898 23.1143 10.9925C23.101 10.994 23.0876 10.9944 23.0742 10.9954C23.0524 10.997 23.0307 10.9981 23.0088 10.9983C23.0059 10.9984 23.0029 10.9993 23 10.9993H17C16.4477 10.9993 16 10.5516 16 9.99931C16.0002 9.44716 16.4478 8.99931 17 8.99931H20.4746L17.6748 6.36845C17.6673 6.36142 17.6596 6.35422 17.6523 6.34697C16.6972 5.39135 15.5157 4.69319 14.2178 4.31767C12.9196 3.94218 11.5466 3.90128 10.2285 4.19951C8.91064 4.49778 7.68964 5.12509 6.67969 6.02275C5.66977 6.92042 4.90393 8.05951 4.45312 9.3333C4.26887 9.85369 3.69724 10.1266 3.17676 9.94267C2.65617 9.75845 2.38327 9.1869 2.56738 8.6663C3.13089 7.07389 4.08902 5.64982 5.35156 4.52763C6.61408 3.4056 8.14068 2.62109 9.78809 2.24833Z" fill="black" fill-opacity="0.2"/>
</svg>
