<svg width="24" height="24" viewBox="0 0 24 24" fill="none" xmlns="http://www.w3.org/2000/svg">
<path d="M19.0996 13.0001C19.5967 13.0001 20 13.4108 20 13.9171V15.7501C20 16.9657 19.5256 18.1318 18.6816 18.9913C17.8378 19.8507 16.6934 20.3341 15.5 20.3341H5.07227L7.13672 22.4357C7.48783 22.7936 7.48781 23.3736 7.13672 23.7316C6.78525 24.0895 6.21475 24.0895 5.86328 23.7316L2.26367 20.0655C2.23854 20.0399 2.21587 20.0122 2.19434 19.9845C2.16212 19.943 2.13327 19.8986 2.1084 19.8517C2.10177 19.8392 2.09586 19.8263 2.08984 19.8136C2.06998 19.7716 2.05252 19.728 2.03906 19.6827C2.02737 19.6433 2.01906 19.603 2.0127 19.5626C2.00524 19.5152 2.00001 19.4667 2 19.4171C2 19.3442 2.00862 19.2732 2.02441 19.2052C2.02887 19.1861 2.03339 19.1664 2.03906 19.1476C2.05242 19.1033 2.07036 19.0608 2.08984 19.0196C2.10706 18.9832 2.12623 18.9475 2.14844 18.9132C2.18208 18.8613 2.22064 18.8125 2.26367 18.7687L5.86328 15.1017C6.21474 14.7438 6.78526 14.7438 7.13672 15.1017C7.48816 15.4596 7.48809 16.0406 7.13672 16.3986L5.07227 18.5001H15.5C16.2161 18.5001 16.9028 18.2102 17.4092 17.6945C17.9154 17.1787 18.2002 16.4794 18.2002 15.7501V13.9171C18.2002 13.411 18.6027 13.0003 19.0996 13.0001Z" fill="#1D1A24"/>
<path d="M19.0996 13.0001C19.5967 13.0001 20 13.4108 20 13.9171V15.7501C20 16.9657 19.5256 18.1318 18.6816 18.9913C17.8378 19.8507 16.6934 20.3341 15.5 20.3341H5.07227L7.13672 22.4357C7.48783 22.7936 7.48781 23.3736 7.13672 23.7316C6.78525 24.0895 6.21475 24.0895 5.86328 23.7316L2.26367 20.0655C2.23854 20.0399 2.21587 20.0122 2.19434 19.9845C2.16212 19.943 2.13327 19.8986 2.1084 19.8517C2.10177 19.8392 2.09586 19.8263 2.08984 19.8136C2.06998 19.7716 2.05252 19.728 2.03906 19.6827C2.02737 19.6433 2.01906 19.603 2.0127 19.5626C2.00524 19.5152 2.00001 19.4667 2 19.4171C2 19.3442 2.00862 19.2732 2.02441 19.2052C2.02887 19.1861 2.03339 19.1664 2.03906 19.1476C2.05242 19.1033 2.07036 19.0608 2.08984 19.0196C2.10706 18.9832 2.12623 18.9475 2.14844 18.9132C2.18208 18.8613 2.22064 18.8125 2.26367 18.7687L5.86328 15.1017C6.21474 14.7438 6.78526 14.7438 7.13672 15.1017C7.48816 15.4596 7.48809 16.0406 7.13672 16.3986L5.07227 18.5001H15.5C16.2161 18.5001 16.9028 18.2102 17.4092 17.6945C17.9154 17.1787 18.2002 16.4794 18.2002 15.7501V13.9171C18.2002 13.411 18.6027 13.0003 19.0996 13.0001Z" fill="black" fill-opacity="0.2"/>
<path d="M19.0996 13.0001C19.5967 13.0001 20 13.4108 20 13.9171V15.7501C20 16.9657 19.5256 18.1318 18.6816 18.9913C17.8378 19.8507 16.6934 20.3341 15.5 20.3341H5.07227L7.13672 22.4357C7.48783 22.7936 7.48781 23.3736 7.13672 23.7316C6.78525 24.0895 6.21475 24.0895 5.86328 23.7316L2.26367 20.0655C2.23854 20.0399 2.21587 20.0122 2.19434 19.9845C2.16212 19.943 2.13327 19.8986 2.1084 19.8517C2.10177 19.8392 2.09586 19.8263 2.08984 19.8136C2.06998 19.7716 2.05252 19.728 2.03906 19.6827C2.02737 19.6433 2.01906 19.603 2.0127 19.5626C2.00524 19.5152 2.00001 19.4667 2 19.4171C2 19.3442 2.00862 19.2732 2.02441 19.2052C2.02887 19.1861 2.03339 19.1664 2.03906 19.1476C2.05242 19.1033 2.07036 19.0608 2.08984 19.0196C2.10706 18.9832 2.12623 18.9475 2.14844 18.9132C2.18208 18.8613 2.22064 18.8125 2.26367 18.7687L5.86328 15.1017C6.21474 14.7438 6.78526 14.7438 7.13672 15.1017C7.48816 15.4596 7.48809 16.0406 7.13672 16.3986L5.07227 18.5001H15.5C16.2161 18.5001 16.9028 18.2102 17.4092 17.6945C17.9154 17.1787 18.2002 16.4794 18.2002 15.7501V13.9171C18.2002 13.411 18.6027 13.0003 19.0996 13.0001Z" fill="black" fill-opacity="0.2"/>
<path d="M19.0996 13.0001C19.5967 13.0001 20 13.4108 20 13.9171V15.7501C20 16.9657 19.5256 18.1318 18.6816 18.9913C17.8378 19.8507 16.6934 20.3341 15.5 20.3341H5.07227L7.13672 22.4357C7.48783 22.7936 7.48781 23.3736 7.13672 23.7316C6.78525 24.0895 6.21475 24.0895 5.86328 23.7316L2.26367 20.0655C2.23854 20.0399 2.21587 20.0122 2.19434 19.9845C2.16212 19.943 2.13327 19.8986 2.1084 19.8517C2.10177 19.8392 2.09586 19.8263 2.08984 19.8136C2.06998 19.7716 2.05252 19.728 2.03906 19.6827C2.02737 19.6433 2.01906 19.603 2.0127 19.5626C2.00524 19.5152 2.00001 19.4667 2 19.4171C2 19.3442 2.00862 19.2732 2.02441 19.2052C2.02887 19.1861 2.03339 19.1664 2.03906 19.1476C2.05242 19.1033 2.07036 19.0608 2.08984 19.0196C2.10706 18.9832 2.12623 18.9475 2.14844 18.9132C2.18208 18.8613 2.22064 18.8125 2.26367 18.7687L5.86328 15.1017C6.21474 14.7438 6.78526 14.7438 7.13672 15.1017C7.48816 15.4596 7.48809 16.0406 7.13672 16.3986L5.07227 18.5001H15.5C16.2161 18.5001 16.9028 18.2102 17.4092 17.6945C17.9154 17.1787 18.2002 16.4794 18.2002 15.7501V13.9171C18.2002 13.411 18.6027 13.0003 19.0996 13.0001Z" fill="black" fill-opacity="0.2"/>
<path d="M19.0996 13.0001C19.5967 13.0001 20 13.4108 20 13.9171V15.7501C20 16.9657 19.5256 18.1318 18.6816 18.9913C17.8378 19.8507 16.6934 20.3341 15.5 20.3341H5.07227L7.13672 22.4357C7.48783 22.7936 7.48781 23.3736 7.13672 23.7316C6.78525 24.0895 6.21475 24.0895 5.86328 23.7316L2.26367 20.0655C2.23854 20.0399 2.21587 20.0122 2.19434 19.9845C2.16212 19.943 2.13327 19.8986 2.1084 19.8517C2.10177 19.8392 2.09586 19.8263 2.08984 19.8136C2.06998 19.7716 2.05252 19.728 2.03906 19.6827C2.02737 19.6433 2.01906 19.603 2.0127 19.5626C2.00524 19.5152 2.00001 19.4667 2 19.4171C2 19.3442 2.00862 19.2732 2.02441 19.2052C2.02887 19.1861 2.03339 19.1664 2.03906 19.1476C2.05242 19.1033 2.07036 19.0608 2.08984 19.0196C2.10706 18.9832 2.12623 18.9475 2.14844 18.9132C2.18208 18.8613 2.22064 18.8125 2.26367 18.7687L5.86328 15.1017C6.21474 14.7438 6.78526 14.7438 7.13672 15.1017C7.48816 15.4596 7.48809 16.0406 7.13672 16.3986L5.07227 18.5001H15.5C16.2161 18.5001 16.9028 18.2102 17.4092 17.6945C17.9154 17.1787 18.2002 16.4794 18.2002 15.7501V13.9171C18.2002 13.411 18.6027 13.0003 19.0996 13.0001Z" fill="black" fill-opacity="0.2"/>
<path d="M19.0996 13.0001C19.5967 13.0001 20 13.4108 20 13.9171V15.7501C20 16.9657 19.5256 18.1318 18.6816 18.9913C17.8378 19.8507 16.6934 20.3341 15.5 20.3341H5.07227L7.13672 22.4357C7.48783 22.7936 7.48781 23.3736 7.13672 23.7316C6.78525 24.0895 6.21475 24.0895 5.86328 23.7316L2.26367 20.0655C2.23854 20.0399 2.21587 20.0122 2.19434 19.9845C2.16212 19.943 2.13327 19.8986 2.1084 19.8517C2.10177 19.8392 2.09586 19.8263 2.08984 19.8136C2.06998 19.7716 2.05252 19.728 2.03906 19.6827C2.02737 19.6433 2.01906 19.603 2.0127 19.5626C2.00524 19.5152 2.00001 19.4667 2 19.4171C2 19.3442 2.00862 19.2732 2.02441 19.2052C2.02887 19.1861 2.03339 19.1664 2.03906 19.1476C2.05242 19.1033 2.07036 19.0608 2.08984 19.0196C2.10706 18.9832 2.12623 18.9475 2.14844 18.9132C2.18208 18.8613 2.22064 18.8125 2.26367 18.7687L5.86328 15.1017C6.21474 14.7438 6.78526 14.7438 7.13672 15.1017C7.48816 15.4596 7.48809 16.0406 7.13672 16.3986L5.07227 18.5001H15.5C16.2161 18.5001 16.9028 18.2102 17.4092 17.6945C17.9154 17.1787 18.2002 16.4794 18.2002 15.7501V13.9171C18.2002 13.411 18.6027 13.0003 19.0996 13.0001Z" fill="black" fill-opacity="0.2"/>
<path d="M14.8633 4.26867C15.2148 3.91069 15.7852 3.91069 16.1367 4.26867L19.7363 7.93566C19.7793 7.97941 19.818 8.0274 19.8516 8.07922C19.8737 8.11345 19.893 8.14933 19.9102 8.18566C19.9297 8.22693 19.9466 8.27015 19.96 8.31457C19.9655 8.33312 19.9702 8.3524 19.9746 8.37121C19.9905 8.43925 20 8.51016 20 8.58313C20 8.65921 19.9888 8.73314 19.9717 8.80383C19.9679 8.81932 19.9645 8.83539 19.96 8.8507C19.9466 8.89544 19.9298 8.93904 19.9102 8.98059C19.8922 9.01861 19.8711 9.05521 19.8477 9.09094C19.8147 9.14127 19.7782 9.18892 19.7363 9.23156L16.1367 12.8986C15.7853 13.2565 15.2147 13.2565 14.8633 12.8986C14.5119 12.5406 14.5119 11.9596 14.8633 11.6017L16.9277 9.50012H6.5C5.78392 9.50012 5.09717 9.79005 4.59082 10.3058C4.08455 10.8215 3.79983 11.5208 3.7998 12.2501V14.0831C3.79977 14.5892 3.39724 14.9999 2.90039 15.0001C2.40336 15.0001 2.00004 14.5894 2 14.0831V12.2501C2.00003 11.0346 2.47457 9.86939 3.31836 9.00988C4.16227 8.15034 5.30653 7.66711 6.5 7.66711H16.9277L14.8633 5.56457C14.5123 5.20662 14.5121 4.62654 14.8633 4.26867Z" fill="#1D1A24"/>
<path d="M14.8633 4.26867C15.2148 3.91069 15.7852 3.91069 16.1367 4.26867L19.7363 7.93566C19.7793 7.97941 19.818 8.0274 19.8516 8.07922C19.8737 8.11345 19.893 8.14933 19.9102 8.18566C19.9297 8.22693 19.9466 8.27015 19.96 8.31457C19.9655 8.33312 19.9702 8.3524 19.9746 8.37121C19.9905 8.43925 20 8.51016 20 8.58313C20 8.65921 19.9888 8.73314 19.9717 8.80383C19.9679 8.81932 19.9645 8.83539 19.96 8.8507C19.9466 8.89544 19.9298 8.93904 19.9102 8.98059C19.8922 9.01861 19.8711 9.05521 19.8477 9.09094C19.8147 9.14127 19.7782 9.18892 19.7363 9.23156L16.1367 12.8986C15.7853 13.2565 15.2147 13.2565 14.8633 12.8986C14.5119 12.5406 14.5119 11.9596 14.8633 11.6017L16.9277 9.50012H6.5C5.78392 9.50012 5.09717 9.79005 4.59082 10.3058C4.08455 10.8215 3.79983 11.5208 3.7998 12.2501V14.0831C3.79977 14.5892 3.39724 14.9999 2.90039 15.0001C2.40336 15.0001 2.00004 14.5894 2 14.0831V12.2501C2.00003 11.0346 2.47457 9.86939 3.31836 9.00988C4.16227 8.15034 5.30653 7.66711 6.5 7.66711H16.9277L14.8633 5.56457C14.5123 5.20662 14.5121 4.62654 14.8633 4.26867Z" fill="black" fill-opacity="0.2"/>
<path d="M14.8633 4.26867C15.2148 3.91069 15.7852 3.91069 16.1367 4.26867L19.7363 7.93566C19.7793 7.97941 19.818 8.0274 19.8516 8.07922C19.8737 8.11345 19.893 8.14933 19.9102 8.18566C19.9297 8.22693 19.9466 8.27015 19.96 8.31457C19.9655 8.33312 19.9702 8.3524 19.9746 8.37121C19.9905 8.43925 20 8.51016 20 8.58313C20 8.65921 19.9888 8.73314 19.9717 8.80383C19.9679 8.81932 19.9645 8.83539 19.96 8.8507C19.9466 8.89544 19.9298 8.93904 19.9102 8.98059C19.8922 9.01861 19.8711 9.05521 19.8477 9.09094C19.8147 9.14127 19.7782 9.18892 19.7363 9.23156L16.1367 12.8986C15.7853 13.2565 15.2147 13.2565 14.8633 12.8986C14.5119 12.5406 14.5119 11.9596 14.8633 11.6017L16.9277 9.50012H6.5C5.78392 9.50012 5.09717 9.79005 4.59082 10.3058C4.08455 10.8215 3.79983 11.5208 3.7998 12.2501V14.0831C3.79977 14.5892 3.39724 14.9999 2.90039 15.0001C2.40336 15.0001 2.00004 14.5894 2 14.0831V12.2501C2.00003 11.0346 2.47457 9.86939 3.31836 9.00988C4.16227 8.15034 5.30653 7.66711 6.5 7.66711H16.9277L14.8633 5.56457C14.5123 5.20662 14.5121 4.62654 14.8633 4.26867Z" fill="black" fill-opacity="0.2"/>
<path d="M14.8633 4.26867C15.2148 3.91069 15.7852 3.91069 16.1367 4.26867L19.7363 7.93566C19.7793 7.97941 19.818 8.0274 19.8516 8.07922C19.8737 8.11345 19.893 8.14933 19.9102 8.18566C19.9297 8.22693 19.9466 8.27015 19.96 8.31457C19.9655 8.33312 19.9702 8.3524 19.9746 8.37121C19.9905 8.43925 20 8.51016 20 8.58313C20 8.65921 19.9888 8.73314 19.9717 8.80383C19.9679 8.81932 19.9645 8.83539 19.96 8.8507C19.9466 8.89544 19.9298 8.93904 19.9102 8.98059C19.8922 9.01861 19.8711 9.05521 19.8477 9.09094C19.8147 9.14127 19.7782 9.18892 19.7363 9.23156L16.1367 12.8986C15.7853 13.2565 15.2147 13.2565 14.8633 12.8986C14.5119 12.5406 14.5119 11.9596 14.8633 11.6017L16.9277 9.50012H6.5C5.78392 9.50012 5.09717 9.79005 4.59082 10.3058C4.08455 10.8215 3.79983 11.5208 3.7998 12.2501V14.0831C3.79977 14.5892 3.39724 14.9999 2.90039 15.0001C2.40336 15.0001 2.00004 14.5894 2 14.0831V12.2501C2.00003 11.0346 2.47457 9.86939 3.31836 9.00988C4.16227 8.15034 5.30653 7.66711 6.5 7.66711H16.9277L14.8633 5.56457C14.5123 5.20662 14.5121 4.62654 14.8633 4.26867Z" fill="black" fill-opacity="0.2"/>
<path d="M14.8633 4.26867C15.2148 3.91069 15.7852 3.91069 16.1367 4.26867L19.7363 7.93566C19.7793 7.97941 19.818 8.0274 19.8516 8.07922C19.8737 8.11345 19.893 8.14933 19.9102 8.18566C19.9297 8.22693 19.9466 8.27015 19.96 8.31457C19.9655 8.33312 19.9702 8.3524 19.9746 8.37121C19.9905 8.43925 20 8.51016 20 8.58313C20 8.65921 19.9888 8.73314 19.9717 8.80383C19.9679 8.81932 19.9645 8.83539 19.96 8.8507C19.9466 8.89544 19.9298 8.93904 19.9102 8.98059C19.8922 9.01861 19.8711 9.05521 19.8477 9.09094C19.8147 9.14127 19.7782 9.18892 19.7363 9.23156L16.1367 12.8986C15.7853 13.2565 15.2147 13.2565 14.8633 12.8986C14.5119 12.5406 14.5119 11.9596 14.8633 11.6017L16.9277 9.50012H6.5C5.78392 9.50012 5.09717 9.79005 4.59082 10.3058C4.08455 10.8215 3.79983 11.5208 3.7998 12.2501V14.0831C3.79977 14.5892 3.39724 14.9999 2.90039 15.0001C2.40336 15.0001 2.00004 14.5894 2 14.0831V12.2501C2.00003 11.0346 2.47457 9.86939 3.31836 9.00988C4.16227 8.15034 5.30653 7.66711 6.5 7.66711H16.9277L14.8633 5.56457C14.5123 5.20662 14.5121 4.62654 14.8633 4.26867Z" fill="black" fill-opacity="0.2"/>
<path d="M14.8633 4.26867C15.2148 3.91069 15.7852 3.91069 16.1367 4.26867L19.7363 7.93566C19.7793 7.97941 19.818 8.0274 19.8516 8.07922C19.8737 8.11345 19.893 8.14933 19.9102 8.18566C19.9297 8.22693 19.9466 8.27015 19.96 8.31457C19.9655 8.33312 19.9702 8.3524 19.9746 8.37121C19.9905 8.43925 20 8.51016 20 8.58313C20 8.65921 19.9888 8.73314 19.9717 8.80383C19.9679 8.81932 19.9645 8.83539 19.96 8.8507C19.9466 8.89544 19.9298 8.93904 19.9102 8.98059C19.8922 9.01861 19.8711 9.05521 19.8477 9.09094C19.8147 9.14127 19.7782 9.18892 19.7363 9.23156L16.1367 12.8986C15.7853 13.2565 15.2147 13.2565 14.8633 12.8986C14.5119 12.5406 14.5119 11.9596 14.8633 11.6017L16.9277 9.50012H6.5C5.78392 9.50012 5.09717 9.79005 4.59082 10.3058C4.08455 10.8215 3.79983 11.5208 3.7998 12.2501V14.0831C3.79977 14.5892 3.39724 14.9999 2.90039 15.0001C2.40336 15.0001 2.00004 14.5894 2 14.0831V12.2501C2.00003 11.0346 2.47457 9.86939 3.31836 9.00988C4.16227 8.15034 5.30653 7.66711 6.5 7.66711H16.9277L14.8633 5.56457C14.5123 5.20662 14.5121 4.62654 14.8633 4.26867Z" fill="black" fill-opacity="0.2"/>
<path d="M20.5117 2.5548C20.5612 2.55686 20.6093 2.57427 20.6494 2.60363C20.6794 2.62576 20.7042 2.65475 20.7217 2.68762L20.7373 2.7218L20.9785 3.40734C21.0311 3.55663 21.1179 3.69269 21.2314 3.8048C21.3451 3.91687 21.4835 4.00258 21.6357 4.0548L22.332 4.29309C22.3681 4.30549 22.4009 4.32666 22.4277 4.35363L22.4531 4.38195C22.476 4.41348 22.491 4.45116 22.4971 4.48937L22.5 4.52746L22.4971 4.56652C22.491 4.60471 22.4759 4.64145 22.4531 4.67297C22.4229 4.71463 22.3803 4.74524 22.332 4.76184L21.6357 5.00012C21.4835 5.05231 21.3452 5.13807 21.2314 5.25012C21.1179 5.36215 21.0312 5.49836 20.9785 5.64758L20.7363 6.3341C20.7191 6.38304 20.6875 6.4256 20.6455 6.45519C20.6033 6.48489 20.5523 6.50012 20.501 6.50012C20.4499 6.50001 20.3995 6.48471 20.3574 6.45519C20.3153 6.42547 20.2828 6.38227 20.2656 6.33312L20.0244 5.64855C19.9718 5.49922 19.8851 5.36225 19.7715 5.25012C19.6579 5.13809 19.5193 5.05235 19.3672 5.00012L18.6709 4.76184C18.6227 4.74525 18.58 4.71457 18.5498 4.67297C18.5195 4.63102 18.503 4.57947 18.5029 4.52746C18.503 4.4887 18.512 4.45027 18.5293 4.41613L18.5498 4.38195L18.5752 4.35363C18.6023 4.32638 18.6354 4.30547 18.6719 4.29309L19.3672 4.0548C19.5194 4.00253 19.6578 3.91693 19.7715 3.8048C19.8851 3.69263 19.9718 3.55671 20.0244 3.40734L20.2656 2.7218C20.2788 2.68388 20.3013 2.65026 20.3301 2.62316L20.3613 2.59777L20.3965 2.57824C20.4202 2.56728 20.4458 2.55989 20.4717 2.55676L20.5117 2.5548Z" fill="#1D1A24"/>
<path d="M20.5117 2.5548C20.5612 2.55686 20.6093 2.57427 20.6494 2.60363C20.6794 2.62576 20.7042 2.65475 20.7217 2.68762L20.7373 2.7218L20.9785 3.40734C21.0311 3.55663 21.1179 3.69269 21.2314 3.8048C21.3451 3.91687 21.4835 4.00258 21.6357 4.0548L22.332 4.29309C22.3681 4.30549 22.4009 4.32666 22.4277 4.35363L22.4531 4.38195C22.476 4.41348 22.491 4.45116 22.4971 4.48937L22.5 4.52746L22.4971 4.56652C22.491 4.60471 22.4759 4.64145 22.4531 4.67297C22.4229 4.71463 22.3803 4.74524 22.332 4.76184L21.6357 5.00012C21.4835 5.05231 21.3452 5.13807 21.2314 5.25012C21.1179 5.36215 21.0312 5.49836 20.9785 5.64758L20.7363 6.3341C20.7191 6.38304 20.6875 6.4256 20.6455 6.45519C20.6033 6.48489 20.5523 6.50012 20.501 6.50012C20.4499 6.50001 20.3995 6.48471 20.3574 6.45519C20.3153 6.42547 20.2828 6.38227 20.2656 6.33312L20.0244 5.64855C19.9718 5.49922 19.8851 5.36225 19.7715 5.25012C19.6579 5.13809 19.5193 5.05235 19.3672 5.00012L18.6709 4.76184C18.6227 4.74525 18.58 4.71457 18.5498 4.67297C18.5195 4.63102 18.503 4.57947 18.5029 4.52746C18.503 4.4887 18.512 4.45027 18.5293 4.41613L18.5498 4.38195L18.5752 4.35363C18.6023 4.32638 18.6354 4.30547 18.6719 4.29309L19.3672 4.0548C19.5194 4.00253 19.6578 3.91693 19.7715 3.8048C19.8851 3.69263 19.9718 3.55671 20.0244 3.40734L20.2656 2.7218C20.2788 2.68388 20.3013 2.65026 20.3301 2.62316L20.3613 2.59777L20.3965 2.57824C20.4202 2.56728 20.4458 2.55989 20.4717 2.55676L20.5117 2.5548Z" fill="black" fill-opacity="0.2"/>
<path d="M20.5117 2.5548C20.5612 2.55686 20.6093 2.57427 20.6494 2.60363C20.6794 2.62576 20.7042 2.65475 20.7217 2.68762L20.7373 2.7218L20.9785 3.40734C21.0311 3.55663 21.1179 3.69269 21.2314 3.8048C21.3451 3.91687 21.4835 4.00258 21.6357 4.0548L22.332 4.29309C22.3681 4.30549 22.4009 4.32666 22.4277 4.35363L22.4531 4.38195C22.476 4.41348 22.491 4.45116 22.4971 4.48937L22.5 4.52746L22.4971 4.56652C22.491 4.60471 22.4759 4.64145 22.4531 4.67297C22.4229 4.71463 22.3803 4.74524 22.332 4.76184L21.6357 5.00012C21.4835 5.05231 21.3452 5.13807 21.2314 5.25012C21.1179 5.36215 21.0312 5.49836 20.9785 5.64758L20.7363 6.3341C20.7191 6.38304 20.6875 6.4256 20.6455 6.45519C20.6033 6.48489 20.5523 6.50012 20.501 6.50012C20.4499 6.50001 20.3995 6.48471 20.3574 6.45519C20.3153 6.42547 20.2828 6.38227 20.2656 6.33312L20.0244 5.64855C19.9718 5.49922 19.8851 5.36225 19.7715 5.25012C19.6579 5.13809 19.5193 5.05235 19.3672 5.00012L18.6709 4.76184C18.6227 4.74525 18.58 4.71457 18.5498 4.67297C18.5195 4.63102 18.503 4.57947 18.5029 4.52746C18.503 4.4887 18.512 4.45027 18.5293 4.41613L18.5498 4.38195L18.5752 4.35363C18.6023 4.32638 18.6354 4.30547 18.6719 4.29309L19.3672 4.0548C19.5194 4.00253 19.6578 3.91693 19.7715 3.8048C19.8851 3.69263 19.9718 3.55671 20.0244 3.40734L20.2656 2.7218C20.2788 2.68388 20.3013 2.65026 20.3301 2.62316L20.3613 2.59777L20.3965 2.57824C20.4202 2.56728 20.4458 2.55989 20.4717 2.55676L20.5117 2.5548Z" fill="black" fill-opacity="0.2"/>
<path d="M20.5117 2.5548C20.5612 2.55686 20.6093 2.57427 20.6494 2.60363C20.6794 2.62576 20.7042 2.65475 20.7217 2.68762L20.7373 2.7218L20.9785 3.40734C21.0311 3.55663 21.1179 3.69269 21.2314 3.8048C21.3451 3.91687 21.4835 4.00258 21.6357 4.0548L22.332 4.29309C22.3681 4.30549 22.4009 4.32666 22.4277 4.35363L22.4531 4.38195C22.476 4.41348 22.491 4.45116 22.4971 4.48937L22.5 4.52746L22.4971 4.56652C22.491 4.60471 22.4759 4.64145 22.4531 4.67297C22.4229 4.71463 22.3803 4.74524 22.332 4.76184L21.6357 5.00012C21.4835 5.05231 21.3452 5.13807 21.2314 5.25012C21.1179 5.36215 21.0312 5.49836 20.9785 5.64758L20.7363 6.3341C20.7191 6.38304 20.6875 6.4256 20.6455 6.45519C20.6033 6.48489 20.5523 6.50012 20.501 6.50012C20.4499 6.50001 20.3995 6.48471 20.3574 6.45519C20.3153 6.42547 20.2828 6.38227 20.2656 6.33312L20.0244 5.64855C19.9718 5.49922 19.8851 5.36225 19.7715 5.25012C19.6579 5.13809 19.5193 5.05235 19.3672 5.00012L18.6709 4.76184C18.6227 4.74525 18.58 4.71457 18.5498 4.67297C18.5195 4.63102 18.503 4.57947 18.5029 4.52746C18.503 4.4887 18.512 4.45027 18.5293 4.41613L18.5498 4.38195L18.5752 4.35363C18.6023 4.32638 18.6354 4.30547 18.6719 4.29309L19.3672 4.0548C19.5194 4.00253 19.6578 3.91693 19.7715 3.8048C19.8851 3.69263 19.9718 3.55671 20.0244 3.40734L20.2656 2.7218C20.2788 2.68388 20.3013 2.65026 20.3301 2.62316L20.3613 2.59777L20.3965 2.57824C20.4202 2.56728 20.4458 2.55989 20.4717 2.55676L20.5117 2.5548Z" fill="black" fill-opacity="0.2"/>
<path d="M20.5117 2.5548C20.5612 2.55686 20.6093 2.57427 20.6494 2.60363C20.6794 2.62576 20.7042 2.65475 20.7217 2.68762L20.7373 2.7218L20.9785 3.40734C21.0311 3.55663 21.1179 3.69269 21.2314 3.8048C21.3451 3.91687 21.4835 4.00258 21.6357 4.0548L22.332 4.29309C22.3681 4.30549 22.4009 4.32666 22.4277 4.35363L22.4531 4.38195C22.476 4.41348 22.491 4.45116 22.4971 4.48937L22.5 4.52746L22.4971 4.56652C22.491 4.60471 22.4759 4.64145 22.4531 4.67297C22.4229 4.71463 22.3803 4.74524 22.332 4.76184L21.6357 5.00012C21.4835 5.05231 21.3452 5.13807 21.2314 5.25012C21.1179 5.36215 21.0312 5.49836 20.9785 5.64758L20.7363 6.3341C20.7191 6.38304 20.6875 6.4256 20.6455 6.45519C20.6033 6.48489 20.5523 6.50012 20.501 6.50012C20.4499 6.50001 20.3995 6.48471 20.3574 6.45519C20.3153 6.42547 20.2828 6.38227 20.2656 6.33312L20.0244 5.64855C19.9718 5.49922 19.8851 5.36225 19.7715 5.25012C19.6579 5.13809 19.5193 5.05235 19.3672 5.00012L18.6709 4.76184C18.6227 4.74525 18.58 4.71457 18.5498 4.67297C18.5195 4.63102 18.503 4.57947 18.5029 4.52746C18.503 4.4887 18.512 4.45027 18.5293 4.41613L18.5498 4.38195L18.5752 4.35363C18.6023 4.32638 18.6354 4.30547 18.6719 4.29309L19.3672 4.0548C19.5194 4.00253 19.6578 3.91693 19.7715 3.8048C19.8851 3.69263 19.9718 3.55671 20.0244 3.40734L20.2656 2.7218C20.2788 2.68388 20.3013 2.65026 20.3301 2.62316L20.3613 2.59777L20.3965 2.57824C20.4202 2.56728 20.4458 2.55989 20.4717 2.55676L20.5117 2.5548Z" fill="black" fill-opacity="0.2"/>
<path d="M20.5117 2.5548C20.5612 2.55686 20.6093 2.57427 20.6494 2.60363C20.6794 2.62576 20.7042 2.65475 20.7217 2.68762L20.7373 2.7218L20.9785 3.40734C21.0311 3.55663 21.1179 3.69269 21.2314 3.8048C21.3451 3.91687 21.4835 4.00258 21.6357 4.0548L22.332 4.29309C22.3681 4.30549 22.4009 4.32666 22.4277 4.35363L22.4531 4.38195C22.476 4.41348 22.491 4.45116 22.4971 4.48937L22.5 4.52746L22.4971 4.56652C22.491 4.60471 22.4759 4.64145 22.4531 4.67297C22.4229 4.71463 22.3803 4.74524 22.332 4.76184L21.6357 5.00012C21.4835 5.05231 21.3452 5.13807 21.2314 5.25012C21.1179 5.36215 21.0312 5.49836 20.9785 5.64758L20.7363 6.3341C20.7191 6.38304 20.6875 6.4256 20.6455 6.45519C20.6033 6.48489 20.5523 6.50012 20.501 6.50012C20.4499 6.50001 20.3995 6.48471 20.3574 6.45519C20.3153 6.42547 20.2828 6.38227 20.2656 6.33312L20.0244 5.64855C19.9718 5.49922 19.8851 5.36225 19.7715 5.25012C19.6579 5.13809 19.5193 5.05235 19.3672 5.00012L18.6709 4.76184C18.6227 4.74525 18.58 4.71457 18.5498 4.67297C18.5195 4.63102 18.503 4.57947 18.5029 4.52746C18.503 4.4887 18.512 4.45027 18.5293 4.41613L18.5498 4.38195L18.5752 4.35363C18.6023 4.32638 18.6354 4.30547 18.6719 4.29309L19.3672 4.0548C19.5194 4.00253 19.6578 3.91693 19.7715 3.8048C19.8851 3.69263 19.9718 3.55671 20.0244 3.40734L20.2656 2.7218C20.2788 2.68388 20.3013 2.65026 20.3301 2.62316L20.3613 2.59777L20.3965 2.57824C20.4202 2.56728 20.4458 2.55989 20.4717 2.55676L20.5117 2.5548Z" fill="black" fill-opacity="0.2"/>
<path d="M18.0098 0.500117C18.0456 0.501401 18.0815 0.511077 18.1133 0.527461L18.1445 0.546992C18.1835 0.575484 18.2142 0.615376 18.2305 0.66125L18.4043 1.15539C18.439 1.25391 18.4962 1.344 18.5713 1.41809C18.6464 1.49214 18.7381 1.54856 18.8389 1.58312L19.3398 1.755C19.3749 1.76718 19.4076 1.78822 19.4336 1.81457L19.457 1.84289C19.4789 1.87333 19.4931 1.90862 19.499 1.94543L19.5029 1.98352L19.499 2.01965C19.4932 2.05665 19.479 2.09257 19.457 2.12316C19.4278 2.16376 19.3867 2.19482 19.3398 2.21105L18.8389 2.38195C18.7382 2.41645 18.6464 2.47304 18.5713 2.54699C18.4961 2.62112 18.4391 2.71205 18.4043 2.81066L18.2305 3.30383C18.2136 3.35117 18.1814 3.39244 18.1406 3.42102C18.0998 3.44948 18.0514 3.46488 18.002 3.46496C17.9524 3.46491 17.9031 3.44954 17.8623 3.42102C17.8217 3.39247 17.7903 3.35197 17.7734 3.3048L17.5986 2.81066C17.5638 2.71208 17.5068 2.62107 17.4316 2.54699C17.3565 2.47315 17.2647 2.41637 17.1641 2.38195L16.6631 2.21105L16.6279 2.19543C16.5955 2.17813 16.5667 2.15345 16.5449 2.12316C16.5159 2.08265 16.5001 2.03361 16.5 1.98352C16.5 1.9457 16.5095 1.90744 16.5264 1.87414L16.5449 1.84289L16.5693 1.81457C16.5954 1.78809 16.6279 1.76819 16.6631 1.75598L17.1641 1.58312C17.2649 1.54862 17.3564 1.49217 17.4316 1.41809C17.5068 1.34398 17.5638 1.254 17.5986 1.15539L17.7734 0.66125L17.7891 0.626093C17.8014 0.603603 17.8173 0.582996 17.8359 0.565547L17.8652 0.542109L17.8984 0.523554C17.9329 0.507459 17.9715 0.498883 18.0098 0.500117Z" fill="#1D1A24"/>
<path d="M18.0098 0.500117C18.0456 0.501401 18.0815 0.511077 18.1133 0.527461L18.1445 0.546992C18.1835 0.575484 18.2142 0.615376 18.2305 0.66125L18.4043 1.15539C18.439 1.25391 18.4962 1.344 18.5713 1.41809C18.6464 1.49214 18.7381 1.54856 18.8389 1.58312L19.3398 1.755C19.3749 1.76718 19.4076 1.78822 19.4336 1.81457L19.457 1.84289C19.4789 1.87333 19.4931 1.90862 19.499 1.94543L19.5029 1.98352L19.499 2.01965C19.4932 2.05665 19.479 2.09257 19.457 2.12316C19.4278 2.16376 19.3867 2.19482 19.3398 2.21105L18.8389 2.38195C18.7382 2.41645 18.6464 2.47304 18.5713 2.54699C18.4961 2.62112 18.4391 2.71205 18.4043 2.81066L18.2305 3.30383C18.2136 3.35117 18.1814 3.39244 18.1406 3.42102C18.0998 3.44948 18.0514 3.46488 18.002 3.46496C17.9524 3.46491 17.9031 3.44954 17.8623 3.42102C17.8217 3.39247 17.7903 3.35197 17.7734 3.3048L17.5986 2.81066C17.5638 2.71208 17.5068 2.62107 17.4316 2.54699C17.3565 2.47315 17.2647 2.41637 17.1641 2.38195L16.6631 2.21105L16.6279 2.19543C16.5955 2.17813 16.5667 2.15345 16.5449 2.12316C16.5159 2.08265 16.5001 2.03361 16.5 1.98352C16.5 1.9457 16.5095 1.90744 16.5264 1.87414L16.5449 1.84289L16.5693 1.81457C16.5954 1.78809 16.6279 1.76819 16.6631 1.75598L17.1641 1.58312C17.2649 1.54862 17.3564 1.49217 17.4316 1.41809C17.5068 1.34398 17.5638 1.254 17.5986 1.15539L17.7734 0.66125L17.7891 0.626093C17.8014 0.603603 17.8173 0.582996 17.8359 0.565547L17.8652 0.542109L17.8984 0.523554C17.9329 0.507459 17.9715 0.498883 18.0098 0.500117Z" fill="black" fill-opacity="0.2"/>
<path d="M18.0098 0.500117C18.0456 0.501401 18.0815 0.511077 18.1133 0.527461L18.1445 0.546992C18.1835 0.575484 18.2142 0.615376 18.2305 0.66125L18.4043 1.15539C18.439 1.25391 18.4962 1.344 18.5713 1.41809C18.6464 1.49214 18.7381 1.54856 18.8389 1.58312L19.3398 1.755C19.3749 1.76718 19.4076 1.78822 19.4336 1.81457L19.457 1.84289C19.4789 1.87333 19.4931 1.90862 19.499 1.94543L19.5029 1.98352L19.499 2.01965C19.4932 2.05665 19.479 2.09257 19.457 2.12316C19.4278 2.16376 19.3867 2.19482 19.3398 2.21105L18.8389 2.38195C18.7382 2.41645 18.6464 2.47304 18.5713 2.54699C18.4961 2.62112 18.4391 2.71205 18.4043 2.81066L18.2305 3.30383C18.2136 3.35117 18.1814 3.39244 18.1406 3.42102C18.0998 3.44948 18.0514 3.46488 18.002 3.46496C17.9524 3.46491 17.9031 3.44954 17.8623 3.42102C17.8217 3.39247 17.7903 3.35197 17.7734 3.3048L17.5986 2.81066C17.5638 2.71208 17.5068 2.62107 17.4316 2.54699C17.3565 2.47315 17.2647 2.41637 17.1641 2.38195L16.6631 2.21105L16.6279 2.19543C16.5955 2.17813 16.5667 2.15345 16.5449 2.12316C16.5159 2.08265 16.5001 2.03361 16.5 1.98352C16.5 1.9457 16.5095 1.90744 16.5264 1.87414L16.5449 1.84289L16.5693 1.81457C16.5954 1.78809 16.6279 1.76819 16.6631 1.75598L17.1641 1.58312C17.2649 1.54862 17.3564 1.49217 17.4316 1.41809C17.5068 1.34398 17.5638 1.254 17.5986 1.15539L17.7734 0.66125L17.7891 0.626093C17.8014 0.603603 17.8173 0.582996 17.8359 0.565547L17.8652 0.542109L17.8984 0.523554C17.9329 0.507459 17.9715 0.498883 18.0098 0.500117Z" fill="black" fill-opacity="0.2"/>
<path d="M18.0098 0.500117C18.0456 0.501401 18.0815 0.511077 18.1133 0.527461L18.1445 0.546992C18.1835 0.575484 18.2142 0.615376 18.2305 0.66125L18.4043 1.15539C18.439 1.25391 18.4962 1.344 18.5713 1.41809C18.6464 1.49214 18.7381 1.54856 18.8389 1.58312L19.3398 1.755C19.3749 1.76718 19.4076 1.78822 19.4336 1.81457L19.457 1.84289C19.4789 1.87333 19.4931 1.90862 19.499 1.94543L19.5029 1.98352L19.499 2.01965C19.4932 2.05665 19.479 2.09257 19.457 2.12316C19.4278 2.16376 19.3867 2.19482 19.3398 2.21105L18.8389 2.38195C18.7382 2.41645 18.6464 2.47304 18.5713 2.54699C18.4961 2.62112 18.4391 2.71205 18.4043 2.81066L18.2305 3.30383C18.2136 3.35117 18.1814 3.39244 18.1406 3.42102C18.0998 3.44948 18.0514 3.46488 18.002 3.46496C17.9524 3.46491 17.9031 3.44954 17.8623 3.42102C17.8217 3.39247 17.7903 3.35197 17.7734 3.3048L17.5986 2.81066C17.5638 2.71208 17.5068 2.62107 17.4316 2.54699C17.3565 2.47315 17.2647 2.41637 17.1641 2.38195L16.6631 2.21105L16.6279 2.19543C16.5955 2.17813 16.5667 2.15345 16.5449 2.12316C16.5159 2.08265 16.5001 2.03361 16.5 1.98352C16.5 1.9457 16.5095 1.90744 16.5264 1.87414L16.5449 1.84289L16.5693 1.81457C16.5954 1.78809 16.6279 1.76819 16.6631 1.75598L17.1641 1.58312C17.2649 1.54862 17.3564 1.49217 17.4316 1.41809C17.5068 1.34398 17.5638 1.254 17.5986 1.15539L17.7734 0.66125L17.7891 0.626093C17.8014 0.603603 17.8173 0.582996 17.8359 0.565547L17.8652 0.542109L17.8984 0.523554C17.9329 0.507459 17.9715 0.498883 18.0098 0.500117Z" fill="black" fill-opacity="0.2"/>
<path d="M18.0098 0.500117C18.0456 0.501401 18.0815 0.511077 18.1133 0.527461L18.1445 0.546992C18.1835 0.575484 18.2142 0.615376 18.2305 0.66125L18.4043 1.15539C18.439 1.25391 18.4962 1.344 18.5713 1.41809C18.6464 1.49214 18.7381 1.54856 18.8389 1.58312L19.3398 1.755C19.3749 1.76718 19.4076 1.78822 19.4336 1.81457L19.457 1.84289C19.4789 1.87333 19.4931 1.90862 19.499 1.94543L19.5029 1.98352L19.499 2.01965C19.4932 2.05665 19.479 2.09257 19.457 2.12316C19.4278 2.16376 19.3867 2.19482 19.3398 2.21105L18.8389 2.38195C18.7382 2.41645 18.6464 2.47304 18.5713 2.54699C18.4961 2.62112 18.4391 2.71205 18.4043 2.81066L18.2305 3.30383C18.2136 3.35117 18.1814 3.39244 18.1406 3.42102C18.0998 3.44948 18.0514 3.46488 18.002 3.46496C17.9524 3.46491 17.9031 3.44954 17.8623 3.42102C17.8217 3.39247 17.7903 3.35197 17.7734 3.3048L17.5986 2.81066C17.5638 2.71208 17.5068 2.62107 17.4316 2.54699C17.3565 2.47315 17.2647 2.41637 17.1641 2.38195L16.6631 2.21105L16.6279 2.19543C16.5955 2.17813 16.5667 2.15345 16.5449 2.12316C16.5159 2.08265 16.5001 2.03361 16.5 1.98352C16.5 1.9457 16.5095 1.90744 16.5264 1.87414L16.5449 1.84289L16.5693 1.81457C16.5954 1.78809 16.6279 1.76819 16.6631 1.75598L17.1641 1.58312C17.2649 1.54862 17.3564 1.49217 17.4316 1.41809C17.5068 1.34398 17.5638 1.254 17.5986 1.15539L17.7734 0.66125L17.7891 0.626093C17.8014 0.603603 17.8173 0.582996 17.8359 0.565547L17.8652 0.542109L17.8984 0.523554C17.9329 0.507459 17.9715 0.498883 18.0098 0.500117Z" fill="black" fill-opacity="0.2"/>
<path d="M18.0098 0.500117C18.0456 0.501401 18.0815 0.511077 18.1133 0.527461L18.1445 0.546992C18.1835 0.575484 18.2142 0.615376 18.2305 0.66125L18.4043 1.15539C18.439 1.25391 18.4962 1.344 18.5713 1.41809C18.6464 1.49214 18.7381 1.54856 18.8389 1.58312L19.3398 1.755C19.3749 1.76718 19.4076 1.78822 19.4336 1.81457L19.457 1.84289C19.4789 1.87333 19.4931 1.90862 19.499 1.94543L19.5029 1.98352L19.499 2.01965C19.4932 2.05665 19.479 2.09257 19.457 2.12316C19.4278 2.16376 19.3867 2.19482 19.3398 2.21105L18.8389 2.38195C18.7382 2.41645 18.6464 2.47304 18.5713 2.54699C18.4961 2.62112 18.4391 2.71205 18.4043 2.81066L18.2305 3.30383C18.2136 3.35117 18.1814 3.39244 18.1406 3.42102C18.0998 3.44948 18.0514 3.46488 18.002 3.46496C17.9524 3.46491 17.9031 3.44954 17.8623 3.42102C17.8217 3.39247 17.7903 3.35197 17.7734 3.3048L17.5986 2.81066C17.5638 2.71208 17.5068 2.62107 17.4316 2.54699C17.3565 2.47315 17.2647 2.41637 17.1641 2.38195L16.6631 2.21105L16.6279 2.19543C16.5955 2.17813 16.5667 2.15345 16.5449 2.12316C16.5159 2.08265 16.5001 2.03361 16.5 1.98352C16.5 1.9457 16.5095 1.90744 16.5264 1.87414L16.5449 1.84289L16.5693 1.81457C16.5954 1.78809 16.6279 1.76819 16.6631 1.75598L17.1641 1.58312C17.2649 1.54862 17.3564 1.49217 17.4316 1.41809C17.5068 1.34398 17.5638 1.254 17.5986 1.15539L17.7734 0.66125L17.7891 0.626093C17.8014 0.603603 17.8173 0.582996 17.8359 0.565547L17.8652 0.542109L17.8984 0.523554C17.9329 0.507459 17.9715 0.498883 18.0098 0.500117Z" fill="black" fill-opacity="0.2"/>
</svg>
