<svg width="24" height="24" viewBox="0 0 24 24" fill="none" xmlns="http://www.w3.org/2000/svg">
<path d="M21 11.9999C21.5523 11.9999 22 12.4476 22 12.9999V14.9999C22 16.326 21.4728 17.5974 20.5352 18.5351C19.5975 19.4727 18.3261 19.9999 17 19.9999H5.41406L7.70703 22.2929C8.09752 22.6834 8.09754 23.3164 7.70703 23.707C7.31652 24.0974 6.68348 24.0974 6.29297 23.707L2.29297 19.707C2.26183 19.6758 2.23418 19.6423 2.20801 19.6083C2.19423 19.5904 2.18053 19.5725 2.16797 19.5536C2.14195 19.5146 2.11956 19.474 2.09961 19.4325C2.07753 19.3867 2.05793 19.3394 2.04297 19.29C2.038 19.2735 2.03438 19.2568 2.03027 19.2402C2.01125 19.1631 2.00001 19.0828 2 18.9999C2 18.9202 2.00974 18.8428 2.02734 18.7685C2.03231 18.7475 2.03762 18.7266 2.04395 18.706C2.05879 18.6576 2.07795 18.6112 2.09961 18.5663C2.11877 18.5265 2.1403 18.4876 2.16504 18.4501C2.20242 18.3935 2.24516 18.3407 2.29297 18.2929L6.29297 14.2929C6.68349 13.9024 7.31651 13.9024 7.70703 14.2929C8.09752 14.6834 8.09754 15.3164 7.70703 15.707L5.41406 17.9999H17C17.7956 17.9999 18.5585 17.6836 19.1211 17.121C19.6837 16.5584 20 15.7955 20 14.9999V12.9999C20 12.4476 20.4477 11.9999 21 11.9999Z" fill="#1D1A24"/>
<path d="M21 11.9999C21.5523 11.9999 22 12.4476 22 12.9999V14.9999C22 16.326 21.4728 17.5974 20.5352 18.5351C19.5975 19.4727 18.3261 19.9999 17 19.9999H5.41406L7.70703 22.2929C8.09752 22.6834 8.09754 23.3164 7.70703 23.707C7.31652 24.0974 6.68348 24.0974 6.29297 23.707L2.29297 19.707C2.26183 19.6758 2.23418 19.6423 2.20801 19.6083C2.19423 19.5904 2.18053 19.5725 2.16797 19.5536C2.14195 19.5146 2.11956 19.474 2.09961 19.4325C2.07753 19.3867 2.05793 19.3394 2.04297 19.29C2.038 19.2735 2.03438 19.2568 2.03027 19.2402C2.01125 19.1631 2.00001 19.0828 2 18.9999C2 18.9202 2.00974 18.8428 2.02734 18.7685C2.03231 18.7475 2.03762 18.7266 2.04395 18.706C2.05879 18.6576 2.07795 18.6112 2.09961 18.5663C2.11877 18.5265 2.1403 18.4876 2.16504 18.4501C2.20242 18.3935 2.24516 18.3407 2.29297 18.2929L6.29297 14.2929C6.68349 13.9024 7.31651 13.9024 7.70703 14.2929C8.09752 14.6834 8.09754 15.3164 7.70703 15.707L5.41406 17.9999H17C17.7956 17.9999 18.5585 17.6836 19.1211 17.121C19.6837 16.5584 20 15.7955 20 14.9999V12.9999C20 12.4476 20.4477 11.9999 21 11.9999Z" fill="black" fill-opacity="0.2"/>
<path d="M21 11.9999C21.5523 11.9999 22 12.4476 22 12.9999V14.9999C22 16.326 21.4728 17.5974 20.5352 18.5351C19.5975 19.4727 18.3261 19.9999 17 19.9999H5.41406L7.70703 22.2929C8.09752 22.6834 8.09754 23.3164 7.70703 23.707C7.31652 24.0974 6.68348 24.0974 6.29297 23.707L2.29297 19.707C2.26183 19.6758 2.23418 19.6423 2.20801 19.6083C2.19423 19.5904 2.18053 19.5725 2.16797 19.5536C2.14195 19.5146 2.11956 19.474 2.09961 19.4325C2.07753 19.3867 2.05793 19.3394 2.04297 19.29C2.038 19.2735 2.03438 19.2568 2.03027 19.2402C2.01125 19.1631 2.00001 19.0828 2 18.9999C2 18.9202 2.00974 18.8428 2.02734 18.7685C2.03231 18.7475 2.03762 18.7266 2.04395 18.706C2.05879 18.6576 2.07795 18.6112 2.09961 18.5663C2.11877 18.5265 2.1403 18.4876 2.16504 18.4501C2.20242 18.3935 2.24516 18.3407 2.29297 18.2929L6.29297 14.2929C6.68349 13.9024 7.31651 13.9024 7.70703 14.2929C8.09752 14.6834 8.09754 15.3164 7.70703 15.707L5.41406 17.9999H17C17.7956 17.9999 18.5585 17.6836 19.1211 17.121C19.6837 16.5584 20 15.7955 20 14.9999V12.9999C20 12.4476 20.4477 11.9999 21 11.9999Z" fill="black" fill-opacity="0.2"/>
<path d="M21 11.9999C21.5523 11.9999 22 12.4476 22 12.9999V14.9999C22 16.326 21.4728 17.5974 20.5352 18.5351C19.5975 19.4727 18.3261 19.9999 17 19.9999H5.41406L7.70703 22.2929C8.09752 22.6834 8.09754 23.3164 7.70703 23.707C7.31652 24.0974 6.68348 24.0974 6.29297 23.707L2.29297 19.707C2.26183 19.6758 2.23418 19.6423 2.20801 19.6083C2.19423 19.5904 2.18053 19.5725 2.16797 19.5536C2.14195 19.5146 2.11956 19.474 2.09961 19.4325C2.07753 19.3867 2.05793 19.3394 2.04297 19.29C2.038 19.2735 2.03438 19.2568 2.03027 19.2402C2.01125 19.1631 2.00001 19.0828 2 18.9999C2 18.9202 2.00974 18.8428 2.02734 18.7685C2.03231 18.7475 2.03762 18.7266 2.04395 18.706C2.05879 18.6576 2.07795 18.6112 2.09961 18.5663C2.11877 18.5265 2.1403 18.4876 2.16504 18.4501C2.20242 18.3935 2.24516 18.3407 2.29297 18.2929L6.29297 14.2929C6.68349 13.9024 7.31651 13.9024 7.70703 14.2929C8.09752 14.6834 8.09754 15.3164 7.70703 15.707L5.41406 17.9999H17C17.7956 17.9999 18.5585 17.6836 19.1211 17.121C19.6837 16.5584 20 15.7955 20 14.9999V12.9999C20 12.4476 20.4477 11.9999 21 11.9999Z" fill="black" fill-opacity="0.2"/>
<path d="M21 11.9999C21.5523 11.9999 22 12.4476 22 12.9999V14.9999C22 16.326 21.4728 17.5974 20.5352 18.5351C19.5975 19.4727 18.3261 19.9999 17 19.9999H5.41406L7.70703 22.2929C8.09752 22.6834 8.09754 23.3164 7.70703 23.707C7.31652 24.0974 6.68348 24.0974 6.29297 23.707L2.29297 19.707C2.26183 19.6758 2.23418 19.6423 2.20801 19.6083C2.19423 19.5904 2.18053 19.5725 2.16797 19.5536C2.14195 19.5146 2.11956 19.474 2.09961 19.4325C2.07753 19.3867 2.05793 19.3394 2.04297 19.29C2.038 19.2735 2.03438 19.2568 2.03027 19.2402C2.01125 19.1631 2.00001 19.0828 2 18.9999C2 18.9202 2.00974 18.8428 2.02734 18.7685C2.03231 18.7475 2.03762 18.7266 2.04395 18.706C2.05879 18.6576 2.07795 18.6112 2.09961 18.5663C2.11877 18.5265 2.1403 18.4876 2.16504 18.4501C2.20242 18.3935 2.24516 18.3407 2.29297 18.2929L6.29297 14.2929C6.68349 13.9024 7.31651 13.9024 7.70703 14.2929C8.09752 14.6834 8.09754 15.3164 7.70703 15.707L5.41406 17.9999H17C17.7956 17.9999 18.5585 17.6836 19.1211 17.121C19.6837 16.5584 20 15.7955 20 14.9999V12.9999C20 12.4476 20.4477 11.9999 21 11.9999Z" fill="black" fill-opacity="0.2"/>
<path d="M21 11.9999C21.5523 11.9999 22 12.4476 22 12.9999V14.9999C22 16.326 21.4728 17.5974 20.5352 18.5351C19.5975 19.4727 18.3261 19.9999 17 19.9999H5.41406L7.70703 22.2929C8.09752 22.6834 8.09754 23.3164 7.70703 23.707C7.31652 24.0974 6.68348 24.0974 6.29297 23.707L2.29297 19.707C2.26183 19.6758 2.23418 19.6423 2.20801 19.6083C2.19423 19.5904 2.18053 19.5725 2.16797 19.5536C2.14195 19.5146 2.11956 19.474 2.09961 19.4325C2.07753 19.3867 2.05793 19.3394 2.04297 19.29C2.038 19.2735 2.03438 19.2568 2.03027 19.2402C2.01125 19.1631 2.00001 19.0828 2 18.9999C2 18.9202 2.00974 18.8428 2.02734 18.7685C2.03231 18.7475 2.03762 18.7266 2.04395 18.706C2.05879 18.6576 2.07795 18.6112 2.09961 18.5663C2.11877 18.5265 2.1403 18.4876 2.16504 18.4501C2.20242 18.3935 2.24516 18.3407 2.29297 18.2929L6.29297 14.2929C6.68349 13.9024 7.31651 13.9024 7.70703 14.2929C8.09752 14.6834 8.09754 15.3164 7.70703 15.707L5.41406 17.9999H17C17.7956 17.9999 18.5585 17.6836 19.1211 17.121C19.6837 16.5584 20 15.7955 20 14.9999V12.9999C20 12.4476 20.4477 11.9999 21 11.9999Z" fill="black" fill-opacity="0.2"/>
<path d="M16.293 0.292893C16.6835 -0.0976311 17.3165 -0.0976311 17.707 0.292893L21.707 4.29289C21.7548 4.34071 21.7976 4.39346 21.835 4.45012C21.8597 4.48761 21.8812 4.52654 21.9004 4.56633C21.9222 4.61152 21.9412 4.6583 21.9561 4.70696C21.9623 4.72724 21.9668 4.74791 21.9717 4.76848C21.9893 4.84284 22 4.92017 22 4.99992C22 5.08292 21.9878 5.16305 21.9688 5.24016C21.9646 5.25709 21.9611 5.2742 21.9561 5.29094C21.9412 5.33994 21.9223 5.38705 21.9004 5.43254C21.8804 5.47421 21.8572 5.51451 21.8311 5.55364C21.7944 5.60857 21.7536 5.66043 21.707 5.70696L17.707 9.70696C17.3165 10.0974 16.6835 10.0974 16.293 9.70696C15.9025 9.31644 15.9025 8.68342 16.293 8.29289L18.5859 5.99992H7C6.20435 5.99992 5.44152 6.31622 4.87891 6.87883C4.31632 7.44144 4 8.20429 4 8.99992V10.9999C3.99996 11.5522 3.55226 11.9999 3 11.9999C2.44774 11.9999 2.00004 11.5522 2 10.9999V8.99992C2 7.67386 2.52719 6.40245 3.46484 5.46477C4.40253 4.52709 5.67392 3.99992 7 3.99992H18.5859L16.293 1.70696C15.9025 1.31644 15.9025 0.683421 16.293 0.292893Z" fill="#1D1A24"/>
<path d="M16.293 0.292893C16.6835 -0.0976311 17.3165 -0.0976311 17.707 0.292893L21.707 4.29289C21.7548 4.34071 21.7976 4.39346 21.835 4.45012C21.8597 4.48761 21.8812 4.52654 21.9004 4.56633C21.9222 4.61152 21.9412 4.6583 21.9561 4.70696C21.9623 4.72724 21.9668 4.74791 21.9717 4.76848C21.9893 4.84284 22 4.92017 22 4.99992C22 5.08292 21.9878 5.16305 21.9688 5.24016C21.9646 5.25709 21.9611 5.2742 21.9561 5.29094C21.9412 5.33994 21.9223 5.38705 21.9004 5.43254C21.8804 5.47421 21.8572 5.51451 21.8311 5.55364C21.7944 5.60857 21.7536 5.66043 21.707 5.70696L17.707 9.70696C17.3165 10.0974 16.6835 10.0974 16.293 9.70696C15.9025 9.31644 15.9025 8.68342 16.293 8.29289L18.5859 5.99992H7C6.20435 5.99992 5.44152 6.31622 4.87891 6.87883C4.31632 7.44144 4 8.20429 4 8.99992V10.9999C3.99996 11.5522 3.55226 11.9999 3 11.9999C2.44774 11.9999 2.00004 11.5522 2 10.9999V8.99992C2 7.67386 2.52719 6.40245 3.46484 5.46477C4.40253 4.52709 5.67392 3.99992 7 3.99992H18.5859L16.293 1.70696C15.9025 1.31644 15.9025 0.683421 16.293 0.292893Z" fill="black" fill-opacity="0.2"/>
<path d="M16.293 0.292893C16.6835 -0.0976311 17.3165 -0.0976311 17.707 0.292893L21.707 4.29289C21.7548 4.34071 21.7976 4.39346 21.835 4.45012C21.8597 4.48761 21.8812 4.52654 21.9004 4.56633C21.9222 4.61152 21.9412 4.6583 21.9561 4.70696C21.9623 4.72724 21.9668 4.74791 21.9717 4.76848C21.9893 4.84284 22 4.92017 22 4.99992C22 5.08292 21.9878 5.16305 21.9688 5.24016C21.9646 5.25709 21.9611 5.2742 21.9561 5.29094C21.9412 5.33994 21.9223 5.38705 21.9004 5.43254C21.8804 5.47421 21.8572 5.51451 21.8311 5.55364C21.7944 5.60857 21.7536 5.66043 21.707 5.70696L17.707 9.70696C17.3165 10.0974 16.6835 10.0974 16.293 9.70696C15.9025 9.31644 15.9025 8.68342 16.293 8.29289L18.5859 5.99992H7C6.20435 5.99992 5.44152 6.31622 4.87891 6.87883C4.31632 7.44144 4 8.20429 4 8.99992V10.9999C3.99996 11.5522 3.55226 11.9999 3 11.9999C2.44774 11.9999 2.00004 11.5522 2 10.9999V8.99992C2 7.67386 2.52719 6.40245 3.46484 5.46477C4.40253 4.52709 5.67392 3.99992 7 3.99992H18.5859L16.293 1.70696C15.9025 1.31644 15.9025 0.683421 16.293 0.292893Z" fill="black" fill-opacity="0.2"/>
<path d="M16.293 0.292893C16.6835 -0.0976311 17.3165 -0.0976311 17.707 0.292893L21.707 4.29289C21.7548 4.34071 21.7976 4.39346 21.835 4.45012C21.8597 4.48761 21.8812 4.52654 21.9004 4.56633C21.9222 4.61152 21.9412 4.6583 21.9561 4.70696C21.9623 4.72724 21.9668 4.74791 21.9717 4.76848C21.9893 4.84284 22 4.92017 22 4.99992C22 5.08292 21.9878 5.16305 21.9688 5.24016C21.9646 5.25709 21.9611 5.2742 21.9561 5.29094C21.9412 5.33994 21.9223 5.38705 21.9004 5.43254C21.8804 5.47421 21.8572 5.51451 21.8311 5.55364C21.7944 5.60857 21.7536 5.66043 21.707 5.70696L17.707 9.70696C17.3165 10.0974 16.6835 10.0974 16.293 9.70696C15.9025 9.31644 15.9025 8.68342 16.293 8.29289L18.5859 5.99992H7C6.20435 5.99992 5.44152 6.31622 4.87891 6.87883C4.31632 7.44144 4 8.20429 4 8.99992V10.9999C3.99996 11.5522 3.55226 11.9999 3 11.9999C2.44774 11.9999 2.00004 11.5522 2 10.9999V8.99992C2 7.67386 2.52719 6.40245 3.46484 5.46477C4.40253 4.52709 5.67392 3.99992 7 3.99992H18.5859L16.293 1.70696C15.9025 1.31644 15.9025 0.683421 16.293 0.292893Z" fill="black" fill-opacity="0.2"/>
<path d="M16.293 0.292893C16.6835 -0.0976311 17.3165 -0.0976311 17.707 0.292893L21.707 4.29289C21.7548 4.34071 21.7976 4.39346 21.835 4.45012C21.8597 4.48761 21.8812 4.52654 21.9004 4.56633C21.9222 4.61152 21.9412 4.6583 21.9561 4.70696C21.9623 4.72724 21.9668 4.74791 21.9717 4.76848C21.9893 4.84284 22 4.92017 22 4.99992C22 5.08292 21.9878 5.16305 21.9688 5.24016C21.9646 5.25709 21.9611 5.2742 21.9561 5.29094C21.9412 5.33994 21.9223 5.38705 21.9004 5.43254C21.8804 5.47421 21.8572 5.51451 21.8311 5.55364C21.7944 5.60857 21.7536 5.66043 21.707 5.70696L17.707 9.70696C17.3165 10.0974 16.6835 10.0974 16.293 9.70696C15.9025 9.31644 15.9025 8.68342 16.293 8.29289L18.5859 5.99992H7C6.20435 5.99992 5.44152 6.31622 4.87891 6.87883C4.31632 7.44144 4 8.20429 4 8.99992V10.9999C3.99996 11.5522 3.55226 11.9999 3 11.9999C2.44774 11.9999 2.00004 11.5522 2 10.9999V8.99992C2 7.67386 2.52719 6.40245 3.46484 5.46477C4.40253 4.52709 5.67392 3.99992 7 3.99992H18.5859L16.293 1.70696C15.9025 1.31644 15.9025 0.683421 16.293 0.292893Z" fill="black" fill-opacity="0.2"/>
<path d="M16.293 0.292893C16.6835 -0.0976311 17.3165 -0.0976311 17.707 0.292893L21.707 4.29289C21.7548 4.34071 21.7976 4.39346 21.835 4.45012C21.8597 4.48761 21.8812 4.52654 21.9004 4.56633C21.9222 4.61152 21.9412 4.6583 21.9561 4.70696C21.9623 4.72724 21.9668 4.74791 21.9717 4.76848C21.9893 4.84284 22 4.92017 22 4.99992C22 5.08292 21.9878 5.16305 21.9688 5.24016C21.9646 5.25709 21.9611 5.2742 21.9561 5.29094C21.9412 5.33994 21.9223 5.38705 21.9004 5.43254C21.8804 5.47421 21.8572 5.51451 21.8311 5.55364C21.7944 5.60857 21.7536 5.66043 21.707 5.70696L17.707 9.70696C17.3165 10.0974 16.6835 10.0974 16.293 9.70696C15.9025 9.31644 15.9025 8.68342 16.293 8.29289L18.5859 5.99992H7C6.20435 5.99992 5.44152 6.31622 4.87891 6.87883C4.31632 7.44144 4 8.20429 4 8.99992V10.9999C3.99996 11.5522 3.55226 11.9999 3 11.9999C2.44774 11.9999 2.00004 11.5522 2 10.9999V8.99992C2 7.67386 2.52719 6.40245 3.46484 5.46477C4.40253 4.52709 5.67392 3.99992 7 3.99992H18.5859L16.293 1.70696C15.9025 1.31644 15.9025 0.683421 16.293 0.292893Z" fill="black" fill-opacity="0.2"/>
</svg>
