<svg width="24" height="24" viewBox="0 0 24 24" fill="none" xmlns="http://www.w3.org/2000/svg">
<path d="M19.3104 14.7725C19.3677 14.7793 19.4234 14.7954 19.4744 14.8223L19.534 14.8594C19.6097 14.915 19.6668 14.9927 19.6981 15.082L20.1844 16.4609C20.2919 16.7664 20.4686 17.0442 20.701 17.2734C20.9044 17.4741 21.1462 17.6332 21.4119 17.7412L21.5272 17.7842L22.9266 18.2627C22.9955 18.2861 23.0581 18.3255 23.1092 18.377L23.1561 18.4326C23.2018 18.4958 23.2302 18.5695 23.2401 18.6465V18.7646C23.2301 18.8415 23.2017 18.9154 23.1561 18.9785C23.0989 19.0575 23.0181 19.1162 22.9266 19.1475L21.5272 19.626C21.2161 19.7326 20.9334 19.9076 20.701 20.1367C20.4686 20.366 20.2919 20.6447 20.1844 20.9502L19.6991 22.3281C19.6668 22.4207 19.6056 22.5007 19.5262 22.5566C19.4619 22.6018 19.3875 22.6295 19.3104 22.6387H19.2C19.1225 22.6296 19.0478 22.6021 18.9832 22.5566C18.9037 22.5006 18.8427 22.4208 18.8104 22.3281L18.325 20.9502L18.2811 20.8359C18.1722 20.5752 18.0116 20.3372 17.8084 20.1367C17.5761 19.9075 17.2933 19.7327 16.9823 19.626L15.5828 19.1475L15.5164 19.1191C15.4524 19.0858 15.3963 19.0378 15.3534 18.9785C15.3077 18.9154 15.2803 18.8416 15.2703 18.7646V18.6465C15.2772 18.5935 15.2921 18.5416 15.3162 18.4941L15.3534 18.4326L15.4012 18.377C15.4523 18.3256 15.515 18.286 15.5838 18.2627L16.9823 17.7842C17.2934 17.6775 17.5761 17.5027 17.8084 17.2734C18.0406 17.0442 18.2176 16.7663 18.325 16.4609L18.8114 15.0811C18.8364 15.0099 18.8783 14.9464 18.9325 14.8955L18.991 14.8486L19.0565 14.8115C19.1021 14.7904 19.1511 14.7772 19.201 14.7715L19.3104 14.7725Z" fill="#1D1A24"/>
<path d="M19.3104 14.7725C19.3677 14.7793 19.4234 14.7954 19.4744 14.8223L19.534 14.8594C19.6097 14.915 19.6668 14.9927 19.6981 15.082L20.1844 16.4609C20.2919 16.7664 20.4686 17.0442 20.701 17.2734C20.9044 17.4741 21.1462 17.6332 21.4119 17.7412L21.5272 17.7842L22.9266 18.2627C22.9955 18.2861 23.0581 18.3255 23.1092 18.377L23.1561 18.4326C23.2018 18.4958 23.2302 18.5695 23.2401 18.6465V18.7646C23.2301 18.8415 23.2017 18.9154 23.1561 18.9785C23.0989 19.0575 23.0181 19.1162 22.9266 19.1475L21.5272 19.626C21.2161 19.7326 20.9334 19.9076 20.701 20.1367C20.4686 20.366 20.2919 20.6447 20.1844 20.9502L19.6991 22.3281C19.6668 22.4207 19.6056 22.5007 19.5262 22.5566C19.4619 22.6018 19.3875 22.6295 19.3104 22.6387H19.2C19.1225 22.6296 19.0478 22.6021 18.9832 22.5566C18.9037 22.5006 18.8427 22.4208 18.8104 22.3281L18.325 20.9502L18.2811 20.8359C18.1722 20.5752 18.0116 20.3372 17.8084 20.1367C17.5761 19.9075 17.2933 19.7327 16.9823 19.626L15.5828 19.1475L15.5164 19.1191C15.4524 19.0858 15.3963 19.0378 15.3534 18.9785C15.3077 18.9154 15.2803 18.8416 15.2703 18.7646V18.6465C15.2772 18.5935 15.2921 18.5416 15.3162 18.4941L15.3534 18.4326L15.4012 18.377C15.4523 18.3256 15.515 18.286 15.5838 18.2627L16.9823 17.7842C17.2934 17.6775 17.5761 17.5027 17.8084 17.2734C18.0406 17.0442 18.2176 16.7663 18.325 16.4609L18.8114 15.0811C18.8364 15.0099 18.8783 14.9464 18.9325 14.8955L18.991 14.8486L19.0565 14.8115C19.1021 14.7904 19.1511 14.7772 19.201 14.7715L19.3104 14.7725Z" fill="black" fill-opacity="0.2"/>
<path d="M19.3104 14.7725C19.3677 14.7793 19.4234 14.7954 19.4744 14.8223L19.534 14.8594C19.6097 14.915 19.6668 14.9927 19.6981 15.082L20.1844 16.4609C20.2919 16.7664 20.4686 17.0442 20.701 17.2734C20.9044 17.4741 21.1462 17.6332 21.4119 17.7412L21.5272 17.7842L22.9266 18.2627C22.9955 18.2861 23.0581 18.3255 23.1092 18.377L23.1561 18.4326C23.2018 18.4958 23.2302 18.5695 23.2401 18.6465V18.7646C23.2301 18.8415 23.2017 18.9154 23.1561 18.9785C23.0989 19.0575 23.0181 19.1162 22.9266 19.1475L21.5272 19.626C21.2161 19.7326 20.9334 19.9076 20.701 20.1367C20.4686 20.366 20.2919 20.6447 20.1844 20.9502L19.6991 22.3281C19.6668 22.4207 19.6056 22.5007 19.5262 22.5566C19.4619 22.6018 19.3875 22.6295 19.3104 22.6387H19.2C19.1225 22.6296 19.0478 22.6021 18.9832 22.5566C18.9037 22.5006 18.8427 22.4208 18.8104 22.3281L18.325 20.9502L18.2811 20.8359C18.1722 20.5752 18.0116 20.3372 17.8084 20.1367C17.5761 19.9075 17.2933 19.7327 16.9823 19.626L15.5828 19.1475L15.5164 19.1191C15.4524 19.0858 15.3963 19.0378 15.3534 18.9785C15.3077 18.9154 15.2803 18.8416 15.2703 18.7646V18.6465C15.2772 18.5935 15.2921 18.5416 15.3162 18.4941L15.3534 18.4326L15.4012 18.377C15.4523 18.3256 15.515 18.286 15.5838 18.2627L16.9823 17.7842C17.2934 17.6775 17.5761 17.5027 17.8084 17.2734C18.0406 17.0442 18.2176 16.7663 18.325 16.4609L18.8114 15.0811C18.8364 15.0099 18.8783 14.9464 18.9325 14.8955L18.991 14.8486L19.0565 14.8115C19.1021 14.7904 19.1511 14.7772 19.201 14.7715L19.3104 14.7725Z" fill="black" fill-opacity="0.2"/>
<path d="M19.3104 14.7725C19.3677 14.7793 19.4234 14.7954 19.4744 14.8223L19.534 14.8594C19.6097 14.915 19.6668 14.9927 19.6981 15.082L20.1844 16.4609C20.2919 16.7664 20.4686 17.0442 20.701 17.2734C20.9044 17.4741 21.1462 17.6332 21.4119 17.7412L21.5272 17.7842L22.9266 18.2627C22.9955 18.2861 23.0581 18.3255 23.1092 18.377L23.1561 18.4326C23.2018 18.4958 23.2302 18.5695 23.2401 18.6465V18.7646C23.2301 18.8415 23.2017 18.9154 23.1561 18.9785C23.0989 19.0575 23.0181 19.1162 22.9266 19.1475L21.5272 19.626C21.2161 19.7326 20.9334 19.9076 20.701 20.1367C20.4686 20.366 20.2919 20.6447 20.1844 20.9502L19.6991 22.3281C19.6668 22.4207 19.6056 22.5007 19.5262 22.5566C19.4619 22.6018 19.3875 22.6295 19.3104 22.6387H19.2C19.1225 22.6296 19.0478 22.6021 18.9832 22.5566C18.9037 22.5006 18.8427 22.4208 18.8104 22.3281L18.325 20.9502L18.2811 20.8359C18.1722 20.5752 18.0116 20.3372 17.8084 20.1367C17.5761 19.9075 17.2933 19.7327 16.9823 19.626L15.5828 19.1475L15.5164 19.1191C15.4524 19.0858 15.3963 19.0378 15.3534 18.9785C15.3077 18.9154 15.2803 18.8416 15.2703 18.7646V18.6465C15.2772 18.5935 15.2921 18.5416 15.3162 18.4941L15.3534 18.4326L15.4012 18.377C15.4523 18.3256 15.515 18.286 15.5838 18.2627L16.9823 17.7842C17.2934 17.6775 17.5761 17.5027 17.8084 17.2734C18.0406 17.0442 18.2176 16.7663 18.325 16.4609L18.8114 15.0811C18.8364 15.0099 18.8783 14.9464 18.9325 14.8955L18.991 14.8486L19.0565 14.8115C19.1021 14.7904 19.1511 14.7772 19.201 14.7715L19.3104 14.7725Z" fill="black" fill-opacity="0.2"/>
<path d="M19.3104 14.7725C19.3677 14.7793 19.4234 14.7954 19.4744 14.8223L19.534 14.8594C19.6097 14.915 19.6668 14.9927 19.6981 15.082L20.1844 16.4609C20.2919 16.7664 20.4686 17.0442 20.701 17.2734C20.9044 17.4741 21.1462 17.6332 21.4119 17.7412L21.5272 17.7842L22.9266 18.2627C22.9955 18.2861 23.0581 18.3255 23.1092 18.377L23.1561 18.4326C23.2018 18.4958 23.2302 18.5695 23.2401 18.6465V18.7646C23.2301 18.8415 23.2017 18.9154 23.1561 18.9785C23.0989 19.0575 23.0181 19.1162 22.9266 19.1475L21.5272 19.626C21.2161 19.7326 20.9334 19.9076 20.701 20.1367C20.4686 20.366 20.2919 20.6447 20.1844 20.9502L19.6991 22.3281C19.6668 22.4207 19.6056 22.5007 19.5262 22.5566C19.4619 22.6018 19.3875 22.6295 19.3104 22.6387H19.2C19.1225 22.6296 19.0478 22.6021 18.9832 22.5566C18.9037 22.5006 18.8427 22.4208 18.8104 22.3281L18.325 20.9502L18.2811 20.8359C18.1722 20.5752 18.0116 20.3372 17.8084 20.1367C17.5761 19.9075 17.2933 19.7327 16.9823 19.626L15.5828 19.1475L15.5164 19.1191C15.4524 19.0858 15.3963 19.0378 15.3534 18.9785C15.3077 18.9154 15.2803 18.8416 15.2703 18.7646V18.6465C15.2772 18.5935 15.2921 18.5416 15.3162 18.4941L15.3534 18.4326L15.4012 18.377C15.4523 18.3256 15.515 18.286 15.5838 18.2627L16.9823 17.7842C17.2934 17.6775 17.5761 17.5027 17.8084 17.2734C18.0406 17.0442 18.2176 16.7663 18.325 16.4609L18.8114 15.0811C18.8364 15.0099 18.8783 14.9464 18.9325 14.8955L18.991 14.8486L19.0565 14.8115C19.1021 14.7904 19.1511 14.7772 19.201 14.7715L19.3104 14.7725Z" fill="black" fill-opacity="0.2"/>
<path d="M19.3104 14.7725C19.3677 14.7793 19.4234 14.7954 19.4744 14.8223L19.534 14.8594C19.6097 14.915 19.6668 14.9927 19.6981 15.082L20.1844 16.4609C20.2919 16.7664 20.4686 17.0442 20.701 17.2734C20.9044 17.4741 21.1462 17.6332 21.4119 17.7412L21.5272 17.7842L22.9266 18.2627C22.9955 18.2861 23.0581 18.3255 23.1092 18.377L23.1561 18.4326C23.2018 18.4958 23.2302 18.5695 23.2401 18.6465V18.7646C23.2301 18.8415 23.2017 18.9154 23.1561 18.9785C23.0989 19.0575 23.0181 19.1162 22.9266 19.1475L21.5272 19.626C21.2161 19.7326 20.9334 19.9076 20.701 20.1367C20.4686 20.366 20.2919 20.6447 20.1844 20.9502L19.6991 22.3281C19.6668 22.4207 19.6056 22.5007 19.5262 22.5566C19.4619 22.6018 19.3875 22.6295 19.3104 22.6387H19.2C19.1225 22.6296 19.0478 22.6021 18.9832 22.5566C18.9037 22.5006 18.8427 22.4208 18.8104 22.3281L18.325 20.9502L18.2811 20.8359C18.1722 20.5752 18.0116 20.3372 17.8084 20.1367C17.5761 19.9075 17.2933 19.7327 16.9823 19.626L15.5828 19.1475L15.5164 19.1191C15.4524 19.0858 15.3963 19.0378 15.3534 18.9785C15.3077 18.9154 15.2803 18.8416 15.2703 18.7646V18.6465C15.2772 18.5935 15.2921 18.5416 15.3162 18.4941L15.3534 18.4326L15.4012 18.377C15.4523 18.3256 15.515 18.286 15.5838 18.2627L16.9823 17.7842C17.2934 17.6775 17.5761 17.5027 17.8084 17.2734C18.0406 17.0442 18.2176 16.7663 18.325 16.4609L18.8114 15.0811C18.8364 15.0099 18.8783 14.9464 18.9325 14.8955L18.991 14.8486L19.0565 14.8115C19.1021 14.7904 19.1511 14.7772 19.201 14.7715L19.3104 14.7725Z" fill="black" fill-opacity="0.2"/>
<path fill-rule="evenodd" clip-rule="evenodd" d="M14.0369 1.36133C14.3941 1.36139 14.7489 1.4327 15.0789 1.56934C15.4087 1.70607 15.7093 1.90682 15.9618 2.15918C16.2143 2.41181 16.4149 2.71299 16.5516 3.04297C16.6881 3.37285 16.7595 3.72697 16.7596 4.08398C16.7595 4.44132 16.6883 4.79681 16.5516 5.12695C16.4148 5.45683 16.2143 5.75723 15.9618 6.00977L5.71566 16.2549C5.58981 16.3806 5.43217 16.4704 5.2596 16.5137L1.98031 17.334C1.64554 17.4174 1.29084 17.318 1.04671 17.0742C0.80278 16.83 0.705323 16.4755 0.788899 16.1406L1.60824 12.8623L1.64925 12.7363C1.69851 12.6131 1.77159 12.4998 1.86605 12.4053L12.1121 2.15918C12.6226 1.64883 13.3151 1.36136 14.0369 1.36133ZM14.0369 3.3291C13.8368 3.32913 13.6443 3.40925 13.5028 3.55078L3.45003 13.6025L3.09359 15.0264L4.51839 14.6699L14.5711 4.61816C14.6409 4.5483 14.6963 4.46522 14.7342 4.37402C14.7721 4.28255 14.7918 4.18299 14.7918 4.08398C14.7917 3.98523 14.7719 3.88619 14.7342 3.79492C14.6964 3.7039 14.6407 3.62057 14.5711 3.55078C14.5012 3.48089 14.4173 3.42464 14.326 3.38672C14.2346 3.3489 14.1359 3.32916 14.0369 3.3291Z" fill="#1D1A24"/>
<path fill-rule="evenodd" clip-rule="evenodd" d="M14.0369 1.36133C14.3941 1.36139 14.7489 1.4327 15.0789 1.56934C15.4087 1.70607 15.7093 1.90682 15.9618 2.15918C16.2143 2.41181 16.4149 2.71299 16.5516 3.04297C16.6881 3.37285 16.7595 3.72697 16.7596 4.08398C16.7595 4.44132 16.6883 4.79681 16.5516 5.12695C16.4148 5.45683 16.2143 5.75723 15.9618 6.00977L5.71566 16.2549C5.58981 16.3806 5.43217 16.4704 5.2596 16.5137L1.98031 17.334C1.64554 17.4174 1.29084 17.318 1.04671 17.0742C0.80278 16.83 0.705323 16.4755 0.788899 16.1406L1.60824 12.8623L1.64925 12.7363C1.69851 12.6131 1.77159 12.4998 1.86605 12.4053L12.1121 2.15918C12.6226 1.64883 13.3151 1.36136 14.0369 1.36133ZM14.0369 3.3291C13.8368 3.32913 13.6443 3.40925 13.5028 3.55078L3.45003 13.6025L3.09359 15.0264L4.51839 14.6699L14.5711 4.61816C14.6409 4.5483 14.6963 4.46522 14.7342 4.37402C14.7721 4.28255 14.7918 4.18299 14.7918 4.08398C14.7917 3.98523 14.7719 3.88619 14.7342 3.79492C14.6964 3.7039 14.6407 3.62057 14.5711 3.55078C14.5012 3.48089 14.4173 3.42464 14.326 3.38672C14.2346 3.3489 14.1359 3.32916 14.0369 3.3291Z" fill="black" fill-opacity="0.2"/>
<path fill-rule="evenodd" clip-rule="evenodd" d="M14.0369 1.36133C14.3941 1.36139 14.7489 1.4327 15.0789 1.56934C15.4087 1.70607 15.7093 1.90682 15.9618 2.15918C16.2143 2.41181 16.4149 2.71299 16.5516 3.04297C16.6881 3.37285 16.7595 3.72697 16.7596 4.08398C16.7595 4.44132 16.6883 4.79681 16.5516 5.12695C16.4148 5.45683 16.2143 5.75723 15.9618 6.00977L5.71566 16.2549C5.58981 16.3806 5.43217 16.4704 5.2596 16.5137L1.98031 17.334C1.64554 17.4174 1.29084 17.318 1.04671 17.0742C0.80278 16.83 0.705323 16.4755 0.788899 16.1406L1.60824 12.8623L1.64925 12.7363C1.69851 12.6131 1.77159 12.4998 1.86605 12.4053L12.1121 2.15918C12.6226 1.64883 13.3151 1.36136 14.0369 1.36133ZM14.0369 3.3291C13.8368 3.32913 13.6443 3.40925 13.5028 3.55078L3.45003 13.6025L3.09359 15.0264L4.51839 14.6699L14.5711 4.61816C14.6409 4.5483 14.6963 4.46522 14.7342 4.37402C14.7721 4.28255 14.7918 4.18299 14.7918 4.08398C14.7917 3.98523 14.7719 3.88619 14.7342 3.79492C14.6964 3.7039 14.6407 3.62057 14.5711 3.55078C14.5012 3.48089 14.4173 3.42464 14.326 3.38672C14.2346 3.3489 14.1359 3.32916 14.0369 3.3291Z" fill="black" fill-opacity="0.2"/>
<path fill-rule="evenodd" clip-rule="evenodd" d="M14.0369 1.36133C14.3941 1.36139 14.7489 1.4327 15.0789 1.56934C15.4087 1.70607 15.7093 1.90682 15.9618 2.15918C16.2143 2.41181 16.4149 2.71299 16.5516 3.04297C16.6881 3.37285 16.7595 3.72697 16.7596 4.08398C16.7595 4.44132 16.6883 4.79681 16.5516 5.12695C16.4148 5.45683 16.2143 5.75723 15.9618 6.00977L5.71566 16.2549C5.58981 16.3806 5.43217 16.4704 5.2596 16.5137L1.98031 17.334C1.64554 17.4174 1.29084 17.318 1.04671 17.0742C0.80278 16.83 0.705323 16.4755 0.788899 16.1406L1.60824 12.8623L1.64925 12.7363C1.69851 12.6131 1.77159 12.4998 1.86605 12.4053L12.1121 2.15918C12.6226 1.64883 13.3151 1.36136 14.0369 1.36133ZM14.0369 3.3291C13.8368 3.32913 13.6443 3.40925 13.5028 3.55078L3.45003 13.6025L3.09359 15.0264L4.51839 14.6699L14.5711 4.61816C14.6409 4.5483 14.6963 4.46522 14.7342 4.37402C14.7721 4.28255 14.7918 4.18299 14.7918 4.08398C14.7917 3.98523 14.7719 3.88619 14.7342 3.79492C14.6964 3.7039 14.6407 3.62057 14.5711 3.55078C14.5012 3.48089 14.4173 3.42464 14.326 3.38672C14.2346 3.3489 14.1359 3.32916 14.0369 3.3291Z" fill="black" fill-opacity="0.2"/>
<path fill-rule="evenodd" clip-rule="evenodd" d="M14.0369 1.36133C14.3941 1.36139 14.7489 1.4327 15.0789 1.56934C15.4087 1.70607 15.7093 1.90682 15.9618 2.15918C16.2143 2.41181 16.4149 2.71299 16.5516 3.04297C16.6881 3.37285 16.7595 3.72697 16.7596 4.08398C16.7595 4.44132 16.6883 4.79681 16.5516 5.12695C16.4148 5.45683 16.2143 5.75723 15.9618 6.00977L5.71566 16.2549C5.58981 16.3806 5.43217 16.4704 5.2596 16.5137L1.98031 17.334C1.64554 17.4174 1.29084 17.318 1.04671 17.0742C0.80278 16.83 0.705323 16.4755 0.788899 16.1406L1.60824 12.8623L1.64925 12.7363C1.69851 12.6131 1.77159 12.4998 1.86605 12.4053L12.1121 2.15918C12.6226 1.64883 13.3151 1.36136 14.0369 1.36133ZM14.0369 3.3291C13.8368 3.32913 13.6443 3.40925 13.5028 3.55078L3.45003 13.6025L3.09359 15.0264L4.51839 14.6699L14.5711 4.61816C14.6409 4.5483 14.6963 4.46522 14.7342 4.37402C14.7721 4.28255 14.7918 4.18299 14.7918 4.08398C14.7917 3.98523 14.7719 3.88619 14.7342 3.79492C14.6964 3.7039 14.6407 3.62057 14.5711 3.55078C14.5012 3.48089 14.4173 3.42464 14.326 3.38672C14.2346 3.3489 14.1359 3.32916 14.0369 3.3291Z" fill="black" fill-opacity="0.2"/>
<path fill-rule="evenodd" clip-rule="evenodd" d="M14.0369 1.36133C14.3941 1.36139 14.7489 1.4327 15.0789 1.56934C15.4087 1.70607 15.7093 1.90682 15.9618 2.15918C16.2143 2.41181 16.4149 2.71299 16.5516 3.04297C16.6881 3.37285 16.7595 3.72697 16.7596 4.08398C16.7595 4.44132 16.6883 4.79681 16.5516 5.12695C16.4148 5.45683 16.2143 5.75723 15.9618 6.00977L5.71566 16.2549C5.58981 16.3806 5.43217 16.4704 5.2596 16.5137L1.98031 17.334C1.64554 17.4174 1.29084 17.318 1.04671 17.0742C0.80278 16.83 0.705323 16.4755 0.788899 16.1406L1.60824 12.8623L1.64925 12.7363C1.69851 12.6131 1.77159 12.4998 1.86605 12.4053L12.1121 2.15918C12.6226 1.64883 13.3151 1.36136 14.0369 1.36133ZM14.0369 3.3291C13.8368 3.32913 13.6443 3.40925 13.5028 3.55078L3.45003 13.6025L3.09359 15.0264L4.51839 14.6699L14.5711 4.61816C14.6409 4.5483 14.6963 4.46522 14.7342 4.37402C14.7721 4.28255 14.7918 4.18299 14.7918 4.08398C14.7917 3.98523 14.7719 3.88619 14.7342 3.79492C14.6964 3.7039 14.6407 3.62057 14.5711 3.55078C14.5012 3.48089 14.4173 3.42464 14.326 3.38672C14.2346 3.3489 14.1359 3.32916 14.0369 3.3291Z" fill="black" fill-opacity="0.2"/>
<path fill-rule="evenodd" clip-rule="evenodd" d="M14.2694 10.6377C14.3274 10.6434 14.3846 10.6587 14.4364 10.6855L14.494 10.7217C14.5675 10.7753 14.6235 10.8501 14.6541 10.9365L15.0047 11.9316C15.0763 12.1345 15.1939 12.3192 15.3485 12.4717C15.5032 12.6242 15.6919 12.7405 15.8993 12.8115L16.9071 13.1572L17.0018 13.2021C17.0312 13.2206 17.0583 13.2428 17.0828 13.2676L17.1287 13.3223C17.1738 13.3851 17.2002 13.4586 17.2088 13.5352V13.6328C17.2005 13.7104 17.1744 13.7851 17.1287 13.8486C17.0737 13.9252 16.9954 13.9821 16.9071 14.0127L15.8993 14.3584C15.6918 14.4295 15.5032 14.5466 15.3485 14.6992C15.1939 14.8517 15.0762 15.0363 15.0047 15.2393L14.6541 16.2334C14.6224 16.3223 14.5638 16.3994 14.4871 16.4531C14.4225 16.4983 14.347 16.5246 14.2694 16.5322H14.1805C14.103 16.5246 14.0273 16.4982 13.9627 16.4531C13.8862 16.3995 13.8274 16.3231 13.7957 16.2344L13.4451 15.2393C13.3736 15.0363 13.256 14.8517 13.1014 14.6992C12.9466 14.5467 12.7581 14.4294 12.5506 14.3584L11.5418 14.0127C11.4536 13.9821 11.3751 13.9251 11.3201 13.8486C11.2745 13.785 11.2484 13.7104 11.2401 13.6328V13.5352C11.246 13.4818 11.26 13.4296 11.284 13.3818L11.3201 13.3223L11.366 13.2676C11.415 13.2181 11.4749 13.1801 11.5409 13.1572L12.5506 12.8115C12.758 12.7405 12.9466 12.6241 13.1014 12.4717C13.2561 12.3193 13.3735 12.1345 13.4451 11.9316L13.7957 10.9375C13.82 10.8688 13.8606 10.807 13.9129 10.7578L13.9696 10.7119L14.0321 10.6768C14.0788 10.655 14.1293 10.6428 14.1805 10.6377H14.2694ZM12.911 14.2061L12.8241 14.1611C12.8113 14.1551 12.7979 14.1502 12.785 14.1445C12.8278 14.1635 12.87 14.1838 12.911 14.2061Z" fill="#1D1A24"/>
<path fill-rule="evenodd" clip-rule="evenodd" d="M14.2694 10.6377C14.3274 10.6434 14.3846 10.6587 14.4364 10.6855L14.494 10.7217C14.5675 10.7753 14.6235 10.8501 14.6541 10.9365L15.0047 11.9316C15.0763 12.1345 15.1939 12.3192 15.3485 12.4717C15.5032 12.6242 15.6919 12.7405 15.8993 12.8115L16.9071 13.1572L17.0018 13.2021C17.0312 13.2206 17.0583 13.2428 17.0828 13.2676L17.1287 13.3223C17.1738 13.3851 17.2002 13.4586 17.2088 13.5352V13.6328C17.2005 13.7104 17.1744 13.7851 17.1287 13.8486C17.0737 13.9252 16.9954 13.9821 16.9071 14.0127L15.8993 14.3584C15.6918 14.4295 15.5032 14.5466 15.3485 14.6992C15.1939 14.8517 15.0762 15.0363 15.0047 15.2393L14.6541 16.2334C14.6224 16.3223 14.5638 16.3994 14.4871 16.4531C14.4225 16.4983 14.347 16.5246 14.2694 16.5322H14.1805C14.103 16.5246 14.0273 16.4982 13.9627 16.4531C13.8862 16.3995 13.8274 16.3231 13.7957 16.2344L13.4451 15.2393C13.3736 15.0363 13.256 14.8517 13.1014 14.6992C12.9466 14.5467 12.7581 14.4294 12.5506 14.3584L11.5418 14.0127C11.4536 13.9821 11.3751 13.9251 11.3201 13.8486C11.2745 13.785 11.2484 13.7104 11.2401 13.6328V13.5352C11.246 13.4818 11.26 13.4296 11.284 13.3818L11.3201 13.3223L11.366 13.2676C11.415 13.2181 11.4749 13.1801 11.5409 13.1572L12.5506 12.8115C12.758 12.7405 12.9466 12.6241 13.1014 12.4717C13.2561 12.3193 13.3735 12.1345 13.4451 11.9316L13.7957 10.9375C13.82 10.8688 13.8606 10.807 13.9129 10.7578L13.9696 10.7119L14.0321 10.6768C14.0788 10.655 14.1293 10.6428 14.1805 10.6377H14.2694ZM12.911 14.2061L12.8241 14.1611C12.8113 14.1551 12.7979 14.1502 12.785 14.1445C12.8278 14.1635 12.87 14.1838 12.911 14.2061Z" fill="black" fill-opacity="0.2"/>
<path fill-rule="evenodd" clip-rule="evenodd" d="M14.2694 10.6377C14.3274 10.6434 14.3846 10.6587 14.4364 10.6855L14.494 10.7217C14.5675 10.7753 14.6235 10.8501 14.6541 10.9365L15.0047 11.9316C15.0763 12.1345 15.1939 12.3192 15.3485 12.4717C15.5032 12.6242 15.6919 12.7405 15.8993 12.8115L16.9071 13.1572L17.0018 13.2021C17.0312 13.2206 17.0583 13.2428 17.0828 13.2676L17.1287 13.3223C17.1738 13.3851 17.2002 13.4586 17.2088 13.5352V13.6328C17.2005 13.7104 17.1744 13.7851 17.1287 13.8486C17.0737 13.9252 16.9954 13.9821 16.9071 14.0127L15.8993 14.3584C15.6918 14.4295 15.5032 14.5466 15.3485 14.6992C15.1939 14.8517 15.0762 15.0363 15.0047 15.2393L14.6541 16.2334C14.6224 16.3223 14.5638 16.3994 14.4871 16.4531C14.4225 16.4983 14.347 16.5246 14.2694 16.5322H14.1805C14.103 16.5246 14.0273 16.4982 13.9627 16.4531C13.8862 16.3995 13.8274 16.3231 13.7957 16.2344L13.4451 15.2393C13.3736 15.0363 13.256 14.8517 13.1014 14.6992C12.9466 14.5467 12.7581 14.4294 12.5506 14.3584L11.5418 14.0127C11.4536 13.9821 11.3751 13.9251 11.3201 13.8486C11.2745 13.785 11.2484 13.7104 11.2401 13.6328V13.5352C11.246 13.4818 11.26 13.4296 11.284 13.3818L11.3201 13.3223L11.366 13.2676C11.415 13.2181 11.4749 13.1801 11.5409 13.1572L12.5506 12.8115C12.758 12.7405 12.9466 12.6241 13.1014 12.4717C13.2561 12.3193 13.3735 12.1345 13.4451 11.9316L13.7957 10.9375C13.82 10.8688 13.8606 10.807 13.9129 10.7578L13.9696 10.7119L14.0321 10.6768C14.0788 10.655 14.1293 10.6428 14.1805 10.6377H14.2694ZM12.911 14.2061L12.8241 14.1611C12.8113 14.1551 12.7979 14.1502 12.785 14.1445C12.8278 14.1635 12.87 14.1838 12.911 14.2061Z" fill="black" fill-opacity="0.2"/>
<path fill-rule="evenodd" clip-rule="evenodd" d="M14.2694 10.6377C14.3274 10.6434 14.3846 10.6587 14.4364 10.6855L14.494 10.7217C14.5675 10.7753 14.6235 10.8501 14.6541 10.9365L15.0047 11.9316C15.0763 12.1345 15.1939 12.3192 15.3485 12.4717C15.5032 12.6242 15.6919 12.7405 15.8993 12.8115L16.9071 13.1572L17.0018 13.2021C17.0312 13.2206 17.0583 13.2428 17.0828 13.2676L17.1287 13.3223C17.1738 13.3851 17.2002 13.4586 17.2088 13.5352V13.6328C17.2005 13.7104 17.1744 13.7851 17.1287 13.8486C17.0737 13.9252 16.9954 13.9821 16.9071 14.0127L15.8993 14.3584C15.6918 14.4295 15.5032 14.5466 15.3485 14.6992C15.1939 14.8517 15.0762 15.0363 15.0047 15.2393L14.6541 16.2334C14.6224 16.3223 14.5638 16.3994 14.4871 16.4531C14.4225 16.4983 14.347 16.5246 14.2694 16.5322H14.1805C14.103 16.5246 14.0273 16.4982 13.9627 16.4531C13.8862 16.3995 13.8274 16.3231 13.7957 16.2344L13.4451 15.2393C13.3736 15.0363 13.256 14.8517 13.1014 14.6992C12.9466 14.5467 12.7581 14.4294 12.5506 14.3584L11.5418 14.0127C11.4536 13.9821 11.3751 13.9251 11.3201 13.8486C11.2745 13.785 11.2484 13.7104 11.2401 13.6328V13.5352C11.246 13.4818 11.26 13.4296 11.284 13.3818L11.3201 13.3223L11.366 13.2676C11.415 13.2181 11.4749 13.1801 11.5409 13.1572L12.5506 12.8115C12.758 12.7405 12.9466 12.6241 13.1014 12.4717C13.2561 12.3193 13.3735 12.1345 13.4451 11.9316L13.7957 10.9375C13.82 10.8688 13.8606 10.807 13.9129 10.7578L13.9696 10.7119L14.0321 10.6768C14.0788 10.655 14.1293 10.6428 14.1805 10.6377H14.2694ZM12.911 14.2061L12.8241 14.1611C12.8113 14.1551 12.7979 14.1502 12.785 14.1445C12.8278 14.1635 12.87 14.1838 12.911 14.2061Z" fill="black" fill-opacity="0.2"/>
<path fill-rule="evenodd" clip-rule="evenodd" d="M14.2694 10.6377C14.3274 10.6434 14.3846 10.6587 14.4364 10.6855L14.494 10.7217C14.5675 10.7753 14.6235 10.8501 14.6541 10.9365L15.0047 11.9316C15.0763 12.1345 15.1939 12.3192 15.3485 12.4717C15.5032 12.6242 15.6919 12.7405 15.8993 12.8115L16.9071 13.1572L17.0018 13.2021C17.0312 13.2206 17.0583 13.2428 17.0828 13.2676L17.1287 13.3223C17.1738 13.3851 17.2002 13.4586 17.2088 13.5352V13.6328C17.2005 13.7104 17.1744 13.7851 17.1287 13.8486C17.0737 13.9252 16.9954 13.9821 16.9071 14.0127L15.8993 14.3584C15.6918 14.4295 15.5032 14.5466 15.3485 14.6992C15.1939 14.8517 15.0762 15.0363 15.0047 15.2393L14.6541 16.2334C14.6224 16.3223 14.5638 16.3994 14.4871 16.4531C14.4225 16.4983 14.347 16.5246 14.2694 16.5322H14.1805C14.103 16.5246 14.0273 16.4982 13.9627 16.4531C13.8862 16.3995 13.8274 16.3231 13.7957 16.2344L13.4451 15.2393C13.3736 15.0363 13.256 14.8517 13.1014 14.6992C12.9466 14.5467 12.7581 14.4294 12.5506 14.3584L11.5418 14.0127C11.4536 13.9821 11.3751 13.9251 11.3201 13.8486C11.2745 13.785 11.2484 13.7104 11.2401 13.6328V13.5352C11.246 13.4818 11.26 13.4296 11.284 13.3818L11.3201 13.3223L11.366 13.2676C11.415 13.2181 11.4749 13.1801 11.5409 13.1572L12.5506 12.8115C12.758 12.7405 12.9466 12.6241 13.1014 12.4717C13.2561 12.3193 13.3735 12.1345 13.4451 11.9316L13.7957 10.9375C13.82 10.8688 13.8606 10.807 13.9129 10.7578L13.9696 10.7119L14.0321 10.6768C14.0788 10.655 14.1293 10.6428 14.1805 10.6377H14.2694ZM12.911 14.2061L12.8241 14.1611C12.8113 14.1551 12.7979 14.1502 12.785 14.1445C12.8278 14.1635 12.87 14.1838 12.911 14.2061Z" fill="black" fill-opacity="0.2"/>
<path fill-rule="evenodd" clip-rule="evenodd" d="M14.2694 10.6377C14.3274 10.6434 14.3846 10.6587 14.4364 10.6855L14.494 10.7217C14.5675 10.7753 14.6235 10.8501 14.6541 10.9365L15.0047 11.9316C15.0763 12.1345 15.1939 12.3192 15.3485 12.4717C15.5032 12.6242 15.6919 12.7405 15.8993 12.8115L16.9071 13.1572L17.0018 13.2021C17.0312 13.2206 17.0583 13.2428 17.0828 13.2676L17.1287 13.3223C17.1738 13.3851 17.2002 13.4586 17.2088 13.5352V13.6328C17.2005 13.7104 17.1744 13.7851 17.1287 13.8486C17.0737 13.9252 16.9954 13.9821 16.9071 14.0127L15.8993 14.3584C15.6918 14.4295 15.5032 14.5466 15.3485 14.6992C15.1939 14.8517 15.0762 15.0363 15.0047 15.2393L14.6541 16.2334C14.6224 16.3223 14.5638 16.3994 14.4871 16.4531C14.4225 16.4983 14.347 16.5246 14.2694 16.5322H14.1805C14.103 16.5246 14.0273 16.4982 13.9627 16.4531C13.8862 16.3995 13.8274 16.3231 13.7957 16.2344L13.4451 15.2393C13.3736 15.0363 13.256 14.8517 13.1014 14.6992C12.9466 14.5467 12.7581 14.4294 12.5506 14.3584L11.5418 14.0127C11.4536 13.9821 11.3751 13.9251 11.3201 13.8486C11.2745 13.785 11.2484 13.7104 11.2401 13.6328V13.5352C11.246 13.4818 11.26 13.4296 11.284 13.3818L11.3201 13.3223L11.366 13.2676C11.415 13.2181 11.4749 13.1801 11.5409 13.1572L12.5506 12.8115C12.758 12.7405 12.9466 12.6241 13.1014 12.4717C13.2561 12.3193 13.3735 12.1345 13.4451 11.9316L13.7957 10.9375C13.82 10.8688 13.8606 10.807 13.9129 10.7578L13.9696 10.7119L14.0321 10.6768C14.0788 10.655 14.1293 10.6428 14.1805 10.6377H14.2694ZM12.911 14.2061L12.8241 14.1611C12.8113 14.1551 12.7979 14.1502 12.785 14.1445C12.8278 14.1635 12.87 14.1838 12.911 14.2061Z" fill="black" fill-opacity="0.2"/>
</svg>
