<svg width="24" height="24" viewBox="0 0 24 24" fill="none" xmlns="http://www.w3.org/2000/svg">
<path d="M18.9103 9.87744C18.9676 9.88426 19.0233 9.90038 19.0744 9.92724L19.1339 9.96435C19.2096 10.02 19.2668 10.0977 19.298 10.187L19.7843 11.5659C19.8918 11.8714 20.0686 12.1492 20.3009 12.3784C20.5043 12.579 20.7461 12.7382 21.0119 12.8462L21.1271 12.8892L22.5265 13.3677C22.5954 13.3911 22.658 13.4305 22.7091 13.4819L22.756 13.5376C22.8017 13.6008 22.8301 13.6745 22.84 13.7515V13.8696C22.83 13.9465 22.8017 14.0204 22.756 14.0835C22.6988 14.1625 22.6181 14.2212 22.5265 14.2524L21.1271 14.731C20.816 14.8375 20.5333 15.0126 20.3009 15.2417C20.0685 15.4709 19.8919 15.7497 19.7843 16.0552L19.299 17.4331C19.2667 17.5257 19.2055 17.6056 19.1261 17.6616C19.0619 17.7068 18.9875 17.7345 18.9103 17.7436H18.8C18.7224 17.7346 18.6477 17.707 18.5832 17.6616C18.5037 17.6056 18.4426 17.5257 18.4103 17.4331L17.925 16.0552L17.881 15.9409C17.7721 15.6801 17.6115 15.4422 17.4083 15.2417C17.1761 15.0125 16.8932 14.8377 16.5822 14.731L15.1828 14.2524L15.1164 14.2241C15.0523 14.1908 14.9962 14.1428 14.9533 14.0835C14.9076 14.0203 14.8802 13.9466 14.8703 13.8696V13.7515C14.8771 13.6984 14.892 13.6466 14.9162 13.5991L14.9533 13.5376L15.0011 13.4819C15.0522 13.4306 15.1149 13.391 15.1837 13.3677L16.5822 12.8892C16.8933 12.7824 17.176 12.6077 17.4083 12.3784C17.6405 12.1492 17.8175 11.8712 17.925 11.5659L18.4113 10.186C18.4363 10.1148 18.4782 10.0514 18.5324 10.0005L18.591 9.95361L18.6564 9.9165C18.702 9.89537 18.751 9.88221 18.8009 9.87646L18.9103 9.87744Z" fill="#1D1A24"/>
<path d="M18.9103 9.87744C18.9676 9.88426 19.0233 9.90038 19.0744 9.92724L19.1339 9.96435C19.2096 10.02 19.2668 10.0977 19.298 10.187L19.7843 11.5659C19.8918 11.8714 20.0686 12.1492 20.3009 12.3784C20.5043 12.579 20.7461 12.7382 21.0119 12.8462L21.1271 12.8892L22.5265 13.3677C22.5954 13.3911 22.658 13.4305 22.7091 13.4819L22.756 13.5376C22.8017 13.6008 22.8301 13.6745 22.84 13.7515V13.8696C22.83 13.9465 22.8017 14.0204 22.756 14.0835C22.6988 14.1625 22.6181 14.2212 22.5265 14.2524L21.1271 14.731C20.816 14.8375 20.5333 15.0126 20.3009 15.2417C20.0685 15.4709 19.8919 15.7497 19.7843 16.0552L19.299 17.4331C19.2667 17.5257 19.2055 17.6056 19.1261 17.6616C19.0619 17.7068 18.9875 17.7345 18.9103 17.7436H18.8C18.7224 17.7346 18.6477 17.707 18.5832 17.6616C18.5037 17.6056 18.4426 17.5257 18.4103 17.4331L17.925 16.0552L17.881 15.9409C17.7721 15.6801 17.6115 15.4422 17.4083 15.2417C17.1761 15.0125 16.8932 14.8377 16.5822 14.731L15.1828 14.2524L15.1164 14.2241C15.0523 14.1908 14.9962 14.1428 14.9533 14.0835C14.9076 14.0203 14.8802 13.9466 14.8703 13.8696V13.7515C14.8771 13.6984 14.892 13.6466 14.9162 13.5991L14.9533 13.5376L15.0011 13.4819C15.0522 13.4306 15.1149 13.391 15.1837 13.3677L16.5822 12.8892C16.8933 12.7824 17.176 12.6077 17.4083 12.3784C17.6405 12.1492 17.8175 11.8712 17.925 11.5659L18.4113 10.186C18.4363 10.1148 18.4782 10.0514 18.5324 10.0005L18.591 9.95361L18.6564 9.9165C18.702 9.89537 18.751 9.88221 18.8009 9.87646L18.9103 9.87744Z" fill="black" fill-opacity="0.2"/>
<path d="M18.9103 9.87744C18.9676 9.88426 19.0233 9.90038 19.0744 9.92724L19.1339 9.96435C19.2096 10.02 19.2668 10.0977 19.298 10.187L19.7843 11.5659C19.8918 11.8714 20.0686 12.1492 20.3009 12.3784C20.5043 12.579 20.7461 12.7382 21.0119 12.8462L21.1271 12.8892L22.5265 13.3677C22.5954 13.3911 22.658 13.4305 22.7091 13.4819L22.756 13.5376C22.8017 13.6008 22.8301 13.6745 22.84 13.7515V13.8696C22.83 13.9465 22.8017 14.0204 22.756 14.0835C22.6988 14.1625 22.6181 14.2212 22.5265 14.2524L21.1271 14.731C20.816 14.8375 20.5333 15.0126 20.3009 15.2417C20.0685 15.4709 19.8919 15.7497 19.7843 16.0552L19.299 17.4331C19.2667 17.5257 19.2055 17.6056 19.1261 17.6616C19.0619 17.7068 18.9875 17.7345 18.9103 17.7436H18.8C18.7224 17.7346 18.6477 17.707 18.5832 17.6616C18.5037 17.6056 18.4426 17.5257 18.4103 17.4331L17.925 16.0552L17.881 15.9409C17.7721 15.6801 17.6115 15.4422 17.4083 15.2417C17.1761 15.0125 16.8932 14.8377 16.5822 14.731L15.1828 14.2524L15.1164 14.2241C15.0523 14.1908 14.9962 14.1428 14.9533 14.0835C14.9076 14.0203 14.8802 13.9466 14.8703 13.8696V13.7515C14.8771 13.6984 14.892 13.6466 14.9162 13.5991L14.9533 13.5376L15.0011 13.4819C15.0522 13.4306 15.1149 13.391 15.1837 13.3677L16.5822 12.8892C16.8933 12.7824 17.176 12.6077 17.4083 12.3784C17.6405 12.1492 17.8175 11.8712 17.925 11.5659L18.4113 10.186C18.4363 10.1148 18.4782 10.0514 18.5324 10.0005L18.591 9.95361L18.6564 9.9165C18.702 9.89537 18.751 9.88221 18.8009 9.87646L18.9103 9.87744Z" fill="black" fill-opacity="0.2"/>
<path d="M18.9103 9.87744C18.9676 9.88426 19.0233 9.90038 19.0744 9.92724L19.1339 9.96435C19.2096 10.02 19.2668 10.0977 19.298 10.187L19.7843 11.5659C19.8918 11.8714 20.0686 12.1492 20.3009 12.3784C20.5043 12.579 20.7461 12.7382 21.0119 12.8462L21.1271 12.8892L22.5265 13.3677C22.5954 13.3911 22.658 13.4305 22.7091 13.4819L22.756 13.5376C22.8017 13.6008 22.8301 13.6745 22.84 13.7515V13.8696C22.83 13.9465 22.8017 14.0204 22.756 14.0835C22.6988 14.1625 22.6181 14.2212 22.5265 14.2524L21.1271 14.731C20.816 14.8375 20.5333 15.0126 20.3009 15.2417C20.0685 15.4709 19.8919 15.7497 19.7843 16.0552L19.299 17.4331C19.2667 17.5257 19.2055 17.6056 19.1261 17.6616C19.0619 17.7068 18.9875 17.7345 18.9103 17.7436H18.8C18.7224 17.7346 18.6477 17.707 18.5832 17.6616C18.5037 17.6056 18.4426 17.5257 18.4103 17.4331L17.925 16.0552L17.881 15.9409C17.7721 15.6801 17.6115 15.4422 17.4083 15.2417C17.1761 15.0125 16.8932 14.8377 16.5822 14.731L15.1828 14.2524L15.1164 14.2241C15.0523 14.1908 14.9962 14.1428 14.9533 14.0835C14.9076 14.0203 14.8802 13.9466 14.8703 13.8696V13.7515C14.8771 13.6984 14.892 13.6466 14.9162 13.5991L14.9533 13.5376L15.0011 13.4819C15.0522 13.4306 15.1149 13.391 15.1837 13.3677L16.5822 12.8892C16.8933 12.7824 17.176 12.6077 17.4083 12.3784C17.6405 12.1492 17.8175 11.8712 17.925 11.5659L18.4113 10.186C18.4363 10.1148 18.4782 10.0514 18.5324 10.0005L18.591 9.95361L18.6564 9.9165C18.702 9.89537 18.751 9.88221 18.8009 9.87646L18.9103 9.87744Z" fill="black" fill-opacity="0.2"/>
<path d="M18.9103 9.87744C18.9676 9.88426 19.0233 9.90038 19.0744 9.92724L19.1339 9.96435C19.2096 10.02 19.2668 10.0977 19.298 10.187L19.7843 11.5659C19.8918 11.8714 20.0686 12.1492 20.3009 12.3784C20.5043 12.579 20.7461 12.7382 21.0119 12.8462L21.1271 12.8892L22.5265 13.3677C22.5954 13.3911 22.658 13.4305 22.7091 13.4819L22.756 13.5376C22.8017 13.6008 22.8301 13.6745 22.84 13.7515V13.8696C22.83 13.9465 22.8017 14.0204 22.756 14.0835C22.6988 14.1625 22.6181 14.2212 22.5265 14.2524L21.1271 14.731C20.816 14.8375 20.5333 15.0126 20.3009 15.2417C20.0685 15.4709 19.8919 15.7497 19.7843 16.0552L19.299 17.4331C19.2667 17.5257 19.2055 17.6056 19.1261 17.6616C19.0619 17.7068 18.9875 17.7345 18.9103 17.7436H18.8C18.7224 17.7346 18.6477 17.707 18.5832 17.6616C18.5037 17.6056 18.4426 17.5257 18.4103 17.4331L17.925 16.0552L17.881 15.9409C17.7721 15.6801 17.6115 15.4422 17.4083 15.2417C17.1761 15.0125 16.8932 14.8377 16.5822 14.731L15.1828 14.2524L15.1164 14.2241C15.0523 14.1908 14.9962 14.1428 14.9533 14.0835C14.9076 14.0203 14.8802 13.9466 14.8703 13.8696V13.7515C14.8771 13.6984 14.892 13.6466 14.9162 13.5991L14.9533 13.5376L15.0011 13.4819C15.0522 13.4306 15.1149 13.391 15.1837 13.3677L16.5822 12.8892C16.8933 12.7824 17.176 12.6077 17.4083 12.3784C17.6405 12.1492 17.8175 11.8712 17.925 11.5659L18.4113 10.186C18.4363 10.1148 18.4782 10.0514 18.5324 10.0005L18.591 9.95361L18.6564 9.9165C18.702 9.89537 18.751 9.88221 18.8009 9.87646L18.9103 9.87744Z" fill="black" fill-opacity="0.2"/>
<path d="M18.9103 9.87744C18.9676 9.88426 19.0233 9.90038 19.0744 9.92724L19.1339 9.96435C19.2096 10.02 19.2668 10.0977 19.298 10.187L19.7843 11.5659C19.8918 11.8714 20.0686 12.1492 20.3009 12.3784C20.5043 12.579 20.7461 12.7382 21.0119 12.8462L21.1271 12.8892L22.5265 13.3677C22.5954 13.3911 22.658 13.4305 22.7091 13.4819L22.756 13.5376C22.8017 13.6008 22.8301 13.6745 22.84 13.7515V13.8696C22.83 13.9465 22.8017 14.0204 22.756 14.0835C22.6988 14.1625 22.6181 14.2212 22.5265 14.2524L21.1271 14.731C20.816 14.8375 20.5333 15.0126 20.3009 15.2417C20.0685 15.4709 19.8919 15.7497 19.7843 16.0552L19.299 17.4331C19.2667 17.5257 19.2055 17.6056 19.1261 17.6616C19.0619 17.7068 18.9875 17.7345 18.9103 17.7436H18.8C18.7224 17.7346 18.6477 17.707 18.5832 17.6616C18.5037 17.6056 18.4426 17.5257 18.4103 17.4331L17.925 16.0552L17.881 15.9409C17.7721 15.6801 17.6115 15.4422 17.4083 15.2417C17.1761 15.0125 16.8932 14.8377 16.5822 14.731L15.1828 14.2524L15.1164 14.2241C15.0523 14.1908 14.9962 14.1428 14.9533 14.0835C14.9076 14.0203 14.8802 13.9466 14.8703 13.8696V13.7515C14.8771 13.6984 14.892 13.6466 14.9162 13.5991L14.9533 13.5376L15.0011 13.4819C15.0522 13.4306 15.1149 13.391 15.1837 13.3677L16.5822 12.8892C16.8933 12.7824 17.176 12.6077 17.4083 12.3784C17.6405 12.1492 17.8175 11.8712 17.925 11.5659L18.4113 10.186C18.4363 10.1148 18.4782 10.0514 18.5324 10.0005L18.591 9.95361L18.6564 9.9165C18.702 9.89537 18.751 9.88221 18.8009 9.87646L18.9103 9.87744Z" fill="black" fill-opacity="0.2"/>
<path fill-rule="evenodd" clip-rule="evenodd" d="M14.4376 2.86426C14.7948 2.86432 15.1495 2.93563 15.4796 3.07227C15.8093 3.209 16.1099 3.40974 16.3624 3.66211C16.6149 3.91474 16.8155 4.21592 16.9522 4.5459C17.0888 4.87578 17.1602 5.2299 17.1602 5.58691C17.1602 5.94425 17.089 6.29974 16.9522 6.62988C16.8154 6.95976 16.6149 7.26016 16.3624 7.5127L6.11629 17.7578C5.99044 17.8836 5.83281 17.9733 5.66024 18.0166L2.38094 18.8369C2.04617 18.9204 1.69147 18.8209 1.44735 18.5771C1.20341 18.333 1.10596 17.9784 1.18953 17.6436L2.00887 14.3652L2.04989 14.2393C2.09914 14.116 2.17223 14.0027 2.26668 13.9082L12.5128 3.66211C13.0233 3.15176 13.7157 2.86429 14.4376 2.86426ZM14.4376 4.83203C14.2374 4.83206 14.045 4.91218 13.9034 5.05371L3.85067 15.1055L3.49422 16.5293L4.91903 16.1729L14.9718 6.12109C15.0416 6.05123 15.097 5.96815 15.1348 5.87695C15.1727 5.78548 15.1924 5.68592 15.1925 5.58691C15.1924 5.48816 15.1726 5.38912 15.1348 5.29785C15.097 5.20683 15.0414 5.1235 14.9718 5.05371C14.9018 4.98382 14.8179 4.92757 14.7266 4.88965C14.6352 4.85183 14.5365 4.83209 14.4376 4.83203Z" fill="#1D1A24"/>
<path fill-rule="evenodd" clip-rule="evenodd" d="M14.4376 2.86426C14.7948 2.86432 15.1495 2.93563 15.4796 3.07227C15.8093 3.209 16.1099 3.40974 16.3624 3.66211C16.6149 3.91474 16.8155 4.21592 16.9522 4.5459C17.0888 4.87578 17.1602 5.2299 17.1602 5.58691C17.1602 5.94425 17.089 6.29974 16.9522 6.62988C16.8154 6.95976 16.6149 7.26016 16.3624 7.5127L6.11629 17.7578C5.99044 17.8836 5.83281 17.9733 5.66024 18.0166L2.38094 18.8369C2.04617 18.9204 1.69147 18.8209 1.44735 18.5771C1.20341 18.333 1.10596 17.9784 1.18953 17.6436L2.00887 14.3652L2.04989 14.2393C2.09914 14.116 2.17223 14.0027 2.26668 13.9082L12.5128 3.66211C13.0233 3.15176 13.7157 2.86429 14.4376 2.86426ZM14.4376 4.83203C14.2374 4.83206 14.045 4.91218 13.9034 5.05371L3.85067 15.1055L3.49422 16.5293L4.91903 16.1729L14.9718 6.12109C15.0416 6.05123 15.097 5.96815 15.1348 5.87695C15.1727 5.78548 15.1924 5.68592 15.1925 5.58691C15.1924 5.48816 15.1726 5.38912 15.1348 5.29785C15.097 5.20683 15.0414 5.1235 14.9718 5.05371C14.9018 4.98382 14.8179 4.92757 14.7266 4.88965C14.6352 4.85183 14.5365 4.83209 14.4376 4.83203Z" fill="black" fill-opacity="0.2"/>
<path fill-rule="evenodd" clip-rule="evenodd" d="M14.4376 2.86426C14.7948 2.86432 15.1495 2.93563 15.4796 3.07227C15.8093 3.209 16.1099 3.40974 16.3624 3.66211C16.6149 3.91474 16.8155 4.21592 16.9522 4.5459C17.0888 4.87578 17.1602 5.2299 17.1602 5.58691C17.1602 5.94425 17.089 6.29974 16.9522 6.62988C16.8154 6.95976 16.6149 7.26016 16.3624 7.5127L6.11629 17.7578C5.99044 17.8836 5.83281 17.9733 5.66024 18.0166L2.38094 18.8369C2.04617 18.9204 1.69147 18.8209 1.44735 18.5771C1.20341 18.333 1.10596 17.9784 1.18953 17.6436L2.00887 14.3652L2.04989 14.2393C2.09914 14.116 2.17223 14.0027 2.26668 13.9082L12.5128 3.66211C13.0233 3.15176 13.7157 2.86429 14.4376 2.86426ZM14.4376 4.83203C14.2374 4.83206 14.045 4.91218 13.9034 5.05371L3.85067 15.1055L3.49422 16.5293L4.91903 16.1729L14.9718 6.12109C15.0416 6.05123 15.097 5.96815 15.1348 5.87695C15.1727 5.78548 15.1924 5.68592 15.1925 5.58691C15.1924 5.48816 15.1726 5.38912 15.1348 5.29785C15.097 5.20683 15.0414 5.1235 14.9718 5.05371C14.9018 4.98382 14.8179 4.92757 14.7266 4.88965C14.6352 4.85183 14.5365 4.83209 14.4376 4.83203Z" fill="black" fill-opacity="0.2"/>
<path fill-rule="evenodd" clip-rule="evenodd" d="M14.4376 2.86426C14.7948 2.86432 15.1495 2.93563 15.4796 3.07227C15.8093 3.209 16.1099 3.40974 16.3624 3.66211C16.6149 3.91474 16.8155 4.21592 16.9522 4.5459C17.0888 4.87578 17.1602 5.2299 17.1602 5.58691C17.1602 5.94425 17.089 6.29974 16.9522 6.62988C16.8154 6.95976 16.6149 7.26016 16.3624 7.5127L6.11629 17.7578C5.99044 17.8836 5.83281 17.9733 5.66024 18.0166L2.38094 18.8369C2.04617 18.9204 1.69147 18.8209 1.44735 18.5771C1.20341 18.333 1.10596 17.9784 1.18953 17.6436L2.00887 14.3652L2.04989 14.2393C2.09914 14.116 2.17223 14.0027 2.26668 13.9082L12.5128 3.66211C13.0233 3.15176 13.7157 2.86429 14.4376 2.86426ZM14.4376 4.83203C14.2374 4.83206 14.045 4.91218 13.9034 5.05371L3.85067 15.1055L3.49422 16.5293L4.91903 16.1729L14.9718 6.12109C15.0416 6.05123 15.097 5.96815 15.1348 5.87695C15.1727 5.78548 15.1924 5.68592 15.1925 5.58691C15.1924 5.48816 15.1726 5.38912 15.1348 5.29785C15.097 5.20683 15.0414 5.1235 14.9718 5.05371C14.9018 4.98382 14.8179 4.92757 14.7266 4.88965C14.6352 4.85183 14.5365 4.83209 14.4376 4.83203Z" fill="black" fill-opacity="0.2"/>
<path fill-rule="evenodd" clip-rule="evenodd" d="M14.4376 2.86426C14.7948 2.86432 15.1495 2.93563 15.4796 3.07227C15.8093 3.209 16.1099 3.40974 16.3624 3.66211C16.6149 3.91474 16.8155 4.21592 16.9522 4.5459C17.0888 4.87578 17.1602 5.2299 17.1602 5.58691C17.1602 5.94425 17.089 6.29974 16.9522 6.62988C16.8154 6.95976 16.6149 7.26016 16.3624 7.5127L6.11629 17.7578C5.99044 17.8836 5.83281 17.9733 5.66024 18.0166L2.38094 18.8369C2.04617 18.9204 1.69147 18.8209 1.44735 18.5771C1.20341 18.333 1.10596 17.9784 1.18953 17.6436L2.00887 14.3652L2.04989 14.2393C2.09914 14.116 2.17223 14.0027 2.26668 13.9082L12.5128 3.66211C13.0233 3.15176 13.7157 2.86429 14.4376 2.86426ZM14.4376 4.83203C14.2374 4.83206 14.045 4.91218 13.9034 5.05371L3.85067 15.1055L3.49422 16.5293L4.91903 16.1729L14.9718 6.12109C15.0416 6.05123 15.097 5.96815 15.1348 5.87695C15.1727 5.78548 15.1924 5.68592 15.1925 5.58691C15.1924 5.48816 15.1726 5.38912 15.1348 5.29785C15.097 5.20683 15.0414 5.1235 14.9718 5.05371C14.9018 4.98382 14.8179 4.92757 14.7266 4.88965C14.6352 4.85183 14.5365 4.83209 14.4376 4.83203Z" fill="black" fill-opacity="0.2"/>
<path fill-rule="evenodd" clip-rule="evenodd" d="M14.4376 2.86426C14.7948 2.86432 15.1495 2.93563 15.4796 3.07227C15.8093 3.209 16.1099 3.40974 16.3624 3.66211C16.6149 3.91474 16.8155 4.21592 16.9522 4.5459C17.0888 4.87578 17.1602 5.2299 17.1602 5.58691C17.1602 5.94425 17.089 6.29974 16.9522 6.62988C16.8154 6.95976 16.6149 7.26016 16.3624 7.5127L6.11629 17.7578C5.99044 17.8836 5.83281 17.9733 5.66024 18.0166L2.38094 18.8369C2.04617 18.9204 1.69147 18.8209 1.44735 18.5771C1.20341 18.333 1.10596 17.9784 1.18953 17.6436L2.00887 14.3652L2.04989 14.2393C2.09914 14.116 2.17223 14.0027 2.26668 13.9082L12.5128 3.66211C13.0233 3.15176 13.7157 2.86429 14.4376 2.86426ZM14.4376 4.83203C14.2374 4.83206 14.045 4.91218 13.9034 5.05371L3.85067 15.1055L3.49422 16.5293L4.91903 16.1729L14.9718 6.12109C15.0416 6.05123 15.097 5.96815 15.1348 5.87695C15.1727 5.78548 15.1924 5.68592 15.1925 5.58691C15.1924 5.48816 15.1726 5.38912 15.1348 5.29785C15.097 5.20683 15.0414 5.1235 14.9718 5.05371C14.9018 4.98382 14.8179 4.92757 14.7266 4.88965C14.6352 4.85183 14.5365 4.83209 14.4376 4.83203Z" fill="black" fill-opacity="0.2"/>
<path fill-rule="evenodd" clip-rule="evenodd" d="M14.4689 15.2417C14.527 15.2474 14.5842 15.2627 14.6359 15.2895L14.6935 15.3257C14.767 15.3793 14.8231 15.4541 14.8537 15.5405L15.2042 16.5356C15.2758 16.7385 15.3934 16.9232 15.548 17.0757C15.7027 17.2282 15.8914 17.3445 16.0988 17.4155L17.1066 17.7612L17.2013 17.8061C17.2307 17.8246 17.2579 17.8468 17.2824 17.8716L17.3283 17.9263C17.3733 17.9891 17.3998 18.0626 17.4083 18.1392V18.2368C17.4001 18.3144 17.3739 18.3891 17.3283 18.4526C17.2732 18.5292 17.195 18.5861 17.1066 18.6167L16.0988 18.9624C15.8914 19.0335 15.7028 19.1506 15.548 19.3032C15.3934 19.4557 15.2758 19.6403 15.2042 19.8433L14.8537 20.8374C14.822 20.9263 14.7633 21.0034 14.6867 21.0571C14.622 21.1023 14.5465 21.1286 14.4689 21.1362H14.38C14.3025 21.1286 14.2268 21.1022 14.1623 21.0571C14.0857 21.0035 14.027 20.9271 13.9953 20.8384L13.6447 19.8433C13.5731 19.6403 13.4556 19.4557 13.3009 19.3032C13.1461 19.1507 12.9576 19.0334 12.7501 18.9624L11.7414 18.6167C11.6531 18.5861 11.5747 18.5291 11.5197 18.4526C11.474 18.389 11.4479 18.3144 11.4396 18.2368V18.1392C11.4456 18.0858 11.4595 18.0336 11.4835 17.9858L11.5197 17.9263L11.5656 17.8716C11.6145 17.8221 11.6744 17.7841 11.7404 17.7612L12.7501 17.4155C12.9575 17.3445 13.1462 17.2281 13.3009 17.0757C13.4556 16.9233 13.573 16.7385 13.6447 16.5356L13.9953 15.5415C14.0196 15.4728 14.0601 15.411 14.1124 15.3618L14.1691 15.3159L14.2316 15.2808C14.2783 15.259 14.3288 15.2468 14.38 15.2417H14.4689ZM13.1105 18.8101L13.0236 18.7651C13.0108 18.7591 12.9974 18.7542 12.9845 18.7485C13.0273 18.7675 13.0695 18.7878 13.1105 18.8101Z" fill="#1D1A24"/>
<path fill-rule="evenodd" clip-rule="evenodd" d="M14.4689 15.2417C14.527 15.2474 14.5842 15.2627 14.6359 15.2895L14.6935 15.3257C14.767 15.3793 14.8231 15.4541 14.8537 15.5405L15.2042 16.5356C15.2758 16.7385 15.3934 16.9232 15.548 17.0757C15.7027 17.2282 15.8914 17.3445 16.0988 17.4155L17.1066 17.7612L17.2013 17.8061C17.2307 17.8246 17.2579 17.8468 17.2824 17.8716L17.3283 17.9263C17.3733 17.9891 17.3998 18.0626 17.4083 18.1392V18.2368C17.4001 18.3144 17.3739 18.3891 17.3283 18.4526C17.2732 18.5292 17.195 18.5861 17.1066 18.6167L16.0988 18.9624C15.8914 19.0335 15.7028 19.1506 15.548 19.3032C15.3934 19.4557 15.2758 19.6403 15.2042 19.8433L14.8537 20.8374C14.822 20.9263 14.7633 21.0034 14.6867 21.0571C14.622 21.1023 14.5465 21.1286 14.4689 21.1362H14.38C14.3025 21.1286 14.2268 21.1022 14.1623 21.0571C14.0857 21.0035 14.027 20.9271 13.9953 20.8384L13.6447 19.8433C13.5731 19.6403 13.4556 19.4557 13.3009 19.3032C13.1461 19.1507 12.9576 19.0334 12.7501 18.9624L11.7414 18.6167C11.6531 18.5861 11.5747 18.5291 11.5197 18.4526C11.474 18.389 11.4479 18.3144 11.4396 18.2368V18.1392C11.4456 18.0858 11.4595 18.0336 11.4835 17.9858L11.5197 17.9263L11.5656 17.8716C11.6145 17.8221 11.6744 17.7841 11.7404 17.7612L12.7501 17.4155C12.9575 17.3445 13.1462 17.2281 13.3009 17.0757C13.4556 16.9233 13.573 16.7385 13.6447 16.5356L13.9953 15.5415C14.0196 15.4728 14.0601 15.411 14.1124 15.3618L14.1691 15.3159L14.2316 15.2808C14.2783 15.259 14.3288 15.2468 14.38 15.2417H14.4689ZM13.1105 18.8101L13.0236 18.7651C13.0108 18.7591 12.9974 18.7542 12.9845 18.7485C13.0273 18.7675 13.0695 18.7878 13.1105 18.8101Z" fill="black" fill-opacity="0.2"/>
<path fill-rule="evenodd" clip-rule="evenodd" d="M14.4689 15.2417C14.527 15.2474 14.5842 15.2627 14.6359 15.2895L14.6935 15.3257C14.767 15.3793 14.8231 15.4541 14.8537 15.5405L15.2042 16.5356C15.2758 16.7385 15.3934 16.9232 15.548 17.0757C15.7027 17.2282 15.8914 17.3445 16.0988 17.4155L17.1066 17.7612L17.2013 17.8061C17.2307 17.8246 17.2579 17.8468 17.2824 17.8716L17.3283 17.9263C17.3733 17.9891 17.3998 18.0626 17.4083 18.1392V18.2368C17.4001 18.3144 17.3739 18.3891 17.3283 18.4526C17.2732 18.5292 17.195 18.5861 17.1066 18.6167L16.0988 18.9624C15.8914 19.0335 15.7028 19.1506 15.548 19.3032C15.3934 19.4557 15.2758 19.6403 15.2042 19.8433L14.8537 20.8374C14.822 20.9263 14.7633 21.0034 14.6867 21.0571C14.622 21.1023 14.5465 21.1286 14.4689 21.1362H14.38C14.3025 21.1286 14.2268 21.1022 14.1623 21.0571C14.0857 21.0035 14.027 20.9271 13.9953 20.8384L13.6447 19.8433C13.5731 19.6403 13.4556 19.4557 13.3009 19.3032C13.1461 19.1507 12.9576 19.0334 12.7501 18.9624L11.7414 18.6167C11.6531 18.5861 11.5747 18.5291 11.5197 18.4526C11.474 18.389 11.4479 18.3144 11.4396 18.2368V18.1392C11.4456 18.0858 11.4595 18.0336 11.4835 17.9858L11.5197 17.9263L11.5656 17.8716C11.6145 17.8221 11.6744 17.7841 11.7404 17.7612L12.7501 17.4155C12.9575 17.3445 13.1462 17.2281 13.3009 17.0757C13.4556 16.9233 13.573 16.7385 13.6447 16.5356L13.9953 15.5415C14.0196 15.4728 14.0601 15.411 14.1124 15.3618L14.1691 15.3159L14.2316 15.2808C14.2783 15.259 14.3288 15.2468 14.38 15.2417H14.4689ZM13.1105 18.8101L13.0236 18.7651C13.0108 18.7591 12.9974 18.7542 12.9845 18.7485C13.0273 18.7675 13.0695 18.7878 13.1105 18.8101Z" fill="black" fill-opacity="0.2"/>
<path fill-rule="evenodd" clip-rule="evenodd" d="M14.4689 15.2417C14.527 15.2474 14.5842 15.2627 14.6359 15.2895L14.6935 15.3257C14.767 15.3793 14.8231 15.4541 14.8537 15.5405L15.2042 16.5356C15.2758 16.7385 15.3934 16.9232 15.548 17.0757C15.7027 17.2282 15.8914 17.3445 16.0988 17.4155L17.1066 17.7612L17.2013 17.8061C17.2307 17.8246 17.2579 17.8468 17.2824 17.8716L17.3283 17.9263C17.3733 17.9891 17.3998 18.0626 17.4083 18.1392V18.2368C17.4001 18.3144 17.3739 18.3891 17.3283 18.4526C17.2732 18.5292 17.195 18.5861 17.1066 18.6167L16.0988 18.9624C15.8914 19.0335 15.7028 19.1506 15.548 19.3032C15.3934 19.4557 15.2758 19.6403 15.2042 19.8433L14.8537 20.8374C14.822 20.9263 14.7633 21.0034 14.6867 21.0571C14.622 21.1023 14.5465 21.1286 14.4689 21.1362H14.38C14.3025 21.1286 14.2268 21.1022 14.1623 21.0571C14.0857 21.0035 14.027 20.9271 13.9953 20.8384L13.6447 19.8433C13.5731 19.6403 13.4556 19.4557 13.3009 19.3032C13.1461 19.1507 12.9576 19.0334 12.7501 18.9624L11.7414 18.6167C11.6531 18.5861 11.5747 18.5291 11.5197 18.4526C11.474 18.389 11.4479 18.3144 11.4396 18.2368V18.1392C11.4456 18.0858 11.4595 18.0336 11.4835 17.9858L11.5197 17.9263L11.5656 17.8716C11.6145 17.8221 11.6744 17.7841 11.7404 17.7612L12.7501 17.4155C12.9575 17.3445 13.1462 17.2281 13.3009 17.0757C13.4556 16.9233 13.573 16.7385 13.6447 16.5356L13.9953 15.5415C14.0196 15.4728 14.0601 15.411 14.1124 15.3618L14.1691 15.3159L14.2316 15.2808C14.2783 15.259 14.3288 15.2468 14.38 15.2417H14.4689ZM13.1105 18.8101L13.0236 18.7651C13.0108 18.7591 12.9974 18.7542 12.9845 18.7485C13.0273 18.7675 13.0695 18.7878 13.1105 18.8101Z" fill="black" fill-opacity="0.2"/>
<path fill-rule="evenodd" clip-rule="evenodd" d="M14.4689 15.2417C14.527 15.2474 14.5842 15.2627 14.6359 15.2895L14.6935 15.3257C14.767 15.3793 14.8231 15.4541 14.8537 15.5405L15.2042 16.5356C15.2758 16.7385 15.3934 16.9232 15.548 17.0757C15.7027 17.2282 15.8914 17.3445 16.0988 17.4155L17.1066 17.7612L17.2013 17.8061C17.2307 17.8246 17.2579 17.8468 17.2824 17.8716L17.3283 17.9263C17.3733 17.9891 17.3998 18.0626 17.4083 18.1392V18.2368C17.4001 18.3144 17.3739 18.3891 17.3283 18.4526C17.2732 18.5292 17.195 18.5861 17.1066 18.6167L16.0988 18.9624C15.8914 19.0335 15.7028 19.1506 15.548 19.3032C15.3934 19.4557 15.2758 19.6403 15.2042 19.8433L14.8537 20.8374C14.822 20.9263 14.7633 21.0034 14.6867 21.0571C14.622 21.1023 14.5465 21.1286 14.4689 21.1362H14.38C14.3025 21.1286 14.2268 21.1022 14.1623 21.0571C14.0857 21.0035 14.027 20.9271 13.9953 20.8384L13.6447 19.8433C13.5731 19.6403 13.4556 19.4557 13.3009 19.3032C13.1461 19.1507 12.9576 19.0334 12.7501 18.9624L11.7414 18.6167C11.6531 18.5861 11.5747 18.5291 11.5197 18.4526C11.474 18.389 11.4479 18.3144 11.4396 18.2368V18.1392C11.4456 18.0858 11.4595 18.0336 11.4835 17.9858L11.5197 17.9263L11.5656 17.8716C11.6145 17.8221 11.6744 17.7841 11.7404 17.7612L12.7501 17.4155C12.9575 17.3445 13.1462 17.2281 13.3009 17.0757C13.4556 16.9233 13.573 16.7385 13.6447 16.5356L13.9953 15.5415C14.0196 15.4728 14.0601 15.411 14.1124 15.3618L14.1691 15.3159L14.2316 15.2808C14.2783 15.259 14.3288 15.2468 14.38 15.2417H14.4689ZM13.1105 18.8101L13.0236 18.7651C13.0108 18.7591 12.9974 18.7542 12.9845 18.7485C13.0273 18.7675 13.0695 18.7878 13.1105 18.8101Z" fill="black" fill-opacity="0.2"/>
<path fill-rule="evenodd" clip-rule="evenodd" d="M14.4689 15.2417C14.527 15.2474 14.5842 15.2627 14.6359 15.2895L14.6935 15.3257C14.767 15.3793 14.8231 15.4541 14.8537 15.5405L15.2042 16.5356C15.2758 16.7385 15.3934 16.9232 15.548 17.0757C15.7027 17.2282 15.8914 17.3445 16.0988 17.4155L17.1066 17.7612L17.2013 17.8061C17.2307 17.8246 17.2579 17.8468 17.2824 17.8716L17.3283 17.9263C17.3733 17.9891 17.3998 18.0626 17.4083 18.1392V18.2368C17.4001 18.3144 17.3739 18.3891 17.3283 18.4526C17.2732 18.5292 17.195 18.5861 17.1066 18.6167L16.0988 18.9624C15.8914 19.0335 15.7028 19.1506 15.548 19.3032C15.3934 19.4557 15.2758 19.6403 15.2042 19.8433L14.8537 20.8374C14.822 20.9263 14.7633 21.0034 14.6867 21.0571C14.622 21.1023 14.5465 21.1286 14.4689 21.1362H14.38C14.3025 21.1286 14.2268 21.1022 14.1623 21.0571C14.0857 21.0035 14.027 20.9271 13.9953 20.8384L13.6447 19.8433C13.5731 19.6403 13.4556 19.4557 13.3009 19.3032C13.1461 19.1507 12.9576 19.0334 12.7501 18.9624L11.7414 18.6167C11.6531 18.5861 11.5747 18.5291 11.5197 18.4526C11.474 18.389 11.4479 18.3144 11.4396 18.2368V18.1392C11.4456 18.0858 11.4595 18.0336 11.4835 17.9858L11.5197 17.9263L11.5656 17.8716C11.6145 17.8221 11.6744 17.7841 11.7404 17.7612L12.7501 17.4155C12.9575 17.3445 13.1462 17.2281 13.3009 17.0757C13.4556 16.9233 13.573 16.7385 13.6447 16.5356L13.9953 15.5415C14.0196 15.4728 14.0601 15.411 14.1124 15.3618L14.1691 15.3159L14.2316 15.2808C14.2783 15.259 14.3288 15.2468 14.38 15.2417H14.4689ZM13.1105 18.8101L13.0236 18.7651C13.0108 18.7591 12.9974 18.7542 12.9845 18.7485C13.0273 18.7675 13.0695 18.7878 13.1105 18.8101Z" fill="black" fill-opacity="0.2"/>
</svg>
