<svg width="24" height="24" viewBox="0 0 24 24" fill="none" xmlns="http://www.w3.org/2000/svg">
<path d="M19.8259 10.8213C20.4742 10.8213 21 11.3491 21 12V19.857C21 20.6905 20.67 21.4899 20.0829 22.0793C19.4958 22.6686 18.6997 23 17.8694 23H6.13056C5.30033 23 4.50416 22.6686 3.9171 22.0793C3.33004 21.4899 3 20.6905 3 19.857V12C3 11.3491 3.52576 10.8213 4.17408 10.8213C4.8224 10.8213 5.34816 11.3491 5.34816 12V19.857L5.35198 19.9347C5.36978 20.1145 5.44903 20.2834 5.57743 20.4123C5.7242 20.5597 5.923 20.6425 6.13056 20.6425H17.8694C18.077 20.6425 18.2758 20.5597 18.4226 20.4123C18.5693 20.265 18.6518 20.0654 18.6518 19.857V12C18.6518 11.3491 19.1776 10.8213 19.8259 10.8213Z" fill="#1D1A24"/>
<path d="M19.8259 10.8213C20.4742 10.8213 21 11.3491 21 12V19.857C21 20.6905 20.67 21.4899 20.0829 22.0793C19.4958 22.6686 18.6997 23 17.8694 23H6.13056C5.30033 23 4.50416 22.6686 3.9171 22.0793C3.33004 21.4899 3 20.6905 3 19.857V12C3 11.3491 3.52576 10.8213 4.17408 10.8213C4.8224 10.8213 5.34816 11.3491 5.34816 12V19.857L5.35198 19.9347C5.36978 20.1145 5.44903 20.2834 5.57743 20.4123C5.7242 20.5597 5.923 20.6425 6.13056 20.6425H17.8694C18.077 20.6425 18.2758 20.5597 18.4226 20.4123C18.5693 20.265 18.6518 20.0654 18.6518 19.857V12C18.6518 11.3491 19.1776 10.8213 19.8259 10.8213Z" fill="black" fill-opacity="0.2"/>
<path d="M19.8259 10.8213C20.4742 10.8213 21 11.3491 21 12V19.857C21 20.6905 20.67 21.4899 20.0829 22.0793C19.4958 22.6686 18.6997 23 17.8694 23H6.13056C5.30033 23 4.50416 22.6686 3.9171 22.0793C3.33004 21.4899 3 20.6905 3 19.857V12C3 11.3491 3.52576 10.8213 4.17408 10.8213C4.8224 10.8213 5.34816 11.3491 5.34816 12V19.857L5.35198 19.9347C5.36978 20.1145 5.44903 20.2834 5.57743 20.4123C5.7242 20.5597 5.923 20.6425 6.13056 20.6425H17.8694C18.077 20.6425 18.2758 20.5597 18.4226 20.4123C18.5693 20.265 18.6518 20.0654 18.6518 19.857V12C18.6518 11.3491 19.1776 10.8213 19.8259 10.8213Z" fill="black" fill-opacity="0.2"/>
<path d="M19.8259 10.8213C20.4742 10.8213 21 11.3491 21 12V19.857C21 20.6905 20.67 21.4899 20.0829 22.0793C19.4958 22.6686 18.6997 23 17.8694 23H6.13056C5.30033 23 4.50416 22.6686 3.9171 22.0793C3.33004 21.4899 3 20.6905 3 19.857V12C3 11.3491 3.52576 10.8213 4.17408 10.8213C4.8224 10.8213 5.34816 11.3491 5.34816 12V19.857L5.35198 19.9347C5.36978 20.1145 5.44903 20.2834 5.57743 20.4123C5.7242 20.5597 5.923 20.6425 6.13056 20.6425H17.8694C18.077 20.6425 18.2758 20.5597 18.4226 20.4123C18.5693 20.265 18.6518 20.0654 18.6518 19.857V12C18.6518 11.3491 19.1776 10.8213 19.8259 10.8213Z" fill="black" fill-opacity="0.2"/>
<path d="M19.8259 10.8213C20.4742 10.8213 21 11.3491 21 12V19.857C21 20.6905 20.67 21.4899 20.0829 22.0793C19.4958 22.6686 18.6997 23 17.8694 23H6.13056C5.30033 23 4.50416 22.6686 3.9171 22.0793C3.33004 21.4899 3 20.6905 3 19.857V12C3 11.3491 3.52576 10.8213 4.17408 10.8213C4.8224 10.8213 5.34816 11.3491 5.34816 12V19.857L5.35198 19.9347C5.36978 20.1145 5.44903 20.2834 5.57743 20.4123C5.7242 20.5597 5.923 20.6425 6.13056 20.6425H17.8694C18.077 20.6425 18.2758 20.5597 18.4226 20.4123C18.5693 20.265 18.6518 20.0654 18.6518 19.857V12C18.6518 11.3491 19.1776 10.8213 19.8259 10.8213Z" fill="black" fill-opacity="0.2"/>
<path d="M19.8259 10.8213C20.4742 10.8213 21 11.3491 21 12V19.857C21 20.6905 20.67 21.4899 20.0829 22.0793C19.4958 22.6686 18.6997 23 17.8694 23H6.13056C5.30033 23 4.50416 22.6686 3.9171 22.0793C3.33004 21.4899 3 20.6905 3 19.857V12C3 11.3491 3.52576 10.8213 4.17408 10.8213C4.8224 10.8213 5.34816 11.3491 5.34816 12V19.857L5.35198 19.9347C5.36978 20.1145 5.44903 20.2834 5.57743 20.4123C5.7242 20.5597 5.923 20.6425 6.13056 20.6425H17.8694C18.077 20.6425 18.2758 20.5597 18.4226 20.4123C18.5693 20.265 18.6518 20.0654 18.6518 19.857V12C18.6518 11.3491 19.1776 10.8213 19.8259 10.8213Z" fill="black" fill-opacity="0.2"/>
<path d="M12.0363 1.00096C12.0487 1.00134 12.0611 1.0021 12.0736 1.00288C12.0996 1.0045 12.1254 1.00725 12.1509 1.01055C12.1624 1.01204 12.1739 1.01352 12.1853 1.01535C12.2091 1.01914 12.2327 1.02356 12.256 1.02877C12.2682 1.0315 12.2802 1.03524 12.2923 1.03836C12.3161 1.04449 12.3399 1.05 12.363 1.05755C12.3795 1.0629 12.3955 1.06966 12.4117 1.07577C12.4281 1.08194 12.4444 1.08808 12.4605 1.09495C12.4796 1.10312 12.4981 1.11257 12.5168 1.12181C12.5323 1.12945 12.5485 1.13556 12.5636 1.14387C12.6594 1.19647 12.7491 1.26389 12.8302 1.34528L16.7431 5.27378C17.2016 5.73403 17.2016 6.48046 16.7431 6.94071C16.2847 7.40096 15.5412 7.40096 15.0828 6.94071L13.1741 5.02441V14.9464C13.1741 15.5973 12.6483 16.1251 12 16.1251C11.3517 16.1251 10.8259 15.5973 10.8259 14.9464V5.02441L8.91721 6.94071C8.45877 7.40096 7.7153 7.40096 7.25687 6.94071C6.79844 6.48046 6.79844 5.73403 7.25687 5.27378L11.1698 1.34528L11.2587 1.26471C11.3744 1.16988 11.5039 1.10044 11.6398 1.05659C11.6599 1.05009 11.6804 1.04475 11.701 1.03932C11.7175 1.03497 11.734 1.03048 11.7507 1.02686C11.7715 1.02234 11.7925 1.01874 11.8137 1.01535C11.8271 1.0132 11.8404 1.01127 11.8538 1.00959C11.8747 1.00699 11.8957 1.00533 11.9169 1.00384C11.9363 1.00246 11.9557 1.00137 11.9752 1.00096C11.9834 1.00079 11.9917 1 12 1C12.0121 1 12.0242 1.00059 12.0363 1.00096Z" fill="#1D1A24"/>
<path d="M12.0363 1.00096C12.0487 1.00134 12.0611 1.0021 12.0736 1.00288C12.0996 1.0045 12.1254 1.00725 12.1509 1.01055C12.1624 1.01204 12.1739 1.01352 12.1853 1.01535C12.2091 1.01914 12.2327 1.02356 12.256 1.02877C12.2682 1.0315 12.2802 1.03524 12.2923 1.03836C12.3161 1.04449 12.3399 1.05 12.363 1.05755C12.3795 1.0629 12.3955 1.06966 12.4117 1.07577C12.4281 1.08194 12.4444 1.08808 12.4605 1.09495C12.4796 1.10312 12.4981 1.11257 12.5168 1.12181C12.5323 1.12945 12.5485 1.13556 12.5636 1.14387C12.6594 1.19647 12.7491 1.26389 12.8302 1.34528L16.7431 5.27378C17.2016 5.73403 17.2016 6.48046 16.7431 6.94071C16.2847 7.40096 15.5412 7.40096 15.0828 6.94071L13.1741 5.02441V14.9464C13.1741 15.5973 12.6483 16.1251 12 16.1251C11.3517 16.1251 10.8259 15.5973 10.8259 14.9464V5.02441L8.91721 6.94071C8.45877 7.40096 7.7153 7.40096 7.25687 6.94071C6.79844 6.48046 6.79844 5.73403 7.25687 5.27378L11.1698 1.34528L11.2587 1.26471C11.3744 1.16988 11.5039 1.10044 11.6398 1.05659C11.6599 1.05009 11.6804 1.04475 11.701 1.03932C11.7175 1.03497 11.734 1.03048 11.7507 1.02686C11.7715 1.02234 11.7925 1.01874 11.8137 1.01535C11.8271 1.0132 11.8404 1.01127 11.8538 1.00959C11.8747 1.00699 11.8957 1.00533 11.9169 1.00384C11.9363 1.00246 11.9557 1.00137 11.9752 1.00096C11.9834 1.00079 11.9917 1 12 1C12.0121 1 12.0242 1.00059 12.0363 1.00096Z" fill="black" fill-opacity="0.2"/>
<path d="M12.0363 1.00096C12.0487 1.00134 12.0611 1.0021 12.0736 1.00288C12.0996 1.0045 12.1254 1.00725 12.1509 1.01055C12.1624 1.01204 12.1739 1.01352 12.1853 1.01535C12.2091 1.01914 12.2327 1.02356 12.256 1.02877C12.2682 1.0315 12.2802 1.03524 12.2923 1.03836C12.3161 1.04449 12.3399 1.05 12.363 1.05755C12.3795 1.0629 12.3955 1.06966 12.4117 1.07577C12.4281 1.08194 12.4444 1.08808 12.4605 1.09495C12.4796 1.10312 12.4981 1.11257 12.5168 1.12181C12.5323 1.12945 12.5485 1.13556 12.5636 1.14387C12.6594 1.19647 12.7491 1.26389 12.8302 1.34528L16.7431 5.27378C17.2016 5.73403 17.2016 6.48046 16.7431 6.94071C16.2847 7.40096 15.5412 7.40096 15.0828 6.94071L13.1741 5.02441V14.9464C13.1741 15.5973 12.6483 16.1251 12 16.1251C11.3517 16.1251 10.8259 15.5973 10.8259 14.9464V5.02441L8.91721 6.94071C8.45877 7.40096 7.7153 7.40096 7.25687 6.94071C6.79844 6.48046 6.79844 5.73403 7.25687 5.27378L11.1698 1.34528L11.2587 1.26471C11.3744 1.16988 11.5039 1.10044 11.6398 1.05659C11.6599 1.05009 11.6804 1.04475 11.701 1.03932C11.7175 1.03497 11.734 1.03048 11.7507 1.02686C11.7715 1.02234 11.7925 1.01874 11.8137 1.01535C11.8271 1.0132 11.8404 1.01127 11.8538 1.00959C11.8747 1.00699 11.8957 1.00533 11.9169 1.00384C11.9363 1.00246 11.9557 1.00137 11.9752 1.00096C11.9834 1.00079 11.9917 1 12 1C12.0121 1 12.0242 1.00059 12.0363 1.00096Z" fill="black" fill-opacity="0.2"/>
<path d="M12.0363 1.00096C12.0487 1.00134 12.0611 1.0021 12.0736 1.00288C12.0996 1.0045 12.1254 1.00725 12.1509 1.01055C12.1624 1.01204 12.1739 1.01352 12.1853 1.01535C12.2091 1.01914 12.2327 1.02356 12.256 1.02877C12.2682 1.0315 12.2802 1.03524 12.2923 1.03836C12.3161 1.04449 12.3399 1.05 12.363 1.05755C12.3795 1.0629 12.3955 1.06966 12.4117 1.07577C12.4281 1.08194 12.4444 1.08808 12.4605 1.09495C12.4796 1.10312 12.4981 1.11257 12.5168 1.12181C12.5323 1.12945 12.5485 1.13556 12.5636 1.14387C12.6594 1.19647 12.7491 1.26389 12.8302 1.34528L16.7431 5.27378C17.2016 5.73403 17.2016 6.48046 16.7431 6.94071C16.2847 7.40096 15.5412 7.40096 15.0828 6.94071L13.1741 5.02441V14.9464C13.1741 15.5973 12.6483 16.1251 12 16.1251C11.3517 16.1251 10.8259 15.5973 10.8259 14.9464V5.02441L8.91721 6.94071C8.45877 7.40096 7.7153 7.40096 7.25687 6.94071C6.79844 6.48046 6.79844 5.73403 7.25687 5.27378L11.1698 1.34528L11.2587 1.26471C11.3744 1.16988 11.5039 1.10044 11.6398 1.05659C11.6599 1.05009 11.6804 1.04475 11.701 1.03932C11.7175 1.03497 11.734 1.03048 11.7507 1.02686C11.7715 1.02234 11.7925 1.01874 11.8137 1.01535C11.8271 1.0132 11.8404 1.01127 11.8538 1.00959C11.8747 1.00699 11.8957 1.00533 11.9169 1.00384C11.9363 1.00246 11.9557 1.00137 11.9752 1.00096C11.9834 1.00079 11.9917 1 12 1C12.0121 1 12.0242 1.00059 12.0363 1.00096Z" fill="black" fill-opacity="0.2"/>
<path d="M12.0363 1.00096C12.0487 1.00134 12.0611 1.0021 12.0736 1.00288C12.0996 1.0045 12.1254 1.00725 12.1509 1.01055C12.1624 1.01204 12.1739 1.01352 12.1853 1.01535C12.2091 1.01914 12.2327 1.02356 12.256 1.02877C12.2682 1.0315 12.2802 1.03524 12.2923 1.03836C12.3161 1.04449 12.3399 1.05 12.363 1.05755C12.3795 1.0629 12.3955 1.06966 12.4117 1.07577C12.4281 1.08194 12.4444 1.08808 12.4605 1.09495C12.4796 1.10312 12.4981 1.11257 12.5168 1.12181C12.5323 1.12945 12.5485 1.13556 12.5636 1.14387C12.6594 1.19647 12.7491 1.26389 12.8302 1.34528L16.7431 5.27378C17.2016 5.73403 17.2016 6.48046 16.7431 6.94071C16.2847 7.40096 15.5412 7.40096 15.0828 6.94071L13.1741 5.02441V14.9464C13.1741 15.5973 12.6483 16.1251 12 16.1251C11.3517 16.1251 10.8259 15.5973 10.8259 14.9464V5.02441L8.91721 6.94071C8.45877 7.40096 7.7153 7.40096 7.25687 6.94071C6.79844 6.48046 6.79844 5.73403 7.25687 5.27378L11.1698 1.34528L11.2587 1.26471C11.3744 1.16988 11.5039 1.10044 11.6398 1.05659C11.6599 1.05009 11.6804 1.04475 11.701 1.03932C11.7175 1.03497 11.734 1.03048 11.7507 1.02686C11.7715 1.02234 11.7925 1.01874 11.8137 1.01535C11.8271 1.0132 11.8404 1.01127 11.8538 1.00959C11.8747 1.00699 11.8957 1.00533 11.9169 1.00384C11.9363 1.00246 11.9557 1.00137 11.9752 1.00096C11.9834 1.00079 11.9917 1 12 1C12.0121 1 12.0242 1.00059 12.0363 1.00096Z" fill="black" fill-opacity="0.2"/>
<path d="M12.0363 1.00096C12.0487 1.00134 12.0611 1.0021 12.0736 1.00288C12.0996 1.0045 12.1254 1.00725 12.1509 1.01055C12.1624 1.01204 12.1739 1.01352 12.1853 1.01535C12.2091 1.01914 12.2327 1.02356 12.256 1.02877C12.2682 1.0315 12.2802 1.03524 12.2923 1.03836C12.3161 1.04449 12.3399 1.05 12.363 1.05755C12.3795 1.0629 12.3955 1.06966 12.4117 1.07577C12.4281 1.08194 12.4444 1.08808 12.4605 1.09495C12.4796 1.10312 12.4981 1.11257 12.5168 1.12181C12.5323 1.12945 12.5485 1.13556 12.5636 1.14387C12.6594 1.19647 12.7491 1.26389 12.8302 1.34528L16.7431 5.27378C17.2016 5.73403 17.2016 6.48046 16.7431 6.94071C16.2847 7.40096 15.5412 7.40096 15.0828 6.94071L13.1741 5.02441V14.9464C13.1741 15.5973 12.6483 16.1251 12 16.1251C11.3517 16.1251 10.8259 15.5973 10.8259 14.9464V5.02441L8.91721 6.94071C8.45877 7.40096 7.7153 7.40096 7.25687 6.94071C6.79844 6.48046 6.79844 5.73403 7.25687 5.27378L11.1698 1.34528L11.2587 1.26471C11.3744 1.16988 11.5039 1.10044 11.6398 1.05659C11.6599 1.05009 11.6804 1.04475 11.701 1.03932C11.7175 1.03497 11.734 1.03048 11.7507 1.02686C11.7715 1.02234 11.7925 1.01874 11.8137 1.01535C11.8271 1.0132 11.8404 1.01127 11.8538 1.00959C11.8747 1.00699 11.8957 1.00533 11.9169 1.00384C11.9363 1.00246 11.9557 1.00137 11.9752 1.00096C11.9834 1.00079 11.9917 1 12 1C12.0121 1 12.0242 1.00059 12.0363 1.00096Z" fill="black" fill-opacity="0.2"/>
</svg>
