<svg width="24" height="24" viewBox="0 0 24 24" fill="none" xmlns="http://www.w3.org/2000/svg">
<path d="M12.1152 21.7265C12.2715 21.7265 12.5254 21.6679 12.7695 21.5312C18.3262 18.416 20.2305 17.0976 20.2305 13.5332V6.0625C20.2305 5.03711 19.791 4.71484 18.9609 4.36328C17.8086 3.88476 14.0879 2.54687 12.9355 2.14648C12.6719 2.05859 12.3887 2 12.1152 2C11.8418 2 11.5586 2.07813 11.3047 2.14648C10.1523 2.47852 6.42188 3.89453 5.26953 4.36328C4.44922 4.70508 4 5.03711 4 6.0625V13.5332C4 17.0976 5.91406 18.4062 11.4609 21.5312C11.7148 21.6679 11.959 21.7265 12.1152 21.7265ZM12.1152 19.959C11.959 19.959 11.8027 19.9004 11.5098 19.7246C6.99805 16.9902 5.55273 16.1894 5.55273 13.1719V6.36523C5.55273 6.0332 5.61133 5.90625 5.88477 5.79883C7.36914 5.21289 10.25 4.24609 11.7246 3.66015C11.8809 3.5918 12.0078 3.57226 12.1152 3.57226C12.2227 3.57226 12.3496 3.60156 12.5059 3.66015C13.9805 4.24609 16.8418 5.28125 18.3555 5.79883C18.6191 5.89648 18.6777 6.0332 18.6777 6.36523V13.1719C18.6777 16.1894 17.2324 16.9804 12.7207 19.7246C12.4375 19.9004 12.2715 19.959 12.1152 19.959Z" fill="#1D1A24"/>
<path d="M12.1152 13.1523C12.584 13.1523 12.8574 12.8886 12.8672 12.3808L13.0039 7.22461C13.0137 6.72656 12.623 6.35547 12.1055 6.35547C11.5781 6.35547 11.207 6.7168 11.2168 7.21484L11.3535 12.3808C11.3633 12.8789 11.6269 13.1523 12.1152 13.1523ZM12.1152 16.3262C12.6816 16.3262 13.1699 15.8769 13.1699 15.3105C13.1699 14.7441 12.6914 14.2949 12.1152 14.2949C11.5488 14.2949 11.0606 14.7539 11.0606 15.3105C11.0606 15.8672 11.5586 16.3262 12.1152 16.3262Z" fill="#1D1A24"/>
</svg>
