<svg width="24" height="24" viewBox="0 0 24 24" fill="none" xmlns="http://www.w3.org/2000/svg">
<path d="M8.68896 6.86529C9.23506 6.77922 9.80009 6.93384 10.3628 7.26079L10.3638 7.26177L13.3794 9.02837C13.6478 9.18092 13.7907 9.25092 13.9233 9.28716C14.054 9.32284 14.1866 9.32915 14.4468 9.32915C14.6914 9.32915 15.1513 9.27649 15.645 9.22075C16.1265 9.16641 16.6386 9.10943 16.9595 9.10943C17.6635 9.1095 18.269 9.3454 18.6997 9.76665C19.0866 10.1452 19.3189 10.6627 19.3628 11.2637C19.4874 11.2551 19.601 11.2501 19.6968 11.2501C20.4008 11.2501 21.0079 11.4852 21.4399 11.9063C21.8724 12.3278 22.1156 12.9221 22.1157 13.6124C22.1157 14.537 21.6042 15.3225 20.5845 15.9502L20.3735 16.0743C18.9286 16.8744 17.8529 17.1583 16.0073 17.1583H7.05225C6.48085 17.1583 5.87047 17.0223 5.40088 16.6133C5.00569 16.2691 4.73529 15.751 4.65479 15.0176H4.30908C3.73769 15.0176 3.12728 14.8817 2.65771 14.4727C2.18301 14.0591 1.88428 13.3948 1.88428 12.4073V9.88384C1.88438 9.30055 2.15583 8.87435 2.5708 8.65825C2.9265 8.47312 3.36651 8.45244 3.7915 8.5899L3.97217 8.65923L3.97607 8.66021C4.39821 8.85545 4.78628 8.9463 5.36768 8.94634C5.97403 8.94634 6.58694 8.63689 7.21045 7.8399C7.64396 7.27644 8.14023 6.95184 8.68896 6.86529ZM20.5835 14.2608C20.4649 14.3435 20.3275 14.4262 20.1675 14.5108L20.1636 14.5118L19.1626 15.0167L19.1636 15.0176C18.2347 15.5025 17.4585 15.6993 16.0073 15.6993H6.68018C6.53634 15.6993 6.4069 15.6896 6.28564 15.6749C6.31476 15.6964 6.34442 15.717 6.37646 15.7335C6.53828 15.8165 6.75623 15.8516 7.04639 15.8516H16.0073C16.8438 15.8516 17.4624 15.7956 18.0269 15.6553C18.5904 15.5153 19.1097 15.2883 19.7456 14.9356C20.1581 14.705 20.4227 14.4853 20.5835 14.2608ZM11.6284 10.2676C11.4924 10.289 11.3507 10.3693 11.1733 10.5557L10.9839 10.7784C10.1674 11.8339 9.13883 12.3936 8.10498 12.3936C7.27642 12.3936 6.65739 12.2042 6.0874 11.9542L6.08057 11.9512C6.01859 11.9211 5.97744 11.9296 5.96338 11.9366C5.95734 11.9396 5.95144 11.9439 5.94678 11.9522C5.94172 11.9614 5.93411 11.9816 5.93408 12.0186V14.5616C6.0532 14.6255 6.26723 14.669 6.68018 14.669H16.0073C16.6849 14.669 17.1629 14.6292 17.564 14.542C17.9622 14.4555 18.2931 14.3196 18.6733 14.1172L18.6753 14.1163L19.6841 13.5977C19.9773 13.4414 20.1685 13.2957 20.2837 13.171C20.4007 13.0442 20.4253 12.9547 20.4253 12.9083C20.4252 12.8013 20.3717 12.7221 20.2417 12.6583C20.1033 12.5904 19.9035 12.5567 19.6909 12.5567C19.4349 12.5567 18.9681 12.6094 18.4751 12.6651C17.9943 12.7194 17.4883 12.7764 17.1841 12.7764C16.8695 12.7764 16.6178 12.7623 16.353 12.6915C16.1943 12.649 16.0356 12.5857 15.8579 12.4991L15.2563 13.3204L15.2534 13.3233C15.1658 13.4372 15.0417 13.5091 14.9028 13.5215C14.7669 13.5337 14.635 13.4868 14.5269 13.3975C14.5256 13.3965 14.5242 13.3965 14.5229 13.3956L14.521 13.3936C14.2986 13.2139 14.2899 12.9037 14.4575 12.6856L14.9595 11.9952L14.6284 11.8028L13.9839 12.6885L13.9829 12.6876C13.8959 12.8087 13.7716 12.8852 13.6274 12.8956C13.4877 12.9054 13.3553 12.8523 13.2476 12.7676C13.0237 12.5916 13.0022 12.2862 13.1714 12.0577L13.7339 11.2842L13.4019 11.0918L12.6938 12.0635L12.6919 12.0655C12.5117 12.3056 12.172 12.3054 11.9644 12.1417C11.7406 11.9665 11.7229 11.6408 11.8862 11.4278L12.5083 10.5733L12.4429 10.5362C12.0517 10.3099 11.8153 10.2384 11.6284 10.2676ZM3.63623 13.5928C3.7981 13.676 4.016 13.711 4.30322 13.711H4.62744V13.5596H3.94287C3.79845 13.5596 3.6673 13.5502 3.54443 13.5352C3.57365 13.5569 3.60399 13.5763 3.63623 13.5928ZM8.88623 8.127C8.70481 8.15537 8.51346 8.28883 8.24072 8.63872L8.23975 8.63775C7.42337 9.69292 6.39594 10.253 5.36768 10.253C4.53937 10.2529 3.9145 10.0637 3.34424 9.81353L3.3374 9.8106C3.27533 9.78041 3.23421 9.78899 3.22021 9.79595C3.21421 9.79898 3.20923 9.80333 3.20459 9.81158C3.19953 9.82062 3.19092 9.84119 3.19092 9.87896V12.42C3.3134 12.4855 3.52631 12.5284 3.94287 12.5284H4.62744V12.0245C4.62744 11.4409 4.89861 11.014 5.31299 10.7979C5.7186 10.5864 6.23359 10.5906 6.70947 10.7989L6.7124 10.8008C7.1411 10.9967 7.52407 11.0869 8.10498 11.087C8.7113 11.087 9.3233 10.7774 9.94678 9.98052C10.2608 9.57479 10.6067 9.29421 10.98 9.13579L9.70068 8.39556C9.30957 8.16927 9.07311 8.0979 8.88623 8.127ZM16.9536 10.4161C16.7012 10.4161 16.2433 10.4677 15.7573 10.5225C15.5481 10.5461 15.3339 10.57 15.1333 10.5899L16.1255 11.17C16.39 11.3219 16.5312 11.3916 16.6636 11.4278C16.7426 11.4493 16.8226 11.4577 16.9302 11.4629L16.9409 11.4581C17.237 11.3018 17.4293 11.154 17.5454 11.0284C17.6636 10.9004 17.6879 10.8117 17.688 10.7686C17.688 10.6624 17.6345 10.5821 17.5024 10.5176C17.3631 10.4496 17.1631 10.4161 16.9536 10.4161Z" fill="#1D1A24"/>
</svg>
