<svg width="24" height="24" viewBox="0 0 24 24" fill="none" xmlns="http://www.w3.org/2000/svg">
<path d="M16 9C16.5523 9 17 9.44771 17 10C17 11.3261 16.4728 12.5975 15.5352 13.5352C14.6561 14.4142 13.4838 14.9328 12.248 14.9941L12 15C10.6739 15 9.40253 14.4728 8.46484 13.5352C7.52716 12.5975 7 11.3261 7 10C7 9.44771 7.44772 9 8 9C8.55228 9 9 9.44771 9 10C9 10.7956 9.3163 11.5585 9.87891 12.1211C10.4415 12.6837 11.2044 13 12 13L12.2969 12.9854C12.9835 12.9171 13.6289 12.6133 14.1211 12.1211C14.6837 11.5585 15 10.7956 15 10C15 9.44771 15.4477 9 16 9Z" fill="#1D1A24"/>
<path d="M16 9C16.5523 9 17 9.44771 17 10C17 11.3261 16.4728 12.5975 15.5352 13.5352C14.6561 14.4142 13.4838 14.9328 12.248 14.9941L12 15C10.6739 15 9.40253 14.4728 8.46484 13.5352C7.52716 12.5975 7 11.3261 7 10C7 9.44771 7.44772 9 8 9C8.55228 9 9 9.44771 9 10C9 10.7956 9.3163 11.5585 9.87891 12.1211C10.4415 12.6837 11.2044 13 12 13L12.2969 12.9854C12.9835 12.9171 13.6289 12.6133 14.1211 12.1211C14.6837 11.5585 15 10.7956 15 10C15 9.44771 15.4477 9 16 9Z" fill="black" fill-opacity="0.2"/>
<path d="M16 9C16.5523 9 17 9.44771 17 10C17 11.3261 16.4728 12.5975 15.5352 13.5352C14.6561 14.4142 13.4838 14.9328 12.248 14.9941L12 15C10.6739 15 9.40253 14.4728 8.46484 13.5352C7.52716 12.5975 7 11.3261 7 10C7 9.44771 7.44772 9 8 9C8.55228 9 9 9.44771 9 10C9 10.7956 9.3163 11.5585 9.87891 12.1211C10.4415 12.6837 11.2044 13 12 13L12.2969 12.9854C12.9835 12.9171 13.6289 12.6133 14.1211 12.1211C14.6837 11.5585 15 10.7956 15 10C15 9.44771 15.4477 9 16 9Z" fill="black" fill-opacity="0.2"/>
<path d="M16 9C16.5523 9 17 9.44771 17 10C17 11.3261 16.4728 12.5975 15.5352 13.5352C14.6561 14.4142 13.4838 14.9328 12.248 14.9941L12 15C10.6739 15 9.40253 14.4728 8.46484 13.5352C7.52716 12.5975 7 11.3261 7 10C7 9.44771 7.44772 9 8 9C8.55228 9 9 9.44771 9 10C9 10.7956 9.3163 11.5585 9.87891 12.1211C10.4415 12.6837 11.2044 13 12 13L12.2969 12.9854C12.9835 12.9171 13.6289 12.6133 14.1211 12.1211C14.6837 11.5585 15 10.7956 15 10C15 9.44771 15.4477 9 16 9Z" fill="black" fill-opacity="0.2"/>
<path d="M16 9C16.5523 9 17 9.44771 17 10C17 11.3261 16.4728 12.5975 15.5352 13.5352C14.6561 14.4142 13.4838 14.9328 12.248 14.9941L12 15C10.6739 15 9.40253 14.4728 8.46484 13.5352C7.52716 12.5975 7 11.3261 7 10C7 9.44771 7.44772 9 8 9C8.55228 9 9 9.44771 9 10C9 10.7956 9.3163 11.5585 9.87891 12.1211C10.4415 12.6837 11.2044 13 12 13L12.2969 12.9854C12.9835 12.9171 13.6289 12.6133 14.1211 12.1211C14.6837 11.5585 15 10.7956 15 10C15 9.44771 15.4477 9 16 9Z" fill="black" fill-opacity="0.2"/>
<path d="M16 9C16.5523 9 17 9.44771 17 10C17 11.3261 16.4728 12.5975 15.5352 13.5352C14.6561 14.4142 13.4838 14.9328 12.248 14.9941L12 15C10.6739 15 9.40253 14.4728 8.46484 13.5352C7.52716 12.5975 7 11.3261 7 10C7 9.44771 7.44772 9 8 9C8.55228 9 9 9.44771 9 10C9 10.7956 9.3163 11.5585 9.87891 12.1211C10.4415 12.6837 11.2044 13 12 13L12.2969 12.9854C12.9835 12.9171 13.6289 12.6133 14.1211 12.1211C14.6837 11.5585 15 10.7956 15 10C15 9.44771 15.4477 9 16 9Z" fill="black" fill-opacity="0.2"/>
<path fill-rule="evenodd" clip-rule="evenodd" d="M18 1C18.3148 1 18.611 1.14858 18.7998 1.40039L21.7998 5.40039C21.8014 5.40248 21.8022 5.40513 21.8037 5.40723C21.8934 5.52864 21.9561 5.67049 21.9834 5.8252C21.9853 5.83558 21.9868 5.84599 21.9883 5.85645C21.995 5.90339 22 5.95118 22 6V20C22 20.7957 21.6837 21.5585 21.1211 22.1211C20.5585 22.6837 19.7957 23 19 23H5C4.20435 23 3.44151 22.6837 2.87891 22.1211C2.3163 21.5585 2 20.7957 2 20V6C2 5.95123 2.004 5.90335 2.01074 5.85645C2.01226 5.846 2.01378 5.83557 2.01562 5.8252C2.04289 5.67062 2.10576 5.52859 2.19531 5.40723C2.19697 5.40497 2.19852 5.40263 2.2002 5.40039L5.2002 1.40039L5.27539 1.31055C5.46295 1.11339 5.72451 1 6 1H18ZM4 20C4 20.2652 4.10543 20.5195 4.29297 20.707C4.48051 20.8946 4.73478 21 5 21H19C19.2652 21 19.5195 20.8946 19.707 20.707C19.8946 20.5195 20 20.2652 20 20V7H4V20ZM4.99902 5H19.001L17.501 3H6.49902L4.99902 5Z" fill="#1D1A24"/>
<path fill-rule="evenodd" clip-rule="evenodd" d="M18 1C18.3148 1 18.611 1.14858 18.7998 1.40039L21.7998 5.40039C21.8014 5.40248 21.8022 5.40513 21.8037 5.40723C21.8934 5.52864 21.9561 5.67049 21.9834 5.8252C21.9853 5.83558 21.9868 5.84599 21.9883 5.85645C21.995 5.90339 22 5.95118 22 6V20C22 20.7957 21.6837 21.5585 21.1211 22.1211C20.5585 22.6837 19.7957 23 19 23H5C4.20435 23 3.44151 22.6837 2.87891 22.1211C2.3163 21.5585 2 20.7957 2 20V6C2 5.95123 2.004 5.90335 2.01074 5.85645C2.01226 5.846 2.01378 5.83557 2.01562 5.8252C2.04289 5.67062 2.10576 5.52859 2.19531 5.40723C2.19697 5.40497 2.19852 5.40263 2.2002 5.40039L5.2002 1.40039L5.27539 1.31055C5.46295 1.11339 5.72451 1 6 1H18ZM4 20C4 20.2652 4.10543 20.5195 4.29297 20.707C4.48051 20.8946 4.73478 21 5 21H19C19.2652 21 19.5195 20.8946 19.707 20.707C19.8946 20.5195 20 20.2652 20 20V7H4V20ZM4.99902 5H19.001L17.501 3H6.49902L4.99902 5Z" fill="black" fill-opacity="0.2"/>
<path fill-rule="evenodd" clip-rule="evenodd" d="M18 1C18.3148 1 18.611 1.14858 18.7998 1.40039L21.7998 5.40039C21.8014 5.40248 21.8022 5.40513 21.8037 5.40723C21.8934 5.52864 21.9561 5.67049 21.9834 5.8252C21.9853 5.83558 21.9868 5.84599 21.9883 5.85645C21.995 5.90339 22 5.95118 22 6V20C22 20.7957 21.6837 21.5585 21.1211 22.1211C20.5585 22.6837 19.7957 23 19 23H5C4.20435 23 3.44151 22.6837 2.87891 22.1211C2.3163 21.5585 2 20.7957 2 20V6C2 5.95123 2.004 5.90335 2.01074 5.85645C2.01226 5.846 2.01378 5.83557 2.01562 5.8252C2.04289 5.67062 2.10576 5.52859 2.19531 5.40723C2.19697 5.40497 2.19852 5.40263 2.2002 5.40039L5.2002 1.40039L5.27539 1.31055C5.46295 1.11339 5.72451 1 6 1H18ZM4 20C4 20.2652 4.10543 20.5195 4.29297 20.707C4.48051 20.8946 4.73478 21 5 21H19C19.2652 21 19.5195 20.8946 19.707 20.707C19.8946 20.5195 20 20.2652 20 20V7H4V20ZM4.99902 5H19.001L17.501 3H6.49902L4.99902 5Z" fill="black" fill-opacity="0.2"/>
<path fill-rule="evenodd" clip-rule="evenodd" d="M18 1C18.3148 1 18.611 1.14858 18.7998 1.40039L21.7998 5.40039C21.8014 5.40248 21.8022 5.40513 21.8037 5.40723C21.8934 5.52864 21.9561 5.67049 21.9834 5.8252C21.9853 5.83558 21.9868 5.84599 21.9883 5.85645C21.995 5.90339 22 5.95118 22 6V20C22 20.7957 21.6837 21.5585 21.1211 22.1211C20.5585 22.6837 19.7957 23 19 23H5C4.20435 23 3.44151 22.6837 2.87891 22.1211C2.3163 21.5585 2 20.7957 2 20V6C2 5.95123 2.004 5.90335 2.01074 5.85645C2.01226 5.846 2.01378 5.83557 2.01562 5.8252C2.04289 5.67062 2.10576 5.52859 2.19531 5.40723C2.19697 5.40497 2.19852 5.40263 2.2002 5.40039L5.2002 1.40039L5.27539 1.31055C5.46295 1.11339 5.72451 1 6 1H18ZM4 20C4 20.2652 4.10543 20.5195 4.29297 20.707C4.48051 20.8946 4.73478 21 5 21H19C19.2652 21 19.5195 20.8946 19.707 20.707C19.8946 20.5195 20 20.2652 20 20V7H4V20ZM4.99902 5H19.001L17.501 3H6.49902L4.99902 5Z" fill="black" fill-opacity="0.2"/>
<path fill-rule="evenodd" clip-rule="evenodd" d="M18 1C18.3148 1 18.611 1.14858 18.7998 1.40039L21.7998 5.40039C21.8014 5.40248 21.8022 5.40513 21.8037 5.40723C21.8934 5.52864 21.9561 5.67049 21.9834 5.8252C21.9853 5.83558 21.9868 5.84599 21.9883 5.85645C21.995 5.90339 22 5.95118 22 6V20C22 20.7957 21.6837 21.5585 21.1211 22.1211C20.5585 22.6837 19.7957 23 19 23H5C4.20435 23 3.44151 22.6837 2.87891 22.1211C2.3163 21.5585 2 20.7957 2 20V6C2 5.95123 2.004 5.90335 2.01074 5.85645C2.01226 5.846 2.01378 5.83557 2.01562 5.8252C2.04289 5.67062 2.10576 5.52859 2.19531 5.40723C2.19697 5.40497 2.19852 5.40263 2.2002 5.40039L5.2002 1.40039L5.27539 1.31055C5.46295 1.11339 5.72451 1 6 1H18ZM4 20C4 20.2652 4.10543 20.5195 4.29297 20.707C4.48051 20.8946 4.73478 21 5 21H19C19.2652 21 19.5195 20.8946 19.707 20.707C19.8946 20.5195 20 20.2652 20 20V7H4V20ZM4.99902 5H19.001L17.501 3H6.49902L4.99902 5Z" fill="black" fill-opacity="0.2"/>
<path fill-rule="evenodd" clip-rule="evenodd" d="M18 1C18.3148 1 18.611 1.14858 18.7998 1.40039L21.7998 5.40039C21.8014 5.40248 21.8022 5.40513 21.8037 5.40723C21.8934 5.52864 21.9561 5.67049 21.9834 5.8252C21.9853 5.83558 21.9868 5.84599 21.9883 5.85645C21.995 5.90339 22 5.95118 22 6V20C22 20.7957 21.6837 21.5585 21.1211 22.1211C20.5585 22.6837 19.7957 23 19 23H5C4.20435 23 3.44151 22.6837 2.87891 22.1211C2.3163 21.5585 2 20.7957 2 20V6C2 5.95123 2.004 5.90335 2.01074 5.85645C2.01226 5.846 2.01378 5.83557 2.01562 5.8252C2.04289 5.67062 2.10576 5.52859 2.19531 5.40723C2.19697 5.40497 2.19852 5.40263 2.2002 5.40039L5.2002 1.40039L5.27539 1.31055C5.46295 1.11339 5.72451 1 6 1H18ZM4 20C4 20.2652 4.10543 20.5195 4.29297 20.707C4.48051 20.8946 4.73478 21 5 21H19C19.2652 21 19.5195 20.8946 19.707 20.707C19.8946 20.5195 20 20.2652 20 20V7H4V20ZM4.99902 5H19.001L17.501 3H6.49902L4.99902 5Z" fill="black" fill-opacity="0.2"/>
</svg>
