<svg width="24" height="24" viewBox="0 0 24 24" fill="none" xmlns="http://www.w3.org/2000/svg">
<path d="M18.6328 3.99219C19.7425 3.9922 20.6426 4.33022 21.2637 4.99023C21.8831 5.64855 22.2002 6.60088 22.2002 7.78027V16.2275C22.2002 17.4068 21.8832 18.3574 21.2637 19.0137C20.6424 19.6716 19.7422 20.0068 18.6328 20.0068H5.5791C4.40137 20.0068 3.45001 19.6735 2.79297 19.0176C2.1359 18.3616 1.7998 17.4097 1.7998 16.2275V7.78027C1.7998 6.59805 2.13606 5.64438 2.79297 4.98633C3.44988 4.32838 4.40111 3.99223 5.5791 3.99219H18.6328ZM5.58789 5.75781C4.92213 5.75781 4.42258 5.94949 4.08984 6.28223C3.75711 6.61496 3.56543 7.11451 3.56543 7.78027V16.2275C3.56543 16.8932 3.75754 17.3902 4.08984 17.7207C4.42238 18.0514 4.92157 18.2422 5.58789 18.2422H14.0303V5.75781H5.58789ZM15.7627 18.2422H18.4121C19.0784 18.2422 19.5776 18.0514 19.9102 17.7207C20.2425 17.3902 20.4346 16.8932 20.4346 16.2275V7.78027C20.4346 7.11451 20.2429 6.61496 19.9102 6.28223C19.5774 5.9495 19.0779 5.75781 18.4121 5.75781H15.7627V18.2422ZM19.0059 11.957C19.377 11.957 19.6895 12.2646 19.6895 12.6318C19.6894 13.0036 19.3722 13.2979 19.0059 13.2979H17.1904C16.835 13.2976 16.5078 13.0056 16.5078 12.6318C16.5078 12.2625 16.8302 11.9573 17.1904 11.957H19.0059ZM19.0059 9.75977C19.3723 9.75977 19.6895 10.055 19.6895 10.4268C19.6893 10.7893 19.3814 11.1104 19.0059 11.1104H17.1904C16.8258 11.1101 16.508 10.7914 16.5078 10.4268C16.5078 10.0529 16.835 9.76 17.1904 9.75977H19.0059ZM19.0059 7.56348C19.377 7.56348 19.6895 7.87109 19.6895 8.23828C19.6894 8.59469 19.3792 8.91309 19.0059 8.91309H17.1904C16.828 8.91284 16.5079 8.59679 16.5078 8.23828C16.5078 7.869 16.8302 7.56372 17.1904 7.56348H19.0059Z" fill="#1D1A24"/>
</svg>
