<svg width="24" height="24" viewBox="0 0 24 24" fill="none" xmlns="http://www.w3.org/2000/svg">
<path d="M18.6328 3.99219C19.7425 3.9922 20.6426 4.33022 21.2637 4.99023C21.8831 5.64855 22.2002 6.60088 22.2002 7.78027V16.2275C22.2002 17.4068 21.8832 18.3574 21.2637 19.0137C20.6424 19.6716 19.7422 20.0068 18.6328 20.0068H5.5791C4.40137 20.0068 3.45001 19.6735 2.79297 19.0176C2.1359 18.3616 1.7998 17.4097 1.7998 16.2275V7.78027C1.7998 6.59805 2.13606 5.64438 2.79297 4.98633C3.44988 4.32838 4.40111 3.99223 5.5791 3.99219H18.6328ZM5.58789 5.75781C4.92213 5.75781 4.42258 5.94949 4.08984 6.28223C3.75711 6.61496 3.56543 7.11451 3.56543 7.78027V16.2275C3.56543 16.8932 3.75754 17.3902 4.08984 17.7207C4.42238 18.0514 4.92157 18.2422 5.58789 18.2422H8.2627V5.75781H5.58789ZM9.99512 18.2422H18.4121C19.0784 18.2422 19.5776 18.0514 19.9102 17.7207C20.2425 17.3902 20.4346 16.8932 20.4346 16.2275V7.78027C20.4346 7.11451 20.2429 6.61496 19.9102 6.28223C19.5774 5.9495 19.0779 5.75781 18.4121 5.75781H9.99512V18.2422ZM6.83496 11.957C7.19517 11.9572 7.51855 12.2625 7.51855 12.6318C7.51852 13.0056 7.19041 13.2977 6.83496 13.2979H5.01074C4.65065 13.2977 4.33597 13.0012 4.33594 12.6318C4.33594 12.267 4.64594 11.9572 5.01074 11.957H6.83496ZM6.83496 9.75977C7.19043 9.75996 7.51855 10.0529 7.51855 10.4268C7.51839 10.7914 7.19963 11.1101 6.83496 11.1104H5.01074C4.64153 11.1102 4.33609 10.7869 4.33594 10.4268C4.33594 10.0573 4.65063 9.75992 5.01074 9.75977H6.83496ZM6.83496 7.56348C7.19516 7.56368 7.51855 7.86898 7.51855 8.23828C7.5185 8.59681 7.19742 8.91288 6.83496 8.91309H5.01074C4.64371 8.91292 4.33599 8.59229 4.33594 8.23828C4.33594 7.87347 4.64595 7.56364 5.01074 7.56348H6.83496Z" fill="#1D1A24"/>
</svg>
