<svg width="24" height="24" viewBox="0 0 24 24" fill="none" xmlns="http://www.w3.org/2000/svg">
<path fill-rule="evenodd" clip-rule="evenodd" d="M15.3366 8.94712C15.4299 8.95816 15.5206 8.98401 15.6036 9.02773L15.7004 9.08818C15.8232 9.17851 15.9167 9.30389 15.9674 9.44891L16.7564 11.6888C16.9309 12.1849 17.2173 12.6366 17.5947 13.0088C17.925 13.3346 18.3178 13.5921 18.7494 13.7675L18.9368 13.838L21.209 14.6149C21.3209 14.6529 21.4222 14.7167 21.5052 14.8003L21.5818 14.89C21.6561 14.9927 21.7017 15.1124 21.7178 15.2376V15.4301C21.7017 15.5549 21.6559 15.6742 21.5818 15.7767C21.489 15.9049 21.3586 16 21.21 16.0507L18.9368 16.8286C18.4314 17.0018 17.9721 17.2856 17.5947 17.6579C17.2173 18.0301 16.931 18.4818 16.7564 18.9778L15.9684 21.2157C15.9159 21.3663 15.8166 21.4966 15.6873 21.5876C15.5827 21.6611 15.4621 21.7058 15.3366 21.7206H15.1583C15.0323 21.7059 14.9105 21.6614 14.8056 21.5876C14.6765 21.4966 14.5779 21.3672 14.5255 21.2168L14.5265 21.2157L13.7366 18.9778L13.666 18.7935C13.4891 18.3698 13.2282 17.9836 12.8982 17.6579C12.521 17.2857 12.0623 17.0019 11.5571 16.8286L9.28393 16.0518L9.28494 16.0507C9.13586 16.0001 9.00516 15.9052 8.91213 15.7767C8.83776 15.6739 8.79214 15.5543 8.7761 15.4291V15.2376C8.78716 15.1515 8.81141 15.0679 8.85066 14.9907L8.91213 14.89L8.98871 14.8003C9.0718 14.7167 9.1739 14.6529 9.28595 14.6149L11.5571 13.838C12.0623 13.6648 12.521 13.381 12.8982 13.0088C13.2754 12.6365 13.5621 12.1848 13.7366 11.6888L14.5265 9.4479C14.5672 9.33224 14.635 9.22927 14.723 9.14662L14.8187 9.07005L14.9245 9.0106C14.9988 8.97616 15.0781 8.95446 15.1593 8.9451L15.3366 8.94712ZM15.0172 12.1372C14.7742 12.827 14.3762 13.4534 13.8534 13.969C13.3306 14.4847 12.6959 14.8766 11.9984 15.1157L11.3626 15.3333L11.9984 15.551C12.6959 15.79 13.3305 16.1829 13.8534 16.6986C14.3108 17.1498 14.6724 17.6856 14.9185 18.2745L15.0172 18.5305L15.247 19.1804L15.4757 18.5305C15.7187 17.8405 16.1176 17.2144 16.6405 16.6986C17.1633 16.183 17.7971 15.7911 18.4945 15.552L19.1313 15.3333L18.4945 15.1157C17.7972 14.8767 17.1633 14.4846 16.6405 13.969C16.1177 13.4534 15.7187 12.827 15.4757 12.1372L15.247 11.4863L15.0172 12.1372Z" fill="#1D1A24"/>
<path fill-rule="evenodd" clip-rule="evenodd" d="M15.3366 8.94712C15.4299 8.95816 15.5206 8.98401 15.6036 9.02773L15.7004 9.08818C15.8232 9.17851 15.9167 9.30389 15.9674 9.44891L16.7564 11.6888C16.9309 12.1849 17.2173 12.6366 17.5947 13.0088C17.925 13.3346 18.3178 13.5921 18.7494 13.7675L18.9368 13.838L21.209 14.6149C21.3209 14.6529 21.4222 14.7167 21.5052 14.8003L21.5818 14.89C21.6561 14.9927 21.7017 15.1124 21.7178 15.2376V15.4301C21.7017 15.5549 21.6559 15.6742 21.5818 15.7767C21.489 15.9049 21.3586 16 21.21 16.0507L18.9368 16.8286C18.4314 17.0018 17.9721 17.2856 17.5947 17.6579C17.2173 18.0301 16.931 18.4818 16.7564 18.9778L15.9684 21.2157C15.9159 21.3663 15.8166 21.4966 15.6873 21.5876C15.5827 21.6611 15.4621 21.7058 15.3366 21.7206H15.1583C15.0323 21.7059 14.9105 21.6614 14.8056 21.5876C14.6765 21.4966 14.5779 21.3672 14.5255 21.2168L14.5265 21.2157L13.7366 18.9778L13.666 18.7935C13.4891 18.3698 13.2282 17.9836 12.8982 17.6579C12.521 17.2857 12.0623 17.0019 11.5571 16.8286L9.28393 16.0518L9.28494 16.0507C9.13586 16.0001 9.00516 15.9052 8.91213 15.7767C8.83776 15.6739 8.79214 15.5543 8.7761 15.4291V15.2376C8.78716 15.1515 8.81141 15.0679 8.85066 14.9907L8.91213 14.89L8.98871 14.8003C9.0718 14.7167 9.1739 14.6529 9.28595 14.6149L11.5571 13.838C12.0623 13.6648 12.521 13.381 12.8982 13.0088C13.2754 12.6365 13.5621 12.1848 13.7366 11.6888L14.5265 9.4479C14.5672 9.33224 14.635 9.22927 14.723 9.14662L14.8187 9.07005L14.9245 9.0106C14.9988 8.97616 15.0781 8.95446 15.1593 8.9451L15.3366 8.94712ZM15.0172 12.1372C14.7742 12.827 14.3762 13.4534 13.8534 13.969C13.3306 14.4847 12.6959 14.8766 11.9984 15.1157L11.3626 15.3333L11.9984 15.551C12.6959 15.79 13.3305 16.1829 13.8534 16.6986C14.3108 17.1498 14.6724 17.6856 14.9185 18.2745L15.0172 18.5305L15.247 19.1804L15.4757 18.5305C15.7187 17.8405 16.1176 17.2144 16.6405 16.6986C17.1633 16.183 17.7971 15.7911 18.4945 15.552L19.1313 15.3333L18.4945 15.1157C17.7972 14.8767 17.1633 14.4846 16.6405 13.969C16.1177 13.4534 15.7187 12.827 15.4757 12.1372L15.247 11.4863L15.0172 12.1372Z" fill="black" fill-opacity="0.2"/>
<path fill-rule="evenodd" clip-rule="evenodd" d="M15.3366 8.94712C15.4299 8.95816 15.5206 8.98401 15.6036 9.02773L15.7004 9.08818C15.8232 9.17851 15.9167 9.30389 15.9674 9.44891L16.7564 11.6888C16.9309 12.1849 17.2173 12.6366 17.5947 13.0088C17.925 13.3346 18.3178 13.5921 18.7494 13.7675L18.9368 13.838L21.209 14.6149C21.3209 14.6529 21.4222 14.7167 21.5052 14.8003L21.5818 14.89C21.6561 14.9927 21.7017 15.1124 21.7178 15.2376V15.4301C21.7017 15.5549 21.6559 15.6742 21.5818 15.7767C21.489 15.9049 21.3586 16 21.21 16.0507L18.9368 16.8286C18.4314 17.0018 17.9721 17.2856 17.5947 17.6579C17.2173 18.0301 16.931 18.4818 16.7564 18.9778L15.9684 21.2157C15.9159 21.3663 15.8166 21.4966 15.6873 21.5876C15.5827 21.6611 15.4621 21.7058 15.3366 21.7206H15.1583C15.0323 21.7059 14.9105 21.6614 14.8056 21.5876C14.6765 21.4966 14.5779 21.3672 14.5255 21.2168L14.5265 21.2157L13.7366 18.9778L13.666 18.7935C13.4891 18.3698 13.2282 17.9836 12.8982 17.6579C12.521 17.2857 12.0623 17.0019 11.5571 16.8286L9.28393 16.0518L9.28494 16.0507C9.13586 16.0001 9.00516 15.9052 8.91213 15.7767C8.83776 15.6739 8.79214 15.5543 8.7761 15.4291V15.2376C8.78716 15.1515 8.81141 15.0679 8.85066 14.9907L8.91213 14.89L8.98871 14.8003C9.0718 14.7167 9.1739 14.6529 9.28595 14.6149L11.5571 13.838C12.0623 13.6648 12.521 13.381 12.8982 13.0088C13.2754 12.6365 13.5621 12.1848 13.7366 11.6888L14.5265 9.4479C14.5672 9.33224 14.635 9.22927 14.723 9.14662L14.8187 9.07005L14.9245 9.0106C14.9988 8.97616 15.0781 8.95446 15.1593 8.9451L15.3366 8.94712ZM15.0172 12.1372C14.7742 12.827 14.3762 13.4534 13.8534 13.969C13.3306 14.4847 12.6959 14.8766 11.9984 15.1157L11.3626 15.3333L11.9984 15.551C12.6959 15.79 13.3305 16.1829 13.8534 16.6986C14.3108 17.1498 14.6724 17.6856 14.9185 18.2745L15.0172 18.5305L15.247 19.1804L15.4757 18.5305C15.7187 17.8405 16.1176 17.2144 16.6405 16.6986C17.1633 16.183 17.7971 15.7911 18.4945 15.552L19.1313 15.3333L18.4945 15.1157C17.7972 14.8767 17.1633 14.4846 16.6405 13.969C16.1177 13.4534 15.7187 12.827 15.4757 12.1372L15.247 11.4863L15.0172 12.1372Z" fill="black" fill-opacity="0.2"/>
<path fill-rule="evenodd" clip-rule="evenodd" d="M15.3366 8.94712C15.4299 8.95816 15.5206 8.98401 15.6036 9.02773L15.7004 9.08818C15.8232 9.17851 15.9167 9.30389 15.9674 9.44891L16.7564 11.6888C16.9309 12.1849 17.2173 12.6366 17.5947 13.0088C17.925 13.3346 18.3178 13.5921 18.7494 13.7675L18.9368 13.838L21.209 14.6149C21.3209 14.6529 21.4222 14.7167 21.5052 14.8003L21.5818 14.89C21.6561 14.9927 21.7017 15.1124 21.7178 15.2376V15.4301C21.7017 15.5549 21.6559 15.6742 21.5818 15.7767C21.489 15.9049 21.3586 16 21.21 16.0507L18.9368 16.8286C18.4314 17.0018 17.9721 17.2856 17.5947 17.6579C17.2173 18.0301 16.931 18.4818 16.7564 18.9778L15.9684 21.2157C15.9159 21.3663 15.8166 21.4966 15.6873 21.5876C15.5827 21.6611 15.4621 21.7058 15.3366 21.7206H15.1583C15.0323 21.7059 14.9105 21.6614 14.8056 21.5876C14.6765 21.4966 14.5779 21.3672 14.5255 21.2168L14.5265 21.2157L13.7366 18.9778L13.666 18.7935C13.4891 18.3698 13.2282 17.9836 12.8982 17.6579C12.521 17.2857 12.0623 17.0019 11.5571 16.8286L9.28393 16.0518L9.28494 16.0507C9.13586 16.0001 9.00516 15.9052 8.91213 15.7767C8.83776 15.6739 8.79214 15.5543 8.7761 15.4291V15.2376C8.78716 15.1515 8.81141 15.0679 8.85066 14.9907L8.91213 14.89L8.98871 14.8003C9.0718 14.7167 9.1739 14.6529 9.28595 14.6149L11.5571 13.838C12.0623 13.6648 12.521 13.381 12.8982 13.0088C13.2754 12.6365 13.5621 12.1848 13.7366 11.6888L14.5265 9.4479C14.5672 9.33224 14.635 9.22927 14.723 9.14662L14.8187 9.07005L14.9245 9.0106C14.9988 8.97616 15.0781 8.95446 15.1593 8.9451L15.3366 8.94712ZM15.0172 12.1372C14.7742 12.827 14.3762 13.4534 13.8534 13.969C13.3306 14.4847 12.6959 14.8766 11.9984 15.1157L11.3626 15.3333L11.9984 15.551C12.6959 15.79 13.3305 16.1829 13.8534 16.6986C14.3108 17.1498 14.6724 17.6856 14.9185 18.2745L15.0172 18.5305L15.247 19.1804L15.4757 18.5305C15.7187 17.8405 16.1176 17.2144 16.6405 16.6986C17.1633 16.183 17.7971 15.7911 18.4945 15.552L19.1313 15.3333L18.4945 15.1157C17.7972 14.8767 17.1633 14.4846 16.6405 13.969C16.1177 13.4534 15.7187 12.827 15.4757 12.1372L15.247 11.4863L15.0172 12.1372Z" fill="black" fill-opacity="0.2"/>
<path fill-rule="evenodd" clip-rule="evenodd" d="M15.3366 8.94712C15.4299 8.95816 15.5206 8.98401 15.6036 9.02773L15.7004 9.08818C15.8232 9.17851 15.9167 9.30389 15.9674 9.44891L16.7564 11.6888C16.9309 12.1849 17.2173 12.6366 17.5947 13.0088C17.925 13.3346 18.3178 13.5921 18.7494 13.7675L18.9368 13.838L21.209 14.6149C21.3209 14.6529 21.4222 14.7167 21.5052 14.8003L21.5818 14.89C21.6561 14.9927 21.7017 15.1124 21.7178 15.2376V15.4301C21.7017 15.5549 21.6559 15.6742 21.5818 15.7767C21.489 15.9049 21.3586 16 21.21 16.0507L18.9368 16.8286C18.4314 17.0018 17.9721 17.2856 17.5947 17.6579C17.2173 18.0301 16.931 18.4818 16.7564 18.9778L15.9684 21.2157C15.9159 21.3663 15.8166 21.4966 15.6873 21.5876C15.5827 21.6611 15.4621 21.7058 15.3366 21.7206H15.1583C15.0323 21.7059 14.9105 21.6614 14.8056 21.5876C14.6765 21.4966 14.5779 21.3672 14.5255 21.2168L14.5265 21.2157L13.7366 18.9778L13.666 18.7935C13.4891 18.3698 13.2282 17.9836 12.8982 17.6579C12.521 17.2857 12.0623 17.0019 11.5571 16.8286L9.28393 16.0518L9.28494 16.0507C9.13586 16.0001 9.00516 15.9052 8.91213 15.7767C8.83776 15.6739 8.79214 15.5543 8.7761 15.4291V15.2376C8.78716 15.1515 8.81141 15.0679 8.85066 14.9907L8.91213 14.89L8.98871 14.8003C9.0718 14.7167 9.1739 14.6529 9.28595 14.6149L11.5571 13.838C12.0623 13.6648 12.521 13.381 12.8982 13.0088C13.2754 12.6365 13.5621 12.1848 13.7366 11.6888L14.5265 9.4479C14.5672 9.33224 14.635 9.22927 14.723 9.14662L14.8187 9.07005L14.9245 9.0106C14.9988 8.97616 15.0781 8.95446 15.1593 8.9451L15.3366 8.94712ZM15.0172 12.1372C14.7742 12.827 14.3762 13.4534 13.8534 13.969C13.3306 14.4847 12.6959 14.8766 11.9984 15.1157L11.3626 15.3333L11.9984 15.551C12.6959 15.79 13.3305 16.1829 13.8534 16.6986C14.3108 17.1498 14.6724 17.6856 14.9185 18.2745L15.0172 18.5305L15.247 19.1804L15.4757 18.5305C15.7187 17.8405 16.1176 17.2144 16.6405 16.6986C17.1633 16.183 17.7971 15.7911 18.4945 15.552L19.1313 15.3333L18.4945 15.1157C17.7972 14.8767 17.1633 14.4846 16.6405 13.969C16.1177 13.4534 15.7187 12.827 15.4757 12.1372L15.247 11.4863L15.0172 12.1372Z" fill="black" fill-opacity="0.2"/>
<path fill-rule="evenodd" clip-rule="evenodd" d="M15.3366 8.94712C15.4299 8.95816 15.5206 8.98401 15.6036 9.02773L15.7004 9.08818C15.8232 9.17851 15.9167 9.30389 15.9674 9.44891L16.7564 11.6888C16.9309 12.1849 17.2173 12.6366 17.5947 13.0088C17.925 13.3346 18.3178 13.5921 18.7494 13.7675L18.9368 13.838L21.209 14.6149C21.3209 14.6529 21.4222 14.7167 21.5052 14.8003L21.5818 14.89C21.6561 14.9927 21.7017 15.1124 21.7178 15.2376V15.4301C21.7017 15.5549 21.6559 15.6742 21.5818 15.7767C21.489 15.9049 21.3586 16 21.21 16.0507L18.9368 16.8286C18.4314 17.0018 17.9721 17.2856 17.5947 17.6579C17.2173 18.0301 16.931 18.4818 16.7564 18.9778L15.9684 21.2157C15.9159 21.3663 15.8166 21.4966 15.6873 21.5876C15.5827 21.6611 15.4621 21.7058 15.3366 21.7206H15.1583C15.0323 21.7059 14.9105 21.6614 14.8056 21.5876C14.6765 21.4966 14.5779 21.3672 14.5255 21.2168L14.5265 21.2157L13.7366 18.9778L13.666 18.7935C13.4891 18.3698 13.2282 17.9836 12.8982 17.6579C12.521 17.2857 12.0623 17.0019 11.5571 16.8286L9.28393 16.0518L9.28494 16.0507C9.13586 16.0001 9.00516 15.9052 8.91213 15.7767C8.83776 15.6739 8.79214 15.5543 8.7761 15.4291V15.2376C8.78716 15.1515 8.81141 15.0679 8.85066 14.9907L8.91213 14.89L8.98871 14.8003C9.0718 14.7167 9.1739 14.6529 9.28595 14.6149L11.5571 13.838C12.0623 13.6648 12.521 13.381 12.8982 13.0088C13.2754 12.6365 13.5621 12.1848 13.7366 11.6888L14.5265 9.4479C14.5672 9.33224 14.635 9.22927 14.723 9.14662L14.8187 9.07005L14.9245 9.0106C14.9988 8.97616 15.0781 8.95446 15.1593 8.9451L15.3366 8.94712ZM15.0172 12.1372C14.7742 12.827 14.3762 13.4534 13.8534 13.969C13.3306 14.4847 12.6959 14.8766 11.9984 15.1157L11.3626 15.3333L11.9984 15.551C12.6959 15.79 13.3305 16.1829 13.8534 16.6986C14.3108 17.1498 14.6724 17.6856 14.9185 18.2745L15.0172 18.5305L15.247 19.1804L15.4757 18.5305C15.7187 17.8405 16.1176 17.2144 16.6405 16.6986C17.1633 16.183 17.7971 15.7911 18.4945 15.552L19.1313 15.3333L18.4945 15.1157C17.7972 14.8767 17.1633 14.4846 16.6405 13.969C16.1177 13.4534 15.7187 12.827 15.4757 12.1372L15.247 11.4863L15.0172 12.1372Z" fill="black" fill-opacity="0.2"/>
<path fill-rule="evenodd" clip-rule="evenodd" d="M7.15083 2.23242C7.24533 2.24161 7.33772 2.26627 7.42188 2.31001L7.51558 2.36845C7.63534 2.45564 7.72678 2.57744 7.77655 2.71809L8.34585 4.33328C8.46209 4.66295 8.65289 4.96325 8.90407 5.21091C9.15532 5.45857 9.46104 5.64769 9.79781 5.76308L11.4342 6.32331L11.4352 6.32432C11.5428 6.36157 11.6406 6.42281 11.7203 6.50367L11.7939 6.59133C11.8674 6.69367 11.911 6.81317 11.9249 6.93795V7.09614C11.9114 7.22233 11.8682 7.34342 11.7939 7.44679C11.7045 7.5711 11.5787 7.66413 11.4352 7.71381L9.79781 8.27504C9.461 8.39044 9.15537 8.57945 8.90407 8.82721C8.65282 9.07497 8.46206 9.37508 8.34585 9.70484L7.77655 11.319C7.725 11.4638 7.62943 11.5894 7.5045 11.6767C7.39935 11.7502 7.27714 11.7925 7.15083 11.8047H7.00674C6.88085 11.7923 6.75889 11.75 6.65408 11.6767C6.52923 11.5894 6.43355 11.4648 6.38202 11.32L5.81273 9.70484C5.69642 9.37505 5.50585 9.07492 5.25451 8.82721C5.00302 8.57947 4.6968 8.3903 4.35976 8.27504L2.72239 7.71381C2.57894 7.66411 2.45204 7.57108 2.36268 7.44679C2.2884 7.34343 2.24515 7.22231 2.23169 7.09614V6.93795C2.24137 6.85115 2.26411 6.7667 2.30323 6.68907L2.36268 6.59133L2.43623 6.50367C2.51594 6.42284 2.61382 6.36158 2.72139 6.32432L2.72239 6.32331L4.35976 5.76308C4.6968 5.64782 5.00302 5.45866 5.25451 5.21091C5.50586 4.96327 5.69637 4.66301 5.81273 4.33328L6.38202 2.7191C6.42154 2.60737 6.4873 2.50675 6.57246 2.42689L6.66415 2.35333L6.76592 2.2959C6.8418 2.26056 6.92356 2.24065 7.00674 2.23242H7.15083ZM6.81933 11.1649C6.8288 11.1914 6.8425 11.2163 6.85963 11.2384L6.81933 11.1649ZM7.50248 9.41263C7.52257 9.3556 7.54473 9.29902 7.56798 9.24335L7.50248 9.41263ZM7.0803 4.81593C6.89468 5.3254 6.59733 5.7879 6.20972 6.17015C5.82737 6.54707 5.36577 6.83581 4.85953 7.01856C5.36584 7.2013 5.82733 7.49 6.20972 7.86696C6.59726 8.24907 6.89361 8.71191 7.07929 9.22119C7.26484 8.71207 7.56156 8.24904 7.94885 7.86696C8.33106 7.49007 8.79196 7.20139 9.29804 7.01856C8.79191 6.83568 8.33107 6.54713 7.94885 6.17015C7.56152 5.78804 7.26585 5.3251 7.0803 4.81593ZM4.94618 8.02717L4.80512 7.95462C4.78419 7.94474 4.76284 7.93576 4.74164 7.92641C4.81125 7.95728 4.87946 7.991 4.94618 8.02717ZM9.50561 6.60141C9.44767 6.58154 9.39086 6.55992 9.33431 6.53692L9.50561 6.60141ZM7.50248 4.62549C7.5226 4.68261 7.54468 4.73902 7.56798 4.79477L7.50248 4.62549Z" fill="#1D1A24"/>
<path fill-rule="evenodd" clip-rule="evenodd" d="M7.15083 2.23242C7.24533 2.24161 7.33772 2.26627 7.42188 2.31001L7.51558 2.36845C7.63534 2.45564 7.72678 2.57744 7.77655 2.71809L8.34585 4.33328C8.46209 4.66295 8.65289 4.96325 8.90407 5.21091C9.15532 5.45857 9.46104 5.64769 9.79781 5.76308L11.4342 6.32331L11.4352 6.32432C11.5428 6.36157 11.6406 6.42281 11.7203 6.50367L11.7939 6.59133C11.8674 6.69367 11.911 6.81317 11.9249 6.93795V7.09614C11.9114 7.22233 11.8682 7.34342 11.7939 7.44679C11.7045 7.5711 11.5787 7.66413 11.4352 7.71381L9.79781 8.27504C9.461 8.39044 9.15537 8.57945 8.90407 8.82721C8.65282 9.07497 8.46206 9.37508 8.34585 9.70484L7.77655 11.319C7.725 11.4638 7.62943 11.5894 7.5045 11.6767C7.39935 11.7502 7.27714 11.7925 7.15083 11.8047H7.00674C6.88085 11.7923 6.75889 11.75 6.65408 11.6767C6.52923 11.5894 6.43355 11.4648 6.38202 11.32L5.81273 9.70484C5.69642 9.37505 5.50585 9.07492 5.25451 8.82721C5.00302 8.57947 4.6968 8.3903 4.35976 8.27504L2.72239 7.71381C2.57894 7.66411 2.45204 7.57108 2.36268 7.44679C2.2884 7.34343 2.24515 7.22231 2.23169 7.09614V6.93795C2.24137 6.85115 2.26411 6.7667 2.30323 6.68907L2.36268 6.59133L2.43623 6.50367C2.51594 6.42284 2.61382 6.36158 2.72139 6.32432L2.72239 6.32331L4.35976 5.76308C4.6968 5.64782 5.00302 5.45866 5.25451 5.21091C5.50586 4.96327 5.69637 4.66301 5.81273 4.33328L6.38202 2.7191C6.42154 2.60737 6.4873 2.50675 6.57246 2.42689L6.66415 2.35333L6.76592 2.2959C6.8418 2.26056 6.92356 2.24065 7.00674 2.23242H7.15083ZM6.81933 11.1649C6.8288 11.1914 6.8425 11.2163 6.85963 11.2384L6.81933 11.1649ZM7.50248 9.41263C7.52257 9.3556 7.54473 9.29902 7.56798 9.24335L7.50248 9.41263ZM7.0803 4.81593C6.89468 5.3254 6.59733 5.7879 6.20972 6.17015C5.82737 6.54707 5.36577 6.83581 4.85953 7.01856C5.36584 7.2013 5.82733 7.49 6.20972 7.86696C6.59726 8.24907 6.89361 8.71191 7.07929 9.22119C7.26484 8.71207 7.56156 8.24904 7.94885 7.86696C8.33106 7.49007 8.79196 7.20139 9.29804 7.01856C8.79191 6.83568 8.33107 6.54713 7.94885 6.17015C7.56152 5.78804 7.26585 5.3251 7.0803 4.81593ZM4.94618 8.02717L4.80512 7.95462C4.78419 7.94474 4.76284 7.93576 4.74164 7.92641C4.81125 7.95728 4.87946 7.991 4.94618 8.02717ZM9.50561 6.60141C9.44767 6.58154 9.39086 6.55992 9.33431 6.53692L9.50561 6.60141ZM7.50248 4.62549C7.5226 4.68261 7.54468 4.73902 7.56798 4.79477L7.50248 4.62549Z" fill="black" fill-opacity="0.2"/>
<path fill-rule="evenodd" clip-rule="evenodd" d="M7.15083 2.23242C7.24533 2.24161 7.33772 2.26627 7.42188 2.31001L7.51558 2.36845C7.63534 2.45564 7.72678 2.57744 7.77655 2.71809L8.34585 4.33328C8.46209 4.66295 8.65289 4.96325 8.90407 5.21091C9.15532 5.45857 9.46104 5.64769 9.79781 5.76308L11.4342 6.32331L11.4352 6.32432C11.5428 6.36157 11.6406 6.42281 11.7203 6.50367L11.7939 6.59133C11.8674 6.69367 11.911 6.81317 11.9249 6.93795V7.09614C11.9114 7.22233 11.8682 7.34342 11.7939 7.44679C11.7045 7.5711 11.5787 7.66413 11.4352 7.71381L9.79781 8.27504C9.461 8.39044 9.15537 8.57945 8.90407 8.82721C8.65282 9.07497 8.46206 9.37508 8.34585 9.70484L7.77655 11.319C7.725 11.4638 7.62943 11.5894 7.5045 11.6767C7.39935 11.7502 7.27714 11.7925 7.15083 11.8047H7.00674C6.88085 11.7923 6.75889 11.75 6.65408 11.6767C6.52923 11.5894 6.43355 11.4648 6.38202 11.32L5.81273 9.70484C5.69642 9.37505 5.50585 9.07492 5.25451 8.82721C5.00302 8.57947 4.6968 8.3903 4.35976 8.27504L2.72239 7.71381C2.57894 7.66411 2.45204 7.57108 2.36268 7.44679C2.2884 7.34343 2.24515 7.22231 2.23169 7.09614V6.93795C2.24137 6.85115 2.26411 6.7667 2.30323 6.68907L2.36268 6.59133L2.43623 6.50367C2.51594 6.42284 2.61382 6.36158 2.72139 6.32432L2.72239 6.32331L4.35976 5.76308C4.6968 5.64782 5.00302 5.45866 5.25451 5.21091C5.50586 4.96327 5.69637 4.66301 5.81273 4.33328L6.38202 2.7191C6.42154 2.60737 6.4873 2.50675 6.57246 2.42689L6.66415 2.35333L6.76592 2.2959C6.8418 2.26056 6.92356 2.24065 7.00674 2.23242H7.15083ZM6.81933 11.1649C6.8288 11.1914 6.8425 11.2163 6.85963 11.2384L6.81933 11.1649ZM7.50248 9.41263C7.52257 9.3556 7.54473 9.29902 7.56798 9.24335L7.50248 9.41263ZM7.0803 4.81593C6.89468 5.3254 6.59733 5.7879 6.20972 6.17015C5.82737 6.54707 5.36577 6.83581 4.85953 7.01856C5.36584 7.2013 5.82733 7.49 6.20972 7.86696C6.59726 8.24907 6.89361 8.71191 7.07929 9.22119C7.26484 8.71207 7.56156 8.24904 7.94885 7.86696C8.33106 7.49007 8.79196 7.20139 9.29804 7.01856C8.79191 6.83568 8.33107 6.54713 7.94885 6.17015C7.56152 5.78804 7.26585 5.3251 7.0803 4.81593ZM4.94618 8.02717L4.80512 7.95462C4.78419 7.94474 4.76284 7.93576 4.74164 7.92641C4.81125 7.95728 4.87946 7.991 4.94618 8.02717ZM9.50561 6.60141C9.44767 6.58154 9.39086 6.55992 9.33431 6.53692L9.50561 6.60141ZM7.50248 4.62549C7.5226 4.68261 7.54468 4.73902 7.56798 4.79477L7.50248 4.62549Z" fill="black" fill-opacity="0.2"/>
<path fill-rule="evenodd" clip-rule="evenodd" d="M7.15083 2.23242C7.24533 2.24161 7.33772 2.26627 7.42188 2.31001L7.51558 2.36845C7.63534 2.45564 7.72678 2.57744 7.77655 2.71809L8.34585 4.33328C8.46209 4.66295 8.65289 4.96325 8.90407 5.21091C9.15532 5.45857 9.46104 5.64769 9.79781 5.76308L11.4342 6.32331L11.4352 6.32432C11.5428 6.36157 11.6406 6.42281 11.7203 6.50367L11.7939 6.59133C11.8674 6.69367 11.911 6.81317 11.9249 6.93795V7.09614C11.9114 7.22233 11.8682 7.34342 11.7939 7.44679C11.7045 7.5711 11.5787 7.66413 11.4352 7.71381L9.79781 8.27504C9.461 8.39044 9.15537 8.57945 8.90407 8.82721C8.65282 9.07497 8.46206 9.37508 8.34585 9.70484L7.77655 11.319C7.725 11.4638 7.62943 11.5894 7.5045 11.6767C7.39935 11.7502 7.27714 11.7925 7.15083 11.8047H7.00674C6.88085 11.7923 6.75889 11.75 6.65408 11.6767C6.52923 11.5894 6.43355 11.4648 6.38202 11.32L5.81273 9.70484C5.69642 9.37505 5.50585 9.07492 5.25451 8.82721C5.00302 8.57947 4.6968 8.3903 4.35976 8.27504L2.72239 7.71381C2.57894 7.66411 2.45204 7.57108 2.36268 7.44679C2.2884 7.34343 2.24515 7.22231 2.23169 7.09614V6.93795C2.24137 6.85115 2.26411 6.7667 2.30323 6.68907L2.36268 6.59133L2.43623 6.50367C2.51594 6.42284 2.61382 6.36158 2.72139 6.32432L2.72239 6.32331L4.35976 5.76308C4.6968 5.64782 5.00302 5.45866 5.25451 5.21091C5.50586 4.96327 5.69637 4.66301 5.81273 4.33328L6.38202 2.7191C6.42154 2.60737 6.4873 2.50675 6.57246 2.42689L6.66415 2.35333L6.76592 2.2959C6.8418 2.26056 6.92356 2.24065 7.00674 2.23242H7.15083ZM6.81933 11.1649C6.8288 11.1914 6.8425 11.2163 6.85963 11.2384L6.81933 11.1649ZM7.50248 9.41263C7.52257 9.3556 7.54473 9.29902 7.56798 9.24335L7.50248 9.41263ZM7.0803 4.81593C6.89468 5.3254 6.59733 5.7879 6.20972 6.17015C5.82737 6.54707 5.36577 6.83581 4.85953 7.01856C5.36584 7.2013 5.82733 7.49 6.20972 7.86696C6.59726 8.24907 6.89361 8.71191 7.07929 9.22119C7.26484 8.71207 7.56156 8.24904 7.94885 7.86696C8.33106 7.49007 8.79196 7.20139 9.29804 7.01856C8.79191 6.83568 8.33107 6.54713 7.94885 6.17015C7.56152 5.78804 7.26585 5.3251 7.0803 4.81593ZM4.94618 8.02717L4.80512 7.95462C4.78419 7.94474 4.76284 7.93576 4.74164 7.92641C4.81125 7.95728 4.87946 7.991 4.94618 8.02717ZM9.50561 6.60141C9.44767 6.58154 9.39086 6.55992 9.33431 6.53692L9.50561 6.60141ZM7.50248 4.62549C7.5226 4.68261 7.54468 4.73902 7.56798 4.79477L7.50248 4.62549Z" fill="black" fill-opacity="0.2"/>
<path fill-rule="evenodd" clip-rule="evenodd" d="M7.15083 2.23242C7.24533 2.24161 7.33772 2.26627 7.42188 2.31001L7.51558 2.36845C7.63534 2.45564 7.72678 2.57744 7.77655 2.71809L8.34585 4.33328C8.46209 4.66295 8.65289 4.96325 8.90407 5.21091C9.15532 5.45857 9.46104 5.64769 9.79781 5.76308L11.4342 6.32331L11.4352 6.32432C11.5428 6.36157 11.6406 6.42281 11.7203 6.50367L11.7939 6.59133C11.8674 6.69367 11.911 6.81317 11.9249 6.93795V7.09614C11.9114 7.22233 11.8682 7.34342 11.7939 7.44679C11.7045 7.5711 11.5787 7.66413 11.4352 7.71381L9.79781 8.27504C9.461 8.39044 9.15537 8.57945 8.90407 8.82721C8.65282 9.07497 8.46206 9.37508 8.34585 9.70484L7.77655 11.319C7.725 11.4638 7.62943 11.5894 7.5045 11.6767C7.39935 11.7502 7.27714 11.7925 7.15083 11.8047H7.00674C6.88085 11.7923 6.75889 11.75 6.65408 11.6767C6.52923 11.5894 6.43355 11.4648 6.38202 11.32L5.81273 9.70484C5.69642 9.37505 5.50585 9.07492 5.25451 8.82721C5.00302 8.57947 4.6968 8.3903 4.35976 8.27504L2.72239 7.71381C2.57894 7.66411 2.45204 7.57108 2.36268 7.44679C2.2884 7.34343 2.24515 7.22231 2.23169 7.09614V6.93795C2.24137 6.85115 2.26411 6.7667 2.30323 6.68907L2.36268 6.59133L2.43623 6.50367C2.51594 6.42284 2.61382 6.36158 2.72139 6.32432L2.72239 6.32331L4.35976 5.76308C4.6968 5.64782 5.00302 5.45866 5.25451 5.21091C5.50586 4.96327 5.69637 4.66301 5.81273 4.33328L6.38202 2.7191C6.42154 2.60737 6.4873 2.50675 6.57246 2.42689L6.66415 2.35333L6.76592 2.2959C6.8418 2.26056 6.92356 2.24065 7.00674 2.23242H7.15083ZM6.81933 11.1649C6.8288 11.1914 6.8425 11.2163 6.85963 11.2384L6.81933 11.1649ZM7.50248 9.41263C7.52257 9.3556 7.54473 9.29902 7.56798 9.24335L7.50248 9.41263ZM7.0803 4.81593C6.89468 5.3254 6.59733 5.7879 6.20972 6.17015C5.82737 6.54707 5.36577 6.83581 4.85953 7.01856C5.36584 7.2013 5.82733 7.49 6.20972 7.86696C6.59726 8.24907 6.89361 8.71191 7.07929 9.22119C7.26484 8.71207 7.56156 8.24904 7.94885 7.86696C8.33106 7.49007 8.79196 7.20139 9.29804 7.01856C8.79191 6.83568 8.33107 6.54713 7.94885 6.17015C7.56152 5.78804 7.26585 5.3251 7.0803 4.81593ZM4.94618 8.02717L4.80512 7.95462C4.78419 7.94474 4.76284 7.93576 4.74164 7.92641C4.81125 7.95728 4.87946 7.991 4.94618 8.02717ZM9.50561 6.60141C9.44767 6.58154 9.39086 6.55992 9.33431 6.53692L9.50561 6.60141ZM7.50248 4.62549C7.5226 4.68261 7.54468 4.73902 7.56798 4.79477L7.50248 4.62549Z" fill="black" fill-opacity="0.2"/>
<path fill-rule="evenodd" clip-rule="evenodd" d="M7.15083 2.23242C7.24533 2.24161 7.33772 2.26627 7.42188 2.31001L7.51558 2.36845C7.63534 2.45564 7.72678 2.57744 7.77655 2.71809L8.34585 4.33328C8.46209 4.66295 8.65289 4.96325 8.90407 5.21091C9.15532 5.45857 9.46104 5.64769 9.79781 5.76308L11.4342 6.32331L11.4352 6.32432C11.5428 6.36157 11.6406 6.42281 11.7203 6.50367L11.7939 6.59133C11.8674 6.69367 11.911 6.81317 11.9249 6.93795V7.09614C11.9114 7.22233 11.8682 7.34342 11.7939 7.44679C11.7045 7.5711 11.5787 7.66413 11.4352 7.71381L9.79781 8.27504C9.461 8.39044 9.15537 8.57945 8.90407 8.82721C8.65282 9.07497 8.46206 9.37508 8.34585 9.70484L7.77655 11.319C7.725 11.4638 7.62943 11.5894 7.5045 11.6767C7.39935 11.7502 7.27714 11.7925 7.15083 11.8047H7.00674C6.88085 11.7923 6.75889 11.75 6.65408 11.6767C6.52923 11.5894 6.43355 11.4648 6.38202 11.32L5.81273 9.70484C5.69642 9.37505 5.50585 9.07492 5.25451 8.82721C5.00302 8.57947 4.6968 8.3903 4.35976 8.27504L2.72239 7.71381C2.57894 7.66411 2.45204 7.57108 2.36268 7.44679C2.2884 7.34343 2.24515 7.22231 2.23169 7.09614V6.93795C2.24137 6.85115 2.26411 6.7667 2.30323 6.68907L2.36268 6.59133L2.43623 6.50367C2.51594 6.42284 2.61382 6.36158 2.72139 6.32432L2.72239 6.32331L4.35976 5.76308C4.6968 5.64782 5.00302 5.45866 5.25451 5.21091C5.50586 4.96327 5.69637 4.66301 5.81273 4.33328L6.38202 2.7191C6.42154 2.60737 6.4873 2.50675 6.57246 2.42689L6.66415 2.35333L6.76592 2.2959C6.8418 2.26056 6.92356 2.24065 7.00674 2.23242H7.15083ZM6.81933 11.1649C6.8288 11.1914 6.8425 11.2163 6.85963 11.2384L6.81933 11.1649ZM7.50248 9.41263C7.52257 9.3556 7.54473 9.29902 7.56798 9.24335L7.50248 9.41263ZM7.0803 4.81593C6.89468 5.3254 6.59733 5.7879 6.20972 6.17015C5.82737 6.54707 5.36577 6.83581 4.85953 7.01856C5.36584 7.2013 5.82733 7.49 6.20972 7.86696C6.59726 8.24907 6.89361 8.71191 7.07929 9.22119C7.26484 8.71207 7.56156 8.24904 7.94885 7.86696C8.33106 7.49007 8.79196 7.20139 9.29804 7.01856C8.79191 6.83568 8.33107 6.54713 7.94885 6.17015C7.56152 5.78804 7.26585 5.3251 7.0803 4.81593ZM4.94618 8.02717L4.80512 7.95462C4.78419 7.94474 4.76284 7.93576 4.74164 7.92641C4.81125 7.95728 4.87946 7.991 4.94618 8.02717ZM9.50561 6.60141C9.44767 6.58154 9.39086 6.55992 9.33431 6.53692L9.50561 6.60141ZM7.50248 4.62549C7.5226 4.68261 7.54468 4.73902 7.56798 4.79477L7.50248 4.62549Z" fill="black" fill-opacity="0.2"/>
<path d="M15.0172 12.1372C14.7742 12.827 14.3762 13.4534 13.8534 13.969C13.3306 14.4847 12.6959 14.8766 11.9984 15.1157L11.3626 15.3333L11.9984 15.551C12.6959 15.79 13.3305 16.1829 13.8534 16.6986C14.3108 17.1498 14.6724 17.6856 14.9185 18.2745L15.0172 18.5305L15.247 19.1804L15.4757 18.5305C15.7187 17.8405 16.1176 17.2144 16.6405 16.6986C17.1633 16.183 17.7971 15.7911 18.4945 15.552L19.1313 15.3333L18.4945 15.1157C17.7972 14.8767 17.1633 14.4846 16.6405 13.969C16.1177 13.4534 15.7187 12.827 15.4757 12.1372L15.247 11.4863L15.0172 12.1372Z" fill="#1D1A24"/>
<path d="M15.0172 12.1372C14.7742 12.827 14.3762 13.4534 13.8534 13.969C13.3306 14.4847 12.6959 14.8766 11.9984 15.1157L11.3626 15.3333L11.9984 15.551C12.6959 15.79 13.3305 16.1829 13.8534 16.6986C14.3108 17.1498 14.6724 17.6856 14.9185 18.2745L15.0172 18.5305L15.247 19.1804L15.4757 18.5305C15.7187 17.8405 16.1176 17.2144 16.6405 16.6986C17.1633 16.183 17.7971 15.7911 18.4945 15.552L19.1313 15.3333L18.4945 15.1157C17.7972 14.8767 17.1633 14.4846 16.6405 13.969C16.1177 13.4534 15.7187 12.827 15.4757 12.1372L15.247 11.4863L15.0172 12.1372Z" fill="black" fill-opacity="0.2"/>
<path d="M15.0172 12.1372C14.7742 12.827 14.3762 13.4534 13.8534 13.969C13.3306 14.4847 12.6959 14.8766 11.9984 15.1157L11.3626 15.3333L11.9984 15.551C12.6959 15.79 13.3305 16.1829 13.8534 16.6986C14.3108 17.1498 14.6724 17.6856 14.9185 18.2745L15.0172 18.5305L15.247 19.1804L15.4757 18.5305C15.7187 17.8405 16.1176 17.2144 16.6405 16.6986C17.1633 16.183 17.7971 15.7911 18.4945 15.552L19.1313 15.3333L18.4945 15.1157C17.7972 14.8767 17.1633 14.4846 16.6405 13.969C16.1177 13.4534 15.7187 12.827 15.4757 12.1372L15.247 11.4863L15.0172 12.1372Z" fill="black" fill-opacity="0.2"/>
<path d="M15.0172 12.1372C14.7742 12.827 14.3762 13.4534 13.8534 13.969C13.3306 14.4847 12.6959 14.8766 11.9984 15.1157L11.3626 15.3333L11.9984 15.551C12.6959 15.79 13.3305 16.1829 13.8534 16.6986C14.3108 17.1498 14.6724 17.6856 14.9185 18.2745L15.0172 18.5305L15.247 19.1804L15.4757 18.5305C15.7187 17.8405 16.1176 17.2144 16.6405 16.6986C17.1633 16.183 17.7971 15.7911 18.4945 15.552L19.1313 15.3333L18.4945 15.1157C17.7972 14.8767 17.1633 14.4846 16.6405 13.969C16.1177 13.4534 15.7187 12.827 15.4757 12.1372L15.247 11.4863L15.0172 12.1372Z" fill="black" fill-opacity="0.2"/>
<path d="M15.0172 12.1372C14.7742 12.827 14.3762 13.4534 13.8534 13.969C13.3306 14.4847 12.6959 14.8766 11.9984 15.1157L11.3626 15.3333L11.9984 15.551C12.6959 15.79 13.3305 16.1829 13.8534 16.6986C14.3108 17.1498 14.6724 17.6856 14.9185 18.2745L15.0172 18.5305L15.247 19.1804L15.4757 18.5305C15.7187 17.8405 16.1176 17.2144 16.6405 16.6986C17.1633 16.183 17.7971 15.7911 18.4945 15.552L19.1313 15.3333L18.4945 15.1157C17.7972 14.8767 17.1633 14.4846 16.6405 13.969C16.1177 13.4534 15.7187 12.827 15.4757 12.1372L15.247 11.4863L15.0172 12.1372Z" fill="black" fill-opacity="0.2"/>
<path d="M15.0172 12.1372C14.7742 12.827 14.3762 13.4534 13.8534 13.969C13.3306 14.4847 12.6959 14.8766 11.9984 15.1157L11.3626 15.3333L11.9984 15.551C12.6959 15.79 13.3305 16.1829 13.8534 16.6986C14.3108 17.1498 14.6724 17.6856 14.9185 18.2745L15.0172 18.5305L15.247 19.1804L15.4757 18.5305C15.7187 17.8405 16.1176 17.2144 16.6405 16.6986C17.1633 16.183 17.7971 15.7911 18.4945 15.552L19.1313 15.3333L18.4945 15.1157C17.7972 14.8767 17.1633 14.4846 16.6405 13.969C16.1177 13.4534 15.7187 12.827 15.4757 12.1372L15.247 11.4863L15.0172 12.1372Z" fill="black" fill-opacity="0.2"/>
<path d="M7.0803 4.81593C6.89468 5.3254 6.59733 5.7879 6.20972 6.17015C5.82737 6.54707 5.36577 6.83581 4.85953 7.01856C5.36584 7.2013 5.82733 7.49 6.20972 7.86696C6.59726 8.24907 6.89361 8.71191 7.07929 9.22119C7.26484 8.71207 7.56156 8.24904 7.94885 7.86696C8.33106 7.49007 8.79196 7.20139 9.29804 7.01856C8.79191 6.83568 8.33107 6.54713 7.94885 6.17015C7.56152 5.78804 7.26585 5.3251 7.0803 4.81593Z" fill="#1D1A24"/>
<path d="M7.0803 4.81593C6.89468 5.3254 6.59733 5.7879 6.20972 6.17015C5.82737 6.54707 5.36577 6.83581 4.85953 7.01856C5.36584 7.2013 5.82733 7.49 6.20972 7.86696C6.59726 8.24907 6.89361 8.71191 7.07929 9.22119C7.26484 8.71207 7.56156 8.24904 7.94885 7.86696C8.33106 7.49007 8.79196 7.20139 9.29804 7.01856C8.79191 6.83568 8.33107 6.54713 7.94885 6.17015C7.56152 5.78804 7.26585 5.3251 7.0803 4.81593Z" fill="black" fill-opacity="0.2"/>
<path d="M7.0803 4.81593C6.89468 5.3254 6.59733 5.7879 6.20972 6.17015C5.82737 6.54707 5.36577 6.83581 4.85953 7.01856C5.36584 7.2013 5.82733 7.49 6.20972 7.86696C6.59726 8.24907 6.89361 8.71191 7.07929 9.22119C7.26484 8.71207 7.56156 8.24904 7.94885 7.86696C8.33106 7.49007 8.79196 7.20139 9.29804 7.01856C8.79191 6.83568 8.33107 6.54713 7.94885 6.17015C7.56152 5.78804 7.26585 5.3251 7.0803 4.81593Z" fill="black" fill-opacity="0.2"/>
<path d="M7.0803 4.81593C6.89468 5.3254 6.59733 5.7879 6.20972 6.17015C5.82737 6.54707 5.36577 6.83581 4.85953 7.01856C5.36584 7.2013 5.82733 7.49 6.20972 7.86696C6.59726 8.24907 6.89361 8.71191 7.07929 9.22119C7.26484 8.71207 7.56156 8.24904 7.94885 7.86696C8.33106 7.49007 8.79196 7.20139 9.29804 7.01856C8.79191 6.83568 8.33107 6.54713 7.94885 6.17015C7.56152 5.78804 7.26585 5.3251 7.0803 4.81593Z" fill="black" fill-opacity="0.2"/>
<path d="M7.0803 4.81593C6.89468 5.3254 6.59733 5.7879 6.20972 6.17015C5.82737 6.54707 5.36577 6.83581 4.85953 7.01856C5.36584 7.2013 5.82733 7.49 6.20972 7.86696C6.59726 8.24907 6.89361 8.71191 7.07929 9.22119C7.26484 8.71207 7.56156 8.24904 7.94885 7.86696C8.33106 7.49007 8.79196 7.20139 9.29804 7.01856C8.79191 6.83568 8.33107 6.54713 7.94885 6.17015C7.56152 5.78804 7.26585 5.3251 7.0803 4.81593Z" fill="black" fill-opacity="0.2"/>
<path d="M7.0803 4.81593C6.89468 5.3254 6.59733 5.7879 6.20972 6.17015C5.82737 6.54707 5.36577 6.83581 4.85953 7.01856C5.36584 7.2013 5.82733 7.49 6.20972 7.86696C6.59726 8.24907 6.89361 8.71191 7.07929 9.22119C7.26484 8.71207 7.56156 8.24904 7.94885 7.86696C8.33106 7.49007 8.79196 7.20139 9.29804 7.01856C8.79191 6.83568 8.33107 6.54713 7.94885 6.17015C7.56152 5.78804 7.26585 5.3251 7.0803 4.81593Z" fill="black" fill-opacity="0.2"/>
</svg>
