<svg width="24" height="24" viewBox="0 0 24 24" fill="none" xmlns="http://www.w3.org/2000/svg">
<path fill-rule="evenodd" clip-rule="evenodd" d="M12.0003 1C12.3808 1.00007 12.7283 1.21637 12.8968 1.55762L15.7532 7.3457L22.1448 8.28027C22.5213 8.33538 22.8341 8.59997 22.9515 8.96191C23.0687 9.32378 22.97 9.72088 22.6976 9.98633L18.0745 14.4883L19.1663 20.8506C19.2306 21.2257 19.0758 21.6054 18.7679 21.8291C18.46 22.0526 18.0519 22.0822 17.7151 21.9053L12.0003 18.8994L6.28545 21.9053C5.94868 22.0822 5.54057 22.0526 5.23271 21.8291C4.92474 21.6054 4.76993 21.2258 4.83428 20.8506L5.9251 14.4883L1.30303 9.98633C1.03048 9.72087 0.93189 9.32384 1.04912 8.96191C1.16651 8.59994 1.47922 8.33531 1.85576 8.28027L8.24639 7.3457L11.1038 1.55762L11.1751 1.43555C11.3597 1.16561 11.6673 1 12.0003 1ZM9.80693 8.70215C9.66144 8.9969 9.3802 9.20138 9.05498 9.24902L4.14775 9.96582L7.69756 13.4238C7.93326 13.6535 8.04113 13.9842 7.98564 14.3086L7.14775 19.1914L11.5345 16.8848C11.8258 16.7316 12.1748 16.7316 12.4661 16.8848L16.8519 19.1914L16.0149 14.3086C15.9594 13.9842 16.0672 13.6535 16.303 13.4238L19.8519 9.96582L14.9456 9.24902C14.6203 9.20144 14.3392 8.99692 14.1937 8.70215L12.0003 4.25781L9.80693 8.70215Z" fill="#1D1A24"/>
<path fill-rule="evenodd" clip-rule="evenodd" d="M12.0003 1C12.3808 1.00007 12.7283 1.21637 12.8968 1.55762L15.7532 7.3457L22.1448 8.28027C22.5213 8.33538 22.8341 8.59997 22.9515 8.96191C23.0687 9.32378 22.97 9.72088 22.6976 9.98633L18.0745 14.4883L19.1663 20.8506C19.2306 21.2257 19.0758 21.6054 18.7679 21.8291C18.46 22.0526 18.0519 22.0822 17.7151 21.9053L12.0003 18.8994L6.28545 21.9053C5.94868 22.0822 5.54057 22.0526 5.23271 21.8291C4.92474 21.6054 4.76993 21.2258 4.83428 20.8506L5.9251 14.4883L1.30303 9.98633C1.03048 9.72087 0.93189 9.32384 1.04912 8.96191C1.16651 8.59994 1.47922 8.33531 1.85576 8.28027L8.24639 7.3457L11.1038 1.55762L11.1751 1.43555C11.3597 1.16561 11.6673 1 12.0003 1ZM9.80693 8.70215C9.66144 8.9969 9.3802 9.20138 9.05498 9.24902L4.14775 9.96582L7.69756 13.4238C7.93326 13.6535 8.04113 13.9842 7.98564 14.3086L7.14775 19.1914L11.5345 16.8848C11.8258 16.7316 12.1748 16.7316 12.4661 16.8848L16.8519 19.1914L16.0149 14.3086C15.9594 13.9842 16.0672 13.6535 16.303 13.4238L19.8519 9.96582L14.9456 9.24902C14.6203 9.20144 14.3392 8.99692 14.1937 8.70215L12.0003 4.25781L9.80693 8.70215Z" fill="black" fill-opacity="0.2"/>
<path fill-rule="evenodd" clip-rule="evenodd" d="M12.0003 1C12.3808 1.00007 12.7283 1.21637 12.8968 1.55762L15.7532 7.3457L22.1448 8.28027C22.5213 8.33538 22.8341 8.59997 22.9515 8.96191C23.0687 9.32378 22.97 9.72088 22.6976 9.98633L18.0745 14.4883L19.1663 20.8506C19.2306 21.2257 19.0758 21.6054 18.7679 21.8291C18.46 22.0526 18.0519 22.0822 17.7151 21.9053L12.0003 18.8994L6.28545 21.9053C5.94868 22.0822 5.54057 22.0526 5.23271 21.8291C4.92474 21.6054 4.76993 21.2258 4.83428 20.8506L5.9251 14.4883L1.30303 9.98633C1.03048 9.72087 0.93189 9.32384 1.04912 8.96191C1.16651 8.59994 1.47922 8.33531 1.85576 8.28027L8.24639 7.3457L11.1038 1.55762L11.1751 1.43555C11.3597 1.16561 11.6673 1 12.0003 1ZM9.80693 8.70215C9.66144 8.9969 9.3802 9.20138 9.05498 9.24902L4.14775 9.96582L7.69756 13.4238C7.93326 13.6535 8.04113 13.9842 7.98564 14.3086L7.14775 19.1914L11.5345 16.8848C11.8258 16.7316 12.1748 16.7316 12.4661 16.8848L16.8519 19.1914L16.0149 14.3086C15.9594 13.9842 16.0672 13.6535 16.303 13.4238L19.8519 9.96582L14.9456 9.24902C14.6203 9.20144 14.3392 8.99692 14.1937 8.70215L12.0003 4.25781L9.80693 8.70215Z" fill="black" fill-opacity="0.2"/>
<path fill-rule="evenodd" clip-rule="evenodd" d="M12.0003 1C12.3808 1.00007 12.7283 1.21637 12.8968 1.55762L15.7532 7.3457L22.1448 8.28027C22.5213 8.33538 22.8341 8.59997 22.9515 8.96191C23.0687 9.32378 22.97 9.72088 22.6976 9.98633L18.0745 14.4883L19.1663 20.8506C19.2306 21.2257 19.0758 21.6054 18.7679 21.8291C18.46 22.0526 18.0519 22.0822 17.7151 21.9053L12.0003 18.8994L6.28545 21.9053C5.94868 22.0822 5.54057 22.0526 5.23271 21.8291C4.92474 21.6054 4.76993 21.2258 4.83428 20.8506L5.9251 14.4883L1.30303 9.98633C1.03048 9.72087 0.93189 9.32384 1.04912 8.96191C1.16651 8.59994 1.47922 8.33531 1.85576 8.28027L8.24639 7.3457L11.1038 1.55762L11.1751 1.43555C11.3597 1.16561 11.6673 1 12.0003 1ZM9.80693 8.70215C9.66144 8.9969 9.3802 9.20138 9.05498 9.24902L4.14775 9.96582L7.69756 13.4238C7.93326 13.6535 8.04113 13.9842 7.98564 14.3086L7.14775 19.1914L11.5345 16.8848C11.8258 16.7316 12.1748 16.7316 12.4661 16.8848L16.8519 19.1914L16.0149 14.3086C15.9594 13.9842 16.0672 13.6535 16.303 13.4238L19.8519 9.96582L14.9456 9.24902C14.6203 9.20144 14.3392 8.99692 14.1937 8.70215L12.0003 4.25781L9.80693 8.70215Z" fill="black" fill-opacity="0.2"/>
<path fill-rule="evenodd" clip-rule="evenodd" d="M12.0003 1C12.3808 1.00007 12.7283 1.21637 12.8968 1.55762L15.7532 7.3457L22.1448 8.28027C22.5213 8.33538 22.8341 8.59997 22.9515 8.96191C23.0687 9.32378 22.97 9.72088 22.6976 9.98633L18.0745 14.4883L19.1663 20.8506C19.2306 21.2257 19.0758 21.6054 18.7679 21.8291C18.46 22.0526 18.0519 22.0822 17.7151 21.9053L12.0003 18.8994L6.28545 21.9053C5.94868 22.0822 5.54057 22.0526 5.23271 21.8291C4.92474 21.6054 4.76993 21.2258 4.83428 20.8506L5.9251 14.4883L1.30303 9.98633C1.03048 9.72087 0.93189 9.32384 1.04912 8.96191C1.16651 8.59994 1.47922 8.33531 1.85576 8.28027L8.24639 7.3457L11.1038 1.55762L11.1751 1.43555C11.3597 1.16561 11.6673 1 12.0003 1ZM9.80693 8.70215C9.66144 8.9969 9.3802 9.20138 9.05498 9.24902L4.14775 9.96582L7.69756 13.4238C7.93326 13.6535 8.04113 13.9842 7.98564 14.3086L7.14775 19.1914L11.5345 16.8848C11.8258 16.7316 12.1748 16.7316 12.4661 16.8848L16.8519 19.1914L16.0149 14.3086C15.9594 13.9842 16.0672 13.6535 16.303 13.4238L19.8519 9.96582L14.9456 9.24902C14.6203 9.20144 14.3392 8.99692 14.1937 8.70215L12.0003 4.25781L9.80693 8.70215Z" fill="black" fill-opacity="0.2"/>
<path fill-rule="evenodd" clip-rule="evenodd" d="M12.0003 1C12.3808 1.00007 12.7283 1.21637 12.8968 1.55762L15.7532 7.3457L22.1448 8.28027C22.5213 8.33538 22.8341 8.59997 22.9515 8.96191C23.0687 9.32378 22.97 9.72088 22.6976 9.98633L18.0745 14.4883L19.1663 20.8506C19.2306 21.2257 19.0758 21.6054 18.7679 21.8291C18.46 22.0526 18.0519 22.0822 17.7151 21.9053L12.0003 18.8994L6.28545 21.9053C5.94868 22.0822 5.54057 22.0526 5.23271 21.8291C4.92474 21.6054 4.76993 21.2258 4.83428 20.8506L5.9251 14.4883L1.30303 9.98633C1.03048 9.72087 0.93189 9.32384 1.04912 8.96191C1.16651 8.59994 1.47922 8.33531 1.85576 8.28027L8.24639 7.3457L11.1038 1.55762L11.1751 1.43555C11.3597 1.16561 11.6673 1 12.0003 1ZM9.80693 8.70215C9.66144 8.9969 9.3802 9.20138 9.05498 9.24902L4.14775 9.96582L7.69756 13.4238C7.93326 13.6535 8.04113 13.9842 7.98564 14.3086L7.14775 19.1914L11.5345 16.8848C11.8258 16.7316 12.1748 16.7316 12.4661 16.8848L16.8519 19.1914L16.0149 14.3086C15.9594 13.9842 16.0672 13.6535 16.303 13.4238L19.8519 9.96582L14.9456 9.24902C14.6203 9.20144 14.3392 8.99692 14.1937 8.70215L12.0003 4.25781L9.80693 8.70215Z" fill="black" fill-opacity="0.2"/>
</svg>
