<svg width="24" height="24" viewBox="0 0 24 24" fill="none" xmlns="http://www.w3.org/2000/svg">
<path fill-rule="evenodd" clip-rule="evenodd" d="M20.4434 1.54492L20.4443 1.54688C20.4446 1.54777 20.4447 1.54958 20.4453 1.55078C20.4467 1.55356 20.4487 1.5577 20.4512 1.5625C20.4563 1.57266 20.4642 1.58771 20.4736 1.60645C20.4926 1.64429 20.5202 1.69956 20.5547 1.76953C20.6239 1.91019 20.7224 2.11254 20.8398 2.3623C21.0746 2.86173 21.3887 3.55585 21.7031 4.33008C22.0166 5.10209 22.3357 5.96764 22.5781 6.80859C22.8164 7.63514 23 8.50315 23 9.25879C22.9999 10.3068 22.6728 11.2209 22.0703 11.8945C21.8429 12.1488 21.5829 12.3596 21.3008 12.5273C21.315 14.3151 21.3926 16.4039 21.4355 18.1787C21.4589 19.1428 21.4714 20.0201 21.4531 20.6816C21.4441 21.0089 21.427 21.3116 21.3945 21.5557C21.3786 21.6754 21.3547 21.8128 21.3154 21.9443C21.2922 22.0222 21.2059 22.319 20.9404 22.543C20.7926 22.6676 20.643 22.7204 20.6006 22.7354C20.5354 22.7583 20.4759 22.7722 20.4346 22.7812C20.3504 22.7997 20.2608 22.8136 20.1816 22.8232C20.019 22.8431 19.8112 22.8588 19.5762 22.873C19.1013 22.9019 18.4526 22.9257 17.6953 22.9443C16.1775 22.9816 14.1854 23 12.1865 23C10.1874 23 8.17326 22.9816 6.6123 22.9443C5.83321 22.9257 5.15892 22.9027 4.65332 22.874C4.4019 22.8598 4.18135 22.843 4.00586 22.8242C3.91873 22.8149 3.8309 22.804 3.75098 22.79C3.69297 22.7799 3.55997 22.756 3.42578 22.6992C3.15588 22.585 3.00185 22.3917 2.92773 22.2803C2.84847 22.161 2.7998 22.0428 2.76953 21.957C2.70884 21.7849 2.67242 21.5967 2.64746 21.4297C2.59609 21.0858 2.56771 20.6458 2.55273 20.1699C2.52248 19.2082 2.54287 17.9688 2.58203 16.7578C2.62134 15.5422 2.68053 14.3368 2.72949 13.4365C2.74768 13.1021 2.76433 12.8093 2.77832 12.5732C2.4654 12.3988 2.17826 12.1724 1.92969 11.8945C1.32725 11.2209 1.00014 10.3068 1 9.25879C1.00002 8.50315 1.18363 7.63514 1.42188 6.80859C1.66431 5.96764 1.9834 5.10209 2.29688 4.33008C2.61127 3.55585 2.92537 2.86173 3.16016 2.3623C3.27758 2.11254 3.37607 1.91019 3.44531 1.76953C3.47976 1.69956 3.50738 1.64429 3.52637 1.60645C3.53577 1.58771 3.54368 1.57266 3.54883 1.5625C3.55126 1.5577 3.55328 1.55356 3.55469 1.55078C3.5553 1.54958 3.5554 1.54777 3.55566 1.54688L3.55664 1.5459L3.83496 1H20.165L20.4434 1.54492ZM11.9619 18C11.3815 18.005 11.0157 18.2953 10.9189 18.6348C10.7766 19.1344 10.717 19.7434 10.6982 20.2598C10.6891 20.5111 10.6902 20.7277 10.6934 20.8799C10.6942 20.9227 10.6951 20.9604 10.6963 20.9922C11.1886 20.9945 11.6878 21 12.1865 21C12.5565 21 12.926 20.9954 13.292 20.9941C13.2943 20.9575 13.2976 20.9104 13.2998 20.8545C13.306 20.7011 13.3102 20.4837 13.3037 20.2334C13.2902 19.7147 13.2305 19.129 13.0801 18.6768C12.9466 18.2758 12.5327 17.9953 11.9619 18ZM8.18848 10.834C7.26489 12.1399 6.02206 12.8802 4.75781 12.9834C4.74814 13.1525 4.73766 13.3409 4.72656 13.5449C4.67805 14.4368 4.61973 15.6265 4.58105 16.8223C4.54224 18.0226 4.52354 19.2111 4.55176 20.1074C4.56119 20.4072 4.57629 20.6605 4.59473 20.8633C4.64845 20.8668 4.70565 20.8735 4.7666 20.877C5.24002 20.9038 5.88919 20.9269 6.66016 20.9453C7.27541 20.96 7.96374 20.9708 8.69531 20.9795C8.6949 20.9612 8.69475 20.9419 8.69434 20.9219C8.69058 20.7396 8.68942 20.4841 8.7002 20.1875C8.72127 19.6077 8.78909 18.8134 8.99609 18.0869C9.4081 16.6411 10.7722 16.0097 11.9463 16C13.1303 15.9905 14.4979 16.6034 14.9775 18.0449C15.2206 18.7757 15.2874 19.5933 15.3027 20.1816C15.3106 20.4846 15.3054 20.7468 15.2979 20.9346C15.2972 20.9514 15.2956 20.9677 15.2949 20.9834C16.1513 20.9744 16.9507 20.9624 17.6465 20.9453C18.3889 20.9271 19.0043 20.9033 19.4424 20.877C19.446 20.8011 19.4506 20.7178 19.4531 20.627C19.4698 20.0224 19.4589 19.1909 19.4355 18.2275C19.3971 16.6387 19.3283 14.704 19.3057 12.9883C18.025 12.9055 16.7611 12.1681 15.8232 10.8506C15.5873 11.4367 15.2002 11.9195 14.7129 12.2822C13.9222 12.8707 12.922 13.1146 11.9814 13.0977C11.0402 13.0806 10.0556 12.8004 9.28125 12.2148C8.81311 11.8608 8.42774 11.3958 8.18848 10.834ZM10.5576 3C10.4867 3.50345 10.3929 4.18988 10.2998 4.94824C10.1071 6.51818 9.92281 8.33726 9.92285 9.5C9.923 9.99135 10.1331 10.3511 10.4873 10.6191C10.8665 10.9059 11.4209 11.0868 12.0176 11.0977C12.6153 11.1084 13.1554 10.948 13.5186 10.6777C13.85 10.431 14.077 10.0673 14.0771 9.5C14.0771 8.43993 13.8924 6.62252 13.6992 5.02246C13.6045 4.23815 13.509 3.52201 13.4375 3H10.5576ZM4.96973 3.21289C4.74561 3.68962 4.44778 4.34971 4.15039 5.08203C3.8522 5.81637 3.5601 6.61189 3.34375 7.3623C3.12327 8.12721 3.00003 8.78318 3 9.25879C3.00012 9.88625 3.19018 10.3045 3.41992 10.5615C3.65048 10.8191 3.97284 10.9746 4.35352 10.9971C5.09965 11.0409 6.25715 10.5427 7.03516 8.84277C7.50571 7.81431 7.92496 6.10405 8.23145 4.57324C8.34858 3.98811 8.44497 3.44455 8.52051 3H5.07227C5.04071 3.06604 5.00544 3.13692 4.96973 3.21289ZM15.4795 3C15.555 3.44455 15.6514 3.98811 15.7686 4.57324C16.075 6.10405 16.4943 7.81431 16.9648 8.84277C17.7428 10.5427 18.9004 11.0409 19.6465 10.9971C20.0272 10.9746 20.3495 10.8191 20.5801 10.5615C20.8098 10.3045 20.9999 9.88625 21 9.25879C21 8.78318 20.8767 8.12721 20.6562 7.3623C20.4399 6.61189 20.1478 5.81637 19.8496 5.08203C19.5522 4.34971 19.2544 3.68962 19.0303 3.21289C18.9946 3.13692 18.9593 3.06605 18.9277 3H15.4795Z" fill="#1D1A24"/>
<path fill-rule="evenodd" clip-rule="evenodd" d="M20.4434 1.54492L20.4443 1.54688C20.4446 1.54777 20.4447 1.54958 20.4453 1.55078C20.4467 1.55356 20.4487 1.5577 20.4512 1.5625C20.4563 1.57266 20.4642 1.58771 20.4736 1.60645C20.4926 1.64429 20.5202 1.69956 20.5547 1.76953C20.6239 1.91019 20.7224 2.11254 20.8398 2.3623C21.0746 2.86173 21.3887 3.55585 21.7031 4.33008C22.0166 5.10209 22.3357 5.96764 22.5781 6.80859C22.8164 7.63514 23 8.50315 23 9.25879C22.9999 10.3068 22.6728 11.2209 22.0703 11.8945C21.8429 12.1488 21.5829 12.3596 21.3008 12.5273C21.315 14.3151 21.3926 16.4039 21.4355 18.1787C21.4589 19.1428 21.4714 20.0201 21.4531 20.6816C21.4441 21.0089 21.427 21.3116 21.3945 21.5557C21.3786 21.6754 21.3547 21.8128 21.3154 21.9443C21.2922 22.0222 21.2059 22.319 20.9404 22.543C20.7926 22.6676 20.643 22.7204 20.6006 22.7354C20.5354 22.7583 20.4759 22.7722 20.4346 22.7812C20.3504 22.7997 20.2608 22.8136 20.1816 22.8232C20.019 22.8431 19.8112 22.8588 19.5762 22.873C19.1013 22.9019 18.4526 22.9257 17.6953 22.9443C16.1775 22.9816 14.1854 23 12.1865 23C10.1874 23 8.17326 22.9816 6.6123 22.9443C5.83321 22.9257 5.15892 22.9027 4.65332 22.874C4.4019 22.8598 4.18135 22.843 4.00586 22.8242C3.91873 22.8149 3.8309 22.804 3.75098 22.79C3.69297 22.7799 3.55997 22.756 3.42578 22.6992C3.15588 22.585 3.00185 22.3917 2.92773 22.2803C2.84847 22.161 2.7998 22.0428 2.76953 21.957C2.70884 21.7849 2.67242 21.5967 2.64746 21.4297C2.59609 21.0858 2.56771 20.6458 2.55273 20.1699C2.52248 19.2082 2.54287 17.9688 2.58203 16.7578C2.62134 15.5422 2.68053 14.3368 2.72949 13.4365C2.74768 13.1021 2.76433 12.8093 2.77832 12.5732C2.4654 12.3988 2.17826 12.1724 1.92969 11.8945C1.32725 11.2209 1.00014 10.3068 1 9.25879C1.00002 8.50315 1.18363 7.63514 1.42188 6.80859C1.66431 5.96764 1.9834 5.10209 2.29688 4.33008C2.61127 3.55585 2.92537 2.86173 3.16016 2.3623C3.27758 2.11254 3.37607 1.91019 3.44531 1.76953C3.47976 1.69956 3.50738 1.64429 3.52637 1.60645C3.53577 1.58771 3.54368 1.57266 3.54883 1.5625C3.55126 1.5577 3.55328 1.55356 3.55469 1.55078C3.5553 1.54958 3.5554 1.54777 3.55566 1.54688L3.55664 1.5459L3.83496 1H20.165L20.4434 1.54492ZM11.9619 18C11.3815 18.005 11.0157 18.2953 10.9189 18.6348C10.7766 19.1344 10.717 19.7434 10.6982 20.2598C10.6891 20.5111 10.6902 20.7277 10.6934 20.8799C10.6942 20.9227 10.6951 20.9604 10.6963 20.9922C11.1886 20.9945 11.6878 21 12.1865 21C12.5565 21 12.926 20.9954 13.292 20.9941C13.2943 20.9575 13.2976 20.9104 13.2998 20.8545C13.306 20.7011 13.3102 20.4837 13.3037 20.2334C13.2902 19.7147 13.2305 19.129 13.0801 18.6768C12.9466 18.2758 12.5327 17.9953 11.9619 18ZM8.18848 10.834C7.26489 12.1399 6.02206 12.8802 4.75781 12.9834C4.74814 13.1525 4.73766 13.3409 4.72656 13.5449C4.67805 14.4368 4.61973 15.6265 4.58105 16.8223C4.54224 18.0226 4.52354 19.2111 4.55176 20.1074C4.56119 20.4072 4.57629 20.6605 4.59473 20.8633C4.64845 20.8668 4.70565 20.8735 4.7666 20.877C5.24002 20.9038 5.88919 20.9269 6.66016 20.9453C7.27541 20.96 7.96374 20.9708 8.69531 20.9795C8.6949 20.9612 8.69475 20.9419 8.69434 20.9219C8.69058 20.7396 8.68942 20.4841 8.7002 20.1875C8.72127 19.6077 8.78909 18.8134 8.99609 18.0869C9.4081 16.6411 10.7722 16.0097 11.9463 16C13.1303 15.9905 14.4979 16.6034 14.9775 18.0449C15.2206 18.7757 15.2874 19.5933 15.3027 20.1816C15.3106 20.4846 15.3054 20.7468 15.2979 20.9346C15.2972 20.9514 15.2956 20.9677 15.2949 20.9834C16.1513 20.9744 16.9507 20.9624 17.6465 20.9453C18.3889 20.9271 19.0043 20.9033 19.4424 20.877C19.446 20.8011 19.4506 20.7178 19.4531 20.627C19.4698 20.0224 19.4589 19.1909 19.4355 18.2275C19.3971 16.6387 19.3283 14.704 19.3057 12.9883C18.025 12.9055 16.7611 12.1681 15.8232 10.8506C15.5873 11.4367 15.2002 11.9195 14.7129 12.2822C13.9222 12.8707 12.922 13.1146 11.9814 13.0977C11.0402 13.0806 10.0556 12.8004 9.28125 12.2148C8.81311 11.8608 8.42774 11.3958 8.18848 10.834ZM10.5576 3C10.4867 3.50345 10.3929 4.18988 10.2998 4.94824C10.1071 6.51818 9.92281 8.33726 9.92285 9.5C9.923 9.99135 10.1331 10.3511 10.4873 10.6191C10.8665 10.9059 11.4209 11.0868 12.0176 11.0977C12.6153 11.1084 13.1554 10.948 13.5186 10.6777C13.85 10.431 14.077 10.0673 14.0771 9.5C14.0771 8.43993 13.8924 6.62252 13.6992 5.02246C13.6045 4.23815 13.509 3.52201 13.4375 3H10.5576ZM4.96973 3.21289C4.74561 3.68962 4.44778 4.34971 4.15039 5.08203C3.8522 5.81637 3.5601 6.61189 3.34375 7.3623C3.12327 8.12721 3.00003 8.78318 3 9.25879C3.00012 9.88625 3.19018 10.3045 3.41992 10.5615C3.65048 10.8191 3.97284 10.9746 4.35352 10.9971C5.09965 11.0409 6.25715 10.5427 7.03516 8.84277C7.50571 7.81431 7.92496 6.10405 8.23145 4.57324C8.34858 3.98811 8.44497 3.44455 8.52051 3H5.07227C5.04071 3.06604 5.00544 3.13692 4.96973 3.21289ZM15.4795 3C15.555 3.44455 15.6514 3.98811 15.7686 4.57324C16.075 6.10405 16.4943 7.81431 16.9648 8.84277C17.7428 10.5427 18.9004 11.0409 19.6465 10.9971C20.0272 10.9746 20.3495 10.8191 20.5801 10.5615C20.8098 10.3045 20.9999 9.88625 21 9.25879C21 8.78318 20.8767 8.12721 20.6562 7.3623C20.4399 6.61189 20.1478 5.81637 19.8496 5.08203C19.5522 4.34971 19.2544 3.68962 19.0303 3.21289C18.9946 3.13692 18.9593 3.06605 18.9277 3H15.4795Z" fill="black" fill-opacity="0.2"/>
<path fill-rule="evenodd" clip-rule="evenodd" d="M20.4434 1.54492L20.4443 1.54688C20.4446 1.54777 20.4447 1.54958 20.4453 1.55078C20.4467 1.55356 20.4487 1.5577 20.4512 1.5625C20.4563 1.57266 20.4642 1.58771 20.4736 1.60645C20.4926 1.64429 20.5202 1.69956 20.5547 1.76953C20.6239 1.91019 20.7224 2.11254 20.8398 2.3623C21.0746 2.86173 21.3887 3.55585 21.7031 4.33008C22.0166 5.10209 22.3357 5.96764 22.5781 6.80859C22.8164 7.63514 23 8.50315 23 9.25879C22.9999 10.3068 22.6728 11.2209 22.0703 11.8945C21.8429 12.1488 21.5829 12.3596 21.3008 12.5273C21.315 14.3151 21.3926 16.4039 21.4355 18.1787C21.4589 19.1428 21.4714 20.0201 21.4531 20.6816C21.4441 21.0089 21.427 21.3116 21.3945 21.5557C21.3786 21.6754 21.3547 21.8128 21.3154 21.9443C21.2922 22.0222 21.2059 22.319 20.9404 22.543C20.7926 22.6676 20.643 22.7204 20.6006 22.7354C20.5354 22.7583 20.4759 22.7722 20.4346 22.7812C20.3504 22.7997 20.2608 22.8136 20.1816 22.8232C20.019 22.8431 19.8112 22.8588 19.5762 22.873C19.1013 22.9019 18.4526 22.9257 17.6953 22.9443C16.1775 22.9816 14.1854 23 12.1865 23C10.1874 23 8.17326 22.9816 6.6123 22.9443C5.83321 22.9257 5.15892 22.9027 4.65332 22.874C4.4019 22.8598 4.18135 22.843 4.00586 22.8242C3.91873 22.8149 3.8309 22.804 3.75098 22.79C3.69297 22.7799 3.55997 22.756 3.42578 22.6992C3.15588 22.585 3.00185 22.3917 2.92773 22.2803C2.84847 22.161 2.7998 22.0428 2.76953 21.957C2.70884 21.7849 2.67242 21.5967 2.64746 21.4297C2.59609 21.0858 2.56771 20.6458 2.55273 20.1699C2.52248 19.2082 2.54287 17.9688 2.58203 16.7578C2.62134 15.5422 2.68053 14.3368 2.72949 13.4365C2.74768 13.1021 2.76433 12.8093 2.77832 12.5732C2.4654 12.3988 2.17826 12.1724 1.92969 11.8945C1.32725 11.2209 1.00014 10.3068 1 9.25879C1.00002 8.50315 1.18363 7.63514 1.42188 6.80859C1.66431 5.96764 1.9834 5.10209 2.29688 4.33008C2.61127 3.55585 2.92537 2.86173 3.16016 2.3623C3.27758 2.11254 3.37607 1.91019 3.44531 1.76953C3.47976 1.69956 3.50738 1.64429 3.52637 1.60645C3.53577 1.58771 3.54368 1.57266 3.54883 1.5625C3.55126 1.5577 3.55328 1.55356 3.55469 1.55078C3.5553 1.54958 3.5554 1.54777 3.55566 1.54688L3.55664 1.5459L3.83496 1H20.165L20.4434 1.54492ZM11.9619 18C11.3815 18.005 11.0157 18.2953 10.9189 18.6348C10.7766 19.1344 10.717 19.7434 10.6982 20.2598C10.6891 20.5111 10.6902 20.7277 10.6934 20.8799C10.6942 20.9227 10.6951 20.9604 10.6963 20.9922C11.1886 20.9945 11.6878 21 12.1865 21C12.5565 21 12.926 20.9954 13.292 20.9941C13.2943 20.9575 13.2976 20.9104 13.2998 20.8545C13.306 20.7011 13.3102 20.4837 13.3037 20.2334C13.2902 19.7147 13.2305 19.129 13.0801 18.6768C12.9466 18.2758 12.5327 17.9953 11.9619 18ZM8.18848 10.834C7.26489 12.1399 6.02206 12.8802 4.75781 12.9834C4.74814 13.1525 4.73766 13.3409 4.72656 13.5449C4.67805 14.4368 4.61973 15.6265 4.58105 16.8223C4.54224 18.0226 4.52354 19.2111 4.55176 20.1074C4.56119 20.4072 4.57629 20.6605 4.59473 20.8633C4.64845 20.8668 4.70565 20.8735 4.7666 20.877C5.24002 20.9038 5.88919 20.9269 6.66016 20.9453C7.27541 20.96 7.96374 20.9708 8.69531 20.9795C8.6949 20.9612 8.69475 20.9419 8.69434 20.9219C8.69058 20.7396 8.68942 20.4841 8.7002 20.1875C8.72127 19.6077 8.78909 18.8134 8.99609 18.0869C9.4081 16.6411 10.7722 16.0097 11.9463 16C13.1303 15.9905 14.4979 16.6034 14.9775 18.0449C15.2206 18.7757 15.2874 19.5933 15.3027 20.1816C15.3106 20.4846 15.3054 20.7468 15.2979 20.9346C15.2972 20.9514 15.2956 20.9677 15.2949 20.9834C16.1513 20.9744 16.9507 20.9624 17.6465 20.9453C18.3889 20.9271 19.0043 20.9033 19.4424 20.877C19.446 20.8011 19.4506 20.7178 19.4531 20.627C19.4698 20.0224 19.4589 19.1909 19.4355 18.2275C19.3971 16.6387 19.3283 14.704 19.3057 12.9883C18.025 12.9055 16.7611 12.1681 15.8232 10.8506C15.5873 11.4367 15.2002 11.9195 14.7129 12.2822C13.9222 12.8707 12.922 13.1146 11.9814 13.0977C11.0402 13.0806 10.0556 12.8004 9.28125 12.2148C8.81311 11.8608 8.42774 11.3958 8.18848 10.834ZM10.5576 3C10.4867 3.50345 10.3929 4.18988 10.2998 4.94824C10.1071 6.51818 9.92281 8.33726 9.92285 9.5C9.923 9.99135 10.1331 10.3511 10.4873 10.6191C10.8665 10.9059 11.4209 11.0868 12.0176 11.0977C12.6153 11.1084 13.1554 10.948 13.5186 10.6777C13.85 10.431 14.077 10.0673 14.0771 9.5C14.0771 8.43993 13.8924 6.62252 13.6992 5.02246C13.6045 4.23815 13.509 3.52201 13.4375 3H10.5576ZM4.96973 3.21289C4.74561 3.68962 4.44778 4.34971 4.15039 5.08203C3.8522 5.81637 3.5601 6.61189 3.34375 7.3623C3.12327 8.12721 3.00003 8.78318 3 9.25879C3.00012 9.88625 3.19018 10.3045 3.41992 10.5615C3.65048 10.8191 3.97284 10.9746 4.35352 10.9971C5.09965 11.0409 6.25715 10.5427 7.03516 8.84277C7.50571 7.81431 7.92496 6.10405 8.23145 4.57324C8.34858 3.98811 8.44497 3.44455 8.52051 3H5.07227C5.04071 3.06604 5.00544 3.13692 4.96973 3.21289ZM15.4795 3C15.555 3.44455 15.6514 3.98811 15.7686 4.57324C16.075 6.10405 16.4943 7.81431 16.9648 8.84277C17.7428 10.5427 18.9004 11.0409 19.6465 10.9971C20.0272 10.9746 20.3495 10.8191 20.5801 10.5615C20.8098 10.3045 20.9999 9.88625 21 9.25879C21 8.78318 20.8767 8.12721 20.6562 7.3623C20.4399 6.61189 20.1478 5.81637 19.8496 5.08203C19.5522 4.34971 19.2544 3.68962 19.0303 3.21289C18.9946 3.13692 18.9593 3.06605 18.9277 3H15.4795Z" fill="black" fill-opacity="0.2"/>
<path fill-rule="evenodd" clip-rule="evenodd" d="M20.4434 1.54492L20.4443 1.54688C20.4446 1.54777 20.4447 1.54958 20.4453 1.55078C20.4467 1.55356 20.4487 1.5577 20.4512 1.5625C20.4563 1.57266 20.4642 1.58771 20.4736 1.60645C20.4926 1.64429 20.5202 1.69956 20.5547 1.76953C20.6239 1.91019 20.7224 2.11254 20.8398 2.3623C21.0746 2.86173 21.3887 3.55585 21.7031 4.33008C22.0166 5.10209 22.3357 5.96764 22.5781 6.80859C22.8164 7.63514 23 8.50315 23 9.25879C22.9999 10.3068 22.6728 11.2209 22.0703 11.8945C21.8429 12.1488 21.5829 12.3596 21.3008 12.5273C21.315 14.3151 21.3926 16.4039 21.4355 18.1787C21.4589 19.1428 21.4714 20.0201 21.4531 20.6816C21.4441 21.0089 21.427 21.3116 21.3945 21.5557C21.3786 21.6754 21.3547 21.8128 21.3154 21.9443C21.2922 22.0222 21.2059 22.319 20.9404 22.543C20.7926 22.6676 20.643 22.7204 20.6006 22.7354C20.5354 22.7583 20.4759 22.7722 20.4346 22.7812C20.3504 22.7997 20.2608 22.8136 20.1816 22.8232C20.019 22.8431 19.8112 22.8588 19.5762 22.873C19.1013 22.9019 18.4526 22.9257 17.6953 22.9443C16.1775 22.9816 14.1854 23 12.1865 23C10.1874 23 8.17326 22.9816 6.6123 22.9443C5.83321 22.9257 5.15892 22.9027 4.65332 22.874C4.4019 22.8598 4.18135 22.843 4.00586 22.8242C3.91873 22.8149 3.8309 22.804 3.75098 22.79C3.69297 22.7799 3.55997 22.756 3.42578 22.6992C3.15588 22.585 3.00185 22.3917 2.92773 22.2803C2.84847 22.161 2.7998 22.0428 2.76953 21.957C2.70884 21.7849 2.67242 21.5967 2.64746 21.4297C2.59609 21.0858 2.56771 20.6458 2.55273 20.1699C2.52248 19.2082 2.54287 17.9688 2.58203 16.7578C2.62134 15.5422 2.68053 14.3368 2.72949 13.4365C2.74768 13.1021 2.76433 12.8093 2.77832 12.5732C2.4654 12.3988 2.17826 12.1724 1.92969 11.8945C1.32725 11.2209 1.00014 10.3068 1 9.25879C1.00002 8.50315 1.18363 7.63514 1.42188 6.80859C1.66431 5.96764 1.9834 5.10209 2.29688 4.33008C2.61127 3.55585 2.92537 2.86173 3.16016 2.3623C3.27758 2.11254 3.37607 1.91019 3.44531 1.76953C3.47976 1.69956 3.50738 1.64429 3.52637 1.60645C3.53577 1.58771 3.54368 1.57266 3.54883 1.5625C3.55126 1.5577 3.55328 1.55356 3.55469 1.55078C3.5553 1.54958 3.5554 1.54777 3.55566 1.54688L3.55664 1.5459L3.83496 1H20.165L20.4434 1.54492ZM11.9619 18C11.3815 18.005 11.0157 18.2953 10.9189 18.6348C10.7766 19.1344 10.717 19.7434 10.6982 20.2598C10.6891 20.5111 10.6902 20.7277 10.6934 20.8799C10.6942 20.9227 10.6951 20.9604 10.6963 20.9922C11.1886 20.9945 11.6878 21 12.1865 21C12.5565 21 12.926 20.9954 13.292 20.9941C13.2943 20.9575 13.2976 20.9104 13.2998 20.8545C13.306 20.7011 13.3102 20.4837 13.3037 20.2334C13.2902 19.7147 13.2305 19.129 13.0801 18.6768C12.9466 18.2758 12.5327 17.9953 11.9619 18ZM8.18848 10.834C7.26489 12.1399 6.02206 12.8802 4.75781 12.9834C4.74814 13.1525 4.73766 13.3409 4.72656 13.5449C4.67805 14.4368 4.61973 15.6265 4.58105 16.8223C4.54224 18.0226 4.52354 19.2111 4.55176 20.1074C4.56119 20.4072 4.57629 20.6605 4.59473 20.8633C4.64845 20.8668 4.70565 20.8735 4.7666 20.877C5.24002 20.9038 5.88919 20.9269 6.66016 20.9453C7.27541 20.96 7.96374 20.9708 8.69531 20.9795C8.6949 20.9612 8.69475 20.9419 8.69434 20.9219C8.69058 20.7396 8.68942 20.4841 8.7002 20.1875C8.72127 19.6077 8.78909 18.8134 8.99609 18.0869C9.4081 16.6411 10.7722 16.0097 11.9463 16C13.1303 15.9905 14.4979 16.6034 14.9775 18.0449C15.2206 18.7757 15.2874 19.5933 15.3027 20.1816C15.3106 20.4846 15.3054 20.7468 15.2979 20.9346C15.2972 20.9514 15.2956 20.9677 15.2949 20.9834C16.1513 20.9744 16.9507 20.9624 17.6465 20.9453C18.3889 20.9271 19.0043 20.9033 19.4424 20.877C19.446 20.8011 19.4506 20.7178 19.4531 20.627C19.4698 20.0224 19.4589 19.1909 19.4355 18.2275C19.3971 16.6387 19.3283 14.704 19.3057 12.9883C18.025 12.9055 16.7611 12.1681 15.8232 10.8506C15.5873 11.4367 15.2002 11.9195 14.7129 12.2822C13.9222 12.8707 12.922 13.1146 11.9814 13.0977C11.0402 13.0806 10.0556 12.8004 9.28125 12.2148C8.81311 11.8608 8.42774 11.3958 8.18848 10.834ZM10.5576 3C10.4867 3.50345 10.3929 4.18988 10.2998 4.94824C10.1071 6.51818 9.92281 8.33726 9.92285 9.5C9.923 9.99135 10.1331 10.3511 10.4873 10.6191C10.8665 10.9059 11.4209 11.0868 12.0176 11.0977C12.6153 11.1084 13.1554 10.948 13.5186 10.6777C13.85 10.431 14.077 10.0673 14.0771 9.5C14.0771 8.43993 13.8924 6.62252 13.6992 5.02246C13.6045 4.23815 13.509 3.52201 13.4375 3H10.5576ZM4.96973 3.21289C4.74561 3.68962 4.44778 4.34971 4.15039 5.08203C3.8522 5.81637 3.5601 6.61189 3.34375 7.3623C3.12327 8.12721 3.00003 8.78318 3 9.25879C3.00012 9.88625 3.19018 10.3045 3.41992 10.5615C3.65048 10.8191 3.97284 10.9746 4.35352 10.9971C5.09965 11.0409 6.25715 10.5427 7.03516 8.84277C7.50571 7.81431 7.92496 6.10405 8.23145 4.57324C8.34858 3.98811 8.44497 3.44455 8.52051 3H5.07227C5.04071 3.06604 5.00544 3.13692 4.96973 3.21289ZM15.4795 3C15.555 3.44455 15.6514 3.98811 15.7686 4.57324C16.075 6.10405 16.4943 7.81431 16.9648 8.84277C17.7428 10.5427 18.9004 11.0409 19.6465 10.9971C20.0272 10.9746 20.3495 10.8191 20.5801 10.5615C20.8098 10.3045 20.9999 9.88625 21 9.25879C21 8.78318 20.8767 8.12721 20.6562 7.3623C20.4399 6.61189 20.1478 5.81637 19.8496 5.08203C19.5522 4.34971 19.2544 3.68962 19.0303 3.21289C18.9946 3.13692 18.9593 3.06605 18.9277 3H15.4795Z" fill="black" fill-opacity="0.2"/>
<path fill-rule="evenodd" clip-rule="evenodd" d="M20.4434 1.54492L20.4443 1.54688C20.4446 1.54777 20.4447 1.54958 20.4453 1.55078C20.4467 1.55356 20.4487 1.5577 20.4512 1.5625C20.4563 1.57266 20.4642 1.58771 20.4736 1.60645C20.4926 1.64429 20.5202 1.69956 20.5547 1.76953C20.6239 1.91019 20.7224 2.11254 20.8398 2.3623C21.0746 2.86173 21.3887 3.55585 21.7031 4.33008C22.0166 5.10209 22.3357 5.96764 22.5781 6.80859C22.8164 7.63514 23 8.50315 23 9.25879C22.9999 10.3068 22.6728 11.2209 22.0703 11.8945C21.8429 12.1488 21.5829 12.3596 21.3008 12.5273C21.315 14.3151 21.3926 16.4039 21.4355 18.1787C21.4589 19.1428 21.4714 20.0201 21.4531 20.6816C21.4441 21.0089 21.427 21.3116 21.3945 21.5557C21.3786 21.6754 21.3547 21.8128 21.3154 21.9443C21.2922 22.0222 21.2059 22.319 20.9404 22.543C20.7926 22.6676 20.643 22.7204 20.6006 22.7354C20.5354 22.7583 20.4759 22.7722 20.4346 22.7812C20.3504 22.7997 20.2608 22.8136 20.1816 22.8232C20.019 22.8431 19.8112 22.8588 19.5762 22.873C19.1013 22.9019 18.4526 22.9257 17.6953 22.9443C16.1775 22.9816 14.1854 23 12.1865 23C10.1874 23 8.17326 22.9816 6.6123 22.9443C5.83321 22.9257 5.15892 22.9027 4.65332 22.874C4.4019 22.8598 4.18135 22.843 4.00586 22.8242C3.91873 22.8149 3.8309 22.804 3.75098 22.79C3.69297 22.7799 3.55997 22.756 3.42578 22.6992C3.15588 22.585 3.00185 22.3917 2.92773 22.2803C2.84847 22.161 2.7998 22.0428 2.76953 21.957C2.70884 21.7849 2.67242 21.5967 2.64746 21.4297C2.59609 21.0858 2.56771 20.6458 2.55273 20.1699C2.52248 19.2082 2.54287 17.9688 2.58203 16.7578C2.62134 15.5422 2.68053 14.3368 2.72949 13.4365C2.74768 13.1021 2.76433 12.8093 2.77832 12.5732C2.4654 12.3988 2.17826 12.1724 1.92969 11.8945C1.32725 11.2209 1.00014 10.3068 1 9.25879C1.00002 8.50315 1.18363 7.63514 1.42188 6.80859C1.66431 5.96764 1.9834 5.10209 2.29688 4.33008C2.61127 3.55585 2.92537 2.86173 3.16016 2.3623C3.27758 2.11254 3.37607 1.91019 3.44531 1.76953C3.47976 1.69956 3.50738 1.64429 3.52637 1.60645C3.53577 1.58771 3.54368 1.57266 3.54883 1.5625C3.55126 1.5577 3.55328 1.55356 3.55469 1.55078C3.5553 1.54958 3.5554 1.54777 3.55566 1.54688L3.55664 1.5459L3.83496 1H20.165L20.4434 1.54492ZM11.9619 18C11.3815 18.005 11.0157 18.2953 10.9189 18.6348C10.7766 19.1344 10.717 19.7434 10.6982 20.2598C10.6891 20.5111 10.6902 20.7277 10.6934 20.8799C10.6942 20.9227 10.6951 20.9604 10.6963 20.9922C11.1886 20.9945 11.6878 21 12.1865 21C12.5565 21 12.926 20.9954 13.292 20.9941C13.2943 20.9575 13.2976 20.9104 13.2998 20.8545C13.306 20.7011 13.3102 20.4837 13.3037 20.2334C13.2902 19.7147 13.2305 19.129 13.0801 18.6768C12.9466 18.2758 12.5327 17.9953 11.9619 18ZM8.18848 10.834C7.26489 12.1399 6.02206 12.8802 4.75781 12.9834C4.74814 13.1525 4.73766 13.3409 4.72656 13.5449C4.67805 14.4368 4.61973 15.6265 4.58105 16.8223C4.54224 18.0226 4.52354 19.2111 4.55176 20.1074C4.56119 20.4072 4.57629 20.6605 4.59473 20.8633C4.64845 20.8668 4.70565 20.8735 4.7666 20.877C5.24002 20.9038 5.88919 20.9269 6.66016 20.9453C7.27541 20.96 7.96374 20.9708 8.69531 20.9795C8.6949 20.9612 8.69475 20.9419 8.69434 20.9219C8.69058 20.7396 8.68942 20.4841 8.7002 20.1875C8.72127 19.6077 8.78909 18.8134 8.99609 18.0869C9.4081 16.6411 10.7722 16.0097 11.9463 16C13.1303 15.9905 14.4979 16.6034 14.9775 18.0449C15.2206 18.7757 15.2874 19.5933 15.3027 20.1816C15.3106 20.4846 15.3054 20.7468 15.2979 20.9346C15.2972 20.9514 15.2956 20.9677 15.2949 20.9834C16.1513 20.9744 16.9507 20.9624 17.6465 20.9453C18.3889 20.9271 19.0043 20.9033 19.4424 20.877C19.446 20.8011 19.4506 20.7178 19.4531 20.627C19.4698 20.0224 19.4589 19.1909 19.4355 18.2275C19.3971 16.6387 19.3283 14.704 19.3057 12.9883C18.025 12.9055 16.7611 12.1681 15.8232 10.8506C15.5873 11.4367 15.2002 11.9195 14.7129 12.2822C13.9222 12.8707 12.922 13.1146 11.9814 13.0977C11.0402 13.0806 10.0556 12.8004 9.28125 12.2148C8.81311 11.8608 8.42774 11.3958 8.18848 10.834ZM10.5576 3C10.4867 3.50345 10.3929 4.18988 10.2998 4.94824C10.1071 6.51818 9.92281 8.33726 9.92285 9.5C9.923 9.99135 10.1331 10.3511 10.4873 10.6191C10.8665 10.9059 11.4209 11.0868 12.0176 11.0977C12.6153 11.1084 13.1554 10.948 13.5186 10.6777C13.85 10.431 14.077 10.0673 14.0771 9.5C14.0771 8.43993 13.8924 6.62252 13.6992 5.02246C13.6045 4.23815 13.509 3.52201 13.4375 3H10.5576ZM4.96973 3.21289C4.74561 3.68962 4.44778 4.34971 4.15039 5.08203C3.8522 5.81637 3.5601 6.61189 3.34375 7.3623C3.12327 8.12721 3.00003 8.78318 3 9.25879C3.00012 9.88625 3.19018 10.3045 3.41992 10.5615C3.65048 10.8191 3.97284 10.9746 4.35352 10.9971C5.09965 11.0409 6.25715 10.5427 7.03516 8.84277C7.50571 7.81431 7.92496 6.10405 8.23145 4.57324C8.34858 3.98811 8.44497 3.44455 8.52051 3H5.07227C5.04071 3.06604 5.00544 3.13692 4.96973 3.21289ZM15.4795 3C15.555 3.44455 15.6514 3.98811 15.7686 4.57324C16.075 6.10405 16.4943 7.81431 16.9648 8.84277C17.7428 10.5427 18.9004 11.0409 19.6465 10.9971C20.0272 10.9746 20.3495 10.8191 20.5801 10.5615C20.8098 10.3045 20.9999 9.88625 21 9.25879C21 8.78318 20.8767 8.12721 20.6562 7.3623C20.4399 6.61189 20.1478 5.81637 19.8496 5.08203C19.5522 4.34971 19.2544 3.68962 19.0303 3.21289C18.9946 3.13692 18.9593 3.06605 18.9277 3H15.4795Z" fill="black" fill-opacity="0.2"/>
<path fill-rule="evenodd" clip-rule="evenodd" d="M20.4434 1.54492L20.4443 1.54688C20.4446 1.54777 20.4447 1.54958 20.4453 1.55078C20.4467 1.55356 20.4487 1.5577 20.4512 1.5625C20.4563 1.57266 20.4642 1.58771 20.4736 1.60645C20.4926 1.64429 20.5202 1.69956 20.5547 1.76953C20.6239 1.91019 20.7224 2.11254 20.8398 2.3623C21.0746 2.86173 21.3887 3.55585 21.7031 4.33008C22.0166 5.10209 22.3357 5.96764 22.5781 6.80859C22.8164 7.63514 23 8.50315 23 9.25879C22.9999 10.3068 22.6728 11.2209 22.0703 11.8945C21.8429 12.1488 21.5829 12.3596 21.3008 12.5273C21.315 14.3151 21.3926 16.4039 21.4355 18.1787C21.4589 19.1428 21.4714 20.0201 21.4531 20.6816C21.4441 21.0089 21.427 21.3116 21.3945 21.5557C21.3786 21.6754 21.3547 21.8128 21.3154 21.9443C21.2922 22.0222 21.2059 22.319 20.9404 22.543C20.7926 22.6676 20.643 22.7204 20.6006 22.7354C20.5354 22.7583 20.4759 22.7722 20.4346 22.7812C20.3504 22.7997 20.2608 22.8136 20.1816 22.8232C20.019 22.8431 19.8112 22.8588 19.5762 22.873C19.1013 22.9019 18.4526 22.9257 17.6953 22.9443C16.1775 22.9816 14.1854 23 12.1865 23C10.1874 23 8.17326 22.9816 6.6123 22.9443C5.83321 22.9257 5.15892 22.9027 4.65332 22.874C4.4019 22.8598 4.18135 22.843 4.00586 22.8242C3.91873 22.8149 3.8309 22.804 3.75098 22.79C3.69297 22.7799 3.55997 22.756 3.42578 22.6992C3.15588 22.585 3.00185 22.3917 2.92773 22.2803C2.84847 22.161 2.7998 22.0428 2.76953 21.957C2.70884 21.7849 2.67242 21.5967 2.64746 21.4297C2.59609 21.0858 2.56771 20.6458 2.55273 20.1699C2.52248 19.2082 2.54287 17.9688 2.58203 16.7578C2.62134 15.5422 2.68053 14.3368 2.72949 13.4365C2.74768 13.1021 2.76433 12.8093 2.77832 12.5732C2.4654 12.3988 2.17826 12.1724 1.92969 11.8945C1.32725 11.2209 1.00014 10.3068 1 9.25879C1.00002 8.50315 1.18363 7.63514 1.42188 6.80859C1.66431 5.96764 1.9834 5.10209 2.29688 4.33008C2.61127 3.55585 2.92537 2.86173 3.16016 2.3623C3.27758 2.11254 3.37607 1.91019 3.44531 1.76953C3.47976 1.69956 3.50738 1.64429 3.52637 1.60645C3.53577 1.58771 3.54368 1.57266 3.54883 1.5625C3.55126 1.5577 3.55328 1.55356 3.55469 1.55078C3.5553 1.54958 3.5554 1.54777 3.55566 1.54688L3.55664 1.5459L3.83496 1H20.165L20.4434 1.54492ZM11.9619 18C11.3815 18.005 11.0157 18.2953 10.9189 18.6348C10.7766 19.1344 10.717 19.7434 10.6982 20.2598C10.6891 20.5111 10.6902 20.7277 10.6934 20.8799C10.6942 20.9227 10.6951 20.9604 10.6963 20.9922C11.1886 20.9945 11.6878 21 12.1865 21C12.5565 21 12.926 20.9954 13.292 20.9941C13.2943 20.9575 13.2976 20.9104 13.2998 20.8545C13.306 20.7011 13.3102 20.4837 13.3037 20.2334C13.2902 19.7147 13.2305 19.129 13.0801 18.6768C12.9466 18.2758 12.5327 17.9953 11.9619 18ZM8.18848 10.834C7.26489 12.1399 6.02206 12.8802 4.75781 12.9834C4.74814 13.1525 4.73766 13.3409 4.72656 13.5449C4.67805 14.4368 4.61973 15.6265 4.58105 16.8223C4.54224 18.0226 4.52354 19.2111 4.55176 20.1074C4.56119 20.4072 4.57629 20.6605 4.59473 20.8633C4.64845 20.8668 4.70565 20.8735 4.7666 20.877C5.24002 20.9038 5.88919 20.9269 6.66016 20.9453C7.27541 20.96 7.96374 20.9708 8.69531 20.9795C8.6949 20.9612 8.69475 20.9419 8.69434 20.9219C8.69058 20.7396 8.68942 20.4841 8.7002 20.1875C8.72127 19.6077 8.78909 18.8134 8.99609 18.0869C9.4081 16.6411 10.7722 16.0097 11.9463 16C13.1303 15.9905 14.4979 16.6034 14.9775 18.0449C15.2206 18.7757 15.2874 19.5933 15.3027 20.1816C15.3106 20.4846 15.3054 20.7468 15.2979 20.9346C15.2972 20.9514 15.2956 20.9677 15.2949 20.9834C16.1513 20.9744 16.9507 20.9624 17.6465 20.9453C18.3889 20.9271 19.0043 20.9033 19.4424 20.877C19.446 20.8011 19.4506 20.7178 19.4531 20.627C19.4698 20.0224 19.4589 19.1909 19.4355 18.2275C19.3971 16.6387 19.3283 14.704 19.3057 12.9883C18.025 12.9055 16.7611 12.1681 15.8232 10.8506C15.5873 11.4367 15.2002 11.9195 14.7129 12.2822C13.9222 12.8707 12.922 13.1146 11.9814 13.0977C11.0402 13.0806 10.0556 12.8004 9.28125 12.2148C8.81311 11.8608 8.42774 11.3958 8.18848 10.834ZM10.5576 3C10.4867 3.50345 10.3929 4.18988 10.2998 4.94824C10.1071 6.51818 9.92281 8.33726 9.92285 9.5C9.923 9.99135 10.1331 10.3511 10.4873 10.6191C10.8665 10.9059 11.4209 11.0868 12.0176 11.0977C12.6153 11.1084 13.1554 10.948 13.5186 10.6777C13.85 10.431 14.077 10.0673 14.0771 9.5C14.0771 8.43993 13.8924 6.62252 13.6992 5.02246C13.6045 4.23815 13.509 3.52201 13.4375 3H10.5576ZM4.96973 3.21289C4.74561 3.68962 4.44778 4.34971 4.15039 5.08203C3.8522 5.81637 3.5601 6.61189 3.34375 7.3623C3.12327 8.12721 3.00003 8.78318 3 9.25879C3.00012 9.88625 3.19018 10.3045 3.41992 10.5615C3.65048 10.8191 3.97284 10.9746 4.35352 10.9971C5.09965 11.0409 6.25715 10.5427 7.03516 8.84277C7.50571 7.81431 7.92496 6.10405 8.23145 4.57324C8.34858 3.98811 8.44497 3.44455 8.52051 3H5.07227C5.04071 3.06604 5.00544 3.13692 4.96973 3.21289ZM15.4795 3C15.555 3.44455 15.6514 3.98811 15.7686 4.57324C16.075 6.10405 16.4943 7.81431 16.9648 8.84277C17.7428 10.5427 18.9004 11.0409 19.6465 10.9971C20.0272 10.9746 20.3495 10.8191 20.5801 10.5615C20.8098 10.3045 20.9999 9.88625 21 9.25879C21 8.78318 20.8767 8.12721 20.6562 7.3623C20.4399 6.61189 20.1478 5.81637 19.8496 5.08203C19.5522 4.34971 19.2544 3.68962 19.0303 3.21289C18.9946 3.13692 18.9593 3.06605 18.9277 3H15.4795Z" fill="black" fill-opacity="0.2"/>
</svg>
