<svg width="24" height="24" viewBox="0 0 24 24" fill="none" xmlns="http://www.w3.org/2000/svg">
<path d="M13.3586 0.0850022C13.7587 0.106147 14.0382 0.451369 14.0178 0.841283C14.0084 1.01936 13.939 1.21087 13.7952 1.34027L12.0219 2.92127C17.68 3.10908 22.1931 7.73289 22.1931 13.4156C22.193 19.2111 17.4882 23.9152 11.6927 23.9152C5.89735 23.915 1.19327 19.211 1.19312 13.4156C1.19314 9.88575 2.9118 6.82891 5.56534 4.91463C6.04463 4.54428 6.67143 4.65507 6.97307 5.08269L7.00166 5.12514L7.00253 5.12687L7.02852 5.17192C7.14816 5.39582 7.17525 5.63444 7.11861 5.85976C7.05835 6.09896 6.90488 6.31712 6.68026 6.48697L6.67853 6.48783C4.54418 8.01813 3.13452 10.5459 3.1345 13.4156C3.13465 18.1479 6.96046 21.9736 11.6927 21.9738C16.4251 21.9738 20.2516 18.148 20.2517 13.4156C20.2517 8.75781 16.5452 4.97983 11.9162 4.86179L13.5093 6.61691C13.6452 6.75969 13.6955 6.94171 13.686 7.12196C13.6649 7.52208 13.3492 7.81863 12.9514 7.79768C12.7343 7.78613 12.5787 7.69724 12.4559 7.56984L12.4533 7.56724L9.52606 4.29782C9.37859 4.1338 9.32543 3.9532 9.33548 3.76245C9.34566 3.56994 9.43404 3.38262 9.58064 3.25047L12.8379 0.277321C12.973 0.155789 13.146 0.0738251 13.3586 0.0850022Z" fill="#1D1A24"/>
<path d="M13.3586 0.0850022C13.7587 0.106147 14.0382 0.451369 14.0178 0.841283C14.0084 1.01936 13.939 1.21087 13.7952 1.34027L12.0219 2.92127C17.68 3.10908 22.1931 7.73289 22.1931 13.4156C22.193 19.2111 17.4882 23.9152 11.6927 23.9152C5.89735 23.915 1.19327 19.211 1.19312 13.4156C1.19314 9.88575 2.9118 6.82891 5.56534 4.91463C6.04463 4.54428 6.67143 4.65507 6.97307 5.08269L7.00166 5.12514L7.00253 5.12687L7.02852 5.17192C7.14816 5.39582 7.17525 5.63444 7.11861 5.85976C7.05835 6.09896 6.90488 6.31712 6.68026 6.48697L6.67853 6.48783C4.54418 8.01813 3.13452 10.5459 3.1345 13.4156C3.13465 18.1479 6.96046 21.9736 11.6927 21.9738C16.4251 21.9738 20.2516 18.148 20.2517 13.4156C20.2517 8.75781 16.5452 4.97983 11.9162 4.86179L13.5093 6.61691C13.6452 6.75969 13.6955 6.94171 13.686 7.12196C13.6649 7.52208 13.3492 7.81863 12.9514 7.79768C12.7343 7.78613 12.5787 7.69724 12.4559 7.56984L12.4533 7.56724L9.52606 4.29782C9.37859 4.1338 9.32543 3.9532 9.33548 3.76245C9.34566 3.56994 9.43404 3.38262 9.58064 3.25047L12.8379 0.277321C12.973 0.155789 13.146 0.0738251 13.3586 0.0850022Z" fill="black" fill-opacity="0.2"/>
<path d="M13.3586 0.0850022C13.7587 0.106147 14.0382 0.451369 14.0178 0.841283C14.0084 1.01936 13.939 1.21087 13.7952 1.34027L12.0219 2.92127C17.68 3.10908 22.1931 7.73289 22.1931 13.4156C22.193 19.2111 17.4882 23.9152 11.6927 23.9152C5.89735 23.915 1.19327 19.211 1.19312 13.4156C1.19314 9.88575 2.9118 6.82891 5.56534 4.91463C6.04463 4.54428 6.67143 4.65507 6.97307 5.08269L7.00166 5.12514L7.00253 5.12687L7.02852 5.17192C7.14816 5.39582 7.17525 5.63444 7.11861 5.85976C7.05835 6.09896 6.90488 6.31712 6.68026 6.48697L6.67853 6.48783C4.54418 8.01813 3.13452 10.5459 3.1345 13.4156C3.13465 18.1479 6.96046 21.9736 11.6927 21.9738C16.4251 21.9738 20.2516 18.148 20.2517 13.4156C20.2517 8.75781 16.5452 4.97983 11.9162 4.86179L13.5093 6.61691C13.6452 6.75969 13.6955 6.94171 13.686 7.12196C13.6649 7.52208 13.3492 7.81863 12.9514 7.79768C12.7343 7.78613 12.5787 7.69724 12.4559 7.56984L12.4533 7.56724L9.52606 4.29782C9.37859 4.1338 9.32543 3.9532 9.33548 3.76245C9.34566 3.56994 9.43404 3.38262 9.58064 3.25047L12.8379 0.277321C12.973 0.155789 13.146 0.0738251 13.3586 0.0850022Z" fill="black" fill-opacity="0.2"/>
<path d="M13.3586 0.0850022C13.7587 0.106147 14.0382 0.451369 14.0178 0.841283C14.0084 1.01936 13.939 1.21087 13.7952 1.34027L12.0219 2.92127C17.68 3.10908 22.1931 7.73289 22.1931 13.4156C22.193 19.2111 17.4882 23.9152 11.6927 23.9152C5.89735 23.915 1.19327 19.211 1.19312 13.4156C1.19314 9.88575 2.9118 6.82891 5.56534 4.91463C6.04463 4.54428 6.67143 4.65507 6.97307 5.08269L7.00166 5.12514L7.00253 5.12687L7.02852 5.17192C7.14816 5.39582 7.17525 5.63444 7.11861 5.85976C7.05835 6.09896 6.90488 6.31712 6.68026 6.48697L6.67853 6.48783C4.54418 8.01813 3.13452 10.5459 3.1345 13.4156C3.13465 18.1479 6.96046 21.9736 11.6927 21.9738C16.4251 21.9738 20.2516 18.148 20.2517 13.4156C20.2517 8.75781 16.5452 4.97983 11.9162 4.86179L13.5093 6.61691C13.6452 6.75969 13.6955 6.94171 13.686 7.12196C13.6649 7.52208 13.3492 7.81863 12.9514 7.79768C12.7343 7.78613 12.5787 7.69724 12.4559 7.56984L12.4533 7.56724L9.52606 4.29782C9.37859 4.1338 9.32543 3.9532 9.33548 3.76245C9.34566 3.56994 9.43404 3.38262 9.58064 3.25047L12.8379 0.277321C12.973 0.155789 13.146 0.0738251 13.3586 0.0850022Z" fill="black" fill-opacity="0.2"/>
<path d="M13.3586 0.0850022C13.7587 0.106147 14.0382 0.451369 14.0178 0.841283C14.0084 1.01936 13.939 1.21087 13.7952 1.34027L12.0219 2.92127C17.68 3.10908 22.1931 7.73289 22.1931 13.4156C22.193 19.2111 17.4882 23.9152 11.6927 23.9152C5.89735 23.915 1.19327 19.211 1.19312 13.4156C1.19314 9.88575 2.9118 6.82891 5.56534 4.91463C6.04463 4.54428 6.67143 4.65507 6.97307 5.08269L7.00166 5.12514L7.00253 5.12687L7.02852 5.17192C7.14816 5.39582 7.17525 5.63444 7.11861 5.85976C7.05835 6.09896 6.90488 6.31712 6.68026 6.48697L6.67853 6.48783C4.54418 8.01813 3.13452 10.5459 3.1345 13.4156C3.13465 18.1479 6.96046 21.9736 11.6927 21.9738C16.4251 21.9738 20.2516 18.148 20.2517 13.4156C20.2517 8.75781 16.5452 4.97983 11.9162 4.86179L13.5093 6.61691C13.6452 6.75969 13.6955 6.94171 13.686 7.12196C13.6649 7.52208 13.3492 7.81863 12.9514 7.79768C12.7343 7.78613 12.5787 7.69724 12.4559 7.56984L12.4533 7.56724L9.52606 4.29782C9.37859 4.1338 9.32543 3.9532 9.33548 3.76245C9.34566 3.56994 9.43404 3.38262 9.58064 3.25047L12.8379 0.277321C12.973 0.155789 13.146 0.0738251 13.3586 0.0850022Z" fill="black" fill-opacity="0.2"/>
<path d="M13.3586 0.0850022C13.7587 0.106147 14.0382 0.451369 14.0178 0.841283C14.0084 1.01936 13.939 1.21087 13.7952 1.34027L12.0219 2.92127C17.68 3.10908 22.1931 7.73289 22.1931 13.4156C22.193 19.2111 17.4882 23.9152 11.6927 23.9152C5.89735 23.915 1.19327 19.211 1.19312 13.4156C1.19314 9.88575 2.9118 6.82891 5.56534 4.91463C6.04463 4.54428 6.67143 4.65507 6.97307 5.08269L7.00166 5.12514L7.00253 5.12687L7.02852 5.17192C7.14816 5.39582 7.17525 5.63444 7.11861 5.85976C7.05835 6.09896 6.90488 6.31712 6.68026 6.48697L6.67853 6.48783C4.54418 8.01813 3.13452 10.5459 3.1345 13.4156C3.13465 18.1479 6.96046 21.9736 11.6927 21.9738C16.4251 21.9738 20.2516 18.148 20.2517 13.4156C20.2517 8.75781 16.5452 4.97983 11.9162 4.86179L13.5093 6.61691C13.6452 6.75969 13.6955 6.94171 13.686 7.12196C13.6649 7.52208 13.3492 7.81863 12.9514 7.79768C12.7343 7.78613 12.5787 7.69724 12.4559 7.56984L12.4533 7.56724L9.52606 4.29782C9.37859 4.1338 9.32543 3.9532 9.33548 3.76245C9.34566 3.56994 9.43404 3.38262 9.58064 3.25047L12.8379 0.277321C12.973 0.155789 13.146 0.0738251 13.3586 0.0850022Z" fill="black" fill-opacity="0.2"/>
<path d="M11.995 8.6917C12.2604 8.69177 12.4874 8.78642 12.6759 8.97498C12.868 9.16355 12.9643 9.39226 12.9644 9.66109V12.3128H15.6162C15.8815 12.3129 16.1085 12.4076 16.2971 12.5961C16.4856 12.7847 16.5803 13.0134 16.5804 13.2822C16.5804 13.5512 16.4857 13.7806 16.2971 13.9692C16.1085 14.1578 15.8815 14.2524 15.6162 14.2525H12.9644V16.9034C12.9644 17.1689 12.8681 17.3965 12.6759 17.5851C12.4874 17.7737 12.2604 17.8684 11.995 17.8684C11.726 17.8684 11.4967 17.7738 11.308 17.5851C11.1229 17.3965 11.0308 17.1689 11.0308 16.9034V14.2525H8.37388C8.10487 14.2525 7.87556 14.1579 7.68691 13.9692C7.49829 13.7806 7.40449 13.5512 7.40449 13.2822C7.40459 13.0134 7.4984 12.7847 7.68691 12.5961C7.87556 12.4075 8.10487 12.3128 8.37388 12.3128H11.0308V9.66109C11.0309 9.3923 11.123 9.16353 11.308 8.97498C11.4967 8.78633 11.726 8.6917 11.995 8.6917Z" fill="#1D1A24"/>
<path d="M11.995 8.6917C12.2604 8.69177 12.4874 8.78642 12.6759 8.97498C12.868 9.16355 12.9643 9.39226 12.9644 9.66109V12.3128H15.6162C15.8815 12.3129 16.1085 12.4076 16.2971 12.5961C16.4856 12.7847 16.5803 13.0134 16.5804 13.2822C16.5804 13.5512 16.4857 13.7806 16.2971 13.9692C16.1085 14.1578 15.8815 14.2524 15.6162 14.2525H12.9644V16.9034C12.9644 17.1689 12.8681 17.3965 12.6759 17.5851C12.4874 17.7737 12.2604 17.8684 11.995 17.8684C11.726 17.8684 11.4967 17.7738 11.308 17.5851C11.1229 17.3965 11.0308 17.1689 11.0308 16.9034V14.2525H8.37388C8.10487 14.2525 7.87556 14.1579 7.68691 13.9692C7.49829 13.7806 7.40449 13.5512 7.40449 13.2822C7.40459 13.0134 7.4984 12.7847 7.68691 12.5961C7.87556 12.4075 8.10487 12.3128 8.37388 12.3128H11.0308V9.66109C11.0309 9.3923 11.123 9.16353 11.308 8.97498C11.4967 8.78633 11.726 8.6917 11.995 8.6917Z" fill="black" fill-opacity="0.2"/>
<path d="M11.995 8.6917C12.2604 8.69177 12.4874 8.78642 12.6759 8.97498C12.868 9.16355 12.9643 9.39226 12.9644 9.66109V12.3128H15.6162C15.8815 12.3129 16.1085 12.4076 16.2971 12.5961C16.4856 12.7847 16.5803 13.0134 16.5804 13.2822C16.5804 13.5512 16.4857 13.7806 16.2971 13.9692C16.1085 14.1578 15.8815 14.2524 15.6162 14.2525H12.9644V16.9034C12.9644 17.1689 12.8681 17.3965 12.6759 17.5851C12.4874 17.7737 12.2604 17.8684 11.995 17.8684C11.726 17.8684 11.4967 17.7738 11.308 17.5851C11.1229 17.3965 11.0308 17.1689 11.0308 16.9034V14.2525H8.37388C8.10487 14.2525 7.87556 14.1579 7.68691 13.9692C7.49829 13.7806 7.40449 13.5512 7.40449 13.2822C7.40459 13.0134 7.4984 12.7847 7.68691 12.5961C7.87556 12.4075 8.10487 12.3128 8.37388 12.3128H11.0308V9.66109C11.0309 9.3923 11.123 9.16353 11.308 8.97498C11.4967 8.78633 11.726 8.6917 11.995 8.6917Z" fill="black" fill-opacity="0.2"/>
<path d="M11.995 8.6917C12.2604 8.69177 12.4874 8.78642 12.6759 8.97498C12.868 9.16355 12.9643 9.39226 12.9644 9.66109V12.3128H15.6162C15.8815 12.3129 16.1085 12.4076 16.2971 12.5961C16.4856 12.7847 16.5803 13.0134 16.5804 13.2822C16.5804 13.5512 16.4857 13.7806 16.2971 13.9692C16.1085 14.1578 15.8815 14.2524 15.6162 14.2525H12.9644V16.9034C12.9644 17.1689 12.8681 17.3965 12.6759 17.5851C12.4874 17.7737 12.2604 17.8684 11.995 17.8684C11.726 17.8684 11.4967 17.7738 11.308 17.5851C11.1229 17.3965 11.0308 17.1689 11.0308 16.9034V14.2525H8.37388C8.10487 14.2525 7.87556 14.1579 7.68691 13.9692C7.49829 13.7806 7.40449 13.5512 7.40449 13.2822C7.40459 13.0134 7.4984 12.7847 7.68691 12.5961C7.87556 12.4075 8.10487 12.3128 8.37388 12.3128H11.0308V9.66109C11.0309 9.3923 11.123 9.16353 11.308 8.97498C11.4967 8.78633 11.726 8.6917 11.995 8.6917Z" fill="black" fill-opacity="0.2"/>
<path d="M11.995 8.6917C12.2604 8.69177 12.4874 8.78642 12.6759 8.97498C12.868 9.16355 12.9643 9.39226 12.9644 9.66109V12.3128H15.6162C15.8815 12.3129 16.1085 12.4076 16.2971 12.5961C16.4856 12.7847 16.5803 13.0134 16.5804 13.2822C16.5804 13.5512 16.4857 13.7806 16.2971 13.9692C16.1085 14.1578 15.8815 14.2524 15.6162 14.2525H12.9644V16.9034C12.9644 17.1689 12.8681 17.3965 12.6759 17.5851C12.4874 17.7737 12.2604 17.8684 11.995 17.8684C11.726 17.8684 11.4967 17.7738 11.308 17.5851C11.1229 17.3965 11.0308 17.1689 11.0308 16.9034V14.2525H8.37388C8.10487 14.2525 7.87556 14.1579 7.68691 13.9692C7.49829 13.7806 7.40449 13.5512 7.40449 13.2822C7.40459 13.0134 7.4984 12.7847 7.68691 12.5961C7.87556 12.4075 8.10487 12.3128 8.37388 12.3128H11.0308V9.66109C11.0309 9.3923 11.123 9.16353 11.308 8.97498C11.4967 8.78633 11.726 8.6917 11.995 8.6917Z" fill="black" fill-opacity="0.2"/>
<path d="M11.995 8.6917C12.2604 8.69177 12.4874 8.78642 12.6759 8.97498C12.868 9.16355 12.9643 9.39226 12.9644 9.66109V12.3128H15.6162C15.8815 12.3129 16.1085 12.4076 16.2971 12.5961C16.4856 12.7847 16.5803 13.0134 16.5804 13.2822C16.5804 13.5512 16.4857 13.7806 16.2971 13.9692C16.1085 14.1578 15.8815 14.2524 15.6162 14.2525H12.9644V16.9034C12.9644 17.1689 12.8681 17.3965 12.6759 17.5851C12.4874 17.7737 12.2604 17.8684 11.995 17.8684C11.726 17.8684 11.4967 17.7738 11.308 17.5851C11.1229 17.3965 11.0308 17.1689 11.0308 16.9034V14.2525H8.37388C8.10487 14.2525 7.87556 14.1579 7.68691 13.9692C7.49829 13.7806 7.40449 13.5512 7.40449 13.2822C7.40459 13.0134 7.4984 12.7847 7.68691 12.5961C7.87556 12.4075 8.10487 12.3128 8.37388 12.3128H11.0308V9.66109C11.0309 9.3923 11.123 9.16353 11.308 8.97498C11.4967 8.78633 11.726 8.6917 11.995 8.6917Z" fill="black" fill-opacity="0.2"/>
</svg>
