<svg width="24" height="24" viewBox="0 0 24 24" fill="none" xmlns="http://www.w3.org/2000/svg">
<path d="M6.60742 11.2315C6.91647 10.9229 7.41751 10.9229 7.72656 11.2315C8.03558 11.5405 8.03527 12.0414 7.72656 12.3506L4.70312 15.3741H19.167C19.6039 15.3741 19.9585 15.7293 19.959 16.1661C19.959 16.6033 19.6042 16.9581 19.167 16.9581H4.70312L7.72656 19.9815C8.03558 20.2905 8.03527 20.7914 7.72656 21.1006C7.4174 21.4098 6.91659 21.4098 6.60742 21.1006L2.23828 16.7305C2.23375 16.7261 2.22903 16.7214 2.22461 16.7169C2.19418 16.6855 2.16678 16.652 2.14258 16.6172C2.13971 16.6131 2.13658 16.6087 2.13379 16.6045C2.10863 16.5668 2.08732 16.527 2.06934 16.4864C2.02596 16.3885 2 16.28 2 16.1661C2.00013 16.052 2.02577 15.9437 2.06934 15.8458C2.08736 15.8052 2.1086 15.7653 2.13379 15.7276C2.13659 15.7234 2.13971 15.719 2.14258 15.7149C2.16892 15.6772 2.19874 15.6402 2.23242 15.6065L6.60742 11.2315Z" fill="#1D1A24"/>
<path d="M16.2324 3.2315C16.5415 2.92283 17.0425 2.92283 17.3516 3.2315L21.7266 7.6065C21.7603 7.64021 21.79 7.67713 21.8164 7.7149C21.8193 7.71905 21.8224 7.72338 21.8252 7.72759C21.8504 7.76531 21.8716 7.80515 21.8896 7.84576C21.9332 7.94376 21.9589 8.05196 21.959 8.16607C21.959 8.28007 21.9331 8.38842 21.8896 8.48638C21.8717 8.52704 21.8504 8.56677 21.8252 8.60455C21.8224 8.60876 21.8193 8.61308 21.8164 8.61724C21.7922 8.65205 21.7648 8.68545 21.7344 8.71685C21.7299 8.72143 21.7253 8.72605 21.7207 8.73052L17.3516 13.1006C17.0424 13.4098 16.5416 13.4098 16.2324 13.1006C15.9236 12.7914 15.9234 12.2905 16.2324 11.9815L19.2559 8.95806H4.79199C4.35477 8.95806 4 8.60329 4 8.16607C4.00041 7.72919 4.35502 7.37408 4.79199 7.37408H19.2559L16.2324 4.35064C15.9236 4.04144 15.9234 3.54054 16.2324 3.2315Z" fill="#1D1A24"/>
</svg>
