<svg width="24" height="24" viewBox="0 0 24 24" fill="none" xmlns="http://www.w3.org/2000/svg">
<path d="M7.00977 6C7.56205 6 8.00977 6.44772 8.00977 7C8.00977 7.55228 7.56205 8 7.00977 8H7C6.44772 8 6 7.55228 6 7C6 6.44772 6.44772 6 7 6H7.00977Z" fill="#1D1A24"/>
<path d="M7.00977 6C7.56205 6 8.00977 6.44772 8.00977 7C8.00977 7.55228 7.56205 8 7.00977 8H7C6.44772 8 6 7.55228 6 7C6 6.44772 6.44772 6 7 6H7.00977Z" fill="black" fill-opacity="0.2"/>
<path d="M7.00977 6C7.56205 6 8.00977 6.44772 8.00977 7C8.00977 7.55228 7.56205 8 7.00977 8H7C6.44772 8 6 7.55228 6 7C6 6.44772 6.44772 6 7 6H7.00977Z" fill="black" fill-opacity="0.2"/>
<path d="M7.00977 6C7.56205 6 8.00977 6.44772 8.00977 7C8.00977 7.55228 7.56205 8 7.00977 8H7C6.44772 8 6 7.55228 6 7C6 6.44772 6.44772 6 7 6H7.00977Z" fill="black" fill-opacity="0.2"/>
<path d="M7.00977 6C7.56205 6 8.00977 6.44772 8.00977 7C8.00977 7.55228 7.56205 8 7.00977 8H7C6.44772 8 6 7.55228 6 7C6 6.44772 6.44772 6 7 6H7.00977Z" fill="black" fill-opacity="0.2"/>
<path d="M7.00977 6C7.56205 6 8.00977 6.44772 8.00977 7C8.00977 7.55228 7.56205 8 7.00977 8H7C6.44772 8 6 7.55228 6 7C6 6.44772 6.44772 6 7 6H7.00977Z" fill="black" fill-opacity="0.2"/>
<path fill-rule="evenodd" clip-rule="evenodd" d="M12.0986 1.00488C12.3276 1.02757 12.5429 1.12883 12.707 1.29297L21.2988 9.88477C21.8576 10.4469 22.1719 11.2074 22.1719 12C22.1719 12.7926 21.8576 13.5531 21.2988 14.1152L20.5898 13.4102L21.2969 14.1172L14.127 21.2861L14.1279 21.2871C13.8495 21.5659 13.5183 21.7865 13.1543 21.9375C12.7901 22.0885 12.3991 22.167 12.0049 22.167C11.6107 22.167 11.2206 22.0884 10.8564 21.9375C10.4924 21.7866 10.1614 21.5659 9.88281 21.2871L1.29297 12.707C1.10544 12.5195 1 12.2652 1 12V2C1 1.44772 1.44772 1 2 1H12L12.0986 1.00488ZM3 11.585L11.2979 19.873C11.3907 19.966 11.5007 20.0405 11.6221 20.0908C11.7434 20.1411 11.8736 20.167 12.0049 20.167C12.1362 20.167 12.2664 20.141 12.3877 20.0908C12.5091 20.0405 12.62 19.966 12.7129 19.873L19.8828 12.7031C20.0679 12.516 20.1719 12.2633 20.1719 12C20.1719 11.7367 20.0679 11.484 19.8828 11.2969L11.5859 3H3V11.585Z" fill="#1D1A24"/>
<path fill-rule="evenodd" clip-rule="evenodd" d="M12.0986 1.00488C12.3276 1.02757 12.5429 1.12883 12.707 1.29297L21.2988 9.88477C21.8576 10.4469 22.1719 11.2074 22.1719 12C22.1719 12.7926 21.8576 13.5531 21.2988 14.1152L20.5898 13.4102L21.2969 14.1172L14.127 21.2861L14.1279 21.2871C13.8495 21.5659 13.5183 21.7865 13.1543 21.9375C12.7901 22.0885 12.3991 22.167 12.0049 22.167C11.6107 22.167 11.2206 22.0884 10.8564 21.9375C10.4924 21.7866 10.1614 21.5659 9.88281 21.2871L1.29297 12.707C1.10544 12.5195 1 12.2652 1 12V2C1 1.44772 1.44772 1 2 1H12L12.0986 1.00488ZM3 11.585L11.2979 19.873C11.3907 19.966 11.5007 20.0405 11.6221 20.0908C11.7434 20.1411 11.8736 20.167 12.0049 20.167C12.1362 20.167 12.2664 20.141 12.3877 20.0908C12.5091 20.0405 12.62 19.966 12.7129 19.873L19.8828 12.7031C20.0679 12.516 20.1719 12.2633 20.1719 12C20.1719 11.7367 20.0679 11.484 19.8828 11.2969L11.5859 3H3V11.585Z" fill="black" fill-opacity="0.2"/>
<path fill-rule="evenodd" clip-rule="evenodd" d="M12.0986 1.00488C12.3276 1.02757 12.5429 1.12883 12.707 1.29297L21.2988 9.88477C21.8576 10.4469 22.1719 11.2074 22.1719 12C22.1719 12.7926 21.8576 13.5531 21.2988 14.1152L20.5898 13.4102L21.2969 14.1172L14.127 21.2861L14.1279 21.2871C13.8495 21.5659 13.5183 21.7865 13.1543 21.9375C12.7901 22.0885 12.3991 22.167 12.0049 22.167C11.6107 22.167 11.2206 22.0884 10.8564 21.9375C10.4924 21.7866 10.1614 21.5659 9.88281 21.2871L1.29297 12.707C1.10544 12.5195 1 12.2652 1 12V2C1 1.44772 1.44772 1 2 1H12L12.0986 1.00488ZM3 11.585L11.2979 19.873C11.3907 19.966 11.5007 20.0405 11.6221 20.0908C11.7434 20.1411 11.8736 20.167 12.0049 20.167C12.1362 20.167 12.2664 20.141 12.3877 20.0908C12.5091 20.0405 12.62 19.966 12.7129 19.873L19.8828 12.7031C20.0679 12.516 20.1719 12.2633 20.1719 12C20.1719 11.7367 20.0679 11.484 19.8828 11.2969L11.5859 3H3V11.585Z" fill="black" fill-opacity="0.2"/>
<path fill-rule="evenodd" clip-rule="evenodd" d="M12.0986 1.00488C12.3276 1.02757 12.5429 1.12883 12.707 1.29297L21.2988 9.88477C21.8576 10.4469 22.1719 11.2074 22.1719 12C22.1719 12.7926 21.8576 13.5531 21.2988 14.1152L20.5898 13.4102L21.2969 14.1172L14.127 21.2861L14.1279 21.2871C13.8495 21.5659 13.5183 21.7865 13.1543 21.9375C12.7901 22.0885 12.3991 22.167 12.0049 22.167C11.6107 22.167 11.2206 22.0884 10.8564 21.9375C10.4924 21.7866 10.1614 21.5659 9.88281 21.2871L1.29297 12.707C1.10544 12.5195 1 12.2652 1 12V2C1 1.44772 1.44772 1 2 1H12L12.0986 1.00488ZM3 11.585L11.2979 19.873C11.3907 19.966 11.5007 20.0405 11.6221 20.0908C11.7434 20.1411 11.8736 20.167 12.0049 20.167C12.1362 20.167 12.2664 20.141 12.3877 20.0908C12.5091 20.0405 12.62 19.966 12.7129 19.873L19.8828 12.7031C20.0679 12.516 20.1719 12.2633 20.1719 12C20.1719 11.7367 20.0679 11.484 19.8828 11.2969L11.5859 3H3V11.585Z" fill="black" fill-opacity="0.2"/>
<path fill-rule="evenodd" clip-rule="evenodd" d="M12.0986 1.00488C12.3276 1.02757 12.5429 1.12883 12.707 1.29297L21.2988 9.88477C21.8576 10.4469 22.1719 11.2074 22.1719 12C22.1719 12.7926 21.8576 13.5531 21.2988 14.1152L20.5898 13.4102L21.2969 14.1172L14.127 21.2861L14.1279 21.2871C13.8495 21.5659 13.5183 21.7865 13.1543 21.9375C12.7901 22.0885 12.3991 22.167 12.0049 22.167C11.6107 22.167 11.2206 22.0884 10.8564 21.9375C10.4924 21.7866 10.1614 21.5659 9.88281 21.2871L1.29297 12.707C1.10544 12.5195 1 12.2652 1 12V2C1 1.44772 1.44772 1 2 1H12L12.0986 1.00488ZM3 11.585L11.2979 19.873C11.3907 19.966 11.5007 20.0405 11.6221 20.0908C11.7434 20.1411 11.8736 20.167 12.0049 20.167C12.1362 20.167 12.2664 20.141 12.3877 20.0908C12.5091 20.0405 12.62 19.966 12.7129 19.873L19.8828 12.7031C20.0679 12.516 20.1719 12.2633 20.1719 12C20.1719 11.7367 20.0679 11.484 19.8828 11.2969L11.5859 3H3V11.585Z" fill="black" fill-opacity="0.2"/>
<path fill-rule="evenodd" clip-rule="evenodd" d="M12.0986 1.00488C12.3276 1.02757 12.5429 1.12883 12.707 1.29297L21.2988 9.88477C21.8576 10.4469 22.1719 11.2074 22.1719 12C22.1719 12.7926 21.8576 13.5531 21.2988 14.1152L20.5898 13.4102L21.2969 14.1172L14.127 21.2861L14.1279 21.2871C13.8495 21.5659 13.5183 21.7865 13.1543 21.9375C12.7901 22.0885 12.3991 22.167 12.0049 22.167C11.6107 22.167 11.2206 22.0884 10.8564 21.9375C10.4924 21.7866 10.1614 21.5659 9.88281 21.2871L1.29297 12.707C1.10544 12.5195 1 12.2652 1 12V2C1 1.44772 1.44772 1 2 1H12L12.0986 1.00488ZM3 11.585L11.2979 19.873C11.3907 19.966 11.5007 20.0405 11.6221 20.0908C11.7434 20.1411 11.8736 20.167 12.0049 20.167C12.1362 20.167 12.2664 20.141 12.3877 20.0908C12.5091 20.0405 12.62 19.966 12.7129 19.873L19.8828 12.7031C20.0679 12.516 20.1719 12.2633 20.1719 12C20.1719 11.7367 20.0679 11.484 19.8828 11.2969L11.5859 3H3V11.585Z" fill="black" fill-opacity="0.2"/>
</svg>
