<svg width="24" height="24" viewBox="0 0 24 24" fill="none" xmlns="http://www.w3.org/2000/svg">
<path fill-rule="evenodd" clip-rule="evenodd" d="M19.6701 1.00204C20.4748 0.992135 21.2565 1.2745 21.8674 1.79891C22.4824 2.32714 22.8827 3.06287 22.9914 3.86629C22.9974 3.91051 23.0002 3.95546 23.0002 4.00008V11.0001C23.0002 11.0448 22.9974 11.0905 22.9914 11.1348C22.8826 11.9383 22.4825 12.6741 21.8674 13.2022C21.2565 13.7266 20.4748 14.009 19.6701 13.9991L17.7512 14.0001C17.692 14.2007 17.6223 14.4371 17.5422 14.6993C17.2816 15.5522 16.9169 16.6941 16.5031 17.8399C16.0924 18.9775 15.6209 20.1546 15.1428 21.0606C14.9061 21.509 14.6441 21.9374 14.3606 22.2667C14.1247 22.5406 13.6614 22.9999 13.0002 23.0001C12.6382 23.0001 12.3197 23.0006 12.0608 22.9845C11.8007 22.9682 11.5114 22.9319 11.2278 22.8145C10.6378 22.5701 10.3121 22.052 10.0627 21.6993C9.71533 21.2081 9.50282 20.8163 9.3508 20.4014C9.21345 20.0265 9.12773 19.625 9.03147 19.2481C8.79847 18.3361 8.80739 17.334 8.85764 16.5557C8.87582 16.2742 8.90052 16.0108 8.92405 15.7813C8.52189 15.7734 8.01239 15.786 7.46506 15.8116C6.81149 15.8422 6.13425 15.8887 5.57248 15.9278C5.04199 15.9647 4.55071 16 4.34006 16.0001C3.92356 16.0001 3.60013 15.9449 3.34787 15.8585C3.22139 15.8151 3.11283 15.7648 3.0217 15.71C3.0062 15.7007 2.99216 15.6892 2.97776 15.6798C2.96042 15.6698 2.93714 15.6566 2.91037 15.6407C2.85222 15.6061 2.77209 15.5565 2.68284 15.4972C2.5253 15.3924 2.25719 15.2025 2.05393 14.9688C1.73087 14.5973 1.55454 14.2426 1.43674 13.837C1.31555 13.4196 1.28665 12.9806 1.35178 12.5509V12.5489L2.73166 3.54891C2.84044 2.83417 3.20421 2.18318 3.7551 1.71493C4.30344 1.24887 5.00058 0.99473 5.71994 1.00008H19.6701V1.00204ZM5.7092 3.00008C5.46807 2.99736 5.23378 3.0822 5.05002 3.23836C4.86626 3.39456 4.74536 3.61222 4.7092 3.85067L4.70823 3.85165L3.32834 12.8497C3.30663 12.993 3.31724 13.1402 3.35764 13.2794C3.40143 13.4301 3.4457 13.5217 3.56272 13.6563C3.56382 13.6576 3.56905 13.6634 3.57932 13.6729C3.59238 13.685 3.6107 13.7 3.63303 13.7179C3.67883 13.7544 3.73322 13.7939 3.78928 13.8311C3.84456 13.8679 3.8962 13.8992 3.93284 13.921C3.9508 13.9317 3.96527 13.9405 3.97385 13.9454C3.97672 13.947 3.97922 13.9485 3.98069 13.9493L3.98166 13.9503L4.01487 13.9708C4.05357 13.9803 4.1543 14.0001 4.34006 14.0001C4.45986 14 4.84186 13.9739 5.43381 13.9327C5.99505 13.8937 6.69264 13.8454 7.37131 13.8136C8.04249 13.7821 8.72859 13.7652 9.25803 13.7911C9.51313 13.8036 9.78985 13.8277 10.0246 13.8858C10.1346 13.9131 10.3139 13.9659 10.4875 14.0782C10.6603 14.1901 11.0001 14.4846 11.0002 15.0001C11.0002 15.1941 10.966 15.4864 10.9397 15.7306C10.9095 16.0099 10.8754 16.334 10.8528 16.6847C10.8064 17.403 10.8153 18.1517 10.969 18.753C11.0945 19.2443 11.1377 19.4645 11.2287 19.713C11.3052 19.9217 11.4219 20.1571 11.6955 20.544C11.8635 20.7816 11.9427 20.8914 12.0061 20.962C12.0089 20.9651 12.0116 20.9683 12.0139 20.9708C12.0418 20.9758 12.0953 20.9827 12.1858 20.9884C12.3356 20.9977 12.5279 20.9987 12.8069 20.9991C12.8176 20.9875 12.8318 20.9763 12.8449 20.961C12.9852 20.7981 13.1647 20.5223 13.3733 20.127C13.7856 19.3457 14.2207 18.2732 14.6223 17.1612C15.0209 16.0574 15.3751 14.9488 15.6301 14.1143C15.7573 13.698 15.8588 13.3506 15.9289 13.1085C15.9583 13.0072 15.9826 12.9243 16.0002 12.8624V3.00008H5.7092ZM4.18674 14.0997C4.1856 14.0986 4.184 14.0969 4.18284 14.0958L4.15354 14.0694C4.14081 14.0585 4.1282 14.0482 4.11643 14.0391C4.11204 14.0358 4.10699 14.0325 4.10276 14.0294C4.13174 14.0514 4.16028 14.0746 4.18674 14.0997ZM18.0002 12.0001H19.6701C19.6759 12.0001 19.682 12.001 19.6877 12.0011C20.0086 12.0067 20.3212 11.8937 20.5647 11.6847C20.7957 11.4862 20.9484 11.2132 21.0002 10.9141V4.08602C20.9483 3.78728 20.7954 3.51479 20.5647 3.31649C20.3212 3.10747 20.0086 2.99448 19.6877 3.00008H18.0002V12.0001Z" fill="#1D1A24"/>
<path fill-rule="evenodd" clip-rule="evenodd" d="M19.6701 1.00204C20.4748 0.992135 21.2565 1.2745 21.8674 1.79891C22.4824 2.32714 22.8827 3.06287 22.9914 3.86629C22.9974 3.91051 23.0002 3.95546 23.0002 4.00008V11.0001C23.0002 11.0448 22.9974 11.0905 22.9914 11.1348C22.8826 11.9383 22.4825 12.6741 21.8674 13.2022C21.2565 13.7266 20.4748 14.009 19.6701 13.9991L17.7512 14.0001C17.692 14.2007 17.6223 14.4371 17.5422 14.6993C17.2816 15.5522 16.9169 16.6941 16.5031 17.8399C16.0924 18.9775 15.6209 20.1546 15.1428 21.0606C14.9061 21.509 14.6441 21.9374 14.3606 22.2667C14.1247 22.5406 13.6614 22.9999 13.0002 23.0001C12.6382 23.0001 12.3197 23.0006 12.0608 22.9845C11.8007 22.9682 11.5114 22.9319 11.2278 22.8145C10.6378 22.5701 10.3121 22.052 10.0627 21.6993C9.71533 21.2081 9.50282 20.8163 9.3508 20.4014C9.21345 20.0265 9.12773 19.625 9.03147 19.2481C8.79847 18.3361 8.80739 17.334 8.85764 16.5557C8.87582 16.2742 8.90052 16.0108 8.92405 15.7813C8.52189 15.7734 8.01239 15.786 7.46506 15.8116C6.81149 15.8422 6.13425 15.8887 5.57248 15.9278C5.04199 15.9647 4.55071 16 4.34006 16.0001C3.92356 16.0001 3.60013 15.9449 3.34787 15.8585C3.22139 15.8151 3.11283 15.7648 3.0217 15.71C3.0062 15.7007 2.99216 15.6892 2.97776 15.6798C2.96042 15.6698 2.93714 15.6566 2.91037 15.6407C2.85222 15.6061 2.77209 15.5565 2.68284 15.4972C2.5253 15.3924 2.25719 15.2025 2.05393 14.9688C1.73087 14.5973 1.55454 14.2426 1.43674 13.837C1.31555 13.4196 1.28665 12.9806 1.35178 12.5509V12.5489L2.73166 3.54891C2.84044 2.83417 3.20421 2.18318 3.7551 1.71493C4.30344 1.24887 5.00058 0.99473 5.71994 1.00008H19.6701V1.00204ZM5.7092 3.00008C5.46807 2.99736 5.23378 3.0822 5.05002 3.23836C4.86626 3.39456 4.74536 3.61222 4.7092 3.85067L4.70823 3.85165L3.32834 12.8497C3.30663 12.993 3.31724 13.1402 3.35764 13.2794C3.40143 13.4301 3.4457 13.5217 3.56272 13.6563C3.56382 13.6576 3.56905 13.6634 3.57932 13.6729C3.59238 13.685 3.6107 13.7 3.63303 13.7179C3.67883 13.7544 3.73322 13.7939 3.78928 13.8311C3.84456 13.8679 3.8962 13.8992 3.93284 13.921C3.9508 13.9317 3.96527 13.9405 3.97385 13.9454C3.97672 13.947 3.97922 13.9485 3.98069 13.9493L3.98166 13.9503L4.01487 13.9708C4.05357 13.9803 4.1543 14.0001 4.34006 14.0001C4.45986 14 4.84186 13.9739 5.43381 13.9327C5.99505 13.8937 6.69264 13.8454 7.37131 13.8136C8.04249 13.7821 8.72859 13.7652 9.25803 13.7911C9.51313 13.8036 9.78985 13.8277 10.0246 13.8858C10.1346 13.9131 10.3139 13.9659 10.4875 14.0782C10.6603 14.1901 11.0001 14.4846 11.0002 15.0001C11.0002 15.1941 10.966 15.4864 10.9397 15.7306C10.9095 16.0099 10.8754 16.334 10.8528 16.6847C10.8064 17.403 10.8153 18.1517 10.969 18.753C11.0945 19.2443 11.1377 19.4645 11.2287 19.713C11.3052 19.9217 11.4219 20.1571 11.6955 20.544C11.8635 20.7816 11.9427 20.8914 12.0061 20.962C12.0089 20.9651 12.0116 20.9683 12.0139 20.9708C12.0418 20.9758 12.0953 20.9827 12.1858 20.9884C12.3356 20.9977 12.5279 20.9987 12.8069 20.9991C12.8176 20.9875 12.8318 20.9763 12.8449 20.961C12.9852 20.7981 13.1647 20.5223 13.3733 20.127C13.7856 19.3457 14.2207 18.2732 14.6223 17.1612C15.0209 16.0574 15.3751 14.9488 15.6301 14.1143C15.7573 13.698 15.8588 13.3506 15.9289 13.1085C15.9583 13.0072 15.9826 12.9243 16.0002 12.8624V3.00008H5.7092ZM4.18674 14.0997C4.1856 14.0986 4.184 14.0969 4.18284 14.0958L4.15354 14.0694C4.14081 14.0585 4.1282 14.0482 4.11643 14.0391C4.11204 14.0358 4.10699 14.0325 4.10276 14.0294C4.13174 14.0514 4.16028 14.0746 4.18674 14.0997ZM18.0002 12.0001H19.6701C19.6759 12.0001 19.682 12.001 19.6877 12.0011C20.0086 12.0067 20.3212 11.8937 20.5647 11.6847C20.7957 11.4862 20.9484 11.2132 21.0002 10.9141V4.08602C20.9483 3.78728 20.7954 3.51479 20.5647 3.31649C20.3212 3.10747 20.0086 2.99448 19.6877 3.00008H18.0002V12.0001Z" fill="black" fill-opacity="0.2"/>
<path fill-rule="evenodd" clip-rule="evenodd" d="M19.6701 1.00204C20.4748 0.992135 21.2565 1.2745 21.8674 1.79891C22.4824 2.32714 22.8827 3.06287 22.9914 3.86629C22.9974 3.91051 23.0002 3.95546 23.0002 4.00008V11.0001C23.0002 11.0448 22.9974 11.0905 22.9914 11.1348C22.8826 11.9383 22.4825 12.6741 21.8674 13.2022C21.2565 13.7266 20.4748 14.009 19.6701 13.9991L17.7512 14.0001C17.692 14.2007 17.6223 14.4371 17.5422 14.6993C17.2816 15.5522 16.9169 16.6941 16.5031 17.8399C16.0924 18.9775 15.6209 20.1546 15.1428 21.0606C14.9061 21.509 14.6441 21.9374 14.3606 22.2667C14.1247 22.5406 13.6614 22.9999 13.0002 23.0001C12.6382 23.0001 12.3197 23.0006 12.0608 22.9845C11.8007 22.9682 11.5114 22.9319 11.2278 22.8145C10.6378 22.5701 10.3121 22.052 10.0627 21.6993C9.71533 21.2081 9.50282 20.8163 9.3508 20.4014C9.21345 20.0265 9.12773 19.625 9.03147 19.2481C8.79847 18.3361 8.80739 17.334 8.85764 16.5557C8.87582 16.2742 8.90052 16.0108 8.92405 15.7813C8.52189 15.7734 8.01239 15.786 7.46506 15.8116C6.81149 15.8422 6.13425 15.8887 5.57248 15.9278C5.04199 15.9647 4.55071 16 4.34006 16.0001C3.92356 16.0001 3.60013 15.9449 3.34787 15.8585C3.22139 15.8151 3.11283 15.7648 3.0217 15.71C3.0062 15.7007 2.99216 15.6892 2.97776 15.6798C2.96042 15.6698 2.93714 15.6566 2.91037 15.6407C2.85222 15.6061 2.77209 15.5565 2.68284 15.4972C2.5253 15.3924 2.25719 15.2025 2.05393 14.9688C1.73087 14.5973 1.55454 14.2426 1.43674 13.837C1.31555 13.4196 1.28665 12.9806 1.35178 12.5509V12.5489L2.73166 3.54891C2.84044 2.83417 3.20421 2.18318 3.7551 1.71493C4.30344 1.24887 5.00058 0.99473 5.71994 1.00008H19.6701V1.00204ZM5.7092 3.00008C5.46807 2.99736 5.23378 3.0822 5.05002 3.23836C4.86626 3.39456 4.74536 3.61222 4.7092 3.85067L4.70823 3.85165L3.32834 12.8497C3.30663 12.993 3.31724 13.1402 3.35764 13.2794C3.40143 13.4301 3.4457 13.5217 3.56272 13.6563C3.56382 13.6576 3.56905 13.6634 3.57932 13.6729C3.59238 13.685 3.6107 13.7 3.63303 13.7179C3.67883 13.7544 3.73322 13.7939 3.78928 13.8311C3.84456 13.8679 3.8962 13.8992 3.93284 13.921C3.9508 13.9317 3.96527 13.9405 3.97385 13.9454C3.97672 13.947 3.97922 13.9485 3.98069 13.9493L3.98166 13.9503L4.01487 13.9708C4.05357 13.9803 4.1543 14.0001 4.34006 14.0001C4.45986 14 4.84186 13.9739 5.43381 13.9327C5.99505 13.8937 6.69264 13.8454 7.37131 13.8136C8.04249 13.7821 8.72859 13.7652 9.25803 13.7911C9.51313 13.8036 9.78985 13.8277 10.0246 13.8858C10.1346 13.9131 10.3139 13.9659 10.4875 14.0782C10.6603 14.1901 11.0001 14.4846 11.0002 15.0001C11.0002 15.1941 10.966 15.4864 10.9397 15.7306C10.9095 16.0099 10.8754 16.334 10.8528 16.6847C10.8064 17.403 10.8153 18.1517 10.969 18.753C11.0945 19.2443 11.1377 19.4645 11.2287 19.713C11.3052 19.9217 11.4219 20.1571 11.6955 20.544C11.8635 20.7816 11.9427 20.8914 12.0061 20.962C12.0089 20.9651 12.0116 20.9683 12.0139 20.9708C12.0418 20.9758 12.0953 20.9827 12.1858 20.9884C12.3356 20.9977 12.5279 20.9987 12.8069 20.9991C12.8176 20.9875 12.8318 20.9763 12.8449 20.961C12.9852 20.7981 13.1647 20.5223 13.3733 20.127C13.7856 19.3457 14.2207 18.2732 14.6223 17.1612C15.0209 16.0574 15.3751 14.9488 15.6301 14.1143C15.7573 13.698 15.8588 13.3506 15.9289 13.1085C15.9583 13.0072 15.9826 12.9243 16.0002 12.8624V3.00008H5.7092ZM4.18674 14.0997C4.1856 14.0986 4.184 14.0969 4.18284 14.0958L4.15354 14.0694C4.14081 14.0585 4.1282 14.0482 4.11643 14.0391C4.11204 14.0358 4.10699 14.0325 4.10276 14.0294C4.13174 14.0514 4.16028 14.0746 4.18674 14.0997ZM18.0002 12.0001H19.6701C19.6759 12.0001 19.682 12.001 19.6877 12.0011C20.0086 12.0067 20.3212 11.8937 20.5647 11.6847C20.7957 11.4862 20.9484 11.2132 21.0002 10.9141V4.08602C20.9483 3.78728 20.7954 3.51479 20.5647 3.31649C20.3212 3.10747 20.0086 2.99448 19.6877 3.00008H18.0002V12.0001Z" fill="black" fill-opacity="0.2"/>
<path fill-rule="evenodd" clip-rule="evenodd" d="M19.6701 1.00204C20.4748 0.992135 21.2565 1.2745 21.8674 1.79891C22.4824 2.32714 22.8827 3.06287 22.9914 3.86629C22.9974 3.91051 23.0002 3.95546 23.0002 4.00008V11.0001C23.0002 11.0448 22.9974 11.0905 22.9914 11.1348C22.8826 11.9383 22.4825 12.6741 21.8674 13.2022C21.2565 13.7266 20.4748 14.009 19.6701 13.9991L17.7512 14.0001C17.692 14.2007 17.6223 14.4371 17.5422 14.6993C17.2816 15.5522 16.9169 16.6941 16.5031 17.8399C16.0924 18.9775 15.6209 20.1546 15.1428 21.0606C14.9061 21.509 14.6441 21.9374 14.3606 22.2667C14.1247 22.5406 13.6614 22.9999 13.0002 23.0001C12.6382 23.0001 12.3197 23.0006 12.0608 22.9845C11.8007 22.9682 11.5114 22.9319 11.2278 22.8145C10.6378 22.5701 10.3121 22.052 10.0627 21.6993C9.71533 21.2081 9.50282 20.8163 9.3508 20.4014C9.21345 20.0265 9.12773 19.625 9.03147 19.2481C8.79847 18.3361 8.80739 17.334 8.85764 16.5557C8.87582 16.2742 8.90052 16.0108 8.92405 15.7813C8.52189 15.7734 8.01239 15.786 7.46506 15.8116C6.81149 15.8422 6.13425 15.8887 5.57248 15.9278C5.04199 15.9647 4.55071 16 4.34006 16.0001C3.92356 16.0001 3.60013 15.9449 3.34787 15.8585C3.22139 15.8151 3.11283 15.7648 3.0217 15.71C3.0062 15.7007 2.99216 15.6892 2.97776 15.6798C2.96042 15.6698 2.93714 15.6566 2.91037 15.6407C2.85222 15.6061 2.77209 15.5565 2.68284 15.4972C2.5253 15.3924 2.25719 15.2025 2.05393 14.9688C1.73087 14.5973 1.55454 14.2426 1.43674 13.837C1.31555 13.4196 1.28665 12.9806 1.35178 12.5509V12.5489L2.73166 3.54891C2.84044 2.83417 3.20421 2.18318 3.7551 1.71493C4.30344 1.24887 5.00058 0.99473 5.71994 1.00008H19.6701V1.00204ZM5.7092 3.00008C5.46807 2.99736 5.23378 3.0822 5.05002 3.23836C4.86626 3.39456 4.74536 3.61222 4.7092 3.85067L4.70823 3.85165L3.32834 12.8497C3.30663 12.993 3.31724 13.1402 3.35764 13.2794C3.40143 13.4301 3.4457 13.5217 3.56272 13.6563C3.56382 13.6576 3.56905 13.6634 3.57932 13.6729C3.59238 13.685 3.6107 13.7 3.63303 13.7179C3.67883 13.7544 3.73322 13.7939 3.78928 13.8311C3.84456 13.8679 3.8962 13.8992 3.93284 13.921C3.9508 13.9317 3.96527 13.9405 3.97385 13.9454C3.97672 13.947 3.97922 13.9485 3.98069 13.9493L3.98166 13.9503L4.01487 13.9708C4.05357 13.9803 4.1543 14.0001 4.34006 14.0001C4.45986 14 4.84186 13.9739 5.43381 13.9327C5.99505 13.8937 6.69264 13.8454 7.37131 13.8136C8.04249 13.7821 8.72859 13.7652 9.25803 13.7911C9.51313 13.8036 9.78985 13.8277 10.0246 13.8858C10.1346 13.9131 10.3139 13.9659 10.4875 14.0782C10.6603 14.1901 11.0001 14.4846 11.0002 15.0001C11.0002 15.1941 10.966 15.4864 10.9397 15.7306C10.9095 16.0099 10.8754 16.334 10.8528 16.6847C10.8064 17.403 10.8153 18.1517 10.969 18.753C11.0945 19.2443 11.1377 19.4645 11.2287 19.713C11.3052 19.9217 11.4219 20.1571 11.6955 20.544C11.8635 20.7816 11.9427 20.8914 12.0061 20.962C12.0089 20.9651 12.0116 20.9683 12.0139 20.9708C12.0418 20.9758 12.0953 20.9827 12.1858 20.9884C12.3356 20.9977 12.5279 20.9987 12.8069 20.9991C12.8176 20.9875 12.8318 20.9763 12.8449 20.961C12.9852 20.7981 13.1647 20.5223 13.3733 20.127C13.7856 19.3457 14.2207 18.2732 14.6223 17.1612C15.0209 16.0574 15.3751 14.9488 15.6301 14.1143C15.7573 13.698 15.8588 13.3506 15.9289 13.1085C15.9583 13.0072 15.9826 12.9243 16.0002 12.8624V3.00008H5.7092ZM4.18674 14.0997C4.1856 14.0986 4.184 14.0969 4.18284 14.0958L4.15354 14.0694C4.14081 14.0585 4.1282 14.0482 4.11643 14.0391C4.11204 14.0358 4.10699 14.0325 4.10276 14.0294C4.13174 14.0514 4.16028 14.0746 4.18674 14.0997ZM18.0002 12.0001H19.6701C19.6759 12.0001 19.682 12.001 19.6877 12.0011C20.0086 12.0067 20.3212 11.8937 20.5647 11.6847C20.7957 11.4862 20.9484 11.2132 21.0002 10.9141V4.08602C20.9483 3.78728 20.7954 3.51479 20.5647 3.31649C20.3212 3.10747 20.0086 2.99448 19.6877 3.00008H18.0002V12.0001Z" fill="black" fill-opacity="0.2"/>
<path fill-rule="evenodd" clip-rule="evenodd" d="M19.6701 1.00204C20.4748 0.992135 21.2565 1.2745 21.8674 1.79891C22.4824 2.32714 22.8827 3.06287 22.9914 3.86629C22.9974 3.91051 23.0002 3.95546 23.0002 4.00008V11.0001C23.0002 11.0448 22.9974 11.0905 22.9914 11.1348C22.8826 11.9383 22.4825 12.6741 21.8674 13.2022C21.2565 13.7266 20.4748 14.009 19.6701 13.9991L17.7512 14.0001C17.692 14.2007 17.6223 14.4371 17.5422 14.6993C17.2816 15.5522 16.9169 16.6941 16.5031 17.8399C16.0924 18.9775 15.6209 20.1546 15.1428 21.0606C14.9061 21.509 14.6441 21.9374 14.3606 22.2667C14.1247 22.5406 13.6614 22.9999 13.0002 23.0001C12.6382 23.0001 12.3197 23.0006 12.0608 22.9845C11.8007 22.9682 11.5114 22.9319 11.2278 22.8145C10.6378 22.5701 10.3121 22.052 10.0627 21.6993C9.71533 21.2081 9.50282 20.8163 9.3508 20.4014C9.21345 20.0265 9.12773 19.625 9.03147 19.2481C8.79847 18.3361 8.80739 17.334 8.85764 16.5557C8.87582 16.2742 8.90052 16.0108 8.92405 15.7813C8.52189 15.7734 8.01239 15.786 7.46506 15.8116C6.81149 15.8422 6.13425 15.8887 5.57248 15.9278C5.04199 15.9647 4.55071 16 4.34006 16.0001C3.92356 16.0001 3.60013 15.9449 3.34787 15.8585C3.22139 15.8151 3.11283 15.7648 3.0217 15.71C3.0062 15.7007 2.99216 15.6892 2.97776 15.6798C2.96042 15.6698 2.93714 15.6566 2.91037 15.6407C2.85222 15.6061 2.77209 15.5565 2.68284 15.4972C2.5253 15.3924 2.25719 15.2025 2.05393 14.9688C1.73087 14.5973 1.55454 14.2426 1.43674 13.837C1.31555 13.4196 1.28665 12.9806 1.35178 12.5509V12.5489L2.73166 3.54891C2.84044 2.83417 3.20421 2.18318 3.7551 1.71493C4.30344 1.24887 5.00058 0.99473 5.71994 1.00008H19.6701V1.00204ZM5.7092 3.00008C5.46807 2.99736 5.23378 3.0822 5.05002 3.23836C4.86626 3.39456 4.74536 3.61222 4.7092 3.85067L4.70823 3.85165L3.32834 12.8497C3.30663 12.993 3.31724 13.1402 3.35764 13.2794C3.40143 13.4301 3.4457 13.5217 3.56272 13.6563C3.56382 13.6576 3.56905 13.6634 3.57932 13.6729C3.59238 13.685 3.6107 13.7 3.63303 13.7179C3.67883 13.7544 3.73322 13.7939 3.78928 13.8311C3.84456 13.8679 3.8962 13.8992 3.93284 13.921C3.9508 13.9317 3.96527 13.9405 3.97385 13.9454C3.97672 13.947 3.97922 13.9485 3.98069 13.9493L3.98166 13.9503L4.01487 13.9708C4.05357 13.9803 4.1543 14.0001 4.34006 14.0001C4.45986 14 4.84186 13.9739 5.43381 13.9327C5.99505 13.8937 6.69264 13.8454 7.37131 13.8136C8.04249 13.7821 8.72859 13.7652 9.25803 13.7911C9.51313 13.8036 9.78985 13.8277 10.0246 13.8858C10.1346 13.9131 10.3139 13.9659 10.4875 14.0782C10.6603 14.1901 11.0001 14.4846 11.0002 15.0001C11.0002 15.1941 10.966 15.4864 10.9397 15.7306C10.9095 16.0099 10.8754 16.334 10.8528 16.6847C10.8064 17.403 10.8153 18.1517 10.969 18.753C11.0945 19.2443 11.1377 19.4645 11.2287 19.713C11.3052 19.9217 11.4219 20.1571 11.6955 20.544C11.8635 20.7816 11.9427 20.8914 12.0061 20.962C12.0089 20.9651 12.0116 20.9683 12.0139 20.9708C12.0418 20.9758 12.0953 20.9827 12.1858 20.9884C12.3356 20.9977 12.5279 20.9987 12.8069 20.9991C12.8176 20.9875 12.8318 20.9763 12.8449 20.961C12.9852 20.7981 13.1647 20.5223 13.3733 20.127C13.7856 19.3457 14.2207 18.2732 14.6223 17.1612C15.0209 16.0574 15.3751 14.9488 15.6301 14.1143C15.7573 13.698 15.8588 13.3506 15.9289 13.1085C15.9583 13.0072 15.9826 12.9243 16.0002 12.8624V3.00008H5.7092ZM4.18674 14.0997C4.1856 14.0986 4.184 14.0969 4.18284 14.0958L4.15354 14.0694C4.14081 14.0585 4.1282 14.0482 4.11643 14.0391C4.11204 14.0358 4.10699 14.0325 4.10276 14.0294C4.13174 14.0514 4.16028 14.0746 4.18674 14.0997ZM18.0002 12.0001H19.6701C19.6759 12.0001 19.682 12.001 19.6877 12.0011C20.0086 12.0067 20.3212 11.8937 20.5647 11.6847C20.7957 11.4862 20.9484 11.2132 21.0002 10.9141V4.08602C20.9483 3.78728 20.7954 3.51479 20.5647 3.31649C20.3212 3.10747 20.0086 2.99448 19.6877 3.00008H18.0002V12.0001Z" fill="black" fill-opacity="0.2"/>
<path fill-rule="evenodd" clip-rule="evenodd" d="M19.6701 1.00204C20.4748 0.992135 21.2565 1.2745 21.8674 1.79891C22.4824 2.32714 22.8827 3.06287 22.9914 3.86629C22.9974 3.91051 23.0002 3.95546 23.0002 4.00008V11.0001C23.0002 11.0448 22.9974 11.0905 22.9914 11.1348C22.8826 11.9383 22.4825 12.6741 21.8674 13.2022C21.2565 13.7266 20.4748 14.009 19.6701 13.9991L17.7512 14.0001C17.692 14.2007 17.6223 14.4371 17.5422 14.6993C17.2816 15.5522 16.9169 16.6941 16.5031 17.8399C16.0924 18.9775 15.6209 20.1546 15.1428 21.0606C14.9061 21.509 14.6441 21.9374 14.3606 22.2667C14.1247 22.5406 13.6614 22.9999 13.0002 23.0001C12.6382 23.0001 12.3197 23.0006 12.0608 22.9845C11.8007 22.9682 11.5114 22.9319 11.2278 22.8145C10.6378 22.5701 10.3121 22.052 10.0627 21.6993C9.71533 21.2081 9.50282 20.8163 9.3508 20.4014C9.21345 20.0265 9.12773 19.625 9.03147 19.2481C8.79847 18.3361 8.80739 17.334 8.85764 16.5557C8.87582 16.2742 8.90052 16.0108 8.92405 15.7813C8.52189 15.7734 8.01239 15.786 7.46506 15.8116C6.81149 15.8422 6.13425 15.8887 5.57248 15.9278C5.04199 15.9647 4.55071 16 4.34006 16.0001C3.92356 16.0001 3.60013 15.9449 3.34787 15.8585C3.22139 15.8151 3.11283 15.7648 3.0217 15.71C3.0062 15.7007 2.99216 15.6892 2.97776 15.6798C2.96042 15.6698 2.93714 15.6566 2.91037 15.6407C2.85222 15.6061 2.77209 15.5565 2.68284 15.4972C2.5253 15.3924 2.25719 15.2025 2.05393 14.9688C1.73087 14.5973 1.55454 14.2426 1.43674 13.837C1.31555 13.4196 1.28665 12.9806 1.35178 12.5509V12.5489L2.73166 3.54891C2.84044 2.83417 3.20421 2.18318 3.7551 1.71493C4.30344 1.24887 5.00058 0.99473 5.71994 1.00008H19.6701V1.00204ZM5.7092 3.00008C5.46807 2.99736 5.23378 3.0822 5.05002 3.23836C4.86626 3.39456 4.74536 3.61222 4.7092 3.85067L4.70823 3.85165L3.32834 12.8497C3.30663 12.993 3.31724 13.1402 3.35764 13.2794C3.40143 13.4301 3.4457 13.5217 3.56272 13.6563C3.56382 13.6576 3.56905 13.6634 3.57932 13.6729C3.59238 13.685 3.6107 13.7 3.63303 13.7179C3.67883 13.7544 3.73322 13.7939 3.78928 13.8311C3.84456 13.8679 3.8962 13.8992 3.93284 13.921C3.9508 13.9317 3.96527 13.9405 3.97385 13.9454C3.97672 13.947 3.97922 13.9485 3.98069 13.9493L3.98166 13.9503L4.01487 13.9708C4.05357 13.9803 4.1543 14.0001 4.34006 14.0001C4.45986 14 4.84186 13.9739 5.43381 13.9327C5.99505 13.8937 6.69264 13.8454 7.37131 13.8136C8.04249 13.7821 8.72859 13.7652 9.25803 13.7911C9.51313 13.8036 9.78985 13.8277 10.0246 13.8858C10.1346 13.9131 10.3139 13.9659 10.4875 14.0782C10.6603 14.1901 11.0001 14.4846 11.0002 15.0001C11.0002 15.1941 10.966 15.4864 10.9397 15.7306C10.9095 16.0099 10.8754 16.334 10.8528 16.6847C10.8064 17.403 10.8153 18.1517 10.969 18.753C11.0945 19.2443 11.1377 19.4645 11.2287 19.713C11.3052 19.9217 11.4219 20.1571 11.6955 20.544C11.8635 20.7816 11.9427 20.8914 12.0061 20.962C12.0089 20.9651 12.0116 20.9683 12.0139 20.9708C12.0418 20.9758 12.0953 20.9827 12.1858 20.9884C12.3356 20.9977 12.5279 20.9987 12.8069 20.9991C12.8176 20.9875 12.8318 20.9763 12.8449 20.961C12.9852 20.7981 13.1647 20.5223 13.3733 20.127C13.7856 19.3457 14.2207 18.2732 14.6223 17.1612C15.0209 16.0574 15.3751 14.9488 15.6301 14.1143C15.7573 13.698 15.8588 13.3506 15.9289 13.1085C15.9583 13.0072 15.9826 12.9243 16.0002 12.8624V3.00008H5.7092ZM4.18674 14.0997C4.1856 14.0986 4.184 14.0969 4.18284 14.0958L4.15354 14.0694C4.14081 14.0585 4.1282 14.0482 4.11643 14.0391C4.11204 14.0358 4.10699 14.0325 4.10276 14.0294C4.13174 14.0514 4.16028 14.0746 4.18674 14.0997ZM18.0002 12.0001H19.6701C19.6759 12.0001 19.682 12.001 19.6877 12.0011C20.0086 12.0067 20.3212 11.8937 20.5647 11.6847C20.7957 11.4862 20.9484 11.2132 21.0002 10.9141V4.08602C20.9483 3.78728 20.7954 3.51479 20.5647 3.31649C20.3212 3.10747 20.0086 2.99448 19.6877 3.00008H18.0002V12.0001Z" fill="black" fill-opacity="0.2"/>
</svg>
