<svg width="24" height="24" viewBox="0 0 24 24" fill="none" xmlns="http://www.w3.org/2000/svg">
<path fill-rule="evenodd" clip-rule="evenodd" d="M19.3523 22.998C20.1569 23.0079 20.9386 22.7255 21.5495 22.2011C22.1646 21.6729 22.5649 20.9371 22.6736 20.1337C22.6795 20.0895 22.6823 20.0445 22.6823 19.9999V12.9999C22.6823 12.9552 22.6796 12.9095 22.6736 12.8652C22.5648 12.0617 22.1646 11.3259 21.5495 10.7978C20.9386 10.2734 20.1569 9.991 19.3523 10.0009L17.4333 9.99992C17.3741 9.79931 17.3045 9.56291 17.2243 9.3007C16.9637 8.44781 16.599 7.30589 16.1853 6.16007C15.7745 5.0225 15.3031 3.84538 14.8249 2.93937C14.5883 2.49097 14.3263 2.06262 14.0427 1.73332C13.8068 1.45939 13.3435 1.0001 12.6823 0.999918C12.3203 0.999889 12.0019 0.999439 11.7429 1.01554C11.4828 1.03176 11.1935 1.06809 10.9099 1.18546C10.3199 1.4299 9.99421 1.94802 9.74485 2.3007C9.39746 2.79194 9.18494 3.18369 9.03293 3.59855C8.89558 3.97348 8.80986 4.37503 8.7136 4.75187C8.4806 5.66388 8.48952 6.66603 8.53977 7.44425C8.55795 7.72576 8.58265 7.98922 8.60617 8.21867C8.20402 8.22665 7.69451 8.21404 7.14719 8.18839C6.49362 8.15775 5.81638 8.11126 5.25461 8.07218C4.72412 8.03528 4.23284 7.99998 4.02219 7.99992C3.60569 7.99988 3.28226 8.05514 3.03 8.14152C2.90352 8.18486 2.79495 8.2352 2.70383 8.28996C2.68833 8.29928 2.67429 8.31076 2.65989 8.32023C2.64255 8.33015 2.61927 8.34338 2.5925 8.35929C2.53435 8.39386 2.45422 8.44353 2.36496 8.50285C2.20743 8.60756 1.93932 8.79751 1.73606 9.03117C1.413 9.40271 1.23667 9.7574 1.11887 10.163C0.997679 10.5804 0.968774 11.0194 1.03391 11.4491V11.4511L2.41379 20.4511C2.52257 21.1658 2.88634 21.8168 3.43723 22.2851C3.98556 22.7511 4.68271 23.0053 5.40207 22.9999H19.3523V22.998ZM5.39133 20.9999C5.1502 21.0026 4.91591 20.9178 4.73215 20.7616C4.54839 20.6054 4.42749 20.3878 4.39133 20.1493L4.39035 20.1484L3.01047 11.1503C2.98876 11.007 2.99937 10.8598 3.03977 10.7206C3.08355 10.5699 3.12783 10.4783 3.24485 10.3437C3.24595 10.3424 3.25118 10.3366 3.26145 10.3271C3.27451 10.315 3.29283 10.3 3.31516 10.2821C3.36096 10.2456 3.41535 10.2061 3.47141 10.1689C3.52669 10.1321 3.57833 10.1008 3.61496 10.079C3.63293 10.0683 3.6474 10.0595 3.65598 10.0546C3.65885 10.053 3.66135 10.0515 3.66282 10.0507L3.66379 10.0497L3.697 10.0292C3.7357 10.0197 3.83643 9.99988 4.02219 9.99992C4.14199 9.99998 4.52399 10.0261 5.11594 10.0673C5.67718 10.1063 6.37477 10.1546 7.05344 10.1864C7.72461 10.2179 8.41072 10.2348 8.94016 10.2089C9.19526 10.1964 9.47197 10.1723 9.70676 10.1142C9.8167 10.0869 9.99604 10.0341 10.1697 9.92179C10.3425 9.80986 10.6822 9.51537 10.6823 8.99992C10.6823 8.80587 10.6481 8.5136 10.6218 8.26945C10.5917 7.99006 10.5575 7.66604 10.5349 7.31535C10.4885 6.59702 10.4975 5.84832 10.6511 5.24699C10.7766 4.75572 10.8199 4.53552 10.9109 4.28703C10.9874 4.07828 11.1041 3.84288 11.3777 3.45597C11.5456 3.21844 11.6249 3.10864 11.6882 3.038C11.691 3.03489 11.6937 3.03171 11.696 3.02921C11.7239 3.02417 11.7775 3.01727 11.8679 3.01164C12.0177 3.00234 12.21 3.00128 12.489 3.00089C12.4997 3.01245 12.514 3.02375 12.5271 3.03898C12.6673 3.20186 12.8468 3.47774 13.0554 3.87296C13.4677 4.65426 13.9028 5.7268 14.3044 6.83879C14.703 7.9426 15.0572 9.05116 15.3122 9.88566C15.4395 10.302 15.5409 10.6494 15.6111 10.8915C15.6404 10.9928 15.6647 11.0757 15.6823 11.1376V20.9999H5.39133ZM3.86887 9.90031C3.86773 9.90139 3.86613 9.90309 3.86496 9.90421L3.83567 9.93058C3.82294 9.94154 3.81033 9.95182 3.79856 9.96085C3.79417 9.96422 3.78912 9.96753 3.78489 9.97062C3.81387 9.94861 3.84241 9.9254 3.86887 9.90031ZM17.6823 11.9999H19.3523C19.358 11.9999 19.3641 11.999 19.3698 11.9989C19.6907 11.9933 20.0033 12.1063 20.2468 12.3153C20.4778 12.5138 20.6305 12.7868 20.6823 13.0859V19.914C20.6304 20.2127 20.4775 20.4852 20.2468 20.6835C20.0033 20.8925 19.6907 21.0055 19.3698 20.9999H17.6823V11.9999Z" fill="#1D1A24"/>
<path fill-rule="evenodd" clip-rule="evenodd" d="M19.3523 22.998C20.1569 23.0079 20.9386 22.7255 21.5495 22.2011C22.1646 21.6729 22.5649 20.9371 22.6736 20.1337C22.6795 20.0895 22.6823 20.0445 22.6823 19.9999V12.9999C22.6823 12.9552 22.6796 12.9095 22.6736 12.8652C22.5648 12.0617 22.1646 11.3259 21.5495 10.7978C20.9386 10.2734 20.1569 9.991 19.3523 10.0009L17.4333 9.99992C17.3741 9.79931 17.3045 9.56291 17.2243 9.3007C16.9637 8.44781 16.599 7.30589 16.1853 6.16007C15.7745 5.0225 15.3031 3.84538 14.8249 2.93937C14.5883 2.49097 14.3263 2.06262 14.0427 1.73332C13.8068 1.45939 13.3435 1.0001 12.6823 0.999918C12.3203 0.999889 12.0019 0.999439 11.7429 1.01554C11.4828 1.03176 11.1935 1.06809 10.9099 1.18546C10.3199 1.4299 9.99421 1.94802 9.74485 2.3007C9.39746 2.79194 9.18494 3.18369 9.03293 3.59855C8.89558 3.97348 8.80986 4.37503 8.7136 4.75187C8.4806 5.66388 8.48952 6.66603 8.53977 7.44425C8.55795 7.72576 8.58265 7.98922 8.60617 8.21867C8.20402 8.22665 7.69451 8.21404 7.14719 8.18839C6.49362 8.15775 5.81638 8.11126 5.25461 8.07218C4.72412 8.03528 4.23284 7.99998 4.02219 7.99992C3.60569 7.99988 3.28226 8.05514 3.03 8.14152C2.90352 8.18486 2.79495 8.2352 2.70383 8.28996C2.68833 8.29928 2.67429 8.31076 2.65989 8.32023C2.64255 8.33015 2.61927 8.34338 2.5925 8.35929C2.53435 8.39386 2.45422 8.44353 2.36496 8.50285C2.20743 8.60756 1.93932 8.79751 1.73606 9.03117C1.413 9.40271 1.23667 9.7574 1.11887 10.163C0.997679 10.5804 0.968774 11.0194 1.03391 11.4491V11.4511L2.41379 20.4511C2.52257 21.1658 2.88634 21.8168 3.43723 22.2851C3.98556 22.7511 4.68271 23.0053 5.40207 22.9999H19.3523V22.998ZM5.39133 20.9999C5.1502 21.0026 4.91591 20.9178 4.73215 20.7616C4.54839 20.6054 4.42749 20.3878 4.39133 20.1493L4.39035 20.1484L3.01047 11.1503C2.98876 11.007 2.99937 10.8598 3.03977 10.7206C3.08355 10.5699 3.12783 10.4783 3.24485 10.3437C3.24595 10.3424 3.25118 10.3366 3.26145 10.3271C3.27451 10.315 3.29283 10.3 3.31516 10.2821C3.36096 10.2456 3.41535 10.2061 3.47141 10.1689C3.52669 10.1321 3.57833 10.1008 3.61496 10.079C3.63293 10.0683 3.6474 10.0595 3.65598 10.0546C3.65885 10.053 3.66135 10.0515 3.66282 10.0507L3.66379 10.0497L3.697 10.0292C3.7357 10.0197 3.83643 9.99988 4.02219 9.99992C4.14199 9.99998 4.52399 10.0261 5.11594 10.0673C5.67718 10.1063 6.37477 10.1546 7.05344 10.1864C7.72461 10.2179 8.41072 10.2348 8.94016 10.2089C9.19526 10.1964 9.47197 10.1723 9.70676 10.1142C9.8167 10.0869 9.99604 10.0341 10.1697 9.92179C10.3425 9.80986 10.6822 9.51537 10.6823 8.99992C10.6823 8.80587 10.6481 8.5136 10.6218 8.26945C10.5917 7.99006 10.5575 7.66604 10.5349 7.31535C10.4885 6.59702 10.4975 5.84832 10.6511 5.24699C10.7766 4.75572 10.8199 4.53552 10.9109 4.28703C10.9874 4.07828 11.1041 3.84288 11.3777 3.45597C11.5456 3.21844 11.6249 3.10864 11.6882 3.038C11.691 3.03489 11.6937 3.03171 11.696 3.02921C11.7239 3.02417 11.7775 3.01727 11.8679 3.01164C12.0177 3.00234 12.21 3.00128 12.489 3.00089C12.4997 3.01245 12.514 3.02375 12.5271 3.03898C12.6673 3.20186 12.8468 3.47774 13.0554 3.87296C13.4677 4.65426 13.9028 5.7268 14.3044 6.83879C14.703 7.9426 15.0572 9.05116 15.3122 9.88566C15.4395 10.302 15.5409 10.6494 15.6111 10.8915C15.6404 10.9928 15.6647 11.0757 15.6823 11.1376V20.9999H5.39133ZM3.86887 9.90031C3.86773 9.90139 3.86613 9.90309 3.86496 9.90421L3.83567 9.93058C3.82294 9.94154 3.81033 9.95182 3.79856 9.96085C3.79417 9.96422 3.78912 9.96753 3.78489 9.97062C3.81387 9.94861 3.84241 9.9254 3.86887 9.90031ZM17.6823 11.9999H19.3523C19.358 11.9999 19.3641 11.999 19.3698 11.9989C19.6907 11.9933 20.0033 12.1063 20.2468 12.3153C20.4778 12.5138 20.6305 12.7868 20.6823 13.0859V19.914C20.6304 20.2127 20.4775 20.4852 20.2468 20.6835C20.0033 20.8925 19.6907 21.0055 19.3698 20.9999H17.6823V11.9999Z" fill="black" fill-opacity="0.2"/>
<path fill-rule="evenodd" clip-rule="evenodd" d="M19.3523 22.998C20.1569 23.0079 20.9386 22.7255 21.5495 22.2011C22.1646 21.6729 22.5649 20.9371 22.6736 20.1337C22.6795 20.0895 22.6823 20.0445 22.6823 19.9999V12.9999C22.6823 12.9552 22.6796 12.9095 22.6736 12.8652C22.5648 12.0617 22.1646 11.3259 21.5495 10.7978C20.9386 10.2734 20.1569 9.991 19.3523 10.0009L17.4333 9.99992C17.3741 9.79931 17.3045 9.56291 17.2243 9.3007C16.9637 8.44781 16.599 7.30589 16.1853 6.16007C15.7745 5.0225 15.3031 3.84538 14.8249 2.93937C14.5883 2.49097 14.3263 2.06262 14.0427 1.73332C13.8068 1.45939 13.3435 1.0001 12.6823 0.999918C12.3203 0.999889 12.0019 0.999439 11.7429 1.01554C11.4828 1.03176 11.1935 1.06809 10.9099 1.18546C10.3199 1.4299 9.99421 1.94802 9.74485 2.3007C9.39746 2.79194 9.18494 3.18369 9.03293 3.59855C8.89558 3.97348 8.80986 4.37503 8.7136 4.75187C8.4806 5.66388 8.48952 6.66603 8.53977 7.44425C8.55795 7.72576 8.58265 7.98922 8.60617 8.21867C8.20402 8.22665 7.69451 8.21404 7.14719 8.18839C6.49362 8.15775 5.81638 8.11126 5.25461 8.07218C4.72412 8.03528 4.23284 7.99998 4.02219 7.99992C3.60569 7.99988 3.28226 8.05514 3.03 8.14152C2.90352 8.18486 2.79495 8.2352 2.70383 8.28996C2.68833 8.29928 2.67429 8.31076 2.65989 8.32023C2.64255 8.33015 2.61927 8.34338 2.5925 8.35929C2.53435 8.39386 2.45422 8.44353 2.36496 8.50285C2.20743 8.60756 1.93932 8.79751 1.73606 9.03117C1.413 9.40271 1.23667 9.7574 1.11887 10.163C0.997679 10.5804 0.968774 11.0194 1.03391 11.4491V11.4511L2.41379 20.4511C2.52257 21.1658 2.88634 21.8168 3.43723 22.2851C3.98556 22.7511 4.68271 23.0053 5.40207 22.9999H19.3523V22.998ZM5.39133 20.9999C5.1502 21.0026 4.91591 20.9178 4.73215 20.7616C4.54839 20.6054 4.42749 20.3878 4.39133 20.1493L4.39035 20.1484L3.01047 11.1503C2.98876 11.007 2.99937 10.8598 3.03977 10.7206C3.08355 10.5699 3.12783 10.4783 3.24485 10.3437C3.24595 10.3424 3.25118 10.3366 3.26145 10.3271C3.27451 10.315 3.29283 10.3 3.31516 10.2821C3.36096 10.2456 3.41535 10.2061 3.47141 10.1689C3.52669 10.1321 3.57833 10.1008 3.61496 10.079C3.63293 10.0683 3.6474 10.0595 3.65598 10.0546C3.65885 10.053 3.66135 10.0515 3.66282 10.0507L3.66379 10.0497L3.697 10.0292C3.7357 10.0197 3.83643 9.99988 4.02219 9.99992C4.14199 9.99998 4.52399 10.0261 5.11594 10.0673C5.67718 10.1063 6.37477 10.1546 7.05344 10.1864C7.72461 10.2179 8.41072 10.2348 8.94016 10.2089C9.19526 10.1964 9.47197 10.1723 9.70676 10.1142C9.8167 10.0869 9.99604 10.0341 10.1697 9.92179C10.3425 9.80986 10.6822 9.51537 10.6823 8.99992C10.6823 8.80587 10.6481 8.5136 10.6218 8.26945C10.5917 7.99006 10.5575 7.66604 10.5349 7.31535C10.4885 6.59702 10.4975 5.84832 10.6511 5.24699C10.7766 4.75572 10.8199 4.53552 10.9109 4.28703C10.9874 4.07828 11.1041 3.84288 11.3777 3.45597C11.5456 3.21844 11.6249 3.10864 11.6882 3.038C11.691 3.03489 11.6937 3.03171 11.696 3.02921C11.7239 3.02417 11.7775 3.01727 11.8679 3.01164C12.0177 3.00234 12.21 3.00128 12.489 3.00089C12.4997 3.01245 12.514 3.02375 12.5271 3.03898C12.6673 3.20186 12.8468 3.47774 13.0554 3.87296C13.4677 4.65426 13.9028 5.7268 14.3044 6.83879C14.703 7.9426 15.0572 9.05116 15.3122 9.88566C15.4395 10.302 15.5409 10.6494 15.6111 10.8915C15.6404 10.9928 15.6647 11.0757 15.6823 11.1376V20.9999H5.39133ZM3.86887 9.90031C3.86773 9.90139 3.86613 9.90309 3.86496 9.90421L3.83567 9.93058C3.82294 9.94154 3.81033 9.95182 3.79856 9.96085C3.79417 9.96422 3.78912 9.96753 3.78489 9.97062C3.81387 9.94861 3.84241 9.9254 3.86887 9.90031ZM17.6823 11.9999H19.3523C19.358 11.9999 19.3641 11.999 19.3698 11.9989C19.6907 11.9933 20.0033 12.1063 20.2468 12.3153C20.4778 12.5138 20.6305 12.7868 20.6823 13.0859V19.914C20.6304 20.2127 20.4775 20.4852 20.2468 20.6835C20.0033 20.8925 19.6907 21.0055 19.3698 20.9999H17.6823V11.9999Z" fill="black" fill-opacity="0.2"/>
<path fill-rule="evenodd" clip-rule="evenodd" d="M19.3523 22.998C20.1569 23.0079 20.9386 22.7255 21.5495 22.2011C22.1646 21.6729 22.5649 20.9371 22.6736 20.1337C22.6795 20.0895 22.6823 20.0445 22.6823 19.9999V12.9999C22.6823 12.9552 22.6796 12.9095 22.6736 12.8652C22.5648 12.0617 22.1646 11.3259 21.5495 10.7978C20.9386 10.2734 20.1569 9.991 19.3523 10.0009L17.4333 9.99992C17.3741 9.79931 17.3045 9.56291 17.2243 9.3007C16.9637 8.44781 16.599 7.30589 16.1853 6.16007C15.7745 5.0225 15.3031 3.84538 14.8249 2.93937C14.5883 2.49097 14.3263 2.06262 14.0427 1.73332C13.8068 1.45939 13.3435 1.0001 12.6823 0.999918C12.3203 0.999889 12.0019 0.999439 11.7429 1.01554C11.4828 1.03176 11.1935 1.06809 10.9099 1.18546C10.3199 1.4299 9.99421 1.94802 9.74485 2.3007C9.39746 2.79194 9.18494 3.18369 9.03293 3.59855C8.89558 3.97348 8.80986 4.37503 8.7136 4.75187C8.4806 5.66388 8.48952 6.66603 8.53977 7.44425C8.55795 7.72576 8.58265 7.98922 8.60617 8.21867C8.20402 8.22665 7.69451 8.21404 7.14719 8.18839C6.49362 8.15775 5.81638 8.11126 5.25461 8.07218C4.72412 8.03528 4.23284 7.99998 4.02219 7.99992C3.60569 7.99988 3.28226 8.05514 3.03 8.14152C2.90352 8.18486 2.79495 8.2352 2.70383 8.28996C2.68833 8.29928 2.67429 8.31076 2.65989 8.32023C2.64255 8.33015 2.61927 8.34338 2.5925 8.35929C2.53435 8.39386 2.45422 8.44353 2.36496 8.50285C2.20743 8.60756 1.93932 8.79751 1.73606 9.03117C1.413 9.40271 1.23667 9.7574 1.11887 10.163C0.997679 10.5804 0.968774 11.0194 1.03391 11.4491V11.4511L2.41379 20.4511C2.52257 21.1658 2.88634 21.8168 3.43723 22.2851C3.98556 22.7511 4.68271 23.0053 5.40207 22.9999H19.3523V22.998ZM5.39133 20.9999C5.1502 21.0026 4.91591 20.9178 4.73215 20.7616C4.54839 20.6054 4.42749 20.3878 4.39133 20.1493L4.39035 20.1484L3.01047 11.1503C2.98876 11.007 2.99937 10.8598 3.03977 10.7206C3.08355 10.5699 3.12783 10.4783 3.24485 10.3437C3.24595 10.3424 3.25118 10.3366 3.26145 10.3271C3.27451 10.315 3.29283 10.3 3.31516 10.2821C3.36096 10.2456 3.41535 10.2061 3.47141 10.1689C3.52669 10.1321 3.57833 10.1008 3.61496 10.079C3.63293 10.0683 3.6474 10.0595 3.65598 10.0546C3.65885 10.053 3.66135 10.0515 3.66282 10.0507L3.66379 10.0497L3.697 10.0292C3.7357 10.0197 3.83643 9.99988 4.02219 9.99992C4.14199 9.99998 4.52399 10.0261 5.11594 10.0673C5.67718 10.1063 6.37477 10.1546 7.05344 10.1864C7.72461 10.2179 8.41072 10.2348 8.94016 10.2089C9.19526 10.1964 9.47197 10.1723 9.70676 10.1142C9.8167 10.0869 9.99604 10.0341 10.1697 9.92179C10.3425 9.80986 10.6822 9.51537 10.6823 8.99992C10.6823 8.80587 10.6481 8.5136 10.6218 8.26945C10.5917 7.99006 10.5575 7.66604 10.5349 7.31535C10.4885 6.59702 10.4975 5.84832 10.6511 5.24699C10.7766 4.75572 10.8199 4.53552 10.9109 4.28703C10.9874 4.07828 11.1041 3.84288 11.3777 3.45597C11.5456 3.21844 11.6249 3.10864 11.6882 3.038C11.691 3.03489 11.6937 3.03171 11.696 3.02921C11.7239 3.02417 11.7775 3.01727 11.8679 3.01164C12.0177 3.00234 12.21 3.00128 12.489 3.00089C12.4997 3.01245 12.514 3.02375 12.5271 3.03898C12.6673 3.20186 12.8468 3.47774 13.0554 3.87296C13.4677 4.65426 13.9028 5.7268 14.3044 6.83879C14.703 7.9426 15.0572 9.05116 15.3122 9.88566C15.4395 10.302 15.5409 10.6494 15.6111 10.8915C15.6404 10.9928 15.6647 11.0757 15.6823 11.1376V20.9999H5.39133ZM3.86887 9.90031C3.86773 9.90139 3.86613 9.90309 3.86496 9.90421L3.83567 9.93058C3.82294 9.94154 3.81033 9.95182 3.79856 9.96085C3.79417 9.96422 3.78912 9.96753 3.78489 9.97062C3.81387 9.94861 3.84241 9.9254 3.86887 9.90031ZM17.6823 11.9999H19.3523C19.358 11.9999 19.3641 11.999 19.3698 11.9989C19.6907 11.9933 20.0033 12.1063 20.2468 12.3153C20.4778 12.5138 20.6305 12.7868 20.6823 13.0859V19.914C20.6304 20.2127 20.4775 20.4852 20.2468 20.6835C20.0033 20.8925 19.6907 21.0055 19.3698 20.9999H17.6823V11.9999Z" fill="black" fill-opacity="0.2"/>
<path fill-rule="evenodd" clip-rule="evenodd" d="M19.3523 22.998C20.1569 23.0079 20.9386 22.7255 21.5495 22.2011C22.1646 21.6729 22.5649 20.9371 22.6736 20.1337C22.6795 20.0895 22.6823 20.0445 22.6823 19.9999V12.9999C22.6823 12.9552 22.6796 12.9095 22.6736 12.8652C22.5648 12.0617 22.1646 11.3259 21.5495 10.7978C20.9386 10.2734 20.1569 9.991 19.3523 10.0009L17.4333 9.99992C17.3741 9.79931 17.3045 9.56291 17.2243 9.3007C16.9637 8.44781 16.599 7.30589 16.1853 6.16007C15.7745 5.0225 15.3031 3.84538 14.8249 2.93937C14.5883 2.49097 14.3263 2.06262 14.0427 1.73332C13.8068 1.45939 13.3435 1.0001 12.6823 0.999918C12.3203 0.999889 12.0019 0.999439 11.7429 1.01554C11.4828 1.03176 11.1935 1.06809 10.9099 1.18546C10.3199 1.4299 9.99421 1.94802 9.74485 2.3007C9.39746 2.79194 9.18494 3.18369 9.03293 3.59855C8.89558 3.97348 8.80986 4.37503 8.7136 4.75187C8.4806 5.66388 8.48952 6.66603 8.53977 7.44425C8.55795 7.72576 8.58265 7.98922 8.60617 8.21867C8.20402 8.22665 7.69451 8.21404 7.14719 8.18839C6.49362 8.15775 5.81638 8.11126 5.25461 8.07218C4.72412 8.03528 4.23284 7.99998 4.02219 7.99992C3.60569 7.99988 3.28226 8.05514 3.03 8.14152C2.90352 8.18486 2.79495 8.2352 2.70383 8.28996C2.68833 8.29928 2.67429 8.31076 2.65989 8.32023C2.64255 8.33015 2.61927 8.34338 2.5925 8.35929C2.53435 8.39386 2.45422 8.44353 2.36496 8.50285C2.20743 8.60756 1.93932 8.79751 1.73606 9.03117C1.413 9.40271 1.23667 9.7574 1.11887 10.163C0.997679 10.5804 0.968774 11.0194 1.03391 11.4491V11.4511L2.41379 20.4511C2.52257 21.1658 2.88634 21.8168 3.43723 22.2851C3.98556 22.7511 4.68271 23.0053 5.40207 22.9999H19.3523V22.998ZM5.39133 20.9999C5.1502 21.0026 4.91591 20.9178 4.73215 20.7616C4.54839 20.6054 4.42749 20.3878 4.39133 20.1493L4.39035 20.1484L3.01047 11.1503C2.98876 11.007 2.99937 10.8598 3.03977 10.7206C3.08355 10.5699 3.12783 10.4783 3.24485 10.3437C3.24595 10.3424 3.25118 10.3366 3.26145 10.3271C3.27451 10.315 3.29283 10.3 3.31516 10.2821C3.36096 10.2456 3.41535 10.2061 3.47141 10.1689C3.52669 10.1321 3.57833 10.1008 3.61496 10.079C3.63293 10.0683 3.6474 10.0595 3.65598 10.0546C3.65885 10.053 3.66135 10.0515 3.66282 10.0507L3.66379 10.0497L3.697 10.0292C3.7357 10.0197 3.83643 9.99988 4.02219 9.99992C4.14199 9.99998 4.52399 10.0261 5.11594 10.0673C5.67718 10.1063 6.37477 10.1546 7.05344 10.1864C7.72461 10.2179 8.41072 10.2348 8.94016 10.2089C9.19526 10.1964 9.47197 10.1723 9.70676 10.1142C9.8167 10.0869 9.99604 10.0341 10.1697 9.92179C10.3425 9.80986 10.6822 9.51537 10.6823 8.99992C10.6823 8.80587 10.6481 8.5136 10.6218 8.26945C10.5917 7.99006 10.5575 7.66604 10.5349 7.31535C10.4885 6.59702 10.4975 5.84832 10.6511 5.24699C10.7766 4.75572 10.8199 4.53552 10.9109 4.28703C10.9874 4.07828 11.1041 3.84288 11.3777 3.45597C11.5456 3.21844 11.6249 3.10864 11.6882 3.038C11.691 3.03489 11.6937 3.03171 11.696 3.02921C11.7239 3.02417 11.7775 3.01727 11.8679 3.01164C12.0177 3.00234 12.21 3.00128 12.489 3.00089C12.4997 3.01245 12.514 3.02375 12.5271 3.03898C12.6673 3.20186 12.8468 3.47774 13.0554 3.87296C13.4677 4.65426 13.9028 5.7268 14.3044 6.83879C14.703 7.9426 15.0572 9.05116 15.3122 9.88566C15.4395 10.302 15.5409 10.6494 15.6111 10.8915C15.6404 10.9928 15.6647 11.0757 15.6823 11.1376V20.9999H5.39133ZM3.86887 9.90031C3.86773 9.90139 3.86613 9.90309 3.86496 9.90421L3.83567 9.93058C3.82294 9.94154 3.81033 9.95182 3.79856 9.96085C3.79417 9.96422 3.78912 9.96753 3.78489 9.97062C3.81387 9.94861 3.84241 9.9254 3.86887 9.90031ZM17.6823 11.9999H19.3523C19.358 11.9999 19.3641 11.999 19.3698 11.9989C19.6907 11.9933 20.0033 12.1063 20.2468 12.3153C20.4778 12.5138 20.6305 12.7868 20.6823 13.0859V19.914C20.6304 20.2127 20.4775 20.4852 20.2468 20.6835C20.0033 20.8925 19.6907 21.0055 19.3698 20.9999H17.6823V11.9999Z" fill="black" fill-opacity="0.2"/>
<path fill-rule="evenodd" clip-rule="evenodd" d="M19.3523 22.998C20.1569 23.0079 20.9386 22.7255 21.5495 22.2011C22.1646 21.6729 22.5649 20.9371 22.6736 20.1337C22.6795 20.0895 22.6823 20.0445 22.6823 19.9999V12.9999C22.6823 12.9552 22.6796 12.9095 22.6736 12.8652C22.5648 12.0617 22.1646 11.3259 21.5495 10.7978C20.9386 10.2734 20.1569 9.991 19.3523 10.0009L17.4333 9.99992C17.3741 9.79931 17.3045 9.56291 17.2243 9.3007C16.9637 8.44781 16.599 7.30589 16.1853 6.16007C15.7745 5.0225 15.3031 3.84538 14.8249 2.93937C14.5883 2.49097 14.3263 2.06262 14.0427 1.73332C13.8068 1.45939 13.3435 1.0001 12.6823 0.999918C12.3203 0.999889 12.0019 0.999439 11.7429 1.01554C11.4828 1.03176 11.1935 1.06809 10.9099 1.18546C10.3199 1.4299 9.99421 1.94802 9.74485 2.3007C9.39746 2.79194 9.18494 3.18369 9.03293 3.59855C8.89558 3.97348 8.80986 4.37503 8.7136 4.75187C8.4806 5.66388 8.48952 6.66603 8.53977 7.44425C8.55795 7.72576 8.58265 7.98922 8.60617 8.21867C8.20402 8.22665 7.69451 8.21404 7.14719 8.18839C6.49362 8.15775 5.81638 8.11126 5.25461 8.07218C4.72412 8.03528 4.23284 7.99998 4.02219 7.99992C3.60569 7.99988 3.28226 8.05514 3.03 8.14152C2.90352 8.18486 2.79495 8.2352 2.70383 8.28996C2.68833 8.29928 2.67429 8.31076 2.65989 8.32023C2.64255 8.33015 2.61927 8.34338 2.5925 8.35929C2.53435 8.39386 2.45422 8.44353 2.36496 8.50285C2.20743 8.60756 1.93932 8.79751 1.73606 9.03117C1.413 9.40271 1.23667 9.7574 1.11887 10.163C0.997679 10.5804 0.968774 11.0194 1.03391 11.4491V11.4511L2.41379 20.4511C2.52257 21.1658 2.88634 21.8168 3.43723 22.2851C3.98556 22.7511 4.68271 23.0053 5.40207 22.9999H19.3523V22.998ZM5.39133 20.9999C5.1502 21.0026 4.91591 20.9178 4.73215 20.7616C4.54839 20.6054 4.42749 20.3878 4.39133 20.1493L4.39035 20.1484L3.01047 11.1503C2.98876 11.007 2.99937 10.8598 3.03977 10.7206C3.08355 10.5699 3.12783 10.4783 3.24485 10.3437C3.24595 10.3424 3.25118 10.3366 3.26145 10.3271C3.27451 10.315 3.29283 10.3 3.31516 10.2821C3.36096 10.2456 3.41535 10.2061 3.47141 10.1689C3.52669 10.1321 3.57833 10.1008 3.61496 10.079C3.63293 10.0683 3.6474 10.0595 3.65598 10.0546C3.65885 10.053 3.66135 10.0515 3.66282 10.0507L3.66379 10.0497L3.697 10.0292C3.7357 10.0197 3.83643 9.99988 4.02219 9.99992C4.14199 9.99998 4.52399 10.0261 5.11594 10.0673C5.67718 10.1063 6.37477 10.1546 7.05344 10.1864C7.72461 10.2179 8.41072 10.2348 8.94016 10.2089C9.19526 10.1964 9.47197 10.1723 9.70676 10.1142C9.8167 10.0869 9.99604 10.0341 10.1697 9.92179C10.3425 9.80986 10.6822 9.51537 10.6823 8.99992C10.6823 8.80587 10.6481 8.5136 10.6218 8.26945C10.5917 7.99006 10.5575 7.66604 10.5349 7.31535C10.4885 6.59702 10.4975 5.84832 10.6511 5.24699C10.7766 4.75572 10.8199 4.53552 10.9109 4.28703C10.9874 4.07828 11.1041 3.84288 11.3777 3.45597C11.5456 3.21844 11.6249 3.10864 11.6882 3.038C11.691 3.03489 11.6937 3.03171 11.696 3.02921C11.7239 3.02417 11.7775 3.01727 11.8679 3.01164C12.0177 3.00234 12.21 3.00128 12.489 3.00089C12.4997 3.01245 12.514 3.02375 12.5271 3.03898C12.6673 3.20186 12.8468 3.47774 13.0554 3.87296C13.4677 4.65426 13.9028 5.7268 14.3044 6.83879C14.703 7.9426 15.0572 9.05116 15.3122 9.88566C15.4395 10.302 15.5409 10.6494 15.6111 10.8915C15.6404 10.9928 15.6647 11.0757 15.6823 11.1376V20.9999H5.39133ZM3.86887 9.90031C3.86773 9.90139 3.86613 9.90309 3.86496 9.90421L3.83567 9.93058C3.82294 9.94154 3.81033 9.95182 3.79856 9.96085C3.79417 9.96422 3.78912 9.96753 3.78489 9.97062C3.81387 9.94861 3.84241 9.9254 3.86887 9.90031ZM17.6823 11.9999H19.3523C19.358 11.9999 19.3641 11.999 19.3698 11.9989C19.6907 11.9933 20.0033 12.1063 20.2468 12.3153C20.4778 12.5138 20.6305 12.7868 20.6823 13.0859V19.914C20.6304 20.2127 20.4775 20.4852 20.2468 20.6835C20.0033 20.8925 19.6907 21.0055 19.3698 20.9999H17.6823V11.9999Z" fill="black" fill-opacity="0.2"/>
</svg>
