<svg width="24" height="24" viewBox="0 0 24 24" fill="none" xmlns="http://www.w3.org/2000/svg">
<path d="M9.06325 8.36525C9.25602 8.36525 9.41265 8.42247 9.53313 8.53693C9.65964 8.65139 9.72289 8.79898 9.72289 8.9797L9.99398 18.3411C10 18.5339 9.94277 18.6875 9.82229 18.802C9.70181 18.9165 9.54217 18.9737 9.34337 18.9737C9.1506 18.9737 8.99398 18.9195 8.87349 18.811C8.75301 18.6966 8.68976 18.543 8.68373 18.3502L8.42169 8.98874C8.41566 8.80199 8.46988 8.65139 8.58434 8.53693C8.70482 8.42247 8.86446 8.36525 9.06325 8.36525Z" fill="#1D1A24"/>
<path d="M9.06325 8.36525C9.25602 8.36525 9.41265 8.42247 9.53313 8.53693C9.65964 8.65139 9.72289 8.79898 9.72289 8.9797L9.99398 18.3411C10 18.5339 9.94277 18.6875 9.82229 18.802C9.70181 18.9165 9.54217 18.9737 9.34337 18.9737C9.1506 18.9737 8.99398 18.9195 8.87349 18.811C8.75301 18.6966 8.68976 18.543 8.68373 18.3502L8.42169 8.98874C8.41566 8.80199 8.46988 8.65139 8.58434 8.53693C8.70482 8.42247 8.86446 8.36525 9.06325 8.36525Z" fill="black" fill-opacity="0.2"/>
<path d="M9.06325 8.36525C9.25602 8.36525 9.41265 8.42247 9.53313 8.53693C9.65964 8.65139 9.72289 8.79898 9.72289 8.9797L9.99398 18.3411C10 18.5339 9.94277 18.6875 9.82229 18.802C9.70181 18.9165 9.54217 18.9737 9.34337 18.9737C9.1506 18.9737 8.99398 18.9195 8.87349 18.811C8.75301 18.6966 8.68976 18.543 8.68373 18.3502L8.42169 8.98874C8.41566 8.80199 8.46988 8.65139 8.58434 8.53693C8.70482 8.42247 8.86446 8.36525 9.06325 8.36525Z" fill="black" fill-opacity="0.2"/>
<path d="M9.06325 8.36525C9.25602 8.36525 9.41265 8.42247 9.53313 8.53693C9.65964 8.65139 9.72289 8.79898 9.72289 8.9797L9.99398 18.3411C10 18.5339 9.94277 18.6875 9.82229 18.802C9.70181 18.9165 9.54217 18.9737 9.34337 18.9737C9.1506 18.9737 8.99398 18.9195 8.87349 18.811C8.75301 18.6966 8.68976 18.543 8.68373 18.3502L8.42169 8.98874C8.41566 8.80199 8.46988 8.65139 8.58434 8.53693C8.70482 8.42247 8.86446 8.36525 9.06325 8.36525Z" fill="black" fill-opacity="0.2"/>
<path d="M9.06325 8.36525C9.25602 8.36525 9.41265 8.42247 9.53313 8.53693C9.65964 8.65139 9.72289 8.79898 9.72289 8.9797L9.99398 18.3411C10 18.5339 9.94277 18.6875 9.82229 18.802C9.70181 18.9165 9.54217 18.9737 9.34337 18.9737C9.1506 18.9737 8.99398 18.9195 8.87349 18.811C8.75301 18.6966 8.68976 18.543 8.68373 18.3502L8.42169 8.98874C8.41566 8.80199 8.46988 8.65139 8.58434 8.53693C8.70482 8.42247 8.86446 8.36525 9.06325 8.36525Z" fill="black" fill-opacity="0.2"/>
<path d="M9.06325 8.36525C9.25602 8.36525 9.41265 8.42247 9.53313 8.53693C9.65964 8.65139 9.72289 8.79898 9.72289 8.9797L9.99398 18.3411C10 18.5339 9.94277 18.6875 9.82229 18.802C9.70181 18.9165 9.54217 18.9737 9.34337 18.9737C9.1506 18.9737 8.99398 18.9195 8.87349 18.811C8.75301 18.6966 8.68976 18.543 8.68373 18.3502L8.42169 8.98874C8.41566 8.80199 8.46988 8.65139 8.58434 8.53693C8.70482 8.42247 8.86446 8.36525 9.06325 8.36525Z" fill="black" fill-opacity="0.2"/>
<path d="M12 8.36525C12.1988 8.36525 12.3584 8.42247 12.4789 8.53693C12.6054 8.65139 12.6687 8.80199 12.6687 8.98874V18.3592C12.6687 18.5399 12.6054 18.6875 12.4789 18.802C12.3584 18.9165 12.1988 18.9737 12 18.9737C11.8072 18.9737 11.6476 18.9165 11.5211 18.802C11.4006 18.6875 11.3404 18.5399 11.3404 18.3592V8.98874C11.3404 8.80199 11.4006 8.65139 11.5211 8.53693C11.6476 8.42247 11.8072 8.36525 12 8.36525Z" fill="#1D1A24"/>
<path d="M12 8.36525C12.1988 8.36525 12.3584 8.42247 12.4789 8.53693C12.6054 8.65139 12.6687 8.80199 12.6687 8.98874V18.3592C12.6687 18.5399 12.6054 18.6875 12.4789 18.802C12.3584 18.9165 12.1988 18.9737 12 18.9737C11.8072 18.9737 11.6476 18.9165 11.5211 18.802C11.4006 18.6875 11.3404 18.5399 11.3404 18.3592V8.98874C11.3404 8.80199 11.4006 8.65139 11.5211 8.53693C11.6476 8.42247 11.8072 8.36525 12 8.36525Z" fill="black" fill-opacity="0.2"/>
<path d="M12 8.36525C12.1988 8.36525 12.3584 8.42247 12.4789 8.53693C12.6054 8.65139 12.6687 8.80199 12.6687 8.98874V18.3592C12.6687 18.5399 12.6054 18.6875 12.4789 18.802C12.3584 18.9165 12.1988 18.9737 12 18.9737C11.8072 18.9737 11.6476 18.9165 11.5211 18.802C11.4006 18.6875 11.3404 18.5399 11.3404 18.3592V8.98874C11.3404 8.80199 11.4006 8.65139 11.5211 8.53693C11.6476 8.42247 11.8072 8.36525 12 8.36525Z" fill="black" fill-opacity="0.2"/>
<path d="M12 8.36525C12.1988 8.36525 12.3584 8.42247 12.4789 8.53693C12.6054 8.65139 12.6687 8.80199 12.6687 8.98874V18.3592C12.6687 18.5399 12.6054 18.6875 12.4789 18.802C12.3584 18.9165 12.1988 18.9737 12 18.9737C11.8072 18.9737 11.6476 18.9165 11.5211 18.802C11.4006 18.6875 11.3404 18.5399 11.3404 18.3592V8.98874C11.3404 8.80199 11.4006 8.65139 11.5211 8.53693C11.6476 8.42247 11.8072 8.36525 12 8.36525Z" fill="black" fill-opacity="0.2"/>
<path d="M12 8.36525C12.1988 8.36525 12.3584 8.42247 12.4789 8.53693C12.6054 8.65139 12.6687 8.80199 12.6687 8.98874V18.3592C12.6687 18.5399 12.6054 18.6875 12.4789 18.802C12.3584 18.9165 12.1988 18.9737 12 18.9737C11.8072 18.9737 11.6476 18.9165 11.5211 18.802C11.4006 18.6875 11.3404 18.5399 11.3404 18.3592V8.98874C11.3404 8.80199 11.4006 8.65139 11.5211 8.53693C11.6476 8.42247 11.8072 8.36525 12 8.36525Z" fill="black" fill-opacity="0.2"/>
<path d="M12 8.36525C12.1988 8.36525 12.3584 8.42247 12.4789 8.53693C12.6054 8.65139 12.6687 8.80199 12.6687 8.98874V18.3592C12.6687 18.5399 12.6054 18.6875 12.4789 18.802C12.3584 18.9165 12.1988 18.9737 12 18.9737C11.8072 18.9737 11.6476 18.9165 11.5211 18.802C11.4006 18.6875 11.3404 18.5399 11.3404 18.3592V8.98874C11.3404 8.80199 11.4006 8.65139 11.5211 8.53693C11.6476 8.42247 11.8072 8.36525 12 8.36525Z" fill="black" fill-opacity="0.2"/>
<path d="M14.9367 8.36525C15.1355 8.36525 15.2922 8.42247 15.4066 8.53693C15.5271 8.65139 15.5843 8.80199 15.5783 8.98874L15.3072 18.3502C15.3012 18.543 15.238 18.6966 15.1175 18.811C14.997 18.9195 14.8434 18.9737 14.6566 18.9737C14.4578 18.9737 14.2982 18.9165 14.1777 18.802C14.0572 18.6875 14 18.5339 14.006 18.3411L14.2771 8.98874C14.2831 8.80199 14.3464 8.65139 14.4669 8.53693C14.5873 8.42247 14.744 8.36525 14.9367 8.36525Z" fill="#1D1A24"/>
<path d="M14.9367 8.36525C15.1355 8.36525 15.2922 8.42247 15.4066 8.53693C15.5271 8.65139 15.5843 8.80199 15.5783 8.98874L15.3072 18.3502C15.3012 18.543 15.238 18.6966 15.1175 18.811C14.997 18.9195 14.8434 18.9737 14.6566 18.9737C14.4578 18.9737 14.2982 18.9165 14.1777 18.802C14.0572 18.6875 14 18.5339 14.006 18.3411L14.2771 8.98874C14.2831 8.80199 14.3464 8.65139 14.4669 8.53693C14.5873 8.42247 14.744 8.36525 14.9367 8.36525Z" fill="black" fill-opacity="0.2"/>
<path d="M14.9367 8.36525C15.1355 8.36525 15.2922 8.42247 15.4066 8.53693C15.5271 8.65139 15.5843 8.80199 15.5783 8.98874L15.3072 18.3502C15.3012 18.543 15.238 18.6966 15.1175 18.811C14.997 18.9195 14.8434 18.9737 14.6566 18.9737C14.4578 18.9737 14.2982 18.9165 14.1777 18.802C14.0572 18.6875 14 18.5339 14.006 18.3411L14.2771 8.98874C14.2831 8.80199 14.3464 8.65139 14.4669 8.53693C14.5873 8.42247 14.744 8.36525 14.9367 8.36525Z" fill="black" fill-opacity="0.2"/>
<path d="M14.9367 8.36525C15.1355 8.36525 15.2922 8.42247 15.4066 8.53693C15.5271 8.65139 15.5843 8.80199 15.5783 8.98874L15.3072 18.3502C15.3012 18.543 15.238 18.6966 15.1175 18.811C14.997 18.9195 14.8434 18.9737 14.6566 18.9737C14.4578 18.9737 14.2982 18.9165 14.1777 18.802C14.0572 18.6875 14 18.5339 14.006 18.3411L14.2771 8.98874C14.2831 8.80199 14.3464 8.65139 14.4669 8.53693C14.5873 8.42247 14.744 8.36525 14.9367 8.36525Z" fill="black" fill-opacity="0.2"/>
<path d="M14.9367 8.36525C15.1355 8.36525 15.2922 8.42247 15.4066 8.53693C15.5271 8.65139 15.5843 8.80199 15.5783 8.98874L15.3072 18.3502C15.3012 18.543 15.238 18.6966 15.1175 18.811C14.997 18.9195 14.8434 18.9737 14.6566 18.9737C14.4578 18.9737 14.2982 18.9165 14.1777 18.802C14.0572 18.6875 14 18.5339 14.006 18.3411L14.2771 8.98874C14.2831 8.80199 14.3464 8.65139 14.4669 8.53693C14.5873 8.42247 14.744 8.36525 14.9367 8.36525Z" fill="black" fill-opacity="0.2"/>
<path d="M14.9367 8.36525C15.1355 8.36525 15.2922 8.42247 15.4066 8.53693C15.5271 8.65139 15.5843 8.80199 15.5783 8.98874L15.3072 18.3502C15.3012 18.543 15.238 18.6966 15.1175 18.811C14.997 18.9195 14.8434 18.9737 14.6566 18.9737C14.4578 18.9737 14.2982 18.9165 14.1777 18.802C14.0572 18.6875 14 18.5339 14.006 18.3411L14.2771 8.98874C14.2831 8.80199 14.3464 8.65139 14.4669 8.53693C14.5873 8.42247 14.744 8.36525 14.9367 8.36525Z" fill="black" fill-opacity="0.2"/>
<path fill-rule="evenodd" clip-rule="evenodd" d="M13.7078 1.5791C14.4849 1.5791 15.0873 1.7779 15.5151 2.17549C15.9488 2.56705 16.1657 3.11826 16.1657 3.8291V5.16645H20.1325C20.3735 5.16645 20.5783 5.24778 20.747 5.41043C20.9157 5.57308 21 5.7779 21 6.02488C21 6.26585 20.9157 6.47067 20.747 6.63934C20.5843 6.80199 20.3795 6.88332 20.1325 6.88332H19.1847L18.5783 19.8321C18.5482 20.555 18.3163 21.1183 17.8825 21.5219C17.4488 21.9255 16.8735 22.1273 16.1566 22.1273H7.84337C7.12048 22.1273 6.54518 21.9255 6.11747 21.5219C5.68976 21.1243 5.46084 20.564 5.43072 19.8411L4.81526 6.88332H3.86747C3.62651 6.88332 3.42169 6.80199 3.25301 6.63934C3.08434 6.47067 3 6.26585 3 6.02488C3 5.78392 3.08434 5.58211 3.25301 5.41946C3.42169 5.25079 3.62651 5.16645 3.86747 5.16645H7.81627V3.8291C7.81627 3.11826 8.03012 2.56705 8.45783 2.17549C8.89157 1.7779 9.49699 1.5791 10.2741 1.5791H13.7078ZM6.58635 6.88332L7.19277 19.4978C7.20482 19.7628 7.28916 19.9767 7.44578 20.1393C7.60241 20.308 7.80422 20.3924 8.0512 20.3924H15.9398C16.1928 20.3924 16.3976 20.311 16.5542 20.1484C16.7108 19.9857 16.7922 19.7689 16.7982 19.4978L17.3775 6.88332H6.58635ZM10.4006 3.18754C10.1657 3.18754 9.9759 3.2538 9.83133 3.38633C9.68675 3.51886 9.61446 3.69356 9.61446 3.91043V5.16645H14.3675V3.91043C14.3675 3.69356 14.2952 3.51886 14.1506 3.38633C14.012 3.2538 13.8223 3.18754 13.5813 3.18754H10.4006Z" fill="#1D1A24"/>
<path fill-rule="evenodd" clip-rule="evenodd" d="M13.7078 1.5791C14.4849 1.5791 15.0873 1.7779 15.5151 2.17549C15.9488 2.56705 16.1657 3.11826 16.1657 3.8291V5.16645H20.1325C20.3735 5.16645 20.5783 5.24778 20.747 5.41043C20.9157 5.57308 21 5.7779 21 6.02488C21 6.26585 20.9157 6.47067 20.747 6.63934C20.5843 6.80199 20.3795 6.88332 20.1325 6.88332H19.1847L18.5783 19.8321C18.5482 20.555 18.3163 21.1183 17.8825 21.5219C17.4488 21.9255 16.8735 22.1273 16.1566 22.1273H7.84337C7.12048 22.1273 6.54518 21.9255 6.11747 21.5219C5.68976 21.1243 5.46084 20.564 5.43072 19.8411L4.81526 6.88332H3.86747C3.62651 6.88332 3.42169 6.80199 3.25301 6.63934C3.08434 6.47067 3 6.26585 3 6.02488C3 5.78392 3.08434 5.58211 3.25301 5.41946C3.42169 5.25079 3.62651 5.16645 3.86747 5.16645H7.81627V3.8291C7.81627 3.11826 8.03012 2.56705 8.45783 2.17549C8.89157 1.7779 9.49699 1.5791 10.2741 1.5791H13.7078ZM6.58635 6.88332L7.19277 19.4978C7.20482 19.7628 7.28916 19.9767 7.44578 20.1393C7.60241 20.308 7.80422 20.3924 8.0512 20.3924H15.9398C16.1928 20.3924 16.3976 20.311 16.5542 20.1484C16.7108 19.9857 16.7922 19.7689 16.7982 19.4978L17.3775 6.88332H6.58635ZM10.4006 3.18754C10.1657 3.18754 9.9759 3.2538 9.83133 3.38633C9.68675 3.51886 9.61446 3.69356 9.61446 3.91043V5.16645H14.3675V3.91043C14.3675 3.69356 14.2952 3.51886 14.1506 3.38633C14.012 3.2538 13.8223 3.18754 13.5813 3.18754H10.4006Z" fill="black" fill-opacity="0.2"/>
<path fill-rule="evenodd" clip-rule="evenodd" d="M13.7078 1.5791C14.4849 1.5791 15.0873 1.7779 15.5151 2.17549C15.9488 2.56705 16.1657 3.11826 16.1657 3.8291V5.16645H20.1325C20.3735 5.16645 20.5783 5.24778 20.747 5.41043C20.9157 5.57308 21 5.7779 21 6.02488C21 6.26585 20.9157 6.47067 20.747 6.63934C20.5843 6.80199 20.3795 6.88332 20.1325 6.88332H19.1847L18.5783 19.8321C18.5482 20.555 18.3163 21.1183 17.8825 21.5219C17.4488 21.9255 16.8735 22.1273 16.1566 22.1273H7.84337C7.12048 22.1273 6.54518 21.9255 6.11747 21.5219C5.68976 21.1243 5.46084 20.564 5.43072 19.8411L4.81526 6.88332H3.86747C3.62651 6.88332 3.42169 6.80199 3.25301 6.63934C3.08434 6.47067 3 6.26585 3 6.02488C3 5.78392 3.08434 5.58211 3.25301 5.41946C3.42169 5.25079 3.62651 5.16645 3.86747 5.16645H7.81627V3.8291C7.81627 3.11826 8.03012 2.56705 8.45783 2.17549C8.89157 1.7779 9.49699 1.5791 10.2741 1.5791H13.7078ZM6.58635 6.88332L7.19277 19.4978C7.20482 19.7628 7.28916 19.9767 7.44578 20.1393C7.60241 20.308 7.80422 20.3924 8.0512 20.3924H15.9398C16.1928 20.3924 16.3976 20.311 16.5542 20.1484C16.7108 19.9857 16.7922 19.7689 16.7982 19.4978L17.3775 6.88332H6.58635ZM10.4006 3.18754C10.1657 3.18754 9.9759 3.2538 9.83133 3.38633C9.68675 3.51886 9.61446 3.69356 9.61446 3.91043V5.16645H14.3675V3.91043C14.3675 3.69356 14.2952 3.51886 14.1506 3.38633C14.012 3.2538 13.8223 3.18754 13.5813 3.18754H10.4006Z" fill="black" fill-opacity="0.2"/>
<path fill-rule="evenodd" clip-rule="evenodd" d="M13.7078 1.5791C14.4849 1.5791 15.0873 1.7779 15.5151 2.17549C15.9488 2.56705 16.1657 3.11826 16.1657 3.8291V5.16645H20.1325C20.3735 5.16645 20.5783 5.24778 20.747 5.41043C20.9157 5.57308 21 5.7779 21 6.02488C21 6.26585 20.9157 6.47067 20.747 6.63934C20.5843 6.80199 20.3795 6.88332 20.1325 6.88332H19.1847L18.5783 19.8321C18.5482 20.555 18.3163 21.1183 17.8825 21.5219C17.4488 21.9255 16.8735 22.1273 16.1566 22.1273H7.84337C7.12048 22.1273 6.54518 21.9255 6.11747 21.5219C5.68976 21.1243 5.46084 20.564 5.43072 19.8411L4.81526 6.88332H3.86747C3.62651 6.88332 3.42169 6.80199 3.25301 6.63934C3.08434 6.47067 3 6.26585 3 6.02488C3 5.78392 3.08434 5.58211 3.25301 5.41946C3.42169 5.25079 3.62651 5.16645 3.86747 5.16645H7.81627V3.8291C7.81627 3.11826 8.03012 2.56705 8.45783 2.17549C8.89157 1.7779 9.49699 1.5791 10.2741 1.5791H13.7078ZM6.58635 6.88332L7.19277 19.4978C7.20482 19.7628 7.28916 19.9767 7.44578 20.1393C7.60241 20.308 7.80422 20.3924 8.0512 20.3924H15.9398C16.1928 20.3924 16.3976 20.311 16.5542 20.1484C16.7108 19.9857 16.7922 19.7689 16.7982 19.4978L17.3775 6.88332H6.58635ZM10.4006 3.18754C10.1657 3.18754 9.9759 3.2538 9.83133 3.38633C9.68675 3.51886 9.61446 3.69356 9.61446 3.91043V5.16645H14.3675V3.91043C14.3675 3.69356 14.2952 3.51886 14.1506 3.38633C14.012 3.2538 13.8223 3.18754 13.5813 3.18754H10.4006Z" fill="black" fill-opacity="0.2"/>
<path fill-rule="evenodd" clip-rule="evenodd" d="M13.7078 1.5791C14.4849 1.5791 15.0873 1.7779 15.5151 2.17549C15.9488 2.56705 16.1657 3.11826 16.1657 3.8291V5.16645H20.1325C20.3735 5.16645 20.5783 5.24778 20.747 5.41043C20.9157 5.57308 21 5.7779 21 6.02488C21 6.26585 20.9157 6.47067 20.747 6.63934C20.5843 6.80199 20.3795 6.88332 20.1325 6.88332H19.1847L18.5783 19.8321C18.5482 20.555 18.3163 21.1183 17.8825 21.5219C17.4488 21.9255 16.8735 22.1273 16.1566 22.1273H7.84337C7.12048 22.1273 6.54518 21.9255 6.11747 21.5219C5.68976 21.1243 5.46084 20.564 5.43072 19.8411L4.81526 6.88332H3.86747C3.62651 6.88332 3.42169 6.80199 3.25301 6.63934C3.08434 6.47067 3 6.26585 3 6.02488C3 5.78392 3.08434 5.58211 3.25301 5.41946C3.42169 5.25079 3.62651 5.16645 3.86747 5.16645H7.81627V3.8291C7.81627 3.11826 8.03012 2.56705 8.45783 2.17549C8.89157 1.7779 9.49699 1.5791 10.2741 1.5791H13.7078ZM6.58635 6.88332L7.19277 19.4978C7.20482 19.7628 7.28916 19.9767 7.44578 20.1393C7.60241 20.308 7.80422 20.3924 8.0512 20.3924H15.9398C16.1928 20.3924 16.3976 20.311 16.5542 20.1484C16.7108 19.9857 16.7922 19.7689 16.7982 19.4978L17.3775 6.88332H6.58635ZM10.4006 3.18754C10.1657 3.18754 9.9759 3.2538 9.83133 3.38633C9.68675 3.51886 9.61446 3.69356 9.61446 3.91043V5.16645H14.3675V3.91043C14.3675 3.69356 14.2952 3.51886 14.1506 3.38633C14.012 3.2538 13.8223 3.18754 13.5813 3.18754H10.4006Z" fill="black" fill-opacity="0.2"/>
<path fill-rule="evenodd" clip-rule="evenodd" d="M13.7078 1.5791C14.4849 1.5791 15.0873 1.7779 15.5151 2.17549C15.9488 2.56705 16.1657 3.11826 16.1657 3.8291V5.16645H20.1325C20.3735 5.16645 20.5783 5.24778 20.747 5.41043C20.9157 5.57308 21 5.7779 21 6.02488C21 6.26585 20.9157 6.47067 20.747 6.63934C20.5843 6.80199 20.3795 6.88332 20.1325 6.88332H19.1847L18.5783 19.8321C18.5482 20.555 18.3163 21.1183 17.8825 21.5219C17.4488 21.9255 16.8735 22.1273 16.1566 22.1273H7.84337C7.12048 22.1273 6.54518 21.9255 6.11747 21.5219C5.68976 21.1243 5.46084 20.564 5.43072 19.8411L4.81526 6.88332H3.86747C3.62651 6.88332 3.42169 6.80199 3.25301 6.63934C3.08434 6.47067 3 6.26585 3 6.02488C3 5.78392 3.08434 5.58211 3.25301 5.41946C3.42169 5.25079 3.62651 5.16645 3.86747 5.16645H7.81627V3.8291C7.81627 3.11826 8.03012 2.56705 8.45783 2.17549C8.89157 1.7779 9.49699 1.5791 10.2741 1.5791H13.7078ZM6.58635 6.88332L7.19277 19.4978C7.20482 19.7628 7.28916 19.9767 7.44578 20.1393C7.60241 20.308 7.80422 20.3924 8.0512 20.3924H15.9398C16.1928 20.3924 16.3976 20.311 16.5542 20.1484C16.7108 19.9857 16.7922 19.7689 16.7982 19.4978L17.3775 6.88332H6.58635ZM10.4006 3.18754C10.1657 3.18754 9.9759 3.2538 9.83133 3.38633C9.68675 3.51886 9.61446 3.69356 9.61446 3.91043V5.16645H14.3675V3.91043C14.3675 3.69356 14.2952 3.51886 14.1506 3.38633C14.012 3.2538 13.8223 3.18754 13.5813 3.18754H10.4006Z" fill="black" fill-opacity="0.2"/>
</svg>
