<svg width="24" height="24" viewBox="0 0 24 24" fill="none" xmlns="http://www.w3.org/2000/svg">
<path d="M15.6475 4.56055C16.4172 4.56057 16.946 4.65527 17.4131 4.92676C17.8721 5.19363 18.2512 5.62155 18.7451 6.22949L21.6709 9.85059L21.8115 10.0352C21.9396 10.2195 22.0319 10.4048 22.0938 10.6152C22.1748 10.8915 22.2002 11.2005 22.2002 11.5889V16.6094C22.2002 17.5142 21.9717 18.2321 21.4775 18.7217C20.9836 19.2109 20.2578 19.4394 19.3369 19.4395H4.66309C3.74679 19.4394 3.02139 19.2135 2.52637 18.7256C2.03077 18.2371 1.7998 17.5188 1.7998 16.6094V11.5889C1.7998 11.1993 1.8279 10.8904 1.91016 10.6143C1.99344 10.3347 2.12897 10.1003 2.32715 9.85254L2.32812 9.85156L5.2627 6.22949C5.75634 5.62193 6.13404 5.19467 6.59082 4.92773C7.05603 4.65588 7.58268 4.56057 8.35254 4.56055H15.6475ZM3.56543 16.542C3.56544 16.9493 3.67331 17.2241 3.84668 17.3975C4.0201 17.5706 4.29063 17.6738 4.68066 17.6738H19.3193C19.7049 17.6738 19.9765 17.5705 20.1514 17.3965C20.3258 17.2227 20.4346 16.9481 20.4346 16.542V12.5176H15.4248C15.1352 14.1104 13.7544 15.2744 12 15.2744C10.2457 15.2744 8.86455 14.1183 8.5752 12.5176H3.56543V16.542ZM8.25098 6.14844C7.96486 6.14845 7.7217 6.19747 7.50586 6.30078C7.29025 6.40407 7.09079 6.56716 6.89844 6.81055L3.75098 10.7803L3.75 10.7812C3.71279 10.8272 3.71849 10.8594 3.71973 10.8633C3.7198 10.8635 3.72015 10.8645 3.72461 10.8672C3.73026 10.8706 3.74924 10.8799 3.79004 10.8799H9.37891C9.6542 10.8799 9.87482 10.9853 10.0234 11.1602C10.1682 11.3304 10.2324 11.551 10.2324 11.7666V11.792C10.2324 12.6875 10.9354 13.6191 12 13.6191C13.0737 13.6191 13.7764 12.6869 13.7764 11.792V11.7666C13.7764 11.5529 13.8371 11.332 13.9795 11.1611C14.1262 10.9852 14.3456 10.8799 14.6211 10.8799H20.2188C20.2587 10.8799 20.2764 10.871 20.2812 10.8682C20.2843 10.8663 20.284 10.8657 20.2842 10.8652C20.286 10.8598 20.2915 10.8244 20.2549 10.7764L17.1025 6.81055C16.9102 6.56715 16.7097 6.40407 16.4941 6.30078C16.2783 6.19747 16.0352 6.14845 15.749 6.14844H8.25098Z" fill="#1D1A24"/>
</svg>
