<svg width="24" height="24" viewBox="0 0 24 24" fill="none" xmlns="http://www.w3.org/2000/svg">
<path d="M22 5.36773V18.6431C22 20.881 20.8702 22 18.5888 22H5.41118C3.14068 22 2 20.881 2 18.6431V5.36773C2 3.12982 3.14068 2 5.41118 2H18.5888C20.8702 2 22 3.12982 22 5.36773ZM8.10537 8.70289C7.56219 8.70289 7.34491 9.34383 7.62738 9.82182L11.3971 16.1988C11.6795 16.6659 12.3313 16.6985 12.6138 16.1988L16.3726 9.82182C16.6768 9.30038 16.4378 8.70289 15.9055 8.70289H8.10537Z" fill="#1D1A24"/>
<path d="M22 5.36773V18.6431C22 20.881 20.8702 22 18.5888 22H5.41118C3.14068 22 2 20.881 2 18.6431V5.36773C2 3.12982 3.14068 2 5.41118 2H18.5888C20.8702 2 22 3.12982 22 5.36773ZM8.10537 8.70289C7.56219 8.70289 7.34491 9.34383 7.62738 9.82182L11.3971 16.1988C11.6795 16.6659 12.3313 16.6985 12.6138 16.1988L16.3726 9.82182C16.6768 9.30038 16.4378 8.70289 15.9055 8.70289H8.10537Z" fill="black" fill-opacity="0.2"/>
<path d="M22 5.36773V18.6431C22 20.881 20.8702 22 18.5888 22H5.41118C3.14068 22 2 20.881 2 18.6431V5.36773C2 3.12982 3.14068 2 5.41118 2H18.5888C20.8702 2 22 3.12982 22 5.36773ZM8.10537 8.70289C7.56219 8.70289 7.34491 9.34383 7.62738 9.82182L11.3971 16.1988C11.6795 16.6659 12.3313 16.6985 12.6138 16.1988L16.3726 9.82182C16.6768 9.30038 16.4378 8.70289 15.9055 8.70289H8.10537Z" fill="black" fill-opacity="0.2"/>
<path d="M22 5.36773V18.6431C22 20.881 20.8702 22 18.5888 22H5.41118C3.14068 22 2 20.881 2 18.6431V5.36773C2 3.12982 3.14068 2 5.41118 2H18.5888C20.8702 2 22 3.12982 22 5.36773ZM8.10537 8.70289C7.56219 8.70289 7.34491 9.34383 7.62738 9.82182L11.3971 16.1988C11.6795 16.6659 12.3313 16.6985 12.6138 16.1988L16.3726 9.82182C16.6768 9.30038 16.4378 8.70289 15.9055 8.70289H8.10537Z" fill="black" fill-opacity="0.2"/>
<path d="M22 5.36773V18.6431C22 20.881 20.8702 22 18.5888 22H5.41118C3.14068 22 2 20.881 2 18.6431V5.36773C2 3.12982 3.14068 2 5.41118 2H18.5888C20.8702 2 22 3.12982 22 5.36773ZM8.10537 8.70289C7.56219 8.70289 7.34491 9.34383 7.62738 9.82182L11.3971 16.1988C11.6795 16.6659 12.3313 16.6985 12.6138 16.1988L16.3726 9.82182C16.6768 9.30038 16.4378 8.70289 15.9055 8.70289H8.10537Z" fill="black" fill-opacity="0.2"/>
<path d="M22 5.36773V18.6431C22 20.881 20.8702 22 18.5888 22H5.41118C3.14068 22 2 20.881 2 18.6431V5.36773C2 3.12982 3.14068 2 5.41118 2H18.5888C20.8702 2 22 3.12982 22 5.36773ZM8.10537 8.70289C7.56219 8.70289 7.34491 9.34383 7.62738 9.82182L11.3971 16.1988C11.6795 16.6659 12.3313 16.6985 12.6138 16.1988L16.3726 9.82182C16.6768 9.30038 16.4378 8.70289 15.9055 8.70289H8.10537Z" fill="black" fill-opacity="0.2"/>
</svg>
