<svg width="24" height="24" viewBox="0 0 24 24" fill="none" xmlns="http://www.w3.org/2000/svg">
<path d="M22 11.9951C22 17.5022 17.5196 21.9902 12 21.9902C6.4902 21.9902 2 17.5022 2 11.9951C2 6.47821 6.4902 2 12 2C17.5196 2 22 6.47821 22 11.9951ZM8.48039 9.02597C7.9902 9.02597 7.79411 9.60411 8.04903 10.0353L11.451 15.7874C11.7059 16.2087 12.2941 16.2381 12.549 15.7874L15.9412 10.0353C16.2157 9.56492 16 9.02597 15.5196 9.02597H8.48039Z" fill="#1D1A24"/>
<path d="M22 11.9951C22 17.5022 17.5196 21.9902 12 21.9902C6.4902 21.9902 2 17.5022 2 11.9951C2 6.47821 6.4902 2 12 2C17.5196 2 22 6.47821 22 11.9951ZM8.48039 9.02597C7.9902 9.02597 7.79411 9.60411 8.04903 10.0353L11.451 15.7874C11.7059 16.2087 12.2941 16.2381 12.549 15.7874L15.9412 10.0353C16.2157 9.56492 16 9.02597 15.5196 9.02597H8.48039Z" fill="black" fill-opacity="0.2"/>
<path d="M22 11.9951C22 17.5022 17.5196 21.9902 12 21.9902C6.4902 21.9902 2 17.5022 2 11.9951C2 6.47821 6.4902 2 12 2C17.5196 2 22 6.47821 22 11.9951ZM8.48039 9.02597C7.9902 9.02597 7.79411 9.60411 8.04903 10.0353L11.451 15.7874C11.7059 16.2087 12.2941 16.2381 12.549 15.7874L15.9412 10.0353C16.2157 9.56492 16 9.02597 15.5196 9.02597H8.48039Z" fill="black" fill-opacity="0.2"/>
<path d="M22 11.9951C22 17.5022 17.5196 21.9902 12 21.9902C6.4902 21.9902 2 17.5022 2 11.9951C2 6.47821 6.4902 2 12 2C17.5196 2 22 6.47821 22 11.9951ZM8.48039 9.02597C7.9902 9.02597 7.79411 9.60411 8.04903 10.0353L11.451 15.7874C11.7059 16.2087 12.2941 16.2381 12.549 15.7874L15.9412 10.0353C16.2157 9.56492 16 9.02597 15.5196 9.02597H8.48039Z" fill="black" fill-opacity="0.2"/>
<path d="M22 11.9951C22 17.5022 17.5196 21.9902 12 21.9902C6.4902 21.9902 2 17.5022 2 11.9951C2 6.47821 6.4902 2 12 2C17.5196 2 22 6.47821 22 11.9951ZM8.48039 9.02597C7.9902 9.02597 7.79411 9.60411 8.04903 10.0353L11.451 15.7874C11.7059 16.2087 12.2941 16.2381 12.549 15.7874L15.9412 10.0353C16.2157 9.56492 16 9.02597 15.5196 9.02597H8.48039Z" fill="black" fill-opacity="0.2"/>
<path d="M22 11.9951C22 17.5022 17.5196 21.9902 12 21.9902C6.4902 21.9902 2 17.5022 2 11.9951C2 6.47821 6.4902 2 12 2C17.5196 2 22 6.47821 22 11.9951ZM8.48039 9.02597C7.9902 9.02597 7.79411 9.60411 8.04903 10.0353L11.451 15.7874C11.7059 16.2087 12.2941 16.2381 12.549 15.7874L15.9412 10.0353C16.2157 9.56492 16 9.02597 15.5196 9.02597H8.48039Z" fill="black" fill-opacity="0.2"/>
</svg>
