<svg width="24" height="24" viewBox="0 0 24 24" fill="none" xmlns="http://www.w3.org/2000/svg">
<path d="M15.3262 3.61232C15.517 3.61118 15.7085 3.6604 15.9199 3.75393L21.1211 5.97365C21.4933 6.13142 21.78 6.35817 21.9414 6.66604C22.1035 6.97556 22.1256 7.33935 22.0235 7.74025L21.3652 10.3946C21.2643 10.794 21.0801 11.1076 20.794 11.291C20.5059 11.4756 20.1507 11.5061 19.7578 11.416L18.211 11.0596L18.1182 18.1113C18.1062 18.7926 17.8833 19.3671 17.4736 19.7705C17.064 20.1739 16.4868 20.3886 15.8018 20.3887H8.20314C7.51451 20.3887 6.93441 20.1742 6.52443 19.7705C6.11458 19.3668 5.89471 18.7928 5.88673 18.1113L5.79201 11.0596L4.24709 11.416C3.85115 11.5058 3.49336 11.4758 3.20509 11.291C2.9181 11.1071 2.73574 10.7938 2.63869 10.3936L1.97365 7.74025C1.87569 7.34024 1.89652 6.97548 2.05861 6.66604C2.22014 6.35786 2.50661 6.13145 2.88283 5.97365L8.07912 3.75295C8.29022 3.6598 8.48309 3.61118 8.67384 3.61232C8.86589 3.61356 9.04059 3.66563 9.21584 3.74904C10.177 4.2039 10.9328 4.43261 12.002 4.43264C13.0639 4.43264 13.8272 4.20358 14.7803 3.74904L14.7822 3.74807C14.96 3.66541 15.1347 3.61349 15.3262 3.61232ZM15.7598 5.39064C15.2696 7.02036 13.7272 8.16018 12.002 8.16018C10.2708 8.16011 8.72676 7.02145 8.2422 5.39162L3.54787 7.3965L3.54298 7.39846C3.52041 7.4075 3.50607 7.41471 3.49709 7.41994C3.49758 7.43125 3.49909 7.44994 3.50588 7.47854L4.0967 9.834L4.09865 9.83889L4.13088 9.83596L6.74611 9.25393C6.89748 9.22029 7.04759 9.24737 7.16213 9.33889C7.27499 9.42918 7.33236 9.56558 7.33302 9.70803L7.43849 18.0469L7.45412 18.2334C7.48391 18.4062 7.55279 18.5379 7.64552 18.6319C7.76877 18.7565 7.95676 18.8369 8.21779 18.8369H15.7861C16.0472 18.8369 16.2352 18.7565 16.3584 18.6319C16.4821 18.5066 16.5632 18.3142 16.5664 18.0469L16.6709 9.70803C16.6715 9.56906 16.7247 9.43187 16.8379 9.33986C16.9244 9.26958 17.0313 9.23813 17.1436 9.24025L17.2569 9.25295L17.2588 9.25393L19.8721 9.83596C19.8825 9.83815 19.8919 9.83866 19.8975 9.83889C19.898 9.83735 19.8999 9.835 19.9004 9.83303L20.4981 7.48049C20.5055 7.44953 20.5058 7.43063 20.5059 7.42092C20.4969 7.41525 20.4824 7.40676 20.458 7.3965L15.7598 5.39064ZM13.8897 5.65139C13.2991 5.82504 12.6859 5.91701 12.002 5.91701C11.3187 5.917 10.7034 5.82585 10.1123 5.65236C10.5536 6.23739 11.2452 6.60837 12.002 6.60842C12.7544 6.60842 13.4468 6.23663 13.8897 5.65139Z" fill="#1D1A24"/>
</svg>
