<svg width="24" height="24" viewBox="0 0 24 24" fill="none" xmlns="http://www.w3.org/2000/svg">
<path d="M12.9836 13.7699C14.34 13.77 15.6409 14.3092 16.6 15.2683C17.5591 16.2275 18.0985 17.5283 18.0985 18.8848V20.8519C18.0985 21.5037 17.5697 22.0323 16.918 22.0324C16.2661 22.0324 15.7375 21.5038 15.7375 20.8519V18.8848C15.7375 18.1544 15.447 17.4542 14.9306 16.9377C14.4786 16.4858 13.8859 16.2069 13.2554 16.1443L12.9836 16.1309H5.11486C4.3845 16.1309 3.68433 16.4213 3.16785 16.9377C2.65137 17.4542 2.361 18.1543 2.361 18.8848V20.8519C2.361 21.5037 1.83226 22.0323 1.1805 22.0324C0.528634 22.0324 0 21.5038 0 20.8519V18.8848C0 17.5283 0.539252 16.2275 1.49844 15.2683C2.45761 14.3092 3.75842 13.7699 5.11486 13.7699H12.9836Z" fill="#1D1A24"/>
<path d="M12.9836 13.7699C14.34 13.77 15.6409 14.3092 16.6 15.2683C17.5591 16.2275 18.0985 17.5283 18.0985 18.8848V20.8519C18.0985 21.5037 17.5697 22.0323 16.918 22.0324C16.2661 22.0324 15.7375 21.5038 15.7375 20.8519V18.8848C15.7375 18.1544 15.447 17.4542 14.9306 16.9377C14.4786 16.4858 13.8859 16.2069 13.2554 16.1443L12.9836 16.1309H5.11486C4.3845 16.1309 3.68433 16.4213 3.16785 16.9377C2.65137 17.4542 2.361 18.1543 2.361 18.8848V20.8519C2.361 21.5037 1.83226 22.0323 1.1805 22.0324C0.528634 22.0324 0 21.5038 0 20.8519V18.8848C0 17.5283 0.539252 16.2275 1.49844 15.2683C2.45761 14.3092 3.75842 13.7699 5.11486 13.7699H12.9836Z" fill="black" fill-opacity="0.2"/>
<path d="M12.9836 13.7699C14.34 13.77 15.6409 14.3092 16.6 15.2683C17.5591 16.2275 18.0985 17.5283 18.0985 18.8848V20.8519C18.0985 21.5037 17.5697 22.0323 16.918 22.0324C16.2661 22.0324 15.7375 21.5038 15.7375 20.8519V18.8848C15.7375 18.1544 15.447 17.4542 14.9306 16.9377C14.4786 16.4858 13.8859 16.2069 13.2554 16.1443L12.9836 16.1309H5.11486C4.3845 16.1309 3.68433 16.4213 3.16785 16.9377C2.65137 17.4542 2.361 18.1543 2.361 18.8848V20.8519C2.361 21.5037 1.83226 22.0323 1.1805 22.0324C0.528634 22.0324 0 21.5038 0 20.8519V18.8848C0 17.5283 0.539252 16.2275 1.49844 15.2683C2.45761 14.3092 3.75842 13.7699 5.11486 13.7699H12.9836Z" fill="black" fill-opacity="0.2"/>
<path d="M12.9836 13.7699C14.34 13.77 15.6409 14.3092 16.6 15.2683C17.5591 16.2275 18.0985 17.5283 18.0985 18.8848V20.8519C18.0985 21.5037 17.5697 22.0323 16.918 22.0324C16.2661 22.0324 15.7375 21.5038 15.7375 20.8519V18.8848C15.7375 18.1544 15.447 17.4542 14.9306 16.9377C14.4786 16.4858 13.8859 16.2069 13.2554 16.1443L12.9836 16.1309H5.11486C4.3845 16.1309 3.68433 16.4213 3.16785 16.9377C2.65137 17.4542 2.361 18.1543 2.361 18.8848V20.8519C2.361 21.5037 1.83226 22.0323 1.1805 22.0324C0.528634 22.0324 0 21.5038 0 20.8519V18.8848C0 17.5283 0.539252 16.2275 1.49844 15.2683C2.45761 14.3092 3.75842 13.7699 5.11486 13.7699H12.9836Z" fill="black" fill-opacity="0.2"/>
<path d="M12.9836 13.7699C14.34 13.77 15.6409 14.3092 16.6 15.2683C17.5591 16.2275 18.0985 17.5283 18.0985 18.8848V20.8519C18.0985 21.5037 17.5697 22.0323 16.918 22.0324C16.2661 22.0324 15.7375 21.5038 15.7375 20.8519V18.8848C15.7375 18.1544 15.447 17.4542 14.9306 16.9377C14.4786 16.4858 13.8859 16.2069 13.2554 16.1443L12.9836 16.1309H5.11486C4.3845 16.1309 3.68433 16.4213 3.16785 16.9377C2.65137 17.4542 2.361 18.1543 2.361 18.8848V20.8519C2.361 21.5037 1.83226 22.0323 1.1805 22.0324C0.528634 22.0324 0 21.5038 0 20.8519V18.8848C0 17.5283 0.539252 16.2275 1.49844 15.2683C2.45761 14.3092 3.75842 13.7699 5.11486 13.7699H12.9836Z" fill="black" fill-opacity="0.2"/>
<path d="M12.9836 13.7699C14.34 13.77 15.6409 14.3092 16.6 15.2683C17.5591 16.2275 18.0985 17.5283 18.0985 18.8848V20.8519C18.0985 21.5037 17.5697 22.0323 16.918 22.0324C16.2661 22.0324 15.7375 21.5038 15.7375 20.8519V18.8848C15.7375 18.1544 15.447 17.4542 14.9306 16.9377C14.4786 16.4858 13.8859 16.2069 13.2554 16.1443L12.9836 16.1309H5.11486C4.3845 16.1309 3.68433 16.4213 3.16785 16.9377C2.65137 17.4542 2.361 18.1543 2.361 18.8848V20.8519C2.361 21.5037 1.83226 22.0323 1.1805 22.0324C0.528634 22.0324 0 21.5038 0 20.8519V18.8848C0 17.5283 0.539252 16.2275 1.49844 15.2683C2.45761 14.3092 3.75842 13.7699 5.11486 13.7699H12.9836Z" fill="black" fill-opacity="0.2"/>
<path d="M18.7257 14.7833C18.8887 14.1523 19.5326 13.7723 20.1636 13.9351C21.2608 14.2184 22.2328 14.8588 22.9271 15.7544C23.6213 16.6499 23.9991 17.7506 24 18.8838V20.8519C23.9999 21.5037 23.4713 22.0324 22.8195 22.0324C22.1677 22.0324 21.6391 21.5037 21.639 20.8519V18.8857L21.6294 18.6581C21.5851 18.1292 21.3889 17.622 21.0617 17.2C20.6879 16.7179 20.1644 16.3737 19.5738 16.2212C18.9428 16.0582 18.5629 15.4143 18.7257 14.7833Z" fill="#1D1A24"/>
<path d="M18.7257 14.7833C18.8887 14.1523 19.5326 13.7723 20.1636 13.9351C21.2608 14.2184 22.2328 14.8588 22.9271 15.7544C23.6213 16.6499 23.9991 17.7506 24 18.8838V20.8519C23.9999 21.5037 23.4713 22.0324 22.8195 22.0324C22.1677 22.0324 21.6391 21.5037 21.639 20.8519V18.8857L21.6294 18.6581C21.5851 18.1292 21.3889 17.622 21.0617 17.2C20.6879 16.7179 20.1644 16.3737 19.5738 16.2212C18.9428 16.0582 18.5629 15.4143 18.7257 14.7833Z" fill="black" fill-opacity="0.2"/>
<path d="M18.7257 14.7833C18.8887 14.1523 19.5326 13.7723 20.1636 13.9351C21.2608 14.2184 22.2328 14.8588 22.9271 15.7544C23.6213 16.6499 23.9991 17.7506 24 18.8838V20.8519C23.9999 21.5037 23.4713 22.0324 22.8195 22.0324C22.1677 22.0324 21.6391 21.5037 21.639 20.8519V18.8857L21.6294 18.6581C21.5851 18.1292 21.3889 17.622 21.0617 17.2C20.6879 16.7179 20.1644 16.3737 19.5738 16.2212C18.9428 16.0582 18.5629 15.4143 18.7257 14.7833Z" fill="black" fill-opacity="0.2"/>
<path d="M18.7257 14.7833C18.8887 14.1523 19.5326 13.7723 20.1636 13.9351C21.2608 14.2184 22.2328 14.8588 22.9271 15.7544C23.6213 16.6499 23.9991 17.7506 24 18.8838V20.8519C23.9999 21.5037 23.4713 22.0324 22.8195 22.0324C22.1677 22.0324 21.6391 21.5037 21.639 20.8519V18.8857L21.6294 18.6581C21.5851 18.1292 21.3889 17.622 21.0617 17.2C20.6879 16.7179 20.1644 16.3737 19.5738 16.2212C18.9428 16.0582 18.5629 15.4143 18.7257 14.7833Z" fill="black" fill-opacity="0.2"/>
<path d="M18.7257 14.7833C18.8887 14.1523 19.5326 13.7723 20.1636 13.9351C21.2608 14.2184 22.2328 14.8588 22.9271 15.7544C23.6213 16.6499 23.9991 17.7506 24 18.8838V20.8519C23.9999 21.5037 23.4713 22.0324 22.8195 22.0324C22.1677 22.0324 21.6391 21.5037 21.639 20.8519V18.8857L21.6294 18.6581C21.5851 18.1292 21.3889 17.622 21.0617 17.2C20.6879 16.7179 20.1644 16.3737 19.5738 16.2212C18.9428 16.0582 18.5629 15.4143 18.7257 14.7833Z" fill="black" fill-opacity="0.2"/>
<path d="M18.7257 14.7833C18.8887 14.1523 19.5326 13.7723 20.1636 13.9351C21.2608 14.2184 22.2328 14.8588 22.9271 15.7544C23.6213 16.6499 23.9991 17.7506 24 18.8838V20.8519C23.9999 21.5037 23.4713 22.0324 22.8195 22.0324C22.1677 22.0324 21.6391 21.5037 21.639 20.8519V18.8857L21.6294 18.6581C21.5851 18.1292 21.3889 17.622 21.0617 17.2C20.6879 16.7179 20.1644 16.3737 19.5738 16.2212C18.9428 16.0582 18.5629 15.4143 18.7257 14.7833Z" fill="black" fill-opacity="0.2"/>
<path fill-rule="evenodd" clip-rule="evenodd" d="M9.04923 1.9668C11.874 1.9668 14.1641 4.25691 14.1641 7.08166C14.1641 9.90642 11.874 12.1965 9.04923 12.1965C6.22447 12.1965 3.93436 9.90642 3.93436 7.08166C3.93436 4.25691 6.22447 1.9668 9.04923 1.9668ZM9.04923 4.3278C7.5282 4.3278 6.29537 5.56064 6.29537 7.08166C6.29537 8.60268 7.5282 9.83552 9.04923 9.83552C10.5702 9.83552 11.8031 8.60268 11.8031 7.08166C11.8031 5.56064 10.5702 4.3278 9.04923 4.3278Z" fill="#1D1A24"/>
<path fill-rule="evenodd" clip-rule="evenodd" d="M9.04923 1.9668C11.874 1.9668 14.1641 4.25691 14.1641 7.08166C14.1641 9.90642 11.874 12.1965 9.04923 12.1965C6.22447 12.1965 3.93436 9.90642 3.93436 7.08166C3.93436 4.25691 6.22447 1.9668 9.04923 1.9668ZM9.04923 4.3278C7.5282 4.3278 6.29537 5.56064 6.29537 7.08166C6.29537 8.60268 7.5282 9.83552 9.04923 9.83552C10.5702 9.83552 11.8031 8.60268 11.8031 7.08166C11.8031 5.56064 10.5702 4.3278 9.04923 4.3278Z" fill="black" fill-opacity="0.2"/>
<path fill-rule="evenodd" clip-rule="evenodd" d="M9.04923 1.9668C11.874 1.9668 14.1641 4.25691 14.1641 7.08166C14.1641 9.90642 11.874 12.1965 9.04923 12.1965C6.22447 12.1965 3.93436 9.90642 3.93436 7.08166C3.93436 4.25691 6.22447 1.9668 9.04923 1.9668ZM9.04923 4.3278C7.5282 4.3278 6.29537 5.56064 6.29537 7.08166C6.29537 8.60268 7.5282 9.83552 9.04923 9.83552C10.5702 9.83552 11.8031 8.60268 11.8031 7.08166C11.8031 5.56064 10.5702 4.3278 9.04923 4.3278Z" fill="black" fill-opacity="0.2"/>
<path fill-rule="evenodd" clip-rule="evenodd" d="M9.04923 1.9668C11.874 1.9668 14.1641 4.25691 14.1641 7.08166C14.1641 9.90642 11.874 12.1965 9.04923 12.1965C6.22447 12.1965 3.93436 9.90642 3.93436 7.08166C3.93436 4.25691 6.22447 1.9668 9.04923 1.9668ZM9.04923 4.3278C7.5282 4.3278 6.29537 5.56064 6.29537 7.08166C6.29537 8.60268 7.5282 9.83552 9.04923 9.83552C10.5702 9.83552 11.8031 8.60268 11.8031 7.08166C11.8031 5.56064 10.5702 4.3278 9.04923 4.3278Z" fill="black" fill-opacity="0.2"/>
<path fill-rule="evenodd" clip-rule="evenodd" d="M9.04923 1.9668C11.874 1.9668 14.1641 4.25691 14.1641 7.08166C14.1641 9.90642 11.874 12.1965 9.04923 12.1965C6.22447 12.1965 3.93436 9.90642 3.93436 7.08166C3.93436 4.25691 6.22447 1.9668 9.04923 1.9668ZM9.04923 4.3278C7.5282 4.3278 6.29537 5.56064 6.29537 7.08166C6.29537 8.60268 7.5282 9.83552 9.04923 9.83552C10.5702 9.83552 11.8031 8.60268 11.8031 7.08166C11.8031 5.56064 10.5702 4.3278 9.04923 4.3278Z" fill="black" fill-opacity="0.2"/>
<path fill-rule="evenodd" clip-rule="evenodd" d="M9.04923 1.9668C11.874 1.9668 14.1641 4.25691 14.1641 7.08166C14.1641 9.90642 11.874 12.1965 9.04923 12.1965C6.22447 12.1965 3.93436 9.90642 3.93436 7.08166C3.93436 4.25691 6.22447 1.9668 9.04923 1.9668ZM9.04923 4.3278C7.5282 4.3278 6.29537 5.56064 6.29537 7.08166C6.29537 8.60268 7.5282 9.83552 9.04923 9.83552C10.5702 9.83552 11.8031 8.60268 11.8031 7.08166C11.8031 5.56064 10.5702 4.3278 9.04923 4.3278Z" fill="black" fill-opacity="0.2"/>
<path d="M14.7913 2.98209C14.9532 2.35093 15.596 1.97037 16.2273 2.13201C17.3273 2.41374 18.3022 3.0534 18.9985 3.95031C19.6948 4.84737 20.0733 5.95087 20.0733 7.08646L20.0685 7.29874C20.0245 8.35899 19.6512 9.38156 18.9985 10.2226C18.3022 11.1195 17.3272 11.7592 16.2273 12.0409C15.5959 12.2026 14.9531 11.8222 14.7913 11.1908C14.6298 10.5595 15.0101 9.91663 15.6414 9.75484C16.2337 9.60312 16.7592 9.25808 17.1341 8.77509C17.462 8.35255 17.6586 7.84481 17.7027 7.31507L17.7123 7.08646C17.7123 6.47506 17.509 5.88083 17.1341 5.39784C16.7591 4.91483 16.2337 4.56979 15.6414 4.41809C15.0101 4.25628 14.6297 3.61349 14.7913 2.98209Z" fill="#1D1A24"/>
<path d="M14.7913 2.98209C14.9532 2.35093 15.596 1.97037 16.2273 2.13201C17.3273 2.41374 18.3022 3.0534 18.9985 3.95031C19.6948 4.84737 20.0733 5.95087 20.0733 7.08646L20.0685 7.29874C20.0245 8.35899 19.6512 9.38156 18.9985 10.2226C18.3022 11.1195 17.3272 11.7592 16.2273 12.0409C15.5959 12.2026 14.9531 11.8222 14.7913 11.1908C14.6298 10.5595 15.0101 9.91663 15.6414 9.75484C16.2337 9.60312 16.7592 9.25808 17.1341 8.77509C17.462 8.35255 17.6586 7.84481 17.7027 7.31507L17.7123 7.08646C17.7123 6.47506 17.509 5.88083 17.1341 5.39784C16.7591 4.91483 16.2337 4.56979 15.6414 4.41809C15.0101 4.25628 14.6297 3.61349 14.7913 2.98209Z" fill="black" fill-opacity="0.2"/>
<path d="M14.7913 2.98209C14.9532 2.35093 15.596 1.97037 16.2273 2.13201C17.3273 2.41374 18.3022 3.0534 18.9985 3.95031C19.6948 4.84737 20.0733 5.95087 20.0733 7.08646L20.0685 7.29874C20.0245 8.35899 19.6512 9.38156 18.9985 10.2226C18.3022 11.1195 17.3272 11.7592 16.2273 12.0409C15.5959 12.2026 14.9531 11.8222 14.7913 11.1908C14.6298 10.5595 15.0101 9.91663 15.6414 9.75484C16.2337 9.60312 16.7592 9.25808 17.1341 8.77509C17.462 8.35255 17.6586 7.84481 17.7027 7.31507L17.7123 7.08646C17.7123 6.47506 17.509 5.88083 17.1341 5.39784C16.7591 4.91483 16.2337 4.56979 15.6414 4.41809C15.0101 4.25628 14.6297 3.61349 14.7913 2.98209Z" fill="black" fill-opacity="0.2"/>
<path d="M14.7913 2.98209C14.9532 2.35093 15.596 1.97037 16.2273 2.13201C17.3273 2.41374 18.3022 3.0534 18.9985 3.95031C19.6948 4.84737 20.0733 5.95087 20.0733 7.08646L20.0685 7.29874C20.0245 8.35899 19.6512 9.38156 18.9985 10.2226C18.3022 11.1195 17.3272 11.7592 16.2273 12.0409C15.5959 12.2026 14.9531 11.8222 14.7913 11.1908C14.6298 10.5595 15.0101 9.91663 15.6414 9.75484C16.2337 9.60312 16.7592 9.25808 17.1341 8.77509C17.462 8.35255 17.6586 7.84481 17.7027 7.31507L17.7123 7.08646C17.7123 6.47506 17.509 5.88083 17.1341 5.39784C16.7591 4.91483 16.2337 4.56979 15.6414 4.41809C15.0101 4.25628 14.6297 3.61349 14.7913 2.98209Z" fill="black" fill-opacity="0.2"/>
<path d="M14.7913 2.98209C14.9532 2.35093 15.596 1.97037 16.2273 2.13201C17.3273 2.41374 18.3022 3.0534 18.9985 3.95031C19.6948 4.84737 20.0733 5.95087 20.0733 7.08646L20.0685 7.29874C20.0245 8.35899 19.6512 9.38156 18.9985 10.2226C18.3022 11.1195 17.3272 11.7592 16.2273 12.0409C15.5959 12.2026 14.9531 11.8222 14.7913 11.1908C14.6298 10.5595 15.0101 9.91663 15.6414 9.75484C16.2337 9.60312 16.7592 9.25808 17.1341 8.77509C17.462 8.35255 17.6586 7.84481 17.7027 7.31507L17.7123 7.08646C17.7123 6.47506 17.509 5.88083 17.1341 5.39784C16.7591 4.91483 16.2337 4.56979 15.6414 4.41809C15.0101 4.25628 14.6297 3.61349 14.7913 2.98209Z" fill="black" fill-opacity="0.2"/>
<path d="M14.7913 2.98209C14.9532 2.35093 15.596 1.97037 16.2273 2.13201C17.3273 2.41374 18.3022 3.0534 18.9985 3.95031C19.6948 4.84737 20.0733 5.95087 20.0733 7.08646L20.0685 7.29874C20.0245 8.35899 19.6512 9.38156 18.9985 10.2226C18.3022 11.1195 17.3272 11.7592 16.2273 12.0409C15.5959 12.2026 14.9531 11.8222 14.7913 11.1908C14.6298 10.5595 15.0101 9.91663 15.6414 9.75484C16.2337 9.60312 16.7592 9.25808 17.1341 8.77509C17.462 8.35255 17.6586 7.84481 17.7027 7.31507L17.7123 7.08646C17.7123 6.47506 17.509 5.88083 17.1341 5.39784C16.7591 4.91483 16.2337 4.56979 15.6414 4.41809C15.0101 4.25628 14.6297 3.61349 14.7913 2.98209Z" fill="black" fill-opacity="0.2"/>
</svg>
