<svg width="24" height="24" viewBox="0 0 24 24" fill="none" xmlns="http://www.w3.org/2000/svg">
<path d="M13.6006 5.1543C14.6252 5.1543 15.4687 5.4533 16.0566 6.03125C16.6451 6.6098 16.9531 7.44431 16.9531 8.4668V9.14746L19.6797 6.84277L19.6816 6.84082C20.018 6.56338 20.4188 6.34293 20.8193 6.34277C21.227 6.34277 21.5774 6.49489 21.8242 6.76465C22.0695 7.03276 22.2002 7.40308 22.2002 7.82031V16.1787C22.2002 16.5959 22.0694 16.9663 21.8242 17.2344C21.5774 17.5041 21.227 17.6562 20.8193 17.6562C20.4188 17.6561 20.018 17.4356 19.6816 17.1582L19.6797 17.1562L16.9531 14.8428V15.5244C16.9531 16.5507 16.645 17.3872 16.0566 17.9668C15.4687 18.5458 14.6251 18.8447 13.6006 18.8447H5.15234C4.12786 18.8446 3.28421 18.5459 2.69629 17.9668C2.10788 17.3872 1.79983 16.5507 1.7998 15.5244V8.4668C1.79982 7.44026 2.13299 6.60689 2.73145 6.03027C3.32879 5.45477 4.17029 5.15439 5.15234 5.1543H13.6006ZM5.37891 6.76758C4.74872 6.76762 4.28753 6.93058 3.9834 7.22949C3.67996 7.52783 3.50195 7.99223 3.50195 8.66113V15.3379C3.50195 16.0025 3.67991 16.4653 3.9834 16.7627C4.28758 17.0607 4.74877 17.2236 5.37891 17.2236H13.374C14 17.2236 14.4621 17.0612 14.7676 16.7627C15.0722 16.465 15.252 16.002 15.252 15.3379V8.66113C15.252 7.99286 15.0721 7.52807 14.7676 7.22949C14.4622 6.9302 14 6.76758 13.374 6.76758H5.37891ZM20.5381 8.25293L16.9531 11.2129V12.7852L20.5371 15.7451C20.5403 15.7473 20.5438 15.7489 20.5469 15.751V8.24609C20.5441 8.24824 20.5411 8.25059 20.5381 8.25293Z" fill="#1D1A24"/>
</svg>
