<svg width="24" height="24" viewBox="0 0 24 24" fill="none" xmlns="http://www.w3.org/2000/svg">
<path fill-rule="evenodd" clip-rule="evenodd" d="M13.9672 3.93457C15.7054 3.9347 17.1149 5.34402 17.1149 7.08225V9.70644L22.1337 6.12172C22.4933 5.86503 22.9664 5.83035 23.3593 6.03239C23.7523 6.23473 24 6.6402 24 7.08225V16.9182C24 17.3602 23.7523 17.7657 23.3593 17.968C22.9664 18.1701 22.4933 18.1354 22.1337 17.8787L17.1149 14.293V16.9182C17.1149 18.6564 15.7054 20.0657 13.9672 20.0658H3.14768C1.40937 20.0658 0 18.6565 0 16.9182V7.08225C1.68988e-07 5.34394 1.40937 3.93457 3.14768 3.93457H13.9672ZM3.14768 6.29557C2.71311 6.29557 2.361 6.64768 2.361 7.08225V16.9182C2.361 17.3527 2.71311 17.7048 3.14768 17.7048H13.9672C14.4016 17.7047 14.7539 17.3527 14.7539 16.9182V7.08225C14.7539 6.64776 14.4016 6.2957 13.9672 6.29557H3.14768ZM17.9649 12.0002L21.639 14.6244V9.37506L17.9649 12.0002Z" fill="#1D1A24"/>
<path fill-rule="evenodd" clip-rule="evenodd" d="M13.9672 3.93457C15.7054 3.9347 17.1149 5.34402 17.1149 7.08225V9.70644L22.1337 6.12172C22.4933 5.86503 22.9664 5.83035 23.3593 6.03239C23.7523 6.23473 24 6.6402 24 7.08225V16.9182C24 17.3602 23.7523 17.7657 23.3593 17.968C22.9664 18.1701 22.4933 18.1354 22.1337 17.8787L17.1149 14.293V16.9182C17.1149 18.6564 15.7054 20.0657 13.9672 20.0658H3.14768C1.40937 20.0658 0 18.6565 0 16.9182V7.08225C1.68988e-07 5.34394 1.40937 3.93457 3.14768 3.93457H13.9672ZM3.14768 6.29557C2.71311 6.29557 2.361 6.64768 2.361 7.08225V16.9182C2.361 17.3527 2.71311 17.7048 3.14768 17.7048H13.9672C14.4016 17.7047 14.7539 17.3527 14.7539 16.9182V7.08225C14.7539 6.64776 14.4016 6.2957 13.9672 6.29557H3.14768ZM17.9649 12.0002L21.639 14.6244V9.37506L17.9649 12.0002Z" fill="black" fill-opacity="0.2"/>
<path fill-rule="evenodd" clip-rule="evenodd" d="M13.9672 3.93457C15.7054 3.9347 17.1149 5.34402 17.1149 7.08225V9.70644L22.1337 6.12172C22.4933 5.86503 22.9664 5.83035 23.3593 6.03239C23.7523 6.23473 24 6.6402 24 7.08225V16.9182C24 17.3602 23.7523 17.7657 23.3593 17.968C22.9664 18.1701 22.4933 18.1354 22.1337 17.8787L17.1149 14.293V16.9182C17.1149 18.6564 15.7054 20.0657 13.9672 20.0658H3.14768C1.40937 20.0658 0 18.6565 0 16.9182V7.08225C1.68988e-07 5.34394 1.40937 3.93457 3.14768 3.93457H13.9672ZM3.14768 6.29557C2.71311 6.29557 2.361 6.64768 2.361 7.08225V16.9182C2.361 17.3527 2.71311 17.7048 3.14768 17.7048H13.9672C14.4016 17.7047 14.7539 17.3527 14.7539 16.9182V7.08225C14.7539 6.64776 14.4016 6.2957 13.9672 6.29557H3.14768ZM17.9649 12.0002L21.639 14.6244V9.37506L17.9649 12.0002Z" fill="black" fill-opacity="0.2"/>
<path fill-rule="evenodd" clip-rule="evenodd" d="M13.9672 3.93457C15.7054 3.9347 17.1149 5.34402 17.1149 7.08225V9.70644L22.1337 6.12172C22.4933 5.86503 22.9664 5.83035 23.3593 6.03239C23.7523 6.23473 24 6.6402 24 7.08225V16.9182C24 17.3602 23.7523 17.7657 23.3593 17.968C22.9664 18.1701 22.4933 18.1354 22.1337 17.8787L17.1149 14.293V16.9182C17.1149 18.6564 15.7054 20.0657 13.9672 20.0658H3.14768C1.40937 20.0658 0 18.6565 0 16.9182V7.08225C1.68988e-07 5.34394 1.40937 3.93457 3.14768 3.93457H13.9672ZM3.14768 6.29557C2.71311 6.29557 2.361 6.64768 2.361 7.08225V16.9182C2.361 17.3527 2.71311 17.7048 3.14768 17.7048H13.9672C14.4016 17.7047 14.7539 17.3527 14.7539 16.9182V7.08225C14.7539 6.64776 14.4016 6.2957 13.9672 6.29557H3.14768ZM17.9649 12.0002L21.639 14.6244V9.37506L17.9649 12.0002Z" fill="black" fill-opacity="0.2"/>
<path fill-rule="evenodd" clip-rule="evenodd" d="M13.9672 3.93457C15.7054 3.9347 17.1149 5.34402 17.1149 7.08225V9.70644L22.1337 6.12172C22.4933 5.86503 22.9664 5.83035 23.3593 6.03239C23.7523 6.23473 24 6.6402 24 7.08225V16.9182C24 17.3602 23.7523 17.7657 23.3593 17.968C22.9664 18.1701 22.4933 18.1354 22.1337 17.8787L17.1149 14.293V16.9182C17.1149 18.6564 15.7054 20.0657 13.9672 20.0658H3.14768C1.40937 20.0658 0 18.6565 0 16.9182V7.08225C1.68988e-07 5.34394 1.40937 3.93457 3.14768 3.93457H13.9672ZM3.14768 6.29557C2.71311 6.29557 2.361 6.64768 2.361 7.08225V16.9182C2.361 17.3527 2.71311 17.7048 3.14768 17.7048H13.9672C14.4016 17.7047 14.7539 17.3527 14.7539 16.9182V7.08225C14.7539 6.64776 14.4016 6.2957 13.9672 6.29557H3.14768ZM17.9649 12.0002L21.639 14.6244V9.37506L17.9649 12.0002Z" fill="black" fill-opacity="0.2"/>
<path fill-rule="evenodd" clip-rule="evenodd" d="M13.9672 3.93457C15.7054 3.9347 17.1149 5.34402 17.1149 7.08225V9.70644L22.1337 6.12172C22.4933 5.86503 22.9664 5.83035 23.3593 6.03239C23.7523 6.23473 24 6.6402 24 7.08225V16.9182C24 17.3602 23.7523 17.7657 23.3593 17.968C22.9664 18.1701 22.4933 18.1354 22.1337 17.8787L17.1149 14.293V16.9182C17.1149 18.6564 15.7054 20.0657 13.9672 20.0658H3.14768C1.40937 20.0658 0 18.6565 0 16.9182V7.08225C1.68988e-07 5.34394 1.40937 3.93457 3.14768 3.93457H13.9672ZM3.14768 6.29557C2.71311 6.29557 2.361 6.64768 2.361 7.08225V16.9182C2.361 17.3527 2.71311 17.7048 3.14768 17.7048H13.9672C14.4016 17.7047 14.7539 17.3527 14.7539 16.9182V7.08225C14.7539 6.64776 14.4016 6.2957 13.9672 6.29557H3.14768ZM17.9649 12.0002L21.639 14.6244V9.37506L17.9649 12.0002Z" fill="black" fill-opacity="0.2"/>
</svg>
