<svg width="24" height="24" viewBox="0 0 24 24" fill="none" xmlns="http://www.w3.org/2000/svg">
<path d="M17.7237 4.39052C18.2444 3.86983 19.0888 3.86983 19.6095 4.39052C20.1301 4.91122 20.1302 5.75569 19.6095 6.27635L13.8859 12L19.6095 17.7237C20.1301 18.2444 20.1302 19.0889 19.6095 19.6095C19.0889 20.1302 18.2444 20.1301 17.7237 19.6095L12 13.8859L6.27635 19.6095C5.75569 20.1302 4.91122 20.1301 4.39052 19.6095C3.86983 19.0888 3.86983 18.2444 4.39052 17.7237L10.1142 12L4.39052 6.27635C3.86983 5.75566 3.86983 4.91121 4.39052 4.39052C4.91121 3.86983 5.75566 3.86983 6.27635 4.39052L12 10.1142L17.7237 4.39052Z" fill="#1D1A24"/>
<path d="M17.7237 4.39052C18.2444 3.86983 19.0888 3.86983 19.6095 4.39052C20.1301 4.91122 20.1302 5.75569 19.6095 6.27635L13.8859 12L19.6095 17.7237C20.1301 18.2444 20.1302 19.0889 19.6095 19.6095C19.0889 20.1302 18.2444 20.1301 17.7237 19.6095L12 13.8859L6.27635 19.6095C5.75569 20.1302 4.91122 20.1301 4.39052 19.6095C3.86983 19.0888 3.86983 18.2444 4.39052 17.7237L10.1142 12L4.39052 6.27635C3.86983 5.75566 3.86983 4.91121 4.39052 4.39052C4.91121 3.86983 5.75566 3.86983 6.27635 4.39052L12 10.1142L17.7237 4.39052Z" fill="black" fill-opacity="0.2"/>
<path d="M17.7237 4.39052C18.2444 3.86983 19.0888 3.86983 19.6095 4.39052C20.1301 4.91122 20.1302 5.75569 19.6095 6.27635L13.8859 12L19.6095 17.7237C20.1301 18.2444 20.1302 19.0889 19.6095 19.6095C19.0889 20.1302 18.2444 20.1301 17.7237 19.6095L12 13.8859L6.27635 19.6095C5.75569 20.1302 4.91122 20.1301 4.39052 19.6095C3.86983 19.0888 3.86983 18.2444 4.39052 17.7237L10.1142 12L4.39052 6.27635C3.86983 5.75566 3.86983 4.91121 4.39052 4.39052C4.91121 3.86983 5.75566 3.86983 6.27635 4.39052L12 10.1142L17.7237 4.39052Z" fill="black" fill-opacity="0.2"/>
<path d="M17.7237 4.39052C18.2444 3.86983 19.0888 3.86983 19.6095 4.39052C20.1301 4.91122 20.1302 5.75569 19.6095 6.27635L13.8859 12L19.6095 17.7237C20.1301 18.2444 20.1302 19.0889 19.6095 19.6095C19.0889 20.1302 18.2444 20.1301 17.7237 19.6095L12 13.8859L6.27635 19.6095C5.75569 20.1302 4.91122 20.1301 4.39052 19.6095C3.86983 19.0888 3.86983 18.2444 4.39052 17.7237L10.1142 12L4.39052 6.27635C3.86983 5.75566 3.86983 4.91121 4.39052 4.39052C4.91121 3.86983 5.75566 3.86983 6.27635 4.39052L12 10.1142L17.7237 4.39052Z" fill="black" fill-opacity="0.2"/>
<path d="M17.7237 4.39052C18.2444 3.86983 19.0888 3.86983 19.6095 4.39052C20.1301 4.91122 20.1302 5.75569 19.6095 6.27635L13.8859 12L19.6095 17.7237C20.1301 18.2444 20.1302 19.0889 19.6095 19.6095C19.0889 20.1302 18.2444 20.1301 17.7237 19.6095L12 13.8859L6.27635 19.6095C5.75569 20.1302 4.91122 20.1301 4.39052 19.6095C3.86983 19.0888 3.86983 18.2444 4.39052 17.7237L10.1142 12L4.39052 6.27635C3.86983 5.75566 3.86983 4.91121 4.39052 4.39052C4.91121 3.86983 5.75566 3.86983 6.27635 4.39052L12 10.1142L17.7237 4.39052Z" fill="black" fill-opacity="0.2"/>
<path d="M17.7237 4.39052C18.2444 3.86983 19.0888 3.86983 19.6095 4.39052C20.1301 4.91122 20.1302 5.75569 19.6095 6.27635L13.8859 12L19.6095 17.7237C20.1301 18.2444 20.1302 19.0889 19.6095 19.6095C19.0889 20.1302 18.2444 20.1301 17.7237 19.6095L12 13.8859L6.27635 19.6095C5.75569 20.1302 4.91122 20.1301 4.39052 19.6095C3.86983 19.0888 3.86983 18.2444 4.39052 17.7237L10.1142 12L4.39052 6.27635C3.86983 5.75566 3.86983 4.91121 4.39052 4.39052C4.91121 3.86983 5.75566 3.86983 6.27635 4.39052L12 10.1142L17.7237 4.39052Z" fill="black" fill-opacity="0.2"/>
</svg>
