<svg width="24" height="24" viewBox="0 0 24 24" fill="none" xmlns="http://www.w3.org/2000/svg">
<path d="M14.1133 8.2207C14.5735 7.76045 15.32 7.76045 15.7803 8.2207C16.2399 8.68086 16.24 9.4266 15.7803 9.88672L13.666 12L15.7803 14.1133C16.2401 14.5736 16.2404 15.3202 15.7803 15.7803C15.3202 16.2404 14.5736 16.2401 14.1133 15.7803L12 13.666L9.88672 15.7803C9.4266 16.24 8.68086 16.2399 8.2207 15.7803C7.76045 15.32 7.76045 14.5735 8.2207 14.1133L10.333 12L8.2207 9.88672C7.76045 9.42647 7.76045 8.68096 8.2207 8.2207C8.68096 7.76045 9.42647 7.76045 9.88672 8.2207L12 10.333L14.1133 8.2207Z" fill="#1D1A24"/>
<path d="M14.1133 8.2207C14.5735 7.76045 15.32 7.76045 15.7803 8.2207C16.2399 8.68086 16.24 9.4266 15.7803 9.88672L13.666 12L15.7803 14.1133C16.2401 14.5736 16.2404 15.3202 15.7803 15.7803C15.3202 16.2404 14.5736 16.2401 14.1133 15.7803L12 13.666L9.88672 15.7803C9.4266 16.24 8.68086 16.2399 8.2207 15.7803C7.76045 15.32 7.76045 14.5735 8.2207 14.1133L10.333 12L8.2207 9.88672C7.76045 9.42647 7.76045 8.68096 8.2207 8.2207C8.68096 7.76045 9.42647 7.76045 9.88672 8.2207L12 10.333L14.1133 8.2207Z" fill="black" fill-opacity="0.2"/>
<path d="M14.1133 8.2207C14.5735 7.76045 15.32 7.76045 15.7803 8.2207C16.2399 8.68086 16.24 9.4266 15.7803 9.88672L13.666 12L15.7803 14.1133C16.2401 14.5736 16.2404 15.3202 15.7803 15.7803C15.3202 16.2404 14.5736 16.2401 14.1133 15.7803L12 13.666L9.88672 15.7803C9.4266 16.24 8.68086 16.2399 8.2207 15.7803C7.76045 15.32 7.76045 14.5735 8.2207 14.1133L10.333 12L8.2207 9.88672C7.76045 9.42647 7.76045 8.68096 8.2207 8.2207C8.68096 7.76045 9.42647 7.76045 9.88672 8.2207L12 10.333L14.1133 8.2207Z" fill="black" fill-opacity="0.2"/>
<path d="M14.1133 8.2207C14.5735 7.76045 15.32 7.76045 15.7803 8.2207C16.2399 8.68086 16.24 9.4266 15.7803 9.88672L13.666 12L15.7803 14.1133C16.2401 14.5736 16.2404 15.3202 15.7803 15.7803C15.3202 16.2404 14.5736 16.2401 14.1133 15.7803L12 13.666L9.88672 15.7803C9.4266 16.24 8.68086 16.2399 8.2207 15.7803C7.76045 15.32 7.76045 14.5735 8.2207 14.1133L10.333 12L8.2207 9.88672C7.76045 9.42647 7.76045 8.68096 8.2207 8.2207C8.68096 7.76045 9.42647 7.76045 9.88672 8.2207L12 10.333L14.1133 8.2207Z" fill="black" fill-opacity="0.2"/>
<path d="M14.1133 8.2207C14.5735 7.76045 15.32 7.76045 15.7803 8.2207C16.2399 8.68086 16.24 9.4266 15.7803 9.88672L13.666 12L15.7803 14.1133C16.2401 14.5736 16.2404 15.3202 15.7803 15.7803C15.3202 16.2404 14.5736 16.2401 14.1133 15.7803L12 13.666L9.88672 15.7803C9.4266 16.24 8.68086 16.2399 8.2207 15.7803C7.76045 15.32 7.76045 14.5735 8.2207 14.1133L10.333 12L8.2207 9.88672C7.76045 9.42647 7.76045 8.68096 8.2207 8.2207C8.68096 7.76045 9.42647 7.76045 9.88672 8.2207L12 10.333L14.1133 8.2207Z" fill="black" fill-opacity="0.2"/>
<path d="M14.1133 8.2207C14.5735 7.76045 15.32 7.76045 15.7803 8.2207C16.2399 8.68086 16.24 9.4266 15.7803 9.88672L13.666 12L15.7803 14.1133C16.2401 14.5736 16.2404 15.3202 15.7803 15.7803C15.3202 16.2404 14.5736 16.2401 14.1133 15.7803L12 13.666L9.88672 15.7803C9.4266 16.24 8.68086 16.2399 8.2207 15.7803C7.76045 15.32 7.76045 14.5735 8.2207 14.1133L10.333 12L8.2207 9.88672C7.76045 9.42647 7.76045 8.68096 8.2207 8.2207C8.68096 7.76045 9.42647 7.76045 9.88672 8.2207L12 10.333L14.1133 8.2207Z" fill="black" fill-opacity="0.2"/>
<path fill-rule="evenodd" clip-rule="evenodd" d="M12 1C18.075 1.00002 23 5.925 23 12C23 18.075 18.075 23 12 23C5.925 23 1.00002 18.075 1 12C1.00002 5.925 5.925 1.00002 12 1ZM12 3.35742C7.22679 3.35744 3.35744 7.22679 3.35742 12C3.35744 16.7732 7.22679 20.6426 12 20.6426C16.7732 20.6426 20.6426 16.7732 20.6426 12C20.6426 7.22679 16.7732 3.35744 12 3.35742Z" fill="#1D1A24"/>
<path fill-rule="evenodd" clip-rule="evenodd" d="M12 1C18.075 1.00002 23 5.925 23 12C23 18.075 18.075 23 12 23C5.925 23 1.00002 18.075 1 12C1.00002 5.925 5.925 1.00002 12 1ZM12 3.35742C7.22679 3.35744 3.35744 7.22679 3.35742 12C3.35744 16.7732 7.22679 20.6426 12 20.6426C16.7732 20.6426 20.6426 16.7732 20.6426 12C20.6426 7.22679 16.7732 3.35744 12 3.35742Z" fill="black" fill-opacity="0.2"/>
<path fill-rule="evenodd" clip-rule="evenodd" d="M12 1C18.075 1.00002 23 5.925 23 12C23 18.075 18.075 23 12 23C5.925 23 1.00002 18.075 1 12C1.00002 5.925 5.925 1.00002 12 1ZM12 3.35742C7.22679 3.35744 3.35744 7.22679 3.35742 12C3.35744 16.7732 7.22679 20.6426 12 20.6426C16.7732 20.6426 20.6426 16.7732 20.6426 12C20.6426 7.22679 16.7732 3.35744 12 3.35742Z" fill="black" fill-opacity="0.2"/>
<path fill-rule="evenodd" clip-rule="evenodd" d="M12 1C18.075 1.00002 23 5.925 23 12C23 18.075 18.075 23 12 23C5.925 23 1.00002 18.075 1 12C1.00002 5.925 5.925 1.00002 12 1ZM12 3.35742C7.22679 3.35744 3.35744 7.22679 3.35742 12C3.35744 16.7732 7.22679 20.6426 12 20.6426C16.7732 20.6426 20.6426 16.7732 20.6426 12C20.6426 7.22679 16.7732 3.35744 12 3.35742Z" fill="black" fill-opacity="0.2"/>
<path fill-rule="evenodd" clip-rule="evenodd" d="M12 1C18.075 1.00002 23 5.925 23 12C23 18.075 18.075 23 12 23C5.925 23 1.00002 18.075 1 12C1.00002 5.925 5.925 1.00002 12 1ZM12 3.35742C7.22679 3.35744 3.35744 7.22679 3.35742 12C3.35744 16.7732 7.22679 20.6426 12 20.6426C16.7732 20.6426 20.6426 16.7732 20.6426 12C20.6426 7.22679 16.7732 3.35744 12 3.35742Z" fill="black" fill-opacity="0.2"/>
<path fill-rule="evenodd" clip-rule="evenodd" d="M12 1C18.075 1.00002 23 5.925 23 12C23 18.075 18.075 23 12 23C5.925 23 1.00002 18.075 1 12C1.00002 5.925 5.925 1.00002 12 1ZM12 3.35742C7.22679 3.35744 3.35744 7.22679 3.35742 12C3.35744 16.7732 7.22679 20.6426 12 20.6426C16.7732 20.6426 20.6426 16.7732 20.6426 12C20.6426 7.22679 16.7732 3.35744 12 3.35742Z" fill="black" fill-opacity="0.2"/>
</svg>
